<?xml version="1.0" encoding="UTF-8" standalone="no"?>
<svg xmlns:dc="http://purl.org/dc/elements/1.1/" xmlns:cc="http://creativecommons.org/ns#" xmlns:rdf="http://www.w3.org/1999/02/22-rdf-syntax-ns#" xmlns:svg="http://www.w3.org/2000/svg" xmlns="http://www.w3.org/2000/svg" viewBox="0 0 96.875 85.843872" height="68" width="78" xml:space="preserve" version="1.1" id="svg2"><metadata id="metadata8"><rdf:RDF><cc:Work rdf:about=""><dc:format>image/svg+xml</dc:format><dc:type rdf:resource="http://purl.org/dc/dcmitype/StillImage" /><dc:title></dc:title></cc:Work></rdf:RDF></metadata><defs id="defs6"><clipPath id="clipPath16" clipPathUnits="userSpaceOnUse"><path id="path18" d="m 0,68.675 77.5,0 L 77.5,0 0,0 0,68.675 Z" /></clipPath></defs><g transform="matrix(1.25,0,0,-1.25,0,85.843875)" id="g10"><g style="stroke:#0079c2;stroke-opacity:1" id="g12"><g style="stroke:#0079c2;stroke-opacity:1" clip-path="url(#clipPath16)" id="g14"><g style="stroke:#0079c2;stroke-opacity:1" transform="translate(26.25,44.9252)" id="g20"><path id="path22" style="fill:none;stroke:#0079c2;stroke-width:2.5;stroke-linecap:butt;stroke-linejoin:miter;stroke-miterlimit:10;stroke-dasharray:none;stroke-opacity:1" d="m 0,0 c 0,-2.761 -2.236,-5 -5,-5 -2.759,0 -5,2.239 -5,5 0,2.764 2.241,5 5,5 2.764,0 5,-2.236 5,-5 z" /></g><g style="stroke:#0079c2;stroke-opacity:1" transform="translate(43.75,44.9252)" id="g24"><path id="path26" style="fill:none;stroke:#0079c2;stroke-width:2.5;stroke-linecap:butt;stroke-linejoin:miter;stroke-miterlimit:10;stroke-dasharray:none;stroke-opacity:1" d="m 0,0 c 0,-2.761 -2.236,-5 -5,-5 -2.759,0 -5,2.239 -5,5 0,2.764 2.241,5 5,5 2.764,0 5,-2.236 5,-5 z" /></g><g style="stroke:#0079c2;stroke-opacity:1" transform="translate(61.25,44.9252)" id="g28"><path id="path30" style="fill:none;stroke:#0079c2;stroke-width:2.5;stroke-linecap:butt;stroke-linejoin:miter;stroke-miterlimit:10;stroke-dasharray:none;stroke-opacity:1" d="m 0,0 c 0,-2.761 -2.236,-5 -5,-5 -2.759,0 -5,2.239 -5,5 0,2.764 2.241,5 5,5 2.764,0 5,-2.236 5,-5 z" /></g><g style="stroke:#0079c2;stroke-opacity:1" transform="translate(21.25,19.9252)" id="g32"><path id="path34" style="fill:none;stroke:#0079c2;stroke-width:2.5;stroke-linecap:butt;stroke-linejoin:miter;stroke-miterlimit:10;stroke-dasharray:none;stroke-opacity:1" d="m 0,0 55,0 0,47.5 -75,0 0,-63.75 L -7.5,0" /></g></g></g></g></svg>