<?xml version="1.0" encoding="UTF-8" standalone="no"?>
<svg xmlns:dc="http://purl.org/dc/elements/1.1/" xmlns:cc="http://creativecommons.org/ns#" xmlns:rdf="http://www.w3.org/1999/02/22-rdf-syntax-ns#" xmlns:svg="http://www.w3.org/2000/svg" xmlns="http://www.w3.org/2000/svg" viewBox="0 0 96.855247 71.87925" height="58" width="78" xml:space="preserve" version="1.1" id="svg2"><metadata id="metadata8"><rdf:RDF><cc:Work rdf:about=""><dc:format>image/svg+xml</dc:format><dc:type rdf:resource="http://purl.org/dc/dcmitype/StillImage" /><dc:title></dc:title></cc:Work></rdf:RDF></metadata><defs id="defs6"><clipPath id="clipPath16" clipPathUnits="userSpaceOnUse"><path id="path18" d="m 0,57.503 77.484,0 L 77.484,0 0,0 0,57.503 Z" /></clipPath></defs><g transform="matrix(1.25,0,0,-1.25,0,71.87925)" id="g10"><g style="stroke:#0079c2;stroke-opacity:1" id="g12"><g style="stroke:#0079c2;stroke-opacity:1" clip-path="url(#clipPath16)" id="g14"><g style="stroke:#0079c2;stroke-opacity:1" transform="translate(1.2421,31.2517)" id="g20"><path id="path22" style="fill:none;stroke:#0079c2;stroke-width:2.5;stroke-linecap:butt;stroke-linejoin:miter;stroke-miterlimit:10;stroke-dasharray:none;stroke-opacity:1" d="M 0,0 C 1.584,14.038 17.724,24.839 37.275,25 56.824,25.161 73.183,14.009 75,0" /></g><g style="stroke:#0079c2;stroke-opacity:1" transform="translate(1.2421,26.2517)" id="g24"><path id="path26" style="fill:none;stroke:#0079c2;stroke-width:2.5;stroke-linecap:butt;stroke-linejoin:miter;stroke-miterlimit:10;stroke-dasharray:none;stroke-opacity:1" d="M 0,0 C 1.814,-14.011 18.179,-25.161 37.729,-25 57.278,-24.839 73.418,-14.04 75,0" /></g><g style="stroke:#0079c2;stroke-opacity:1" transform="translate(56.2421,28.8957)" id="g28"><path id="path30" style="fill:none;stroke:#0079c2;stroke-width:2.5;stroke-linecap:butt;stroke-linejoin:miter;stroke-miterlimit:10;stroke-dasharray:none;stroke-opacity:1" d="m 0,0 c 0.08,-9.665 -7.691,-17.563 -17.354,-17.644 -9.663,-0.08 -17.563,7.691 -17.643,17.354 -0.081,9.668 7.692,17.566 17.355,17.646 C -7.981,17.434 -0.078,9.666 0,0 Z" /></g><g style="stroke:#0079c2;stroke-opacity:1" transform="translate(31.2421,28.6882)" id="g32"><path id="path34" style="fill:none;stroke:#0079c2;stroke-width:2.5;stroke-linecap:butt;stroke-linejoin:miter;stroke-miterlimit:10;stroke-dasharray:none;stroke-opacity:1" d="M 0,0 C -0.034,4.145 3.301,7.529 7.439,7.563" /></g></g></g></g></svg>