<?xml version="1.0" encoding="UTF-8" standalone="no"?>
<svg xmlns:dc="http://purl.org/dc/elements/1.1/" xmlns:cc="http://creativecommons.org/ns#" xmlns:rdf="http://www.w3.org/1999/02/22-rdf-syntax-ns#" xmlns:svg="http://www.w3.org/2000/svg" xmlns="http://www.w3.org/2000/svg" viewBox="0 0 96.847504 76.5625" height="62" width="78" xml:space="preserve" version="1.1" id="svg2"><metadata id="metadata8"><rdf:RDF><cc:Work rdf:about=""><dc:format>image/svg+xml</dc:format><dc:type rdf:resource="http://purl.org/dc/dcmitype/StillImage" /><dc:title></dc:title></cc:Work></rdf:RDF></metadata><defs id="defs6"><clipPath id="clipPath16" clipPathUnits="userSpaceOnUse"><path id="path18" d="m 0,61.25 77.478,0 L 77.478,0 0,0 0,61.25 Z" /></clipPath></defs><g transform="matrix(1.25,0,0,-1.25,0,76.5625)" id="g10"><g style="stroke:#0079c2;stroke-opacity:1" id="g12"><g style="stroke:#0079c2;stroke-opacity:1" clip-path="url(#clipPath16)" id="g14"><g style="stroke:#0079c2;stroke-opacity:1" transform="translate(26.2305,35)" id="g20"><path id="path22" style="fill:none;stroke:#0079c2;stroke-width:2.5;stroke-linecap:butt;stroke-linejoin:miter;stroke-miterlimit:10;stroke-dasharray:none;stroke-opacity:1" d="M 0,0 C 0,0.791 -0.081,1.572 -0.01,2.344 1.172,15.049 12.358,25 25.376,25 l -0.379,0 c 13.809,0 25,-11.196 25,-25 0,-13.809 -11.191,-25 -25,-25" /></g><g style="stroke:#0079c2;stroke-opacity:1" transform="translate(51.4185,50)" id="g24"><path id="path26" style="fill:none;stroke:#0079c2;stroke-width:2.5;stroke-linecap:butt;stroke-linejoin:miter;stroke-miterlimit:10;stroke-dasharray:none;stroke-opacity:1" d="m 0,0 c -7.734,-0.098 -14.551,-6.152 -15.239,-13.581 l 0.024,-0.25 c 0.015,-0.388 0.027,-0.778 0.027,-1.169" /></g><g style="stroke:#0079c2;stroke-opacity:1" transform="translate(18.75,45)" id="g28"><path id="path30" style="fill:none;stroke:#0079c2;stroke-width:2.5;stroke-linecap:butt;stroke-linejoin:miter;stroke-miterlimit:10;stroke-dasharray:none;stroke-opacity:1" d="m 0,0 c -9.665,0 -17.5,-7.835 -17.5,-17.5 0,-9.665 7.837,-17.5 17.503,-17.5 l 7.485,0" /></g><g style="stroke:#0079c2;stroke-opacity:1" transform="translate(38.728,0)" id="g32"><path id="path34" style="fill:none;stroke:#0079c2;stroke-width:2.5;stroke-linecap:butt;stroke-linejoin:miter;stroke-miterlimit:10;stroke-dasharray:none;stroke-opacity:1" d="M 0,0 0,20" /></g><g style="stroke:#0079c2;stroke-opacity:1" transform="translate(31.239,12.5)" id="g36"><path id="path38" style="fill:none;stroke:#0079c2;stroke-width:2.5;stroke-linecap:butt;stroke-linejoin:miter;stroke-miterlimit:10;stroke-dasharray:none;stroke-opacity:1" d="M 0,0 7.489,7.07 15,0" /></g></g></g></g></svg>