<?xml version="1.0" standalone="no"?>
<!DOCTYPE svg PUBLIC "-//W3C//DTD SVG 1.1//EN" "http://www.w3.org/Graphics/SVG/1.1/DTD/svg11.dtd" >
<svg>
<metadata>
Created by FontForge 20090622 at Thu Jul  2 09:07:57 2015
 By deploy user
Copyright (c) 2008 by Dino dos Santos _DSType. All rights reserved.
</metadata>
<defs>
<font id="Prelo-Book" horiz-adv-x="600" >
  <font-face 
    font-family="Prelo Book"
    font-weight="400"
    font-stretch="normal"
    units-per-em="1000"
    panose-1="2 0 5 6 4 0 0 2 0 4"
    ascent="750"
    descent="-250"
    x-height="500"
    cap-height="680"
    bbox="-84 -290 1038 950"
    underline-thickness="50"
    underline-position="-50"
    unicode-range="U+0020-U+FB06"
  />
<missing-glyph horiz-adv-x="590" 
d="M70 500h450v-500h-450v500zM287 249l-206 236v-469zM304 249l205 -231v465zM93 488l203 -229l202 229h-405zM296 240l-201 -228h401z" />
    <glyph glyph-name=".notdef" horiz-adv-x="590" 
d="M70 500h450v-500h-450v500zM287 249l-206 236v-469zM304 249l205 -231v465zM93 488l203 -229l202 229h-405zM296 240l-201 -228h401z" />
    <glyph glyph-name=".null" horiz-adv-x="0" 
 />
    <glyph glyph-name="nonmarkingreturn" horiz-adv-x="333" 
 />
    <glyph glyph-name="space" unicode=" " horiz-adv-x="180" 
 />
    <glyph glyph-name="exclam" unicode="!" horiz-adv-x="192" 
d="M61 122h70v-122h-70v122zM61 680h70l-4 -466h-62z" />
    <glyph glyph-name="quotedbl" unicode="&#x22;" horiz-adv-x="392" 
d="M61 680h70l-7 -126h-55zM261 680h70l-7 -126h-55z" />
    <glyph glyph-name="numbersign" unicode="#" horiz-adv-x="607" 
d="M201 500h51l-13 -121h155l13 121h52l-14 -121h100l-4 -48h-100l-18 -162h100l-4 -48h-100l-13 -121h-52l13 121h-155l-13 -121h-51l13 121h-100l5 48h100l17 162h-100l5 48h100zM234 331l-17 -162h155l17 162h-155z" />
    <glyph glyph-name="dollar" unicode="$" 
d="M318 -100h-32v90q-124 3 -225 34l13 62q116 -30 226 -30q82 0 121.5 36.5t39.5 87.5q0 19 -7.5 36t-16.5 28t-28 22.5t-29.5 17t-35 13.5t-30.5 9.5l-29 7.5q-214 56 -214 201q0 86 58.5 129t156.5 46v90h32v-90q101 -4 207 -34l-17 -62q-119 30 -208 30
q-151 0 -151 -111q0 -26 14 -47.5t32.5 -35t48 -25.5t47 -17.5t43.5 -11.5q205 -46 205 -191q0 -90 -61 -140.5t-160 -53.5v-91z" />
    <glyph glyph-name="percent" unicode="%" horiz-adv-x="760" 
d="M589 680l-370 -680h-48l370 680h48zM181 412q-64 0 -98 36t-34 100t34 100t98 36t98.5 -36t34.5 -100t-34.5 -100t-98.5 -36zM181 450q87 0 87 98t-87 98t-87 -98t87 -98zM579 -4q-64 0 -98.5 36t-34.5 100t34.5 100t98.5 36t98 -36t34 -100t-34 -100t-98 -36zM579 34
q87 0 87 98t-87 98t-87 -98t87 -98z" />
    <glyph glyph-name="ampersand" unicode="&#x26;" horiz-adv-x="705" 
d="M494 540q0 -49 -36.5 -93t-130.5 -88l195 -193q59 73 75 184h67q-19 -138 -97 -231l87 -89l-47 -50l-89 93q-93 -83 -233 -83q-112 0 -169.5 49.5t-57.5 132.5q0 59 37.5 105.5t132.5 91.5q-1 1 -13.5 15l-15.5 17.5t-13.5 17t-14.5 20.5l-11.5 20t-10.5 23t-5.5 22.5
t-2.5 25.5q0 78 54.5 119t129.5 41q79 0 124 -39.5t45 -110.5zM295 51q108 0 180 68l-210 213q-64 -31 -98.5 -64.5t-34.5 -85.5q0 -22 7.5 -43t24 -42t50.5 -33.5t81 -12.5zM209 534q0 -36 19 -65.5t58 -70.5q141 65 141 144q0 24 -8 43t-19.5 29t-27 16.5t-27 8.5t-22.5 2
q-44 0 -71.5 -21t-35 -42.5t-7.5 -43.5z" />
    <glyph glyph-name="quotesingle" unicode="'" horiz-adv-x="192" 
d="M61 680h70l-7 -126h-55z" />
    <glyph glyph-name="parenleft" unicode="(" horiz-adv-x="330" 
d="M71 340q0 124 44.5 249t125.5 231h48q-148 -241 -148 -480q0 -233 148 -480h-48q-80 105 -125 231t-45 249z" />
    <glyph glyph-name="parenright" unicode=")" horiz-adv-x="330" 
d="M259 340q0 -123 -45 -249t-125 -231h-48q148 247 148 480q0 239 -148 480h48q81 -106 125.5 -231t44.5 -249z" />
    <glyph glyph-name="asterisk" unicode="*" horiz-adv-x="418" 
d="M193 550l-5 130h42l-4 -130l137 38l13 -42l-141 -22l92 -113l-34 -26l-85 123l-83 -123l-34 26l92 113l-141 22l13 42z" />
    <glyph glyph-name="plus" unicode="+" horiz-adv-x="500" 
d="M279 454v-160h160v-58h-160v-160h-58v160h-160v58h160v160h58z" />
    <glyph glyph-name="comma" unicode="," horiz-adv-x="192" 
d="M95 -130h-25l17 130h-26v122h70v-122z" />
    <glyph glyph-name="hyphen" unicode="-" horiz-adv-x="500" 
d="M61 294h378v-58h-378v58z" />
    <glyph glyph-name="period" unicode="." horiz-adv-x="192" 
d="M61 122h70v-122h-70v122z" />
    <glyph glyph-name="slash" unicode="/" horiz-adv-x="540" 
d="M486 680l-370 -680h-62l370 680h62z" />
    <glyph glyph-name="zero" unicode="0" horiz-adv-x="590" 
d="M295 631q-47 0 -80 -23t-49.5 -65t-23.5 -89.5t-7 -108.5q0 -296 160 -296t160 296q0 61 -7 108.5t-23.5 89.5t-49.5 65t-80 23zM295 -10q-68 0 -115 27.5t-72.5 79t-36 111.5t-10.5 137q0 76 10.5 134.5t36 108t72.5 76t115 26.5t115 -26.5t72.5 -76t36 -108
t10.5 -134.5q0 -77 -10.5 -137t-36 -111.5t-72.5 -79t-115 -27.5z" />
    <glyph glyph-name="one" unicode="1" horiz-adv-x="366" 
d="M227 599l-179 -98l-19 59q146 69 218 125h50v-685h-70v599z" />
    <glyph glyph-name="two" unicode="2" horiz-adv-x="550" 
d="M255 626q-81 0 -173 -42l-21 56q111 50 209 50q103 0 156 -57t53 -144q0 -104 -77.5 -207t-240.5 -218v-2h328v-62h-428v69q344 231 344 404q0 39 -11.5 68t-28 44.5t-38.5 25.5t-38.5 12.5t-33.5 2.5z" />
    <glyph glyph-name="three" unicode="3" horiz-adv-x="570" 
d="M354 348v-2q72 -13 113.5 -58t41.5 -111q0 -90 -59 -138.5t-173 -48.5q-130 0 -216 47l23 54q83 -42 189 -42q52 0 87 13.5t50.5 36.5t21 42t5.5 40q0 59 -44 94.5t-133 35.5h-83v58h80q79 0 120.5 40.5t41.5 96.5q0 20 -6 39.5t-20.5 40t-45.5 33t-74 12.5
q-86 0 -173 -42l-21 54q90 47 205 47q96 0 150.5 -47t54.5 -130q0 -61 -37.5 -104t-97.5 -61z" />
    <glyph glyph-name="four" unicode="4" horiz-adv-x="590" 
d="M124 242h246v346h-2q-79 -158 -244 -346zM352 680h88v-438h99v-58h-99v-184h-70v184h-319v58q205 224 301 438z" />
    <glyph glyph-name="five" unicode="5" horiz-adv-x="570" 
d="M270 -10q-104 0 -209 50l21 54q93 -45 184 -45q78 0 123.5 44t45.5 121q0 63 -35 109t-113 46q-85 0 -141 -75l-52 5l17 381h358v-63h-297l-16 -259l2 -1q59 73 153 73q92 0 145 -56t53 -157q0 -108 -64.5 -167.5t-174.5 -59.5z" />
    <glyph glyph-name="six" unicode="6" horiz-adv-x="570" 
d="M131 359l2 -1q69 97 169 97q97 0 152 -61.5t55 -173.5q0 -106 -61 -168t-155 -62q-53 0 -94 17.5t-66.5 46t-42 69.5t-23 84t-6.5 93q0 108 21.5 186t61 121t87.5 63t108 20q68 0 149 -24l-10 -55q-73 20 -133 20q-58 0 -101.5 -27.5t-66.5 -71.5t-34 -87t-12 -86z
M137 301q-10 -252 151 -252q62 0 104.5 45.5t42.5 125.5q0 32 -6.5 60t-22.5 55t-47 43t-75 16q-84 0 -147 -93z" />
    <glyph glyph-name="seven" unicode="7" horiz-adv-x="500" 
d="M372 615v2h-321v63h398v-51q-216 -353 -260 -629h-78q21 137 98 311t163 304z" />
    <glyph glyph-name="eight" unicode="8" horiz-adv-x="590" 
d="M359 359v-2q83 -34 126.5 -75.5t43.5 -107.5q0 -87 -63 -135.5t-173 -48.5q-108 0 -170 46.5t-62 131.5q0 119 169 180v2q-149 57 -149 170q0 79 60.5 124.5t155.5 45.5q92 0 152 -45t60 -122q0 -60 -37 -96t-113 -68zM133 174q0 -56 39.5 -93.5t124.5 -37.5
q84 0 122 35.5t38 90.5q0 32 -14 56.5t-44 43t-51.5 28.5t-62.5 25q-152 -53 -152 -148zM293 637q-53 0 -97.5 -27.5t-44.5 -88.5q0 -93 152 -136q64 22 100 53t36 79q0 63 -45 91.5t-101 28.5z" />
    <glyph glyph-name="nine" unicode="9" horiz-adv-x="570" 
d="M439 321l-2 1q-69 -97 -169 -97q-98 0 -152.5 61.5t-54.5 173.5q0 106 61 168t155 62q53 0 94 -17.5t66.5 -46t42 -69.5t23 -84t6.5 -93q0 -108 -21.5 -186t-61 -121.5t-87.5 -63t-108 -19.5q-68 0 -149 24l10 55q73 -20 133 -20q58 0 101.5 27.5t66.5 71.5t34 87t12 86z
M433 379q10 252 -151 252q-62 0 -104.5 -45.5t-42.5 -125.5q0 -32 6.5 -60t22 -55t47 -43t75.5 -16q84 0 147 93z" />
    <glyph glyph-name="colon" unicode=":" horiz-adv-x="192" 
d="M61 122h70v-122h-70v122zM61 460h70v-123h-70v123z" />
    <glyph glyph-name="semicolon" unicode=";" horiz-adv-x="192" 
d="M95 -130h-25l17 130h-26v122h70v-122zM61 460h70v-123h-70v123z" />
    <glyph glyph-name="less" unicode="&#x3c;" horiz-adv-x="380" 
d="M61 272l258 163v-64l-184 -121l184 -121v-64l-258 163v44z" />
    <glyph glyph-name="equal" unicode="=" horiz-adv-x="500" 
d="M61 394h378v-58h-378v58zM61 194h378v-58h-378v58z" />
    <glyph glyph-name="greater" unicode="&#x3e;" horiz-adv-x="380" 
d="M319 228l-258 -167v64l184 125l-184 125v64l258 -167v-44z" />
    <glyph glyph-name="question" unicode="?" horiz-adv-x="480" 
d="M239 690q55 0 94 -15.5t59 -41.5t28.5 -54t8.5 -60q0 -50 -20 -87.5t-48 -59t-56 -39.5t-48 -41t-20 -52v-30h-62v30q0 33 13.5 59.5t33.5 42.5l44 34t44 34.5t33.5 42.5t13.5 59q0 112 -135 112q-61 0 -150 -33l-21 61q95 38 188 38zM171 122h70v-122h-70v122z" />
    <glyph glyph-name="at" unicode="@" horiz-adv-x="830" 
d="M560 333v-224q55 0 95 21.5t60.5 56t29.5 68.5t9 69q0 128 -93 207t-227 79q-157 0 -257.5 -99t-100.5 -258q0 -145 92.5 -238.5t234.5 -93.5l-4 -41q-161 0 -265 106t-104 267q0 174 114.5 286.5t289.5 112.5q154 0 260 -91.5t106 -234.5q0 -112 -65 -186t-182 -74h-49
v39h-2q-50 -46 -125 -46q-58 0 -92.5 30t-34.5 81q0 119 164 119h90v41q0 44 -21 65.5t-72 21.5q-55 0 -127 -22l-11 39q81 27 151 27q68 0 102 -28.5t34 -99.5zM504 140v114h-88q-60 0 -84.5 -20t-24.5 -59q0 -34 23 -53t66 -19q64 0 108 37z" />
    <glyph glyph-name="A" unicode="A" horiz-adv-x="650" 
d="M527 0l-62 182h-282l-64 -182h-78l241 685h92l235 -685h-82zM327 593h-2l-126 -349h251z" />
    <glyph glyph-name="B" unicode="B" horiz-adv-x="610" 
d="M424 349v-2q65 -13 100 -57.5t35 -108.5q0 -85 -51 -133t-148 -48h-289v680h269q96 0 147.5 -46.5t51.5 -125.5q0 -60 -30 -101.5t-85 -57.5zM336 314h-191v-248h204q132 0 132 124q0 59 -37 91.5t-108 32.5zM461 497q0 55 -33.5 86t-95.5 31h-187v-234h187
q129 0 129 117z" />
    <glyph glyph-name="C" unicode="C" horiz-adv-x="620" 
d="M61 345q0 76 12.5 134.5t43 108t88 76t140.5 26.5q115 0 230 -34l-17 -62q-122 30 -207 30q-63 0 -106 -21.5t-65.5 -62.5t-31.5 -87.5t-9 -107.5q0 -65 9 -113.5t31.5 -90t65.5 -63.5t106 -22q85 0 207 30l17 -62q-115 -34 -230 -34q-67 0 -117.5 18.5t-81.5 50
t-50.5 78t-27 96.5t-7.5 112z" />
    <glyph glyph-name="D" unicode="D" horiz-adv-x="650" 
d="M308 0h-237v680h237q281 0 281 -335q0 -345 -281 -345zM145 66h163q59 0 100.5 22t63 62t30.5 87t9 108q0 48 -5.5 86t-19 73t-36 58.5t-58.5 37.5t-84 14h-163v-548z" />
    <glyph glyph-name="E" unicode="E" horiz-adv-x="560" 
d="M494 680v-66h-349v-228h304v-66h-304v-254h354v-66h-428v680h423z" />
    <glyph glyph-name="F" unicode="F" horiz-adv-x="535" 
d="M484 680v-66h-339v-248h294v-66h-294v-300h-74v680h413z" />
    <glyph glyph-name="G" unicode="G" horiz-adv-x="640" 
d="M345 -10q-67 0 -117.5 18.5t-81.5 50t-50.5 78t-27 96.5t-7.5 112q0 76 12.5 134.5t43 108t88 76t140.5 26.5q108 0 224 -34l-17 -62q-122 30 -201 30q-63 0 -106 -21.5t-65.5 -62.5t-31.5 -87.5t-9 -107.5q0 -65 9 -113.5t31.5 -90t65.5 -63.5t106 -22q77 0 144 41v179
h-143v66h217v-295q-40 -19 -65 -28.5t-69 -19t-90 -9.5z" />
    <glyph glyph-name="H" unicode="H" horiz-adv-x="640" 
d="M145 0h-74v680h74v-294h350v294h74v-680h-74v320h-350v-320z" />
    <glyph glyph-name="I" unicode="I" horiz-adv-x="216" 
d="M145 0h-74v680h74v-680z" />
    <glyph glyph-name="J" unicode="J" horiz-adv-x="326" 
d="M255 680v-515q0 -95 -37.5 -135t-112.5 -40q-41 0 -86 7l7 62q40 -5 60 -5q51 0 73 27.5t22 87.5v511h74z" />
    <glyph glyph-name="K" unicode="K" horiz-adv-x="623" 
d="M145 680v-374l339 374h88l-248 -280l255 -400h-93l-216 341l-125 -136v-205h-74v680h74z" />
    <glyph glyph-name="L" unicode="L" horiz-adv-x="540" 
d="M71 680h74v-614h344v-66h-418v680z" />
    <glyph glyph-name="M" unicode="M" horiz-adv-x="800" 
d="M167 680l234 -558h2l229 558h97v-680h-74v541h-2l-227 -541h-55l-226 541h-2v-541h-72v680h96z" />
    <glyph glyph-name="N" unicode="N" horiz-adv-x="650" 
d="M143 0h-72v680h74l360 -543h2v543h72v-680h-74l-360 536h-2v-536z" />
    <glyph glyph-name="O" unicode="O" horiz-adv-x="690" 
d="M345 627q-64 0 -106.5 -22t-63.5 -64t-28.5 -87.5t-7.5 -108.5q0 -50 4.5 -89t17.5 -78.5t35 -66t60 -43t89 -16.5t89 16.5t60 43t35 66t17.5 78.5t4.5 89q0 63 -7.5 108.5t-28.5 87.5t-63.5 64t-106.5 22zM345 -10q-83 0 -140.5 27.5t-88 79t-43 111t-12.5 137.5
q0 76 12.5 134.5t43 108t88 76t140.5 26.5t140.5 -26.5t88 -76t43 -108t12.5 -134.5q0 -78 -12.5 -137.5t-43 -111t-88 -79t-140.5 -27.5z" />
    <glyph glyph-name="P" unicode="P" 
d="M346 285h-201v-285h-74v680h275q96 0 149.5 -55t53.5 -143q0 -91 -53 -144t-150 -53zM145 614v-263h194q64 0 99 33t35 98q0 61 -36 96.5t-98 35.5h-194z" />
    <glyph glyph-name="Q" unicode="Q" horiz-adv-x="690" 
d="M61 345q0 76 12.5 134.5t43 108t88 76t140.5 26.5t140.5 -26.5t88 -76t43 -108t12.5 -134.5q0 -320 -236 -331q22 -38 119 -47q45 -3 103 2v-67q-58 -6 -106 -2q-133 12 -182 90q-77 3 -130.5 31.5t-82.5 79.5t-41 110t-12 134zM345 627q-64 0 -106.5 -22t-63.5 -64
t-28.5 -87.5t-7.5 -108.5q0 -50 4.5 -89t17.5 -78.5t35 -66t60 -43t89 -16.5t89 16.5t60 43t35 66t17.5 78.5t4.5 89q0 63 -7.5 108.5t-28.5 87.5t-63.5 64t-106.5 22z" />
    <glyph glyph-name="R" unicode="R" horiz-adv-x="615" 
d="M571 0h-87l-171 276h-168v-276h-74v680h275q95 0 149 -56.5t54 -145.5q0 -75 -42 -127.5t-117 -63.5zM145 614v-272h187q64 0 102.5 35.5t38.5 100.5q0 62 -36 99t-98 37h-194z" />
    <glyph glyph-name="S" unicode="S" 
d="M300 -10q-124 0 -239 34l13 62q122 -30 226 -30q80 0 120.5 36.5t40.5 86.5q0 77 -107 115q-18 6 -69 20q-93 23 -153.5 72.5t-60.5 128.5q0 90 63 132.5t166 42.5q110 0 225 -34l-17 -62q-122 30 -208 30q-80 0 -115.5 -31t-35.5 -80q0 -31 17.5 -55.5t49.5 -40.5
t57.5 -24.5t60.5 -16.5q205 -46 205 -191q0 -94 -66 -144.5t-173 -50.5z" />
    <glyph glyph-name="T" unicode="T" horiz-adv-x="560" 
d="M509 614h-192v-614h-74v614h-192v66h458v-66z" />
    <glyph glyph-name="U" unicode="U" horiz-adv-x="640" 
d="M323 52q45 0 78 13t51 31t28 45.5t12.5 49.5t2.5 49v440h74v-440q0 -129 -62.5 -189.5t-186.5 -60.5t-186.5 60.5t-62.5 189.5v440h74v-440q0 -36 5 -62.5t21 -58.5t54.5 -49.5t97.5 -17.5z" />
    <glyph glyph-name="V" unicode="V" horiz-adv-x="650" 
d="M330 87h1l200 593h78l-235 -685h-92l-241 685h82z" />
    <glyph glyph-name="W" unicode="W" horiz-adv-x="940" 
d="M471 562h-2l-149 -567h-96l-183 685h82l152 -588h1l152 588h88l153 -588h1l151 588h78l-183 -685h-96z" />
    <glyph glyph-name="X" unicode="X" horiz-adv-x="650" 
d="M517 0l-197 295h-2l-191 -295h-83l230 357l-209 323h87l171 -261h2l169 261h87l-209 -323l234 -357h-89z" />
    <glyph glyph-name="Y" unicode="Y" horiz-adv-x="620" 
d="M311 317h2l185 363h81l-232 -440v-240h-74v240l-232 440h85z" />
    <glyph glyph-name="Z" unicode="Z" horiz-adv-x="560" 
d="M148 68v-2h367v-66h-470v55l360 557v2h-340v66h440v-55z" />
    <glyph glyph-name="bracketleft" unicode="[" horiz-adv-x="300" 
d="M135 -96h124v-44h-198v960h198v-44h-124v-872z" />
    <glyph glyph-name="backslash" unicode="\" horiz-adv-x="540" 
d="M424 0l-370 680h62l370 -680h-62z" />
    <glyph glyph-name="bracketright" unicode="]" horiz-adv-x="300" 
d="M41 -96h124v872h-124v44h198v-960h-198v44z" />
    <glyph glyph-name="asciicircum" unicode="^" horiz-adv-x="380" 
d="M189 660l-88 -150h-40l105 190h48l105 -190h-40z" />
    <glyph glyph-name="underscore" unicode="_" horiz-adv-x="500" 
d="M61 -60h378v-44h-378v44z" />
    <glyph glyph-name="grave" unicode="`" horiz-adv-x="246" 
d="M136 560l-81 140h74l62 -140h-55z" />
    <glyph glyph-name="a" unicode="a" horiz-adv-x="505" 
d="M250 451q-70 0 -160 -18l-11 57q102 20 186 20q92 0 135.5 -36t43.5 -128v-346h-70v50h-2q-73 -60 -163 -60q-75 0 -119 39t-44 105q0 151 210 151h118v57q0 57 -29 83t-95 26zM374 93v148h-114q-78 0 -111 -26t-33 -75q0 -43 31.5 -69t87.5 -26q79 0 139 48z" />
    <glyph glyph-name="b" unicode="b" horiz-adv-x="530" 
d="M131 700v-250h2q65 60 159 60q187 0 187 -260q0 -119 -45.5 -189.5t-144.5 -70.5q-94 0 -160 58h-2l-12 -50h-54v702h70zM405 250q0 201 -139 201q-77 0 -135 -48v-306q58 -48 135 -48q139 0 139 201z" />
    <glyph glyph-name="c" unicode="c" horiz-adv-x="480" 
d="M51 250q0 260 239 260q79 0 167 -22l-13 -57q-78 20 -154 20q-85 0 -125 -54.5t-40 -146.5t40 -146.5t125 -54.5q76 0 154 20l13 -57q-88 -22 -167 -22q-239 0 -239 260z" />
    <glyph glyph-name="d" unicode="d" horiz-adv-x="530" 
d="M399 0v50h-2q-65 -60 -160 -60q-186 0 -186 260q0 119 45.5 189.5t144.5 70.5q93 0 156 -58h2v248h70v-700h-70zM125 250q0 -201 139 -201q77 0 135 48v306q-58 48 -135 48q-139 0 -139 -201z" />
    <glyph glyph-name="e" unicode="e" horiz-adv-x="530" 
d="M478 241h-351q3 -192 179 -192q90 0 156 20l9 -57q-78 -22 -175 -22q-245 0 -245 260t239 260q108 0 154 -56.5t43 -146.5q-1 -28 -9 -66zM286 455q-146 0 -159 -168h283q6 29 5 55q-2 51 -33.5 82t-95.5 31z" />
    <glyph glyph-name="f" unicode="f" horiz-adv-x="345" 
d="M171 561v-61h128v-51h-128v-449h-70v449h-79v46l79 5v68q0 71 31.5 101.5t107.5 30.5q32 0 76 -7l-7 -55q-29 5 -54 5q-48 0 -66 -18t-18 -64z" />
    <glyph glyph-name="g" unicode="g" horiz-adv-x="555" 
d="M94 -69q0 -44 38.5 -69t118.5 -25q85 0 140 29t55 83q0 60 -93 65l-190 10q-35 -24 -52 -43.5t-17 -49.5zM265 224q59 0 94 31.5t35 84.5q0 55 -35.5 88.5t-93.5 33.5q-64 0 -98 -33t-34 -89q0 -55 35 -85.5t97 -30.5zM126 35v2q-42 22 -37 68q3 55 62 93v2
q-84 41 -84 140q0 80 52.5 125t145.5 45q31 0 67 -10h172v-44h-106q60 -38 60 -116q0 -79 -53.5 -121.5t-139.5 -42.5q-45 0 -77 13q-15 -15 -24 -33q-9 -17 -9.5 -33.5t9 -28t29.5 -12.5l184 -11q76 -5 109.5 -33t33.5 -77q0 -171 -285 -171q-200 0 -200 130q0 67 91 115z
" />
    <glyph glyph-name="h" unicode="h" horiz-adv-x="530" 
d="M131 384v-384h-70v700h70v-273h2q86 83 186 83q150 0 150 -164v-346h-70v331q0 120 -110 120q-73 0 -158 -67z" />
    <glyph glyph-name="i" unicode="i" horiz-adv-x="192" 
d="M61 500h70v-500h-70v500zM61 680h70v-119h-70v119z" />
    <glyph glyph-name="j" unicode="j" horiz-adv-x="232" 
d="M171 500v-578q0 -71 -31.5 -101.5t-107.5 -30.5q-31 0 -76 7l7 55q29 -5 54 -5q48 0 66 17.5t18 64.5v571h70zM101 680h70v-119h-70v119z" />
    <glyph glyph-name="k" unicode="k" horiz-adv-x="535" 
d="M131 700v-419l266 219h87l-194 -169l204 -331h-83l-170 292l-110 -89v-203h-70v700h70z" />
    <glyph glyph-name="l" unicode="l" horiz-adv-x="192" 
d="M61 0v700h70v-700h-70z" />
    <glyph glyph-name="m" unicode="m" horiz-adv-x="830" 
d="M131 384v-384h-70v500h70v-73h2q81 83 167 83q111 0 138 -90q84 90 181 90q150 0 150 -164v-346h-70v331q0 120 -110 120q-61 0 -142 -69q3 -22 3 -54v-328h-70v334q-2 117 -110 117q-27 0 -56.5 -13t-43.5 -23t-39 -31z" />
    <glyph glyph-name="n" unicode="n" horiz-adv-x="530" 
d="M131 384v-384h-70v500h70v-73h2q86 83 186 83q150 0 150 -164v-346h-70v331q0 120 -110 120q-73 0 -158 -67z" />
    <glyph glyph-name="o" unicode="o" horiz-adv-x="550" 
d="M275 451q-150 0 -150 -201t150 -201t150 201t-150 201zM275 -10q-224 0 -224 260t224 260t224 -260t-224 -260z" />
    <glyph glyph-name="p" unicode="p" horiz-adv-x="530" 
d="M131 500v-50h2q65 60 159 60q187 0 187 -260q0 -119 -45.5 -189.5t-144.5 -70.5q-93 0 -156 58h-2v-248h-70v700h70zM405 250q0 201 -139 201q-77 0 -135 -48v-306q58 -48 135 -48q139 0 139 201z" />
    <glyph glyph-name="q" unicode="q" horiz-adv-x="530" 
d="M399 -200v250h-2q-65 -60 -160 -60q-186 0 -186 260q0 119 45.5 189.5t144.5 70.5q94 0 159 -58h2l13 50h54v-702h-70zM125 250q0 -201 139 -201q77 0 135 48v306q-58 48 -135 48q-139 0 -139 -201z" />
    <glyph glyph-name="r" unicode="r" horiz-adv-x="370" 
d="M131 377v-377h-70v500h70v-80h2q90 90 196 90v-66q-54 0 -107.5 -20.5t-90.5 -46.5z" />
    <glyph glyph-name="s" unicode="s" horiz-adv-x="480" 
d="M434 138q0 -71 -46 -109.5t-133 -38.5q-121 0 -209 22l13 57q87 -22 188 -22q30 0 53 7.5t34.5 17.5t19 23t9 22t1.5 17q0 31 -26.5 52t-99.5 36q-88 16 -135 49.5t-47 103.5q0 66 46 100.5t133 34.5q107 0 195 -22l-13 -57q-87 22 -178 22q-37 0 -61.5 -9t-34.5 -23
t-13.5 -24.5t-3.5 -19.5q0 -32 24.5 -54t95.5 -36q95 -20 141.5 -51.5t46.5 -97.5z" />
    <glyph glyph-name="t" unicode="t" horiz-adv-x="375" 
d="M101 147v302h-79v46l79 5l9 140h61v-140h148v-51h-148v-291q0 -58 20 -84.5t71 -26.5q26 0 55 5l7 -55q-46 -7 -84 -7q-74 0 -106.5 35.5t-32.5 121.5z" />
    <glyph glyph-name="u" unicode="u" horiz-adv-x="530" 
d="M399 116v384h70v-500h-70v72h-2q-87 -82 -186 -82q-150 0 -150 164v346h70v-331q0 -120 110 -120q73 0 158 67z" />
    <glyph glyph-name="v" unicode="v" horiz-adv-x="560" 
d="M322 -5h-85l-190 505h79l154 -425h2l155 425h75z" />
    <glyph glyph-name="w" unicode="w" horiz-adv-x="790" 
d="M396 392h-2l-113 -397h-78l-156 505h78l123 -425h2l113 425h68l118 -425h2l118 425h73l-152 -505h-78z" />
    <glyph glyph-name="x" unicode="x" horiz-adv-x="545" 
d="M420 0l-152 208h-2l-149 -208h-76l189 261l-174 239h81l138 -188h2l134 188h75l-174 -238l192 -262h-84z" />
    <glyph glyph-name="y" unicode="y" horiz-adv-x="560" 
d="M247 -11l-200 511h79l161 -431h2l148 431h75l-193 -536q-33 -93 -78 -133.5t-114 -40.5q-34 0 -67 7l7 59q21 -5 45 -5q27 0 49.5 12.5t38.5 35t26 42.5t21 48z" />
    <glyph glyph-name="z" unicode="z" horiz-adv-x="470" 
d="M429 500v-51l-305 -392v-2h314v-55h-406v51l307 392v2h-292v55h382z" />
    <glyph glyph-name="braceleft" unicode="{" horiz-adv-x="340" 
d="M195 7q0 -33 6.5 -55.5t15 -34t25 -17.5t27 -7t30.5 -1v-32q-90 0 -134 29t-44 117q0 31 5 95.5t5 93.5q0 31 -1.5 46t-7.5 35t-21 29.5t-40 13.5v42q25 4 40 13.5t21 29.5t7.5 35t1.5 46q0 29 -5 93.5t-5 95.5q0 88 44 117t134 29v-33q-25 0 -38.5 -2t-31.5 -12t-26 -35
t-8 -66q0 -30 5.5 -106t5.5 -107q0 -56 -21.5 -82t-63.5 -36v-2q42 -10 63.5 -36t21.5 -82q0 -31 -5.5 -107.5t-5.5 -106.5z" />
    <glyph glyph-name="bar" unicode="|" horiz-adv-x="190" 
d="M119 -100h-48v880h48v-880z" />
    <glyph glyph-name="braceright" unicode="}" horiz-adv-x="340" 
d="M145 672q0 41 -8 66t-26 35t-31.5 12t-38.5 2v33q89 0 133.5 -29.5t44.5 -116.5q0 -31 -5 -95.5t-5 -93.5q0 -31 1.5 -46t7.5 -35t21 -29.5t40 -13.5v-42q-25 -4 -40 -13.5t-21 -29.5t-7.5 -35t-1.5 -46q0 -29 5 -93.5t5 -95.5q0 -88 -44 -117t-134 -29v32q20 0 30.5 1
t27 7t25 17.5t15 34t6.5 55.5q0 30 -6 106.5t-6 107.5q0 56 22 82t64 36v2q-42 10 -64 36t-22 82q0 31 6 107t6 106z" />
    <glyph glyph-name="asciitilde" unicode="~" horiz-adv-x="457" 
d="M150 329q-17 0 -34.5 -9.5t-49.5 -42.5l-24 19q31 45 55.5 63.5t50.5 18.5t96 -28.5t85 -28.5q37 0 65 45l20 -22q-35 -71 -85 -71q-19 0 -89.5 28t-89.5 28z" />
    <glyph glyph-name="exclamdown" unicode="&#xa1;" horiz-adv-x="192" 
d="M131 377h-70v123h70v-123zM131 -180h-70l4 466h62z" />
    <glyph glyph-name="cent" unicode="&#xa2;" horiz-adv-x="516" 
d="M316 -100h-33v90q-106 4 -167 75t-61 185t61 185t167 75v90h33v-91q68 -2 145 -36l-9 -55q-83 31 -136 32v-401q55 1 136 33l9 -55q-73 -33 -145 -36v-91zM129 250q0 -83 40.5 -139t113.5 -61v399q-73 -4 -113.5 -60t-40.5 -139z" />
    <glyph glyph-name="sterling" unicode="&#xa3;" horiz-adv-x="614" 
d="M412 317h-237v-255h357v-62h-477v62h50v255h-50v55h50v143q0 90 61 132.5t164 42.5q137 0 229 -58l-30 -58q-92 50 -195 50q-84 0 -121.5 -32.5t-37.5 -85.5v-134h237v-55z" />
    <glyph glyph-name="currency" unicode="&#xa4;" horiz-adv-x="513" 
d="M100 249q0 68 48 114l-78 90l8 8l79 -90q44 36 100 36q55 0 99 -36l78 90l9 -8l-78 -89q50 -47 50 -115t-49 -114l76 -86l-9 -9l-77 87q-43 -35 -99 -35q-57 0 -100 35l-76 -87l-9 9l76 86q-48 46 -48 114zM112 249q0 -59 43 -102t102 -43t102.5 43t43.5 102t-43.5 102.5
t-102.5 43.5t-102 -43.5t-43 -102.5z" />
    <glyph glyph-name="yen" unicode="&#xa5;" horiz-adv-x="647" 
d="M372 264h160v-44h-171v-220h-74v220h-172v44h160l-220 416h84l186 -363h2l185 363h80z" />
    <glyph glyph-name="brokenbar" unicode="&#xa6;" horiz-adv-x="170" 
d="M109 -100h-48v400h48v-400zM109 380h-48v400h48v-400z" />
    <glyph glyph-name="section" unicode="&#xa7;" horiz-adv-x="588" 
d="M532 329h-77q0 77 -107 115q-18 6 -69 20q-93 23 -153.5 72.5t-60.5 128.5q0 90 63 132.5t166 42.5q109 0 225 -34l-17 -62q-122 30 -208 30q-80 0 -116 -31t-36 -80q0 -31 17.5 -55.5t49.5 -40.5t57.5 -24.5t60.5 -16.5q93 -21 150 -67t55 -130zM65 365h77
q0 -95 185 -139q205 -46 205 -191q0 -94 -65.5 -144.5t-172.5 -50.5q-124 0 -239 34l13 62q122 -30 226 -30q80 0 120.5 36.5t40.5 86.5q0 77 -107 115q-18 6 -69 20q-93 23 -153.5 72.5t-60.5 128.5z" />
    <glyph glyph-name="dieresis" unicode="&#xa8;" horiz-adv-x="439" 
d="M89 687h58v-115h-58v115zM291 687h59v-115h-59v115z" />
    <glyph glyph-name="copyright" unicode="&#xa9;" horiz-adv-x="765" 
d="M30 340q0 146 103 248t249 102q147 0 250 -102t103 -248t-103 -248t-250 -102q-146 0 -249 102t-103 248zM64 340q0 -132 93 -225t225 -93t225.5 93t93.5 225q0 131 -93.5 223.5t-225.5 92.5t-225 -92.5t-93 -223.5zM387 477q-119 0 -119 -133q0 -143 119 -143
q60 0 104 30l17 -33q-54 -36 -123 -36q-80 0 -122 47t-42 135q0 83 42 127.5t122 44.5q69 0 123 -36l-16 -35q-49 32 -105 32z" />
    <glyph glyph-name="ordfeminine" unicode="&#xaa;" horiz-adv-x="296" 
d="M212 477v74h-56q-72 0 -72 -51q0 -22 15.5 -35t43.5 -13q39 0 69 25zM151 656q-31 0 -80 -9l-3 14.5t-2 13.5q47 10 92 10q46 0 67.5 -18t21.5 -64v-173h-35v25q-37 -30 -82 -30q-37 0 -59 19.5t-22 52.5q0 75 105 75h58v29q0 28 -14 41.5t-47 13.5z" />
    <glyph glyph-name="guillemotleft" unicode="&#xab;" horiz-adv-x="649" 
d="M61 272l258 167v-64l-184 -125l184 -125v-64l-258 167v44zM330 272l257 167v-64l-183 -125l183 -125v-64l-257 167v44z" />
    <glyph glyph-name="logicalnot" unicode="&#xac;" horiz-adv-x="590" 
d="M81 294h428v-168h-59v110h-369v58z" />
    <glyph glyph-name="uni00AD" unicode="&#xad;" horiz-adv-x="500" 
d="M61 294h378v-58h-378v58z" />
    <glyph glyph-name="registered" unicode="&#xae;" horiz-adv-x="765" 
d="M531 168h-54l-96 118h-77v-118h-44v344h136q59 0 91.5 -29.5t32.5 -81.5q0 -46 -24 -74.5t-67 -33.5zM304 472v-146h89q82 0 82 75q0 34 -21 52.5t-58 18.5h-92zM30 340q0 146 103 248t249 102q147 0 250 -102t103 -248t-103 -248t-250 -102q-146 0 -249 102t-103 248z
M64 340q0 -132 93 -225t225 -93t225.5 93t93.5 225q0 131 -93.5 223.5t-225.5 92.5t-225 -92.5t-93 -223.5z" />
    <glyph glyph-name="macron" unicode="&#xaf;" horiz-adv-x="427" 
d="M62 649h303v-48h-303v48z" />
    <glyph glyph-name="degree" unicode="&#xb0;" horiz-adv-x="261" 
d="M42 592q0 37 26 62.5t63 25.5q36 0 62 -25.5t26 -62.5t-26 -62.5t-62 -25.5q-37 0 -63 25.5t-26 62.5zM71 592q0 -26 17.5 -43t42.5 -17t42 17.5t17 42.5t-17 42t-42 17q-26 0 -43 -17t-17 -42z" />
    <glyph glyph-name="plusminus" unicode="&#xb1;" horiz-adv-x="500" 
d="M61 109h160v132h-160v59h160v156h58v-156h160v-59h-160v-132h160v-59h-378v59z" />
    <glyph glyph-name="twosuperior" unicode="&#xb2;" horiz-adv-x="313" 
d="M146 840q-39 0 -86 -23l-11 29q53 29 107 29q51 0 77 -28.5t26 -72.5q0 -98 -157 -209v-1h162v-34h-215v37q171 114 171 199q0 24 -8 40t-21 22.5t-23.5 9t-21.5 2.5z" />
    <glyph glyph-name="threesuperior" unicode="&#xb3;" horiz-adv-x="323" 
d="M198 699q36 -7 56 -30t20 -55q0 -45 -30 -69.5t-87 -24.5q-65 0 -108 27l12 30q49 -26 96 -26q43 0 60.5 18.5t17.5 41.5q0 68 -86 68h-41v32h39q39 0 59.5 19.5t20.5 46.5q0 24 -15.5 43t-53.5 19q-35 0 -89 -26l-11 29q47 28 104 28q47 0 74.5 -23.5t27.5 -65.5
q0 -30 -18.5 -51t-47.5 -31z" />
    <glyph glyph-name="acute" unicode="&#xb4;" horiz-adv-x="246" 
d="M191 700l-81 -140h-55l62 140h74z" />
    <glyph glyph-name="mu" unicode="&#xb5;" horiz-adv-x="530" 
d="M131 500v-339q3 -112 110 -112q73 0 158 67v384h70v-500h-70v72h-2q-85 -77 -159 -77q-83 0 -107 50v-88q0 -91 -34.5 -129t-107.5 -38q-28 0 -73 7l7 55q29 -5 54 -5q50 0 67 27t17 84v542h70z" />
    <glyph glyph-name="paragraph" unicode="&#xb6;" horiz-adv-x="559" 
d="M516 651h-82v-651h-32v651h-67v-356h-92q-90 0 -145.5 53.5t-55.5 139.5q0 89 55 140.5t146 51.5h273v-29z" />
    <glyph glyph-name="periodcentered" unicode="&#xb7;" horiz-adv-x="232" 
d="M81 311h70v-122h-70v122z" />
    <glyph glyph-name="cedilla" unicode="&#xb8;" horiz-adv-x="291" 
d="M117 -74v74h28v-56q35 -3 59.5 -20t24.5 -52t-25.5 -56t-69.5 -21q-33 0 -72 12l6 25q32 -8 53 -8q34 0 48.5 16.5t14.5 35.5t-15.5 34t-51.5 16z" />
    <glyph glyph-name="onesuperior" unicode="&#xb9;" horiz-adv-x="303" 
d="M44 561h103v268l-88 -47l-10 29q72 33 109 62h26v-312h103v-31h-243v31z" />
    <glyph glyph-name="ordmasculine" unicode="&#xba;" horiz-adv-x="321" 
d="M161 656q-75 0 -75 -101t75 -101t75 101t-75 101zM161 425q-112 0 -112 130t112 130q111 0 111 -130t-111 -130z" />
    <glyph glyph-name="guillemotright" unicode="&#xbb;" horiz-adv-x="649" 
d="M330 439l257 -167v-44l-257 -167v64l184 125l-184 125v64zM61 439l258 -167v-44l-258 -167v64l184 125l-184 125v64z" />
    <glyph glyph-name="onequarter" unicode="&#xbc;" horiz-adv-x="800" 
d="M643 680l-370 -680h-25l370 680h25zM45 361h102v268l-87 -47l-11 29q72 32 110 62h26v-312h102v-31h-242v31zM549 122h120v169q-40 -77 -120 -169zM659 340h47v-218h49v-31h-49v-91h-37v91h-160v31q102 111 150 218z" />
    <glyph glyph-name="onehalf" unicode="&#xbd;" horiz-adv-x="800" 
d="M623 680l-370 -680h-25l370 680h25zM45 361h102v268l-87 -47l-11 29q72 32 110 62h26v-312h102v-31h-242v31zM637 310q-39 0 -86 -23l-12 29q53 29 108 29q50 0 76.5 -28.5t26.5 -72.5q0 -99 -158 -209v-1h163v-34h-216v37q172 115 172 199q0 31 -15 48.5t-29 21.5t-30 4
z" />
    <glyph glyph-name="threequarters" unicode="&#xbe;" horiz-adv-x="800" 
d="M643 680l-370 -680h-25l370 680h25zM549 122h120v169q-40 -77 -120 -169zM659 340h47v-218h49v-31h-49v-91h-37v91h-160v31q102 111 150 218zM194 499q36 -8 56.5 -30.5t20.5 -54.5q0 -45 -30 -69.5t-87 -24.5q-66 0 -109 27l12 30q49 -26 96 -26q44 0 61.5 18.5
t17.5 41.5q0 68 -86 68h-42v32h39q39 0 59.5 19.5t20.5 46.5q0 24 -15.5 43t-53.5 19q-36 0 -88 -26l-12 29q47 28 104 28q48 0 75.5 -23.5t27.5 -65.5q0 -60 -67 -82z" />
    <glyph glyph-name="questiondown" unicode="&#xbf;" horiz-adv-x="480" 
d="M241 -190q-55 0 -94 15.5t-59 41.5t-28.5 54t-8.5 60q0 42 14 75.5t35.5 53t46 38.5t46 32.5t35.5 34t14 45.5v30h63v-30q0 -33 -13.5 -59.5t-33.5 -43t-44 -34.5l-44 -34t-33.5 -42.5t-13.5 -58.5q0 -112 134 -112q62 0 151 33l21 -61q-95 -38 -188 -38zM309 377h-70
v123h70v-123z" />
    <glyph glyph-name="Agrave" unicode="&#xc0;" horiz-adv-x="650" 
d="M527 0l-62 182h-282l-64 -182h-78l241 685h92l235 -685h-82zM327 593h-2l-126 -349h251zM293 710l-81 140h74l62 -140h-55z" />
    <glyph glyph-name="Aacute" unicode="&#xc1;" horiz-adv-x="650" 
d="M527 0l-62 182h-282l-64 -182h-78l241 685h92l235 -685h-82zM327 593h-2l-126 -349h251zM440 850l-81 -140h-55l62 140h74z" />
    <glyph glyph-name="Acircumflex" unicode="&#xc2;" horiz-adv-x="650" 
d="M527 0l-62 182h-282l-64 -182h-78l241 685h92l235 -685h-82zM327 593h-2l-126 -349h251zM325 810l-74 -100h-55l104 140h51l103 -140h-55z" />
    <glyph glyph-name="Atilde" unicode="&#xc3;" horiz-adv-x="650" 
d="M527 0l-62 182h-282l-64 -182h-78l241 685h92l235 -685h-82zM327 593h-2l-126 -349h251zM272 785q-20 0 -35.5 -8.5t-48.5 -42.5l-24 26q31 44 55 61t51 17q26 0 71 -28.5t60 -28.5q35 0 65 49l20 -29q-34 -71 -85 -71q-19 0 -64.5 27.5t-64.5 27.5z" />
    <glyph glyph-name="Adieresis" unicode="&#xc4;" horiz-adv-x="650" 
d="M527 0l-62 182h-282l-64 -182h-78l241 685h92l235 -685h-82zM327 593h-2l-126 -349h251zM195 847h58v-115h-58v115zM397 847h59v-115h-59v115z" />
    <glyph glyph-name="Aring" unicode="&#xc5;" horiz-adv-x="650" 
d="M527 0l-62 182h-282l-64 -182h-78l241 685h92l235 -685h-82zM327 593h-2l-126 -349h251zM250 790q0 32 22 53t54 21t53.5 -21t21.5 -53t-21.5 -53t-53.5 -21t-54 21t-22 53zM276 790q0 -22 14 -36.5t36 -14.5q21 0 35 14.5t14 36.5t-14 36.5t-35 14.5q-22 0 -36 -14.5
t-14 -36.5z" />
    <glyph glyph-name="AE" unicode="&#xc6;" horiz-adv-x="926" 
d="M437 269h-177l-144 -269h-75l358 680h461v-66h-349v-228h304v-66h-304v-254h354v-66h-428v269zM435 613l-149 -285h151v285h-2z" />
    <glyph glyph-name="Ccedilla" unicode="&#xc7;" horiz-adv-x="620" 
d="M61 345q0 76 12.5 134.5t43 108t88 76t140.5 26.5q115 0 230 -34l-17 -62q-122 30 -207 30q-63 0 -106 -21.5t-65.5 -62.5t-31.5 -87.5t-9 -107.5q0 -65 9 -113.5t31.5 -90t65.5 -63.5t106 -22q85 0 207 30l17 -62q-110 -32 -222 -34v-46q35 -3 59.5 -20t24.5 -52
t-25.5 -56t-69.5 -21q-33 0 -72 12l5 25q32 -8 55 -8q33 0 47.5 16t14.5 36q0 19 -15.5 34t-52.5 16v65q-77 3 -130 31t-81.5 78.5t-40 109t-11.5 135.5z" />
    <glyph glyph-name="Egrave" unicode="&#xc8;" horiz-adv-x="560" 
d="M494 680v-66h-349v-228h304v-66h-304v-254h354v-66h-428v680h423zM272 710l-81 140h74l62 -140h-55z" />
    <glyph glyph-name="Eacute" unicode="&#xc9;" horiz-adv-x="560" 
d="M494 680v-66h-349v-228h304v-66h-304v-254h354v-66h-428v680h423zM379 850l-81 -140h-55l62 140h74z" />
    <glyph glyph-name="Ecircumflex" unicode="&#xca;" horiz-adv-x="560" 
d="M494 680v-66h-349v-228h304v-66h-304v-254h354v-66h-428v680h423zM290 810l-74 -100h-55l104 140h51l103 -140h-55z" />
    <glyph glyph-name="Edieresis" unicode="&#xcb;" horiz-adv-x="560" 
d="M494 680v-66h-349v-228h304v-66h-304v-254h354v-66h-428v680h423zM154 847h58v-115h-58v115zM356 847h59v-115h-59v115z" />
    <glyph glyph-name="Igrave" unicode="&#xcc;" horiz-adv-x="216" 
d="M145 0h-74v680h74v-680zM82 710l-81 140h74l62 -140h-55z" />
    <glyph glyph-name="Iacute" unicode="&#xcd;" horiz-adv-x="216" 
d="M145 0h-74v680h74v-680zM217 850l-81 -140h-55l62 140h74z" />
    <glyph glyph-name="Icircumflex" unicode="&#xce;" horiz-adv-x="216" 
d="M144 0h-74v680h74v-680zM108 810l-74 -100h-55l104 140h51l103 -140h-55z" />
    <glyph glyph-name="Idieresis" unicode="&#xcf;" horiz-adv-x="216" 
d="M146 0h-74v680h74v-680zM-22 847h58v-115h-58v115zM180 847h59v-115h-59v115z" />
    <glyph glyph-name="Eth" unicode="&#xd0;" horiz-adv-x="657" 
d="M316 0h-237v323h-58v44h58v313h237q280 0 280 -335q0 -345 -280 -345zM152 66h164q59 0 100.5 22t63 62t30.5 87t9 108q0 48 -5.5 86t-19 73t-36 58.5t-58.5 37.5t-84 14h-164v-247h125v-44h-125v-257z" />
    <glyph glyph-name="Ntilde" unicode="&#xd1;" horiz-adv-x="650" 
d="M143 0h-72v680h74l360 -543h2v543h72v-680h-74l-360 536h-2v-536zM272 785q-20 0 -35.5 -8.5t-48.5 -42.5l-24 26q31 44 55 61t51 17q26 0 71 -28.5t60 -28.5q35 0 65 49l20 -29q-34 -71 -85 -71q-19 0 -64.5 27.5t-64.5 27.5z" />
    <glyph glyph-name="Ograve" unicode="&#xd2;" horiz-adv-x="690" 
d="M345 627q-64 0 -106.5 -22t-63.5 -64t-28.5 -87.5t-7.5 -108.5q0 -50 4.5 -89t17.5 -78.5t35 -66t60 -43t89 -16.5t89 16.5t60 43t35 66t17.5 78.5t4.5 89q0 63 -7.5 108.5t-28.5 87.5t-63.5 64t-106.5 22zM345 -10q-83 0 -140.5 27.5t-88 79t-43 111t-12.5 137.5
q0 76 12.5 134.5t43 108t88 76t140.5 26.5t140.5 -26.5t88 -76t43 -108t12.5 -134.5q0 -78 -12.5 -137.5t-43 -111t-88 -79t-140.5 -27.5zM326 710l-81 140h74l62 -140h-55z" />
    <glyph glyph-name="Oacute" unicode="&#xd3;" horiz-adv-x="690" 
d="M345 627q-64 0 -106.5 -22t-63.5 -64t-28.5 -87.5t-7.5 -108.5q0 -50 4.5 -89t17.5 -78.5t35 -66t60 -43t89 -16.5t89 16.5t60 43t35 66t17.5 78.5t4.5 89q0 63 -7.5 108.5t-28.5 87.5t-63.5 64t-106.5 22zM345 -10q-83 0 -140.5 27.5t-88 79t-43 111t-12.5 137.5
q0 76 12.5 134.5t43 108t88 76t140.5 26.5t140.5 -26.5t88 -76t43 -108t12.5 -134.5q0 -78 -12.5 -137.5t-43 -111t-88 -79t-140.5 -27.5zM451 850l-81 -140h-55l62 140h74z" />
    <glyph glyph-name="Ocircumflex" unicode="&#xd4;" horiz-adv-x="690" 
d="M345 627q-64 0 -106.5 -22t-63.5 -64t-28.5 -87.5t-7.5 -108.5q0 -50 4.5 -89t17.5 -78.5t35 -66t60 -43t89 -16.5t89 16.5t60 43t35 66t17.5 78.5t4.5 89q0 63 -7.5 108.5t-28.5 87.5t-63.5 64t-106.5 22zM345 -10q-83 0 -140.5 27.5t-88 79t-43 111t-12.5 137.5
q0 76 12.5 134.5t43 108t88 76t140.5 26.5t140.5 -26.5t88 -76t43 -108t12.5 -134.5q0 -78 -12.5 -137.5t-43 -111t-88 -79t-140.5 -27.5zM345 810l-74 -100h-55l104 140h51l103 -140h-55z" />
    <glyph glyph-name="Otilde" unicode="&#xd5;" horiz-adv-x="690" 
d="M345 627q-64 0 -106.5 -22t-63.5 -64t-28.5 -87.5t-7.5 -108.5q0 -50 4.5 -89t17.5 -78.5t35 -66t60 -43t89 -16.5t89 16.5t60 43t35 66t17.5 78.5t4.5 89q0 63 -7.5 108.5t-28.5 87.5t-63.5 64t-106.5 22zM345 -10q-83 0 -140.5 27.5t-88 79t-43 111t-12.5 137.5
q0 76 12.5 134.5t43 108t88 76t140.5 26.5t140.5 -26.5t88 -76t43 -108t12.5 -134.5q0 -78 -12.5 -137.5t-43 -111t-88 -79t-140.5 -27.5zM292 785q-20 0 -35.5 -8.5t-48.5 -42.5l-24 26q31 44 55 61t51 17q26 0 71 -28.5t60 -28.5q35 0 65 49l20 -29q-34 -71 -85 -71
q-19 0 -64.5 27.5t-64.5 27.5z" />
    <glyph glyph-name="Odieresis" unicode="&#xd6;" horiz-adv-x="690" 
d="M345 627q-64 0 -106.5 -22t-63.5 -64t-28.5 -87.5t-7.5 -108.5q0 -50 4.5 -89t17.5 -78.5t35 -66t60 -43t89 -16.5t89 16.5t60 43t35 66t17.5 78.5t4.5 89q0 63 -7.5 108.5t-28.5 87.5t-63.5 64t-106.5 22zM345 -10q-83 0 -140.5 27.5t-88 79t-43 111t-12.5 137.5
q0 76 12.5 134.5t43 108t88 76t140.5 26.5t140.5 -26.5t88 -76t43 -108t12.5 -134.5q0 -78 -12.5 -137.5t-43 -111t-88 -79t-140.5 -27.5zM215 847h58v-115h-58v115zM417 847h59v-115h-59v115z" />
    <glyph glyph-name="multiply" unicode="&#xd7;" horiz-adv-x="487" 
d="M426 406l-141 -141l141 -141l-42 -41l-140 140l-141 -140l-42 41l141 141l-141 141l42 41l141 -141l140 141z" />
    <glyph glyph-name="Oslash" unicode="&#xd8;" horiz-adv-x="690" 
d="M345 -10q-133 0 -203 76l-75 -95l-25 20l79 98q-60 85 -60 256q0 76 12.5 134.5t43 108t88 76t140.5 26.5q129 0 197 -70l81 101l24 -19l-82 -103q64 -85 64 -254q0 -78 -12.5 -137.5t-43 -111t-88 -79t-140.5 -27.5zM345 52q51 0 89 16.5t60 43t35 66t17.5 78.5t4.5 89
q0 127 -37 190l-327 -412q50 -71 158 -71zM345 627q-64 0 -106.5 -22t-63.5 -64t-28.5 -87.5t-7.5 -108.5q0 -127 34 -190l326 410q-51 62 -154 62z" />
    <glyph glyph-name="Ugrave" unicode="&#xd9;" horiz-adv-x="640" 
d="M323 52q45 0 78 13t51 31t28 45.5t12.5 49.5t2.5 49v440h74v-440q0 -129 -62.5 -189.5t-186.5 -60.5t-186.5 60.5t-62.5 189.5v440h74v-440q0 -36 5 -62.5t21 -58.5t54.5 -49.5t97.5 -17.5zM296 710l-81 140h74l62 -140h-55z" />
    <glyph glyph-name="Uacute" unicode="&#xda;" horiz-adv-x="640" 
d="M323 52q45 0 78 13t51 31t28 45.5t12.5 49.5t2.5 49v440h74v-440q0 -129 -62.5 -189.5t-186.5 -60.5t-186.5 60.5t-62.5 189.5v440h74v-440q0 -36 5 -62.5t21 -58.5t54.5 -49.5t97.5 -17.5zM427 850l-81 -140h-55l62 140h74z" />
    <glyph glyph-name="Ucircumflex" unicode="&#xdb;" horiz-adv-x="640" 
d="M323 52q45 0 78 13t51 31t28 45.5t12.5 49.5t2.5 49v440h74v-440q0 -129 -62.5 -189.5t-186.5 -60.5t-186.5 60.5t-62.5 189.5v440h74v-440q0 -36 5 -62.5t21 -58.5t54.5 -49.5t97.5 -17.5zM320 810l-74 -100h-55l104 140h51l103 -140h-55z" />
    <glyph glyph-name="Udieresis" unicode="&#xdc;" horiz-adv-x="640" 
d="M323 52q45 0 78 13t51 31t28 45.5t12.5 49.5t2.5 49v440h74v-440q0 -129 -62.5 -189.5t-186.5 -60.5t-186.5 60.5t-62.5 189.5v440h74v-440q0 -36 5 -62.5t21 -58.5t54.5 -49.5t97.5 -17.5zM190 847h58v-115h-58v115zM392 847h59v-115h-59v115z" />
    <glyph glyph-name="Yacute" unicode="&#xdd;" horiz-adv-x="620" 
d="M311 317h2l185 363h81l-232 -440v-240h-74v240l-232 440h85zM427 850l-81 -140h-55l62 140h74z" />
    <glyph glyph-name="Thorn" unicode="&#xde;" 
d="M342 147h-197v-147h-74v680h74v-138h197q97 0 152 -54.5t55 -142.5q0 -91 -54.5 -144.5t-152.5 -53.5zM145 476v-262h190q65 0 101.5 33t36.5 98q0 61 -37.5 96t-100.5 35h-190z" />
    <glyph glyph-name="germandbls" unicode="&#xdf;" horiz-adv-x="645" 
d="M320 700q94 0 146.5 -38.5t52.5 -111.5q0 -41 -20 -74t-44 -49.5t-44 -34.5t-20 -34q0 -29 48 -44q84 -27 122 -67.5t38 -97.5q0 -82 -56.5 -120.5t-138.5 -38.5q-66 0 -129 20l9 55q61 -20 116 -20q40 0 67.5 12t39 31.5t15 33t3.5 27.5q0 23 -9.5 42.5t-28.5 33
t-32.5 21.5t-36.5 17t-25 10q-39 17 -54 33.5t-15 44.5q0 18 12 34.5t29 31l33.5 30t28.5 39t12 52.5q0 41 -22.5 66t-48 32t-54.5 7q-44 0 -74 -14t-44 -40t-19.5 -52.5t-5.5 -60.5v-476h-70v449h-79v46l79 5q0 200 219 200z" />
    <glyph glyph-name="agrave" unicode="&#xe0;" horiz-adv-x="505" 
d="M250 451q-70 0 -160 -18l-11 57q102 20 186 20q92 0 135.5 -36t43.5 -128v-346h-70v50h-2q-73 -60 -163 -60q-75 0 -119 39t-44 105q0 151 210 151h118v57q0 57 -29 83t-95 26zM374 93v148h-114q-78 0 -111 -26t-33 -75q0 -43 31.5 -69t87.5 -26q79 0 139 48zM242 560
l-81 140h74l62 -140h-55z" />
    <glyph glyph-name="aacute" unicode="&#xe1;" horiz-adv-x="505" 
d="M250 451q-70 0 -160 -18l-11 57q102 20 186 20q92 0 135.5 -36t43.5 -128v-346h-70v50h-2q-73 -60 -163 -60q-75 0 -119 39t-44 105q0 151 210 151h118v57q0 57 -29 83t-95 26zM374 93v148h-114q-78 0 -111 -26t-33 -75q0 -43 31.5 -69t87.5 -26q79 0 139 48zM366 700
l-81 -140h-55l62 140h74z" />
    <glyph glyph-name="acircumflex" unicode="&#xe2;" horiz-adv-x="505" 
d="M250 451q-70 0 -160 -18l-11 57q102 20 186 20q92 0 135.5 -36t43.5 -128v-346h-70v50h-2q-73 -60 -163 -60q-75 0 -119 39t-44 105q0 151 210 151h118v57q0 57 -29 83t-95 26zM374 93v148h-114q-78 0 -111 -26t-33 -75q0 -43 31.5 -69t87.5 -26q79 0 139 48zM262 660
l-74 -100h-55l104 140h51l103 -140h-55z" />
    <glyph glyph-name="atilde" unicode="&#xe3;" horiz-adv-x="505" 
d="M250 451q-70 0 -160 -18l-11 57q102 20 186 20q92 0 135.5 -36t43.5 -128v-346h-70v50h-2q-73 -60 -163 -60q-75 0 -119 39t-44 105q0 151 210 151h118v57q0 57 -29 83t-95 26zM374 93v148h-114q-78 0 -111 -26t-33 -75q0 -43 31.5 -69t87.5 -26q79 0 139 48zM216 625
q-20 0 -35.5 -8.5t-48.5 -42.5l-24 26q31 44 55 61t51 17q26 0 71 -28.5t60 -28.5q35 0 65 49l20 -29q-34 -71 -85 -71q-19 0 -64.5 27.5t-64.5 27.5z" />
    <glyph glyph-name="adieresis" unicode="&#xe4;" horiz-adv-x="505" 
d="M250 451q-70 0 -160 -18l-11 57q102 20 186 20q92 0 135.5 -36t43.5 -128v-346h-70v50h-2q-73 -60 -163 -60q-75 0 -119 39t-44 105q0 151 210 151h118v57q0 57 -29 83t-95 26zM374 93v148h-114q-78 0 -111 -26t-33 -75q0 -43 31.5 -69t87.5 -26q79 0 139 48zM132 687h58
v-115h-58v115zM334 687h59v-115h-59v115z" />
    <glyph glyph-name="aring" unicode="&#xe5;" horiz-adv-x="505" 
d="M250 451q-70 0 -160 -18l-11 57q102 20 186 20q92 0 135.5 -36t43.5 -128v-346h-70v50h-2q-73 -60 -163 -60q-75 0 -119 39t-44 105q0 151 210 151h118v57q0 57 -29 83t-95 26zM374 93v148h-114q-78 0 -111 -26t-33 -75q0 -43 31.5 -69t87.5 -26q79 0 139 48zM189 620
q0 32 22 53t54 21t53.5 -21t21.5 -53t-21.5 -53t-53.5 -21t-54 21t-22 53zM215 620q0 -22 14 -36.5t36 -14.5q21 0 35 14.5t14 36.5t-14 36.5t-35 14.5q-22 0 -36 -14.5t-14 -36.5z" />
    <glyph glyph-name="ae" unicode="&#xe6;" horiz-adv-x="852" 
d="M800 241h-351q3 -192 179 -192q91 0 156 20l10 -57q-79 -22 -175 -22q-148 0 -207 94q-84 -94 -203 -94q-73 0 -118 37.5t-45 106.5q0 151 210 151h118v57q0 57 -29 83t-95 26q-70 0 -160 -18l-11 57q100 20 186 20q69 0 105.5 -25.5t51.5 -88.5q48 114 190 114
q48 0 84.5 -12.5t57.5 -31t34 -45t17 -50.5t4 -52q0 -35 -9 -78zM235 45q93 0 159 66q-20 46 -20 130h-114q-78 0 -111 -26t-33 -75q0 -43 31.5 -69t87.5 -26zM609 455q-147 0 -160 -168h283q6 22 6 45q0 52 -29.5 87.5t-99.5 35.5z" />
    <glyph glyph-name="ccedilla" unicode="&#xe7;" horiz-adv-x="480" 
d="M51 250q0 260 239 260q79 0 167 -22l-13 -57q-78 20 -154 20q-85 0 -125 -54.5t-40 -146.5t40 -146.5t125 -54.5q76 0 154 20l13 -57q-87 -22 -164 -22v-46q35 -3 59.5 -20t24.5 -52t-25.5 -56t-70.5 -21q-32 0 -71 12l5 25q32 -8 55 -8q33 0 47.5 16.5t14.5 35.5
t-15.5 34t-52.5 16v65q-213 12 -213 259z" />
    <glyph glyph-name="egrave" unicode="&#xe8;" horiz-adv-x="530" 
d="M478 241h-351q3 -192 179 -192q90 0 156 20l9 -57q-78 -22 -175 -22q-245 0 -245 260t239 260q108 0 154 -56.5t43 -146.5q-1 -28 -9 -66zM286 455q-146 0 -159 -168h283q6 29 5 55q-2 51 -33.5 82t-95.5 31zM262 560l-81 140h74l62 -140h-55z" />
    <glyph glyph-name="eacute" unicode="&#xe9;" horiz-adv-x="530" 
d="M478 241h-351q3 -192 179 -192q90 0 156 20l9 -57q-78 -22 -175 -22q-245 0 -245 260t239 260q108 0 154 -56.5t43 -146.5q-1 -28 -9 -66zM286 455q-146 0 -159 -168h283q6 29 5 55q-2 51 -33.5 82t-95.5 31zM397 700l-81 -140h-55l62 140h74z" />
    <glyph glyph-name="ecircumflex" unicode="&#xea;" horiz-adv-x="530" 
d="M478 241h-351q3 -192 179 -192q90 0 156 20l9 -57q-78 -22 -175 -22q-245 0 -245 260t239 260q108 0 154 -56.5t43 -146.5q-1 -28 -9 -66zM286 455q-146 0 -159 -168h283q6 29 5 55q-2 51 -33.5 82t-95.5 31zM265 660l-74 -100h-55l104 140h51l103 -140h-55z" />
    <glyph glyph-name="edieresis" unicode="&#xeb;" horiz-adv-x="530" 
d="M478 241h-351q3 -192 179 -192q90 0 156 20l9 -57q-78 -22 -175 -22q-245 0 -245 260t239 260q108 0 154 -56.5t43 -146.5q-1 -28 -9 -66zM286 455q-146 0 -159 -168h283q6 29 5 55q-2 51 -33.5 82t-95.5 31zM135 687h58v-115h-58v115zM337 687h59v-115h-59v115z" />
    <glyph glyph-name="igrave" unicode="&#xec;" horiz-adv-x="192" 
d="M71 560l-81 140h74l62 -140h-55zM61 500h70v-500h-70v500z" />
    <glyph glyph-name="iacute" unicode="&#xed;" horiz-adv-x="192" 
d="M207 700l-81 -140h-55l62 140h74zM61 500h70v-500h-70v500z" />
    <glyph glyph-name="icircumflex" unicode="&#xee;" horiz-adv-x="192" 
d="M61 500h70v-500h-70v500zM96 660l-74 -100h-55l104 140h51l103 -140h-55z" />
    <glyph glyph-name="idieresis" unicode="&#xef;" horiz-adv-x="192" 
d="M-34 687h58v-115h-58v115zM168 687h59v-115h-59v115zM61 500h70v-500h-70v500z" />
    <glyph glyph-name="eth" unicode="&#xf0;" horiz-adv-x="550" 
d="M377 640l76 77l26 -26l-73 -73q93 -98 93 -318q0 -50 -6.5 -93t-23 -84t-42 -69.5t-66.5 -46t-94 -17.5q-94 0 -155 62t-61 168q0 112 54.5 173.5t152.5 61.5q100 0 169 -97l2 1q-5 143 -67 213l-75 -75l-26 27l68 68q-49 39 -114 39t-133 -24l-10 55q79 28 149 28
q93 0 156 -50zM423 301q-63 93 -147 93q-44 0 -75.5 -16t-47 -43t-22 -55t-6.5 -60q0 -80 42.5 -125.5t104.5 -45.5q161 0 151 252z" />
    <glyph glyph-name="ntilde" unicode="&#xf1;" horiz-adv-x="530" 
d="M131 384v-384h-70v500h70v-73h2q86 83 186 83q150 0 150 -164v-346h-70v331q0 120 -110 120q-73 0 -158 -67zM212 625q-20 0 -35.5 -8.5t-48.5 -42.5l-24 26q31 44 55 61t51 17q26 0 71 -28.5t60 -28.5q35 0 65 49l20 -29q-34 -71 -85 -71q-19 0 -64.5 27.5t-64.5 27.5z
" />
    <glyph glyph-name="ograve" unicode="&#xf2;" horiz-adv-x="550" 
d="M275 451q-150 0 -150 -201t150 -201t150 201t-150 201zM275 -10q-224 0 -224 260t224 260t224 -260t-224 -260zM256 560l-81 140h74l62 -140h-55z" />
    <glyph glyph-name="oacute" unicode="&#xf3;" horiz-adv-x="550" 
d="M275 451q-150 0 -150 -201t150 -201t150 201t-150 201zM275 -10q-224 0 -224 260t224 260t224 -260t-224 -260zM374 700l-81 -140h-55l62 140h74z" />
    <glyph glyph-name="ocircumflex" unicode="&#xf4;" horiz-adv-x="550" 
d="M275 451q-150 0 -150 -201t150 -201t150 201t-150 201zM275 -10q-224 0 -224 260t224 260t224 -260t-224 -260zM275 660l-74 -100h-55l104 140h51l103 -140h-55z" />
    <glyph glyph-name="otilde" unicode="&#xf5;" horiz-adv-x="550" 
d="M275 451q-150 0 -150 -201t150 -201t150 201t-150 201zM275 -10q-224 0 -224 260t224 260t224 -260t-224 -260zM224 625q-20 0 -35.5 -8.5t-48.5 -42.5l-24 26q31 44 55 61t51 17q26 0 71 -28.5t60 -28.5q35 0 65 49l20 -29q-34 -71 -85 -71q-19 0 -64.5 27.5t-64.5 27.5
z" />
    <glyph glyph-name="odieresis" unicode="&#xf6;" horiz-adv-x="550" 
d="M275 451q-150 0 -150 -201t150 -201t150 201t-150 201zM275 -10q-224 0 -224 260t224 260t224 -260t-224 -260zM143 687h58v-115h-58v115zM345 687h59v-115h-59v115z" />
    <glyph glyph-name="divide" unicode="&#xf7;" horiz-adv-x="500" 
d="M219 165h62v-115h-62v115zM219 480h62v-115h-62v115zM61 294h378v-58h-378v58z" />
    <glyph glyph-name="oslash" unicode="&#xf8;" horiz-adv-x="550" 
d="M275 -10q-98 0 -154 56l-64 -75l-25 20l66 76q-47 66 -47 183q0 260 224 260q99 0 153 -56l65 75l24 -19l-66 -77q48 -67 48 -183q0 -260 -224 -260zM275 49q150 0 150 201q0 76 -26 121l-235 -275q39 -47 111 -47zM275 451q-150 0 -150 -201q0 -77 25 -121l235 274
q-38 48 -110 48z" />
    <glyph glyph-name="ugrave" unicode="&#xf9;" horiz-adv-x="530" 
d="M399 116v384h70v-500h-70v72h-2q-87 -82 -186 -82q-150 0 -150 164v346h70v-331q0 -120 110 -120q73 0 158 67zM231 560l-81 140h74l62 -140h-55z" />
    <glyph glyph-name="uacute" unicode="&#xfa;" horiz-adv-x="530" 
d="M399 116v384h70v-500h-70v72h-2q-87 -82 -186 -82q-150 0 -150 164v346h70v-331q0 -120 110 -120q73 0 158 67zM364 700l-81 -140h-55l62 140h74z" />
    <glyph glyph-name="ucircumflex" unicode="&#xfb;" horiz-adv-x="530" 
d="M399 116v384h70v-500h-70v72h-2q-87 -82 -186 -82q-150 0 -150 164v346h70v-331q0 -120 110 -120q73 0 158 67zM265 660l-74 -100h-55l104 140h51l103 -140h-55z" />
    <glyph glyph-name="udieresis" unicode="&#xfc;" horiz-adv-x="530" 
d="M399 116v384h70v-500h-70v72h-2q-87 -82 -186 -82q-150 0 -150 164v346h70v-331q0 -120 110 -120q73 0 158 67zM135 687h58v-115h-58v115zM337 687h59v-115h-59v115z" />
    <glyph glyph-name="yacute" unicode="&#xfd;" horiz-adv-x="560" 
d="M247 -11l-200 511h79l161 -431h2l148 431h75l-193 -536q-33 -93 -78 -133.5t-114 -40.5q-34 0 -67 7l7 59q21 -5 45 -5q27 0 49.5 12.5t38.5 35t26 42.5t21 48zM395 700l-81 -140h-55l62 140h74z" />
    <glyph glyph-name="thorn" unicode="&#xfe;" horiz-adv-x="530" 
d="M131 700v-250h2q65 60 159 60q187 0 187 -260q0 -119 -45.5 -189.5t-144.5 -70.5q-93 0 -156 58h-2v-248h-70v900h70zM405 250q0 201 -139 201q-77 0 -135 -48v-306q58 -48 135 -48q139 0 139 201z" />
    <glyph glyph-name="ydieresis" unicode="&#xff;" horiz-adv-x="560" 
d="M247 -11l-200 511h79l161 -431h2l148 431h75l-193 -536q-33 -93 -78 -133.5t-114 -40.5q-34 0 -67 7l7 59q21 -5 45 -5q27 0 49.5 12.5t38.5 35t26 42.5t21 48zM150 687h58v-115h-58v115zM352 687h59v-115h-59v115z" />
    <glyph glyph-name="Amacron" unicode="&#x100;" horiz-adv-x="650" 
d="M527 0l-62 182h-282l-64 -182h-78l241 685h92l235 -685h-82zM327 593h-2l-126 -349h251zM173 819h303v-48h-303v48z" />
    <glyph glyph-name="amacron" unicode="&#x101;" horiz-adv-x="505" 
d="M250 451q-70 0 -160 -18l-11 57q102 20 186 20q92 0 135.5 -36t43.5 -128v-346h-70v50h-2q-73 -60 -163 -60q-75 0 -119 39t-44 105q0 151 210 151h118v57q0 57 -29 83t-95 26zM374 93v148h-114q-78 0 -111 -26t-33 -75q0 -43 31.5 -69t87.5 -26q79 0 139 48zM114 649
h303v-48h-303v48z" />
    <glyph glyph-name="Abreve" unicode="&#x102;" horiz-adv-x="650" 
d="M527 0l-62 182h-282l-64 -182h-78l241 685h92l235 -685h-82zM327 593h-2l-126 -349h251zM325 778q81 0 105 89h31q-9 -65 -45.5 -98t-90.5 -33t-90 32.5t-46 98.5h32q9 -37 34 -63t70 -26z" />
    <glyph glyph-name="abreve" unicode="&#x103;" horiz-adv-x="505" 
d="M250 451q-70 0 -160 -18l-11 57q102 20 186 20q92 0 135.5 -36t43.5 -128v-346h-70v50h-2q-73 -60 -163 -60q-75 0 -119 39t-44 105q0 151 210 151h118v57q0 57 -29 83t-95 26zM374 93v148h-114q-78 0 -111 -26t-33 -75q0 -43 31.5 -69t87.5 -26q79 0 139 48zM272 608
q81 0 105 89h31q-9 -65 -45.5 -98t-90.5 -33t-90 32.5t-46 98.5h32q9 -37 34 -63t70 -26z" />
    <glyph glyph-name="Aogonek" unicode="&#x104;" horiz-adv-x="650" 
d="M552 0h-25l-62 182h-282l-64 -182h-78l241 685h92l235 -685q-41 -14 -68 -48.5t-27 -66.5q0 -26 15 -40.5t42 -14.5q26 0 61 20l4 -20q-37 -29 -87 -29q-35 0 -59 18t-24 51q0 70 86 130zM327 593h-1l-127 -349h251z" />
    <glyph glyph-name="aogonek" unicode="&#x105;" horiz-adv-x="505" 
d="M389 0h-15v50h-2q-73 -60 -163 -60q-75 0 -119 39t-44 105q0 151 210 151h118v57q0 57 -29 83t-95 26q-70 0 -160 -18l-11 57q102 20 186 20q92 0 135.5 -36t43.5 -128v-346q-41 -16 -67 -49.5t-26 -65.5q0 -26 15 -40.5t42 -14.5q28 0 61 20l5 -20q-37 -29 -88 -29
q-33 0 -58 17.5t-25 52.5q0 69 86 129zM374 93v148h-114q-78 0 -111 -26t-33 -75q0 -43 31.5 -69t87.5 -26q79 0 139 48z" />
    <glyph glyph-name="Cacute" unicode="&#x106;" horiz-adv-x="620" 
d="M61 345q0 76 12.5 134.5t43 108t88 76t140.5 26.5q115 0 230 -34l-17 -62q-122 30 -207 30q-63 0 -106 -21.5t-65.5 -62.5t-31.5 -87.5t-9 -107.5q0 -65 9 -113.5t31.5 -90t65.5 -63.5t106 -22q85 0 207 30l17 -62q-115 -34 -230 -34q-67 0 -117.5 18.5t-81.5 50
t-50.5 78t-27 96.5t-7.5 112zM468 850l-81 -140h-55l62 140h74z" />
    <glyph glyph-name="cacute" unicode="&#x107;" horiz-adv-x="480" 
d="M51 250q0 260 239 260q79 0 167 -22l-13 -57q-78 20 -154 20q-85 0 -125 -54.5t-40 -146.5t40 -146.5t125 -54.5q76 0 154 20l13 -57q-88 -22 -167 -22q-239 0 -239 260zM375 700l-81 -140h-55l62 140h74z" />
    <glyph glyph-name="Ccircumflex" unicode="&#x108;" horiz-adv-x="620" 
d="M61 345q0 76 12.5 134.5t43 108t88 76t140.5 26.5q115 0 230 -34l-17 -62q-122 30 -207 30q-63 0 -106 -21.5t-65.5 -62.5t-31.5 -87.5t-9 -107.5q0 -65 9 -113.5t31.5 -90t65.5 -63.5t106 -22q85 0 207 30l17 -62q-115 -34 -230 -34q-67 0 -117.5 18.5t-81.5 50
t-50.5 78t-27 96.5t-7.5 112zM353 810l-74 -100h-55l104 140h51l103 -140h-55z" />
    <glyph glyph-name="ccircumflex" unicode="&#x109;" horiz-adv-x="480" 
d="M51 250q0 260 239 260q79 0 167 -22l-13 -57q-78 20 -154 20q-85 0 -125 -54.5t-40 -146.5t40 -146.5t125 -54.5q76 0 154 20l13 -57q-88 -22 -167 -22q-239 0 -239 260zM276 660l-74 -100h-55l104 140h51l103 -140h-55z" />
    <glyph glyph-name="Cdotaccent" unicode="&#x10a;" horiz-adv-x="620" 
d="M61 345q0 76 12.5 134.5t43 108t88 76t140.5 26.5q115 0 230 -34l-17 -62q-122 30 -207 30q-63 0 -106 -21.5t-65.5 -62.5t-31.5 -87.5t-9 -107.5q0 -65 9 -113.5t31.5 -90t65.5 -63.5t106 -22q85 0 207 30l17 -62q-115 -34 -230 -34q-67 0 -117.5 18.5t-81.5 50
t-50.5 78t-27 96.5t-7.5 112zM327 850h63v-108h-63v108z" />
    <glyph glyph-name="cdotaccent" unicode="&#x10b;" horiz-adv-x="480" 
d="M51 250q0 260 239 260q79 0 167 -22l-13 -57q-78 20 -154 20q-85 0 -125 -54.5t-40 -146.5t40 -146.5t125 -54.5q76 0 154 20l13 -57q-88 -22 -167 -22q-239 0 -239 260zM251 680h63v-108h-63v108z" />
    <glyph glyph-name="Ccaron" unicode="&#x10c;" horiz-adv-x="620" 
d="M61 345q0 76 12.5 134.5t43 108t88 76t140.5 26.5q115 0 230 -34l-17 -62q-122 30 -207 30q-63 0 -106 -21.5t-65.5 -62.5t-31.5 -87.5t-9 -107.5q0 -65 9 -113.5t31.5 -90t65.5 -63.5t106 -22q85 0 207 30l17 -62q-115 -34 -230 -34q-67 0 -117.5 18.5t-81.5 50
t-50.5 78t-27 96.5t-7.5 112zM287 850l74 -100l74 100h55l-103 -140h-51l-104 140h55z" />
    <glyph glyph-name="ccaron" unicode="&#x10d;" horiz-adv-x="480" 
d="M51 250q0 260 239 260q79 0 167 -22l-13 -57q-78 20 -154 20q-85 0 -125 -54.5t-40 -146.5t40 -146.5t125 -54.5q76 0 154 20l13 -57q-88 -22 -167 -22q-239 0 -239 260zM215 700l74 -100l74 100h55l-103 -140h-51l-104 140h55z" />
    <glyph glyph-name="Dcaron" unicode="&#x10e;" horiz-adv-x="650" 
d="M308 0h-237v680h237q281 0 281 -335q0 -345 -281 -345zM145 66h163q59 0 100.5 22t63 62t30.5 87t9 108q0 48 -5.5 86t-19 73t-36 58.5t-58.5 37.5t-84 14h-163v-548zM228 850l74 -100l74 100h55l-103 -140h-51l-104 140h55z" />
    <glyph glyph-name="dcaron" unicode="&#x10f;" horiz-adv-x="597" 
d="M399 0v50h-2q-65 -60 -160 -60q-186 0 -186 260q0 119 45.5 189.5t144.5 70.5q93 0 156 -58h2v248h70v-700h-70zM125 250q0 -201 139 -201q77 0 135 48v306q-58 48 -135 48q-139 0 -139 -201zM553 539h-24l15 86h-19v75h63v-75z" />
    <glyph glyph-name="Dcroat" unicode="&#x110;" horiz-adv-x="657" 
d="M316 0h-237v323h-58v44h58v313h237q280 0 280 -335q0 -345 -280 -345zM152 66h164q59 0 100.5 22t63 62t30.5 87t9 108q0 48 -5.5 86t-19 73t-36 58.5t-58.5 37.5t-84 14h-164v-247h125v-44h-125v-257z" />
    <glyph glyph-name="dcroat" unicode="&#x111;" horiz-adv-x="530" 
d="M399 0v50h-2q-65 -60 -160 -60q-186 0 -186 260q0 119 45.5 189.5t144.5 70.5q93 0 156 -58h2v116h-113v44h113v88h70v-88h70v-44h-70v-568h-70zM125 250q0 -201 139 -201q77 0 135 48v306q-58 48 -135 48q-139 0 -139 -201z" />
    <glyph glyph-name="Emacron" unicode="&#x112;" horiz-adv-x="560" 
d="M494 680v-66h-349v-228h304v-66h-304v-254h354v-66h-428v680h423zM136 819h303v-48h-303v48z" />
    <glyph glyph-name="emacron" unicode="&#x113;" horiz-adv-x="530" 
d="M478 241h-351q3 -192 179 -192q90 0 156 20l9 -57q-78 -22 -175 -22q-245 0 -245 260t239 260q108 0 154 -56.5t43 -146.5q-1 -28 -9 -66zM286 455q-146 0 -159 -168h283q6 29 5 55q-2 51 -33.5 82t-95.5 31zM131 649h303v-48h-303v48z" />
    <glyph glyph-name="Ebreve" unicode="&#x114;" horiz-adv-x="560" 
d="M494 680v-66h-349v-228h304v-66h-304v-254h354v-66h-428v680h423zM288 778q81 0 105 89h31q-9 -65 -45.5 -98t-90.5 -33t-90 32.5t-46 98.5h32q9 -37 34 -63t70 -26z" />
    <glyph glyph-name="ebreve" unicode="&#x115;" horiz-adv-x="530" 
d="M478 241h-351q3 -192 179 -192q90 0 156 20l9 -57q-78 -22 -175 -22q-245 0 -245 260t239 260q108 0 154 -56.5t43 -146.5q-1 -28 -9 -66zM286 455q-146 0 -159 -168h283q6 29 5 55q-2 51 -33.5 82t-95.5 31zM289 608q81 0 105 89h31q-9 -65 -45.5 -98t-90.5 -33
t-90 32.5t-46 98.5h32q9 -37 34 -63t70 -26z" />
    <glyph glyph-name="Edotaccent" unicode="&#x116;" horiz-adv-x="560" 
d="M494 680v-66h-349v-228h304v-66h-304v-254h354v-66h-428v680h423zM255 850h63v-108h-63v108z" />
    <glyph glyph-name="edotaccent" unicode="&#x117;" horiz-adv-x="530" 
d="M478 241h-351q3 -192 179 -192q90 0 156 20l9 -57q-78 -22 -175 -22q-245 0 -245 260t239 260q108 0 154 -56.5t43 -146.5q-1 -28 -9 -66zM286 455q-146 0 -159 -168h283q6 29 5 55q-2 51 -33.5 82t-95.5 31zM254 680h63v-108h-63v108z" />
    <glyph glyph-name="Eogonek" unicode="&#x118;" horiz-adv-x="560" 
d="M542 -150l5 -20q-37 -29 -88 -29q-34 0 -58.5 18t-24.5 51q0 68 85 130h-390v680h423v-66h-349v-228h304v-66h-304v-254h354v-66q-32 -24 -53.5 -56t-21.5 -59q0 -26 15 -40.5t42 -14.5q29 0 61 20z" />
    <glyph glyph-name="eogonek" unicode="&#x119;" horiz-adv-x="530" 
d="M127 287h283q6 29 5 55q-2 51 -33.5 82t-95.5 31q-146 0 -159 -168zM478 241h-351q3 -192 179 -192q90 0 156 20l9 -57q-32 -24 -53 -56t-21 -60q0 -54 57 -54q26 0 61 20l4 -20q-37 -29 -87 -29q-35 0 -59.5 18t-24.5 51q0 62 72 119q-68 -11 -124 -11q-245 0 -245 260
t239 260q108 0 154 -56.5t43 -146.5q-1 -28 -9 -66z" />
    <glyph glyph-name="Ecaron" unicode="&#x11a;" horiz-adv-x="560" 
d="M494 680v-66h-349v-228h304v-66h-304v-254h354v-66h-428v680h423zM213 850l74 -100l74 100h55l-103 -140h-51l-104 140h55z" />
    <glyph glyph-name="ecaron" unicode="&#x11b;" horiz-adv-x="530" 
d="M478 241h-351q3 -192 179 -192q90 0 156 20l9 -57q-78 -22 -175 -22q-245 0 -245 260t239 260q108 0 154 -56.5t43 -146.5q-1 -28 -9 -66zM286 455q-146 0 -159 -168h283q6 29 5 55q-2 51 -33.5 82t-95.5 31zM215 700l74 -100l74 100h55l-103 -140h-51l-104 140h55z" />
    <glyph glyph-name="Gcircumflex" unicode="&#x11c;" horiz-adv-x="640" 
d="M345 -10q-67 0 -117.5 18.5t-81.5 50t-50.5 78t-27 96.5t-7.5 112q0 76 12.5 134.5t43 108t88 76t140.5 26.5q108 0 224 -34l-17 -62q-122 30 -201 30q-63 0 -106 -21.5t-65.5 -62.5t-31.5 -87.5t-9 -107.5q0 -65 9 -113.5t31.5 -90t65.5 -63.5t106 -22q77 0 144 41v179
h-143v66h217v-295q-40 -19 -65 -28.5t-69 -19t-90 -9.5zM348 810l-74 -100h-55l104 140h51l103 -140h-55z" />
    <glyph glyph-name="gcircumflex" unicode="&#x11d;" horiz-adv-x="555" 
d="M94 -69q0 -44 38.5 -69t118.5 -25q85 0 140 29t55 83q0 60 -93 65l-190 10q-35 -24 -52 -43.5t-17 -49.5zM265 224q59 0 94 31.5t35 84.5q0 55 -35.5 88.5t-93.5 33.5q-64 0 -98 -33t-34 -89q0 -55 35 -85.5t97 -30.5zM126 35v2q-42 22 -37 68q3 55 62 93v2
q-84 41 -84 140q0 80 52.5 125t145.5 45q31 0 67 -10h172v-44h-106q60 -38 60 -116q0 -79 -53.5 -121.5t-139.5 -42.5q-45 0 -77 13q-15 -15 -24 -33q-9 -17 -9.5 -33.5t9 -28t29.5 -12.5l184 -11q76 -5 109.5 -33t33.5 -77q0 -171 -285 -171q-200 0 -200 130q0 67 91 115z
M273 660l-74 -100h-55l104 140h51l103 -140h-55z" />
    <glyph glyph-name="Gbreve" unicode="&#x11e;" horiz-adv-x="640" 
d="M345 -10q-67 0 -117.5 18.5t-81.5 50t-50.5 78t-27 96.5t-7.5 112q0 76 12.5 134.5t43 108t88 76t140.5 26.5q108 0 224 -34l-17 -62q-122 30 -201 30q-63 0 -106 -21.5t-65.5 -62.5t-31.5 -87.5t-9 -107.5q0 -65 9 -113.5t31.5 -90t65.5 -63.5t106 -22q77 0 144 41v179
h-143v66h217v-295q-40 -19 -65 -28.5t-69 -19t-90 -9.5zM347 778q81 0 105 89h31q-9 -65 -45.5 -98t-90.5 -33t-90 32.5t-46 98.5h32q9 -37 34 -63t70 -26z" />
    <glyph glyph-name="gbreve" unicode="&#x11f;" horiz-adv-x="555" 
d="M94 -69q0 -44 38.5 -69t118.5 -25q85 0 140 29t55 83q0 60 -93 65l-190 10q-35 -24 -52 -43.5t-17 -49.5zM265 224q59 0 94 31.5t35 84.5q0 55 -35.5 88.5t-93.5 33.5q-64 0 -98 -33t-34 -89q0 -55 35 -85.5t97 -30.5zM126 35v2q-42 22 -37 68q3 55 62 93v2
q-84 41 -84 140q0 80 52.5 125t145.5 45q31 0 67 -10h172v-44h-106q60 -38 60 -116q0 -79 -53.5 -121.5t-139.5 -42.5q-45 0 -77 13q-15 -15 -24 -33q-9 -17 -9.5 -33.5t9 -28t29.5 -12.5l184 -11q76 -5 109.5 -33t33.5 -77q0 -171 -285 -171q-200 0 -200 130q0 67 91 115z
M265 608q81 0 105 89h31q-9 -65 -45.5 -98t-90.5 -33t-90 32.5t-46 98.5h32q9 -37 34 -63t70 -26z" />
    <glyph glyph-name="Gdotaccent" unicode="&#x120;" horiz-adv-x="640" 
d="M345 -10q-67 0 -117.5 18.5t-81.5 50t-50.5 78t-27 96.5t-7.5 112q0 76 12.5 134.5t43 108t88 76t140.5 26.5q108 0 224 -34l-17 -62q-122 30 -201 30q-63 0 -106 -21.5t-65.5 -62.5t-31.5 -87.5t-9 -107.5q0 -65 9 -113.5t31.5 -90t65.5 -63.5t106 -22q77 0 144 41v179
h-143v66h217v-295q-40 -19 -65 -28.5t-69 -19t-90 -9.5zM307 850h63v-108h-63v108z" />
    <glyph glyph-name="gdotaccent" unicode="&#x121;" horiz-adv-x="555" 
d="M94 -69q0 -44 38.5 -69t118.5 -25q85 0 140 29t55 83q0 60 -93 65l-190 10q-35 -24 -52 -43.5t-17 -49.5zM265 224q59 0 94 31.5t35 84.5q0 55 -35.5 88.5t-93.5 33.5q-64 0 -98 -33t-34 -89q0 -55 35 -85.5t97 -30.5zM126 35v2q-42 22 -37 68q3 55 62 93v2
q-84 41 -84 140q0 80 52.5 125t145.5 45q31 0 67 -10h172v-44h-106q60 -38 60 -116q0 -79 -53.5 -121.5t-139.5 -42.5q-45 0 -77 13q-15 -15 -24 -33q-9 -17 -9.5 -33.5t9 -28t29.5 -12.5l184 -11q76 -5 109.5 -33t33.5 -77q0 -171 -285 -171q-200 0 -200 130q0 67 91 115z
M233 680h63v-108h-63v108z" />
    <glyph glyph-name="Gcommaaccent" unicode="&#x122;" horiz-adv-x="640" 
d="M345 -10q-67 0 -117.5 18.5t-81.5 50t-50.5 78t-27 96.5t-7.5 112q0 76 12.5 134.5t43 108t88 76t140.5 26.5q108 0 224 -34l-17 -62q-122 30 -201 30q-63 0 -106 -21.5t-65.5 -62.5t-31.5 -87.5t-9 -107.5q0 -65 9 -113.5t31.5 -90t65.5 -63.5t106 -22q77 0 144 41v179
h-143v66h217v-295q-40 -19 -65 -28.5t-69 -19t-90 -9.5zM347 -201h-24l15 86h-19v75h63v-75z" />
    <glyph glyph-name="gcommaaccent" unicode="&#x123;" horiz-adv-x="555" 
d="M94 -69q0 -44 38.5 -69t118.5 -25q85 0 140 29t55 83q0 60 -93 65l-190 10q-35 -24 -52 -43.5t-17 -49.5zM265 224q59 0 94 31.5t35 84.5q0 55 -35.5 88.5t-93.5 33.5q-64 0 -98 -33t-34 -89q0 -55 35 -85.5t97 -30.5zM126 35v2q-42 22 -37 68q3 55 62 93v2
q-84 41 -84 140q0 80 52.5 125t145.5 45q31 0 67 -10h172v-44h-106q60 -38 60 -116q0 -79 -53.5 -121.5t-139.5 -42.5q-45 0 -77 13q-15 -15 -24 -33q-9 -17 -9.5 -33.5t9 -28t29.5 -12.5l184 -11q76 -5 109.5 -33t33.5 -77q0 -171 -285 -171q-200 0 -200 130q0 67 91 115z
M271 731h24l-15 -86h19v-75h-63v75z" />
    <glyph glyph-name="Hcircumflex" unicode="&#x124;" horiz-adv-x="640" 
d="M145 0h-74v680h74v-294h350v294h74v-680h-74v320h-350v-320zM320 810l-74 -100h-55l104 140h51l103 -140h-55z" />
    <glyph glyph-name="hcircumflex" unicode="&#x125;" horiz-adv-x="530" 
d="M131 384v-384h-70v700h70v-273h2q86 83 186 83q150 0 150 -164v-346h-70v331q0 120 -110 120q-73 0 -158 -67zM96 850l-74 -100h-55l104 140h51l103 -140h-55z" />
    <glyph glyph-name="Hbar" unicode="&#x126;" horiz-adv-x="640" 
d="M1 572h70v108h74v-108h350v108h74v-108h70v-44h-70v-528h-74v320h-350v-320h-74v528h-70v44zM145 386h350v142h-350v-142z" />
    <glyph glyph-name="hbar" unicode="&#x127;" horiz-adv-x="530" 
d="M131 568v-141h2q86 83 186 83q150 0 150 -164v-346h-70v331q0 120 -110 120q-73 0 -158 -67v-384h-70v568h-70v44h70v88h70v-88h113v-44h-113z" />
    <glyph glyph-name="Itilde" unicode="&#x128;" horiz-adv-x="216" 
d="M144 0h-74v680h74v-680zM55 785q-20 0 -35.5 -8.5t-48.5 -42.5l-24 26q31 44 55 61t51 17q26 0 71 -28.5t60 -28.5q35 0 65 49l20 -29q-34 -71 -85 -71q-19 0 -64.5 27.5t-64.5 27.5z" />
    <glyph glyph-name="itilde" unicode="&#x129;" horiz-adv-x="192" 
d="M43 625q-20 0 -35.5 -8.5t-48.5 -42.5l-24 26q31 44 55 61t51 17q26 0 71 -28.5t60 -28.5q35 0 65 49l20 -29q-34 -71 -85 -71q-19 0 -64.5 27.5t-64.5 27.5zM61 500h70v-500h-70v500z" />
    <glyph glyph-name="Imacron" unicode="&#x12a;" horiz-adv-x="216" 
d="M141 0h-74v680h74v-680zM-44 819h303v-48h-303v48z" />
    <glyph glyph-name="imacron" unicode="&#x12b;" horiz-adv-x="192" 
d="M-56 649h303v-48h-303v48zM61 500h70v-500h-70v500z" />
    <glyph glyph-name="Ibreve" unicode="&#x12c;" horiz-adv-x="216" 
d="M147 0h-74v680h74v-680zM108 778q81 0 105 89h31q-9 -65 -45.5 -98t-90.5 -33t-90 32.5t-46 98.5h32q9 -37 34 -63t70 -26z" />
    <glyph glyph-name="ibreve" unicode="&#x12d;" horiz-adv-x="192" 
d="M96 608q81 0 105 89h31q-9 -65 -45.5 -98t-90.5 -33t-90 32.5t-46 98.5h32q9 -37 34 -63t70 -26zM61 500h70v-500h-70v500z" />
    <glyph glyph-name="Iogonek" unicode="&#x12e;" horiz-adv-x="216" 
d="M92 0h-21v680h74v-680q-41 -17 -66 -50.5t-25 -64.5q0 -26 15 -40.5t42 -14.5q26 0 61 20l4 -20q-37 -29 -87 -29q-35 0 -59 18t-24 51q0 71 86 130z" />
    <glyph glyph-name="iogonek" unicode="&#x12f;" horiz-adv-x="192" 
d="M131 500v-500q-37 -16 -61.5 -51t-24.5 -64q0 -26 15 -40.5t42 -14.5q28 0 61 20l5 -20q-37 -29 -88 -29q-34 0 -58.5 18t-24.5 51q0 69 85 130l-21 39v461h70zM61 700h70v-119h-70v119z" />
    <glyph glyph-name="Idotaccent" unicode="&#x130;" horiz-adv-x="216" 
d="M145 0h-74v680h74v-680zM76 850h63v-108h-63v108z" />
    <glyph glyph-name="dotlessi" unicode="&#x131;" horiz-adv-x="192" 
d="M61 500h70v-500h-70v500z" />
    <glyph glyph-name="IJ" unicode="&#x132;" horiz-adv-x="542" 
d="M145 0h-74v680h74v-680zM471 680v-515q0 -95 -37.5 -135t-112.5 -40q-41 0 -85 7l6 62q42 -5 60 -5q51 0 73 27.5t22 87.5v511h74z" />
    <glyph glyph-name="ij" unicode="&#x133;" horiz-adv-x="381" 
d="M61 500h70v-500h-70v500zM61 680h70v-119h-70v119zM319 500v-578q0 -71 -31 -101.5t-107 -30.5q-31 0 -77 7l7 55q29 -5 55 -5q47 0 65 17.5t18 64.5v571h70zM249 680h70v-119h-70v119z" />
    <glyph glyph-name="Jcircumflex" unicode="&#x134;" horiz-adv-x="326" 
d="M255 680v-515q0 -95 -37.5 -135t-112.5 -40q-41 0 -86 7l7 62q40 -5 60 -5q51 0 73 27.5t22 87.5v511h74zM218 810l-74 -100h-55l104 140h51l103 -140h-55z" />
    <glyph glyph-name="jcircumflex" unicode="&#x135;" horiz-adv-x="232" 
d="M171 500v-578q0 -71 -31.5 -101.5t-107.5 -30.5q-31 0 -76 7l7 55q29 -5 54 -5q48 0 66 17.5t18 64.5v571h70zM136 660l-74 -100h-55l104 140h51l103 -140h-55z" />
    <glyph glyph-name="Kcommaaccent" unicode="&#x136;" horiz-adv-x="623" 
d="M145 680v-374l339 374h88l-248 -280l255 -400h-93l-216 341l-125 -136v-205h-74v680h74zM310 -194h-24l15 86h-19v75h63v-75z" />
    <glyph glyph-name="kcommaaccent" unicode="&#x137;" horiz-adv-x="535" 
d="M131 700v-419l266 219h87l-194 -169l204 -331h-83l-170 292l-110 -89v-203h-70v700h70zM256 -201h-24l15 86h-19v75h63v-75z" />
    <glyph glyph-name="kgreenlandic" unicode="&#x138;" horiz-adv-x="535" 
d="M131 500v-219l266 219h87l-194 -169l204 -331h-83l-170 292l-110 -89v-203h-70v500h70z" />
    <glyph glyph-name="Lacute" unicode="&#x139;" horiz-adv-x="540" 
d="M71 680h74v-614h344v-66h-418v680zM216 850l-81 -140h-55l62 140h74z" />
    <glyph glyph-name="lacute" unicode="&#x13a;" horiz-adv-x="192" 
d="M61 0v700h70v-700h-70zM206 890l-81 -140h-55l62 140h74z" />
    <glyph glyph-name="Lcommaaccent" unicode="&#x13b;" horiz-adv-x="540" 
d="M71 680h74v-614h344v-66h-418v680zM282 -193h-24l15 86h-19v75h63v-75z" />
    <glyph glyph-name="lcommaaccent" unicode="&#x13c;" horiz-adv-x="192" 
d="M61 0v700h70v-700h-70zM93 -201h-24l15 86h-19v75h63v-75z" />
    <glyph glyph-name="Lcaron" unicode="&#x13d;" horiz-adv-x="540" 
d="M71 680h74v-614h344v-66h-418v680zM286 519h-24l15 86h-19v75h63v-75z" />
    <glyph glyph-name="lcaron" unicode="&#x13e;" horiz-adv-x="254" 
d="M61 0v700h70v-700h-70zM209 539h-24l15 86h-19v75h63v-75z" />
    <glyph glyph-name="Ldot" unicode="&#x13f;" horiz-adv-x="540" 
d="M71 680h74v-614h344v-66h-418v680zM277 437h63v-115h-63v115z" />
    <glyph glyph-name="ldot" unicode="&#x140;" horiz-adv-x="260" 
d="M61 0v700h70v-700h-70zM187 417h63v-115h-63v115z" />
    <glyph glyph-name="Lslash" unicode="&#x141;" horiz-adv-x="550" 
d="M267 391l-112 -28v-297h344v-66h-418v346l-70 -17v44l70 17v290h74v-273l112 27v-43z" />
    <glyph glyph-name="lslash" unicode="&#x142;" horiz-adv-x="232" 
d="M252 371l-101 -25v-346h-70v328l-101 -25v44l101 25v328h70v-311l101 25v-43z" />
    <glyph glyph-name="Nacute" unicode="&#x143;" horiz-adv-x="650" 
d="M143 0h-72v680h74l360 -543h2v543h72v-680h-74l-360 536h-2v-536zM438 850l-81 -140h-55l62 140h74z" />
    <glyph glyph-name="nacute" unicode="&#x144;" horiz-adv-x="530" 
d="M131 384v-384h-70v500h70v-73h2q86 83 186 83q150 0 150 -164v-346h-70v331q0 120 -110 120q-73 0 -158 -67zM369 700l-81 -140h-55l62 140h74z" />
    <glyph glyph-name="Ncommaaccent" unicode="&#x145;" horiz-adv-x="650" 
d="M143 0h-72v680h74l360 -543h2v543h72v-680h-74l-360 536h-2v-536zM323 -201h-24l15 86h-19v75h63v-75z" />
    <glyph glyph-name="ncommaaccent" unicode="&#x146;" horiz-adv-x="530" 
d="M131 384v-384h-70v500h70v-73h2q86 83 186 83q150 0 150 -164v-346h-70v331q0 120 -110 120q-73 0 -158 -67zM266 721h24l-15 -86h19v-75h-63v75z" />
    <glyph glyph-name="Ncaron" unicode="&#x147;" horiz-adv-x="650" 
d="M143 0h-72v680h74l360 -543h2v543h72v-680h-74l-360 536h-2v-536zM251 850l74 -100l74 100h55l-103 -140h-51l-104 140h55z" />
    <glyph glyph-name="ncaron" unicode="&#x148;" horiz-adv-x="530" 
d="M131 384v-384h-70v500h70v-73h2q86 83 186 83q150 0 150 -164v-346h-70v331q0 120 -110 120q-73 0 -158 -67zM191 700l74 -100l74 100h55l-103 -140h-51l-104 140h55z" />
    <glyph glyph-name="napostrophe" unicode="&#x149;" horiz-adv-x="530" 
d="M131 384v-384h-70v500h70v-73h2q86 83 186 83q150 0 150 -164v-346h-70v331q0 120 -110 120q-73 0 -158 -67zM95 539h-24l15 86h-19v75h63v-75z" />
    <glyph glyph-name="Eng" unicode="&#x14a;" horiz-adv-x="650" 
d="M509 -72v72l-364 536h-2v-536h-72v680h74l360 -543h2v543h72v-759q0 -71 -31.5 -101.5t-107.5 -30.5q-32 0 -76 7l7 55q29 -5 54 -5q48 0 66 17.5t18 64.5z" />
    <glyph glyph-name="eng" unicode="&#x14b;" horiz-adv-x="530" 
d="M399 -71v402q0 120 -110 120q-73 0 -158 -67v-384h-70v500h70v-73h2q86 83 186 83q150 0 150 -164v-424q0 -71 -31.5 -101.5t-107.5 -30.5q-32 0 -76 7l7 55q29 -5 54 -5q48 0 66 17.5t18 64.5z" />
    <glyph glyph-name="Omacron" unicode="&#x14c;" horiz-adv-x="690" 
d="M345 627q-64 0 -106.5 -22t-63.5 -64t-28.5 -87.5t-7.5 -108.5q0 -50 4.5 -89t17.5 -78.5t35 -66t60 -43t89 -16.5t89 16.5t60 43t35 66t17.5 78.5t4.5 89q0 63 -7.5 108.5t-28.5 87.5t-63.5 64t-106.5 22zM345 -10q-83 0 -140.5 27.5t-88 79t-43 111t-12.5 137.5
q0 76 12.5 134.5t43 108t88 76t140.5 26.5t140.5 -26.5t88 -76t43 -108t12.5 -134.5q0 -78 -12.5 -137.5t-43 -111t-88 -79t-140.5 -27.5zM193 819h303v-48h-303v48z" />
    <glyph glyph-name="omacron" unicode="&#x14d;" horiz-adv-x="550" 
d="M275 451q-150 0 -150 -201t150 -201t150 201t-150 201zM275 -10q-224 0 -224 260t224 260t224 -260t-224 -260zM123 649h303v-48h-303v48z" />
    <glyph glyph-name="Obreve" unicode="&#x14e;" horiz-adv-x="690" 
d="M345 627q-64 0 -106.5 -22t-63.5 -64t-28.5 -87.5t-7.5 -108.5q0 -50 4.5 -89t17.5 -78.5t35 -66t60 -43t89 -16.5t89 16.5t60 43t35 66t17.5 78.5t4.5 89q0 63 -7.5 108.5t-28.5 87.5t-63.5 64t-106.5 22zM345 -10q-83 0 -140.5 27.5t-88 79t-43 111t-12.5 137.5
q0 76 12.5 134.5t43 108t88 76t140.5 26.5t140.5 -26.5t88 -76t43 -108t12.5 -134.5q0 -78 -12.5 -137.5t-43 -111t-88 -79t-140.5 -27.5zM345 778q81 0 105 89h31q-9 -65 -45.5 -98t-90.5 -33t-90 32.5t-46 98.5h32q9 -37 34 -63t70 -26z" />
    <glyph glyph-name="obreve" unicode="&#x14f;" horiz-adv-x="550" 
d="M275 451q-150 0 -150 -201t150 -201t150 201t-150 201zM275 -10q-224 0 -224 260t224 260t224 -260t-224 -260zM275 608q81 0 105 89h31q-9 -65 -45.5 -98t-90.5 -33t-90 32.5t-46 98.5h32q9 -37 34 -63t70 -26z" />
    <glyph glyph-name="Ohungarumlaut" unicode="&#x150;" horiz-adv-x="690" 
d="M345 627q-64 0 -106.5 -22t-63.5 -64t-28.5 -87.5t-7.5 -108.5q0 -50 4.5 -89t17.5 -78.5t35 -66t60 -43t89 -16.5t89 16.5t60 43t35 66t17.5 78.5t4.5 89q0 63 -7.5 108.5t-28.5 87.5t-63.5 64t-106.5 22zM345 -10q-83 0 -140.5 27.5t-88 79t-43 111t-12.5 137.5
q0 76 12.5 134.5t43 108t88 76t140.5 26.5t140.5 -26.5t88 -76t43 -108t12.5 -134.5q0 -78 -12.5 -137.5t-43 -111t-88 -79t-140.5 -27.5zM373 850l-70 -120h-40l63 120h47zM485 850l-70 -120h-40l62 120h48z" />
    <glyph glyph-name="ohungarumlaut" unicode="&#x151;" horiz-adv-x="550" 
d="M275 451q-150 0 -150 -201t150 -201t150 201t-150 201zM275 -10q-224 0 -224 260t224 260t224 -260t-224 -260zM302 680l-70 -120h-40l63 120h47zM414 680l-70 -120h-40l62 120h48z" />
    <glyph glyph-name="OE" unicode="&#x152;" horiz-adv-x="1038" 
d="M972 680v-66h-349v-228h304v-66h-304v-254h354v-66h-426v137h-1q-10 -40 -31.5 -69.5t-44 -44t-51.5 -22.5t-45 -9.5t-33 -1.5q-69 0 -120.5 20t-82.5 52.5t-49.5 80.5t-25 95.5t-6.5 106.5q0 76 12.5 134.5t43 108t88 76t140.5 26.5q158 0 205 -143h1v133h421zM345 627
q-64 0 -106.5 -22t-63.5 -64t-28.5 -87.5t-7.5 -108.5q0 -50 4.5 -89t17.5 -78.5t35 -66t60 -43t89 -16.5t89 16.5t60 43t35 67.5t17.5 81t4.5 92q0 48 -4.5 86t-18 74.5t-36 60.5t-60 39t-87.5 15z" />
    <glyph glyph-name="oe" unicode="&#x153;" horiz-adv-x="904" 
d="M852 241h-351q3 -192 179 -192q90 0 156 20l9 -57q-78 -22 -175 -22q-163 0 -207 134q-42 -134 -188 -134q-224 0 -224 260t224 260q146 0 188 -135q43 135 201 135q58 0 99 -17t61.5 -46t29 -59t8.5 -66q0 -28 -10 -81zM275 451q-150 0 -150 -201t150 -201t150 201
t-150 201zM660 455q-146 0 -159 -168h284q5 25 5 47q0 52 -31 86.5t-99 34.5z" />
    <glyph glyph-name="Racute" unicode="&#x154;" horiz-adv-x="615" 
d="M571 0h-87l-171 276h-168v-276h-74v680h275q95 0 149 -56.5t54 -145.5q0 -75 -42 -127.5t-117 -63.5zM145 614v-272h187q64 0 102.5 35.5t38.5 100.5q0 62 -36 99t-98 37h-194zM392 850l-81 -140h-55l62 140h74z" />
    <glyph glyph-name="racute" unicode="&#x155;" horiz-adv-x="370" 
d="M131 377v-377h-70v500h70v-80h2q90 90 196 90v-66q-54 0 -107.5 -20.5t-90.5 -46.5zM287 700l-81 -140h-55l62 140h74z" />
    <glyph glyph-name="Rcommaaccent" unicode="&#x156;" horiz-adv-x="615" 
d="M571 0h-87l-171 276h-168v-276h-74v680h275q95 0 149 -56.5t54 -145.5q0 -75 -42 -127.5t-117 -63.5zM145 614v-272h187q64 0 102.5 35.5t38.5 100.5q0 62 -36 99t-98 37h-194zM316 -195h-24l15 86h-19v75h63v-75z" />
    <glyph glyph-name="rcommaaccent" unicode="&#x157;" horiz-adv-x="370" 
d="M131 377v-377h-70v500h70v-80h2q90 90 196 90v-66q-54 0 -107.5 -20.5t-90.5 -46.5zM93 -201h-24l15 86h-19v75h63v-75z" />
    <glyph glyph-name="Rcaron" unicode="&#x158;" horiz-adv-x="615" 
d="M571 0h-87l-171 276h-168v-276h-74v680h275q95 0 149 -56.5t54 -145.5q0 -75 -42 -127.5t-117 -63.5zM145 614v-272h187q64 0 102.5 35.5t38.5 100.5q0 62 -36 99t-98 37h-194zM217 850l74 -100l74 100h55l-103 -140h-51l-104 140h55z" />
    <glyph glyph-name="rcaron" unicode="&#x159;" horiz-adv-x="370" 
d="M131 377v-377h-70v500h70v-80h2q90 90 196 90v-66q-54 0 -107.5 -20.5t-90.5 -46.5zM119 700l74 -100l74 100h55l-103 -140h-51l-104 140h55z" />
    <glyph glyph-name="Sacute" unicode="&#x15a;" 
d="M300 -10q-124 0 -239 34l13 62q122 -30 226 -30q80 0 120.5 36.5t40.5 86.5q0 77 -107 115q-18 6 -69 20q-93 23 -153.5 72.5t-60.5 128.5q0 90 63 132.5t166 42.5q110 0 225 -34l-17 -62q-122 30 -208 30q-80 0 -115.5 -31t-35.5 -80q0 -31 17.5 -55.5t49.5 -40.5
t57.5 -24.5t60.5 -16.5q205 -46 205 -191q0 -94 -66 -144.5t-173 -50.5zM416 850l-81 -140h-55l62 140h74z" />
    <glyph glyph-name="sacute" unicode="&#x15b;" horiz-adv-x="480" 
d="M434 138q0 -71 -46 -109.5t-133 -38.5q-121 0 -209 22l13 57q87 -22 188 -22q30 0 53 7.5t34.5 17.5t19 23t9 22t1.5 17q0 31 -26.5 52t-99.5 36q-88 16 -135 49.5t-47 103.5q0 66 46 100.5t133 34.5q107 0 195 -22l-13 -57q-87 22 -178 22q-37 0 -61.5 -9t-34.5 -23
t-13.5 -24.5t-3.5 -19.5q0 -32 24.5 -54t95.5 -36q95 -20 141.5 -51.5t46.5 -97.5zM364 700l-81 -140h-55l62 140h74z" />
    <glyph glyph-name="Scircumflex" unicode="&#x15c;" 
d="M300 -10q-124 0 -239 34l13 62q122 -30 226 -30q80 0 120.5 36.5t40.5 86.5q0 77 -107 115q-18 6 -69 20q-93 23 -153.5 72.5t-60.5 128.5q0 90 63 132.5t166 42.5q110 0 225 -34l-17 -62q-122 30 -208 30q-80 0 -115.5 -31t-35.5 -80q0 -31 17.5 -55.5t49.5 -40.5
t57.5 -24.5t60.5 -16.5q205 -46 205 -191q0 -94 -66 -144.5t-173 -50.5zM310 810l-74 -100h-55l104 140h51l103 -140h-55z" />
    <glyph glyph-name="scircumflex" unicode="&#x15d;" horiz-adv-x="480" 
d="M434 138q0 -71 -46 -109.5t-133 -38.5q-121 0 -209 22l13 57q87 -22 188 -22q30 0 53 7.5t34.5 17.5t19 23t9 22t1.5 17q0 31 -26.5 52t-99.5 36q-88 16 -135 49.5t-47 103.5q0 66 46 100.5t133 34.5q107 0 195 -22l-13 -57q-87 22 -178 22q-37 0 -61.5 -9t-34.5 -23
t-13.5 -24.5t-3.5 -19.5q0 -32 24.5 -54t95.5 -36q95 -20 141.5 -51.5t46.5 -97.5zM252 660l-74 -100h-55l104 140h51l103 -140h-55z" />
    <glyph glyph-name="Scedilla" unicode="&#x15e;" 
d="M539 185q0 -93 -63 -143t-167 -52v-46q83 -7 83 -72q0 -35 -25.5 -56t-69.5 -21q-32 0 -71 12l5 25q32 -8 55 -8q33 0 47 16t14 36q0 19 -15.5 34t-51.5 16v64q-117 3 -219 34l13 62q122 -30 226 -30q80 0 120.5 36.5t40.5 86.5q0 77 -107 115q-18 6 -69 20
q-93 23 -153.5 72.5t-60.5 128.5q0 90 63 132.5t166 42.5q110 0 225 -34l-17 -62q-122 30 -208 30q-80 0 -115.5 -31t-35.5 -80q0 -31 17.5 -55.5t49.5 -40.5t57.5 -24.5t60.5 -16.5q205 -46 205 -191z" />
    <glyph glyph-name="scedilla" unicode="&#x15f;" horiz-adv-x="480" 
d="M434 138q0 -71 -45.5 -109t-130.5 -39v-46q35 -3 59.5 -20t24.5 -52t-25.5 -56t-69.5 -21q-33 0 -72 12l6 25q32 -8 55 -8q33 0 47 16t14 36q0 19 -15.5 34t-51.5 16v64q-106 3 -184 22l13 57q87 -22 188 -22q30 0 53 7.5t34.5 17.5t19 23t9 22t1.5 17q0 31 -26.5 52
t-99.5 36q-88 16 -135 49.5t-47 103.5q0 66 46 100.5t133 34.5q107 0 195 -22l-13 -57q-87 22 -178 22q-37 0 -61.5 -9t-34.5 -23t-13.5 -24.5t-3.5 -19.5q0 -32 24.5 -54t95.5 -36q95 -20 141.5 -51.5t46.5 -97.5z" />
    <glyph glyph-name="Scaron" unicode="&#x160;" 
d="M300 -10q-124 0 -239 34l13 62q122 -30 226 -30q80 0 120.5 36.5t40.5 86.5q0 77 -107 115q-18 6 -69 20q-93 23 -153.5 72.5t-60.5 128.5q0 90 63 132.5t166 42.5q110 0 225 -34l-17 -62q-122 30 -208 30q-80 0 -115.5 -31t-35.5 -80q0 -31 17.5 -55.5t49.5 -40.5
t57.5 -24.5t60.5 -16.5q205 -46 205 -191q0 -94 -66 -144.5t-173 -50.5zM226 850l74 -100l74 100h55l-103 -140h-51l-104 140h55z" />
    <glyph glyph-name="scaron" unicode="&#x161;" horiz-adv-x="480" 
d="M434 138q0 -71 -46 -109.5t-133 -38.5q-121 0 -209 22l13 57q87 -22 188 -22q30 0 53 7.5t34.5 17.5t19 23t9 22t1.5 17q0 31 -26.5 52t-99.5 36q-88 16 -135 49.5t-47 103.5q0 66 46 100.5t133 34.5q107 0 195 -22l-13 -57q-87 22 -178 22q-37 0 -61.5 -9t-34.5 -23
t-13.5 -24.5t-3.5 -19.5q0 -32 24.5 -54t95.5 -36q95 -20 141.5 -51.5t46.5 -97.5zM175 700l74 -100l74 100h55l-103 -140h-51l-104 140h55z" />
    <glyph glyph-name="Tcommaaccent" unicode="&#x162;" horiz-adv-x="560" 
d="M509 614h-192v-614h-74v614h-192v66h458v-66zM277 -201h-24l15 86h-19v75h63v-75z" />
    <glyph glyph-name="tcommaaccent" unicode="&#x163;" horiz-adv-x="375" 
d="M101 147v302h-79v46l79 5l9 140h61v-140h148v-51h-148v-291q0 -58 20 -84.5t71 -26.5q26 0 55 5l7 -55q-46 -7 -84 -7q-74 0 -106.5 35.5t-32.5 121.5zM197 -201h-24l15 86h-19v75h63v-75z" />
    <glyph glyph-name="Tcaron" unicode="&#x164;" horiz-adv-x="560" 
d="M509 614h-192v-614h-74v614h-192v66h458v-66zM206 850l74 -100l74 100h55l-103 -140h-51l-104 140h55z" />
    <glyph glyph-name="tcaron" unicode="&#x165;" horiz-adv-x="375" 
d="M101 147v302h-79v46l79 5l9 140h61v-140h148v-51h-148v-291q0 -58 20 -84.5t71 -26.5q26 0 55 5l7 -55q-46 -7 -84 -7q-74 0 -106.5 35.5t-32.5 121.5zM271 539h-24l15 86h-19v75h63v-75z" />
    <glyph glyph-name="Tbar" unicode="&#x166;" horiz-adv-x="560" 
d="M154 292h89v322h-192v66h458v-66h-192v-322h89v-44h-89v-248h-74v248h-89v44z" />
    <glyph glyph-name="tbar" unicode="&#x167;" horiz-adv-x="375" 
d="M101 251h-60v44h60v154h-79v46l79 5l9 140h61v-140h148v-51h-148v-154h138v-44h-138v-93q0 -58 20 -84.5t71 -26.5q26 0 55 5l7 -55q-46 -7 -84 -7q-74 0 -106.5 35.5t-32.5 121.5v104z" />
    <glyph glyph-name="Utilde" unicode="&#x168;" horiz-adv-x="640" 
d="M323 52q45 0 78 13t51 31t28 45.5t12.5 49.5t2.5 49v440h74v-440q0 -129 -62.5 -189.5t-186.5 -60.5t-186.5 60.5t-62.5 189.5v440h74v-440q0 -36 5 -62.5t21 -58.5t54.5 -49.5t97.5 -17.5zM267 785q-20 0 -35.5 -8.5t-48.5 -42.5l-24 26q31 44 55 61t51 17
q26 0 71 -28.5t60 -28.5q35 0 65 49l20 -29q-34 -71 -85 -71q-19 0 -64.5 27.5t-64.5 27.5z" />
    <glyph glyph-name="utilde" unicode="&#x169;" horiz-adv-x="530" 
d="M399 116v384h70v-500h-70v72h-2q-87 -82 -186 -82q-150 0 -150 164v346h70v-331q0 -120 110 -120q73 0 158 67zM212 625q-20 0 -35.5 -8.5t-48.5 -42.5l-24 26q31 44 55 61t51 17q26 0 71 -28.5t60 -28.5q35 0 65 49l20 -29q-34 -71 -85 -71q-19 0 -64.5 27.5t-64.5 27.5
z" />
    <glyph glyph-name="Umacron" unicode="&#x16a;" horiz-adv-x="640" 
d="M323 52q45 0 78 13t51 31t28 45.5t12.5 49.5t2.5 49v440h74v-440q0 -129 -62.5 -189.5t-186.5 -60.5t-186.5 60.5t-62.5 189.5v440h74v-440q0 -36 5 -62.5t21 -58.5t54.5 -49.5t97.5 -17.5zM168 819h303v-48h-303v48z" />
    <glyph glyph-name="umacron" unicode="&#x16b;" horiz-adv-x="530" 
d="M399 116v384h70v-500h-70v72h-2q-87 -82 -186 -82q-150 0 -150 164v346h70v-331q0 -120 110 -120q73 0 158 67zM113 649h303v-48h-303v48z" />
    <glyph glyph-name="Ubreve" unicode="&#x16c;" horiz-adv-x="640" 
d="M323 52q45 0 78 13t51 31t28 45.5t12.5 49.5t2.5 49v440h74v-440q0 -129 -62.5 -189.5t-186.5 -60.5t-186.5 60.5t-62.5 189.5v440h74v-440q0 -36 5 -62.5t21 -58.5t54.5 -49.5t97.5 -17.5zM320 778q81 0 105 89h31q-9 -65 -45.5 -98t-90.5 -33t-90 32.5t-46 98.5h32
q9 -37 34 -63t70 -26z" />
    <glyph glyph-name="ubreve" unicode="&#x16d;" horiz-adv-x="530" 
d="M399 116v384h70v-500h-70v72h-2q-87 -82 -186 -82q-150 0 -150 164v346h70v-331q0 -120 110 -120q73 0 158 67zM265 608q81 0 105 89h31q-9 -65 -45.5 -98t-90.5 -33t-90 32.5t-46 98.5h32q9 -37 34 -63t70 -26z" />
    <glyph glyph-name="Uring" unicode="&#x16e;" horiz-adv-x="640" 
d="M323 52q45 0 78 13t51 31t28 45.5t12.5 49.5t2.5 49v440h74v-440q0 -129 -62.5 -189.5t-186.5 -60.5t-186.5 60.5t-62.5 189.5v440h74v-440q0 -36 5 -62.5t21 -58.5t54.5 -49.5t97.5 -17.5zM245 790q0 32 22 53t54 21t53.5 -21t21.5 -53t-21.5 -53t-53.5 -21t-54 21
t-22 53zM271 790q0 -22 14 -36.5t36 -14.5q21 0 35 14.5t14 36.5t-14 36.5t-35 14.5q-22 0 -36 -14.5t-14 -36.5z" />
    <glyph glyph-name="uring" unicode="&#x16f;" horiz-adv-x="530" 
d="M399 116v384h70v-500h-70v72h-2q-87 -82 -186 -82q-150 0 -150 164v346h70v-331q0 -120 110 -120q73 0 158 67zM190 620q0 32 22 53t54 21t53.5 -21t21.5 -53t-21.5 -53t-53.5 -21t-54 21t-22 53zM216 620q0 -22 14 -36.5t36 -14.5q21 0 35 14.5t14 36.5t-14 36.5
t-35 14.5q-22 0 -36 -14.5t-14 -36.5z" />
    <glyph glyph-name="Uhungarumlaut" unicode="&#x170;" horiz-adv-x="640" 
d="M323 52q45 0 78 13t51 31t28 45.5t12.5 49.5t2.5 49v440h74v-440q0 -129 -62.5 -189.5t-186.5 -60.5t-186.5 60.5t-62.5 189.5v440h74v-440q0 -36 5 -62.5t21 -58.5t54.5 -49.5t97.5 -17.5zM338 850l-70 -120h-40l63 120h47zM450 850l-70 -120h-40l62 120h48z" />
    <glyph glyph-name="uhungarumlaut" unicode="&#x171;" horiz-adv-x="530" 
d="M399 116v384h70v-500h-70v72h-2q-87 -82 -186 -82q-150 0 -150 164v346h70v-331q0 -120 110 -120q73 0 158 67zM293 680l-70 -120h-40l63 120h47zM405 680l-70 -120h-40l62 120h48z" />
    <glyph glyph-name="Uogonek" unicode="&#x172;" horiz-adv-x="640" 
d="M323 52q45 0 78 13t51 31t28 45.5t12.5 49.5t2.5 49v440h74v-440q0 -125 -58.5 -185.5t-176.5 -64.5q-27 -23 -44.5 -52t-17.5 -53q0 -26 15 -40.5t42 -14.5q29 0 61 20l5 -20q-37 -29 -88 -29q-34 0 -58.5 18t-24.5 51q0 63 73 121q-114 5 -170 66t-56 183v440h74v-440
q0 -36 5 -62.5t21 -58.5t54.5 -49.5t97.5 -17.5z" />
    <glyph glyph-name="uogonek" unicode="&#x173;" horiz-adv-x="530" 
d="M494 -150l5 -20q-37 -29 -88 -29q-33 0 -58 17.5t-25 52.5q0 69 86 129h-15v72h-2q-87 -82 -186 -82q-150 0 -150 164v346h70v-331q0 -120 110 -120q73 0 158 67v384h70v-500q-41 -16 -67 -49.5t-26 -65.5q0 -26 15 -40.5t42 -14.5q28 0 61 20z" />
    <glyph glyph-name="Wcircumflex" unicode="&#x174;" horiz-adv-x="940" 
d="M471 562h-2l-149 -567h-96l-183 685h82l152 -588h1l152 588h88l153 -588h1l151 588h78l-183 -685h-96zM470 810l-74 -100h-55l104 140h51l103 -140h-55z" />
    <glyph glyph-name="wcircumflex" unicode="&#x175;" horiz-adv-x="790" 
d="M396 392h-2l-113 -397h-78l-156 505h78l123 -425h2l113 425h68l118 -425h2l118 425h73l-152 -505h-78zM395 660l-74 -100h-55l104 140h51l103 -140h-55z" />
    <glyph glyph-name="Ycircumflex" unicode="&#x176;" horiz-adv-x="620" 
d="M311 317h2l185 363h81l-232 -440v-240h-74v240l-232 440h85zM310 810l-74 -100h-55l104 140h51l103 -140h-55z" />
    <glyph glyph-name="ycircumflex" unicode="&#x177;" horiz-adv-x="560" 
d="M247 -11l-200 511h79l161 -431h2l148 431h75l-193 -536q-33 -93 -78 -133.5t-114 -40.5q-34 0 -67 7l7 59q21 -5 45 -5q27 0 49.5 12.5t38.5 35t26 42.5t21 48zM280 660l-74 -100h-55l104 140h51l103 -140h-55z" />
    <glyph glyph-name="Ydieresis" unicode="&#x178;" horiz-adv-x="620" 
d="M311 317h2l185 363h81l-232 -440v-240h-74v240l-232 440h85zM180 847h58v-115h-58v115zM382 847h59v-115h-59v115z" />
    <glyph glyph-name="Zacute" unicode="&#x179;" horiz-adv-x="560" 
d="M148 68v-2h367v-66h-470v55l360 557v2h-340v66h440v-55zM390 850l-81 -140h-55l62 140h74z" />
    <glyph glyph-name="zacute" unicode="&#x17a;" horiz-adv-x="470" 
d="M429 500v-51l-305 -392v-2h314v-55h-406v51l307 392v2h-292v55h382zM341 700l-81 -140h-55l62 140h74z" />
    <glyph glyph-name="Zdotaccent" unicode="&#x17b;" horiz-adv-x="560" 
d="M148 68v-2h367v-66h-470v55l360 557v2h-340v66h440v-55zM248 850h63v-108h-63v108z" />
    <glyph glyph-name="zdotaccent" unicode="&#x17c;" horiz-adv-x="470" 
d="M429 500v-51l-305 -392v-2h314v-55h-406v51l307 392v2h-292v55h382zM203 680h63v-108h-63v108z" />
    <glyph glyph-name="Zcaron" unicode="&#x17d;" horiz-adv-x="560" 
d="M148 68v-2h367v-66h-470v55l360 557v2h-340v66h440v-55zM206 850l74 -100l74 100h55l-103 -140h-51l-104 140h55z" />
    <glyph glyph-name="zcaron" unicode="&#x17e;" horiz-adv-x="470" 
d="M429 500v-51l-305 -392v-2h314v-55h-406v51l307 392v2h-292v55h382zM161 700l74 -100l74 100h55l-103 -140h-51l-104 140h55z" />
    <glyph glyph-name="longs" unicode="&#x17f;" horiz-adv-x="345" 
d="M101 -71v614q0 86 32.5 121.5t106.5 35.5q32 0 76 -7l-7 -55q-29 5 -54 5q-49 0 -66.5 -26.5t-17.5 -84.5v-610q0 -70 -30.5 -101t-108.5 -31q-31 0 -76 7l7 55q29 -5 54 -5q49 0 66.5 18.5t17.5 63.5z" />
    <glyph glyph-name="florin" unicode="&#x192;" horiz-adv-x="345" 
d="M101 -42v491h-79v46l79 5v43q0 86 32.5 121.5t106.5 35.5q32 0 76 -7l-7 -55q-29 5 -54 5q-49 0 -66.5 -26.5t-17.5 -84.5v-32h140v-51h-140v-492q0 -89 -31.5 -128t-107.5 -39q-31 0 -76 7l7 55q29 -5 54 -5q49 0 66.5 26.5t17.5 84.5z" />
    <glyph glyph-name="AEacute" unicode="&#x1fc;" horiz-adv-x="926" 
d="M437 269h-177l-144 -269h-75l358 680h461v-66h-349v-228h304v-66h-304v-254h354v-66h-428v269zM435 613l-149 -285h151v285h-2zM585 850l-81 -140h-55l62 140h74z" />
    <glyph glyph-name="aeacute" unicode="&#x1fd;" horiz-adv-x="852" 
d="M800 241h-351q3 -192 179 -192q91 0 156 20l10 -57q-79 -22 -175 -22q-148 0 -207 94q-84 -94 -203 -94q-73 0 -118 37.5t-45 106.5q0 151 210 151h118v57q0 57 -29 83t-95 26q-70 0 -160 -18l-11 57q100 20 186 20q69 0 105.5 -25.5t51.5 -88.5q48 114 190 114
q48 0 84.5 -12.5t57.5 -31t34 -45t17 -50.5t4 -52q0 -35 -9 -78zM235 45q93 0 159 66q-20 46 -20 130h-114q-78 0 -111 -26t-33 -75q0 -43 31.5 -69t87.5 -26zM609 455q-147 0 -160 -168h283q6 22 6 45q0 52 -29.5 87.5t-99.5 35.5zM543 700l-81 -140h-55l62 140h74z" />
    <glyph glyph-name="Oslashacute" unicode="&#x1fe;" horiz-adv-x="690" 
d="M438 850l-81 -140h-55l62 140h74zM345 -10q-133 0 -203 76l-75 -95l-25 20l79 98q-60 85 -60 256q0 76 12.5 134.5t43 108t88 76t140.5 26.5q129 0 197 -70l81 101l24 -19l-82 -103q64 -85 64 -254q0 -78 -12.5 -137.5t-43 -111t-88 -79t-140.5 -27.5zM345 52
q51 0 89 16.5t60 43t35 66t17.5 78.5t4.5 89q0 127 -37 190l-327 -412q50 -71 158 -71zM345 627q-64 0 -106.5 -22t-63.5 -64t-28.5 -87.5t-7.5 -108.5q0 -127 34 -190l326 410q-51 62 -154 62z" />
    <glyph glyph-name="oslashacute" unicode="&#x1ff;" horiz-adv-x="550" 
d="M372 700l-81 -140h-55l62 140h74zM275 -10q-98 0 -154 56l-64 -75l-25 20l66 76q-47 66 -47 183q0 260 224 260q99 0 153 -56l65 75l24 -19l-66 -77q48 -67 48 -183q0 -260 -224 -260zM275 49q150 0 150 201q0 76 -26 121l-235 -275q39 -47 111 -47zM275 451
q-150 0 -150 -201q0 -77 25 -121l235 274q-38 48 -110 48z" />
    <glyph glyph-name="Scommaaccent" unicode="&#x218;" 
d="M300 -10q-124 0 -239 34l13 62q122 -30 226 -30q80 0 120.5 36.5t40.5 86.5q0 77 -107 115q-18 6 -69 20q-93 23 -153.5 72.5t-60.5 128.5q0 90 63 132.5t166 42.5q110 0 225 -34l-17 -62q-122 30 -208 30q-80 0 -115.5 -31t-35.5 -80q0 -31 17.5 -55.5t49.5 -40.5
t57.5 -24.5t60.5 -16.5q205 -46 205 -191q0 -94 -66 -144.5t-173 -50.5zM298 -201h-24l15 86h-19v75h63v-75z" />
    <glyph glyph-name="scommaaccent" unicode="&#x219;" horiz-adv-x="480" 
d="M434 138q0 -71 -46 -109.5t-133 -38.5q-121 0 -209 22l13 57q87 -22 188 -22q30 0 53 7.5t34.5 17.5t19 23t9 22t1.5 17q0 31 -26.5 52t-99.5 36q-88 16 -135 49.5t-47 103.5q0 66 46 100.5t133 34.5q107 0 195 -22l-13 -57q-87 22 -178 22q-37 0 -61.5 -9t-34.5 -23
t-13.5 -24.5t-3.5 -19.5q0 -32 24.5 -54t95.5 -36q95 -20 141.5 -51.5t46.5 -97.5zM238 -201h-24l15 86h-19v75h63v-75z" />
    <glyph glyph-name="uni021A" unicode="&#x21a;" horiz-adv-x="560" 
d="M509 614h-192v-614h-74v614h-192v66h458v-66zM277 -201h-24l15 86h-19v75h63v-75z" />
    <glyph glyph-name="uni021B" unicode="&#x21b;" horiz-adv-x="375" 
d="M101 147v302h-79v46l79 5l9 140h61v-140h148v-51h-148v-291q0 -58 20 -84.5t71 -26.5q26 0 55 5l7 -55q-46 -7 -84 -7q-74 0 -106.5 35.5t-32.5 121.5zM208 -203h-24l15 86h-19v75h63v-75z" />
    <glyph glyph-name="dotlessj" unicode="&#x237;" horiz-adv-x="232" 
d="M171 500v-578q0 -71 -31.5 -101.5t-107.5 -30.5q-31 0 -76 7l7 55q29 -5 54 -5q48 0 66 17.5t18 64.5v571h70z" />
    <glyph glyph-name="circumflex" unicode="&#x2c6;" horiz-adv-x="382" 
d="M191 660l-74 -100h-55l104 140h51l103 -140h-55z" />
    <glyph glyph-name="caron" unicode="&#x2c7;" horiz-adv-x="382" 
d="M117 700l74 -100l74 100h55l-103 -140h-51l-104 140h55z" />
    <glyph glyph-name="uni02C9" unicode="&#x2c9;" horiz-adv-x="427" 
d="M62 649h303v-48h-303v48z" />
    <glyph glyph-name="breve" unicode="&#x2d8;" horiz-adv-x="397" 
d="M198 608q81 0 105 89h31q-9 -65 -45.5 -98t-90.5 -33t-90 32.5t-46 98.5h32q9 -37 34 -63t70 -26z" />
    <glyph glyph-name="dotaccent" unicode="&#x2d9;" horiz-adv-x="187" 
d="M62 680h63v-108h-63v108z" />
    <glyph glyph-name="ring" unicode="&#x2da;" horiz-adv-x="275" 
d="M62 620q0 32 22 53t54 21t53.5 -21t21.5 -53t-21.5 -53t-53.5 -21t-54 21t-22 53zM88 620q0 -22 14 -36.5t36 -14.5q21 0 35 14.5t14 36.5t-14 36.5t-35 14.5q-22 0 -36 -14.5t-14 -36.5z" />
    <glyph glyph-name="ogonek" unicode="&#x2db;" horiz-adv-x="296" 
d="M229 -150l4 -20q-37 -29 -87 -29q-35 0 -59.5 18.5t-24.5 51.5q0 66 86 129h37q-32 -24 -53 -56t-21 -59q0 -26 15 -40.5t42 -14.5q26 0 61 20z" />
    <glyph glyph-name="tilde" unicode="&#x2dc;" horiz-adv-x="447" 
d="M170 625q-20 0 -35.5 -8.5t-48.5 -42.5l-24 26q31 44 55 61t51 17q26 0 71 -28.5t60 -28.5q35 0 65 49l20 -29q-34 -71 -85 -71q-19 0 -64.5 27.5t-64.5 27.5z" />
    <glyph glyph-name="hungarumlaut" unicode="&#x2dd;" horiz-adv-x="346" 
d="M172 680l-70 -120h-40l63 120h47zM284 680l-70 -120h-40l62 120h48z" />
    <glyph glyph-name="uni037E" unicode="&#x37e;" horiz-adv-x="232" 
d="M81 311h70v-122h-70v122z" />
    <glyph glyph-name="tonos" unicode="&#x384;" horiz-adv-x="246" 
d="M184 680l-82 -120h-40l63 120h59z" />
    <glyph glyph-name="dieresistonos" unicode="&#x385;" horiz-adv-x="480" 
d="M62 680h59v-108h-59v108zM359 680h58v-108h-58v108zM309 700l-82 -128h-40l63 128h59z" />
    <glyph glyph-name="anoteleia" unicode="&#x387;" horiz-adv-x="439" 
d="M62 680h59v-108h-59v108zM317 680h59v-108h-59v108z" />
    <glyph glyph-name="uni03BC" unicode="&#x3bc;" horiz-adv-x="530" 
d="M131 500v-339q3 -112 110 -112q73 0 158 67v384h70v-500h-70v72h-2q-79 -72 -159 -77q-81 -3 -107 50v-88q0 -91 -34.5 -129t-107.5 -38q-28 0 -73 7l7 55q29 -5 54 -5q50 0 67 27t17 84v542h70z" />
    <glyph glyph-name="pi" unicode="&#x3c0;" horiz-adv-x="530" 
d="M131 0h-70v500h408v-500h-70v437h-268v-437z" />
    <glyph glyph-name="uni03C2" unicode="&#x3c2;" horiz-adv-x="513" 
d="M100 249q0 68 48 114l-78 90l8 8l79 -90q44 36 100 36q55 0 99 -36l78 90l9 -8l-78 -89q50 -47 50 -115t-49 -114l76 -86l-9 -9l-77 87q-43 -35 -99 -35q-57 0 -100 35l-76 -87l-9 9l76 86q-48 46 -48 114zM112 249q0 -59 43 -102t102 -43t102.5 43t43.5 102t-43.5 102.5
t-102.5 43.5t-102 -43.5t-43 -102.5z" />
    <glyph glyph-name="sigma" unicode="&#x3c3;" horiz-adv-x="513" 
d="M100 249q0 68 48 114l-78 90l8 8l79 -90q44 36 100 36q55 0 99 -36l78 90l9 -8l-78 -89q50 -47 50 -115t-49 -114l76 -86l-9 -9l-77 87q-43 -35 -99 -35q-57 0 -100 35l-76 -87l-9 9l76 86q-48 46 -48 114zM112 249q0 -59 43 -102t102 -43t102.5 43t43.5 102t-43.5 102.5
t-102.5 43.5t-102 -43.5t-43 -102.5z" />
    <glyph glyph-name="Wgrave" unicode="&#x1e80;" horiz-adv-x="940" 
d="M471 562h-2l-149 -567h-96l-183 685h82l152 -588h1l152 588h88l153 -588h1l151 588h78l-183 -685h-96zM447 710l-81 140h74l62 -140h-55z" />
    <glyph glyph-name="wgrave" unicode="&#x1e81;" horiz-adv-x="790" 
d="M396 392h-2l-113 -397h-78l-156 505h78l123 -425h2l113 425h68l118 -425h2l118 425h73l-152 -505h-78zM366 560l-81 140h74l62 -140h-55z" />
    <glyph glyph-name="Wacute" unicode="&#x1e82;" horiz-adv-x="940" 
d="M471 562h-2l-149 -567h-96l-183 685h82l152 -588h1l152 588h88l153 -588h1l151 588h78l-183 -685h-96zM582 850l-81 -140h-55l62 140h74z" />
    <glyph glyph-name="wacute" unicode="&#x1e83;" horiz-adv-x="790" 
d="M396 392h-2l-113 -397h-78l-156 505h78l123 -425h2l113 425h68l118 -425h2l118 425h73l-152 -505h-78zM507 698l-81 -140h-55l62 140h74z" />
    <glyph glyph-name="Wdieresis" unicode="&#x1e84;" horiz-adv-x="940" 
d="M471 562h-2l-149 -567h-96l-183 685h82l152 -588h1l152 588h88l153 -588h1l151 588h78l-183 -685h-96zM340 847h58v-115h-58v115zM542 847h59v-115h-59v115z" />
    <glyph glyph-name="wdieresis" unicode="&#x1e85;" horiz-adv-x="790" 
d="M396 392h-2l-113 -397h-78l-156 505h78l123 -425h2l113 425h68l118 -425h2l118 425h73l-152 -505h-78zM265 687h58v-115h-58v115zM467 687h59v-115h-59v115z" />
    <glyph glyph-name="Ygrave" unicode="&#x1ef2;" horiz-adv-x="620" 
d="M311 317h2l185 363h81l-232 -440v-240h-74v240l-232 440h85zM284 710l-81 140h74l62 -140h-55z" />
    <glyph glyph-name="ygrave" unicode="&#x1ef3;" horiz-adv-x="560" 
d="M247 -11l-200 511h79l161 -431h2l148 431h75l-193 -536q-33 -93 -78 -133.5t-114 -40.5q-34 0 -67 7l7 59q21 -5 45 -5q27 0 49.5 12.5t38.5 35t26 42.5t21 48zM251 560l-81 140h74l62 -140h-55z" />
    <glyph glyph-name="figuredash" unicode="&#x2012;" horiz-adv-x="694" 
d="M61 294h571v-58h-571v58z" />
    <glyph glyph-name="endash" unicode="&#x2013;" horiz-adv-x="694" 
d="M61 294h571v-58h-571v58z" />
    <glyph glyph-name="emdash" unicode="&#x2014;" horiz-adv-x="760" 
d="M61 294h638v-58h-638v58z" />
    <glyph glyph-name="quoteleft" unicode="&#x2018;" horiz-adv-x="192" 
d="M97 680h25l-17 -130h26v-123h-70v123z" />
    <glyph glyph-name="quoteright" unicode="&#x2019;" horiz-adv-x="192" 
d="M95 427h-25l17 130h-26v123h70v-123z" />
    <glyph glyph-name="quotesinglbase" unicode="&#x201a;" horiz-adv-x="192" 
d="M95 -153h-25l17 130h-26v123h70v-123z" />
    <glyph glyph-name="quotedblleft" unicode="&#x201c;" horiz-adv-x="412" 
d="M317 680h25l-17 -130h26v-123h-70v123q3 12 36 130zM97 680h25l-17 -130h26v-123h-70v123z" />
    <glyph glyph-name="quotedblright" unicode="&#x201d;" horiz-adv-x="412" 
d="M95 427h-25l17 130h-26v123h70v-123zM315 427h-25l17 130h-26v123h70v-123z" />
    <glyph glyph-name="quotedblbase" unicode="&#x201e;" horiz-adv-x="412" 
d="M95 -153h-25l17 130h-26v123h70v-123zM315 -153h-25l17 130h-26v123h70v-123z" />
    <glyph glyph-name="dagger" unicode="&#x2020;" horiz-adv-x="580" 
d="M519 434l-196 3l4 -437h-74l4 437l-196 -3v66l196 -4l-4 204h74l-4 -204l196 4v-66z" />
    <glyph glyph-name="daggerdbl" unicode="&#x2021;" horiz-adv-x="580" 
d="M257 262v175l-196 -3v66l196 -4l-4 204h74l-4 -204l196 4v-66l-196 3v-175l196 4v-66l-196 4l4 -204h-74l4 204l-196 -4v66z" />
    <glyph glyph-name="bullet" unicode="&#x2022;" horiz-adv-x="232" 
d="M81 311h70v-122h-70v122z" />
    <glyph glyph-name="onedotenleader" unicode="&#x2024;" horiz-adv-x="192" 
d="M61 122h70v-122h-70v122z" />
    <glyph glyph-name="twodotenleader" unicode="&#x2025;" horiz-adv-x="330" 
d="M61 122h70v-122h-70v122zM199 122h70v-122h-70v122z" />
    <glyph glyph-name="ellipsis" unicode="&#x2026;" horiz-adv-x="592" 
d="M61 122h70v-122h-70v122zM461 122h70v-122h-70v122zM261 122h70v-122h-70v122z" />
    <glyph glyph-name="perthousand" unicode="&#x2030;" horiz-adv-x="1075" 
d="M589 680l-370 -680h-48l370 680h48zM181 412q-64 0 -98 36t-34 100t34 100t98 36t98.5 -36t34.5 -100t-34.5 -100t-98.5 -36zM181 450q87 0 87 98t-87 98t-87 -98t87 -98zM579 -4q-64 0 -98.5 36t-34.5 100t34.5 100t98.5 36t98 -36t34 -100t-34 -100t-98 -36zM579 34
q87 0 87 98t-87 98t-87 -98t87 -98zM894 -4q-64 0 -98.5 36t-34.5 100t34.5 100t98.5 36t98 -36t34 -100t-34 -100t-98 -36zM894 34q87 0 87 98t-87 98t-87 -98t87 -98z" />
    <glyph glyph-name="guilsinglleft" unicode="&#x2039;" horiz-adv-x="380" 
d="M61 272l258 167v-64l-184 -125l184 -125v-64l-258 167v44z" />
    <glyph glyph-name="guilsinglright" unicode="&#x203a;" horiz-adv-x="380" 
d="M319 228l-258 -167v64l184 125l-184 125v64l258 -167v-44z" />
    <glyph glyph-name="exclamdbl" unicode="&#x203c;" horiz-adv-x="330" 
d="M61 122h70v-122h-70v122zM61 680h70l-4 -466h-62zM199 122h70v-122h-70v122zM199 680h70l-4 -466h-63z" />
    <glyph glyph-name="fraction" unicode="&#x2044;" horiz-adv-x="540" 
d="M486 680l-370 -680h-62l370 680h62z" />
    <glyph glyph-name="zerosuperior" unicode="&#x2070;" horiz-adv-x="333" 
d="M167 839q-78 0 -78 -141q0 -147 78 -147t78 147q0 141 -78 141zM167 520q-118 0 -118 178q0 172 118 172q117 0 117 -172q0 -178 -117 -178z" />
    <glyph glyph-name="foursuperior" unicode="&#x2074;" horiz-adv-x="343" 
d="M88 652h120v169q-43 -82 -120 -169zM198 870h48v-218h48v-31h-48v-91h-38v91h-159v31q100 109 149 218z" />
    <glyph glyph-name="fivesuperior" unicode="&#x2075;" horiz-adv-x="323" 
d="M156 520q-51 0 -107 29l11 29q53 -26 93 -27q36 0 59 22t23 59q0 31 -17 53.5t-55 22.5q-43 0 -70 -36l-27 2l8 191h180v-33h-148l-7 -126l1 -1q29 36 75 36t72.5 -28t26.5 -79q0 -52 -32.5 -83t-85.5 -31z" />
    <glyph glyph-name="sixsuperior" unicode="&#x2076;" horiz-adv-x="323" 
d="M86 705h1q34 47 84 47q48 0 75.5 -30.5t27.5 -86.5q0 -53 -30.5 -84t-78.5 -31q-116 0 -116 155q0 195 139 195q38 0 75 -14l-5 -30q-36 13 -67 13q-37 0 -61.5 -24t-33.5 -52t-10 -58zM89 675q-6 -124 74 -124q30 0 50.5 22.5t20.5 61.5q0 85 -73 85q-41 0 -72 -45z" />
    <glyph glyph-name="sevensuperior" unicode="&#x2077;" horiz-adv-x="318" 
d="M228 836v1h-179v33h220v-28q-109 -179 -130 -312h-40q11 68 48.5 154.5t80.5 151.5z" />
    <glyph glyph-name="eightsuperior" unicode="&#x2078;" horiz-adv-x="333" 
d="M201 705q41 -19 62 -40t21 -53q0 -43 -32 -67.5t-86 -24.5t-85.5 23.5t-31.5 65.5q0 59 83 90q-36 15 -54.5 34.5t-18.5 50.5q0 40 30.5 63t77.5 23t77 -22.5t30 -61.5q0 -30 -18.5 -48t-54.5 -33zM87 612q0 -28 20.5 -45.5t60.5 -17.5q78 0 78 61q0 28 -21.5 43.5
t-63.5 30.5q-74 -25 -74 -72zM166 842q-26 0 -48 -13t-22 -44q0 -45 75 -67q66 24 66 65q0 31 -22 45t-49 14z" />
    <glyph glyph-name="ninesuperior" unicode="&#x2079;" horiz-adv-x="323" 
d="M237 685h-1q-34 -47 -84 -47q-48 0 -75.5 30.5t-27.5 86.5q0 53 30.5 84t78.5 31q116 0 116 -155q0 -195 -139 -195q-38 0 -75 14l5 30q36 -13 67 -13q37 0 61.5 24t33.5 52t10 58zM234 715q6 124 -74 124q-30 0 -50.5 -22.5t-20.5 -61.5q0 -85 73 -85q41 0 72 45z" />
    <glyph glyph-name="parenleftsuperior" unicode="&#x207d;" horiz-adv-x="209" 
d="M49 690q0 130 85 240h26q-74 -120 -74 -240q0 -117 74 -240h-26q-85 110 -85 240z" />
    <glyph glyph-name="parenrightsuperior" unicode="&#x207e;" horiz-adv-x="209" 
d="M160 690q0 -128 -85 -240h-26q73 122 73 240q0 121 -73 240h26q85 -112 85 -240z" />
    <glyph glyph-name="nsuperior" unicode="&#x207f;" horiz-adv-x="301" 
d="M84 622v-192h-35v250h35v-36h1q43 41 92 41q75 0 75 -82v-173h-35v166q0 60 -55 60q-36 0 -78 -34z" />
    <glyph glyph-name="zeroinferior" unicode="&#x2080;" horiz-adv-x="333" 
d="M167 109q-78 0 -78 -141q0 -147 78 -147t78 147q0 141 -78 141zM167 -210q-118 0 -118 178q0 172 118 172q117 0 117 -172q0 -178 -117 -178z" />
    <glyph glyph-name="oneinferior" unicode="&#x2081;" horiz-adv-x="303" 
d="M44 -169h103v268l-88 -47l-10 29q72 33 109 62h26v-312h103v-31h-243v31z" />
    <glyph glyph-name="twoinferior" unicode="&#x2082;" horiz-adv-x="313" 
d="M146 110q-39 0 -86 -23l-11 29q53 29 107 29q51 0 77 -28.5t26 -72.5q0 -98 -157 -209v-1h162v-34h-215v37q171 114 171 199q0 24 -8 40t-21 22.5t-23.5 9t-21.5 2.5z" />
    <glyph glyph-name="threeinferior" unicode="&#x2083;" horiz-adv-x="323" 
d="M198 -31q36 -7 56 -30t20 -55q0 -45 -30 -69.5t-87 -24.5q-65 0 -108 27l12 30q49 -26 96 -26q43 0 60.5 18.5t17.5 41.5q0 68 -86 68h-41v32h39q39 0 59.5 19.5t20.5 46.5q0 24 -15.5 43t-53.5 19q-35 0 -89 -26l-11 29q47 28 104 28q47 0 74.5 -23.5t27.5 -65.5
q0 -30 -18.5 -51t-47.5 -31z" />
    <glyph glyph-name="fourinferior" unicode="&#x2084;" horiz-adv-x="343" 
d="M88 -78h120v169q-43 -82 -120 -169zM198 140h48v-218h48v-31h-48v-91h-38v91h-159v31q100 109 149 218z" />
    <glyph glyph-name="fiveinferior" unicode="&#x2085;" horiz-adv-x="323" 
d="M156 -210q-51 0 -107 29l11 29q53 -26 93 -27q36 0 59 22t23 59q0 31 -17 53.5t-55 22.5q-43 0 -70 -36l-27 2l8 191h180v-33h-148l-7 -126l1 -1q29 36 75 36t72.5 -28t26.5 -79q0 -52 -32.5 -83t-85.5 -31z" />
    <glyph glyph-name="sixinferior" unicode="&#x2086;" horiz-adv-x="323" 
d="M86 -25h1q34 47 84 47q48 0 75.5 -30.5t27.5 -86.5q0 -53 -30.5 -84t-78.5 -31q-116 0 -116 155q0 195 139 195q38 0 75 -14l-5 -30q-36 13 -67 13q-37 0 -61.5 -24t-33.5 -52t-10 -58zM89 -55q-6 -124 74 -124q30 0 50.5 22.5t20.5 61.5q0 85 -73 85q-41 0 -72 -45z" />
    <glyph glyph-name="seveninferior" unicode="&#x2087;" horiz-adv-x="318" 
d="M228 106v1h-179v33h220v-28q-109 -179 -130 -312h-40q11 68 48.5 154.5t80.5 151.5z" />
    <glyph glyph-name="eightinferior" unicode="&#x2088;" horiz-adv-x="333" 
d="M201 -25q41 -19 62 -40t21 -53q0 -43 -32 -67.5t-86 -24.5t-85.5 23.5t-31.5 65.5q0 59 83 90q-36 15 -54.5 34.5t-18.5 50.5q0 40 30.5 63t77.5 23t77 -22.5t30 -61.5q0 -30 -18.5 -48t-54.5 -33zM87 -118q0 -28 20.5 -45.5t60.5 -17.5q78 0 78 61q0 28 -21.5 43.5
t-63.5 30.5q-74 -25 -74 -72zM166 112q-26 0 -48 -13t-22 -44q0 -45 75 -67q66 24 66 65q0 31 -22 45t-49 14z" />
    <glyph glyph-name="nineinferior" unicode="&#x2089;" horiz-adv-x="323" 
d="M237 -45h-1q-34 -47 -84 -47q-48 0 -75.5 30.5t-27.5 86.5q0 53 30.5 84t78.5 31q116 0 116 -155q0 -195 -139 -195q-38 0 -75 14l5 30q36 -13 67 -13q37 0 61.5 24t33.5 52t10 58zM234 -15q6 124 -74 124q-30 0 -50.5 -22.5t-20.5 -61.5q0 -85 73 -85q41 0 72 45z" />
    <glyph glyph-name="parenleftinferior" unicode="&#x208d;" horiz-adv-x="209" 
d="M49 -40q0 130 85 240h26q-74 -120 -74 -240q0 -117 74 -240h-26q-85 110 -85 240z" />
    <glyph glyph-name="parenrightinferior" unicode="&#x208e;" horiz-adv-x="209" 
d="M160 -40q0 -128 -85 -240h-26q73 122 73 240q0 121 -73 240h26q85 -112 85 -240z" />
    <glyph glyph-name="colonmonetary" unicode="&#x20a1;" horiz-adv-x="630" 
d="M426 -100h-32v91q-7 0 -23.5 -0.5t-25.5 -0.5q-37 0 -69 6v-96h-32v103q-54 16 -91.5 49t-56.5 80.5t-27 98t-8 114.5q0 130 40 215.5t143 116.5v103h32v-96q31 6 69 6q9 0 25.5 -0.5t23.5 -0.5v91h32v-94q76 -7 149 -30l-17 -62q-126 30 -206 30q-50 0 -88 -14.5
t-61.5 -39t-38 -61t-20 -76t-5.5 -88.5q0 -64 9 -112t31 -90t65.5 -64.5t107.5 -22.5q84 0 206 30l17 -62q-70 -21 -149 -30v-94z" />
    <glyph glyph-name="franc" unicode="&#x20a3;" horiz-adv-x="700" 
d="M214 432h206l-7 -44h-209q-2 -14 -2 -43q0 -27 3 -53h215l-7 -44h-198q39 -192 205 -192q105 0 199 76l26 -57q-29 -22 -50.5 -36.5t-74 -31.5t-111.5 -17q-119 0 -187.5 70.5t-88.5 187.5h-78v44h72q-2 34 -2 53q0 7 0.5 21.5t0.5 21.5h-71v44h77q18 117 87 187.5
t190 70.5q59 0 111.5 -17t74 -31.5t50.5 -36.5l-26 -57q-94 76 -199 76q-171 0 -206 -192z" />
    <glyph glyph-name="lira" unicode="&#x20a4;" horiz-adv-x="700" 
d="M214 432h206l-7 -44h-209q-2 -14 -2 -43q0 -27 3 -53h215l-7 -44h-198q39 -192 205 -192q105 0 199 76l26 -57q-29 -22 -50.5 -36.5t-74 -31.5t-111.5 -17q-119 0 -187.5 70.5t-88.5 187.5h-78v44h72q-2 34 -2 53q0 7 0.5 21.5t0.5 21.5h-71v44h77q18 117 87 187.5
t190 70.5q59 0 111.5 -17t74 -31.5t50.5 -36.5l-26 -57q-94 76 -199 76q-171 0 -206 -192z" />
    <glyph glyph-name="peseta" unicode="&#x20a7;" horiz-adv-x="700" 
d="M214 432h206l-7 -44h-209q-2 -14 -2 -43q0 -27 3 -53h215l-7 -44h-198q39 -192 205 -192q105 0 199 76l26 -57q-29 -22 -50.5 -36.5t-74 -31.5t-111.5 -17q-119 0 -187.5 70.5t-88.5 187.5h-78v44h72q-2 34 -2 53q0 7 0.5 21.5t0.5 21.5h-71v44h77q18 117 87 187.5
t190 70.5q59 0 111.5 -17t74 -31.5t50.5 -36.5l-26 -57q-94 76 -199 76q-171 0 -206 -192z" />
    <glyph glyph-name="Euro" unicode="&#x20ac;" horiz-adv-x="700" 
d="M214 432h206l-7 -44h-209q-2 -14 -2 -43q0 -27 3 -53h215l-7 -44h-198q39 -192 205 -192q105 0 199 76l26 -57q-29 -22 -50.5 -36.5t-74 -31.5t-111.5 -17q-119 0 -187.5 70.5t-88.5 187.5h-78v44h72q-2 34 -2 53q0 7 0.5 21.5t0.5 21.5h-71v44h77q18 117 87 187.5
t190 70.5q59 0 111.5 -17t74 -31.5t50.5 -36.5l-26 -57q-94 76 -199 76q-171 0 -206 -192z" />
    <glyph glyph-name="litre" unicode="&#x2113;" horiz-adv-x="449" 
d="M42 156l-12 11l94 99v243q0 102 40 151q42 50 100 50q44 0 70 -27t26 -72q0 -51 -31 -112q-31 -63 -129 -176v-168q0 -75 23 -106q22 -29 60 -29q35 0 64 29q32 29 54 103h18q-21 -83 -68 -127q-37 -35 -89 -35q-43 0 -77.5 24.5t-49.5 65.5q-11 33 -11 107v52zM200 543
v-193q134 155 134 242q0 41 -19 65t-48 24t-48 -28t-19 -110z" />
    <glyph glyph-name="afii61352" unicode="&#x2116;" horiz-adv-x="1075" 
d="M837 350q-81 0 -124 45t-43 125t43 125t124 45t124 -45t43 -125t-43 -125t-124 -45zM670 320h334v-44h-334v44zM837 391q57 0 87 34t30 95t-30 95t-87 34t-87 -34t-30 -95t30 -95t87 -34zM143 0h-72v680h74l360 -543h2v543h72v-680h-74l-360 536h-2v-536z" />
    <glyph glyph-name="trademark" unicode="&#x2122;" horiz-adv-x="787" 
d="M452 680l116 -272h2l115 272h60v-344h-44v265h-2l-115 -265h-35l-113 265h-1v-265h-42v344h59zM301 640h-107v-304h-44v304h-108v40h259v-40z" />
    <glyph glyph-name="Omega" unicode="&#x2126;" horiz-adv-x="670" 
d="M335 690q143 0 213.5 -83.5t70.5 -216.5q0 -98 -50.5 -171.5t-142.5 -87.5v-80h193v-51h-245v163q84 6 125.5 68.5t41.5 158.5q0 49 -10.5 90t-33.5 75t-64 53t-98 19t-98 -19t-64 -53t-33.5 -75t-10.5 -90q0 -96 41.5 -158.5t125.5 -68.5v-163h-245v51h193v80
q-92 14 -142.5 87.5t-50.5 171.5q0 133 70.5 216.5t213.5 83.5z" />
    <glyph glyph-name="estimated" unicode="&#x212e;" horiz-adv-x="736" 
d="M706 349h-528v-235q81 -78 190 -78q163 0 252 157l46 -26q-67 -96 -133 -136.5t-165 -40.5q-150 0 -244 102t-94 257q0 157 94.5 259t243.5 102q141 0 236.5 -94.5t101.5 -266.5zM178 397h380v189q-82 77 -191 77q-110 0 -189 -77v-189z" />
    <glyph glyph-name="onethird" unicode="&#x2153;" horiz-adv-x="800" 
d="M608 680l-370 -680h-25l370 680h25zM45 361h102v268l-87 -47l-11 29q72 32 110 62h26v-312h102v-31h-242v31zM678 169q36 -8 56.5 -30.5t20.5 -54.5q0 -45 -30 -69.5t-87 -24.5q-65 0 -109 27l12 30q49 -26 96 -26q44 0 61.5 18.5t17.5 41.5q0 68 -86 68h-41v32h39
q39 0 59 19.5t20 46.5q0 24 -15 43t-53 19q-37 0 -89 -26l-12 29q47 28 104 28q48 0 75.5 -23.5t27.5 -65.5q0 -60 -67 -82z" />
    <glyph glyph-name="twothirds" unicode="&#x2154;" horiz-adv-x="800" 
d="M608 680l-370 -680h-25l370 680h25zM678 169q36 -8 56.5 -30.5t20.5 -54.5q0 -45 -30 -69.5t-87 -24.5q-65 0 -109 27l12 30q49 -26 96 -26q44 0 61.5 18.5t17.5 41.5q0 68 -86 68h-41v32h39q39 0 59 19.5t20 46.5q0 24 -15 43t-53 19q-37 0 -89 -26l-12 29q47 28 104 28
q48 0 75.5 -23.5t27.5 -65.5q0 -60 -67 -82zM142 640q-37 0 -86 -23l-11 29q53 29 107 29q51 0 77.5 -28.5t26.5 -72.5q0 -99 -158 -209v-1h163v-34h-216v37q171 114 171 199q0 24 -8 40t-21 22.5t-23.5 9t-21.5 2.5z" />
    <glyph glyph-name="oneeighth" unicode="&#x215b;" horiz-adv-x="800" 
d="M608 680l-370 -680h-25l370 680h25zM45 361h102v268l-87 -47l-11 29q72 32 110 62h26v-312h102v-31h-242v31zM672 175q41 -19 62 -40t21 -53q0 -43 -32 -67.5t-87 -24.5q-54 0 -85.5 23.5t-31.5 65.5q0 59 83 90q-73 31 -73 85q0 40 30.5 63t78.5 23q46 0 76.5 -22.5
t30.5 -61.5q0 -29 -18.5 -47.5t-54.5 -33.5zM558 82q0 -28 20 -45.5t60 -17.5q77 0 79 61q0 28 -21.5 43.5t-63.5 30.5q-74 -24 -74 -72zM637 312q-26 0 -48 -13t-22 -44q0 -45 75 -67q65 24 65 65q0 31 -22 45t-48 14z" />
    <glyph glyph-name="threeeighths" unicode="&#x215c;" horiz-adv-x="800" 
d="M601 680l-370 -680h-25l370 680h25zM672 175q41 -19 62 -40t21 -53q0 -43 -32 -67.5t-87 -24.5q-54 0 -85.5 23.5t-31.5 65.5q0 59 83 90q-73 31 -73 85q0 40 30.5 63t78.5 23q46 0 76.5 -22.5t30.5 -61.5q0 -29 -18.5 -47.5t-54.5 -33.5zM558 82q0 -28 20 -45.5
t60 -17.5q77 0 79 61q0 28 -21.5 43.5t-63.5 30.5q-74 -24 -74 -72zM637 312q-26 0 -48 -13t-22 -44q0 -45 75 -67q65 24 65 65q0 31 -22 45t-48 14zM194 499q36 -8 56.5 -30.5t20.5 -54.5q0 -45 -30 -69.5t-87 -24.5q-66 0 -109 27l12 30q49 -26 96 -26q44 0 61.5 18.5
t17.5 41.5q0 68 -86 68h-42v32h39q39 0 59.5 19.5t20.5 46.5q0 24 -15.5 43t-53.5 19q-36 0 -88 -26l-12 29q47 28 104 28q48 0 75.5 -23.5t27.5 -65.5q0 -60 -67 -82z" />
    <glyph glyph-name="fiveeighths" unicode="&#x215d;" horiz-adv-x="800" 
d="M601 680l-370 -680h-25l370 680h25zM672 175q41 -19 62 -40t21 -53q0 -43 -32 -67.5t-87 -24.5q-54 0 -85.5 23.5t-31.5 65.5q0 59 83 90q-73 31 -73 85q0 40 30.5 63t78.5 23q46 0 76.5 -22.5t30.5 -61.5q0 -29 -18.5 -47.5t-54.5 -33.5zM558 82q0 -28 20 -45.5
t60 -17.5q77 0 79 61q0 28 -21.5 43.5t-63.5 30.5q-74 -24 -74 -72zM637 312q-26 0 -48 -13t-22 -44q0 -45 75 -67q65 24 65 65q0 31 -22 45t-48 14zM152 320q-51 0 -107 29l11 29q53 -26 93 -27q36 0 59 22t23 59q0 31 -17 53.5t-55 22.5q-41 0 -70 -36l-27 2l8 191h181
v-33h-148l-8 -126l1 -1q31 36 75 36q46 0 73 -28t27 -79q0 -52 -32.5 -83t-86.5 -31z" />
    <glyph glyph-name="seveneighths" unicode="&#x215e;" horiz-adv-x="800" 
d="M551 680l-370 -680h-25l370 680h25zM672 175q41 -19 62 -40t21 -53q0 -43 -32 -67.5t-87 -24.5q-54 0 -85.5 23.5t-31.5 65.5q0 59 83 90q-73 31 -73 85q0 40 30.5 63t78.5 23q46 0 76.5 -22.5t30.5 -61.5q0 -29 -18.5 -47.5t-54.5 -33.5zM558 82q0 -28 20 -45.5
t60 -17.5q77 0 79 61q0 28 -21.5 43.5t-63.5 30.5q-74 -24 -74 -72zM637 312q-26 0 -48 -13t-22 -44q0 -45 75 -67q65 24 65 65q0 31 -22 45t-48 14zM224 636v1h-179v33h221v-28q-110 -182 -131 -312h-40q11 68 48.5 154.5t80.5 151.5z" />
    <glyph glyph-name="partialdiff" unicode="&#x2202;" horiz-adv-x="574" 
d="M449 358h1l2 1q1 31 1.5 67t-11.5 72.5t-30 66t-53.5 48t-82.5 18.5q-65 0 -137 -24q0 9 -0.5 27.5t-0.5 27.5q81 28 153 28q60 0 104.5 -19t79 -64.5t43 -120.5t-4.5 -186q-9 -64 -27.5 -116t-49.5 -97.5t-81.5 -71t-116.5 -25.5q-95 0 -146.5 62t-36.5 168
q16 112 79 173.5t161 61.5q100 0 154 -97zM438 301q-50 93 -135 93q-44 0 -77.5 -16t-52.5 -43t-29.5 -55t-14.5 -60q-11 -80 24.5 -125.5t97.5 -45.5q162 0 187 252z" />
    <glyph glyph-name="Delta" unicode="&#x2206;" horiz-adv-x="628" 
d="M294 710l284 -710h-528zM282 597l-193 -565h415z" />
    <glyph glyph-name="product" unicode="&#x220f;" horiz-adv-x="650" 
d="M141 0h-70v700h508v-700h-70v637h-368v-637z" />
    <glyph glyph-name="summation" unicode="&#x2211;" horiz-adv-x="550" 
d="M155 612l175 -273l-174 -271v-2h339v-66h-440v55l183 284l-183 286v55h440v-66h-340v-2z" />
    <glyph glyph-name="minus" unicode="&#x2212;" horiz-adv-x="500" 
d="M61 294h378v-58h-378v58z" />
    <glyph glyph-name="uni2215" unicode="&#x2215;" horiz-adv-x="540" 
d="M486 680l-370 -680h-62l370 680h62z" />
    <glyph glyph-name="uni2219" unicode="&#x2219;" horiz-adv-x="232" 
d="M81 311h70v-122h-70v122z" />
    <glyph glyph-name="radical" unicode="&#x221a;" horiz-adv-x="806" 
d="M81 346v44h224l115 -315h2l228 625h75l-263 -705h-85l-136 351h-160z" />
    <glyph glyph-name="infinity" unicode="&#x221e;" horiz-adv-x="683" 
d="M178 351q-46 0 -76 -27.5t-30 -76.5q0 -42 28 -71.5t77 -29.5q47 0 82.5 33t52.5 68q-16 36 -52.5 70t-81.5 34zM338 216q-24 -45 -67.5 -78t-100.5 -33q-66 0 -105 39.5t-39 105.5q0 65 42 105t114 40q94 0 161 -113q66 113 170 113q66 0 105 -39.5t39 -105.5
q0 -62 -41 -103.5t-112 -41.5q-47 0 -91.5 28t-74.5 83zM505 353q-44 0 -81 -33t-56 -72q17 -40 56 -70t79 -30q53 0 80.5 29.5t27.5 72.5t-26.5 73t-79.5 30z" />
    <glyph glyph-name="integral" unicode="&#x222b;" horiz-adv-x="345" 
d="M101 -71v614q0 86 32.5 121.5t106.5 35.5q32 0 76 -7l-7 -55q-29 5 -54 5q-49 0 -66.5 -26.5t-17.5 -84.5v-610q0 -70 -30.5 -101t-108.5 -31q-31 0 -76 7l7 55q29 -5 54 -5q49 0 66.5 18.5t17.5 63.5z" />
    <glyph glyph-name="approxequal" unicode="&#x2248;" horiz-adv-x="494" 
d="M169 369q-17 0 -34.5 -9.5t-50.5 -42.5l-23 19q56 82 106 82q26 0 96 -28.5t85 -28.5q36 0 65 45l20 -22q-36 -71 -85 -71q-19 0 -89.5 28t-89.5 28zM169 169q-17 0 -34.5 -9.5t-50.5 -42.5l-23 19q56 82 106 82q26 0 96 -28.5t85 -28.5q36 0 65 45l20 -22
q-36 -71 -85 -71q-19 0 -89.5 28t-89.5 28z" />
    <glyph glyph-name="notequal" unicode="&#x2260;" horiz-adv-x="500" 
d="M61 194h134l77 142h-211v58h243l115 211h32l-115 -211h103v-58h-135l-77 -142h212v-58h-243l-115 -211h-32l114 211h-102v58z" />
    <glyph glyph-name="lessequal" unicode="&#x2264;" horiz-adv-x="480" 
d="M76 318l328 159v-51l-254 -126l254 -126v-52l-328 160v36zM61 75h358v-44h-358v44z" />
    <glyph glyph-name="greaterequal" unicode="&#x2265;" horiz-adv-x="480" 
d="M76 477l328 -159v-36l-328 -160v52l254 126l-254 126v51zM61 75h358v-44h-358v44z" />
    <glyph glyph-name="lozenge" unicode="&#x25ca;" horiz-adv-x="472" 
d="M229 -30l-199 374l199 374h14l199 -374l-199 -374h-14zM88 344l148 -277l147 277l-147 277z" />
    <glyph glyph-name="Abreve.small" unicode="&#xf66d;" horiz-adv-x="610" 
d="M487 0l-58 154h-250l-60 -154h-78l225 585h84l219 -585h-82zM413 212l-106 282h-1l-111 -282h218zM305 678q81 0 105 89h31q-9 -65 -45.5 -98t-90.5 -33t-90 32.5t-46 98.5h32q9 -37 34 -63t70 -26z" />
    <glyph glyph-name="Amacron.small" unicode="&#xf66e;" horiz-adv-x="610" 
d="M487 0l-58 154h-250l-60 -154h-78l225 585h84l219 -585h-82zM413 212l-106 282h-1l-111 -282h218zM153 715h303v-44h-303v44z" />
    <glyph glyph-name="AEacute.small" unicode="&#xf670;" horiz-adv-x="886" 
d="M116 0h-75l357 580h422v-63h-313v-191h268v-62h-268v-202h318v-62h-388v232h-175zM293 291h144v226h-2zM581 750l-82 -120h-40l63 120h59z" />
    <glyph glyph-name="Cacute.small" unicode="&#xf671;" horiz-adv-x="586" 
d="M61 293q0 148 63.5 222.5t210.5 74.5q100 0 206 -34l-17 -59q-100 30 -187 30q-111 0 -156.5 -59t-45.5 -175q0 -121 45.5 -181t156.5 -60q83 0 187 30l17 -58q-106 -34 -206 -34q-147 0 -210.5 75.5t-63.5 227.5zM432 750l-82 -120h-40l63 120h59z" />
    <glyph glyph-name="Ccaron.small" unicode="&#xf672;" horiz-adv-x="586" 
d="M61 293q0 148 63.5 222.5t210.5 74.5q100 0 206 -34l-17 -59q-100 30 -187 30q-111 0 -156.5 -59t-45.5 -175q0 -121 45.5 -181t156.5 -60q83 0 187 30l17 -58q-106 -34 -206 -34q-147 0 -210.5 75.5t-63.5 227.5zM244 750l89 -88l89 88h40l-107 -120h-44l-107 120h40z
" />
    <glyph glyph-name="Ccircumflex.small" unicode="&#xf673;" horiz-adv-x="586" 
d="M61 293q0 148 63.5 222.5t210.5 74.5q100 0 206 -34l-17 -59q-100 30 -187 30q-111 0 -156.5 -59t-45.5 -175q0 -121 45.5 -181t156.5 -60q83 0 187 30l17 -58q-106 -34 -206 -34q-147 0 -210.5 75.5t-63.5 227.5zM326 717l-89 -87h-40l107 120h44l107 -120h-40z" />
    <glyph glyph-name="Cdotaccent.small" unicode="&#xf674;" horiz-adv-x="586" 
d="M61 293q0 148 63.5 222.5t210.5 74.5q100 0 206 -34l-17 -59q-100 30 -187 30q-111 0 -156.5 -59t-45.5 -175q0 -121 45.5 -181t156.5 -60q83 0 187 30l17 -58q-106 -34 -206 -34q-147 0 -210.5 75.5t-63.5 227.5zM302 750h63v-108h-63v108z" />
    <glyph glyph-name="Dcaron.small" unicode="&#xf675;" horiz-adv-x="610" 
d="M281 0h-210v580h210q140 0 204 -71.5t64 -213.5q0 -145 -64.5 -220t-203.5 -75zM141 62h136q110 0 154 59t44 174q0 113 -43.5 167.5t-154.5 54.5h-136v-455zM178 750l89 -88l89 88h40l-107 -120h-44l-107 120h40z" />
    <glyph glyph-name="Ebreve.small" unicode="&#xf677;" horiz-adv-x="520" 
d="M454 580v-63h-313v-191h268v-62h-268v-202h318v-62h-388v580h383zM259 678q81 0 105 89h31q-9 -65 -45.5 -98t-90.5 -33t-90 32.5t-46 98.5h32q9 -37 34 -63t70 -26z" />
    <glyph glyph-name="Ecaron.small" unicode="&#xf678;" horiz-adv-x="520" 
d="M454 580v-63h-313v-191h268v-62h-268v-202h318v-62h-388v580h383zM167 750l89 -88l89 88h40l-107 -120h-44l-107 120h40z" />
    <glyph glyph-name="Edotaccent.small" unicode="&#xf679;" horiz-adv-x="520" 
d="M454 580v-63h-313v-191h268v-62h-268v-202h318v-62h-388v580h383zM236 750h63v-108h-63v108z" />
    <glyph glyph-name="Emacron.small" unicode="&#xf67a;" horiz-adv-x="520" 
d="M454 580v-63h-313v-191h268v-62h-268v-202h318v-62h-388v580h383zM108 715h303v-44h-303v44z" />
    <glyph glyph-name="Gbreve.small" unicode="&#xf67d;" horiz-adv-x="612" 
d="M337 52q56 0 128 19v176h-123v52h193v-275q-100 -34 -200 -34q-147 0 -210.5 75.5t-63.5 227.5q0 148 63.5 222.5t210.5 74.5q100 0 206 -34l-17 -59q-100 30 -187 30q-111 0 -156.5 -59t-45.5 -175q0 -121 45.5 -181t156.5 -60zM329 678q81 0 105 89h31
q-9 -65 -45.5 -98t-90.5 -33t-90 32.5t-46 98.5h32q9 -37 34 -63t70 -26z" />
    <glyph glyph-name="Gcircumflex.small" unicode="&#xf67e;" horiz-adv-x="612" 
d="M337 52q56 0 128 19v176h-123v52h193v-275q-100 -34 -200 -34q-147 0 -210.5 75.5t-63.5 227.5q0 148 63.5 222.5t210.5 74.5q100 0 206 -34l-17 -59q-100 30 -187 30q-111 0 -156.5 -59t-45.5 -175q0 -121 45.5 -181t156.5 -60zM332 717l-89 -87h-40l107 120h44
l107 -120h-40z" />
    <glyph glyph-name="Gcommaaccent.small" unicode="&#xf67f;" horiz-adv-x="612" 
d="M337 52q56 0 128 19v176h-123v52h193v-275q-100 -34 -200 -34q-147 0 -210.5 75.5t-63.5 227.5q0 148 63.5 222.5t210.5 74.5q100 0 206 -34l-17 -59q-100 30 -187 30q-111 0 -156.5 -59t-45.5 -175q0 -121 45.5 -181t156.5 -60zM322 -201h-24l15 86h-19v75h63v-75z" />
    <glyph glyph-name="Gdotaccent.small" unicode="&#xf680;" horiz-adv-x="612" 
d="M337 52q56 0 128 19v176h-123v52h193v-275q-100 -34 -200 -34q-147 0 -210.5 75.5t-63.5 227.5q0 148 63.5 222.5t210.5 74.5q100 0 206 -34l-17 -59q-100 30 -187 30q-111 0 -156.5 -59t-45.5 -175q0 -121 45.5 -181t156.5 -60zM302 750h63v-108h-63v108z" />
    <glyph glyph-name="Hcircumflex.small" unicode="&#xf682;" 
d="M141 0h-70v580h70v-254h318v254h70v-580h-70v264h-318v-264zM300 717l-89 -87h-40l107 120h44l107 -120h-40z" />
    <glyph glyph-name="Ibreve.small" unicode="&#xf683;" horiz-adv-x="212" 
d="M141 0h-70v580h70v-580zM106 678q81 0 105 89h31q-9 -65 -45.5 -98t-90.5 -33t-90 32.5t-46 98.5h32q9 -37 34 -63t70 -26z" />
    <glyph glyph-name="Imacron.small" unicode="&#xf685;" horiz-adv-x="212" 
d="M141 0h-70v580h70v-580zM-46 715h303v-44h-303v44z" />
    <glyph glyph-name="Itilde.small" unicode="&#xf687;" horiz-adv-x="212" 
d="M141 0h-70v580h70v-580zM53 695q-20 0 -35.5 -8.5t-48.5 -42.5l-24 18q31 44 55 61.5t51 17.5q26 0 71 -28.5t60 -28.5q35 0 65 48l20 -21q-34 -71 -85 -71q-19 0 -64.5 27.5t-64.5 27.5z" />
    <glyph glyph-name="Jcircumflex.small" unicode="&#xf688;" horiz-adv-x="322" 
d="M255 580v-415q0 -95 -37.5 -135t-112.5 -40q-41 0 -86 7l7 62q40 -5 60 -5q51 0 73 27.5t22 87.5v411h74zM218 717l-89 -87h-40l107 120h44l107 -120h-40z" />
    <glyph glyph-name="Kcommaaccent.small" unicode="&#xf689;" horiz-adv-x="583" 
d="M141 580v-317l304 317h87l-219 -234l226 -346h-89l-188 294l-121 -128v-166h-70v580h70zM279 -201h-24l15 86h-19v75h63v-75z" />
    <glyph glyph-name="Lacute.small" unicode="&#xf68a;" horiz-adv-x="500" 
d="M71 580h70v-518h308v-62h-378v580zM210 750l-82 -120h-40l63 120h59z" />
    <glyph glyph-name="Lcaron.small" unicode="&#xf68b;" horiz-adv-x="500" 
d="M71 580h70v-518h308v-62h-378v580zM269 419h-24l15 86h-19v75h63v-75z" />
    <glyph glyph-name="Lcommaaccent.small" unicode="&#xf68c;" horiz-adv-x="500" 
d="M71 580h70v-518h308v-62h-378v580zM258 -201h-24l15 86h-19v75h63v-75z" />
    <glyph glyph-name="Ldot.small" unicode="&#xf68d;" horiz-adv-x="500" 
d="M71 580h70v-518h308v-62h-378v580zM238 370h63v-108h-63v108z" />
    <glyph glyph-name="Nacute.small" unicode="&#xf68e;" horiz-adv-x="610" 
d="M139 0h-68v580h74l324 -464h2v464h68v-580h-74l-324 464h-2v-464zM410 750l-82 -120h-40l63 120h59z" />
    <glyph glyph-name="Ncaron.small" unicode="&#xf68f;" horiz-adv-x="610" 
d="M139 0h-68v580h74l324 -464h2v464h68v-580h-74l-324 464h-2v-464zM216 750l89 -88l89 88h40l-107 -120h-44l-107 120h40z" />
    <glyph glyph-name="Ncommaaccent.small" unicode="&#xf690;" horiz-adv-x="610" 
d="M139 0h-68v580h74l324 -464h2v464h68v-580h-74l-324 464h-2v-464zM303 -201h-24l15 86h-19v75h63v-75z" />
    <glyph glyph-name="Obreve.small" unicode="&#xf691;" horiz-adv-x="650" 
d="M325 531q-58 0 -97 -17.5t-58.5 -52t-27 -73.5t-7.5 -93q0 -55 7.5 -95.5t27 -76.5t58.5 -55t97 -19t97 19t58.5 55t27 76.5t7.5 95.5q0 54 -7.5 93t-27 73.5t-58.5 52t-97 17.5zM325 -10q-141 0 -202.5 78t-61.5 227q0 146 61 220.5t203 74.5t203 -74.5t61 -220.5
q0 -149 -61.5 -227t-202.5 -78zM325 678q81 0 105 89h31q-9 -65 -45.5 -98t-90.5 -33t-90 32.5t-46 98.5h32q9 -37 34 -63t70 -26z" />
    <glyph glyph-name="Ohungarumlaut.small" unicode="&#xf692;" horiz-adv-x="650" 
d="M325 531q-58 0 -97 -17.5t-58.5 -52t-27 -73.5t-7.5 -93q0 -55 7.5 -95.5t27 -76.5t58.5 -55t97 -19t97 19t58.5 55t27 76.5t7.5 95.5q0 54 -7.5 93t-27 73.5t-58.5 52t-97 17.5zM325 -10q-141 0 -202.5 78t-61.5 227q0 146 61 220.5t203 74.5t203 -74.5t61 -220.5
q0 -149 -61.5 -227t-202.5 -78zM337 750l-70 -120h-40l63 120h47zM449 750l-70 -120h-40l62 120h48z" />
    <glyph glyph-name="Omacron.small" unicode="&#xf693;" horiz-adv-x="650" 
d="M325 531q-58 0 -97 -17.5t-58.5 -52t-27 -73.5t-7.5 -93q0 -55 7.5 -95.5t27 -76.5t58.5 -55t97 -19t97 19t58.5 55t27 76.5t7.5 95.5q0 54 -7.5 93t-27 73.5t-58.5 52t-97 17.5zM325 -10q-141 0 -202.5 78t-61.5 227q0 146 61 220.5t203 74.5t203 -74.5t61 -220.5
q0 -149 -61.5 -227t-202.5 -78zM173 715h303v-44h-303v44z" />
    <glyph glyph-name="Oslashacute.small" unicode="&#xf694;" horiz-adv-x="650" 
d="M421 750l-82 -120h-40l63 120h59zM325 -10q-115 0 -177 56l-62 -77l-24 20l62 76q-63 74 -63 230q0 146 61 220.5t203 74.5q115 0 179 -55l60 74l23 -20l-60 -74q62 -72 62 -220q0 -149 -61.5 -227t-202.5 -78zM325 531q-58 0 -97 -17.5t-58.5 -52t-27 -73.5t-7.5 -93
q0 -115 37 -171l291 359q-46 48 -138 48zM325 49q58 0 97 19t58.5 55t27 76.5t7.5 95.5q0 109 -35 161l-291 -359q46 -48 136 -48z" />
    <glyph glyph-name="Racute.small" unicode="&#xf695;" horiz-adv-x="575" 
d="M531 0h-89l-159 204h-142v-204h-70v580h235q96 0 149.5 -51t53.5 -137q0 -75 -39.5 -122t-112.5 -55zM141 517v-251h159q137 0 137 126q0 59 -34 92t-97 33h-165zM363 750l-82 -120h-40l63 120h59z" />
    <glyph glyph-name="Rcaron.small" unicode="&#xf696;" horiz-adv-x="575" 
d="M531 0h-89l-159 204h-142v-204h-70v580h235q96 0 149.5 -51t53.5 -137q0 -75 -39.5 -122t-112.5 -55zM141 517v-251h159q137 0 137 126q0 59 -34 92t-97 33h-165zM178 750l89 -88l89 88h40l-107 -120h-44l-107 120h40z" />
    <glyph glyph-name="Rcommaaccent.small" unicode="&#xf697;" horiz-adv-x="575" 
d="M531 0h-89l-159 204h-142v-204h-70v580h235q96 0 149.5 -51t53.5 -137q0 -75 -39.5 -122t-112.5 -55zM141 517v-251h159q137 0 137 126q0 59 -34 92t-97 33h-165zM281 -201h-24l15 86h-19v75h63v-75z" />
    <glyph glyph-name="Sacute.small" unicode="&#xf698;" horiz-adv-x="570" 
d="M272 263q-36 7 -61.5 14.5t-52 21t-42 30t-25.5 42.5t-10 60q0 159 199 159q103 0 219 -34l-17 -59q-119 30 -200 30q-127 0 -127 -90q0 -22 8.5 -38.5t17 -26.5t31.5 -18.5t32.5 -11.5t40.5 -9t37 -7q90 -18 138.5 -55.5t48.5 -112.5q0 -84 -61.5 -126t-157.5 -42
q-114 0 -229 34l17 58q119 -30 214 -30q73 0 108 30t35 72q0 28 -12.5 47.5t-37.5 30.5t-47 17t-54 12q-8 1 -12 2zM390 750l-82 -120h-40l63 120h59z" />
    <glyph glyph-name="Scircumflex.small" unicode="&#xf69a;" horiz-adv-x="570" 
d="M272 263q-36 7 -61.5 14.5t-52 21t-42 30t-25.5 42.5t-10 60q0 159 199 159q103 0 219 -34l-17 -59q-119 30 -200 30q-127 0 -127 -90q0 -22 8.5 -38.5t17 -26.5t31.5 -18.5t32.5 -11.5t40.5 -9t37 -7q90 -18 138.5 -55.5t48.5 -112.5q0 -84 -61.5 -126t-157.5 -42
q-114 0 -229 34l17 58q119 -30 214 -30q73 0 108 30t35 72q0 28 -12.5 47.5t-37.5 30.5t-47 17t-54 12q-8 1 -12 2zM285 717l-89 -87h-40l107 120h44l107 -120h-40z" />
    <glyph glyph-name="Scommaaccent.small" unicode="&#xf69b;" horiz-adv-x="570" 
d="M272 263q-36 7 -61.5 14.5t-52 21t-42 30t-25.5 42.5t-10 60q0 159 199 159q103 0 219 -34l-17 -59q-119 30 -200 30q-127 0 -127 -90q0 -22 8.5 -38.5t17 -26.5t31.5 -18.5t32.5 -11.5t40.5 -9t37 -7q90 -18 138.5 -55.5t48.5 -112.5q0 -84 -61.5 -126t-157.5 -42
q-114 0 -229 34l17 58q119 -30 214 -30q73 0 108 30t35 72q0 28 -12.5 47.5t-37.5 30.5t-47 17t-54 12q-8 1 -12 2zM283 -201h-24l15 86h-19v75h63v-75z" />
    <glyph glyph-name="Tcaron.small" unicode="&#xf69d;" horiz-adv-x="520" 
d="M469 517h-174v-517h-70v517h-174v63h418v-63zM171 750l89 -88l89 88h40l-107 -120h-44l-107 120h40z" />
    <glyph glyph-name="Tcommaaccent.small" unicode="&#xf69e;" horiz-adv-x="520" 
d="M469 517h-174v-517h-70v517h-174v63h418v-63zM256 -201h-24l15 86h-19v75h63v-75z" />
    <glyph glyph-name="Ubreve.small" unicode="&#xf69f;" 
d="M71 227v353h70v-346q0 -41 4 -66.5t18.5 -56.5t49.5 -46.5t90 -15.5q41 0 71 11.5t46 28.5t25 43.5t11.5 49t2.5 52.5v346h70v-346q0 -128 -56.5 -186t-172.5 -58q-115 0 -172 55.5t-57 181.5zM300 678q81 0 105 89h31q-9 -65 -45.5 -98t-90.5 -33t-90 32.5t-46 98.5h32
q9 -37 34 -63t70 -26z" />
    <glyph glyph-name="Uhungarumlaut.small" unicode="&#xf6a0;" 
d="M71 227v353h70v-346q0 -41 4 -66.5t18.5 -56.5t49.5 -46.5t90 -15.5q41 0 71 11.5t46 28.5t25 43.5t11.5 49t2.5 52.5v346h70v-346q0 -128 -56.5 -186t-172.5 -58q-115 0 -172 55.5t-57 181.5zM297 750l-70 -120h-40l63 120h47zM409 750l-70 -120h-40l62 120h48z" />
    <glyph glyph-name="Umacron.small" unicode="&#xf6a1;" 
d="M71 227v353h70v-346q0 -41 4 -66.5t18.5 -56.5t49.5 -46.5t90 -15.5q41 0 71 11.5t46 28.5t25 43.5t11.5 49t2.5 52.5v346h70v-346q0 -128 -56.5 -186t-172.5 -58q-115 0 -172 55.5t-57 181.5zM148 715h303v-44h-303v44z" />
    <glyph glyph-name="Uring.small" unicode="&#xf6a3;" 
d="M71 227v353h70v-346q0 -41 4 -66.5t18.5 -56.5t49.5 -46.5t90 -15.5q41 0 71 11.5t46 28.5t25 43.5t11.5 49t2.5 52.5v346h70v-346q0 -128 -56.5 -186t-172.5 -58q-115 0 -172 55.5t-57 181.5zM225 690q0 32 22 53t54 21t53.5 -21t21.5 -53t-21.5 -53t-53.5 -21t-54 21
t-22 53zM251 690q0 -22 14 -36.5t36 -14.5q21 0 35 14.5t14 36.5t-14 36.5t-35 14.5q-22 0 -36 -14.5t-14 -36.5z" />
    <glyph glyph-name="Utilde.small" unicode="&#xf6a4;" 
d="M71 227v353h70v-346q0 -41 4 -66.5t18.5 -56.5t49.5 -46.5t90 -15.5q41 0 71 11.5t46 28.5t25 43.5t11.5 49t2.5 52.5v346h70v-346q0 -128 -56.5 -186t-172.5 -58q-115 0 -172 55.5t-57 181.5zM247 695q-20 0 -35.5 -8.5t-48.5 -42.5l-24 18q31 44 55 61.5t51 17.5
q26 0 71 -28.5t60 -28.5q35 0 65 48l20 -21q-34 -71 -85 -71q-19 0 -64.5 27.5t-64.5 27.5z" />
    <glyph glyph-name="Wacute.small" unicode="&#xf6a5;" horiz-adv-x="900" 
d="M447 465h-2l-133 -470h-88l-183 585h82l152 -493h1l132 493h80l140 -493h1l152 493h78l-183 -585h-96zM555 750l-82 -120h-40l63 120h59z" />
    <glyph glyph-name="Wcircumflex.small" unicode="&#xf6a6;" horiz-adv-x="900" 
d="M447 465h-2l-133 -470h-88l-183 585h82l152 -493h1l132 493h80l140 -493h1l152 493h78l-183 -585h-96zM450 717l-89 -87h-40l107 120h44l107 -120h-40z" />
    <glyph glyph-name="Wdieresis.small" unicode="&#xf6a7;" horiz-adv-x="900" 
d="M447 465h-2l-133 -470h-88l-183 585h82l152 -493h1l132 493h80l140 -493h1l152 493h78l-183 -585h-96zM293 750h59v-108h-59v108zM548 750h59v-108h-59v108z" />
    <glyph glyph-name="Wgrave.small" unicode="&#xf6a8;" horiz-adv-x="900" 
d="M447 465h-2l-133 -470h-88l-183 585h82l152 -493h1l132 493h80l140 -493h1l152 493h78l-183 -585h-96zM426 630l-82 120h59l63 -120h-40z" />
    <glyph glyph-name="Ycircumflex.small" unicode="&#xf6a9;" horiz-adv-x="580" 
d="M291 263h2l165 317h81l-214 -400v-180h-70v180l-214 400h85zM290 717l-89 -87h-40l107 120h44l107 -120h-40z" />
    <glyph glyph-name="Ygrave.small" unicode="&#xf6aa;" horiz-adv-x="580" 
d="M291 263h2l165 317h81l-214 -400v-180h-70v180l-214 400h85zM275 630l-82 120h59l63 -120h-40z" />
    <glyph glyph-name="Zacute.small" unicode="&#xf6ab;" horiz-adv-x="520" 
d="M142 64v-2h333v-62h-430v55l326 460v2h-306v63h400v-55zM351 750l-82 -120h-40l63 120h59z" />
    <glyph glyph-name="Zdotaccent.small" unicode="&#xf6ac;" horiz-adv-x="520" 
d="M142 64v-2h333v-62h-430v55l326 460v2h-306v63h400v-55zM228 750h63v-108h-63v108z" />
    <glyph glyph-name="Idotaccent.small" unicode="&#xf6ad;" horiz-adv-x="212" 
d="M141 0h-70v580h70v-580zM74 750h63v-108h-63v108z" />
    <glyph glyph-name="commaaccent" unicode="&#xf6c3;" horiz-adv-x="191" 
d="M97 721h24l-15 -86h19v-75h-63v75z" />
    <glyph glyph-name="rupiah" unicode="&#xf6dd;" horiz-adv-x="1089" 
d="M145 614v-272h187q64 0 102.5 35.5t38.5 100.5q0 62 -36 99t-98 37h-194zM621 0h-137l-171 276h-168v-276h-74v680h275q95 0 149 -56.5t54 -145.5q0 -75 -42 -127.5t-117 -63.5l150 -236h81v449h70v-50h2q63 60 159 60q186 0 186 -260q0 -119 -45.5 -189.5t-144.5 -70.5
q-94 0 -155 58h-2v-248h-70v200zM964 250q0 201 -138 201q-79 0 -135 -48v-306q56 -48 135 -48q138 0 138 201z" />
    <glyph glyph-name="asuperior" unicode="&#xf6e9;" horiz-adv-x="296" 
d="M212 477v74h-56q-72 0 -72 -51q0 -22 15.5 -35t43.5 -13q39 0 69 25zM151 656q-31 0 -80 -9l-3 14.5t-2 13.5q47 10 92 10q46 0 67.5 -18t21.5 -64v-173h-35v25q-37 -30 -82 -30q-37 0 -59 19.5t-22 52.5q0 75 105 75h58v29q0 28 -14 41.5t-47 13.5z" />
    <glyph glyph-name="bsuperior" unicode="&#xf6ea;" horiz-adv-x="306" 
d="M84 780v-125h1q32 30 79 30q93 0 93 -130t-95 -130q-45 0 -79 29h-1l-6 -25h-27v351h35zM221 555q0 101 -70 101q-38 0 -67 -24v-153q28 -25 67 -25q70 0 70 101z" />
    <glyph glyph-name="esuperior" unicode="&#xf6ec;" horiz-adv-x="316" 
d="M262 551h-175q0 -97 89 -97q43 0 78 10q0 -4 2 -13.5l3 -14.5q-41 -11 -88 -11q-122 0 -122 130t119 130q94 0 98 -90q0 -25 -4 -44zM166 657q-74 0 -79 -83h141q4 18 3 29q-4 54 -65 54z" />
    <glyph glyph-name="isuperior" unicode="&#xf6ed;" horiz-adv-x="132" 
d="M49 780h35v-59h-35v59zM49 680h35v-250h-35v250z" />
    <glyph glyph-name="lsuperior" unicode="&#xf6ee;" horiz-adv-x="132" 
d="M49 430v350h35v-350h-35z" />
    <glyph glyph-name="msuperior" unicode="&#xf6ef;" horiz-adv-x="451" 
d="M84 622v-192h-35v250h35v-36h1q41 41 83 41q55 0 70 -45q40 45 89 45q75 0 75 -82v-173h-35v166q0 60 -55 60q-30 0 -70 -35q0 -4 0.5 -13.5t0.5 -15.5v-162h-35v167q0 59 -55 59q-30 0 -69 -34z" />
    <glyph glyph-name="osuperior" unicode="&#xf6f0;" horiz-adv-x="321" 
d="M161 656q-75 0 -75 -101t75 -101t75 101t-75 101zM161 425q-112 0 -112 130t112 130q111 0 111 -130t-111 -130z" />
    <glyph glyph-name="rsuperior" unicode="&#xf6f1;" horiz-adv-x="231" 
d="M84 619v-189h-35v250h35v-40h1q43 45 97 45v-33q-47 0 -98 -33z" />
    <glyph glyph-name="ssuperior" unicode="&#xf6f2;" horiz-adv-x="291" 
d="M242 499q0 -35 -23 -54.5t-66 -19.5q-57 0 -104 11l7 28q39 -10 93 -10q24 0 38.5 9.5t17 17.5t2.5 16q0 16 -13 26.5t-49 17.5q-44 9 -67.5 25.5t-23.5 50.5q0 68 89 68q57 0 98 -11l-7 -28q-43 11 -89 11q-24 0 -37.5 -8.5t-16 -15.5t-2.5 -14q0 -16 12 -27t48 -18
q47 -10 70 -26t23 -49z" />
    <glyph glyph-name="tsuperior" unicode="&#xf6f3;" horiz-adv-x="249" 
d="M88 503v151h-39v23l39 3l4 70h31v-70h74v-26h-74v-145q0 -28 10 -41.5t36 -13.5q5 0 27 2l4 -27q-17 -4 -43 -4q-37 0 -53 17.5t-16 60.5z" />
    <glyph glyph-name="Lslashsmall" unicode="&#xf6f9;" horiz-adv-x="500" 
d="M254 311l-113 -28v-221h308v-62h-378v266l-70 -17v44l70 17v270h70v-253l113 27v-43z" />
    <glyph glyph-name="OEsmall" unicode="&#xf6fa;" horiz-adv-x="967" 
d="M901 580v-63h-312v-191h267v-62h-267v-202h317v-62h-383v118q-45 -128 -198 -128q-141 0 -202.5 78t-61.5 227q0 146 61 220.5t203 74.5q152 0 200 -124v114h376zM325 531q-58 0 -97 -17.5t-58.5 -52t-27 -73.5t-7.5 -93q0 -55 7.5 -95.5t27 -76.5t58.5 -55t97 -19t97 19
t58.5 55t27 76.5t7.5 95.5q0 54 -7.5 93t-27 73.5t-58.5 52t-97 17.5z" />
    <glyph glyph-name="Scaronsmall" unicode="&#xf6fd;" horiz-adv-x="570" 
d="M211 780l74 -100l74 100h55l-103 -140h-51l-104 140h55zM272 263q-36 7 -61.5 14.5t-52 21t-42 30t-25.5 42.5t-10 60q0 159 199 159q103 0 219 -34l-17 -59q-119 30 -200 30q-127 0 -127 -90q0 -22 8.5 -38.5t17 -26.5t31.5 -18.5t32.5 -11.5t40.5 -9t37 -7
q90 -18 138.5 -55.5t48.5 -112.5q0 -84 -61.5 -126t-157.5 -42q-114 0 -229 34l17 58q119 -30 214 -30q73 0 108 30t35 72q0 28 -12.5 47.5t-37.5 30.5t-47 17t-54 12q-8 1 -12 2z" />
    <glyph glyph-name="Zcaronsmall" unicode="&#xf6ff;" horiz-adv-x="520" 
d="M186 780l74 -100l74 100h55l-103 -140h-51l-104 140h55zM142 64v-2h333v-62h-430v55l326 460v2h-306v63h400v-55z" />
    <glyph glyph-name="dollaroldstyle" unicode="&#xf724;" horiz-adv-x="510" 
d="M253 222q-88 16 -135 49.5t-47 103.5q0 65 50 100t129 35q107 0 195 -36l-13 -53q-96 32 -178 32q-34 0 -58.5 -9t-35.5 -23t-15 -24.5t-4 -19.5q0 -32 24.5 -54t95.5 -36q94 -20 141 -53t47 -102q0 -64 -50 -103t-129 -39q-121 0 -209 36l13 53q93 -32 188 -32
q35 0 60.5 9.5t36.5 24.5t15.5 26t4.5 20q0 33 -27 56.5t-99 38.5zM275 -130h-40v100h40v-100zM275 530h-40v100h40v-100z" />
    <glyph glyph-name="ampersandsmall" unicode="&#xf726;" horiz-adv-x="905" 
d="M621 147v94h-484q3 -87 49.5 -139.5t129.5 -52.5q66 0 152 33l9 -55q-83 -37 -171 -37q-111 0 -178 72t-67 188t65 188t174 72q60 0 101.5 -22t60 -57.5t25.5 -71t4 -72.5h130l9 213h61v-213h148v-46h-148v-76q0 -62 18.5 -90t72.5 -28q26 0 55 5q4 -39 7 -55
q-46 -7 -84 -7q-74 0 -106.5 35.5t-32.5 121.5zM296 455q-69 0 -111.5 -47.5t-47.5 -120.5h283q14 66 -16.5 117t-107.5 51z" />
    <glyph glyph-name="zerooldstyle" unicode="&#xf730;" horiz-adv-x="590" 
d="M295 451q-76 0 -118 -57t-42 -144t42 -144t118 -57t118 57t42 144t-42 144t-118 57zM295 -10q-110 0 -172 71t-62 189t62 189t172 71t172 -71t62 -189t-62 -189t-172 -71z" />
    <glyph glyph-name="twooldstyle" unicode="&#xf732;" horiz-adv-x="590" 
d="M286 446q-94 0 -187 -42l-18 60q109 46 216 46q93 0 147.5 -45t54.5 -118q0 -31 -10 -59t-22.5 -49t-40 -43.5t-45 -35.5t-57 -33t-57 -28l-61.5 -27q-17 -7 -25 -11v-2l328 3v-62h-428v69q196 83 270 141t74 122q0 33 -14.5 57t-38 35.5t-45 16.5t-41.5 5z" />
    <glyph glyph-name="questionsmall" unicode="&#xf73f;" horiz-adv-x="480" 
d="M239 610q97 0 143.5 -39t46.5 -102q0 -47 -20 -78.5t-48 -47t-56 -28t-48 -31.5t-20 -48v-26h-62v30q0 39 18.5 64.5t45.5 38.5l54 25t45.5 34.5t18.5 56.5q0 88 -135 88q-67 0 -154 -36l-17 53q102 46 188 46zM171 122h70v-122h-70v122z" />
    <glyph glyph-name="Asmall" unicode="&#xf761;" horiz-adv-x="610" 
d="M487 0l-58 154h-250l-60 -154h-78l225 585h84l219 -585h-82zM413 212l-106 282h-1l-111 -282h218z" />
    <glyph glyph-name="Bsmall" unicode="&#xf762;" horiz-adv-x="570" 
d="M384 299v-2q62 -8 98.5 -45t36.5 -98q0 -154 -198 -154h-250v580h244q89 0 136.5 -37.5t47.5 -106.5q0 -112 -115 -137zM297 267h-156v-205h169q135 0 135 103q0 102 -148 102zM425 423q0 94 -129 94h-155v-195h149q135 0 135 101z" />
    <glyph glyph-name="Csmall" unicode="&#xf763;" horiz-adv-x="586" 
d="M61 293q0 148 63.5 222.5t210.5 74.5q100 0 206 -34l-17 -59q-100 30 -187 30q-111 0 -156.5 -59t-45.5 -175q0 -121 45.5 -181t156.5 -60q83 0 187 30l17 -58q-106 -34 -206 -34q-147 0 -210.5 75.5t-63.5 227.5z" />
    <glyph glyph-name="Dsmall" unicode="&#xf764;" horiz-adv-x="610" 
d="M281 0h-210v580h210q140 0 204 -71.5t64 -213.5q0 -145 -64.5 -220t-203.5 -75zM141 62h136q110 0 154 59t44 174q0 113 -43.5 167.5t-154.5 54.5h-136v-455z" />
    <glyph glyph-name="Esmall" unicode="&#xf765;" horiz-adv-x="520" 
d="M454 580v-63h-313v-191h268v-62h-268v-202h318v-62h-388v580h383z" />
    <glyph glyph-name="Fsmall" unicode="&#xf766;" horiz-adv-x="495" 
d="M444 580v-63h-303v-211h258v-62h-258v-244h-70v580h373z" />
    <glyph glyph-name="Gsmall" unicode="&#xf767;" horiz-adv-x="612" 
d="M337 52q56 0 128 19v176h-123v52h193v-275q-100 -34 -200 -34q-147 0 -210.5 75.5t-63.5 227.5q0 148 63.5 222.5t210.5 74.5q100 0 206 -34l-17 -59q-100 30 -187 30q-111 0 -156.5 -59t-45.5 -175q0 -121 45.5 -181t156.5 -60z" />
    <glyph glyph-name="Hsmall" unicode="&#xf768;" 
d="M141 0h-70v580h70v-254h318v254h70v-580h-70v264h-318v-264z" />
    <glyph glyph-name="Ismall" unicode="&#xf769;" horiz-adv-x="212" 
d="M141 0h-70v580h70v-580z" />
    <glyph glyph-name="Jsmall" unicode="&#xf76a;" horiz-adv-x="322" 
d="M255 580v-415q0 -95 -37.5 -135t-112.5 -40q-41 0 -86 7l7 62q40 -5 60 -5q51 0 73 27.5t22 87.5v411h74z" />
    <glyph glyph-name="Ksmall" unicode="&#xf76b;" horiz-adv-x="583" 
d="M141 580v-317l304 317h87l-219 -234l226 -346h-89l-188 294l-121 -128v-166h-70v580h70z" />
    <glyph glyph-name="Lsmall" unicode="&#xf76c;" horiz-adv-x="500" 
d="M71 580h70v-518h308v-62h-378v580z" />
    <glyph glyph-name="Msmall" unicode="&#xf76d;" horiz-adv-x="760" 
d="M167 580l214 -466h2l209 466h97v-580h-70v461h-2l-211 -461h-55l-210 461h-2v-461h-68v580h96z" />
    <glyph glyph-name="Nsmall" unicode="&#xf76e;" horiz-adv-x="610" 
d="M139 0h-68v580h74l324 -464h2v464h68v-580h-74l-324 464h-2v-464z" />
    <glyph glyph-name="Osmall" unicode="&#xf76f;" horiz-adv-x="650" 
d="M325 531q-58 0 -97 -17.5t-58.5 -52t-27 -73.5t-7.5 -93q0 -55 7.5 -95.5t27 -76.5t58.5 -55t97 -19t97 19t58.5 55t27 76.5t7.5 95.5q0 54 -7.5 93t-27 73.5t-58.5 52t-97 17.5zM325 -10q-141 0 -202.5 78t-61.5 227q0 146 61 220.5t203 74.5t203 -74.5t61 -220.5
q0 -149 -61.5 -227t-202.5 -78z" />
    <glyph glyph-name="Psmall" unicode="&#xf770;" horiz-adv-x="560" 
d="M306 204h-165v-204h-70v580h235q97 0 150 -50.5t53 -137.5q0 -90 -52.5 -139t-150.5 -49zM141 517v-251h161q64 0 99.5 31.5t35.5 94.5q0 58 -36 91.5t-99 33.5h-161z" />
    <glyph glyph-name="Qsmall" unicode="&#xf771;" horiz-adv-x="650" 
d="M325 49q107 0 148.5 64.5t41.5 181.5q0 54 -7.5 93t-27 73.5t-58.5 52t-97 17.5t-97 -17.5t-58.5 -52t-27 -73.5t-7.5 -93q0 -55 7.5 -95.5t27 -76.5t58.5 -55t97 -19zM308 -9q-133 4 -190 81.5t-57 222.5q0 146 61 220.5t203 74.5t203 -74.5t61 -220.5
q0 -140 -54 -211.5t-169 -76.5q17 -29 77.5 -41t131.5 -4v-60q-198 -23 -267 89z" />
    <glyph glyph-name="Rsmall" unicode="&#xf772;" horiz-adv-x="575" 
d="M531 0h-89l-159 204h-142v-204h-70v580h235q96 0 149.5 -51t53.5 -137q0 -75 -39.5 -122t-112.5 -55zM141 517v-251h159q137 0 137 126q0 59 -34 92t-97 33h-165z" />
    <glyph glyph-name="Ssmall" unicode="&#xf773;" horiz-adv-x="570" 
d="M272 263q-36 7 -61.5 14.5t-52 21t-42 30t-25.5 42.5t-10 60q0 159 199 159q103 0 219 -34l-17 -59q-119 30 -200 30q-127 0 -127 -90q0 -22 8.5 -38.5t17 -26.5t31.5 -18.5t32.5 -11.5t40.5 -9t37 -7q90 -18 138.5 -55.5t48.5 -112.5q0 -84 -61.5 -126t-157.5 -42
q-114 0 -229 34l17 58q119 -30 214 -30q73 0 108 30t35 72q0 28 -12.5 47.5t-37.5 30.5t-47 17t-54 12q-8 1 -12 2z" />
    <glyph glyph-name="Tsmall" unicode="&#xf774;" horiz-adv-x="520" 
d="M469 517h-174v-517h-70v517h-174v63h418v-63z" />
    <glyph glyph-name="Usmall" unicode="&#xf775;" 
d="M71 227v353h70v-346q0 -41 4 -66.5t18.5 -56.5t49.5 -46.5t90 -15.5q41 0 71 11.5t46 28.5t25 43.5t11.5 49t2.5 52.5v346h70v-346q0 -128 -56.5 -186t-172.5 -58q-115 0 -172 55.5t-57 181.5z" />
    <glyph glyph-name="Vsmall" unicode="&#xf776;" horiz-adv-x="610" 
d="M310 86h1l180 494h78l-219 -585h-84l-225 585h82z" />
    <glyph glyph-name="Wsmall" unicode="&#xf777;" horiz-adv-x="900" 
d="M447 465h-2l-133 -470h-88l-183 585h82l152 -493h1l132 493h80l140 -493h1l152 493h78l-183 -585h-96z" />
    <glyph glyph-name="Xsmall" unicode="&#xf778;" horiz-adv-x="622" 
d="M471 580h83l-203 -274l227 -306h-89l-183 246l-182 -246h-80l220 302l-199 278h83l162 -215z" />
    <glyph glyph-name="Ysmall" unicode="&#xf779;" horiz-adv-x="580" 
d="M291 263h2l165 317h81l-214 -400v-180h-70v180l-214 400h85z" />
    <glyph glyph-name="Zsmall" unicode="&#xf77a;" horiz-adv-x="520" 
d="M142 64v-2h333v-62h-430v55l326 460v2h-306v63h400v-55z" />
    <glyph glyph-name="centoldstyle" unicode="&#xf7a2;" horiz-adv-x="529" 
d="M306 451q-80 0 -125.5 -56t-45.5 -145t45.5 -145t125.5 -56q67 0 153 33l8 -55q-83 -37 -167 -37q-110 0 -174.5 71.5t-64.5 188.5t64.5 188.5t174.5 71.5q81 0 167 -37l-8 -55q-86 33 -153 33zM315 -130h-40v100h40v-100zM315 530h-40v100h40v-100z" />
    <glyph glyph-name="Agravesmall" unicode="&#xf7e0;" horiz-adv-x="610" 
d="M487 0l-58 154h-250l-60 -154h-78l225 585h84l219 -585h-82zM413 212l-106 282h-1l-111 -282h218zM285 630l-82 120h59l63 -120h-40z" />
    <glyph glyph-name="Aacutesmall" unicode="&#xf7e1;" horiz-adv-x="610" 
d="M487 0l-58 154h-250l-60 -154h-78l225 585h84l219 -585h-82zM413 212l-106 282h-1l-111 -282h218zM409 750l-82 -120h-40l63 120h59z" />
    <glyph glyph-name="Acircumflexsmall" unicode="&#xf7e2;" horiz-adv-x="610" 
d="M487 0l-58 154h-250l-60 -154h-78l225 585h84l219 -585h-82zM413 212l-106 282h-1l-111 -282h218zM305 717l-89 -87h-40l107 120h44l107 -120h-40z" />
    <glyph glyph-name="Atildesmall" unicode="&#xf7e3;" horiz-adv-x="610" 
d="M487 0l-58 154h-250l-60 -154h-78l225 585h84l219 -585h-82zM413 212l-106 282h-1l-111 -282h218zM252 695q-20 0 -35.5 -8.5t-48.5 -42.5l-24 18q31 44 55 61.5t51 17.5q26 0 71 -28.5t60 -28.5q35 0 65 48l20 -21q-34 -71 -85 -71q-19 0 -64.5 27.5t-64.5 27.5z" />
    <glyph glyph-name="Adieresissmall" unicode="&#xf7e4;" horiz-adv-x="610" 
d="M487 0l-58 154h-250l-60 -154h-78l225 585h84l219 -585h-82zM413 212l-106 282h-1l-111 -282h218zM148 750h59v-108h-59v108zM403 750h59v-108h-59v108z" />
    <glyph glyph-name="Aringsmall" unicode="&#xf7e5;" horiz-adv-x="610" 
d="M487 0l-58 154h-250l-60 -154h-78l225 585h84l219 -585h-82zM413 212l-106 282h-1l-111 -282h218zM230 690q0 32 22 53t54 21t53.5 -21t21.5 -53t-21.5 -53t-53.5 -21t-54 21t-22 53zM256 690q0 -22 14 -36.5t36 -14.5q21 0 35 14.5t14 36.5t-14 36.5t-35 14.5
q-22 0 -36 -14.5t-14 -36.5z" />
    <glyph glyph-name="AEsmall" unicode="&#xf7e6;" horiz-adv-x="886" 
d="M116 0h-75l357 580h422v-63h-313v-191h268v-62h-268v-202h318v-62h-388v232h-175zM293 291h144v226h-2z" />
    <glyph glyph-name="Ccedillasmall" unicode="&#xf7e7;" horiz-adv-x="586" 
d="M318 -74v65q-138 4 -197.5 79t-59.5 223t63.5 222.5t210.5 74.5q100 0 206 -34l-17 -59q-100 30 -187 30q-111 0 -156.5 -59t-45.5 -175q0 -121 45.5 -181t156.5 -60q83 0 187 30l17 -58q-94 -31 -195 -34v-46q35 -3 59.5 -20t24.5 -52t-25.5 -56t-69.5 -21q-33 0 -72 12
l6 25q32 -8 55 -8q33 0 47 16t14 36q0 19 -15.5 34t-51.5 16z" />
    <glyph glyph-name="Egravesmall" unicode="&#xf7e8;" horiz-adv-x="520" 
d="M454 580v-63h-313v-191h268v-62h-268v-202h318v-62h-388v580h383zM254 630l-82 120h59l63 -120h-40z" />
    <glyph glyph-name="Eacutesmall" unicode="&#xf7e9;" horiz-adv-x="520" 
d="M454 580v-63h-313v-191h268v-62h-268v-202h318v-62h-388v580h383zM366 750l-82 -120h-40l63 120h59z" />
    <glyph glyph-name="Ecircumflexsmall" unicode="&#xf7ea;" horiz-adv-x="520" 
d="M454 580v-63h-313v-191h268v-62h-268v-202h318v-62h-388v580h383zM260 717l-89 -87h-40l107 120h44l107 -120h-40z" />
    <glyph glyph-name="Edieresissmall" unicode="&#xf7eb;" horiz-adv-x="520" 
d="M454 580v-63h-313v-191h268v-62h-268v-202h318v-62h-388v580h383zM103 750h59v-108h-59v108zM358 750h59v-108h-59v108z" />
    <glyph glyph-name="Igravesmall" unicode="&#xf7ec;" horiz-adv-x="212" 
d="M141 0h-70v580h70v-580zM85 630l-82 120h59l63 -120h-40z" />
    <glyph glyph-name="Iacutesmall" unicode="&#xf7ed;" horiz-adv-x="212" 
d="M141 0h-70v580h70v-580zM209 750l-82 -120h-40l63 120h59z" />
    <glyph glyph-name="Icircumflexsmall" unicode="&#xf7ee;" horiz-adv-x="212" 
d="M141 0h-70v580h70v-580zM106 717l-89 -87h-40l107 120h44l107 -120h-40z" />
    <glyph glyph-name="Idieresissmall" unicode="&#xf7ef;" horiz-adv-x="212" 
d="M141 0h-70v580h70v-580zM-51 750h59v-108h-59v108zM204 750h59v-108h-59v108z" />
    <glyph glyph-name="Ntildesmall" unicode="&#xf7f1;" horiz-adv-x="610" 
d="M139 0h-68v580h74l324 -464h2v464h68v-580h-74l-324 464h-2v-464zM252 695q-20 0 -35.5 -8.5t-48.5 -42.5l-24 18q31 44 55 61.5t51 17.5q26 0 71 -28.5t60 -28.5q35 0 65 48l20 -21q-34 -71 -85 -71q-19 0 -64.5 27.5t-64.5 27.5z" />
    <glyph glyph-name="Ogravesmall" unicode="&#xf7f2;" horiz-adv-x="650" 
d="M325 531q-58 0 -97 -17.5t-58.5 -52t-27 -73.5t-7.5 -93q0 -55 7.5 -95.5t27 -76.5t58.5 -55t97 -19t97 19t58.5 55t27 76.5t7.5 95.5q0 54 -7.5 93t-27 73.5t-58.5 52t-97 17.5zM325 -10q-141 0 -202.5 78t-61.5 227q0 146 61 220.5t203 74.5t203 -74.5t61 -220.5
q0 -149 -61.5 -227t-202.5 -78zM305 630l-82 120h59l63 -120h-40z" />
    <glyph glyph-name="Oacutesmall" unicode="&#xf7f3;" horiz-adv-x="650" 
d="M325 531q-58 0 -97 -17.5t-58.5 -52t-27 -73.5t-7.5 -93q0 -55 7.5 -95.5t27 -76.5t58.5 -55t97 -19t97 19t58.5 55t27 76.5t7.5 95.5q0 54 -7.5 93t-27 73.5t-58.5 52t-97 17.5zM325 -10q-141 0 -202.5 78t-61.5 227q0 146 61 220.5t203 74.5t203 -74.5t61 -220.5
q0 -149 -61.5 -227t-202.5 -78zM420 750l-82 -120h-40l63 120h59z" />
    <glyph glyph-name="Ocircumflexsmall" unicode="&#xf7f4;" horiz-adv-x="650" 
d="M325 531q-58 0 -97 -17.5t-58.5 -52t-27 -73.5t-7.5 -93q0 -55 7.5 -95.5t27 -76.5t58.5 -55t97 -19t97 19t58.5 55t27 76.5t7.5 95.5q0 54 -7.5 93t-27 73.5t-58.5 52t-97 17.5zM325 -10q-141 0 -202.5 78t-61.5 227q0 146 61 220.5t203 74.5t203 -74.5t61 -220.5
q0 -149 -61.5 -227t-202.5 -78zM325 717l-89 -87h-40l107 120h44l107 -120h-40z" />
    <glyph glyph-name="Otildesmall" unicode="&#xf7f5;" horiz-adv-x="650" 
d="M325 531q-58 0 -97 -17.5t-58.5 -52t-27 -73.5t-7.5 -93q0 -55 7.5 -95.5t27 -76.5t58.5 -55t97 -19t97 19t58.5 55t27 76.5t7.5 95.5q0 54 -7.5 93t-27 73.5t-58.5 52t-97 17.5zM325 -10q-141 0 -202.5 78t-61.5 227q0 146 61 220.5t203 74.5t203 -74.5t61 -220.5
q0 -149 -61.5 -227t-202.5 -78zM272 695q-20 0 -35.5 -8.5t-48.5 -42.5l-24 18q31 44 55 61.5t51 17.5q26 0 71 -28.5t60 -28.5q35 0 65 48l20 -21q-34 -71 -85 -71q-19 0 -64.5 27.5t-64.5 27.5z" />
    <glyph glyph-name="Odieresissmall" unicode="&#xf7f6;" horiz-adv-x="650" 
d="M325 531q-58 0 -97 -17.5t-58.5 -52t-27 -73.5t-7.5 -93q0 -55 7.5 -95.5t27 -76.5t58.5 -55t97 -19t97 19t58.5 55t27 76.5t7.5 95.5q0 54 -7.5 93t-27 73.5t-58.5 52t-97 17.5zM325 -10q-141 0 -202.5 78t-61.5 227q0 146 61 220.5t203 74.5t203 -74.5t61 -220.5
q0 -149 -61.5 -227t-202.5 -78zM168 750h59v-108h-59v108zM423 750h59v-108h-59v108z" />
    <glyph glyph-name="Oslashsmall" unicode="&#xf7f8;" horiz-adv-x="650" 
d="M325 -10q-115 0 -177 56l-62 -77l-24 20l62 76q-63 74 -63 230q0 146 61 220.5t203 74.5q115 0 179 -55l60 74l23 -20l-60 -74q62 -72 62 -220q0 -149 -61.5 -227t-202.5 -78zM325 531q-58 0 -97 -17.5t-58.5 -52t-27 -73.5t-7.5 -93q0 -115 37 -171l291 359
q-46 48 -138 48zM325 49q58 0 97 19t58.5 55t27 76.5t7.5 95.5q0 109 -35 161l-291 -359q46 -48 136 -48z" />
    <glyph glyph-name="Ugravesmall" unicode="&#xf7f9;" 
d="M71 227v353h70v-346q0 -41 4 -66.5t18.5 -56.5t49.5 -46.5t90 -15.5q41 0 71 11.5t46 28.5t25 43.5t11.5 49t2.5 52.5v346h70v-346q0 -128 -56.5 -186t-172.5 -58q-115 0 -172 55.5t-57 181.5zM245 630l-82 120h59l63 -120h-40z" />
    <glyph glyph-name="Uacutesmall" unicode="&#xf7fa;" 
d="M71 227v353h70v-346q0 -41 4 -66.5t18.5 -56.5t49.5 -46.5t90 -15.5q41 0 71 11.5t46 28.5t25 43.5t11.5 49t2.5 52.5v346h70v-346q0 -128 -56.5 -186t-172.5 -58q-115 0 -172 55.5t-57 181.5zM393 750l-82 -120h-40l63 120h59z" />
    <glyph glyph-name="Ucircumflexsmall" unicode="&#xf7fb;" 
d="M71 227v353h70v-346q0 -41 4 -66.5t18.5 -56.5t49.5 -46.5t90 -15.5q41 0 71 11.5t46 28.5t25 43.5t11.5 49t2.5 52.5v346h70v-346q0 -128 -56.5 -186t-172.5 -58q-115 0 -172 55.5t-57 181.5zM300 717l-89 -87h-40l107 120h44l107 -120h-40z" />
    <glyph glyph-name="Udieresissmall" unicode="&#xf7fc;" 
d="M71 227v353h70v-346q0 -41 4 -66.5t18.5 -56.5t49.5 -46.5t90 -15.5q41 0 71 11.5t46 28.5t25 43.5t11.5 49t2.5 52.5v346h70v-346q0 -128 -56.5 -186t-172.5 -58q-115 0 -172 55.5t-57 181.5zM143 750h59v-108h-59v108zM398 750h59v-108h-59v108z" />
    <glyph glyph-name="Yacutesmall" unicode="&#xf7fd;" horiz-adv-x="580" 
d="M291 263h2l165 317h81l-214 -400v-180h-70v180l-214 400h85zM393 750l-82 -120h-40l63 120h59z" />
    <glyph glyph-name="Ydieresissmall" unicode="&#xf7ff;" horiz-adv-x="580" 
d="M291 263h2l165 317h81l-214 -400v-180h-70v180l-214 400h85zM133 750h59v-108h-59v108zM388 750h59v-108h-59v108z" />
    <glyph glyph-name="ff" unicode="&#xfb00;" horiz-adv-x="640" 
d="M396 500v43q0 86 32.5 121.5t106.5 35.5q32 0 76 -7l-7 -55q-29 5 -54 5q-49 0 -66.5 -26.5t-17.5 -84.5v-32h140v-51h-140v-449h-70v449h-225v-449h-70v449h-79v46l79 5v43q0 86 32.5 121.5t106.5 35.5q32 0 76 -7l-7 -55q-29 5 -54 5q-49 0 -66.5 -26.5t-17.5 -84.5
v-32h225z" />
    <glyph glyph-name="fi" unicode="&#xfb01;" horiz-adv-x="527" 
d="M101 500v32q0 87 44 127.5t136 40.5q31 0 81 -8.5t87 -24.5l-9 -51q-71 27 -151 27q-67 0 -92.5 -27.5t-25.5 -83.5v-32h295v-500h-70v449h-225v-449h-70v449h-79v46z" />
    <glyph glyph-name="fl" unicode="&#xfb02;" horiz-adv-x="527" 
d="M171 449v-449h-70v449h-79v46l79 5v32q0 87 44 127.5t136 40.5q70 0 134 -26h51v-674h-70v619q-60 24 -107 24q-67 0 -92.5 -27.5t-25.5 -83.5v-32h140v-51h-140z" />
    <glyph glyph-name="ffi" unicode="&#xfb03;" horiz-adv-x="822" 
d="M396 449h-225v-449h-70v449h-79v46l79 5v43q0 86 32.5 121.5t106.5 35.5q32 0 76 -7l-7 -55q-29 5 -54 5q-49 0 -66.5 -26.5t-17.5 -84.5v-32h225v32q0 87 44 127.5t136 40.5q31 0 81 -8.5t87 -24.5l-9 -51q-71 27 -151 27q-67 0 -92.5 -27.5t-25.5 -83.5v-32h295v-500
h-70v449h-225v-449h-70v449z" />
    <glyph glyph-name="ffl" unicode="&#xfb04;" horiz-adv-x="822" 
d="M396 449h-225v-449h-70v449h-79v46l79 5v43q0 86 32.5 121.5t106.5 35.5q32 0 76 -7l-7 -55q-29 5 -54 5q-49 0 -66.5 -26.5t-17.5 -84.5v-32h225v32q0 87 44 127.5t136 40.5q70 0 134 -26h51v-674h-70v619q-60 24 -107 24q-67 0 -92.5 -27.5t-25.5 -83.5v-32h140v-51
h-140v-449h-70v449z" />
    <glyph glyph-name="longs_t" unicode="&#xfb05;" horiz-adv-x="607" 
d="M101 -71v614q0 86 32.5 121.5t106.5 35.5q32 0 76 -7l-7 -55q-29 5 -54 5q-49 0 -66.5 -26.5t-17.5 -84.5v-610q0 -70 -30.5 -101t-108.5 -31q-31 0 -76 7l7 55q29 -5 54 -5q49 0 66.5 18.5t17.5 63.5zM334 147v302h-79v46l79 5l8 140h62v-140h147v-51h-147v-291
q0 -58 20 -84.5t71 -26.5q25 0 54 5l7 -55q-44 -7 -84 -7q-73 0 -105.5 35.5t-32.5 121.5z" />
    <glyph glyph-name="s_t" unicode="&#xfb06;" horiz-adv-x="860" 
d="M434 138q0 -71 -46 -109.5t-133 -38.5q-121 0 -209 22l13 57q87 -22 188 -22q30 0 53 7.5t34.5 17.5t19 23t9 22t1.5 17q0 31 -26.5 52t-99.5 36q-88 16 -135 49.5t-47 103.5q0 66 46 100.5t133 34.5q107 0 195 -22l-13 -57q-87 22 -178 22q-37 0 -61.5 -9t-34.5 -23
t-13.5 -24.5t-3.5 -19.5q0 -32 24.5 -54t95.5 -36q95 -20 141.5 -51.5t46.5 -97.5zM586 147v302h-79v46l79 5l9 140h61v-140h148v-51h-148v-291q0 -58 20 -84.5t71 -26.5q26 0 55 5l7 -55q-45 -7 -84 -7q-74 0 -106.5 35.5t-32.5 121.5z" />
    <glyph glyph-name="cyrbreve" horiz-adv-x="397" 
d="M198 608q81 0 105 89h31q-9 -65 -45.5 -98t-90.5 -33t-90 32.5t-46 98.5h32q9 -37 34 -63t70 -26z" />
    <glyph glyph-name="undercommaaccent" horiz-adv-x="191" 
d="M94 -201h-24l15 86h-19v75h63v-75z" />
    <glyph glyph-name="dieresisacute" horiz-adv-x="480" 
d="M62 680h59v-108h-59v108zM359 680h58v-108h-58v108zM309 700l-82 -128h-40l63 128h59z" />
    <glyph glyph-name="dieresisgrave" horiz-adv-x="480" 
d="M359 680h58v-108h-58v108zM62 680h59v-108h-59v108zM252 572l-81 128h59l62 -128h-40z" />
    <glyph glyph-name="dblgrave" horiz-adv-x="346" 
d="M244 560l-70 120h47l63 -120h-40zM132 560l-70 120h48l62 -120h-40z" />
    <glyph glyph-name="cyrflex" horiz-adv-x="382" 
d="M191 660l-74 -100h-55l104 140h51l103 -140h-55z" />
    <glyph glyph-name="Acute" horiz-adv-x="246" 
d="M191 850l-81 -140h-55l62 140h74z" />
    <glyph glyph-name="Breve" horiz-adv-x="397" 
d="M198 778q81 0 105 89h31q-9 -65 -45.5 -98t-90.5 -33t-90 32.5t-46 98.5h32q9 -37 34 -63t70 -26z" />
    <glyph glyph-name="cyrBreve" horiz-adv-x="397" 
d="M198 778q81 0 105 89h31q-9 -65 -45.5 -98t-90.5 -33t-90 32.5t-46 98.5h32q9 -37 34 -63t70 -26z" />
    <glyph glyph-name="Caron" horiz-adv-x="382" 
d="M117 850l74 -100l74 100h55l-103 -140h-51l-104 140h55z" />
    <glyph glyph-name="Cedilla" horiz-adv-x="291" 
d="M117 -74v74h28v-56q35 -3 59.5 -20t24.5 -52t-25.5 -56t-69.5 -21q-33 0 -72 12l6 25q32 -8 53 -8q34 0 48.5 16.5t14.5 35.5t-15.5 34t-51.5 16z" />
    <glyph glyph-name="Circumflex" horiz-adv-x="382" 
d="M191 810l-74 -100h-55l104 140h51l103 -140h-55z" />
    <glyph glyph-name="commaaccent.cap" horiz-adv-x="191" 
d="M94 -201h-24l15 86h-19v75h63v-75z" />
    <glyph glyph-name="Dieresis" horiz-adv-x="439" 
d="M89 847h58v-115h-58v115zM291 847h59v-115h-59v115z" />
    <glyph glyph-name="DieresisAcute" horiz-adv-x="480" 
d="M62 850h59v-108h-59v108zM359 850h58v-108h-58v108zM309 870l-82 -128h-40l63 128h59z" />
    <glyph glyph-name="DieresisGrave" horiz-adv-x="480" 
d="M359 850h58v-108h-58v108zM62 850h59v-108h-59v108zM252 742l-81 128h59l62 -128h-40z" />
    <glyph glyph-name="Dotaccent" horiz-adv-x="187" 
d="M62 850h63v-108h-63v108z" />
    <glyph glyph-name="Hungarumlaut" horiz-adv-x="346" 
d="M172 850l-70 -120h-40l63 120h47zM284 850l-70 -120h-40l62 120h48z" />
    <glyph glyph-name="Grave" horiz-adv-x="246" 
d="M136 710l-81 140h74l62 -140h-55z" />
    <glyph glyph-name="dblGrave" horiz-adv-x="346" 
d="M244 730l-70 120h47l63 -120h-40zM132 730l-70 120h48l62 -120h-40z" />
    <glyph glyph-name="cyrFlex" horiz-adv-x="382" 
d="M191 810l-74 -100h-55l104 140h51l103 -140h-55z" />
    <glyph glyph-name="Macron" horiz-adv-x="427" 
d="M62 819h303v-48h-303v48z" />
    <glyph glyph-name="Ogonek" horiz-adv-x="296" 
d="M229 -150l4 -20q-37 -29 -87 -29q-35 0 -59.5 18.5t-24.5 51.5q0 66 86 129h37q-32 -24 -53 -56t-21 -59q0 -26 15 -40.5t42 -14.5q26 0 61 20z" />
    <glyph glyph-name="Ring" horiz-adv-x="275" 
d="M62 790q0 32 22 53t54 21t53.5 -21t21.5 -53t-21.5 -53t-53.5 -21t-54 21t-22 53zM88 790q0 -22 14 -36.5t36 -14.5q21 0 35 14.5t14 36.5t-14 36.5t-35 14.5q-22 0 -36 -14.5t-14 -36.5z" />
    <glyph glyph-name="Tilde" horiz-adv-x="447" 
d="M170 785q-20 0 -35.5 -8.5t-48.5 -42.5l-24 26q31 44 55 61t51 17q26 0 71 -28.5t60 -28.5q35 0 65 49l20 -29q-34 -71 -85 -71q-19 0 -64.5 27.5t-64.5 27.5z" />
    <glyph glyph-name="Acutesmall" horiz-adv-x="246" 
d="M184 750l-82 -120h-40l63 120h59z" />
    <glyph glyph-name="Brevesmall" horiz-adv-x="397" 
d="M198 678q81 0 105 89h31q-9 -65 -45.5 -98t-90.5 -33t-90 32.5t-46 98.5h32q9 -37 34 -63t70 -26z" />
    <glyph glyph-name="Caronsmall" horiz-adv-x="382" 
d="M102 750l89 -88l89 88h40l-107 -120h-44l-107 120h40z" />
    <glyph glyph-name="Cedillasmall" horiz-adv-x="291" 
d="M117 -74v74h28v-56q35 -3 59.5 -20t24.5 -52t-25.5 -56t-69.5 -21q-33 0 -72 12l6 25q32 -8 53 -8q34 0 48.5 16.5t14.5 35.5t-15.5 34t-51.5 16z" />
    <glyph glyph-name="Circumflexsmall" horiz-adv-x="382" 
d="M191 717l-89 -87h-40l107 120h44l107 -120h-40z" />
    <glyph glyph-name="commaaccent.small" horiz-adv-x="191" 
d="M94 -201h-24l15 86h-19v75h63v-75z" />
    <glyph glyph-name="Dieresissmall" horiz-adv-x="439" 
d="M62 750h59v-108h-59v108zM317 750h59v-108h-59v108z" />
    <glyph glyph-name="DieresisAcute.small" horiz-adv-x="480" 
d="M62 750h59v-108h-59v108zM359 750h58v-108h-58v108zM309 770l-82 -128h-40l63 128h59z" />
    <glyph glyph-name="DieresisGrave.small" horiz-adv-x="480" 
d="M359 750h58v-108h-58v108zM62 750h59v-108h-59v108zM252 642l-81 128h59l62 -128h-40z" />
    <glyph glyph-name="Dotaccentsmall" horiz-adv-x="187" 
d="M62 750h63v-108h-63v108z" />
    <glyph glyph-name="Hungarumlautsmall" horiz-adv-x="346" 
d="M172 750l-70 -120h-40l63 120h47zM284 750l-70 -120h-40l62 120h48z" />
    <glyph glyph-name="Gravesmall" horiz-adv-x="246" 
d="M144 630l-82 120h59l63 -120h-40z" />
    <glyph glyph-name="dblGrave.small" horiz-adv-x="346" 
d="M244 630l-70 120h47l63 -120h-40zM132 630l-70 120h48l62 -120h-40z" />
    <glyph glyph-name="Macronsmall" horiz-adv-x="427" 
d="M62 715h303v-44h-303v44z" />
    <glyph glyph-name="Ogoneksmall" horiz-adv-x="296" 
d="M229 -150l4 -20q-37 -29 -87 -29q-35 0 -59.5 18.5t-24.5 51.5q0 66 86 129h37q-32 -24 -53 -56t-21 -59q0 -26 15 -40.5t42 -14.5q26 0 61 20z" />
    <glyph glyph-name="Ringsmall" horiz-adv-x="275" 
d="M62 690q0 32 22 53t54 21t53.5 -21t21.5 -53t-21.5 -53t-53.5 -21t-54 21t-22 53zM88 690q0 -22 14 -36.5t36 -14.5q21 0 35 14.5t14 36.5t-14 36.5t-35 14.5q-22 0 -36 -14.5t-14 -36.5z" />
    <glyph glyph-name="Tildesmall" horiz-adv-x="447" 
d="M170 695q-20 0 -35.5 -8.5t-48.5 -42.5l-24 18q31 44 55 61.5t51 17.5q26 0 71 -28.5t60 -28.5q35 0 65 48l20 -21q-34 -71 -85 -71q-19 0 -64.5 27.5t-64.5 27.5z" />
    <glyph glyph-name="middot" horiz-adv-x="225" 
d="M81 367h63v-115h-63v115z" />
    <glyph glyph-name="T_h" horiz-adv-x="1030" 
d="M631 384v-384h-70v614h-244v-614h-74v614h-192v66h580v-253h2q86 83 186 83q150 0 150 -164v-346h-70v331q0 120 -110 120q-73 0 -158 -67z" />
    <glyph glyph-name="T_h.caron" horiz-adv-x="1030" 
d="M631 384v-384h-70v614h-244v-614h-74v614h-192v66h580v-253h2q86 83 186 83q150 0 150 -164v-346h-70v331q0 120 -110 120q-73 0 -158 -67zM207 850l74 -100l74 100h55l-103 -140h-51l-104 140h55z" />
    <glyph glyph-name="T_h.commaaccent" horiz-adv-x="1030" 
d="M631 384v-384h-70v614h-244v-614h-74v614h-192v66h580v-253h2q86 83 186 83q150 0 150 -164v-346h-70v331q0 120 -110 120q-73 0 -158 -67zM277 -201h-24l15 86h-19v75h63v-75z" />
    <glyph glyph-name="Aogonek.small" horiz-adv-x="610" 
d="M514 0h-27l-58 154h-250l-60 -154h-78l225 585h84l219 -585q-40 -14 -66.5 -48.5t-26.5 -66.5q0 -26 15 -40.5t42 -14.5q29 0 61 20l5 -20q-37 -29 -88 -29q-34 0 -58.5 18t-24.5 51q0 70 86 130zM307 494h-1l-111 -282h218z" />
    <glyph glyph-name="Dcroat.small" horiz-adv-x="610" 
d="M149 62h128q110 0 154 59t44 174q0 113 -43.5 167.5t-154.5 54.5h-128v-200h137v-44h-137v-211zM281 0h-202v273h-70v44h70v263h202q140 0 204 -71.5t64 -213.5q0 -145 -64.5 -220t-203.5 -75z" />
    <glyph glyph-name="Eogonek.small" horiz-adv-x="520" 
d="M502 -150l5 -20q-37 -29 -88 -29q-34 0 -58.5 18t-24.5 51q0 68 85 130h-350v580h383v-63h-313v-191h268v-62h-268v-202h318v-62q-32 -24 -53.5 -56t-21.5 -59q0 -26 15 -40.5t42 -14.5q29 0 61 20z" />
    <glyph glyph-name="Hbar.small" horiz-adv-x="620" 
d="M11 492h70v88h70v-88h318v88h70v-88h70v-44h-70v-448h-70v264h-318v-264h-70v448h-70v44zM151 326h318v122h-318v-122z" />
    <glyph glyph-name="Iogonek.small" horiz-adv-x="212" 
d="M141 580v-580q-38 -14 -63 -49t-25 -66q0 -26 15 -40.5t42 -14.5q26 0 61 20l4 -20q-37 -29 -88 -29q-34 0 -58.5 18t-24.5 51q0 36 24 70.5t63 59.5l-20 91v489h70z" />
    <glyph glyph-name="IJ.small" horiz-adv-x="535" 
d="M141 0h-70v580h70v-580zM467 580v-415q0 -95 -37.5 -135t-112.5 -40q-41 0 -86 7l7 62q40 -5 60 -5q51 0 73 27.5t22 87.5v411h74z" />
    <glyph glyph-name="Scedilla.small" horiz-adv-x="570" 
d="M272 263q-36 7 -61.5 14.5t-52 21t-42 30t-25.5 42.5t-10 60q0 159 199 159q103 0 219 -34l-17 -59q-119 30 -200 30q-127 0 -127 -90q0 -22 8.5 -38.5t17 -26.5t31.5 -18.5t32.5 -11.5t40.5 -9t37 -7q90 -18 138.5 -55.5t48.5 -112.5q0 -83 -59.5 -124.5t-152.5 -43.5
v-46q35 -3 59.5 -20t24.5 -52t-25.5 -56t-69.5 -21q-33 0 -72 12l6 25q32 -8 54 -8q33 0 47.5 16t14.5 36q0 19 -15.5 34t-52.5 16v64q-106 3 -207 34l17 58q119 -30 214 -30q73 0 108 30t35 72q0 28 -12.5 47.5t-37.5 30.5t-47 17t-54 12q-8 1 -12 2z" />
    <glyph glyph-name="Tbar.small" horiz-adv-x="520" 
d="M136 252h89v265h-174v63h418v-63h-174v-265h89v-44h-89v-208h-70v208h-89v44z" />
    <glyph glyph-name="Uogonek.small" 
d="M71 227v353h70v-346q0 -41 4 -66.5t18.5 -56.5t49.5 -46.5t90 -15.5q41 0 71 11.5t46 28.5t25 43.5t11.5 49t2.5 52.5v346h70v-346q0 -124 -53 -182t-161 -62q-27 -23 -44.5 -52t-17.5 -53q0 -26 15 -40.5t42 -14.5q26 0 61 20l4 -20q-37 -29 -87 -29q-35 0 -59.5 18
t-24.5 51q0 63 73 121q-103 5 -154.5 60.5t-51.5 175.5z" />
    <glyph glyph-name="c_t" horiz-adv-x="855" 
d="M581 147v302h-79v46l79 5l9 140h61v-140h148v-51h-148v-291q0 -58 20 -84.5t71 -26.5q26 0 55 5l7 -55q-46 -7 -84 -7q-74 0 -106.5 35.5t-32.5 121.5zM51 250q0 260 239 260q79 0 167 -22l-13 -57q-78 20 -154 20q-85 0 -125 -54.5t-40 -146.5t40 -146.5t125 -54.5
q76 0 154 20l13 -57q-88 -22 -167 -22q-239 0 -239 260z" />
    <glyph glyph-name="f_f_j" horiz-adv-x="822" 
d="M691 -71v520h-225v-449h-70v449h-225v-449h-70v449h-79v46l79 5v43q0 86 32.5 121.5t106.5 35.5q32 0 76 -7l-7 -55q-29 5 -54 5q-49 0 -66.5 -26.5t-17.5 -84.5v-32h225v32q0 87 44 127.5t136 40.5q31 0 81 -8.5t87 -24.5l-9 -51q-71 27 -151 27q-67 0 -92.5 -27.5
t-25.5 -83.5v-32h295v-578q0 -71 -31.5 -101.5t-107.5 -30.5q-30 0 -76 7l7 55q29 -5 54 -5q48 0 66 17.5t18 64.5z" />
    <glyph glyph-name="f_j" horiz-adv-x="527" 
d="M396 -71v520h-225v-449h-70v449h-79v46l79 5v32q0 87 44 127.5t136 40.5q31 0 81 -8.5t87 -24.5l-9 -51q-71 27 -151 27q-67 0 -92.5 -27.5t-25.5 -83.5v-32h295v-578q0 -71 -31.5 -101.5t-107.5 -30.5q-31 0 -76 7l7 55q29 -5 54 -5q48 0 66 17.5t18 64.5z" />
    <glyph glyph-name="s_p" horiz-adv-x="1025" 
d="M434 138q0 -71 -46 -109.5t-133 -38.5q-121 0 -209 22l13 57q87 -22 188 -22q30 0 53 7.5t34.5 17.5t19 23t9 22t1.5 17q0 31 -26.5 52t-99.5 36q-88 16 -135 49.5t-47 103.5q0 66 46 100.5t133 34.5q107 0 195 -22l-13 -57q-87 22 -178 22q-37 0 -61.5 -9t-34.5 -23
t-13.5 -24.5t-3.5 -19.5q0 -32 24.5 -54t95.5 -36q95 -20 141.5 -51.5t46.5 -97.5zM626 500v-50h2q65 60 159 60q187 0 187 -260q0 -119 -45.5 -189.5t-144.5 -70.5q-93 0 -156 58h-2v-248h-70v700h70zM900 250q0 201 -139 201q-77 0 -135 -48v-306q58 -48 135 -48
q139 0 139 201z" />
    <glyph glyph-name="dsuperior" horiz-adv-x="306" 
d="M222 655v125h35v-351h-35v25h-1q-34 -29 -77 -29q-95 0 -95 130t93 130q47 0 79 -30h1zM86 555q0 -101 69 -101q39 0 67 25v153q-29 24 -67 24q-69 0 -69 -101z" />
    <glyph glyph-name="h.superior" horiz-adv-x="301" 
d="M84 622v-192h-35v350h35v-136h1q43 41 92 41q75 0 75 -82v-173h-35v166q0 60 -55 60q-36 0 -78 -34z" />
    <glyph glyph-name="Ethsmall" horiz-adv-x="610" 
d="M149 62h128q110 0 154 59t44 174q0 113 -43.5 167.5t-154.5 54.5h-128v-200h137v-44h-137v-211zM281 0h-202v273h-70v44h70v263h202q140 0 204 -71.5t64 -213.5q0 -145 -64.5 -220t-203.5 -75z" />
    <glyph glyph-name="Thornsmall" horiz-adv-x="560" 
d="M302 102h-161v-102h-70v580h70v-102h161q98 0 152.5 -50.5t54.5 -137.5q0 -90 -54 -139t-153 -49zM141 416v-252h161q64 0 99.5 32t35.5 94q0 59 -36 92.5t-99 33.5h-161z" />
    <glyph glyph-name="Eng.small" horiz-adv-x="610" 
d="M469 -71v71l-328 464h-2v-464h-68v580h74l324 -464h2v464h68v-658q0 -71 -31.5 -101.5t-107.5 -30.5q-32 0 -76 7l7 55q29 -5 54 -5q48 0 66 17.5t18 64.5z" />
    <glyph glyph-name="longs_h" horiz-adv-x="865" 
d="M466 674v-247h2q86 83 186 83q150 0 150 -164v-346h-70v331q0 120 -110 120q-73 0 -158 -67v-384h-70v619q-60 24 -107 24q-66 0 -92 -29.5t-26 -85.5v-606q0 -70 -30.5 -101t-108.5 -31q-31 0 -76 7l7 55q29 -5 54 -5q49 0 66.5 18.5t17.5 63.5v599q0 172 180 172
q70 0 134 -26h51z" />
    <glyph glyph-name="longs_l" horiz-adv-x="527" 
d="M101 -71v599q0 172 180 172q70 0 134 -26h51v-674h-70v619q-60 24 -107 24q-66 0 -92 -29.5t-26 -85.5v-606q0 -70 -30.5 -101t-108.5 -31q-31 0 -76 7l7 55q29 -5 54 -5q49 0 66.5 18.5t17.5 63.5z" />
    <glyph glyph-name="longs_i" horiz-adv-x="465" 
d="M101 -71v614q0 86 32.5 121.5t106.5 35.5q32 0 76 -7l-7 -55q-29 5 -54 5q-49 0 -66.5 -26.5t-17.5 -84.5v-610q0 -70 -30.5 -101t-108.5 -31q-31 0 -76 7l7 55q29 -5 54 -5q49 0 66.5 18.5t17.5 63.5zM334 500h70v-500h-70v500z" />
    <glyph glyph-name="longs_longs" horiz-adv-x="610" 
d="M101 -71v614q0 86 32.5 121.5t106.5 35.5q32 0 76 -7l-7 -55q-29 5 -54 5q-49 0 -66.5 -26.5t-17.5 -84.5v-610q0 -70 -30.5 -101t-108.5 -31q-31 0 -76 7l7 55q29 -5 54 -5q49 0 66.5 18.5t17.5 63.5zM366 -71v614q0 86 32.5 121.5t106.5 35.5q32 0 76 -7l-7 -55
q-29 5 -54 5q-49 0 -66.5 -26.5t-17.5 -84.5v-610q0 -70 -30.5 -101t-108.5 -31q-31 0 -76 7l7 55q29 -5 54 -5q49 0 66.5 18.5t17.5 63.5z" />
    <glyph glyph-name="zero.slash" horiz-adv-x="590" 
d="M295 -10q-234 0 -234 355q0 79 11.5 139t38 108t73 73t111.5 25t111.5 -25t73 -73t38 -108t11.5 -139q0 -355 -234 -355zM295 49q160 0 160 296q0 93 -20 153l-274 -346q38 -103 134 -103zM295 631q-47 0 -80 -23t-49.5 -65t-23.5 -89.5t-7 -108.5q0 -95 19 -152l272 344
q-38 94 -131 94z" />
    <glyph glyph-name="zero.fitted" 
d="M300 631q-47 0 -80 -23t-49.5 -65t-23.5 -89.5t-7 -108.5q0 -296 160 -296t160 296q0 61 -7 108.5t-23.5 89.5t-49.5 65t-80 23zM300 -10q-68 0 -115 27.5t-72.5 79t-36 111.5t-10.5 137q0 76 10.5 134.5t36 108t72.5 76t115 26.5t115 -26.5t72.5 -76t36 -108
t10.5 -134.5q0 -77 -10.5 -137t-36 -111.5t-72.5 -79t-115 -27.5z" />
    <glyph glyph-name="one.fitted" 
d="M54 59h217v540l-178 -98l-20 59q143 67 218 125h50v-626h205v-59h-492v59z" />
    <glyph glyph-name="two.fitted" 
d="M280 626q-81 0 -173 -42l-21 56q111 50 209 50q103 0 156 -57t53 -144q0 -104 -77.5 -207t-240.5 -218v-2h328v-62h-428v69q344 231 344 404q0 39 -11.5 68t-28 44.5t-38.5 25.5t-38.5 12.5t-33.5 2.5z" />
    <glyph glyph-name="three.fitted" 
d="M369 348v-2q72 -13 113.5 -58t41.5 -111q0 -90 -59 -138.5t-173 -48.5q-130 0 -216 47l23 54q83 -42 189 -42q52 0 87 13.5t50.5 36.5t21 42t5.5 40q0 59 -44 94.5t-133 35.5h-83v58h80q79 0 120.5 40.5t41.5 96.5q0 20 -6 39.5t-20.5 40t-45.5 33t-74 12.5
q-86 0 -173 -42l-21 54q90 47 205 47q96 0 150.5 -47t54.5 -130q0 -61 -37.5 -104t-97.5 -61z" />
    <glyph glyph-name="four.fitted" 
d="M129 242h246v346h-2q-79 -158 -244 -346zM357 680h88v-438h99v-58h-99v-184h-70v184h-319v58q205 224 301 438z" />
    <glyph glyph-name="five.fitted" 
d="M285 -10q-104 0 -209 50l21 54q93 -45 184 -45q78 0 123.5 44t45.5 121q0 63 -35 109t-113 46q-86 0 -141 -75l-52 5l17 381h358v-63h-297l-16 -259l2 -1q59 73 153 73q92 0 145 -56t53 -157q0 -108 -64.5 -167.5t-174.5 -59.5z" />
    <glyph glyph-name="six.fitted" 
d="M146 359l2 -1q69 97 169 97q97 0 152 -61.5t55 -173.5q0 -106 -61 -168t-155 -62q-53 0 -94 17.5t-66.5 46t-42 69.5t-23 84t-6.5 93q0 108 21.5 186t61 121t87.5 63t108 20q68 0 149 -24l-10 -55q-73 20 -133 20q-58 0 -101.5 -27.5t-66.5 -71.5t-34 -87t-12 -86z
M152 301q-10 -252 151 -252q62 0 104.5 45.5t42.5 125.5q0 32 -6.5 60t-22.5 55t-47 43t-75 16q-84 0 -147 -93z" />
    <glyph glyph-name="seven.fitted" 
d="M422 615v2h-321v63h398v-51q-216 -353 -260 -629h-78q21 137 98 311t163 304z" />
    <glyph glyph-name="eight.fitted" 
d="M364 359v-2q83 -34 126.5 -75.5t43.5 -107.5q0 -87 -63 -135.5t-173 -48.5q-108 0 -170 46.5t-62 131.5q0 119 169 180v2q-149 57 -149 170q0 79 60.5 124.5t155.5 45.5q92 0 152 -45t60 -122q0 -60 -37 -96t-113 -68zM138 174q0 -56 39.5 -93.5t124.5 -37.5
q84 0 122 35.5t38 90.5q0 32 -14 56.5t-44 43t-51.5 28.5t-62.5 25q-152 -53 -152 -148zM298 637q-53 0 -97.5 -27.5t-44.5 -88.5q0 -93 152 -136q64 22 100 53t36 79q0 63 -45 91.5t-101 28.5z" />
    <glyph glyph-name="nine.fitted" 
d="M454 321l-2 1q-69 -97 -169 -97q-98 0 -152.5 61.5t-54.5 173.5q0 106 61 168t155 62q53 0 94 -17.5t66.5 -46t42 -69.5t23 -84t6.5 -93q0 -108 -21.5 -186t-61 -121.5t-87.5 -63t-108 -19.5q-68 0 -149 24l10 55q73 -20 133 -20q58 0 101.5 27.5t66.5 71.5t34 87t12 86z
M448 379q10 252 -151 252q-62 0 -104.5 -45.5t-42.5 -125.5q0 -32 6.5 -60t22 -55t47 -43t75.5 -16q84 0 147 93z" />
    <glyph glyph-name="oneoldstyle" horiz-adv-x="366" 
d="M227 419l-179 -98l-19 59q146 69 218 125h50v-505h-70v419z" />
    <glyph glyph-name="threeoldstyle" horiz-adv-x="570" 
d="M354 168v-2q72 -13 113.5 -58t41.5 -111q0 -90 -59 -138.5t-173 -48.5q-130 0 -216 47l23 54q83 -42 189 -42q52 0 87 13.5t50.5 36.5t21 42t5.5 40q0 59 -44 94.5t-133 35.5h-83v58h80q79 0 120.5 40.5t41.5 96.5q0 20 -6 39.5t-20.5 40t-45.5 33t-74 12.5
q-86 0 -173 -42l-21 54q90 47 205 47q96 0 150.5 -47t54.5 -130q0 -61 -37.5 -104t-97.5 -61z" />
    <glyph glyph-name="fouroldstyle" 
d="M352 505h88v-446h99v-59h-99v-170h-70v170h-319v59q198 216 301 446zM124 59h246v367h-2q-107 -212 -244 -367z" />
    <glyph glyph-name="fiveoldstyle" horiz-adv-x="570" 
d="M270 -190q-104 0 -209 50l21 54q93 -45 184 -45q78 0 123.5 44t45.5 121q0 63 -35 109t-113 46q-85 0 -141 -75l-52 5l17 381h358v-63h-297l-16 -259l2 -1q59 73 153 73q92 0 145 -56t53 -157q0 -108 -64.5 -167.5t-174.5 -59.5z" />
    <glyph glyph-name="sixoldstyle" horiz-adv-x="570" 
d="M131 359l2 -1q69 97 169 97q97 0 152 -61.5t55 -173.5q0 -106 -61 -168t-155 -62q-53 0 -94 17.5t-66.5 46t-42 69.5t-23 84t-6.5 93q0 108 21.5 186t61 121t87.5 63t108 20q68 0 149 -24l-10 -55q-73 20 -133 20q-58 0 -101.5 -27.5t-66.5 -71.5t-34 -87t-12 -86z
M137 301q-10 -252 151 -252q62 0 104.5 45.5t42.5 125.5q0 32 -6.5 60t-22.5 55t-47 43t-75 16q-84 0 -147 -93z" />
    <glyph glyph-name="sevenoldstyle" horiz-adv-x="500" 
d="M372 435v2h-321v63h398v-51q-216 -353 -260 -629h-78q21 137 98 311t163 304z" />
    <glyph glyph-name="eightoldstyle" horiz-adv-x="590" 
d="M359 359v-2q83 -34 126.5 -75.5t43.5 -107.5q0 -87 -63 -135.5t-173 -48.5q-108 0 -170 46.5t-62 131.5q0 119 169 180v2q-149 57 -149 170q0 79 60.5 124.5t155.5 45.5q92 0 152 -45t60 -122q0 -60 -37 -96t-113 -68zM133 174q0 -56 39.5 -93.5t124.5 -37.5
q84 0 122 35.5t38 90.5q0 32 -14 56.5t-44 43t-51.5 28.5t-62.5 25q-152 -53 -152 -148zM293 637q-53 0 -97.5 -27.5t-44.5 -88.5q0 -93 152 -136q64 22 100 53t36 79q0 63 -45 91.5t-101 28.5z" />
    <glyph glyph-name="nineoldstyle" horiz-adv-x="570" 
d="M439 141l-2 1q-69 -97 -169 -97q-98 0 -152.5 61.5t-54.5 173.5q0 106 61 168t155 62q53 0 94 -17.5t66.5 -46t42 -69.5t23 -84t6.5 -93q0 -108 -21.5 -186t-61 -121.5t-87.5 -63t-108 -19.5q-68 0 -149 24l10 55q73 -20 133 -20q58 0 101.5 27.5t66.5 71.5t34 87t12 86z
M433 199q10 252 -151 252q-62 0 -104.5 -45.5t-42.5 -125.5q0 -32 6.5 -60t22 -55t47 -43t75.5 -16q84 0 147 93z" />
    <glyph glyph-name="zero.taboldstyle" 
d="M300 451q-76 0 -118 -57t-42 -144t42 -144t118 -57t118 57t42 144t-42 144t-118 57zM300 -10q-110 0 -172 71t-62 189t62 189t172 71t172 -71t62 -189t-62 -189t-172 -71z" />
    <glyph glyph-name="one.taboldstyle" 
d="M54 59h217v360l-178 -98l-20 59q143 67 218 125h50v-446h205v-59h-492v59z" />
    <glyph glyph-name="two.taboldstyle" 
d="M291 446q-94 0 -187 -42l-18 60q109 46 216 46q93 0 147.5 -45t54.5 -118q0 -31 -10 -59t-22.5 -49t-40 -43.5t-45 -35.5t-57 -33t-57 -28l-61.5 -27q-17 -7 -25 -11v-2l328 3v-62h-428v69q196 83 270 141t74 122q0 33 -14.5 57t-38 35.5t-45 16.5t-41.5 5z" />
    <glyph glyph-name="three.taboldstyle" 
d="M369 168v-2q72 -13 113.5 -58t41.5 -111q0 -90 -59 -138.5t-173 -48.5q-130 0 -216 47l23 54q83 -42 189 -42q52 0 87 13.5t50.5 36.5t21 42t5.5 40q0 59 -44 94.5t-133 35.5h-83v58h80q79 0 120.5 40.5t41.5 96.5q0 20 -6 39.5t-20.5 40t-45.5 33t-74 12.5
q-86 0 -173 -42l-21 54q90 47 205 47q96 0 150.5 -47t54.5 -130q0 -61 -37.5 -104t-97.5 -61z" />
    <glyph glyph-name="four.taboldstyle" 
d="M357 505h88v-446h99v-59h-99v-170h-70v170h-319v59q198 216 301 446zM129 59h246v367h-2q-107 -212 -244 -367z" />
    <glyph glyph-name="five.taboldstyle" 
d="M285 -190q-104 0 -209 50l21 54q93 -45 184 -45q78 0 123.5 44t45.5 121q0 63 -35 109t-113 46q-86 0 -141 -75l-52 5l17 381h358v-63h-297l-16 -259l2 -1q59 73 153 73q92 0 145 -56t53 -157q0 -108 -64.5 -167.5t-174.5 -59.5z" />
    <glyph glyph-name="six.taboldstyle" 
d="M146 359l2 -1q69 97 169 97q97 0 152 -61.5t55 -173.5q0 -106 -61 -168t-155 -62q-53 0 -94 17.5t-66.5 46t-42 69.5t-23 84t-6.5 93q0 108 21.5 186t61 121t87.5 63t108 20q68 0 149 -24l-10 -55q-73 20 -133 20q-58 0 -101.5 -27.5t-66.5 -71.5t-34 -87t-12 -86z
M152 301q-10 -252 151 -252q62 0 104.5 45.5t42.5 125.5q0 32 -6.5 60t-22.5 55t-47 43t-75 16q-84 0 -147 -93z" />
    <glyph glyph-name="seven.taboldstyle" 
d="M422 435v2h-321v63h398v-51q-216 -353 -260 -629h-78q21 137 98 311t163 304z" />
    <glyph glyph-name="eight.taboldstyle" 
d="M364 359v-2q83 -34 126.5 -75.5t43.5 -107.5q0 -87 -63 -135.5t-173 -48.5q-108 0 -170 46.5t-62 131.5q0 119 169 180v2q-149 57 -149 170q0 79 60.5 124.5t155.5 45.5q92 0 152 -45t60 -122q0 -60 -37 -96t-113 -68zM138 174q0 -56 39.5 -93.5t124.5 -37.5
q84 0 122 35.5t38 90.5q0 32 -14 56.5t-44 43t-51.5 28.5t-62.5 25q-152 -53 -152 -148zM298 637q-53 0 -97.5 -27.5t-44.5 -88.5q0 -93 152 -136q64 22 100 53t36 79q0 63 -45 91.5t-101 28.5z" />
    <glyph glyph-name="nine.taboldstyle" 
d="M454 141l-2 1q-69 -97 -169 -97q-98 0 -152.5 61.5t-54.5 173.5q0 106 61 168t155 62q53 0 94 -17.5t66.5 -46t42 -69.5t23 -84t6.5 -93q0 -108 -21.5 -186t-61 -121.5t-87.5 -63t-108 -19.5q-68 0 -149 24l10 55q73 -20 133 -20q58 0 101.5 27.5t66.5 71.5t34 87t12 86z
M448 199q10 252 -151 252q-62 0 -104.5 -45.5t-42.5 -125.5q0 -32 6.5 -60t22 -55t47 -43t75.5 -16q84 0 147 93z" />
    <glyph glyph-name="currency.taboldstyle" horiz-adv-x="513" 
d="M100 249q0 68 48 114l-78 90l8 8l79 -90q44 36 100 36q55 0 99 -36l78 90l9 -8l-78 -89q50 -47 50 -115t-49 -114l76 -86l-9 -9l-77 87q-43 -35 -99 -35q-57 0 -100 35l-76 -87l-9 9l76 86q-48 46 -48 114zM112 249q0 -59 43 -102t102 -43t102.5 43t43.5 102t-43.5 102.5
t-102.5 43.5t-102 -43.5t-43 -102.5z" />
    <glyph glyph-name="cent.taboldstyle" 
d="M341 451q-79 0 -124.5 -56t-45.5 -145t45.5 -145t124.5 -56q68 0 153 33l9 -55q-83 -37 -167 -37q-111 0 -175 71.5t-64 188.5t64 188.5t175 71.5q81 0 167 -37l-9 -55q-85 33 -153 33zM351 -130h-40v100h40v-100zM351 530h-40v100h40v-100z" />
    <glyph glyph-name="dollar.taboldstyle" 
d="M298 222q-88 16 -135 49.5t-47 103.5q0 65 50 100t129 35q107 0 195 -36l-13 -53q-96 32 -178 32q-34 0 -58.5 -9t-35.5 -23t-15 -24.5t-4 -19.5q0 -32 24.5 -54t95.5 -36q94 -20 141 -53t47 -102q0 -64 -50 -103t-129 -39q-121 0 -209 36l13 53q93 -32 188 -32
q35 0 60.5 9.5t36.5 24.5t15.5 26t4.5 20q0 33 -27 56.5t-99 38.5zM320 -130h-40v100h40v-100zM320 530h-40v100h40v-100z" />
    <glyph glyph-name="Euro.taboldstyle" 
d="M72 307h54q15 93 77 148t158 55q81 0 167 -37l-9 -55q-85 33 -153 33q-65 0 -107.5 -40t-55.5 -104h136v-25h-142q-1 -10 -1 -32t1 -33h142v-25h-136q13 -64 55.5 -103.5t107.5 -39.5q68 0 153 33l9 -55q-83 -37 -167 -37q-96 0 -158 54.5t-77 147.5h-54v25h51
q-1 11 -1 34q0 22 1 31h-51v25z" />
    <glyph glyph-name="franc.taboldstyle" 
d="M72 307h54q15 93 77 148t158 55q81 0 167 -37l-9 -55q-85 33 -153 33q-65 0 -107.5 -40t-55.5 -104h136v-25h-142q-1 -10 -1 -32t1 -33h142v-25h-136q13 -64 55.5 -103.5t107.5 -39.5q68 0 153 33l9 -55q-83 -37 -167 -37q-96 0 -158 54.5t-77 147.5h-54v25h51
q-1 11 -1 34q0 22 1 31h-51v25z" />
    <glyph glyph-name="sterling.taboldstyle" 
d="M334 231h-148v-169h328v-62h-448v62h50v169h-50v44h50v78q0 81 58 119t148 38q121 0 212 -56l-22 -52q-95 49 -193 49q-71 0 -102 -29t-31 -71v-76h148v-44z" />
    <glyph glyph-name="yen.taboldstyle" 
d="M346 200h113v-36h-124v-164h-70v164h-124v36h113l-183 300h85l145 -252h2l145 252h81z" />
    <glyph glyph-name="lira.taboldstyle" 
d="M72 307h54q15 93 77 148t158 55q81 0 167 -37l-9 -55q-85 33 -153 33q-65 0 -107.5 -40t-55.5 -104h136v-25h-142q-1 -10 -1 -32t1 -33h142v-25h-136q13 -64 55.5 -103.5t107.5 -39.5q68 0 153 33l9 -55q-83 -37 -167 -37q-96 0 -158 54.5t-77 147.5h-54v25h51
q-1 11 -1 34q0 22 1 31h-51v25z" />
    <glyph glyph-name="peseta.taboldstyle" 
d="M72 307h54q15 93 77 148t158 55q81 0 167 -37l-9 -55q-85 33 -153 33q-65 0 -107.5 -40t-55.5 -104h136v-25h-142q-1 -10 -1 -32t1 -33h142v-25h-136q13 -64 55.5 -103.5t107.5 -39.5q68 0 153 33l9 -55q-83 -37 -167 -37q-96 0 -158 54.5t-77 147.5h-54v25h51
q-1 11 -1 34q0 22 1 31h-51v25z" />
    <glyph glyph-name="colonmonetary.taboldstyle" 
d="M341 451q-79 0 -124.5 -56t-45.5 -145t45.5 -145t124.5 -56q68 0 153 33l9 -55q-83 -37 -167 -37q-111 0 -175 71.5t-64 188.5t64 188.5t175 71.5q81 0 167 -37l-9 -55q-85 33 -153 33zM293 -130h-40v100h40v-100zM293 530h-40v100h40v-100zM401 -130h-40v100h40v-100z
M401 530h-40v100h40v-100z" />
    <glyph glyph-name="florin.taboldstyle" 
d="M265 -42v491h-79v46l79 5v43q0 86 32.5 121.5t106.5 35.5q30 0 76 -7l-7 -55q-29 5 -54 5q-49 0 -66.5 -26.5t-17.5 -84.5v-32h140v-51h-140v-492q0 -89 -31.5 -128t-107.5 -39q-30 0 -76 7l7 55q29 -5 54 -5q49 0 66.5 26.5t17.5 84.5z" />
    <glyph glyph-name="numbersign.taboldstyle" 
d="M197 500h51l-13 -121h155l13 121h52l-13 -121h100l-5 -48h-100l-17 -162h100l-5 -48h-100l-13 -121h-52l14 121h-155l-14 -121h-51l13 121h-100l5 48h100l17 162h-100l5 48h100zM231 331l-18 -162h155l18 162h-155z" />
    <glyph glyph-name="hyphensuperior" horiz-adv-x="288" 
d="M49 726h190v-32h-190v32z" />
    <glyph glyph-name="commasuperior" horiz-adv-x="155" 
d="M81 465h-32q20 41 20 127h37q0 -88 -25 -127z" />
    <glyph glyph-name="periodsuperior" horiz-adv-x="135" 
d="M49 592h37v-62h-37v62z" />
    <glyph glyph-name="centsuperior" horiz-adv-x="359" 
d="M198 834q-56 0 -81.5 -37.5t-25.5 -98.5q0 -62 26 -102t81 -40q54 0 98 37l14 -30q-48 -43 -118 -43q-72 0 -107.5 50t-35.5 128q0 76 35.5 124t107.5 48q64 0 118 -42l-14 -31q-44 37 -98 37zM204 440h-22v60h22v-60zM204 890h-22v60h22v-60z" />
    <glyph glyph-name="dollarsuperior" horiz-adv-x="343" 
d="M186 440h-22v60h22v-60zM186 890h-22v60h22v-60zM165 681q-46 11 -76 36t-30 65q0 45 31.5 66.5t83.5 21.5q67 0 113 -29l-16 -31q-44 24 -97 24q-73 0 -73 -52q0 -45 91 -68q102 -23 102 -96q0 -47 -34 -72.5t-88 -25.5q-77 0 -123 36l18 29q46 -29 107 -29q36 0 57 16
t21 44q0 7 -2 13t-4 10.5t-7 9t-9 7.5t-11 6.5t-10.5 5t-12 4.5t-11 3.5t-11 3t-9.5 2.5z" />
    <glyph glyph-name="hypheninferior" horiz-adv-x="288" 
d="M49 -4h190v-32h-190v32z" />
    <glyph glyph-name="commainferior" horiz-adv-x="155" 
d="M81 -265h-32q20 41 20 127h37q0 -88 -25 -127z" />
    <glyph glyph-name="periodinferior" horiz-adv-x="135" 
d="M49 -138h37v-62h-37v62z" />
    <glyph glyph-name="centinferior" horiz-adv-x="359" 
d="M198 104q-56 0 -81.5 -37.5t-25.5 -98.5q0 -62 26 -102t81 -40q54 0 98 37l14 -30q-48 -43 -118 -43q-72 0 -107.5 50t-35.5 128q0 76 35.5 124t107.5 48q64 0 118 -42l-14 -31q-44 37 -98 37zM204 -290h-22v60h22v-60zM204 160h-22v60h22v-60z" />
    <glyph glyph-name="dollarinferior" horiz-adv-x="343" 
d="M186 -290h-22v60h22v-60zM186 160h-22v60h22v-60zM165 -49q-46 11 -76 36t-30 65q0 45 31.5 66.5t83.5 21.5q67 0 113 -29l-16 -31q-44 24 -97 24q-73 0 -73 -52q0 -45 91 -68q102 -23 102 -96q0 -47 -34 -72.5t-88 -25.5q-77 0 -123 36l18 29q46 -29 107 -29q36 0 57 16
t21 44q0 7 -2 13t-4 10.5t-7 9t-9 7.5t-11 6.5t-10.5 5t-12 4.5t-11 3.5t-11 3t-9.5 2.5z" />
    <glyph glyph-name="zero.denominator" horiz-adv-x="333" 
d="M167 309q-78 0 -78 -141q0 -147 78 -147t78 147q0 141 -78 141zM167 -10q-118 0 -118 178q0 172 118 172q117 0 117 -172q0 -178 -117 -178z" />
    <glyph glyph-name="one.denominator" horiz-adv-x="303" 
d="M44 31h103v268l-88 -47l-10 29q72 33 109 62h26v-312h103v-31h-243v31z" />
    <glyph glyph-name="two.denominator" horiz-adv-x="313" 
d="M146 310q-39 0 -86 -23l-11 29q53 29 107 29q51 0 77 -28.5t26 -72.5q0 -98 -157 -209v-1h162v-34h-215v37q171 114 171 199q0 24 -8 40t-21 22.5t-23.5 9t-21.5 2.5z" />
    <glyph glyph-name="three.denominator" horiz-adv-x="323" 
d="M198 169q36 -7 56 -30t20 -55q0 -45 -30 -69.5t-87 -24.5q-65 0 -108 27l12 30q49 -26 96 -26q43 0 60.5 18.5t17.5 41.5q0 68 -86 68h-41v32h39q39 0 59.5 19.5t20.5 46.5q0 24 -15.5 43t-53.5 19q-35 0 -89 -26l-11 29q47 28 104 28q47 0 74.5 -23.5t27.5 -65.5
q0 -30 -18.5 -51t-47.5 -31z" />
    <glyph glyph-name="four.denominator" horiz-adv-x="343" 
d="M88 122h120v169q-43 -82 -120 -169zM198 340h48v-218h48v-31h-48v-91h-38v91h-159v31q100 109 149 218z" />
    <glyph glyph-name="five.denominator" horiz-adv-x="323" 
d="M156 -10q-51 0 -107 29l11 29q53 -26 93 -27q36 0 59 22t23 59q0 31 -17 53.5t-55 22.5q-43 0 -70 -36l-27 2l8 191h180v-33h-148l-7 -126l1 -1q29 36 75 36t72.5 -28t26.5 -79q0 -52 -32.5 -83t-85.5 -31z" />
    <glyph glyph-name="six.denominator" horiz-adv-x="323" 
d="M86 175h1q34 47 84 47q48 0 75.5 -30.5t27.5 -86.5q0 -53 -30.5 -84t-78.5 -31q-116 0 -116 155q0 195 139 195q38 0 75 -14l-5 -30q-36 13 -67 13q-37 0 -61.5 -24t-33.5 -52t-10 -58zM89 145q-6 -124 74 -124q30 0 50.5 22.5t20.5 61.5q0 85 -73 85q-41 0 -72 -45z" />
    <glyph glyph-name="seven.denominator" horiz-adv-x="318" 
d="M228 306v1h-179v33h220v-28q-109 -179 -130 -312h-40q11 68 48.5 154.5t80.5 151.5z" />
    <glyph glyph-name="eight.denominator" horiz-adv-x="333" 
d="M201 175q41 -19 62 -40t21 -53q0 -43 -32 -67.5t-86 -24.5t-85.5 23.5t-31.5 65.5q0 59 83 90q-36 15 -54.5 34.5t-18.5 50.5q0 40 30.5 63t77.5 23t77 -22.5t30 -61.5q0 -30 -18.5 -48t-54.5 -33zM87 82q0 -28 20.5 -45.5t60.5 -17.5q78 0 78 61q0 28 -21.5 43.5
t-63.5 30.5q-74 -25 -74 -72zM166 312q-26 0 -48 -13t-22 -44q0 -45 75 -67q66 24 66 65q0 31 -22 45t-49 14z" />
    <glyph glyph-name="nine.denominator" horiz-adv-x="323" 
d="M237 155h-1q-34 -47 -84 -47q-48 0 -75.5 30.5t-27.5 86.5q0 53 30.5 84t78.5 31q116 0 116 -155q0 -195 -139 -195q-38 0 -75 14l5 30q36 -13 67 -13q37 0 61.5 24t33.5 52t10 58zM234 185q6 124 -74 124q-30 0 -50.5 -22.5t-20.5 -61.5q0 -85 73 -85q41 0 72 45z" />
    <glyph glyph-name="parenleft.denominator" horiz-adv-x="209" 
d="M49 160q0 130 85 240h26q-74 -120 -74 -240q0 -117 74 -240h-26q-85 110 -85 240z" />
    <glyph glyph-name="parenright.denominator" horiz-adv-x="209" 
d="M160 160q0 -128 -85 -240h-26q73 122 73 240q0 121 -73 240h26q85 -112 85 -240z" />
    <glyph glyph-name="cent.denominator" horiz-adv-x="359" 
d="M198 304q-56 0 -81.5 -37.5t-25.5 -98.5q0 -62 26 -102t81 -40q54 0 98 37l14 -30q-48 -43 -118 -43q-72 0 -107.5 50t-35.5 128q0 76 35.5 124t107.5 48q64 0 118 -42l-14 -31q-44 37 -98 37zM204 -90h-22v60h22v-60zM204 360h-22v60h22v-60z" />
    <glyph glyph-name="dollar.denominator" horiz-adv-x="343" 
d="M186 -90h-22v60h22v-60zM186 360h-22v60h22v-60zM165 151q-46 11 -76 36t-30 65q0 45 31.5 66.5t83.5 21.5q67 0 113 -29l-16 -31q-44 24 -97 24q-73 0 -73 -52q0 -45 91 -68q102 -23 102 -96q0 -47 -34 -72.5t-88 -25.5q-77 0 -123 36l18 29q46 -29 107 -29q36 0 57 16
t21 44q0 7 -2 13t-4 10.5t-7 9t-9 7.5t-11 6.5t-10.5 5t-12 4.5t-11 3.5t-11 3t-9.5 2.5z" />
    <glyph glyph-name="hyphen.denominator" horiz-adv-x="288" 
d="M49 196h190v-32h-190v32z" />
    <glyph glyph-name="comma.denominator" horiz-adv-x="155" 
d="M81 -65h-32q20 41 20 127h37q0 -88 -25 -127z" />
    <glyph glyph-name="period.denominator" horiz-adv-x="135" 
d="M49 62h37v-62h-37v62z" />
    <glyph glyph-name="zero.numerator" horiz-adv-x="333" 
d="M167 639q-78 0 -78 -141q0 -147 78 -147t78 147q0 141 -78 141zM167 320q-118 0 -118 178q0 172 118 172q117 0 117 -172q0 -178 -117 -178z" />
    <glyph glyph-name="one.numerator" horiz-adv-x="303" 
d="M44 361h103v268l-88 -47l-10 29q72 33 109 62h26v-312h103v-31h-243v31z" />
    <glyph glyph-name="two.numerator" horiz-adv-x="313" 
d="M146 640q-39 0 -86 -23l-11 29q53 29 107 29q51 0 77 -28.5t26 -72.5q0 -98 -157 -209v-1h162v-34h-215v37q171 114 171 199q0 24 -8 40t-21 22.5t-23.5 9t-21.5 2.5z" />
    <glyph glyph-name="three.numerator" horiz-adv-x="323" 
d="M198 499q36 -7 56 -30t20 -55q0 -45 -30 -69.5t-87 -24.5q-65 0 -108 27l12 30q49 -26 96 -26q43 0 60.5 18.5t17.5 41.5q0 68 -86 68h-41v32h39q39 0 59.5 19.5t20.5 46.5q0 24 -15.5 43t-53.5 19q-35 0 -89 -26l-11 29q47 28 104 28q47 0 74.5 -23.5t27.5 -65.5
q0 -30 -18.5 -51t-47.5 -31z" />
    <glyph glyph-name="four.numerator" horiz-adv-x="343" 
d="M88 452h120v169q-43 -82 -120 -169zM198 670h48v-218h48v-31h-48v-91h-38v91h-159v31q100 109 149 218z" />
    <glyph glyph-name="five.numerator" horiz-adv-x="323" 
d="M156 320q-51 0 -107 29l11 29q53 -26 93 -27q36 0 59 22t23 59q0 31 -17 53.5t-55 22.5q-43 0 -70 -36l-27 2l8 191h180v-33h-148l-7 -126l1 -1q29 36 75 36t72.5 -28t26.5 -79q0 -52 -32.5 -83t-85.5 -31z" />
    <glyph glyph-name="six.numerator" horiz-adv-x="323" 
d="M86 505h1q34 47 84 47q48 0 75.5 -30.5t27.5 -86.5q0 -53 -30.5 -84t-78.5 -31q-116 0 -116 155q0 195 139 195q38 0 75 -14l-5 -30q-36 13 -67 13q-37 0 -61.5 -24t-33.5 -52t-10 -58zM89 475q-6 -124 74 -124q30 0 50.5 22.5t20.5 61.5q0 85 -73 85q-41 0 -72 -45z" />
    <glyph glyph-name="seven.numerator" horiz-adv-x="318" 
d="M228 636v1h-179v33h220v-28q-109 -179 -130 -312h-40q11 68 48.5 154.5t80.5 151.5z" />
    <glyph glyph-name="eight.numerator" horiz-adv-x="333" 
d="M201 505q41 -19 62 -40t21 -53q0 -43 -32 -67.5t-86 -24.5t-85.5 23.5t-31.5 65.5q0 59 83 90q-36 15 -54.5 34.5t-18.5 50.5q0 40 30.5 63t77.5 23t77 -22.5t30 -61.5q0 -30 -18.5 -48t-54.5 -33zM87 412q0 -28 20.5 -45.5t60.5 -17.5q78 0 78 61q0 28 -21.5 43.5
t-63.5 30.5q-74 -25 -74 -72zM166 642q-26 0 -48 -13t-22 -44q0 -45 75 -67q66 24 66 65q0 31 -22 45t-49 14z" />
    <glyph glyph-name="nine.numerator" horiz-adv-x="323" 
d="M237 485h-1q-34 -47 -84 -47q-48 0 -75.5 30.5t-27.5 86.5q0 53 30.5 84t78.5 31q116 0 116 -155q0 -195 -139 -195q-38 0 -75 14l5 30q36 -13 67 -13q37 0 61.5 24t33.5 52t10 58zM234 515q6 124 -74 124q-30 0 -50.5 -22.5t-20.5 -61.5q0 -85 73 -85q41 0 72 45z" />
    <glyph glyph-name="parenleft.numerator" horiz-adv-x="209" 
d="M49 490q0 130 85 240h26q-74 -120 -74 -240q0 -117 74 -240h-26q-85 110 -85 240z" />
    <glyph glyph-name="parenright.numerator" horiz-adv-x="209" 
d="M160 490q0 -128 -85 -240h-26q73 122 73 240q0 121 -73 240h26q85 -112 85 -240z" />
    <glyph glyph-name="cent.numerator" horiz-adv-x="359" 
d="M198 634q-56 0 -81.5 -37.5t-25.5 -98.5q0 -62 26 -102t81 -40q54 0 98 37l14 -30q-48 -43 -118 -43q-72 0 -107.5 50t-35.5 128q0 76 35.5 124t107.5 48q64 0 118 -42l-14 -31q-44 37 -98 37zM204 240h-22v60h22v-60zM204 690h-22v60h22v-60z" />
    <glyph glyph-name="dollar.numerator" horiz-adv-x="343" 
d="M186 240h-22v60h22v-60zM186 690h-22v60h22v-60zM165 481q-46 11 -76 36t-30 65q0 45 31.5 66.5t83.5 21.5q67 0 113 -29l-16 -31q-44 24 -97 24q-73 0 -73 -52q0 -45 91 -68q102 -23 102 -96q0 -47 -34 -72.5t-88 -25.5q-77 0 -123 36l18 29q46 -29 107 -29q36 0 57 16
t21 44q0 7 -2 13t-4 10.5t-7 9t-9 7.5t-11 6.5t-10.5 5t-12 4.5t-11 3.5t-11 3t-9.5 2.5z" />
    <glyph glyph-name="hyphen.numerator" horiz-adv-x="288" 
d="M49 526h190v-32h-190v32z" />
    <glyph glyph-name="comma.numerator" horiz-adv-x="155" 
d="M81 265h-32q20 41 20 127h37q0 -88 -25 -127z" />
    <glyph glyph-name="period.numerator" horiz-adv-x="135" 
d="M49 392h37v-62h-37v62z" />
    <glyph glyph-name="exclamsmall" horiz-adv-x="192" 
d="M61 122h70v-122h-70v122zM61 580h70l-4 -366h-62z" />
    <glyph glyph-name="exclamdownsmall" horiz-adv-x="192" 
d="M131 457h-70v123h70v-123zM131 0h-70l4 366h62z" />
    <glyph glyph-name="at.cap" horiz-adv-x="830" 
d="M560 413v-224q55 0 95 21.5t60.5 56t29.5 68.5t9 69q0 128 -93 207t-227 79q-157 0 -257.5 -99t-100.5 -258q0 -145 92.5 -238.5t234.5 -93.5l-4 -41q-161 0 -265 106t-104 267q0 174 114.5 286.5t289.5 112.5q154 0 260 -91.5t106 -234.5q0 -112 -65 -186t-182 -74h-49
v39h-2q-50 -46 -125 -46q-58 0 -92.5 30t-34.5 81q0 119 164 119h90v41q0 44 -21 65.5t-72 21.5q-55 0 -127 -22l-11 39q81 27 151 27q68 0 102 -28.5t34 -99.5zM504 220v114h-88q-60 0 -84.5 -20t-24.5 -59q0 -34 23 -53t66 -19q64 0 108 37z" />
    <glyph glyph-name="parenleft.cap" horiz-adv-x="330" 
d="M71 340q0 124 44.5 249t125.5 231h48q-148 -241 -148 -480q0 -233 148 -480h-48q-80 105 -125 231t-45 249z" />
    <glyph glyph-name="parenright.cap" horiz-adv-x="330" 
d="M259 340q0 -123 -45 -249t-125 -231h-48q148 247 148 480q0 239 -148 480h48q81 -106 125.5 -231t44.5 -249z" />
    <glyph glyph-name="bracketleft.cap" horiz-adv-x="300" 
d="M135 -96h124v-44h-198v960h198v-44h-124v-872z" />
    <glyph glyph-name="bracketright.cap" horiz-adv-x="300" 
d="M41 -96h124v872h-124v44h198v-960h-198v44z" />
    <glyph glyph-name="braceleft.cap" horiz-adv-x="340" 
d="M195 7q0 -33 6.5 -55.5t15 -34t25 -17.5t27 -7t30.5 -1v-32q-90 0 -134 29t-44 117q0 31 5 95.5t5 93.5q0 31 -1.5 46t-7.5 35t-21 29.5t-40 13.5v42q25 4 40 13.5t21 29.5t7.5 35t1.5 46q0 29 -5 93.5t-5 95.5q0 88 44 117t134 29v-33q-25 0 -38.5 -2t-31.5 -12t-26 -35
t-8 -66q0 -30 5.5 -106t5.5 -107q0 -56 -21.5 -82t-63.5 -36v-2q42 -10 63.5 -36t21.5 -82q0 -31 -5.5 -107.5t-5.5 -106.5z" />
    <glyph glyph-name="braceright.cap" horiz-adv-x="340" 
d="M145 672q0 41 -8 66t-26 35t-31.5 12t-38.5 2v33q89 0 133.5 -29.5t44.5 -116.5q0 -31 -5 -95.5t-5 -93.5q0 -31 1.5 -46t7.5 -35t21 -29.5t40 -13.5v-42q-25 -4 -40 -13.5t-21 -29.5t-7.5 -35t-1.5 -46q0 -29 5 -93.5t5 -95.5q0 -88 -44 -117t-134 -29v32q20 0 30.5 1
t27 7t25 17.5t15 34t6.5 55.5q0 30 -6 106.5t-6 107.5q0 56 22 82t64 36v2q-42 10 -64 36t-22 82q0 31 6 107t6 106z" />
    <glyph glyph-name="exclamdown.cap" horiz-adv-x="192" 
d="M61 122h70v-122h-70v122zM61 680h70l-4 -466h-62z" />
    <glyph glyph-name="questiondown.cap" horiz-adv-x="480" 
d="M241 -10q-55 0 -94 15.5t-59 41.5t-28.5 54t-8.5 60q0 42 14 75.5t35.5 53t46 38.5t46 32.5t35.5 34t14 45.5v30h63v-30q0 -33 -13.5 -59.5t-33.5 -43t-44 -34.5l-44 -34t-33.5 -42.5t-13.5 -58.5q0 -112 134 -112q62 0 151 33l21 -61q-95 -38 -188 -38zM309 557h-70v123
h70v-123z" />
    <glyph glyph-name="guillemotleft.cap" horiz-adv-x="649" 
d="M61 312l258 167v-64l-184 -125l184 -125v-64l-258 167v44zM330 312l257 167v-64l-183 -125l183 -125v-64l-257 167v44z" />
    <glyph glyph-name="guillemotright.cap" horiz-adv-x="649" 
d="M330 479l257 -167v-44l-257 -167v64l184 125l-184 125v64zM61 479l258 -167v-44l-258 -167v64l184 125l-184 125v64z" />
    <glyph glyph-name="guilsinglleft.cap" horiz-adv-x="380" 
d="M61 312l258 167v-64l-184 -125l184 -125v-64l-258 167v44z" />
    <glyph glyph-name="guilsinglright.cap" horiz-adv-x="380" 
d="M319 268l-258 -167v64l184 125l-184 125v64l258 -167v-44z" />
    <glyph glyph-name="hyphen.cap" horiz-adv-x="500" 
d="M61 334h378v-58h-378v58z" />
    <glyph glyph-name="endash.cap" horiz-adv-x="694" 
d="M61 334h571v-58h-571v58z" />
    <glyph glyph-name="emdash.cap" horiz-adv-x="760" 
d="M61 334h638v-58h-638v58z" />
    <glyph glyph-name="periodcentered.cap" horiz-adv-x="225" 
d="M81 367h63v-115h-63v115z" />
    <glyph glyph-name="questiondownsmall" horiz-adv-x="480" 
d="M241 0q-97 0 -143.5 39t-46.5 102q0 40 14 68.5t35.5 43t46 28t46 23t35.5 27.5t14 43v26h63v-30q0 -39 -18.5 -64.5t-45.5 -38.5l-54 -25t-45.5 -34.5t-18.5 -56.5q0 -89 134 -89q64 0 155 37l17 -53q-102 -46 -188 -46zM309 487h-70v123h70v-123z" />
    <glyph glyph-name="percent.oldstyle" horiz-adv-x="760" 
d="M589 580l-370 -580h-48l370 580h48zM181 312q-64 0 -98 36t-34 100t34 100t98 36t98.5 -36t34.5 -100t-34.5 -100t-98.5 -36zM181 350q87 0 87 98t-87 98t-87 -98t87 -98zM579 -4q-64 0 -98.5 36t-34.5 100t34.5 100t98.5 36t98 -36t34 -100t-34 -100t-98 -36zM579 34
q87 0 87 98t-87 98t-87 -98t87 -98z" />
    <glyph glyph-name="perthousand.oldstyle" horiz-adv-x="1075" 
d="M579 -4q-64 0 -98.5 36t-34.5 100t34.5 100t98.5 36t98 -36t34 -100t-34 -100t-98 -36zM579 34q87 0 87 98t-87 98t-87 -98t87 -98zM894 -4q-64 0 -98.5 36t-34.5 100t34.5 100t98.5 36t98 -36t34 -100t-34 -100t-98 -36zM894 34q87 0 87 98t-87 98t-87 -98t87 -98z
M589 580l-370 -580h-48l370 580h48zM181 312q-64 0 -98 36t-34 100t34 100t98 36t98.5 -36t34.5 -100t-34.5 -100t-98.5 -36zM181 350q87 0 87 98t-87 98t-87 -98t87 -98z" />
    <glyph glyph-name="threequartersemdash" horiz-adv-x="760" 
d="M61 294h638v-58h-638v58z" />
    <glyph glyph-name="overscore" horiz-adv-x="427" 
d="M62 645h303v-44h-303v44z" />
    <glyph glyph-name="ampersand.alt" horiz-adv-x="840" 
d="M556 227h-279q-27 0 -55 -6t-54 -26.5t-26 -53.5q0 -92 134 -92q83 0 161 30l10 -55q-92 -34 -187 -34q-97 0 -148 36t-51 104q0 53 36 83t95 40v2q-111 25 -111 125q0 48 27.5 78t67.5 41t94 11q97 0 177 -34l-9 -55q-78 30 -159 30q-50 0 -87 -19t-37 -67
q0 -11 4 -22.5t15 -27.5t37.5 -26t65.5 -10h279l9 221h61v-221h148v-46h-148v-75q0 -58 20 -84.5t71 -26.5q26 0 55 5q4 -39 7 -55q-45 -7 -84 -7q-74 0 -106.5 35.5t-32.5 121.5v80z" />
  </font>
</defs>
</svg>
