<?xml version="1.0" standalone="no"?>
<!DOCTYPE svg PUBLIC "-//W3C//DTD SVG 1.1//EN" "http://www.w3.org/Graphics/SVG/1.1/DTD/svg11.dtd" >
<svg>
<metadata>
Created by FontForge 20090622 at Mon Jul 27 08:13:54 2015
 By deploy user
Copyright (c) 2008 by Dino dos Santos _DSType. All rights reserved.
</metadata>
<defs>
<font id="Prelo-Exbd" horiz-adv-x="600" >
  <font-face 
    font-family="Prelo Exbd"
    font-weight="800"
    font-stretch="normal"
    units-per-em="1000"
    panose-1="2 0 5 6 4 0 0 2 0 4"
    ascent="750"
    descent="-250"
    x-height="500"
    cap-height="680"
    bbox="-69 -290 1116 950"
    underline-thickness="50"
    underline-position="-50"
    unicode-range="U+0020-U+FB06"
  />
<missing-glyph horiz-adv-x="590" 
d="M70 500h450v-500h-450v500zM287 249l-206 236v-469zM304 249l205 -231v465zM93 488l203 -229l202 229h-405zM296 240l-201 -228h401z" />
    <glyph glyph-name="ff" unicode="ff" horiz-adv-x="640" 
d="M371 500v48q0 78 38 115t126 37q39 0 91 -9l-13 -115q-28 5 -43 5q-27 0 -38 -14.5t-11 -44.5v-22h100v-106h-100v-394h-150v394h-145v-394h-150v394h-64v97l64 9v48q0 78 38 115t126 37q39 0 91 -9l-13 -115q-28 5 -43 5q-27 0 -38 -14.5t-11 -44.5v-22h145z" />
    <glyph glyph-name="fi" unicode="fi" horiz-adv-x="557" 
d="M76 500v22q0 85 48.5 131.5t171.5 46.5q42 0 105.5 -10t92.5 -21l-14 -106q-82 18 -166 18q-31 0 -50 -4.5t-26.5 -14.5t-9.5 -18t-2 -22v-22h295v-500h-150v394h-145v-394h-150v394h-64v97z" />
    <glyph glyph-name="fl" unicode="fl" horiz-adv-x="557" 
d="M226 394v-394h-150v394h-64v97l64 9v22q0 85 48.5 131.5t171.5 46.5q70 0 119 -13h106v-687h-150v573q-31 8 -57 8q-40 0 -60.5 -9.5t-24 -20t-3.5 -29.5v-22h100v-106h-100z" />
    <glyph glyph-name="ffi" unicode="ffi" horiz-adv-x="852" 
d="M371 394h-145v-394h-150v394h-64v97l64 9v48q0 78 38 115t126 37q39 0 91 -9l-13 -115q-28 5 -43 5q-27 0 -38 -14.5t-11 -44.5v-22h145v22q0 85 48.5 131.5t171.5 46.5q42 0 105.5 -10t92.5 -21l-14 -106q-82 18 -166 18q-31 0 -50 -4.5t-26.5 -14.5t-9.5 -18t-2 -22
v-22h295v-500h-150v394h-145v-394h-150v394z" />
    <glyph glyph-name="ffl" unicode="ffl" horiz-adv-x="852" 
d="M371 394h-145v-394h-150v394h-64v97l64 9v48q0 78 38 115t126 37q39 0 91 -9l-13 -115q-28 5 -43 5q-27 0 -38 -14.5t-11 -44.5v-22h145v22q0 85 48.5 131.5t171.5 46.5q70 0 119 -13h106v-687h-150v573q-31 8 -57 8q-40 0 -60.5 -9.5t-24 -20t-3.5 -29.5v-22h100v-106
h-100v-394h-150v394z" />
    <glyph glyph-name="T_h" unicode="Th" horiz-adv-x="1030" 
d="M686 357v-357h-150v539h-177v-539h-158v539h-175v141h660v-243h2q65 73 156 73q73 0 111.5 -45.5t38.5 -123.5v-341h-150v306q0 80 -70 80q-37 0 -88 -29z" />
    <glyph glyph-name="T_h.caron" unicode="&#x164;h" horiz-adv-x="1030" 
d="M686 357v-357h-150v539h-177v-539h-158v539h-175v141h660v-243h2q65 73 156 73q73 0 111.5 -45.5t38.5 -123.5v-341h-150v306q0 80 -70 80q-37 0 -88 -29zM243 850l39 -60l39 60h115l-101 -140h-106l-101 140h115z" />
    <glyph glyph-name="T_h.commaaccent" unicode="&#x162;h" horiz-adv-x="1030" 
d="M686 357v-357h-150v539h-177v-539h-158v539h-175v141h660v-243h2q65 73 156 73q73 0 111.5 -45.5t38.5 -123.5v-341h-150v306q0 80 -70 80q-37 0 -88 -29zM277 -216h-45l27 81h-44v95h133v-95z" />
    <glyph glyph-name="f_f_j" unicode="ffj" horiz-adv-x="852" 
d="M666 -45v439h-145v-394h-150v394h-145v-394h-150v394h-64v97l64 9v48q0 78 38 115t126 37q39 0 91 -9l-13 -115q-28 5 -43 5q-27 0 -38 -14.5t-11 -44.5v-22h145v22q0 85 48.5 131.5t171.5 46.5q42 0 105.5 -10t92.5 -21l-14 -106q-82 18 -166 18q-31 0 -50 -4.5
t-26.5 -14.5t-9.5 -18t-2 -22v-22h295v-556q0 -79 -35 -116.5t-129 -37.5q-39 0 -91 9l14 115q27 -5 42 -5q28 0 38.5 9t10.5 37z" />
    <glyph glyph-name="f_j" unicode="fj" horiz-adv-x="557" 
d="M371 -45v439h-145v-394h-150v394h-64v97l64 9v22q0 85 48.5 131.5t171.5 46.5q42 0 105.5 -10t92.5 -21l-14 -106q-82 18 -166 18q-31 0 -50 -4.5t-26.5 -14.5t-9.5 -18t-2 -22v-22h295v-556q0 -79 -35 -116.5t-129 -37.5q-39 0 -91 9l14 115q27 -5 42 -5q28 0 38.5 9
t10.5 37z" />
    <glyph glyph-name=".notdef" horiz-adv-x="590" 
d="M70 500h450v-500h-450v500zM287 249l-206 236v-469zM304 249l205 -231v465zM93 488l203 -229l202 229h-405zM296 240l-201 -228h401z" />
    <glyph glyph-name=".null" horiz-adv-x="0" 
 />
    <glyph glyph-name="nonmarkingreturn" horiz-adv-x="333" 
 />
    <glyph glyph-name="space" unicode=" " horiz-adv-x="180" 
 />
    <glyph glyph-name="exclam" unicode="!" horiz-adv-x="222" 
d="M36 152h150v-152h-150v152zM36 680h150l-9 -461h-132z" />
    <glyph glyph-name="quotedbl" unicode="&#x22;" horiz-adv-x="422" 
d="M36 680h150l-17 -161h-115zM236 680h150l-17 -161h-115z" />
    <glyph glyph-name="numbersign" unicode="#" horiz-adv-x="612" 
d="M179 500h106l-11 -96h95l11 96h106l-11 -96h100l-9 -98h-100l-13 -112h100l-9 -98h-100l-11 -96h-106l10 96h-95l-10 -96h-106l10 96h-100l10 98h100l12 112h-100l10 98h100zM264 306l-12 -112h95l12 112h-95z" />
    <glyph glyph-name="dollar" unicode="$" 
d="M336 -100h-63v91q-127 4 -237 38l27 132q123 -30 237 -30q96 0 96 63q0 15 -9.5 27.5t-29 21.5t-34.5 14t-42.5 12t-36.5 10q-198 59 -198 216q0 92 62.5 140t164.5 54v91h63v-91q61 -4 99.5 -11t109.5 -27l-35 -132q-124 30 -210 30t-86 -58q0 -8 2.5 -15.5t9 -13.5
t12 -10.5t17 -9.5l18.5 -8t21.5 -7t21 -5.5t22.5 -5.5t21 -5q205 -49 205 -206q0 -98 -63.5 -153t-164.5 -60v-92z" />
    <glyph glyph-name="percent" unicode="%" horiz-adv-x="760" 
d="M614 680l-370 -680h-98l370 680h98zM180 388q-70 0 -108 40t-38 110q0 71 38 111t108 40q71 0 109 -40t38 -111q0 -70 -38 -110t-109 -40zM180 463q54 0 54 75q0 76 -54 76q-53 0 -53 -76q0 -75 53 -75zM580 -9q-71 0 -109 40t-38 111q0 70 38 110t109 40q70 0 108 -40
t38 -110q0 -71 -38 -111t-108 -40zM580 66q53 0 53 76q0 75 -53 75q-54 0 -54 -75q0 -76 54 -76z" />
    <glyph glyph-name="ampersand" unicode="&#x26;" horiz-adv-x="705" 
d="M519 519q0 -90 -126 -163l115 -109q32 54 39 103h142q-16 -110 -85 -203l75 -77l-98 -106l-83 87q-92 -61 -213 -61q-126 0 -187.5 52t-61.5 139q0 54 31.5 98.5t116.5 94.5q-36 45 -52 76.5t-16 65.5q0 82 61.5 128t147.5 46q91 0 142.5 -45.5t51.5 -125.5zM295 118
q65 0 111 29l-146 151q-66 -43 -66 -94q0 -39 28.5 -62.5t72.5 -23.5zM262 523q0 -37 45 -87q70 45 70 88q0 32 -15.5 48t-40.5 16q-30 0 -44.5 -18.5t-14.5 -46.5z" />
    <glyph glyph-name="quotesingle" unicode="'" horiz-adv-x="222" 
d="M36 680h150l-17 -161h-115z" />
    <glyph glyph-name="parenleft" unicode="(" horiz-adv-x="330" 
d="M38 340q0 128 45 252.5t133 227.5h98q-126 -220 -126 -480q0 -247 126 -480h-98q-87 103 -132.5 228.5t-45.5 251.5z" />
    <glyph glyph-name="parenright" unicode=")" horiz-adv-x="330" 
d="M292 340q0 -126 -45.5 -251.5t-132.5 -228.5h-98q126 233 126 480q0 260 -126 480h98q88 -103 133 -227.5t45 -252.5z" />
    <glyph glyph-name="asterisk" unicode="*" horiz-adv-x="412" 
d="M175 560l-12 120h85l-11 -120l116 48l26 -84l-122 -12l81 -90l-67 -51l-66 113l-65 -113l-67 51l81 90l-122 12l25 84z" />
    <glyph glyph-name="plus" unicode="+" horiz-adv-x="500" 
d="M312 479v-152h152v-124h-152v-152h-124v152h-152v124h152v152h124z" />
    <glyph glyph-name="comma" unicode="," horiz-adv-x="222" 
d="M115 -130h-45l27 130h-61v152h150v-152z" />
    <glyph glyph-name="hyphen" unicode="-" horiz-adv-x="500" 
d="M36 327h428v-124h-428v124z" />
    <glyph glyph-name="period" unicode="." horiz-adv-x="222" 
d="M36 152h150v-152h-150v152z" />
    <glyph glyph-name="slash" unicode="/" horiz-adv-x="540" 
d="M521 680l-370 -680h-132l370 680h132z" />
    <glyph glyph-name="zero" unicode="0" horiz-adv-x="590" 
d="M295 566q-55 0 -77.5 -57.5t-22.5 -163.5q0 -231 100 -231t100 231q0 106 -22.5 163.5t-77.5 57.5zM295 -10q-76 0 -128.5 27.5t-80 78.5t-39 111t-11.5 138q0 62 6.5 111t24.5 94t46.5 75t74.5 47.5t107 17.5t107 -17.5t74.5 -47.5t46.5 -75t24.5 -94t6.5 -111
q0 -78 -11.5 -138t-39 -111t-80 -78.5t-128.5 -27.5z" />
    <glyph glyph-name="one" unicode="1" horiz-adv-x="385" 
d="M181 509l-130 -53l-37 124q141 49 207 105h110v-685h-150v509z" />
    <glyph glyph-name="two" unicode="2" horiz-adv-x="550" 
d="M235 553q-68 0 -155 -32l-44 119q126 50 234 50q113 0 173.5 -58t60.5 -150q0 -98 -63.5 -177.5t-192.5 -170.5v-2h266v-132h-478v142q178 111 243.5 180.5t65.5 128.5q0 102 -110 102z" />
    <glyph glyph-name="three" unicode="3" horiz-adv-x="570" 
d="M400 357v-2q67 -18 100.5 -63.5t33.5 -104.5q0 -94 -67.5 -145.5t-187.5 -51.5q-136 0 -243 49l45 115q89 -40 190 -40q56 0 82 24.5t26 57.5q0 82 -119 82h-93v124h86q111 0 111 91q0 30 -24 51.5t-69 21.5q-82 0 -177 -40l-44 115q111 49 247 49q92 0 154.5 -47
t62.5 -133q0 -108 -114 -153z" />
    <glyph glyph-name="four" unicode="4" horiz-adv-x="590" 
d="M179 272h151v214h-2q-53 -96 -149 -214zM294 680h186v-408h84v-123h-84v-149h-150v149h-304v123q171 187 268 408z" />
    <glyph glyph-name="five" unicode="5" horiz-adv-x="570" 
d="M270 -10q-124 0 -234 50l44 115q94 -41 181 -41q57 0 85.5 29.5t28.5 75.5q0 42 -23 72.5t-75 30.5q-57 0 -96 -39l-106 9l11 388h408v-133h-278l-7 -135l2 -1q53 39 121 39q92 0 147 -58t55 -165q0 -116 -69 -176.5t-195 -60.5z" />
    <glyph glyph-name="six" unicode="6" horiz-adv-x="570" 
d="M186 394l2 -1q55 62 136 62q98 0 154 -62t56 -173q0 -106 -66.5 -168t-174.5 -62q-128 0 -192.5 89t-64.5 221q0 390 303 390q89 0 174 -29l-18 -115q-83 20 -143 20q-66 0 -116.5 -43.5t-49.5 -128.5zM199 284q-5 -45 -0.5 -81t26.5 -62.5t61 -26.5t64 28t25 78
q0 43 -20.5 74t-70.5 31q-44 0 -85 -41z" />
    <glyph glyph-name="seven" unicode="7" horiz-adv-x="500" 
d="M310 545v2h-284v133h448v-106q-58 -103 -91.5 -170t-72 -177.5t-56.5 -226.5h-168q22 129 83.5 277.5t140.5 267.5z" />
    <glyph glyph-name="eight" unicode="8" horiz-adv-x="590" 
d="M425 359v-2q129 -65 129 -170q0 -99 -75.5 -148t-187.5 -49q-69 0 -124.5 17t-93 59.5t-37.5 104.5q0 112 127 165v2q-107 57 -107 166q0 90 71.5 138t171.5 48q94 0 164.5 -47t70.5 -131q0 -53 -27 -88.5t-82 -64.5zM191 187q0 -35 27 -60.5t82 -25.5q51 0 75 20.5
t24 52.5q0 13 -3.5 24.5t-13 21l-16.5 16t-22.5 14l-23 11t-26 10.5t-22.5 9q-81 -32 -81 -93zM291 579q-37 0 -61 -20.5t-24 -50.5q0 -36 31.5 -60.5t75.5 -35.5q31 11 51 34t20 53q0 35 -25.5 57.5t-67.5 22.5z" />
    <glyph glyph-name="nine" unicode="9" horiz-adv-x="570" 
d="M384 286l-2 1q-55 -62 -136 -62q-98 0 -154 61.5t-56 173.5q0 106 66.5 168t174.5 62q128 0 192.5 -89t64.5 -221q0 -390 -303 -390q-89 0 -174 29l18 115q83 -20 143 -20q66 0 116.5 43.5t49.5 128.5zM371 396q5 45 0.5 81t-26.5 62.5t-61 26.5t-64 -28t-25 -78
q0 -43 20.5 -74t70.5 -31q44 0 85 41z" />
    <glyph glyph-name="colon" unicode=":" horiz-adv-x="222" 
d="M36 152h150v-152h-150v152zM36 460h150v-153h-150v153z" />
    <glyph glyph-name="semicolon" unicode=";" horiz-adv-x="222" 
d="M115 -130h-45l27 130h-61v152h150v-152zM36 460h150v-153h-150v153z" />
    <glyph glyph-name="less" unicode="&#x3c;" horiz-adv-x="380" 
d="M36 294l308 161v-133l-149 -72l149 -72v-133l-308 161v88z" />
    <glyph glyph-name="equal" unicode="=" horiz-adv-x="500" 
d="M36 427h428v-124h-428v124zM36 227h428v-124h-428v124z" />
    <glyph glyph-name="greater" unicode="&#x3e;" horiz-adv-x="380" 
d="M344 206l-308 -170v133l149 81l-149 81v133l308 -170v-88z" />
    <glyph glyph-name="question" unicode="?" horiz-adv-x="480" 
d="M244 690q60 0 104 -17.5t65.5 -46.5t31 -59t9.5 -63q0 -46 -17 -81.5t-42 -57.5t-49.5 -40.5t-41.5 -39.5t-17 -45v-30h-132v30q0 46 15 80.5t36 54.5t42 36.5t36 35.5t15 41q0 61 -87 61q-57 0 -143 -27l-43 128q94 40 218 40zM146 152h150v-152h-150v152z" />
    <glyph glyph-name="at" unicode="@" horiz-adv-x="830" 
d="M585 331v-179q62 0 92 52.5t30 117.5q0 110 -78 178t-194 68q-138 0 -224.5 -87.5t-86.5 -227.5q0 -124 80.5 -207.5t203.5 -83.5l-9 -82q-161 0 -265 106t-104 267q0 174 114.5 286.5t289.5 112.5q154 0 260 -91.5t106 -234.5q0 -112 -63 -186t-177 -74h-93v39h-1
q-42 -46 -111 -46q-56 0 -87.5 34.5t-31.5 86.5q0 67 49 95t115 28h67v21q0 48 -63 48q-49 0 -129 -23l-21 79q102 33 180 33q73 0 112 -29.5t39 -100.5zM467 167v68h-62q-51 0 -51 -45q0 -21 13.5 -31.5t33.5 -10.5q41 0 66 19z" />
    <glyph glyph-name="A" unicode="A" horiz-adv-x="650" 
d="M457 0l-40 144h-192l-41 -144h-168l212 685h195l211 -685h-177zM322 487h-2l-63 -210h128z" />
    <glyph glyph-name="B" unicode="B" horiz-adv-x="610" 
d="M465 354v-2q55 -17 87 -58.5t32 -105.5q0 -89 -57.5 -138.5t-166.5 -49.5h-314v680h294q109 0 166.5 -45t57.5 -129q0 -53 -27 -93.5t-72 -58.5zM331 279h-126v-138h129q40 0 61 14.5t21 54.5q0 39 -21.5 54t-63.5 15zM396 479q0 60 -74 60h-117v-119h117q38 0 56 13.5
t18 45.5z" />
    <glyph glyph-name="C" unicode="C" horiz-adv-x="620" 
d="M36 345q0 77 14.5 136.5t48.5 108t96 74.5t150 26q121 0 250 -39l-35 -132q-131 30 -202 30q-81 0 -117.5 -51.5t-36.5 -152.5q0 -108 36.5 -161t117.5 -53q71 0 202 30l35 -132q-129 -39 -250 -39q-309 0 -309 355z" />
    <glyph glyph-name="D" unicode="D" horiz-adv-x="650" 
d="M306 0h-260v680h260q87 0 148.5 -24.5t95.5 -71t49 -104.5t15 -135t-15 -136.5t-49 -108t-95.5 -74.5t-148.5 -26zM205 141h101q82 0 111 49t29 155q0 104 -28.5 149t-111.5 45h-101v-398z" />
    <glyph glyph-name="E" unicode="E" horiz-adv-x="560" 
d="M519 680v-141h-314v-118h269v-141h-269v-139h319v-141h-478v680h473z" />
    <glyph glyph-name="F" unicode="F" horiz-adv-x="535" 
d="M509 680v-141h-304v-138h259v-141h-259v-260h-159v680h463z" />
    <glyph glyph-name="G" unicode="G" horiz-adv-x="640" 
d="M345 -10q-309 0 -309 355q0 77 14.5 136.5t48.5 108t96 74.5t150 26q119 0 249 -39l-36 -132q-130 30 -200 30q-81 0 -117.5 -51.5t-36.5 -152.5q0 -108 36.5 -161t117.5 -53q36 0 77 11v89h-93v141h252v-339q-136 -43 -249 -43z" />
    <glyph glyph-name="H" unicode="H" horiz-adv-x="640" 
d="M205 0h-159v680h159v-259h230v259h159v-680h-159v280h-230v-280z" />
    <glyph glyph-name="I" unicode="I" horiz-adv-x="251" 
d="M205 0h-159v680h159v-680z" />
    <glyph glyph-name="J" unicode="J" horiz-adv-x="361" 
d="M315 680v-494q0 -196 -190 -196q-61 0 -113 9l13 133q32 -5 56 -5q75 0 75 68v485h159z" />
    <glyph glyph-name="K" unicode="K" horiz-adv-x="641" 
d="M205 680v-287l228 287h189l-232 -289l234 -391h-199l-151 264l-69 -88v-176h-159v680h159z" />
    <glyph glyph-name="L" unicode="L" horiz-adv-x="540" 
d="M46 680h159v-539h309v-141h-468v680z" />
    <glyph glyph-name="M" unicode="M" horiz-adv-x="800" 
d="M257 680l147 -416h2l136 416h212v-680h-159v396h-2l-140 -396h-115l-135 396h-2v-396h-155v680h211z" />
    <glyph glyph-name="N" unicode="N" horiz-adv-x="650" 
d="M201 0h-155v680h159l242 -389h2v389h155v-680h-159l-242 371h-2v-371z" />
    <glyph glyph-name="O" unicode="O" horiz-adv-x="690" 
d="M345 557q-83 0 -112 -52t-29 -160q0 -53 5.5 -90.5t20 -69t43.5 -47.5t72 -16t72 16t43.5 47.5t20 69t5.5 90.5q0 108 -29 160t-112 52zM345 -10q-309 0 -309 355q0 77 14.5 136.5t48.5 108t96 74.5t150 26t150 -26t96 -74.5t48.5 -108t14.5 -136.5q0 -355 -309 -355z
" />
    <glyph glyph-name="P" unicode="P" 
d="M341 225h-136v-225h-159v680h295q109 0 171 -61.5t62 -166.5t-62 -166t-171 -61zM205 539v-173h119q87 0 87 86q0 87 -87 87h-119z" />
    <glyph glyph-name="Q" unicode="Q" horiz-adv-x="690" 
d="M36 345q0 77 14.5 136.5t48.5 108t96 74.5t150 26t150 -26t96 -74.5t48.5 -108t14.5 -136.5q0 -133 -53.5 -210.5t-149.5 -87.5q4 -18 87 -18q45 0 97 5v-142q-58 -6 -108 -3q-156 10 -214 101q-61 4 -109 24.5t-79.5 53t-51.5 77t-28.5 93.5t-8.5 107zM345 557
q-83 0 -112 -52t-29 -160q0 -53 5.5 -90.5t20 -69t43.5 -47.5t72 -16t72 16t43.5 47.5t20 69t5.5 90.5q0 108 -29 160t-112 52z" />
    <glyph glyph-name="R" unicode="R" horiz-adv-x="615" 
d="M598 0h-185l-133 231h-75v-231h-159v680h295q109 0 171 -60t62 -164q0 -71 -32 -124t-96 -75zM205 539v-167h117q89 0 89 84q0 83 -87 83h-119z" />
    <glyph glyph-name="S" unicode="S" 
d="M300 -10q-135 0 -264 39l27 132q130 -30 237 -30q43 0 69.5 16t26.5 45q0 11 -3.5 20.5t-12.5 16.5t-17.5 12t-24.5 10.5l-27 9t-32.5 9t-33.5 9.5q-199 58 -199 216q0 99 71 147t183 48q116 0 245 -39l-35 -132q-131 30 -210 30q-41 0 -63.5 -15.5t-22.5 -42.5
q0 -31 33 -46.5t112 -33.5q205 -47 205 -206q0 -107 -73.5 -161t-190.5 -54z" />
    <glyph glyph-name="T" unicode="T" horiz-adv-x="560" 
d="M534 539h-175v-539h-158v539h-175v141h508v-141z" />
    <glyph glyph-name="U" unicode="U" horiz-adv-x="640" 
d="M321 122q62 0 88 30.5t26 87.5v440h159v-440q0 -129 -73 -189.5t-201 -60.5t-201 60.5t-73 189.5v440h159v-440q0 -57 26 -87.5t90 -30.5z" />
    <glyph glyph-name="V" unicode="V" horiz-adv-x="650" 
d="M329 193h1l136 487h168l-211 -685h-195l-212 685h177z" />
    <glyph glyph-name="W" unicode="W" horiz-adv-x="940" 
d="M471 424h-2l-89 -429h-203l-161 685h177l93 -486h1l95 486h185l98 -486h1l90 486h168l-161 -685h-203z" />
    <glyph glyph-name="X" unicode="X" horiz-adv-x="650" 
d="M443 0l-130 221h-2l-118 -221h-176l198 351l-190 329h185l112 -199h2l107 199h185l-190 -329l207 -351h-190z" />
    <glyph glyph-name="Y" unicode="Y" horiz-adv-x="620" 
d="M313 399h2l117 281h172l-215 -440v-240h-158v240l-215 440h181z" />
    <glyph glyph-name="Z" unicode="Z" horiz-adv-x="560" 
d="M246 143v-2h289v-141h-510v115l284 422v2h-264v141h480v-115z" />
    <glyph glyph-name="bracketleft" unicode="[" horiz-adv-x="300" 
d="M195 -51h89v-89h-248v960h248v-89h-89v-782z" />
    <glyph glyph-name="backslash" unicode="\" horiz-adv-x="540" 
d="M389 0l-370 680h132l370 -680h-132z" />
    <glyph glyph-name="bracketright" unicode="]" horiz-adv-x="300" 
d="M16 -51h89v782h-89v89h248v-960h-248v89z" />
    <glyph glyph-name="asciicircum" unicode="^" horiz-adv-x="380" 
d="M190 618l-74 -108h-80l109 190h90l109 -190h-80z" />
    <glyph glyph-name="underscore" unicode="_" horiz-adv-x="500" 
d="M36 -60h428v-89h-428v89z" />
    <glyph glyph-name="grave" unicode="`" horiz-adv-x="281" 
d="M131 560l-96 140h159l52 -140h-115z" />
    <glyph glyph-name="a" unicode="a" horiz-adv-x="505" 
d="M230 386q-66 0 -156 -19l-22 119q117 24 213 24q106 0 155 -35.5t49 -133.5v-341h-150v50h-2q-56 -60 -143 -60q-72 0 -112.5 44.5t-40.5 112.5q0 37 13.5 65.5t34.5 45.5t50 28t56 15t56 4h88v27q0 32 -21.5 43t-67.5 11zM319 131v85h-79q-69 0 -69 -56q0 -27 19 -41
t45 -14q50 0 84 26z" />
    <glyph glyph-name="b" unicode="b" horiz-adv-x="530" 
d="M186 700v-250h2q23 27 59.5 43.5t74.5 16.5q182 0 182 -260q0 -75 -17.5 -131t-61.5 -92.5t-111 -36.5q-79 0 -135 56h-2l-26 -50h-115v704h150zM345 250q0 136 -84 136q-40 0 -75 -25v-222q35 -25 75 -25q84 0 84 136z" />
    <glyph glyph-name="c" unicode="c" horiz-adv-x="480" 
d="M26 250q0 127 61 193.5t203 66.5q81 0 177 -24l-26 -120q-84 20 -151 20q-105 0 -105 -136t105 -136q67 0 151 20l26 -120q-96 -24 -177 -24q-142 0 -203 66.5t-61 193.5z" />
    <glyph glyph-name="d" unicode="d" horiz-adv-x="530" 
d="M344 0v50h-2q-23 -27 -60 -43.5t-75 -16.5q-181 0 -181 260q0 75 17.5 131t61.5 92.5t111 36.5q78 0 126 -56h2v246h150v-700h-150zM185 250q0 -136 84 -136q40 0 75 25v222q-35 25 -75 25q-84 0 -84 -136z" />
    <glyph glyph-name="e" unicode="e" horiz-adv-x="530" 
d="M502 216h-313q4 -48 35 -75t89 -27q88 0 155 20l18 -120q-86 -24 -195 -24q-141 0 -203 67t-62 193t62 193t202 67q112 0 166 -51t53 -158q0 -37 -7 -85zM281 395q-83 0 -92 -86h165q2 10 2 24q-2 62 -75 62z" />
    <glyph glyph-name="f" unicode="f" horiz-adv-x="345" 
d="M226 536v-36h98v-106h-98v-394h-150v394h-64v97l64 9v46q0 79 35 116.5t129 37.5q39 0 91 -9l-13 -115q-28 5 -43 5q-28 0 -38.5 -9t-10.5 -36z" />
    <glyph glyph-name="g" unicode="g" horiz-adv-x="555" 
d="M139 -54q0 -59 119 -59q50 0 86.5 15.5t36.5 44.5q0 16 -13 27t-37 13l-170 10q-22 -27 -22 -51zM265 269q74 0 74 71q0 72 -74 72t-74 -72q0 -71 74 -71zM89 17v2q-40 28 -40 70q-1 30 20 59.5t61 49.5v2q-37 19 -59 56.5t-22 83.5q0 85 58 127.5t158 42.5q41 0 73 -10
h191v-89h-73q20 -34 20 -71q0 -85 -57.5 -127t-153.5 -42q-32 0 -59 9q-4 -4 -11 -19q-15 -40 23 -43l165 -12q78 -6 117.5 -37t39.5 -93q0 -99 -73.5 -142.5t-231.5 -43.5q-115 0 -167.5 31.5t-52.5 98.5q0 61 74 97z" />
    <glyph glyph-name="h" unicode="h" horiz-adv-x="530" 
d="M186 357v-357h-150v700h150v-263h2q65 73 156 73q73 0 111.5 -45.5t38.5 -123.5v-341h-150v306q0 80 -70 80q-37 0 -88 -29z" />
    <glyph glyph-name="i" unicode="i" horiz-adv-x="222" 
d="M36 500h150v-500h-150v500zM36 680h150v-144h-150v144z" />
    <glyph glyph-name="j" unicode="j" horiz-adv-x="262" 
d="M226 500v-556q0 -79 -35 -116.5t-129 -37.5q-39 0 -91 9l14 115q27 -5 42 -5q28 0 38.5 9t10.5 37v545h150zM76 680h150v-144h-150v144z" />
    <glyph glyph-name="k" unicode="k" horiz-adv-x="555" 
d="M186 700v-360l161 160h182l-179 -184l189 -316h-177l-116 231l-60 -58v-173h-150v700h150z" />
    <glyph glyph-name="l" unicode="l" horiz-adv-x="222" 
d="M36 0v700h150v-700h-150z" />
    <glyph glyph-name="m" unicode="m" horiz-adv-x="830" 
d="M186 357v-357h-150v500h150v-63h2q63 73 152 73q98 0 132 -80q72 80 172 80q73 0 111.5 -45.5t38.5 -123.5v-341h-150v306q0 80 -70 80q-36 0 -85 -30q1 -16 1 -57v-299h-150v312q-4 74 -70 74q-33 0 -84 -29z" />
    <glyph glyph-name="n" unicode="n" horiz-adv-x="530" 
d="M186 357v-357h-150v500h150v-63h2q65 73 156 73q73 0 111.5 -45.5t38.5 -123.5v-341h-150v306q0 80 -70 80q-37 0 -88 -29z" />
    <glyph glyph-name="o" unicode="o" horiz-adv-x="550" 
d="M275 386q-50 0 -70 -33.5t-20 -102.5t20 -102.5t70 -33.5t70 33.5t20 102.5t-20 102.5t-70 33.5zM275 -10q-249 0 -249 260t249 260t249 -260t-249 -260z" />
    <glyph glyph-name="p" unicode="p" horiz-adv-x="530" 
d="M186 500v-50h2q23 27 59.5 43.5t74.5 16.5q182 0 182 -260q0 -75 -17.5 -131t-61.5 -92.5t-111 -36.5q-78 0 -126 56h-2v-246h-150v700h150zM345 250q0 136 -84 136q-40 0 -75 -25v-222q35 -25 75 -25q84 0 84 136z" />
    <glyph glyph-name="q" unicode="q" horiz-adv-x="530" 
d="M344 -200v250h-2q-23 -27 -60 -43.5t-75 -16.5q-181 0 -181 260q0 75 17.5 131t61.5 92.5t111 36.5q36 0 72.5 -15t61.5 -41h2l27 50h115v-704h-150zM185 250q0 -136 84 -136q40 0 75 25v222q-35 25 -75 25q-84 0 -84 -136z" />
    <glyph glyph-name="r" unicode="r" horiz-adv-x="370" 
d="M186 339v-339h-150v500h150v-80h2q24 38 67 64t99 26v-141q-105 0 -168 -30z" />
    <glyph glyph-name="s" unicode="s" horiz-adv-x="480" 
d="M459 156q0 -84 -54 -125t-150 -41q-138 0 -234 24l27 120q105 -25 189 -25q35 0 53.5 10.5t18.5 25.5q0 14 -17 21t-56 14q-99 17 -152 55.5t-53 119.5q0 155 204 155q119 0 215 -24l-27 -120q-104 25 -179 25q-63 0 -63 -32q0 -14 14 -21.5t54 -16.5q103 -23 141 -45
q69 -41 69 -120z" />
    <glyph glyph-name="t" unicode="t" horiz-adv-x="375" 
d="M76 142v252h-64v97l64 9l18 140h132v-140h118v-106h-118v-226q0 -59 66 -59q16 0 43 5l14 -115q-52 -9 -109 -9q-88 0 -126 37t-38 115z" />
    <glyph glyph-name="u" unicode="u" horiz-adv-x="530" 
d="M344 143v357h150v-500h-150v62h-2q-66 -72 -156 -72q-73 0 -111.5 45t-38.5 124v341h150v-306q0 -80 70 -80q37 0 88 29z" />
    <glyph glyph-name="v" unicode="v" horiz-adv-x="560" 
d="M371 -5h-184l-170 505h168l97 -341h2l99 341h159z" />
    <glyph glyph-name="w" unicode="w" horiz-adv-x="790" 
d="M395 270h-2l-65 -275h-167l-144 505h168l75 -341h2l64 341h146l70 -341h2l70 341h158l-142 -505h-168z" />
    <glyph glyph-name="x" unicode="x" horiz-adv-x="545" 
d="M352 0l-90 150h-2l-85 -150h-159l168 260l-153 240h172l78 -132h2l75 132h155l-155 -236l171 -264h-177z" />
    <glyph glyph-name="y" unicode="y" horiz-adv-x="560" 
d="M197 -6l-180 506h168l99 -342h2l97 342h159l-170 -511q-37 -111 -90.5 -155t-144.5 -44q-47 0 -97 9l13 124q27 -5 49 -5q32 0 58 19.5t37 56.5z" />
    <glyph glyph-name="z" unicode="z" horiz-adv-x="470" 
d="M442 500v-106l-233 -277v-2h247v-115h-442v106l238 277v2h-223v115h413z" />
    <glyph glyph-name="braceleft" unicode="{" horiz-adv-x="340" 
d="M255 17q0 -34 4 -54t15 -28.5t20.5 -10.5t29.5 -2v-62q-45 0 -71.5 1.5t-60 9.5t-52 22.5t-31.5 43t-13 69.5q0 31 5 95.5t5 93.5q0 30 -1 43.5t-7.5 30t-21 24t-40.5 11.5v72q26 4 40.5 11.5t21 24t7.5 30t1 43.5q0 29 -5 93.5t-5 95.5q0 41 13 69t31.5 43t52 23
t60.5 9.5t71 1.5v-63q-20 0 -29 -1.5t-20.5 -10t-15.5 -29t-4 -54.5q0 -30 6.5 -101t6.5 -102q0 -54 -26.5 -79t-78.5 -39v-2q52 -14 78.5 -39t26.5 -79q0 -31 -6.5 -102.5t-6.5 -101.5z" />
    <glyph glyph-name="bar" unicode="|" horiz-adv-x="190" 
d="M144 -100h-98v880h98v-880z" />
    <glyph glyph-name="braceright" unicode="}" horiz-adv-x="340" 
d="M85 662q0 34 -4 54.5t-15.5 29t-20.5 10t-29 1.5v63q44 0 71 -1.5t60.5 -9.5t52 -23t31.5 -43t13 -69q0 -31 -5 -95.5t-5 -93.5q0 -30 1 -43.5t7.5 -30t21 -24t40.5 -11.5v-72q-26 -4 -40.5 -11.5t-21 -24t-7.5 -30t-1 -43.5q0 -29 5 -93.5t5 -95.5q0 -41 -13 -69.5
t-31.5 -43t-52.5 -22.5t-60.5 -9.5t-70.5 -1.5v62q20 0 29.5 2t20.5 10.5t15 28.5t4 54q0 30 -7 101.5t-7 102.5q0 54 27 79t79 39v2q-52 14 -79 39t-27 79q0 31 7 102t7 101z" />
    <glyph glyph-name="asciitilde" unicode="~" horiz-adv-x="459" 
d="M145 294q-31 0 -66 -39l-47 36q46 105 110 105q26 0 96.5 -20t85.5 -20q14 0 19.5 0.5t19 7.5t26.5 22l38 -45q-40 -83 -103 -83q-19 0 -89.5 18t-89.5 18z" />
    <glyph glyph-name="exclamdown" unicode="&#xa1;" horiz-adv-x="222" 
d="M186 347h-150v153h150v-153zM186 -180h-150l9 461h132z" />
    <glyph glyph-name="cent" unicode="&#xa2;" horiz-adv-x="511" 
d="M343 -100h-62v91q-114 4 -180 74t-66 185q0 114 66 184.5t180 74.5v91h62v-93q56 -4 133 -36l-18 -115q-70 25 -115 28v-269q46 3 115 29l18 -115q-72 -32 -133 -36v-93zM194 250q0 -115 87 -133v265q-41 -8 -64 -41.5t-23 -90.5z" />
    <glyph glyph-name="sterling" unicode="&#xa3;" horiz-adv-x="619" 
d="M442 287h-207v-155h327v-132h-527v132h50v155h-50v115h50v93q0 100 67 147.5t178 47.5q72 0 140 -19t114 -49l-62 -123q-100 50 -183 50q-49 0 -76.5 -19t-27.5 -55v-73h207v-115z" />
    <glyph glyph-name="currency" unicode="&#xa4;" horiz-adv-x="513" 
d="M100 249q0 68 48 114l-78 90l8 8l79 -90q44 36 100 36q55 0 99 -36l78 90l9 -8l-78 -89q50 -47 50 -115t-49 -114l76 -86l-9 -9l-77 87q-43 -35 -99 -35q-57 0 -100 35l-76 -87l-9 9l76 86q-48 46 -48 114zM112 249q0 -59 43 -102t102 -43t102.5 43t43.5 102t-43.5 102.5
t-102.5 43.5t-102 -43.5t-43 -102.5z" />
    <glyph glyph-name="yen" unicode="&#xa5;" horiz-adv-x="657" 
d="M431 289h131v-89h-154v-200h-159v200h-154v89h131l-191 391h181l116 -281h2l116 281h172z" />
    <glyph glyph-name="brokenbar" unicode="&#xa6;" horiz-adv-x="170" 
d="M134 -100h-98v400h98v-400zM134 380h-98v400h98v-400z" />
    <glyph glyph-name="section" unicode="&#xa7;" horiz-adv-x="598" 
d="M562 342h-167q0 11 -3.5 20.5t-12.5 16.5t-17.5 12t-24.5 10.5l-27 9t-32.5 9t-33.5 9.5q-199 57 -199 216q0 99 71 147t183 48q115 0 245 -39l-36 -132q-130 30 -209 30q-41 0 -64 -15.5t-23 -42.5q0 -31 33 -46.5t112 -33.5q214 -49 205 -219zM45 345h167
q0 -32 35 -49.5t110 -34.5q205 -47 205 -206q0 -107 -73 -161t-190 -54q-135 0 -264 39l27 132q130 -30 237 -30q43 0 69.5 16t26.5 45q0 11 -3.5 20.5t-12.5 16.5t-17.5 12t-24.5 10.5l-27 9t-32.5 9t-33.5 9.5q-199 57 -199 216z" />
    <glyph glyph-name="dieresis" unicode="&#xa8;" horiz-adv-x="464" 
d="M74 697h123v-135h-123v135zM266 697h124v-135h-124v135z" />
    <glyph glyph-name="copyright" unicode="&#xa9;" horiz-adv-x="765" 
d="M30 340q0 146 103 248t249 102q147 0 250 -102t103 -248t-103 -248t-250 -102q-146 0 -249 102t-103 248zM97 340q0 -119 83.5 -203.5t201.5 -84.5t202 84.5t84 203.5q0 117 -84 200t-202 83q-119 0 -202 -82.5t-83 -200.5zM393 438q-87 0 -87 -94q0 -104 87 -104
q50 0 95 30l32 -66q-57 -42 -133 -42q-82 0 -129.5 47.5t-47.5 134.5q0 83 47.5 127.5t129.5 44.5q76 0 133 -42l-32 -67q-46 31 -95 31z" />
    <glyph glyph-name="ordfeminine" unicode="&#xaa;" horiz-adv-x="291" 
d="M138 623q-33 0 -77 -10l-12 60q63 12 107 12q53 0 77 -17.5t24 -66.5v-171h-75v25q-29 -30 -72 -30q-36 0 -56 22.5t-20 55.5q0 43 31.5 61t73.5 18h43v14q0 16 -10 21.5t-34 5.5zM182 495v43h-39q-34 0 -34 -28t32 -28q24 0 41 13z" />
    <glyph glyph-name="guillemotleft" unicode="&#xab;" horiz-adv-x="714" 
d="M36 294l308 170v-133l-149 -81l149 -81v-133l-308 170v88zM370 294l307 170v-133l-148 -81l148 -81v-133l-307 170v88z" />
    <glyph glyph-name="logicalnot" unicode="&#xac;" horiz-adv-x="590" 
d="M56 327h478v-226h-124v102h-354v124z" />
    <glyph glyph-name="uni00AD" unicode="&#xad;" horiz-adv-x="500" 
d="M36 327h428v-124h-428v124z" />
    <glyph glyph-name="registered" unicode="&#xae;" horiz-adv-x="765" 
d="M548 168h-110l-63 100h-41v-100h-89v344h145q67 0 105.5 -31.5t38.5 -89.5q0 -82 -66 -108zM334 433v-86h56q52 0 52 44q0 42 -52 42h-56zM30 340q0 146 103 248t249 102q147 0 250 -102t103 -248t-103 -248t-250 -102q-146 0 -249 102t-103 248zM97 340
q0 -119 83.5 -203.5t201.5 -84.5t202 84.5t84 203.5q0 117 -84 200t-202 83q-119 0 -202 -82.5t-83 -200.5z" />
    <glyph glyph-name="macron" unicode="&#xaf;" horiz-adv-x="437" 
d="M52 674h333v-98h-333v98z" />
    <glyph glyph-name="degree" unicode="&#xb0;" horiz-adv-x="260" 
d="M32 582q0 40 29 69t69 29t69 -29t29 -69t-29 -68.5t-69 -28.5t-69 28.5t-29 68.5zM87 582q0 -18 12.5 -30.5t30.5 -12.5t30.5 12.5t12.5 30.5q0 19 -12.5 31t-30.5 12t-30.5 -12t-12.5 -31z" />
    <glyph glyph-name="plusminus" unicode="&#xb1;" horiz-adv-x="500" 
d="M36 134h152v82h-152v124h152v143h124v-143h152v-124h-152v-82h152v-124h-428v124z" />
    <glyph glyph-name="twosuperior" unicode="&#xb2;" horiz-adv-x="307" 
d="M133 806q-30 0 -77 -23l-22 58q59 34 121 34q54 0 83.5 -29t29.5 -75q0 -49 -32 -88.5t-96 -84.5v-1h133v-67h-239v71q89 56 121.5 90.5t32.5 64.5q0 50 -55 50z" />
    <glyph glyph-name="threesuperior" unicode="&#xb3;" horiz-adv-x="317" 
d="M216 704q67 -20 67 -85q0 -48 -33.5 -73.5t-94.5 -25.5q-68 0 -121 33l22 58q62 -29 98 -29q25 0 38 12t13 28q0 23 -14 32.5t-45 9.5h-46v62h42q55 0 55 45q0 16 -10.5 26.5t-28.5 10.5q-11 0 -20.5 -1.5t-20.5 -5t-16.5 -6l-19.5 -8.5t-18 -8l-22 57q59 34 123 34
q47 0 78 -23.5t31 -66.5q0 -54 -57 -76z" />
    <glyph glyph-name="acute" unicode="&#xb4;" horiz-adv-x="281" 
d="M246 700l-96 -140h-115l52 140h159z" />
    <glyph glyph-name="mu" unicode="&#xb5;" horiz-adv-x="530" 
d="M186 500v-308q1 -78 70 -78q37 0 88 29v357h150v-500h-150v62h-2q-44 -46 -94 -61q-38 -8 -62 1v-35q0 -90 -42.5 -133.5t-129.5 -43.5q-31 0 -83 9l14 115q27 -5 42 -5q49 0 49 59v532h150z" />
    <glyph glyph-name="paragraph" unicode="&#xb6;" horiz-adv-x="564" 
d="M531 626h-82v-626h-62v626h-62v-331h-92q-90 0 -145.5 53.5t-55.5 139.5q0 89 55 140.5t146 51.5h298v-54z" />
    <glyph glyph-name="periodcentered" unicode="&#xb7;" horiz-adv-x="262" 
d="M56 326h150v-152h-150v152z" />
    <glyph glyph-name="cedilla" unicode="&#xb8;" horiz-adv-x="293" 
d="M104 -79v79h54v-51q83 -13 83 -74q0 -37 -27.5 -58.5t-77.5 -21.5q-44 0 -84 12l9 47q20 -5 45 -5q21 0 32.5 9.5t11.5 24.5q0 29 -46 38z" />
    <glyph glyph-name="onesuperior" unicode="&#xb9;" horiz-adv-x="297" 
d="M25 592h92v197l-64 -26l-19 58q70 23 104 52h55v-281h92v-62h-260v62z" />
    <glyph glyph-name="ordmasculine" unicode="&#xba;" horiz-adv-x="316" 
d="M159 623q-26 0 -36 -17t-10 -51t10 -51t36 -17q44 0 44 68t-44 68zM159 425q-125 0 -125 130t125 130q123 0 123 -130t-123 -130z" />
    <glyph glyph-name="guillemotright" unicode="&#xbb;" horiz-adv-x="714" 
d="M370 464l307 -170v-88l-307 -170v133l149 81l-149 81v133zM36 464l308 -170v-88l-308 -170v133l149 81l-149 81v133z" />
    <glyph glyph-name="onequarter" unicode="&#xbc;" horiz-adv-x="800" 
d="M650 680l-370 -680h-45l370 680h45zM25 392h92v197q-42 -18 -64 -26l-19 58q72 24 104 52h55v-281h92v-62h-260v62zM583 136h75v106q-36 -58 -75 -106zM640 340h93v-204h42v-62h-42v-74h-75v74h-152v62q86 93 134 204z" />
    <glyph glyph-name="onehalf" unicode="&#xbd;" horiz-adv-x="800" 
d="M630 680l-370 -680h-45l370 680h45zM25 392h92v197q-42 -18 -64 -26l-19 58q72 24 104 52h55v-281h92v-62h-260v62zM635 276q-28 0 -77 -23l-22 58q59 34 121 34q54 0 83.5 -29t29.5 -75q0 -49 -31.5 -88.5t-96.5 -84.5v-1h133v-67h-239v71q89 56 121.5 90.5t32.5 64.5
q0 50 -55 50z" />
    <glyph glyph-name="threequarters" unicode="&#xbe;" horiz-adv-x="800" 
d="M650 680l-370 -680h-45l370 680h45zM583 136h75v106q-36 -58 -75 -106zM640 340h93v-204h42v-62h-42v-74h-75v74h-152v62q86 93 134 204zM208 504q33 -10 49.5 -33t16.5 -52q0 -48 -33.5 -73.5t-93.5 -25.5q-69 0 -122 33l22 58q62 -29 98 -29q26 0 39 12t13 28
q0 42 -60 42h-46v62h42q56 0 56 45q0 16 -11 26.5t-29 10.5q-30 0 -94 -29l-23 57q59 34 124 34q46 0 77 -23.5t31 -66.5q0 -55 -56 -76z" />
    <glyph glyph-name="questiondown" unicode="&#xbf;" horiz-adv-x="480" 
d="M236 -190q-60 0 -104 17.5t-65.5 46.5t-31 59t-9.5 63q0 46 17 81.5t41.5 57.5t49 40.5t41.5 39.5t17 45v30h133v-30q0 -46 -15 -80.5t-36 -55t-42 -37t-36 -35t-15 -40.5q0 -61 86 -61q58 0 144 27l43 -128q-94 -40 -218 -40zM334 347h-150v153h150v-153z" />
    <glyph glyph-name="Agrave" unicode="&#xc0;" horiz-adv-x="650" 
d="M457 0l-40 144h-192l-41 -144h-168l212 685h195l211 -685h-177zM322 487h-2l-63 -210h128zM258 710l-96 140h159l52 -140h-115z" />
    <glyph glyph-name="Aacute" unicode="&#xc1;" horiz-adv-x="650" 
d="M457 0l-40 144h-192l-41 -144h-168l212 685h195l211 -685h-177zM322 487h-2l-63 -210h128zM485 850l-96 -140h-115l52 140h159z" />
    <glyph glyph-name="Acircumflex" unicode="&#xc2;" horiz-adv-x="650" 
d="M457 0l-40 144h-192l-41 -144h-168l212 685h195l211 -685h-177zM322 487h-2l-63 -210h128zM325 770l-39 -60h-115l101 140h106l101 -140h-115z" />
    <glyph glyph-name="Atilde" unicode="&#xc3;" horiz-adv-x="650" 
d="M457 0l-40 144h-192l-41 -144h-168l212 685h195l211 -685h-177zM322 487h-2l-63 -210h128zM265 745q-32 0 -66 -38l-47 53q42 96 110 96q26 0 71.5 -20t60.5 -20q31 0 65 39l38 -63q-40 -83 -103 -83q-19 0 -64.5 18t-64.5 18z" />
    <glyph glyph-name="Adieresis" unicode="&#xc4;" horiz-adv-x="650" 
d="M457 0l-40 144h-192l-41 -144h-168l212 685h195l211 -685h-177zM322 487h-2l-63 -210h128zM167 857h123v-135h-123v135zM359 857h124v-135h-124v135z" />
    <glyph glyph-name="Aring" unicode="&#xc5;" horiz-adv-x="650" 
d="M457 0l-40 144h-192l-41 -144h-168l212 685h195l211 -685h-177zM322 487h-2l-63 -210h128zM243 790q0 34 24 56.5t59 22.5t58 -22.5t23 -56.5t-23 -56.5t-58 -22.5t-59 22.5t-24 56.5zM290 790q0 -16 10.5 -27t25.5 -11t25 11t10 27t-10 27t-25 11t-25.5 -11t-10.5 -27z
" />
    <glyph glyph-name="AE" unicode="&#xc6;" horiz-adv-x="926" 
d="M412 162h-167l-71 -162h-158l317 680h552v-141h-314v-118h269v-141h-269v-139h319v-141h-478v162zM410 538l-112 -252h114v252h-2z" />
    <glyph glyph-name="Ccedilla" unicode="&#xc7;" horiz-adv-x="620" 
d="M36 345q0 77 14.5 136.5t48.5 108t96 74.5t150 26q121 0 250 -39l-35 -132q-131 30 -202 30q-81 0 -117.5 -51.5t-36.5 -152.5q0 -108 36.5 -161t117.5 -53q71 0 202 30l35 -132q-119 -36 -232 -39v-41q83 -13 83 -74q0 -37 -28 -58.5t-77 -21.5q-43 0 -84 12l8 47
q20 -5 46 -5q43 0 43 34q0 30 -45 38v71q-273 18 -273 353z" />
    <glyph glyph-name="Egrave" unicode="&#xc8;" horiz-adv-x="560" 
d="M519 680v-141h-314v-118h269v-141h-269v-139h319v-141h-478v680h473zM244 710l-96 140h159l52 -140h-115z" />
    <glyph glyph-name="Eacute" unicode="&#xc9;" horiz-adv-x="560" 
d="M519 680v-141h-314v-118h269v-141h-269v-139h319v-141h-478v680h473zM423 850l-96 -140h-115l52 140h159z" />
    <glyph glyph-name="Ecircumflex" unicode="&#xca;" horiz-adv-x="560" 
d="M519 680v-141h-314v-118h269v-141h-269v-139h319v-141h-478v680h473zM285 770l-39 -60h-115l101 140h106l101 -140h-115z" />
    <glyph glyph-name="Edieresis" unicode="&#xcb;" horiz-adv-x="560" 
d="M519 680v-141h-314v-118h269v-141h-269v-139h319v-141h-478v680h473zM131 857h123v-135h-123v135zM323 857h124v-135h-124v135z" />
    <glyph glyph-name="Igrave" unicode="&#xcc;" horiz-adv-x="251" 
d="M205 0h-159v680h159v-680zM73 710l-96 140h159l52 -140h-115z" />
    <glyph glyph-name="Iacute" unicode="&#xcd;" horiz-adv-x="251" 
d="M205 0h-159v680h159v-680zM278 850l-96 -140h-115l52 140h159z" />
    <glyph glyph-name="Icircumflex" unicode="&#xce;" horiz-adv-x="251" 
d="M204 0h-159v680h159v-680zM125 770l-39 -60h-115l101 140h106l101 -140h-115z" />
    <glyph glyph-name="Idieresis" unicode="&#xcf;" horiz-adv-x="251" 
d="M206 0h-159v680h159v-680zM-32 857h123v-135h-123v135zM160 857h124v-135h-124v135z" />
    <glyph glyph-name="Eth" unicode="&#xd0;" horiz-adv-x="667" 
d="M323 0h-259v301h-68v88h68v291h259q87 0 148.5 -24.5t95.5 -71t49 -104.5t15 -135t-15 -136.5t-49 -108t-95.5 -74.5t-148.5 -26zM222 141h101q83 0 112 49t29 155q0 104 -28.5 149t-112.5 45h-101v-150h105v-88h-105v-160z" />
    <glyph glyph-name="Ntilde" unicode="&#xd1;" horiz-adv-x="650" 
d="M201 0h-155v680h159l242 -389h2v389h155v-680h-159l-242 371h-2v-371zM265 745q-32 0 -66 -38l-47 53q42 96 110 96q26 0 71.5 -20t60.5 -20q31 0 65 39l38 -63q-40 -83 -103 -83q-19 0 -64.5 18t-64.5 18z" />
    <glyph glyph-name="Ograve" unicode="&#xd2;" horiz-adv-x="690" 
d="M345 557q-83 0 -112 -52t-29 -160q0 -53 5.5 -90.5t20 -69t43.5 -47.5t72 -16t72 16t43.5 47.5t20 69t5.5 90.5q0 108 -29 160t-112 52zM345 -10q-309 0 -309 355q0 77 14.5 136.5t48.5 108t96 74.5t150 26t150 -26t96 -74.5t48.5 -108t14.5 -136.5q0 -355 -309 -355z
M293 710l-96 140h159l52 -140h-115z" />
    <glyph glyph-name="Oacute" unicode="&#xd3;" horiz-adv-x="690" 
d="M345 557q-83 0 -112 -52t-29 -160q0 -53 5.5 -90.5t20 -69t43.5 -47.5t72 -16t72 16t43.5 47.5t20 69t5.5 90.5q0 108 -29 160t-112 52zM345 -10q-309 0 -309 355q0 77 14.5 136.5t48.5 108t96 74.5t150 26t150 -26t96 -74.5t48.5 -108t14.5 -136.5q0 -355 -309 -355z
M495 850l-96 -140h-115l52 140h159z" />
    <glyph glyph-name="Ocircumflex" unicode="&#xd4;" horiz-adv-x="690" 
d="M345 557q-83 0 -112 -52t-29 -160q0 -53 5.5 -90.5t20 -69t43.5 -47.5t72 -16t72 16t43.5 47.5t20 69t5.5 90.5q0 108 -29 160t-112 52zM345 -10q-309 0 -309 355q0 77 14.5 136.5t48.5 108t96 74.5t150 26t150 -26t96 -74.5t48.5 -108t14.5 -136.5q0 -355 -309 -355z
M345 770l-39 -60h-115l101 140h106l101 -140h-115z" />
    <glyph glyph-name="Otilde" unicode="&#xd5;" horiz-adv-x="690" 
d="M345 557q-83 0 -112 -52t-29 -160q0 -53 5.5 -90.5t20 -69t43.5 -47.5t72 -16t72 16t43.5 47.5t20 69t5.5 90.5q0 108 -29 160t-112 52zM345 -10q-309 0 -309 355q0 77 14.5 136.5t48.5 108t96 74.5t150 26t150 -26t96 -74.5t48.5 -108t14.5 -136.5q0 -355 -309 -355z
M285 745q-32 0 -66 -38l-47 53q42 96 110 96q26 0 71.5 -20t60.5 -20q31 0 65 39l38 -63q-40 -83 -103 -83q-19 0 -64.5 18t-64.5 18z" />
    <glyph glyph-name="Odieresis" unicode="&#xd6;" horiz-adv-x="690" 
d="M345 557q-83 0 -112 -52t-29 -160q0 -53 5.5 -90.5t20 -69t43.5 -47.5t72 -16t72 16t43.5 47.5t20 69t5.5 90.5q0 108 -29 160t-112 52zM345 -10q-309 0 -309 355q0 77 14.5 136.5t48.5 108t96 74.5t150 26t150 -26t96 -74.5t48.5 -108t14.5 -136.5q0 -355 -309 -355z
M187 857h123v-135h-123v135zM379 857h124v-135h-124v135z" />
    <glyph glyph-name="multiply" unicode="&#xd7;" horiz-adv-x="518" 
d="M482 400l-135 -135l135 -135l-88 -88l-135 135l-135 -135l-88 88l136 135l-136 135l88 88l135 -136l135 136z" />
    <glyph glyph-name="Oslash" unicode="&#xd8;" horiz-adv-x="690" 
d="M345 -10q-124 0 -200 58l-68 -86l-45 36l72 90q-68 87 -68 257q0 77 14.5 136.5t48.5 108t96 74.5t150 26q119 0 194 -52l73 92l45 -36l-75 -94q72 -86 72 -255q0 -355 -309 -355zM345 122q43 0 72 16t43.5 47.5t20 69t5.5 90.5q0 76 -14 117l-232 -294q32 -46 105 -46z
M345 557q-83 0 -112 -52t-29 -160q0 -76 11 -116l231 291q-32 37 -101 37z" />
    <glyph glyph-name="Ugrave" unicode="&#xd9;" horiz-adv-x="640" 
d="M321 122q62 0 88 30.5t26 87.5v440h159v-440q0 -129 -73 -189.5t-201 -60.5t-201 60.5t-73 189.5v440h159v-440q0 -57 26 -87.5t90 -30.5zM264 710l-96 140h159l52 -140h-115z" />
    <glyph glyph-name="Uacute" unicode="&#xda;" horiz-adv-x="640" 
d="M321 122q62 0 88 30.5t26 87.5v440h159v-440q0 -129 -73 -189.5t-201 -60.5t-201 60.5t-73 189.5v440h159v-440q0 -57 26 -87.5t90 -30.5zM471 850l-96 -140h-115l52 140h159z" />
    <glyph glyph-name="Ucircumflex" unicode="&#xdb;" horiz-adv-x="640" 
d="M321 122q62 0 88 30.5t26 87.5v440h159v-440q0 -129 -73 -189.5t-201 -60.5t-201 60.5t-73 189.5v440h159v-440q0 -57 26 -87.5t90 -30.5zM320 770l-39 -60h-115l101 140h106l101 -140h-115z" />
    <glyph glyph-name="Udieresis" unicode="&#xdc;" horiz-adv-x="640" 
d="M321 122q62 0 88 30.5t26 87.5v440h159v-440q0 -129 -73 -189.5t-201 -60.5t-201 60.5t-73 189.5v440h159v-440q0 -57 26 -87.5t90 -30.5zM162 857h123v-135h-123v135zM354 857h124v-135h-124v135z" />
    <glyph glyph-name="Yacute" unicode="&#xdd;" horiz-adv-x="620" 
d="M313 399h2l117 281h172l-215 -440v-240h-158v240l-215 440h181zM472 850l-96 -140h-115l52 140h159z" />
    <glyph glyph-name="Thorn" unicode="&#xde;" 
d="M332 117h-127v-117h-159v680h159v-108h127q110 0 176 -61.5t66 -165.5q0 -105 -65.5 -166.5t-176.5 -61.5zM205 431v-172h110q42 0 69 20t27 66q0 45 -27.5 65.5t-68.5 20.5h-110z" />
    <glyph glyph-name="germandbls" unicode="&#xdf;" horiz-adv-x="645" 
d="M320 700q224 0 224 -150q0 -35 -18 -65t-39 -46.5t-39 -35.5t-18 -35q0 -17 10 -27t32 -18q86 -33 119 -74.5t33 -93.5q0 -85 -63.5 -125t-156.5 -40q-66 0 -129 20l18 115q61 -20 107 -20q33 0 49 14t16 35q0 16 -12 30.5t-24 22t-33.5 18.5t-27.5 15q-46 27 -62.5 48
t-16.5 63q0 34 20.5 63.5t40.5 55.5t20 54q0 57 -63 57q-81 0 -81 -110v-471h-150v394h-64v97l64 9q0 57 20 97.5t56 62t77 31t91 9.5z" />
    <glyph glyph-name="agrave" unicode="&#xe0;" horiz-adv-x="505" 
d="M230 386q-66 0 -156 -19l-22 119q117 24 213 24q106 0 155 -35.5t49 -133.5v-341h-150v50h-2q-56 -60 -143 -60q-72 0 -112.5 44.5t-40.5 112.5q0 37 13.5 65.5t34.5 45.5t50 28t56 15t56 4h88v27q0 32 -21.5 43t-67.5 11zM319 131v85h-79q-69 0 -69 -56q0 -27 19 -41
t45 -14q50 0 84 26zM212 560l-96 140h159l52 -140h-115z" />
    <glyph glyph-name="aacute" unicode="&#xe1;" horiz-adv-x="505" 
d="M230 386q-66 0 -156 -19l-22 119q117 24 213 24q106 0 155 -35.5t49 -133.5v-341h-150v50h-2q-56 -60 -143 -60q-72 0 -112.5 44.5t-40.5 112.5q0 37 13.5 65.5t34.5 45.5t50 28t56 15t56 4h88v27q0 32 -21.5 43t-67.5 11zM319 131v85h-79q-69 0 -69 -56q0 -27 19 -41
t45 -14q50 0 84 26zM406 700l-96 -140h-115l52 140h159z" />
    <glyph glyph-name="acircumflex" unicode="&#xe2;" horiz-adv-x="505" 
d="M230 386q-66 0 -156 -19l-22 119q117 24 213 24q106 0 155 -35.5t49 -133.5v-341h-150v50h-2q-56 -60 -143 -60q-72 0 -112.5 44.5t-40.5 112.5q0 37 13.5 65.5t34.5 45.5t50 28t56 15t56 4h88v27q0 32 -21.5 43t-67.5 11zM319 131v85h-79q-69 0 -69 -56q0 -27 19 -41
t45 -14q50 0 84 26zM262 620l-39 -60h-115l101 140h106l101 -140h-115z" />
    <glyph glyph-name="atilde" unicode="&#xe3;" horiz-adv-x="505" 
d="M230 386q-66 0 -156 -19l-22 119q117 24 213 24q106 0 155 -35.5t49 -133.5v-341h-150v50h-2q-56 -60 -143 -60q-72 0 -112.5 44.5t-40.5 112.5q0 37 13.5 65.5t34.5 45.5t50 28t56 15t56 4h88v27q0 32 -21.5 43t-67.5 11zM319 131v85h-79q-69 0 -69 -56q0 -27 19 -41
t45 -14q50 0 84 26zM210 585q-32 0 -66 -38l-47 53q42 96 110 96q26 0 71.5 -20t60.5 -20q31 0 65 39l38 -63q-40 -83 -103 -83q-19 0 -64.5 18t-64.5 18z" />
    <glyph glyph-name="adieresis" unicode="&#xe4;" horiz-adv-x="505" 
d="M230 386q-66 0 -156 -19l-22 119q117 24 213 24q106 0 155 -35.5t49 -133.5v-341h-150v50h-2q-56 -60 -143 -60q-72 0 -112.5 44.5t-40.5 112.5q0 37 13.5 65.5t34.5 45.5t50 28t56 15t56 4h88v27q0 32 -21.5 43t-67.5 11zM319 131v85h-79q-69 0 -69 -56q0 -27 19 -41
t45 -14q50 0 84 26zM104 697h123v-135h-123v135zM296 697h124v-135h-124v135z" />
    <glyph glyph-name="aring" unicode="&#xe5;" horiz-adv-x="505" 
d="M230 386q-66 0 -156 -19l-22 119q117 24 213 24q106 0 155 -35.5t49 -133.5v-341h-150v50h-2q-56 -60 -143 -60q-72 0 -112.5 44.5t-40.5 112.5q0 37 13.5 65.5t34.5 45.5t50 28t56 15t56 4h88v27q0 32 -21.5 43t-67.5 11zM319 131v85h-79q-69 0 -69 -56q0 -27 19 -41
t45 -14q50 0 84 26zM173 620q0 34 24 56.5t59 22.5t58 -22.5t23 -56.5t-23 -56.5t-58 -22.5t-59 22.5t-24 56.5zM220 620q0 -16 10.5 -27t25.5 -11t25 11t10 27t-10 27t-25 11t-25.5 -11t-10.5 -27z" />
    <glyph glyph-name="ae" unicode="&#xe6;" horiz-adv-x="822" 
d="M794 216h-312q3 -48 34.5 -75t89.5 -27q88 0 155 20l18 -120q-86 -24 -195 -24q-162 0 -224 92q-47 -53 -91 -72.5t-95 -19.5q-71 0 -112 43.5t-41 113.5q0 38 14.5 67.5t36 46t51 27t55.5 14t53 3.5h88v27q0 32 -21.5 43t-67.5 11q-66 0 -156 -19l-22 119q120 24 213 24
q52 0 86.5 -9.5t67.5 -38.5q59 48 163 48q122 0 171 -55t49 -151q0 -30 -8 -88zM235 105q52 0 88 29q-4 28 -4 82h-79q-69 0 -69 -56q0 -27 19 -41t45 -14zM574 395q-84 0 -92 -86h164q2 7 2 22q0 64 -74 64z" />
    <glyph glyph-name="ccedilla" unicode="&#xe7;" horiz-adv-x="480" 
d="M26 250q0 127 61 193.5t203 66.5q81 0 177 -24l-26 -120q-84 20 -151 20q-105 0 -105 -136t105 -136q67 0 151 20l26 -120q-88 -23 -170 -24v-41q83 -13 83 -74q0 -37 -27.5 -58.5t-77.5 -21.5q-44 0 -83 12l8 47q20 -5 45 -5q21 0 32.5 9.5t11.5 24.5q0 29 -46 38v72
q-116 9 -166.5 75t-50.5 182z" />
    <glyph glyph-name="egrave" unicode="&#xe8;" horiz-adv-x="530" 
d="M502 216h-313q4 -48 35 -75t89 -27q88 0 155 20l18 -120q-86 -24 -195 -24q-141 0 -203 67t-62 193t62 193t202 67q112 0 166 -51t53 -158q0 -37 -7 -85zM281 395q-83 0 -92 -86h165q2 10 2 24q-2 62 -75 62zM232 560l-96 140h159l52 -140h-115z" />
    <glyph glyph-name="eacute" unicode="&#xe9;" horiz-adv-x="530" 
d="M502 216h-313q4 -48 35 -75t89 -27q88 0 155 20l18 -120q-86 -24 -195 -24q-141 0 -203 67t-62 193t62 193t202 67q112 0 166 -51t53 -158q0 -37 -7 -85zM281 395q-83 0 -92 -86h165q2 10 2 24q-2 62 -75 62zM452 700l-96 -140h-115l52 140h159z" />
    <glyph glyph-name="ecircumflex" unicode="&#xea;" horiz-adv-x="530" 
d="M502 216h-313q4 -48 35 -75t89 -27q88 0 155 20l18 -120q-86 -24 -195 -24q-141 0 -203 67t-62 193t62 193t202 67q112 0 166 -51t53 -158q0 -37 -7 -85zM281 395q-83 0 -92 -86h165q2 10 2 24q-2 62 -75 62zM265 620l-39 -60h-115l101 140h106l101 -140h-115z" />
    <glyph glyph-name="edieresis" unicode="&#xeb;" horiz-adv-x="530" 
d="M502 216h-313q4 -48 35 -75t89 -27q88 0 155 20l18 -120q-86 -24 -195 -24q-141 0 -203 67t-62 193t62 193t202 67q112 0 166 -51t53 -158q0 -37 -7 -85zM281 395q-83 0 -92 -86h165q2 10 2 24q-2 62 -75 62zM107 697h123v-135h-123v135zM299 697h124v-135h-124v135z" />
    <glyph glyph-name="igrave" unicode="&#xec;" horiz-adv-x="222" 
d="M59 560l-96 140h159l52 -140h-115zM36 500h150v-500h-150v500z" />
    <glyph glyph-name="iacute" unicode="&#xed;" horiz-adv-x="222" 
d="M267 700l-96 -140h-115l52 140h159zM36 500h150v-500h-150v500z" />
    <glyph glyph-name="icircumflex" unicode="&#xee;" horiz-adv-x="222" 
d="M36 500h150v-500h-150v500zM111 620l-39 -60h-115l101 140h106l101 -140h-115z" />
    <glyph glyph-name="idieresis" unicode="&#xef;" horiz-adv-x="222" 
d="M-47 697h123v-135h-123v135zM145 697h124v-135h-124v135zM36 500h150v-500h-150v500z" />
    <glyph glyph-name="eth" unicode="&#xf0;" horiz-adv-x="550" 
d="M370 656l72 72l50 -50l-64 -63q96 -96 96 -315q0 -132 -64.5 -221t-192.5 -89q-108 0 -174.5 62t-66.5 168q0 112 56 173.5t154 61.5q81 0 136 -62l2 1q0 81 -41 125l-48 -49l-50 51l33 33q-33 12 -60 12q-68 0 -143 -29l-18 115q90 38 174 38q87 0 149 -34zM361 284
q-41 41 -85 41q-50 0 -70.5 -31t-20.5 -74q0 -50 25 -78t64 -28t61 26.5t26.5 62.5t-0.5 81z" />
    <glyph glyph-name="ntilde" unicode="&#xf1;" horiz-adv-x="530" 
d="M186 357v-357h-150v500h150v-63h2q65 73 156 73q73 0 111.5 -45.5t38.5 -123.5v-341h-150v306q0 80 -70 80q-37 0 -88 -29zM205 585q-32 0 -66 -38l-47 53q42 96 110 96q26 0 71.5 -20t60.5 -20q31 0 65 39l38 -63q-40 -83 -103 -83q-19 0 -64.5 18t-64.5 18z" />
    <glyph glyph-name="ograve" unicode="&#xf2;" horiz-adv-x="550" 
d="M275 386q-50 0 -70 -33.5t-20 -102.5t20 -102.5t70 -33.5t70 33.5t20 102.5t-20 102.5t-70 33.5zM275 -10q-249 0 -249 260t249 260t249 -260t-249 -260zM226 560l-96 140h159l52 -140h-115z" />
    <glyph glyph-name="oacute" unicode="&#xf3;" horiz-adv-x="550" 
d="M275 386q-50 0 -70 -33.5t-20 -102.5t20 -102.5t70 -33.5t70 33.5t20 102.5t-20 102.5t-70 33.5zM275 -10q-249 0 -249 260t249 260t249 -260t-249 -260zM429 700l-96 -140h-115l52 140h159z" />
    <glyph glyph-name="ocircumflex" unicode="&#xf4;" horiz-adv-x="550" 
d="M275 386q-50 0 -70 -33.5t-20 -102.5t20 -102.5t70 -33.5t70 33.5t20 102.5t-20 102.5t-70 33.5zM275 -10q-249 0 -249 260t249 260t249 -260t-249 -260zM275 620l-39 -60h-115l101 140h106l101 -140h-115z" />
    <glyph glyph-name="otilde" unicode="&#xf5;" horiz-adv-x="550" 
d="M275 386q-50 0 -70 -33.5t-20 -102.5t20 -102.5t70 -33.5t70 33.5t20 102.5t-20 102.5t-70 33.5zM275 -10q-249 0 -249 260t249 260t249 -260t-249 -260zM217 585q-32 0 -66 -38l-47 53q42 96 110 96q26 0 71.5 -20t60.5 -20q31 0 65 39l38 -63q-40 -83 -103 -83
q-19 0 -64.5 18t-64.5 18z" />
    <glyph glyph-name="odieresis" unicode="&#xf6;" horiz-adv-x="550" 
d="M275 386q-50 0 -70 -33.5t-20 -102.5t20 -102.5t70 -33.5t70 33.5t20 102.5t-20 102.5t-70 33.5zM275 -10q-249 0 -249 260t249 260t249 -260t-249 -260zM113 697h123v-135h-123v135zM305 697h124v-135h-124v135z" />
    <glyph glyph-name="divide" unicode="&#xf7;" horiz-adv-x="500" 
d="M184 165h132v-135h-132v135zM184 500h132v-135h-132v135zM36 327h428v-124h-428v124z" />
    <glyph glyph-name="oslash" unicode="&#xf8;" horiz-adv-x="550" 
d="M275 -10q-92 0 -152 38l-56 -66l-45 36l57 67q-53 64 -53 185q0 260 249 260q92 0 151 -38l57 66l44 -36l-57 -67q54 -66 54 -185q0 -260 -249 -260zM275 114q50 0 70 33.5t20 102.5q0 32 -7 54l-144 -170q23 -20 61 -20zM275 386q-50 0 -70 -33.5t-20 -102.5
q0 -36 6 -54l144 169q-23 21 -60 21z" />
    <glyph glyph-name="ugrave" unicode="&#xf9;" horiz-adv-x="530" 
d="M344 143v357h150v-500h-150v62h-2q-66 -72 -156 -72q-73 0 -111.5 45t-38.5 124v341h150v-306q0 -80 70 -80q37 0 88 29zM201 560l-96 140h159l52 -140h-115z" />
    <glyph glyph-name="uacute" unicode="&#xfa;" horiz-adv-x="530" 
d="M344 143v357h150v-500h-150v62h-2q-66 -72 -156 -72q-73 0 -111.5 45t-38.5 124v341h150v-306q0 -80 70 -80q37 0 88 29zM419 700l-96 -140h-115l52 140h159z" />
    <glyph glyph-name="ucircumflex" unicode="&#xfb;" horiz-adv-x="530" 
d="M344 143v357h150v-500h-150v62h-2q-66 -72 -156 -72q-73 0 -111.5 45t-38.5 124v341h150v-306q0 -80 70 -80q37 0 88 29zM265 620l-39 -60h-115l101 140h106l101 -140h-115z" />
    <glyph glyph-name="udieresis" unicode="&#xfc;" horiz-adv-x="530" 
d="M344 143v357h150v-500h-150v62h-2q-66 -72 -156 -72q-73 0 -111.5 45t-38.5 124v341h150v-306q0 -80 70 -80q37 0 88 29zM107 697h123v-135h-123v135zM299 697h124v-135h-124v135z" />
    <glyph glyph-name="yacute" unicode="&#xfd;" horiz-adv-x="560" 
d="M197 -6l-180 506h168l99 -342h2l97 342h159l-170 -511q-37 -111 -90.5 -155t-144.5 -44q-47 0 -97 9l13 124q27 -5 49 -5q32 0 58 19.5t37 56.5zM440 700l-96 -140h-115l52 140h159z" />
    <glyph glyph-name="thorn" unicode="&#xfe;" horiz-adv-x="530" 
d="M186 700v-250h2q23 27 59.5 43.5t74.5 16.5q182 0 182 -260q0 -75 -17.5 -131t-61.5 -92.5t-111 -36.5q-78 0 -126 56h-2v-246h-150v900h150zM345 250q0 136 -84 136q-40 0 -75 -25v-222q35 -25 75 -25q84 0 84 136z" />
    <glyph glyph-name="ydieresis" unicode="&#xff;" horiz-adv-x="560" 
d="M197 -6l-180 506h168l99 -342h2l97 342h159l-170 -511q-37 -111 -90.5 -155t-144.5 -44q-47 0 -97 9l13 124q27 -5 49 -5q32 0 58 19.5t37 56.5zM122 697h123v-135h-123v135zM314 697h124v-135h-124v135z" />
    <glyph glyph-name="Amacron" unicode="&#x100;" horiz-adv-x="650" 
d="M457 0l-40 144h-192l-41 -144h-168l212 685h195l211 -685h-177zM322 487h-2l-63 -210h128zM158 844h333v-98h-333v98z" />
    <glyph glyph-name="amacron" unicode="&#x101;" horiz-adv-x="505" 
d="M230 386q-66 0 -156 -19l-22 119q117 24 213 24q106 0 155 -35.5t49 -133.5v-341h-150v50h-2q-56 -60 -143 -60q-72 0 -112.5 44.5t-40.5 112.5q0 37 13.5 65.5t34.5 45.5t50 28t56 15t56 4h88v27q0 32 -21.5 43t-67.5 11zM319 131v85h-79q-69 0 -69 -56q0 -27 19 -41
t45 -14q50 0 84 26zM99 674h333v-98h-333v98z" />
    <glyph glyph-name="Abreve" unicode="&#x102;" horiz-adv-x="650" 
d="M457 0l-40 144h-192l-41 -144h-168l212 685h195l211 -685h-177zM322 487h-2l-63 -210h128zM325 816q67 0 90 61h60q-17 -146 -150 -146q-132 0 -151 146h60q23 -61 91 -61z" />
    <glyph glyph-name="abreve" unicode="&#x103;" horiz-adv-x="505" 
d="M230 386q-66 0 -156 -19l-22 119q117 24 213 24q106 0 155 -35.5t49 -133.5v-341h-150v50h-2q-56 -60 -143 -60q-72 0 -112.5 44.5t-40.5 112.5q0 37 13.5 65.5t34.5 45.5t50 28t56 15t56 4h88v27q0 32 -21.5 43t-67.5 11zM319 131v85h-79q-69 0 -69 -56q0 -27 19 -41
t45 -14q50 0 84 26zM272 646q67 0 90 61h60q-17 -146 -150 -146q-132 0 -151 146h60q23 -61 91 -61z" />
    <glyph glyph-name="Aogonek" unicode="&#x104;" horiz-adv-x="650" 
d="M515 0h-58l-40 144h-192l-41 -144h-168l212 685h195l211 -685q-54 -3 -79.5 -31.5t-25.5 -64.5q0 -25 16 -39t44 -14q16 0 41 9l4 -35q-37 -29 -97 -29q-48 0 -78 22.5t-30 58.5q0 69 86 123zM322 487h-1l-64 -210h128z" />
    <glyph glyph-name="aogonek" unicode="&#x105;" horiz-adv-x="505" 
d="M355 0h-36v50h-2q-56 -60 -143 -60q-72 0 -112.5 44.5t-40.5 112.5q0 37 13.5 65.5t34.5 45.5t50 28t56 15t56 4h88v27q0 32 -21.5 43t-67.5 11q-66 0 -156 -19l-22 119q117 24 213 24q106 0 155 -35.5t49 -133.5v-341q-50 -3 -75 -32.5t-25 -63.5q0 -25 16 -39t44 -14
q18 0 41 9l5 -35q-37 -29 -98 -29q-42 0 -75 20.5t-33 60.5q0 69 86 123zM319 131v85h-79q-69 0 -69 -56q0 -27 19 -41t45 -14q50 0 84 26z" />
    <glyph glyph-name="Cacute" unicode="&#x106;" horiz-adv-x="620" 
d="M36 345q0 77 14.5 136.5t48.5 108t96 74.5t150 26q121 0 250 -39l-35 -132q-131 30 -202 30q-81 0 -117.5 -51.5t-36.5 -152.5q0 -108 36.5 -161t117.5 -53q71 0 202 30l35 -132q-129 -39 -250 -39q-309 0 -309 355zM503 850l-96 -140h-115l52 140h159z" />
    <glyph glyph-name="cacute" unicode="&#x107;" horiz-adv-x="480" 
d="M26 250q0 127 61 193.5t203 66.5q81 0 177 -24l-26 -120q-84 20 -151 20q-105 0 -105 -136t105 -136q67 0 151 20l26 -120q-96 -24 -177 -24q-142 0 -203 66.5t-61 193.5zM430 700l-96 -140h-115l52 140h159z" />
    <glyph glyph-name="Ccircumflex" unicode="&#x108;" horiz-adv-x="620" 
d="M36 345q0 77 14.5 136.5t48.5 108t96 74.5t150 26q121 0 250 -39l-35 -132q-131 30 -202 30q-81 0 -117.5 -51.5t-36.5 -152.5q0 -108 36.5 -161t117.5 -53q71 0 202 30l35 -132q-129 -39 -250 -39q-309 0 -309 355zM363 770l-39 -60h-115l101 140h106l101 -140h-115z
" />
    <glyph glyph-name="ccircumflex" unicode="&#x109;" horiz-adv-x="480" 
d="M26 250q0 127 61 193.5t203 66.5q81 0 177 -24l-26 -120q-84 20 -151 20q-105 0 -105 -136t105 -136q67 0 151 20l26 -120q-96 -24 -177 -24q-142 0 -203 66.5t-61 193.5zM276 620l-39 -60h-115l101 140h106l101 -140h-115z" />
    <glyph glyph-name="Cdotaccent" unicode="&#x10a;" horiz-adv-x="620" 
d="M36 345q0 77 14.5 136.5t48.5 108t96 74.5t150 26q121 0 250 -39l-35 -132q-131 30 -202 30q-81 0 -117.5 -51.5t-36.5 -152.5q0 -108 36.5 -161t117.5 -53q71 0 202 30l35 -132q-129 -39 -250 -39q-309 0 -309 355zM291 850h133v-118h-133v118z" />
    <glyph glyph-name="cdotaccent" unicode="&#x10b;" horiz-adv-x="480" 
d="M26 250q0 127 61 193.5t203 66.5q81 0 177 -24l-26 -120q-84 20 -151 20q-105 0 -105 -136t105 -136q67 0 151 20l26 -120q-96 -24 -177 -24q-142 0 -203 66.5t-61 193.5zM216 680h133v-118h-133v118z" />
    <glyph glyph-name="Ccaron" unicode="&#x10c;" horiz-adv-x="620" 
d="M36 345q0 77 14.5 136.5t48.5 108t96 74.5t150 26q121 0 250 -39l-35 -132q-131 30 -202 30q-81 0 -117.5 -51.5t-36.5 -152.5q0 -108 36.5 -161t117.5 -53q71 0 202 30l35 -132q-129 -39 -250 -39q-309 0 -309 355zM319 850l39 -60l39 60h115l-101 -140h-106l-101 140
h115z" />
    <glyph glyph-name="ccaron" unicode="&#x10d;" horiz-adv-x="480" 
d="M26 250q0 127 61 193.5t203 66.5q81 0 177 -24l-26 -120q-84 20 -151 20q-105 0 -105 -136t105 -136q67 0 151 20l26 -120q-96 -24 -177 -24q-142 0 -203 66.5t-61 193.5zM250 700l39 -60l39 60h115l-101 -140h-106l-101 140h115z" />
    <glyph glyph-name="Dcaron" unicode="&#x10e;" horiz-adv-x="650" 
d="M306 0h-260v680h260q87 0 148.5 -24.5t95.5 -71t49 -104.5t15 -135t-15 -136.5t-49 -108t-95.5 -74.5t-148.5 -26zM205 141h101q82 0 111 49t29 155q0 104 -28.5 149t-111.5 45h-101v-398zM259 850l39 -60l39 60h115l-101 -140h-106l-101 140h115z" />
    <glyph glyph-name="dcaron" unicode="&#x10f;" horiz-adv-x="679" 
d="M344 0v50h-2q-23 -27 -60 -43.5t-75 -16.5q-181 0 -181 260q0 75 17.5 131t61.5 92.5t111 36.5q78 0 126 -56h2v246h150v-700h-150zM185 250q0 -136 84 -136q40 0 75 25v222q-35 25 -75 25q-84 0 -84 -136zM599 524h-45l27 81h-44v95h133v-95z" />
    <glyph glyph-name="Dcroat" unicode="&#x110;" horiz-adv-x="667" 
d="M323 0h-259v301h-68v88h68v291h259q87 0 148.5 -24.5t95.5 -71t49 -104.5t15 -135t-15 -136.5t-49 -108t-95.5 -74.5t-148.5 -26zM222 141h101q83 0 112 49t29 155q0 104 -28.5 149t-112.5 45h-101v-150h105v-88h-105v-160z" />
    <glyph glyph-name="dcroat" unicode="&#x111;" horiz-adv-x="530" 
d="M344 0v50h-2q-23 -27 -60 -43.5t-75 -16.5q-181 0 -181 260q0 75 17.5 131t61.5 92.5t111 36.5q78 0 126 -56h2v92h-103v88h103v66h150v-66h70v-88h-70v-546h-150zM185 250q0 -136 84 -136q40 0 75 25v222q-35 25 -75 25q-84 0 -84 -136z" />
    <glyph glyph-name="Emacron" unicode="&#x112;" horiz-adv-x="560" 
d="M519 680v-141h-314v-118h269v-141h-269v-139h319v-141h-478v680h473zM121 844h333v-98h-333v98z" />
    <glyph glyph-name="emacron" unicode="&#x113;" horiz-adv-x="530" 
d="M502 216h-313q4 -48 35 -75t89 -27q88 0 155 20l18 -120q-86 -24 -195 -24q-141 0 -203 67t-62 193t62 193t202 67q112 0 166 -51t53 -158q0 -37 -7 -85zM281 395q-83 0 -92 -86h165q2 10 2 24q-2 62 -75 62zM116 674h333v-98h-333v98z" />
    <glyph glyph-name="Ebreve" unicode="&#x114;" horiz-adv-x="560" 
d="M519 680v-141h-314v-118h269v-141h-269v-139h319v-141h-478v680h473zM290 816q67 0 90 61h60q-17 -146 -150 -146q-132 0 -151 146h60q23 -61 91 -61z" />
    <glyph glyph-name="ebreve" unicode="&#x115;" horiz-adv-x="530" 
d="M502 216h-313q4 -48 35 -75t89 -27q88 0 155 20l18 -120q-86 -24 -195 -24q-141 0 -203 67t-62 193t62 193t202 67q112 0 166 -51t53 -158q0 -37 -7 -85zM281 395q-83 0 -92 -86h165q2 10 2 24q-2 62 -75 62zM287 646q67 0 90 61h60q-17 -146 -150 -146q-132 0 -151 146
h60q23 -61 91 -61z" />
    <glyph glyph-name="Edotaccent" unicode="&#x116;" horiz-adv-x="560" 
d="M519 680v-141h-314v-118h269v-141h-269v-139h319v-141h-478v680h473zM215 850h133v-118h-133v118z" />
    <glyph glyph-name="edotaccent" unicode="&#x117;" horiz-adv-x="530" 
d="M502 216h-313q4 -48 35 -75t89 -27q88 0 155 20l18 -120q-86 -24 -195 -24q-141 0 -203 67t-62 193t62 193t202 67q112 0 166 -51t53 -158q0 -37 -7 -85zM281 395q-83 0 -92 -86h165q2 10 2 24q-2 62 -75 62zM218 680h133v-118h-133v118z" />
    <glyph glyph-name="Eogonek" unicode="&#x118;" horiz-adv-x="560" 
d="M567 -140l5 -35q-37 -29 -98 -29q-48 0 -78 23t-30 58q0 69 86 123h-406v680h473v-141h-314v-118h269v-141h-269v-139h319v-141q-58 -47 -58 -96q0 -25 16 -39t44 -14q18 0 41 9z" />
    <glyph glyph-name="eogonek" unicode="&#x119;" horiz-adv-x="530" 
d="M189 309h165q2 10 2 24q-2 62 -75 62q-83 0 -92 -86zM502 216h-313q4 -48 35 -75t89 -27q88 0 155 20l18 -120q-57 -46 -57 -96q0 -53 59 -53q19 0 41 10l5 -35q-37 -29 -97 -29q-48 0 -78 22.5t-30 58.5q0 57 64 104q-46 -6 -102 -6q-141 0 -203 67t-62 193t62 193
t202 67q112 0 166 -51t53 -158q0 -37 -7 -85z" />
    <glyph glyph-name="Ecaron" unicode="&#x11a;" horiz-adv-x="560" 
d="M519 680v-141h-314v-118h269v-141h-269v-139h319v-141h-478v680h473zM248 850l39 -60l39 60h115l-101 -140h-106l-101 140h115z" />
    <glyph glyph-name="ecaron" unicode="&#x11b;" horiz-adv-x="530" 
d="M502 216h-313q4 -48 35 -75t89 -27q88 0 155 20l18 -120q-86 -24 -195 -24q-141 0 -203 67t-62 193t62 193t202 67q112 0 166 -51t53 -158q0 -37 -7 -85zM281 395q-83 0 -92 -86h165q2 10 2 24q-2 62 -75 62zM244 700l39 -60l39 60h115l-101 -140h-106l-101 140h115z" />
    <glyph glyph-name="Gcircumflex" unicode="&#x11c;" horiz-adv-x="640" 
d="M345 -10q-309 0 -309 355q0 77 14.5 136.5t48.5 108t96 74.5t150 26q119 0 249 -39l-36 -132q-130 30 -200 30q-81 0 -117.5 -51.5t-36.5 -152.5q0 -108 36.5 -161t117.5 -53q36 0 77 11v89h-93v141h252v-339q-136 -43 -249 -43zM353 770l-39 -60h-115l101 140h106
l101 -140h-115z" />
    <glyph glyph-name="gcircumflex" unicode="&#x11d;" horiz-adv-x="555" 
d="M139 -54q0 -59 119 -59q50 0 86.5 15.5t36.5 44.5q0 16 -13 27t-37 13l-170 10q-22 -27 -22 -51zM265 269q74 0 74 71q0 72 -74 72t-74 -72q0 -71 74 -71zM89 17v2q-40 28 -40 70q-1 30 20 59.5t61 49.5v2q-37 19 -59 56.5t-22 83.5q0 85 58 127.5t158 42.5q41 0 73 -10
h191v-89h-73q20 -34 20 -71q0 -85 -57.5 -127t-153.5 -42q-32 0 -59 9q-4 -4 -11 -19q-15 -40 23 -43l165 -12q78 -6 117.5 -37t39.5 -93q0 -99 -73.5 -142.5t-231.5 -43.5q-115 0 -167.5 31.5t-52.5 98.5q0 61 74 97zM278 620l-39 -60h-115l101 140h106l101 -140h-115z" />
    <glyph glyph-name="Gbreve" unicode="&#x11e;" horiz-adv-x="640" 
d="M345 -10q-309 0 -309 355q0 77 14.5 136.5t48.5 108t96 74.5t150 26q119 0 249 -39l-36 -132q-130 30 -200 30q-81 0 -117.5 -51.5t-36.5 -152.5q0 -108 36.5 -161t117.5 -53q36 0 77 11v89h-93v141h252v-339q-136 -43 -249 -43zM352 816q67 0 90 61h60
q-17 -146 -150 -146q-132 0 -151 146h60q23 -61 91 -61z" />
    <glyph glyph-name="gbreve" unicode="&#x11f;" horiz-adv-x="555" 
d="M139 -54q0 -59 119 -59q50 0 86.5 15.5t36.5 44.5q0 16 -13 27t-37 13l-170 10q-22 -27 -22 -51zM265 269q74 0 74 71q0 72 -74 72t-74 -72q0 -71 74 -71zM89 17v2q-40 28 -40 70q-1 30 20 59.5t61 49.5v2q-37 19 -59 56.5t-22 83.5q0 85 58 127.5t158 42.5q41 0 73 -10
h191v-89h-73q20 -34 20 -71q0 -85 -57.5 -127t-153.5 -42q-32 0 -59 9q-4 -4 -11 -19q-15 -40 23 -43l165 -12q78 -6 117.5 -37t39.5 -93q0 -99 -73.5 -142.5t-231.5 -43.5q-115 0 -167.5 31.5t-52.5 98.5q0 61 74 97zM271 646q67 0 90 61h60q-17 -146 -150 -146
q-132 0 -151 146h60q23 -61 91 -61z" />
    <glyph glyph-name="Gdotaccent" unicode="&#x120;" horiz-adv-x="640" 
d="M345 -10q-309 0 -309 355q0 77 14.5 136.5t48.5 108t96 74.5t150 26q119 0 249 -39l-36 -132q-130 30 -200 30q-81 0 -117.5 -51.5t-36.5 -152.5q0 -108 36.5 -161t117.5 -53q36 0 77 11v89h-93v141h252v-339q-136 -43 -249 -43zM272 850h133v-118h-133v118z" />
    <glyph glyph-name="gdotaccent" unicode="&#x121;" horiz-adv-x="555" 
d="M139 -54q0 -59 119 -59q50 0 86.5 15.5t36.5 44.5q0 16 -13 27t-37 13l-170 10q-22 -27 -22 -51zM265 269q74 0 74 71q0 72 -74 72t-74 -72q0 -71 74 -71zM89 17v2q-40 28 -40 70q-1 30 20 59.5t61 49.5v2q-37 19 -59 56.5t-22 83.5q0 85 58 127.5t158 42.5q41 0 73 -10
h191v-89h-73q20 -34 20 -71q0 -85 -57.5 -127t-153.5 -42q-32 0 -59 9q-4 -4 -11 -19q-15 -40 23 -43l165 -12q78 -6 117.5 -37t39.5 -93q0 -99 -73.5 -142.5t-231.5 -43.5q-115 0 -167.5 31.5t-52.5 98.5q0 61 74 97zM203 680h133v-118h-133v118z" />
    <glyph glyph-name="Gcommaaccent" unicode="&#x122;" horiz-adv-x="640" 
d="M345 -10q-309 0 -309 355q0 77 14.5 136.5t48.5 108t96 74.5t150 26q119 0 249 -39l-36 -132q-130 30 -200 30q-81 0 -117.5 -51.5t-36.5 -152.5q0 -108 36.5 -161t117.5 -53q36 0 77 11v89h-93v141h252v-339q-136 -43 -249 -43zM357 -216h-45l27 81h-44v95h133v-95z" />
    <glyph glyph-name="gcommaaccent" unicode="&#x123;" horiz-adv-x="555" 
d="M139 -54q0 -59 119 -59q50 0 86.5 15.5t36.5 44.5q0 16 -13 27t-37 13l-170 10q-22 -27 -22 -51zM265 269q74 0 74 71q0 72 -74 72t-74 -72q0 -71 74 -71zM89 17v2q-40 28 -40 70q-1 30 20 59.5t61 49.5v2q-37 19 -59 56.5t-22 83.5q0 85 58 127.5t158 42.5q41 0 73 -10
h191v-89h-73q20 -34 20 -71q0 -85 -57.5 -127t-153.5 -42q-32 0 -59 9q-4 -4 -11 -19q-15 -40 23 -43l165 -12q78 -6 117.5 -37t39.5 -93q0 -99 -73.5 -142.5t-231.5 -43.5q-115 0 -167.5 31.5t-52.5 98.5q0 61 74 97zM287 746h45l-27 -81h44v-95h-133v95z" />
    <glyph glyph-name="Hcircumflex" unicode="&#x124;" horiz-adv-x="640" 
d="M205 0h-159v680h159v-259h230v259h159v-680h-159v280h-230v-280zM320 770l-39 -60h-115l101 140h106l101 -140h-115z" />
    <glyph glyph-name="hcircumflex" unicode="&#x125;" horiz-adv-x="530" 
d="M186 357v-357h-150v700h150v-263h2q65 73 156 73q73 0 111.5 -45.5t38.5 -123.5v-341h-150v306q0 80 -70 80q-37 0 -88 -29zM111 810l-39 -60h-115l101 140h106l101 -140h-115z" />
    <glyph glyph-name="Hbar" unicode="&#x126;" horiz-adv-x="640" 
d="M-24 594h70v86h159v-86h230v86h159v-86h70v-88h-70v-506h-159v280h-230v-280h-159v506h-70v88zM205 421h230v85h-230v-85z" />
    <glyph glyph-name="hbar" unicode="&#x127;" horiz-adv-x="530" 
d="M186 546v-109h2q65 73 156 73q73 0 111.5 -45.5t38.5 -123.5v-341h-150v306q0 80 -70 80q-37 0 -88 -29v-357h-150v546h-70v88h70v66h150v-66h103v-88h-103z" />
    <glyph glyph-name="Itilde" unicode="&#x128;" horiz-adv-x="251" 
d="M204 0h-159v680h159v-680zM66 745q-32 0 -66 -38l-47 53q42 96 110 96q26 0 71.5 -20t60.5 -20q31 0 65 39l38 -63q-40 -83 -103 -83q-19 0 -64.5 18t-64.5 18z" />
    <glyph glyph-name="itilde" unicode="&#x129;" horiz-adv-x="222" 
d="M52 585q-32 0 -66 -38l-47 53q42 96 110 96q26 0 71.5 -20t60.5 -20q31 0 65 39l38 -63q-40 -83 -103 -83q-19 0 -64.5 18t-64.5 18zM36 500h150v-500h-150v500z" />
    <glyph glyph-name="Imacron" unicode="&#x12a;" horiz-adv-x="251" 
d="M201 0h-159v680h159v-680zM-41 844h333v-98h-333v98z" />
    <glyph glyph-name="imacron" unicode="&#x12b;" horiz-adv-x="222" 
d="M-56 674h333v-98h-333v98zM36 500h150v-500h-150v500z" />
    <glyph glyph-name="Ibreve" unicode="&#x12c;" horiz-adv-x="251" 
d="M207 0h-159v680h159v-680zM126 816q67 0 90 61h60q-17 -146 -150 -146q-132 0 -151 146h60q23 -61 91 -61z" />
    <glyph glyph-name="ibreve" unicode="&#x12d;" horiz-adv-x="222" 
d="M111 646q67 0 90 61h60q-17 -146 -150 -146q-132 0 -151 146h60q23 -61 91 -61zM36 500h150v-500h-150v500z" />
    <glyph glyph-name="Iogonek" unicode="&#x12e;" horiz-adv-x="251" 
d="M95 0h-49v680h159v-680q-48 -3 -72 -33t-24 -63q0 -25 16 -39t44 -14q16 0 41 9l4 -35q-37 -29 -97 -29q-48 0 -78 22.5t-30 58.5q0 71 86 123z" />
    <glyph glyph-name="iogonek" unicode="&#x12f;" horiz-adv-x="222" 
d="M186 500v-500q-42 -3 -64.5 -34.5t-22.5 -61.5q0 -25 16 -39t44 -14q18 0 41 9l5 -35q-37 -29 -98 -29q-47 0 -77.5 23t-30.5 58q0 71 86 123l-49 8v492h150zM36 700h150v-144h-150v144z" />
    <glyph glyph-name="Idotaccent" unicode="&#x130;" horiz-adv-x="251" 
d="M205 0h-159v680h159v-680zM59 850h133v-118h-133v118z" />
    <glyph glyph-name="dotlessi" unicode="&#x131;" horiz-adv-x="222" 
d="M36 500h150v-500h-150v500z" />
    <glyph glyph-name="IJ" unicode="&#x132;" horiz-adv-x="612" 
d="M205 0h-159v680h159v-680zM566 680v-494q0 -196 -190 -196q-61 0 -113 9l13 133q33 -5 56 -5q75 0 75 68v485h159z" />
    <glyph glyph-name="ij" unicode="&#x133;" horiz-adv-x="446" 
d="M36 500h150v-500h-150v500zM36 680h150v-144h-150v144zM409 500v-556q0 -79 -34.5 -116.5t-128.5 -37.5q-38 0 -92 9l14 115q27 -5 43 -5q27 0 37.5 9t10.5 37v545h150zM259 680h150v-144h-150v144z" />
    <glyph glyph-name="Jcircumflex" unicode="&#x134;" horiz-adv-x="361" 
d="M315 680v-494q0 -196 -190 -196q-61 0 -113 9l13 133q32 -5 56 -5q75 0 75 68v485h159zM236 770l-39 -60h-115l101 140h106l101 -140h-115z" />
    <glyph glyph-name="jcircumflex" unicode="&#x135;" horiz-adv-x="262" 
d="M226 500v-556q0 -79 -35 -116.5t-129 -37.5q-39 0 -91 9l14 115q27 -5 42 -5q28 0 38.5 9t10.5 37v545h150zM151 620l-39 -60h-115l101 140h106l101 -140h-115z" />
    <glyph glyph-name="Kcommaaccent" unicode="&#x136;" horiz-adv-x="641" 
d="M205 680v-287l228 287h189l-232 -289l234 -391h-199l-151 264l-69 -88v-176h-159v680h159zM311 -209h-45l27 81h-44v95h133v-95z" />
    <glyph glyph-name="kcommaaccent" unicode="&#x137;" horiz-adv-x="555" 
d="M186 700v-360l161 160h182l-179 -184l189 -316h-177l-116 231l-60 -58v-173h-150v700h150zM267 -216h-45l27 81h-44v95h133v-95z" />
    <glyph glyph-name="kgreenlandic" unicode="&#x138;" horiz-adv-x="555" 
d="M186 500v-160l161 160h182l-179 -184l189 -316h-177l-116 231l-60 -58v-173h-150v500h150z" />
    <glyph glyph-name="Lacute" unicode="&#x139;" horiz-adv-x="540" 
d="M46 680h159v-539h309v-141h-468v680zM277 850l-96 -140h-115l52 140h159z" />
    <glyph glyph-name="lacute" unicode="&#x13a;" horiz-adv-x="222" 
d="M36 0v700h150v-700h-150zM267 890l-96 -140h-115l52 140h159z" />
    <glyph glyph-name="Lcommaaccent" unicode="&#x13b;" horiz-adv-x="540" 
d="M46 680h159v-539h309v-141h-468v680zM273 -208h-45l27 81h-44v95h133v-95z" />
    <glyph glyph-name="lcommaaccent" unicode="&#x13c;" horiz-adv-x="222" 
d="M36 0v700h150v-700h-150zM108 -216h-45l27 81h-44v95h133v-95z" />
    <glyph glyph-name="Lcaron" unicode="&#x13d;" horiz-adv-x="540" 
d="M46 680h159v-539h309v-141h-468v680zM350 504h-45l27 81h-44v95h133v-95z" />
    <glyph glyph-name="lcaron" unicode="&#x13e;" horiz-adv-x="371" 
d="M36 0v700h150v-700h-150zM290 524h-45l27 81h-44v95h133v-95z" />
    <glyph glyph-name="Ldot" unicode="&#x13f;" horiz-adv-x="540" 
d="M46 680h159v-539h309v-141h-468v680zM287 447h133v-135h-133v135z" />
    <glyph glyph-name="ldot" unicode="&#x140;" horiz-adv-x="380" 
d="M36 0v700h150v-700h-150zM237 427h133v-135h-133v135z" />
    <glyph glyph-name="Lslash" unicode="&#x141;" horiz-adv-x="550" 
d="M317 378l-102 -24v-213h309v-141h-468v318l-70 -16v89l70 16v273h159v-237l102 24v-89z" />
    <glyph glyph-name="lslash" unicode="&#x142;" horiz-adv-x="262" 
d="M282 358l-76 -19v-339h-150v300l-76 -19v88l76 20v311h150v-273l76 20v-89z" />
    <glyph glyph-name="Nacute" unicode="&#x143;" horiz-adv-x="650" 
d="M201 0h-155v680h159l242 -389h2v389h155v-680h-159l-242 371h-2v-371zM478 850l-96 -140h-115l52 140h159z" />
    <glyph glyph-name="nacute" unicode="&#x144;" horiz-adv-x="530" 
d="M186 357v-357h-150v500h150v-63h2q65 73 156 73q73 0 111.5 -45.5t38.5 -123.5v-341h-150v306q0 80 -70 80q-37 0 -88 -29zM410 700l-96 -140h-115l52 140h159z" />
    <glyph glyph-name="Ncommaaccent" unicode="&#x145;" horiz-adv-x="650" 
d="M201 0h-155v680h159l242 -389h2v389h155v-680h-159l-242 371h-2v-371zM321 -216h-45l27 81h-44v95h133v-95z" />
    <glyph glyph-name="ncommaaccent" unicode="&#x146;" horiz-adv-x="530" 
d="M186 357v-357h-150v500h150v-63h2q65 73 156 73q73 0 111.5 -45.5t38.5 -123.5v-341h-150v306q0 80 -70 80q-37 0 -88 -29zM269 736h45l-27 -81h44v-95h-133v95z" />
    <glyph glyph-name="Ncaron" unicode="&#x147;" horiz-adv-x="650" 
d="M201 0h-155v680h159l242 -389h2v389h155v-680h-159l-242 371h-2v-371zM286 850l39 -60l39 60h115l-101 -140h-106l-101 140h115z" />
    <glyph glyph-name="ncaron" unicode="&#x148;" horiz-adv-x="530" 
d="M186 357v-357h-150v500h150v-63h2q65 73 156 73q73 0 111.5 -45.5t38.5 -123.5v-341h-150v306q0 80 -70 80q-37 0 -88 -29zM226 700l39 -60l39 60h115l-101 -140h-106l-101 140h115z" />
    <glyph glyph-name="napostrophe" unicode="&#x149;" horiz-adv-x="530" 
d="M186 357v-357h-150v500h150v-63h2q65 73 156 73q73 0 111.5 -45.5t38.5 -123.5v-341h-150v306q0 80 -70 80q-37 0 -88 -29zM101 524h-45l27 81h-44v95h133v-95z" />
    <glyph glyph-name="Eng" unicode="&#x14a;" horiz-adv-x="650" 
d="M454 -48v48l-251 371h-2v-371h-155v680h159l242 -389h2v389h155v-738q0 -80 -35 -117.5t-129 -37.5q-43 0 -91 10l13 115q28 -5 43 -5q28 0 38.5 9t10.5 36z" />
    <glyph glyph-name="eng" unicode="&#x14b;" horiz-adv-x="530" 
d="M344 -45v351q0 80 -70 80q-37 0 -88 -29v-357h-150v500h150v-63h2q65 73 156 73q73 0 111.5 -45.5t38.5 -123.5v-397q0 -79 -35 -116.5t-129 -37.5q-39 0 -91 9l13 115q28 -5 43 -5q27 0 38 9.5t11 36.5z" />
    <glyph glyph-name="Omacron" unicode="&#x14c;" horiz-adv-x="690" 
d="M345 557q-83 0 -112 -52t-29 -160q0 -53 5.5 -90.5t20 -69t43.5 -47.5t72 -16t72 16t43.5 47.5t20 69t5.5 90.5q0 108 -29 160t-112 52zM345 -10q-309 0 -309 355q0 77 14.5 136.5t48.5 108t96 74.5t150 26t150 -26t96 -74.5t48.5 -108t14.5 -136.5q0 -355 -309 -355z
M178 844h333v-98h-333v98z" />
    <glyph glyph-name="omacron" unicode="&#x14d;" horiz-adv-x="550" 
d="M275 386q-50 0 -70 -33.5t-20 -102.5t20 -102.5t70 -33.5t70 33.5t20 102.5t-20 102.5t-70 33.5zM275 -10q-249 0 -249 260t249 260t249 -260t-249 -260zM108 674h333v-98h-333v98z" />
    <glyph glyph-name="Obreve" unicode="&#x14e;" horiz-adv-x="690" 
d="M345 557q-83 0 -112 -52t-29 -160q0 -53 5.5 -90.5t20 -69t43.5 -47.5t72 -16t72 16t43.5 47.5t20 69t5.5 90.5q0 108 -29 160t-112 52zM345 -10q-309 0 -309 355q0 77 14.5 136.5t48.5 108t96 74.5t150 26t150 -26t96 -74.5t48.5 -108t14.5 -136.5q0 -355 -309 -355z
M345 816q67 0 90 61h60q-17 -146 -150 -146q-132 0 -151 146h60q23 -61 91 -61z" />
    <glyph glyph-name="obreve" unicode="&#x14f;" horiz-adv-x="550" 
d="M275 386q-50 0 -70 -33.5t-20 -102.5t20 -102.5t70 -33.5t70 33.5t20 102.5t-20 102.5t-70 33.5zM275 -10q-249 0 -249 260t249 260t249 -260t-249 -260zM275 646q67 0 90 61h60q-17 -146 -150 -146q-132 0 -151 146h60q23 -61 91 -61z" />
    <glyph glyph-name="Ohungarumlaut" unicode="&#x150;" horiz-adv-x="690" 
d="M345 557q-83 0 -112 -52t-29 -160q0 -53 5.5 -90.5t20 -69t43.5 -47.5t72 -16t72 16t43.5 47.5t20 69t5.5 90.5q0 108 -29 160t-112 52zM345 -10q-309 0 -309 355q0 77 14.5 136.5t48.5 108t96 74.5t150 26t150 -26t96 -74.5t48.5 -108t14.5 -136.5q0 -355 -309 -355z
M389 850l-70 -120h-80l53 120h97zM516 850l-70 -120h-80l52 120h98z" />
    <glyph glyph-name="ohungarumlaut" unicode="&#x151;" horiz-adv-x="550" 
d="M275 386q-50 0 -70 -33.5t-20 -102.5t20 -102.5t70 -33.5t70 33.5t20 102.5t-20 102.5t-70 33.5zM275 -10q-249 0 -249 260t249 260t249 -260t-249 -260zM317 680l-70 -120h-80l53 120h97zM444 680l-70 -120h-80l52 120h98z" />
    <glyph glyph-name="OE" unicode="&#x152;" horiz-adv-x="996" 
d="M954 680v-141h-313v-118h268v-141h-268v-139h318v-141h-473v43h-1q-41 -53 -140 -53q-309 0 -309 355q0 77 14.5 136.5t48.5 108t96 74.5t150 26q89 0 140 -53h1v43h468zM345 557q-83 0 -112 -52t-29 -160q0 -53 5.5 -90.5t20 -69t43.5 -47.5t72 -16t72 16t43.5 48t20 69
t5.5 91q0 108 -29 159.5t-112 51.5z" />
    <glyph glyph-name="oe" unicode="&#x153;" horiz-adv-x="870" 
d="M842 216h-313q3 -48 34.5 -75t89.5 -27q88 0 155 20l18 -120q-86 -24 -195 -24q-122 0 -185 61q-59 -61 -171 -61q-249 0 -249 260t249 260q111 0 171 -62q62 62 184 62q219 0 219 -202q0 -38 -7 -92zM275 386q-50 0 -70 -33.5t-20 -102.5t20 -102.5t70 -33.5t70 33.5
t20 102.5t-20 102.5t-70 33.5zM621 395q-84 0 -92 -86h165q2 20 2 26q0 60 -75 60z" />
    <glyph glyph-name="Racute" unicode="&#x154;" horiz-adv-x="615" 
d="M598 0h-185l-133 231h-75v-231h-159v680h295q109 0 171 -60t62 -164q0 -71 -32 -124t-96 -75zM205 539v-167h117q89 0 89 84q0 83 -87 83h-119zM432 850l-96 -140h-115l52 140h159z" />
    <glyph glyph-name="racute" unicode="&#x155;" horiz-adv-x="370" 
d="M186 339v-339h-150v500h150v-80h2q24 38 67 64t99 26v-141q-105 0 -168 -30zM349 700l-96 -140h-115l52 140h159z" />
    <glyph glyph-name="Rcommaaccent" unicode="&#x156;" horiz-adv-x="615" 
d="M598 0h-185l-133 231h-75v-231h-159v680h295q109 0 171 -60t62 -164q0 -71 -32 -124t-96 -75zM205 539v-167h117q89 0 89 84q0 83 -87 83h-119zM312 -210h-45l27 81h-44v95h133v-95z" />
    <glyph glyph-name="rcommaaccent" unicode="&#x157;" horiz-adv-x="370" 
d="M186 339v-339h-150v500h150v-80h2q24 38 67 64t99 26v-141q-105 0 -168 -30zM107 -216h-45l27 81h-44v95h133v-95z" />
    <glyph glyph-name="Rcaron" unicode="&#x158;" horiz-adv-x="615" 
d="M598 0h-185l-133 231h-75v-231h-159v680h295q109 0 171 -60t62 -164q0 -71 -32 -124t-96 -75zM205 539v-167h117q89 0 89 84q0 83 -87 83h-119zM253 850l39 -60l39 60h115l-101 -140h-106l-101 140h115z" />
    <glyph glyph-name="rcaron" unicode="&#x159;" horiz-adv-x="370" 
d="M186 339v-339h-150v500h150v-80h2q24 38 67 64t99 26v-141q-105 0 -168 -30zM155 700l39 -60l39 60h115l-101 -140h-106l-101 140h115z" />
    <glyph glyph-name="Sacute" unicode="&#x15a;" 
d="M300 -10q-135 0 -264 39l27 132q130 -30 237 -30q43 0 69.5 16t26.5 45q0 11 -3.5 20.5t-12.5 16.5t-17.5 12t-24.5 10.5l-27 9t-32.5 9t-33.5 9.5q-199 58 -199 216q0 99 71 147t183 48q116 0 245 -39l-35 -132q-131 30 -210 30q-41 0 -63.5 -15.5t-22.5 -42.5
q0 -31 33 -46.5t112 -33.5q205 -47 205 -206q0 -107 -73.5 -161t-190.5 -54zM466 850l-96 -140h-115l52 140h159z" />
    <glyph glyph-name="sacute" unicode="&#x15b;" horiz-adv-x="480" 
d="M459 156q0 -84 -54 -125t-150 -41q-138 0 -234 24l27 120q105 -25 189 -25q35 0 53.5 10.5t18.5 25.5q0 14 -17 21t-56 14q-99 17 -152 55.5t-53 119.5q0 155 204 155q119 0 215 -24l-27 -120q-104 25 -179 25q-63 0 -63 -32q0 -14 14 -21.5t54 -16.5q103 -23 141 -45
q69 -41 69 -120zM404 700l-96 -140h-115l52 140h159z" />
    <glyph glyph-name="Scircumflex" unicode="&#x15c;" 
d="M300 -10q-135 0 -264 39l27 132q130 -30 237 -30q43 0 69.5 16t26.5 45q0 11 -3.5 20.5t-12.5 16.5t-17.5 12t-24.5 10.5l-27 9t-32.5 9t-33.5 9.5q-199 58 -199 216q0 99 71 147t183 48q116 0 245 -39l-35 -132q-131 30 -210 30q-41 0 -63.5 -15.5t-22.5 -42.5
q0 -31 33 -46.5t112 -33.5q205 -47 205 -206q0 -107 -73.5 -161t-190.5 -54zM310 770l-39 -60h-115l101 140h106l101 -140h-115z" />
    <glyph glyph-name="scircumflex" unicode="&#x15d;" horiz-adv-x="480" 
d="M459 156q0 -84 -54 -125t-150 -41q-138 0 -234 24l27 120q105 -25 189 -25q35 0 53.5 10.5t18.5 25.5q0 14 -17 21t-56 14q-99 17 -152 55.5t-53 119.5q0 155 204 155q119 0 215 -24l-27 -120q-104 25 -179 25q-63 0 -63 -32q0 -14 14 -21.5t54 -16.5q103 -23 141 -45
q69 -41 69 -120zM247 620l-39 -60h-115l101 140h106l101 -140h-115z" />
    <glyph glyph-name="Scedilla" unicode="&#x15e;" 
d="M564 205q0 -104 -68.5 -157.5t-181.5 -57.5v-41q83 -13 83 -74q0 -37 -28 -58.5t-77 -21.5q-44 0 -84 12l9 47q20 -5 45 -5q43 0 43 34q0 30 -45 38v70q-119 5 -224 38l27 132q130 -30 237 -30q43 0 69.5 16t26.5 45q0 11 -3.5 20.5t-12.5 16.5t-17.5 12t-24.5 10.5
l-27 9t-32.5 9t-33.5 9.5q-199 58 -199 216q0 99 71 147t183 48q116 0 245 -39l-35 -132q-131 30 -210 30q-41 0 -63.5 -15.5t-22.5 -42.5q0 -31 33 -46.5t112 -33.5q205 -47 205 -206z" />
    <glyph glyph-name="scedilla" unicode="&#x15f;" horiz-adv-x="480" 
d="M459 156q0 -82 -51.5 -123t-144.5 -43v-41q83 -13 83 -74q0 -37 -27.5 -58.5t-77.5 -21.5q-43 0 -84 12l9 47q20 -5 45 -5q21 0 32.5 9.5t11.5 24.5q0 29 -46 38v70q-114 5 -188 23l27 120q105 -25 189 -25q35 0 53.5 10.5t18.5 25.5q0 14 -17 21t-56 14
q-99 17 -152 55.5t-53 119.5q0 155 204 155q119 0 215 -24l-27 -120q-104 25 -179 25q-63 0 -63 -32q0 -14 14 -21.5t54 -16.5q103 -23 141 -45q69 -41 69 -120z" />
    <glyph glyph-name="Scaron" unicode="&#x160;" 
d="M300 -10q-135 0 -264 39l27 132q130 -30 237 -30q43 0 69.5 16t26.5 45q0 11 -3.5 20.5t-12.5 16.5t-17.5 12t-24.5 10.5l-27 9t-32.5 9t-33.5 9.5q-199 58 -199 216q0 99 71 147t183 48q116 0 245 -39l-35 -132q-131 30 -210 30q-41 0 -63.5 -15.5t-22.5 -42.5
q0 -31 33 -46.5t112 -33.5q205 -47 205 -206q0 -107 -73.5 -161t-190.5 -54zM261 850l39 -60l39 60h115l-101 -140h-106l-101 140h115z" />
    <glyph glyph-name="scaron" unicode="&#x161;" horiz-adv-x="480" 
d="M459 156q0 -84 -54 -125t-150 -41q-138 0 -234 24l27 120q105 -25 189 -25q35 0 53.5 10.5t18.5 25.5q0 14 -17 21t-56 14q-99 17 -152 55.5t-53 119.5q0 155 204 155q119 0 215 -24l-27 -120q-104 25 -179 25q-63 0 -63 -32q0 -14 14 -21.5t54 -16.5q103 -23 141 -45
q69 -41 69 -120zM210 700l39 -60l39 60h115l-101 -140h-106l-101 140h115z" />
    <glyph glyph-name="Tcommaaccent" unicode="&#x162;" horiz-adv-x="560" 
d="M534 539h-175v-539h-158v539h-175v141h508v-141zM276 -216h-45l27 81h-44v95h133v-95z" />
    <glyph glyph-name="tcommaaccent" unicode="&#x163;" horiz-adv-x="375" 
d="M76 142v252h-64v97l64 9l18 140h132v-140h118v-106h-118v-226q0 -59 66 -59q16 0 43 5l14 -115q-52 -9 -109 -9q-88 0 -126 37t-38 115zM198 -216h-45l27 81h-44v95h133v-95z" />
    <glyph glyph-name="Tcaron" unicode="&#x164;" horiz-adv-x="560" 
d="M534 539h-175v-539h-158v539h-175v141h508v-141zM241 850l39 -60l39 60h115l-101 -140h-106l-101 140h115z" />
    <glyph glyph-name="tcaron" unicode="&#x165;" horiz-adv-x="375" 
d="M76 142v252h-64v97l64 9l18 140h132v-140h118v-106h-118v-226q0 -59 66 -59q16 0 43 5l14 -115q-52 -9 -109 -9q-88 0 -126 37t-38 115zM334 524h-45l27 81h-44v95h133v-95z" />
    <glyph glyph-name="Tbar" unicode="&#x166;" horiz-adv-x="560" 
d="M127 314h74v225h-175v141h508v-141h-175v-225h74v-88h-74v-226h-158v226h-74v88z" />
    <glyph glyph-name="tbar" unicode="&#x167;" horiz-adv-x="375" 
d="M76 226h-60v89h60v79h-64v97l64 9l18 140h132v-140h118v-106h-118v-79h108v-89h-108v-58q0 -59 66 -59q16 0 43 5l14 -115q-52 -9 -109 -9q-88 0 -126 37t-38 115v84z" />
    <glyph glyph-name="Utilde" unicode="&#x168;" horiz-adv-x="640" 
d="M321 122q62 0 88 30.5t26 87.5v440h159v-440q0 -129 -73 -189.5t-201 -60.5t-201 60.5t-73 189.5v440h159v-440q0 -57 26 -87.5t90 -30.5zM260 745q-32 0 -66 -38l-47 53q42 96 110 96q26 0 71.5 -20t60.5 -20q31 0 65 39l38 -63q-40 -83 -103 -83q-19 0 -64.5 18
t-64.5 18z" />
    <glyph glyph-name="utilde" unicode="&#x169;" horiz-adv-x="530" 
d="M344 143v357h150v-500h-150v62h-2q-66 -72 -156 -72q-73 0 -111.5 45t-38.5 124v341h150v-306q0 -80 70 -80q37 0 88 29zM205 585q-32 0 -66 -38l-47 53q42 96 110 96q26 0 71.5 -20t60.5 -20q31 0 65 39l38 -63q-40 -83 -103 -83q-19 0 -64.5 18t-64.5 18z" />
    <glyph glyph-name="Umacron" unicode="&#x16a;" horiz-adv-x="640" 
d="M321 122q62 0 88 30.5t26 87.5v440h159v-440q0 -129 -73 -189.5t-201 -60.5t-201 60.5t-73 189.5v440h159v-440q0 -57 26 -87.5t90 -30.5zM153 844h333v-98h-333v98z" />
    <glyph glyph-name="umacron" unicode="&#x16b;" horiz-adv-x="530" 
d="M344 143v357h150v-500h-150v62h-2q-66 -72 -156 -72q-73 0 -111.5 45t-38.5 124v341h150v-306q0 -80 70 -80q37 0 88 29zM98 674h333v-98h-333v98z" />
    <glyph glyph-name="Ubreve" unicode="&#x16c;" horiz-adv-x="640" 
d="M321 122q62 0 88 30.5t26 87.5v440h159v-440q0 -129 -73 -189.5t-201 -60.5t-201 60.5t-73 189.5v440h159v-440q0 -57 26 -87.5t90 -30.5zM320 816q67 0 90 61h60q-17 -146 -150 -146q-132 0 -151 146h60q23 -61 91 -61z" />
    <glyph glyph-name="ubreve" unicode="&#x16d;" horiz-adv-x="530" 
d="M344 143v357h150v-500h-150v62h-2q-66 -72 -156 -72q-73 0 -111.5 45t-38.5 124v341h150v-306q0 -80 70 -80q37 0 88 29zM265 646q67 0 90 61h60q-17 -146 -150 -146q-132 0 -151 146h60q23 -61 91 -61z" />
    <glyph glyph-name="Uring" unicode="&#x16e;" horiz-adv-x="640" 
d="M321 122q62 0 88 30.5t26 87.5v440h159v-440q0 -129 -73 -189.5t-201 -60.5t-201 60.5t-73 189.5v440h159v-440q0 -57 26 -87.5t90 -30.5zM238 790q0 34 24 56.5t59 22.5t58 -22.5t23 -56.5t-23 -56.5t-58 -22.5t-59 22.5t-24 56.5zM285 790q0 -16 10.5 -27t25.5 -11
t25 11t10 27t-10 27t-25 11t-25.5 -11t-10.5 -27z" />
    <glyph glyph-name="uring" unicode="&#x16f;" horiz-adv-x="530" 
d="M344 143v357h150v-500h-150v62h-2q-66 -72 -156 -72q-73 0 -111.5 45t-38.5 124v341h150v-306q0 -80 70 -80q37 0 88 29zM183 620q0 34 24 56.5t59 22.5t58 -22.5t23 -56.5t-23 -56.5t-58 -22.5t-59 22.5t-24 56.5zM230 620q0 -16 10.5 -27t25.5 -11t25 11t10 27t-10 27
t-25 11t-25.5 -11t-10.5 -27z" />
    <glyph glyph-name="Uhungarumlaut" unicode="&#x170;" horiz-adv-x="640" 
d="M321 122q62 0 88 30.5t26 87.5v440h159v-440q0 -129 -73 -189.5t-201 -60.5t-201 60.5t-73 189.5v440h159v-440q0 -57 26 -87.5t90 -30.5zM353 850l-70 -120h-80l53 120h97zM480 850l-70 -120h-80l52 120h98z" />
    <glyph glyph-name="uhungarumlaut" unicode="&#x171;" horiz-adv-x="530" 
d="M344 143v357h150v-500h-150v62h-2q-66 -72 -156 -72q-73 0 -111.5 45t-38.5 124v341h150v-306q0 -80 70 -80q37 0 88 29zM311 680l-70 -120h-80l53 120h97zM438 680l-70 -120h-80l52 120h98z" />
    <glyph glyph-name="Uogonek" unicode="&#x172;" horiz-adv-x="640" 
d="M321 122q62 0 88 30.5t26 87.5v440h159v-440q0 -121 -65 -182t-181 -67q-46 -43 -46 -87q0 -25 16 -39t44 -14q18 0 41 9l5 -35q-37 -29 -98 -29q-48 0 -78 23t-30 58q0 64 74 116q-108 9 -169 69.5t-61 177.5v440h159v-440q0 -57 26 -87.5t90 -30.5z" />
    <glyph glyph-name="uogonek" unicode="&#x173;" horiz-adv-x="530" 
d="M495 -140l5 -35q-37 -29 -98 -29q-42 0 -75 20.5t-33 60.5q0 69 86 123h-36v62h-2q-66 -72 -156 -72q-73 0 -111.5 45t-38.5 124v341h150v-306q0 -80 70 -80q37 0 88 29v357h150v-500q-50 -3 -75 -32.5t-25 -63.5q0 -25 16 -39t44 -14q18 0 41 9z" />
    <glyph glyph-name="Wcircumflex" unicode="&#x174;" horiz-adv-x="940" 
d="M471 424h-2l-89 -429h-203l-161 685h177l93 -486h1l95 486h185l98 -486h1l90 486h168l-161 -685h-203zM470 770l-39 -60h-115l101 140h106l101 -140h-115z" />
    <glyph glyph-name="wcircumflex" unicode="&#x175;" horiz-adv-x="790" 
d="M395 270h-2l-65 -275h-167l-144 505h168l75 -341h2l64 341h146l70 -341h2l70 341h158l-142 -505h-168zM395 620l-39 -60h-115l101 140h106l101 -140h-115z" />
    <glyph glyph-name="Ycircumflex" unicode="&#x176;" horiz-adv-x="620" 
d="M313 399h2l117 281h172l-215 -440v-240h-158v240l-215 440h181zM310 770l-39 -60h-115l101 140h106l101 -140h-115z" />
    <glyph glyph-name="ycircumflex" unicode="&#x177;" horiz-adv-x="560" 
d="M197 -6l-180 506h168l99 -342h2l97 342h159l-170 -511q-37 -111 -90.5 -155t-144.5 -44q-47 0 -97 9l13 124q27 -5 49 -5q32 0 58 19.5t37 56.5zM280 620l-39 -60h-115l101 140h106l101 -140h-115z" />
    <glyph glyph-name="Ydieresis" unicode="&#x178;" horiz-adv-x="620" 
d="M313 399h2l117 281h172l-215 -440v-240h-158v240l-215 440h181zM152 857h123v-135h-123v135zM344 857h124v-135h-124v135z" />
    <glyph glyph-name="Zacute" unicode="&#x179;" horiz-adv-x="560" 
d="M246 143v-2h289v-141h-510v115l284 422v2h-264v141h480v-115zM430 850l-96 -140h-115l52 140h159z" />
    <glyph glyph-name="zacute" unicode="&#x17a;" horiz-adv-x="470" 
d="M442 500v-106l-233 -277v-2h247v-115h-442v106l238 277v2h-223v115h413zM381 700l-96 -140h-115l52 140h159z" />
    <glyph glyph-name="Zdotaccent" unicode="&#x17b;" horiz-adv-x="560" 
d="M246 143v-2h289v-141h-510v115l284 422v2h-264v141h480v-115zM213 850h133v-118h-133v118z" />
    <glyph glyph-name="zdotaccent" unicode="&#x17c;" horiz-adv-x="470" 
d="M442 500v-106l-233 -277v-2h247v-115h-442v106l238 277v2h-223v115h413zM168 680h133v-118h-133v118z" />
    <glyph glyph-name="Zcaron" unicode="&#x17d;" horiz-adv-x="560" 
d="M246 143v-2h289v-141h-510v115l284 422v2h-264v141h480v-115zM241 850l39 -60l39 60h115l-101 -140h-106l-101 140h115z" />
    <glyph glyph-name="zcaron" unicode="&#x17e;" horiz-adv-x="470" 
d="M442 500v-106l-233 -277v-2h247v-115h-442v106l238 277v2h-223v115h413zM196 700l39 -60l39 60h115l-101 -140h-106l-101 140h115z" />
    <glyph glyph-name="longs" unicode="&#x17f;" horiz-adv-x="345" 
d="M76 -45v593q0 78 38 115t126 37q39 0 91 -9l-13 -115q-28 5 -43 5q-27 0 -38 -14.5t-11 -44.5v-578q0 -79 -34.5 -116.5t-129.5 -37.5q-39 0 -91 9l14 115q27 -5 42 -5q29 0 39 9.5t10 36.5z" />
    <glyph glyph-name="florin" unicode="&#x192;" horiz-adv-x="345" 
d="M76 -32v426h-64v97l64 9v48q0 78 38 115t126 37q39 0 91 -9l-13 -115q-28 5 -43 5q-27 0 -38 -14.5t-11 -44.5v-22h100v-106h-100v-427q0 -86 -35.5 -131.5t-128.5 -45.5q-39 0 -91 9l14 115q27 -5 42 -5q27 0 38 14.5t11 44.5z" />
    <glyph glyph-name="AEacute" unicode="&#x1fc;" horiz-adv-x="926" 
d="M412 162h-167l-71 -162h-158l317 680h552v-141h-314v-118h269v-141h-269v-139h319v-141h-478v162zM410 538l-112 -252h114v252h-2zM644 850l-96 -140h-115l52 140h159z" />
    <glyph glyph-name="aeacute" unicode="&#x1fd;" horiz-adv-x="822" 
d="M794 216h-312q3 -48 34.5 -75t89.5 -27q88 0 155 20l18 -120q-86 -24 -195 -24q-162 0 -224 92q-47 -53 -91 -72.5t-95 -19.5q-71 0 -112 43.5t-41 113.5q0 38 14.5 67.5t36 46t51 27t55.5 14t53 3.5h88v27q0 32 -21.5 43t-67.5 11q-66 0 -156 -19l-22 119q120 24 213 24
q52 0 86.5 -9.5t67.5 -38.5q59 48 163 48q122 0 171 -55t49 -151q0 -30 -8 -88zM235 105q52 0 88 29q-4 28 -4 82h-79q-69 0 -69 -56q0 -27 19 -41t45 -14zM574 395q-84 0 -92 -86h164q2 7 2 22q0 64 -74 64zM579 700l-96 -140h-115l52 140h159z" />
    <glyph glyph-name="Oslashacute" unicode="&#x1fe;" horiz-adv-x="690" 
d="M493 850l-96 -140h-115l52 140h159zM345 -10q-124 0 -200 58l-68 -86l-45 36l72 90q-68 87 -68 257q0 77 14.5 136.5t48.5 108t96 74.5t150 26q119 0 194 -52l73 92l45 -36l-75 -94q72 -86 72 -255q0 -355 -309 -355zM345 122q43 0 72 16t43.5 47.5t20 69t5.5 90.5
q0 76 -14 117l-232 -294q32 -46 105 -46zM345 557q-83 0 -112 -52t-29 -160q0 -76 11 -116l231 291q-32 37 -101 37z" />
    <glyph glyph-name="oslashacute" unicode="&#x1ff;" horiz-adv-x="550" 
d="M427 700l-96 -140h-115l52 140h159zM275 -10q-92 0 -152 38l-56 -66l-45 36l57 67q-53 64 -53 185q0 260 249 260q92 0 151 -38l57 66l44 -36l-57 -67q54 -66 54 -185q0 -260 -249 -260zM275 114q50 0 70 33.5t20 102.5q0 32 -7 54l-144 -170q23 -20 61 -20zM275 386
q-50 0 -70 -33.5t-20 -102.5q0 -36 6 -54l144 169q-23 21 -60 21z" />
    <glyph glyph-name="Scommaaccent" unicode="&#x218;" 
d="M300 -10q-135 0 -264 39l27 132q130 -30 237 -30q43 0 69.5 16t26.5 45q0 11 -3.5 20.5t-12.5 16.5t-17.5 12t-24.5 10.5l-27 9t-32.5 9t-33.5 9.5q-199 58 -199 216q0 99 71 147t183 48q116 0 245 -39l-35 -132q-131 30 -210 30q-41 0 -63.5 -15.5t-22.5 -42.5
q0 -31 33 -46.5t112 -33.5q205 -47 205 -206q0 -107 -73.5 -161t-190.5 -54zM296 -216h-45l27 81h-44v95h133v-95z" />
    <glyph glyph-name="scommaaccent" unicode="&#x219;" horiz-adv-x="480" 
d="M459 156q0 -84 -54 -125t-150 -41q-138 0 -234 24l27 120q105 -25 189 -25q35 0 53.5 10.5t18.5 25.5q0 14 -17 21t-56 14q-99 17 -152 55.5t-53 119.5q0 155 204 155q119 0 215 -24l-27 -120q-104 25 -179 25q-63 0 -63 -32q0 -14 14 -21.5t54 -16.5q103 -23 141 -45
q69 -41 69 -120zM236 -216h-45l27 81h-44v95h133v-95z" />
    <glyph glyph-name="uni021A" unicode="&#x21a;" horiz-adv-x="560" 
d="M534 539h-175v-539h-158v539h-175v141h508v-141zM276 -216h-45l27 81h-44v95h133v-95z" />
    <glyph glyph-name="uni021B" unicode="&#x21b;" horiz-adv-x="375" 
d="M76 142v252h-64v97l64 9l18 140h132v-140h118v-106h-118v-226q0 -59 66 -59q16 0 43 5l14 -115q-52 -9 -109 -9q-88 0 -126 37t-38 115zM209 -218h-45l27 81h-44v95h133v-95z" />
    <glyph glyph-name="dotlessj" unicode="&#x237;" horiz-adv-x="262" 
d="M226 500v-556q0 -79 -35 -116.5t-129 -37.5q-39 0 -91 9l14 115q27 -5 42 -5q28 0 38.5 9t10.5 37v545h150z" />
    <glyph glyph-name="circumflex" unicode="&#x2c6;" horiz-adv-x="412" 
d="M206 620l-39 -60h-115l101 140h106l101 -140h-115z" />
    <glyph glyph-name="caron" unicode="&#x2c7;" horiz-adv-x="412" 
d="M167 700l39 -60l39 60h115l-101 -140h-106l-101 140h115z" />
    <glyph glyph-name="uni02C9" unicode="&#x2c9;" horiz-adv-x="437" 
d="M52 674h333v-98h-333v98z" />
    <glyph glyph-name="breve" unicode="&#x2d8;" horiz-adv-x="406" 
d="M203 646q67 0 90 61h60q-17 -146 -150 -146q-132 0 -151 146h60q23 -61 91 -61z" />
    <glyph glyph-name="dotaccent" unicode="&#x2d9;" horiz-adv-x="237" 
d="M52 680h133v-118h-133v118z" />
    <glyph glyph-name="ring" unicode="&#x2da;" horiz-adv-x="269" 
d="M52 620q0 34 24 56.5t59 22.5t58 -22.5t23 -56.5t-23 -56.5t-58 -22.5t-59 22.5t-24 56.5zM99 620q0 -16 10.5 -27t25.5 -11t25 11t10 27t-10 27t-25 11t-25.5 -11t-10.5 -27z" />
    <glyph glyph-name="ogonek" unicode="&#x2db;" horiz-adv-x="310" 
d="M253 -140l5 -35q-37 -29 -98 -29q-48 0 -78 23t-30 58q0 69 86 123h72q-57 -46 -57 -96q0 -53 59 -53q18 0 41 9z" />
    <glyph glyph-name="tilde" unicode="&#x2dc;" horiz-adv-x="449" 
d="M165 585q-32 0 -66 -38l-47 53q42 96 110 96q26 0 71.5 -20t60.5 -20q31 0 65 39l38 -63q-40 -83 -103 -83q-19 0 -64.5 18t-64.5 18z" />
    <glyph glyph-name="hungarumlaut" unicode="&#x2dd;" horiz-adv-x="381" 
d="M202 680l-70 -120h-80l53 120h97zM329 680l-70 -120h-80l52 120h98z" />
    <glyph glyph-name="uni037E" unicode="&#x37e;" horiz-adv-x="262" 
d="M56 326h150v-152h-150v152z" />
    <glyph glyph-name="tonos" unicode="&#x384;" horiz-adv-x="281" 
d="M229 680l-97 -120h-80l53 120h124z" />
    <glyph glyph-name="dieresistonos" unicode="&#x385;" horiz-adv-x="560" 
d="M52 680h124v-118h-124v118zM384 680h123v-118h-123v118zM374 700l-97 -138h-80l53 138h124z" />
    <glyph glyph-name="anoteleia" unicode="&#x387;" horiz-adv-x="464" 
d="M52 680h124v-118h-124v118zM287 680h124v-118h-124v118z" />
    <glyph glyph-name="uni03BC" unicode="&#x3bc;" horiz-adv-x="530" 
d="M186 500v-308q1 -78 70 -78q37 0 88 29v357h150v-500h-150v62h-2q-44 -46 -94 -61q-38 -8 -62 1v-35q0 -90 -42.5 -133.5t-129.5 -43.5q-31 0 -83 9l14 115q27 -5 42 -5q49 0 49 59v532h150z" />
    <glyph glyph-name="pi" unicode="&#x3c0;" horiz-adv-x="530" 
d="M186 0h-150v500h458v-500h-150v367h-158v-367z" />
    <glyph glyph-name="uni03C2" unicode="&#x3c2;" horiz-adv-x="513" 
d="M100 249q0 68 48 114l-78 90l8 8l79 -90q44 36 100 36q55 0 99 -36l78 90l9 -8l-78 -89q50 -47 50 -115t-49 -114l76 -86l-9 -9l-77 87q-43 -35 -99 -35q-57 0 -100 35l-76 -87l-9 9l76 86q-48 46 -48 114zM112 249q0 -59 43 -102t102 -43t102.5 43t43.5 102t-43.5 102.5
t-102.5 43.5t-102 -43.5t-43 -102.5z" />
    <glyph glyph-name="sigma" unicode="&#x3c3;" horiz-adv-x="513" 
d="M100 249q0 68 48 114l-78 90l8 8l79 -90q44 36 100 36q55 0 99 -36l78 90l9 -8l-78 -89q50 -47 50 -115t-49 -114l76 -86l-9 -9l-77 87q-43 -35 -99 -35q-57 0 -100 35l-76 -87l-9 9l76 86q-48 46 -48 114zM112 249q0 -59 43 -102t102 -43t102.5 43t43.5 102t-43.5 102.5
t-102.5 43.5t-102 -43.5t-43 -102.5z" />
    <glyph glyph-name="Wgrave" unicode="&#x1e80;" horiz-adv-x="940" 
d="M471 424h-2l-89 -429h-203l-161 685h177l93 -486h1l95 486h185l98 -486h1l90 486h168l-161 -685h-203zM426 710l-96 140h159l52 -140h-115z" />
    <glyph glyph-name="wgrave" unicode="&#x1e81;" horiz-adv-x="790" 
d="M395 270h-2l-65 -275h-167l-144 505h168l75 -341h2l64 341h146l70 -341h2l70 341h158l-142 -505h-168zM334 560l-96 140h159l52 -140h-115z" />
    <glyph glyph-name="Wacute" unicode="&#x1e82;" horiz-adv-x="940" 
d="M471 424h-2l-89 -429h-203l-161 685h177l93 -486h1l95 486h185l98 -486h1l90 486h168l-161 -685h-203zM628 850l-96 -140h-115l52 140h159z" />
    <glyph glyph-name="wacute" unicode="&#x1e83;" horiz-adv-x="790" 
d="M395 270h-2l-65 -275h-167l-144 505h168l75 -341h2l64 341h146l70 -341h2l70 341h158l-142 -505h-168zM552 698l-96 -140h-115l52 140h159z" />
    <glyph glyph-name="Wdieresis" unicode="&#x1e84;" horiz-adv-x="940" 
d="M471 424h-2l-89 -429h-203l-161 685h177l93 -486h1l95 486h185l98 -486h1l90 486h168l-161 -685h-203zM312 857h123v-135h-123v135zM504 857h124v-135h-124v135z" />
    <glyph glyph-name="wdieresis" unicode="&#x1e85;" horiz-adv-x="790" 
d="M395 270h-2l-65 -275h-167l-144 505h168l75 -341h2l64 341h146l70 -341h2l70 341h158l-142 -505h-168zM237 697h123v-135h-123v135zM429 697h124v-135h-124v135z" />
    <glyph glyph-name="Ygrave" unicode="&#x1ef2;" horiz-adv-x="620" 
d="M313 399h2l117 281h172l-215 -440v-240h-158v240l-215 440h181zM259 710l-96 140h159l52 -140h-115z" />
    <glyph glyph-name="ygrave" unicode="&#x1ef3;" horiz-adv-x="560" 
d="M197 -6l-180 506h168l99 -342h2l97 342h159l-170 -511q-37 -111 -90.5 -155t-144.5 -44q-47 0 -97 9l13 124q27 -5 49 -5q32 0 58 19.5t37 56.5zM221 560l-96 140h159l52 -140h-115z" />
    <glyph glyph-name="figuredash" unicode="&#x2012;" horiz-adv-x="699" 
d="M36 327h626v-124h-626v124z" />
    <glyph glyph-name="endash" unicode="&#x2013;" horiz-adv-x="699" 
d="M36 327h626v-124h-626v124z" />
    <glyph glyph-name="emdash" unicode="&#x2014;" horiz-adv-x="760" 
d="M36 327h688v-124h-688v124z" />
    <glyph glyph-name="quoteleft" unicode="&#x2018;" horiz-adv-x="222" 
d="M107 680h45l-27 -130h61v-153h-150v153z" />
    <glyph glyph-name="quoteright" unicode="&#x2019;" horiz-adv-x="222" 
d="M115 397h-45l27 130h-61v153h150v-153z" />
    <glyph glyph-name="quotesinglbase" unicode="&#x201a;" horiz-adv-x="222" 
d="M115 -183h-45l27 130h-61v153h150v-153z" />
    <glyph glyph-name="quotedblleft" unicode="&#x201c;" horiz-adv-x="442" 
d="M327 680h45l-27 -130h61v-153h-150v153q13 27 71 130zM107 680h45l-27 -130h61v-153h-150v153z" />
    <glyph glyph-name="quotedblright" unicode="&#x201d;" horiz-adv-x="442" 
d="M115 397h-45l27 130h-61v153h150v-153zM335 397h-45l27 130h-61v153h150v-153z" />
    <glyph glyph-name="quotedblbase" unicode="&#x201e;" horiz-adv-x="442" 
d="M115 -183h-45l27 130h-61v153h150v-153zM335 -183h-45l27 130h-61v153h150v-153z" />
    <glyph glyph-name="dagger" unicode="&#x2020;" horiz-adv-x="580" 
d="M544 359l-183 8l8 -367h-158l8 367l-183 -8v141l183 -9l-8 209h158l-8 -209l183 9v-141z" />
    <glyph glyph-name="daggerdbl" unicode="&#x2021;" horiz-adv-x="580" 
d="M219 292v115l-183 -8v141l183 -9l-8 169h158l-8 -169l183 9v-141l-183 8v-115l183 9v-141l-183 9l8 -169h-158l8 169l-183 -9v141z" />
    <glyph glyph-name="bullet" unicode="&#x2022;" horiz-adv-x="262" 
d="M56 326h150v-152h-150v152z" />
    <glyph glyph-name="onedotenleader" unicode="&#x2024;" horiz-adv-x="222" 
d="M36 152h150v-152h-150v152z" />
    <glyph glyph-name="twodotenleader" unicode="&#x2025;" horiz-adv-x="410" 
d="M36 152h150v-152h-150v152zM224 152h150v-152h-150v152z" />
    <glyph glyph-name="ellipsis" unicode="&#x2026;" horiz-adv-x="622" 
d="M36 152h150v-152h-150v152zM436 152h150v-152h-150v152zM236 152h150v-152h-150v152z" />
    <glyph glyph-name="perthousand" unicode="&#x2030;" horiz-adv-x="1095" 
d="M614 680l-370 -680h-98l370 680h98zM180 388q-70 0 -108 40t-38 110q0 71 38 111t108 40q71 0 109 -40t38 -111q0 -70 -38 -110t-109 -40zM180 463q54 0 54 75q0 76 -54 76q-53 0 -53 -76q0 -75 53 -75zM580 -9q-71 0 -109 40t-38 111q0 70 38 110t109 40q70 0 108 -40
t38 -110q0 -71 -38 -111t-108 -40zM580 66q53 0 53 76q0 75 -53 75q-54 0 -54 -75q0 -76 54 -76zM915 -9q-71 0 -109 40t-38 111q0 70 38 110t109 40q70 0 108 -40t38 -110q0 -71 -38 -111t-108 -40zM915 66q53 0 53 76q0 75 -53 75q-54 0 -54 -75q0 -76 54 -76z" />
    <glyph glyph-name="guilsinglleft" unicode="&#x2039;" horiz-adv-x="380" 
d="M36 294l308 170v-133l-149 -81l149 -81v-133l-308 170v88z" />
    <glyph glyph-name="guilsinglright" unicode="&#x203a;" horiz-adv-x="380" 
d="M344 206l-308 -170v133l149 81l-149 81v133l308 -170v-88z" />
    <glyph glyph-name="exclamdbl" unicode="&#x203c;" horiz-adv-x="410" 
d="M36 152h150v-152h-150v152zM36 680h150l-9 -461h-132zM224 152h150v-152h-150v152zM224 680h150l-9 -461h-133z" />
    <glyph glyph-name="fraction" unicode="&#x2044;" horiz-adv-x="540" 
d="M521 680l-370 -680h-132l370 680h132z" />
    <glyph glyph-name="zerosuperior" unicode="&#x2070;" horiz-adv-x="327" 
d="M164 808q-50 0 -50 -110q0 -116 50 -116q49 0 49 116q0 110 -49 110zM164 520q-68 0 -99 49t-31 129q0 172 130 172q67 0 98 -47t31 -125q0 -80 -31 -129t-98 -49z" />
    <glyph glyph-name="foursuperior" unicode="&#x2074;" horiz-adv-x="337" 
d="M111 666h75v106q-36 -58 -75 -106zM168 870h93v-204h42v-62h-42v-74h-75v74h-152v62q83 90 134 204z" />
    <glyph glyph-name="fivesuperior" unicode="&#x2075;" horiz-adv-x="317" 
d="M154 520q-58 0 -120 34l22 58q62 -30 95 -30q22 0 37 14t15 38q0 21 -11.5 36.5t-36.5 15.5q-29 0 -48 -20l-54 5l6 194h204v-67h-139l-3 -66l1 -1q27 20 60 20q46 0 73.5 -29t27.5 -83t-35 -86.5t-94 -32.5z" />
    <glyph glyph-name="sixsuperior" unicode="&#x2076;" horiz-adv-x="317" 
d="M109 722h1q27 30 68 30q49 0 77 -30.5t28 -86.5q0 -53 -33.5 -84t-87.5 -31q-64 0 -96 44.5t-32 110.5q0 195 151 195q42 0 87 -19l-9 -58q-39 15 -71 15q-33 0 -58 -22t-25 -64zM115 667q-8 -85 43 -85q20 0 32.5 14t12.5 39q0 52 -45 52q-21 0 -43 -20z" />
    <glyph glyph-name="sevensuperior" unicode="&#x2077;" horiz-adv-x="312" 
d="M196 802v1h-162v67h244v-54l-48.5 -87.5t-35 -83t-30.5 -115.5h-80q25 142 112 272z" />
    <glyph glyph-name="eightsuperior" unicode="&#x2078;" horiz-adv-x="327" 
d="M229 705q64 -38 64 -87t-38 -73.5t-94 -24.5q-54 0 -90.5 22.5t-36.5 68.5q0 56 63 82q-53 30 -53 84q0 45 35.5 69t85.5 24q48 0 83 -23.5t35 -65.5q0 -47 -54 -76zM112 618q0 -20 15 -31t39 -11q48 0 50 36q0 18 -15.5 29.5t-48.5 23.5q-40 -16 -40 -47zM163 815
q-18 0 -31 -10t-13 -26q0 -34 54 -47q34 14 34 43q0 18 -12.5 29t-31.5 11z" />
    <glyph glyph-name="ninesuperior" unicode="&#x2079;" horiz-adv-x="317" 
d="M207 668h-1q-27 -30 -68 -30q-48 0 -76 30.5t-28 86.5q0 53 33 84t88 31q64 0 96 -44.5t32 -110.5q0 -195 -151 -195q-42 0 -87 19l9 58q37 -15 71 -15q33 0 58 22t24 64zM201 723q10 85 -43 85q-19 0 -31.5 -14t-12.5 -39q0 -52 45 -52q22 0 42 20z" />
    <glyph glyph-name="parenleftsuperior" unicode="&#x207d;" horiz-adv-x="206" 
d="M34 690q0 136 89 240h49q-63 -113 -63 -240q0 -121 63 -240h-49q-89 104 -89 240z" />
    <glyph glyph-name="parenrightsuperior" unicode="&#x207e;" horiz-adv-x="206" 
d="M172 690q0 -134 -89 -240h-49q62 115 62 240q0 131 -62 240h49q89 -106 89 -240z" />
    <glyph glyph-name="nsuperior" unicode="&#x207f;" horiz-adv-x="296" 
d="M109 608v-178h-75v250h75v-31h1q31 36 77 36q37 0 56 -22.5t19 -61.5v-171h-75v153q0 40 -35 40q-19 0 -43 -15z" />
    <glyph glyph-name="zeroinferior" unicode="&#x2080;" horiz-adv-x="327" 
d="M164 78q-50 0 -50 -110q0 -116 50 -116q49 0 49 116q0 110 -49 110zM164 -210q-68 0 -99 49t-31 129q0 172 130 172q67 0 98 -47t31 -125q0 -80 -31 -129t-98 -49z" />
    <glyph glyph-name="oneinferior" unicode="&#x2081;" horiz-adv-x="297" 
d="M25 -138h92v197l-64 -26l-19 58q70 23 104 52h55v-281h92v-62h-260v62z" />
    <glyph glyph-name="twoinferior" unicode="&#x2082;" horiz-adv-x="307" 
d="M133 76q-30 0 -77 -23l-22 58q59 34 121 34q54 0 83.5 -29t29.5 -75q0 -49 -32 -88.5t-96 -84.5v-1h133v-67h-239v71q89 56 121.5 91t32.5 64q0 50 -55 50z" />
    <glyph glyph-name="threeinferior" unicode="&#x2083;" horiz-adv-x="317" 
d="M216 -26q67 -20 67 -85q0 -48 -33.5 -73.5t-94.5 -25.5q-68 0 -121 33l22 58q62 -29 98 -29q25 0 38 12t13 28q0 23 -14 32.5t-45 9.5h-46v62h42q55 0 55 45q0 16 -10.5 26.5t-28.5 10.5q-11 0 -20.5 -1.5t-20.5 -5t-16.5 -6l-19.5 -8.5t-18 -8l-22 57q59 34 123 34
q47 0 78 -23.5t31 -66.5q0 -54 -57 -76z" />
    <glyph glyph-name="fourinferior" unicode="&#x2084;" horiz-adv-x="337" 
d="M111 -64h75v106q-36 -58 -75 -106zM168 140h93v-204h42v-62h-42v-74h-75v74h-152v62q83 90 134 204z" />
    <glyph glyph-name="fiveinferior" unicode="&#x2085;" horiz-adv-x="317" 
d="M154 -210q-58 0 -120 34l22 58q62 -30 95 -30q22 0 37 14t15 38q0 21 -11.5 36.5t-36.5 15.5q-29 0 -48 -20l-54 5l6 194h204v-67h-139l-3 -66l1 -1q27 20 60 20q46 0 73.5 -29t27.5 -83t-35 -86.5t-94 -32.5z" />
    <glyph glyph-name="sixinferior" unicode="&#x2086;" horiz-adv-x="317" 
d="M109 -8h1q27 30 68 30q49 0 77 -30.5t28 -86.5q0 -53 -33.5 -84t-87.5 -31q-64 0 -96 44.5t-32 110.5q0 195 151 195q42 0 87 -19l-9 -58q-39 15 -71 15q-33 0 -58 -22t-25 -64zM115 -63q-8 -85 43 -85q20 0 32.5 14t12.5 39q0 52 -45 52q-21 0 -43 -20z" />
    <glyph glyph-name="seveninferior" unicode="&#x2087;" horiz-adv-x="312" 
d="M196 72v1h-162v67h244v-54l-48.5 -87.5t-35 -83t-30.5 -115.5h-80q25 142 112 272z" />
    <glyph glyph-name="eightinferior" unicode="&#x2088;" horiz-adv-x="327" 
d="M229 -25q64 -38 64 -87t-38 -73.5t-94 -24.5q-54 0 -90.5 22.5t-36.5 68.5q0 56 63 82q-53 30 -53 84q0 45 35.5 69t85.5 24q48 0 83 -23.5t35 -65.5q0 -47 -54 -76zM112 -112q0 -20 15 -31t39 -11q48 0 50 36q0 18 -15.5 29.5t-48.5 23.5q-40 -16 -40 -47zM163 85
q-18 0 -31 -10t-13 -26q0 -34 54 -47q34 14 34 43q0 18 -12.5 29t-31.5 11z" />
    <glyph glyph-name="nineinferior" unicode="&#x2089;" horiz-adv-x="317" 
d="M207 -62h-1q-27 -30 -68 -30q-48 0 -76 30.5t-28 86.5q0 53 33 84t88 31q64 0 96 -44.5t32 -110.5q0 -195 -151 -195q-42 0 -87 19l9 58q37 -15 71 -15q33 0 58 22t24 64zM201 -7q10 85 -43 85q-19 0 -31.5 -14t-12.5 -39q0 -52 45 -52q22 0 42 20z" />
    <glyph glyph-name="parenleftinferior" unicode="&#x208d;" horiz-adv-x="206" 
d="M34 -40q0 136 89 240h49q-63 -113 -63 -240q0 -121 63 -240h-49q-89 104 -89 240z" />
    <glyph glyph-name="parenrightinferior" unicode="&#x208e;" horiz-adv-x="206" 
d="M172 -40q0 -134 -89 -240h-49q62 115 62 240q0 131 -62 240h49q89 -106 89 -240z" />
    <glyph glyph-name="colonmonetary" unicode="&#x20a1;" horiz-adv-x="630" 
d="M441 -100h-62v90h-34q-29 0 -54 3v-93h-62v105q-56 17 -95 50.5t-59.5 80.5t-29.5 97t-9 112q0 83 15.5 144t59.5 112.5t118 73.5v105h62v-93q25 3 54 3h34v90h62v-96q76 -7 154 -33l-35 -132q-131 30 -198 30q-82 0 -120 -49.5t-38 -154.5q0 -109 37.5 -161.5
t120.5 -52.5q69 0 198 30l35 -132q-94 -26 -154 -33v-96z" />
    <glyph glyph-name="franc" unicode="&#x20a3;" horiz-adv-x="700" 
d="M295 454h165l-9 -88h-178q-1 -7 -1 -21q0 -11 2 -31h186l-9 -88h-154q43 -95 143 -95q85 0 172 63l53 -119q-107 -85 -251 -85q-116 0 -191.5 64t-103.5 172h-84v88h70v52h-70v88h83q25 108 100.5 172t195.5 64q144 0 251 -85l-53 -119q-87 63 -172 63q-106 0 -145 -95z
" />
    <glyph glyph-name="lira" unicode="&#x20a4;" horiz-adv-x="700" 
d="M295 454h165l-9 -88h-178q-1 -7 -1 -21q0 -11 2 -31h186l-9 -88h-154q43 -95 143 -95q85 0 172 63l53 -119q-107 -85 -251 -85q-116 0 -191.5 64t-103.5 172h-84v88h70v52h-70v88h83q25 108 100.5 172t195.5 64q144 0 251 -85l-53 -119q-87 63 -172 63q-106 0 -145 -95z
" />
    <glyph glyph-name="peseta" unicode="&#x20a7;" horiz-adv-x="700" 
d="M295 454h165l-9 -88h-178q-1 -7 -1 -21q0 -11 2 -31h186l-9 -88h-154q43 -95 143 -95q85 0 172 63l53 -119q-107 -85 -251 -85q-116 0 -191.5 64t-103.5 172h-84v88h70v52h-70v88h83q25 108 100.5 172t195.5 64q144 0 251 -85l-53 -119q-87 63 -172 63q-106 0 -145 -95z
" />
    <glyph glyph-name="Euro" unicode="&#x20ac;" horiz-adv-x="700" 
d="M295 454h165l-9 -88h-178q-1 -7 -1 -21q0 -11 2 -31h186l-9 -88h-154q43 -95 143 -95q85 0 172 63l53 -119q-107 -85 -251 -85q-116 0 -191.5 64t-103.5 172h-84v88h70v52h-70v88h83q25 108 100.5 172t195.5 64q144 0 251 -85l-53 -119q-87 63 -172 63q-106 0 -145 -95z
" />
    <glyph glyph-name="litre" unicode="&#x2113;" horiz-adv-x="449" 
d="M42 156l-12 11l94 99v243q0 102 40 151q42 50 100 50q44 0 70 -27t26 -72q0 -51 -31 -112q-31 -63 -129 -176v-168q0 -75 23 -106q22 -29 60 -29q35 0 64 29q32 29 54 103h18q-21 -83 -68 -127q-37 -35 -89 -35q-43 0 -77.5 24.5t-49.5 65.5q-11 33 -11 107v52zM200 543
v-193q134 155 134 242q0 41 -19 65t-48 24t-48 -28t-19 -110z" />
    <glyph glyph-name="afii61352" unicode="&#x2116;" horiz-adv-x="1050" 
d="M837 350q-81 0 -124 45t-43 125t43 125t124 45t124 -45t43 -125t-43 -125t-124 -45zM670 320h334v-89h-334v89zM837 432q63 0 63 88t-63 88t-63 -88t63 -88zM201 0h-155v680h159l242 -389h2v389h155v-680h-159l-242 371h-2v-371z" />
    <glyph glyph-name="trademark" unicode="&#x2122;" horiz-adv-x="797" 
d="M498 680l75 -196h1l65 196h126v-344h-89v200h-2l-73 -200h-69l-74 200h-1v-200h-84v344h125zM311 601h-95v-265h-88v265h-96v79h279v-79z" />
    <glyph glyph-name="Omega" unicode="&#x2126;" horiz-adv-x="670" 
d="M335 690q148 0 228.5 -84t80.5 -216q0 -83 -43 -153.5t-128 -98.5v-32h171v-106h-277v201q54 14 81.5 57t27.5 132q0 167 -141 167t-141 -167q0 -89 27.5 -132t81.5 -57v-201h-277v106h171v32q-85 28 -128 98.5t-43 153.5q0 132 80.5 216t228.5 84z" />
    <glyph glyph-name="estimated" unicode="&#x212e;" horiz-adv-x="736" 
d="M706 349h-528v-235q81 -78 190 -78q163 0 252 157l46 -26q-67 -95 -133 -136t-165 -41q-150 0 -244 102.5t-94 256.5q0 158 94.5 259.5t243.5 101.5q91 0 165 -39.5t121.5 -123t51.5 -198.5zM178 397h380v189q-82 77 -191 77q-110 0 -189 -77v-189z" />
    <glyph glyph-name="onethird" unicode="&#x2153;" horiz-adv-x="800" 
d="M623 680l-370 -680h-45l370 680h45zM25 392h92v197q-42 -18 -64 -26l-19 58q72 24 104 52h55v-281h92v-62h-260v62zM708 174q67 -20 67 -85q0 -48 -33.5 -73.5t-93.5 -25.5q-69 0 -122 33l22 58q62 -29 98 -29q26 0 39 12t13 28q0 42 -60 42h-46v62h42q55 0 55 45
q0 16 -10.5 26.5t-28.5 10.5q-30 0 -94 -29l-23 57q59 34 123 34q47 0 78 -23.5t31 -66.5q0 -54 -57 -76z" />
    <glyph glyph-name="twothirds" unicode="&#x2154;" horiz-adv-x="800" 
d="M623 680l-370 -680h-45l370 680h45zM708 174q67 -20 67 -85q0 -48 -33.5 -73.5t-93.5 -25.5q-69 0 -122 33l22 58q62 -29 98 -29q26 0 39 12t13 28q0 42 -60 42h-46v62h42q55 0 55 45q0 16 -10.5 26.5t-28.5 10.5q-30 0 -94 -29l-23 57q59 34 123 34q47 0 78 -23.5
t31 -66.5q0 -54 -57 -76zM124 606q-28 0 -77 -23l-22 58q60 34 121 34q54 0 83.5 -29t29.5 -75q0 -49 -31.5 -88.5t-95.5 -84.5v-1h132v-67h-239v71q89 56 121.5 90.5t32.5 64.5q0 50 -55 50z" />
    <glyph glyph-name="oneeighth" unicode="&#x215b;" horiz-adv-x="800" 
d="M623 680l-370 -680h-45l370 680h45zM25 392h92v197q-42 -18 -64 -26l-19 58q72 24 104 52h55v-281h92v-62h-260v62zM711 175q64 -38 64 -87t-38 -73.5t-94 -24.5q-54 0 -90.5 22.5t-36.5 68.5q0 55 63 82q-53 31 -53 84q0 45 35.5 69t86.5 24q47 0 82 -23.5t35 -65.5
q0 -47 -54 -76zM594 88q0 -20 15 -31t39 -11q48 0 50 36q1 18 -15 29.5t-49 23.5q-40 -16 -40 -47zM645 285q-18 0 -31 -10t-13 -26q0 -33 54 -47q34 13 34 43q0 18 -12.5 29t-31.5 11z" />
    <glyph glyph-name="threeeighths" unicode="&#x215c;" horiz-adv-x="800" 
d="M614 680l-370 -680h-45l370 680h45zM711 175q64 -38 64 -87t-38 -73.5t-94 -24.5q-54 0 -90.5 22.5t-36.5 68.5q0 55 63 82q-53 31 -53 84q0 45 35.5 69t86.5 24q47 0 82 -23.5t35 -65.5q0 -47 -54 -76zM594 88q0 -20 15 -31t39 -11q48 0 50 36q1 18 -15 29.5t-49 23.5
q-40 -16 -40 -47zM645 285q-18 0 -31 -10t-13 -26q0 -33 54 -47q34 13 34 43q0 18 -12.5 29t-31.5 11zM208 504q33 -10 49.5 -33t16.5 -52q0 -48 -33.5 -73.5t-93.5 -25.5q-69 0 -122 33l22 58q62 -29 98 -29q26 0 39 12t13 28q0 42 -60 42h-46v62h42q56 0 56 45
q0 16 -11 26.5t-29 10.5q-30 0 -94 -29l-23 57q59 34 124 34q46 0 77 -23.5t31 -66.5q0 -55 -56 -76z" />
    <glyph glyph-name="fiveeighths" unicode="&#x215d;" horiz-adv-x="800" 
d="M614 680l-370 -680h-45l370 680h45zM711 175q64 -38 64 -87t-38 -73.5t-94 -24.5q-54 0 -90.5 22.5t-36.5 68.5q0 55 63 82q-53 31 -53 84q0 45 35.5 69t86.5 24q47 0 82 -23.5t35 -65.5q0 -47 -54 -76zM594 88q0 -20 15 -31t39 -11q48 0 50 36q1 18 -15 29.5t-49 23.5
q-40 -16 -40 -47zM645 285q-18 0 -31 -10t-13 -26q0 -33 54 -47q34 13 34 43q0 18 -12.5 29t-31.5 11zM146 320q-58 0 -121 34l22 58q3 -2 12 -6l12.5 -5.5t11 -5t11.5 -4.5t11 -3.5t12 -3.5t11.5 -1.5t13.5 -0.5q22 0 37 14t15 38q0 52 -48 52q-29 0 -48 -20l-54 5l6 194
h204v-67h-138l-4 -66l1 -1q27 20 60 20q46 0 73.5 -29t27.5 -83t-35 -86.5t-93 -32.5z" />
    <glyph glyph-name="seveneighths" unicode="&#x215e;" horiz-adv-x="800" 
d="M564 680l-370 -680h-45l370 680h45zM711 175q64 -38 64 -87t-38 -73.5t-94 -24.5q-54 0 -90.5 22.5t-36.5 68.5q0 55 63 82q-53 31 -53 84q0 45 35.5 69t86.5 24q47 0 82 -23.5t35 -65.5q0 -47 -54 -76zM594 88q0 -20 15 -31t39 -11q48 0 50 36q1 18 -15 29.5t-49 23.5
q-40 -16 -40 -47zM645 285q-18 0 -31 -10t-13 -26q0 -33 54 -47q34 13 34 43q0 18 -12.5 29t-31.5 11zM187 602v1h-162v67h244v-54l-48.5 -87.5t-35 -83t-30.5 -115.5h-80q25 142 112 272z" />
    <glyph glyph-name="partialdiff" unicode="&#x2202;" horiz-adv-x="573" 
d="M399 393q1 0 1 0.5t1 0.5q12 85 -32 128.5t-110 43.5q-67 0 -146 -29l-2 115q94 38 179 38q303 0 248 -390q-19 -132 -96 -221t-205 -89q-108 0 -165.5 61.5t-42.5 168.5q16 111 80.5 173t162.5 62q80 0 127 -62zM372 284q-36 41 -79 41q-50 0 -74.5 -31t-30.5 -74
q-7 -51 14 -78.5t60 -27.5q57 0 82.5 49t27.5 121z" />
    <glyph glyph-name="Delta" unicode="&#x2206;" horiz-adv-x="628" 
d="M294 710l284 -710h-528zM265 479l-142 -417h302z" />
    <glyph glyph-name="product" unicode="&#x220f;" horiz-adv-x="650" 
d="M196 0h-150v700h558v-700h-150v567h-258v-567z" />
    <glyph glyph-name="summation" unicode="&#x2211;" horiz-adv-x="550" 
d="M251 537l132 -197l-132 -197v-2h264v-141h-480v115l149 225l-149 225v115h480v-141h-264v-2z" />
    <glyph glyph-name="minus" unicode="&#x2212;" horiz-adv-x="500" 
d="M36 327h428v-124h-428v124z" />
    <glyph glyph-name="uni2215" unicode="&#x2215;" horiz-adv-x="540" 
d="M521 680l-370 -680h-132l370 680h132z" />
    <glyph glyph-name="uni2219" unicode="&#x2219;" horiz-adv-x="262" 
d="M56 326h150v-152h-150v152z" />
    <glyph glyph-name="radical" unicode="&#x221a;" horiz-adv-x="801" 
d="M56 301v89h299l67 -231h2l162 541h159l-234 -705h-184l-109 306h-162z" />
    <glyph glyph-name="infinity" unicode="&#x221e;" horiz-adv-x="673" 
d="M176 310q-25 0 -43 -15.5t-18 -46.5q0 -25 15.5 -44.5t46.5 -19.5q30 0 58.5 20t44.5 44q-14 21 -44 41.5t-60 20.5zM332 189q-24 -35 -67.5 -61.5t-99.5 -26.5q-65 0 -104.5 41.5t-39.5 107.5t41.5 107.5t114.5 41.5q54 0 91.5 -21.5t74.5 -64.5q67 86 165 86
q65 0 104.5 -41.5t39.5 -107.5q0 -62 -42.5 -105.5t-112.5 -43.5q-47 0 -85.5 18.5t-79.5 69.5zM496 315q-31 0 -59 -20t-44 -45q15 -23 45 -42t56 -19q32 0 48 18t16 44q0 27 -15 45.5t-47 18.5z" />
    <glyph glyph-name="integral" unicode="&#x222b;" horiz-adv-x="345" 
d="M76 -45v593q0 78 38 115t126 37q39 0 91 -9l-13 -115q-28 5 -43 5q-27 0 -38 -14.5t-11 -44.5v-578q0 -79 -34.5 -116.5t-129.5 -37.5q-39 0 -91 9l14 115q27 -5 42 -5q29 0 39 9.5t10 36.5z" />
    <glyph glyph-name="approxequal" unicode="&#x2248;" horiz-adv-x="467" 
d="M149 334q-30 0 -67 -39l-46 36q23 54 51.5 79.5t57.5 25.5q27 0 97.5 -20t85.5 -20q30 0 49 15q8 6 16 15l38 -45q-41 -83 -103 -83q-19 0 -89.5 18t-89.5 18zM149 134q-30 0 -67 -39l-46 36q23 54 51.5 79.5t57.5 25.5q27 0 97.5 -20t85.5 -20q30 0 49 15q8 6 16 15
l38 -45q-41 -83 -103 -83q-19 0 -89.5 18t-89.5 18z" />
    <glyph glyph-name="notequal" unicode="&#x2260;" horiz-adv-x="500" 
d="M36 227h161l42 76h-203v124h270l98 178h62l-97 -178h95v-124h-162l-42 -76h204v-124h-271l-97 -178h-62l96 178h-94v124z" />
    <glyph glyph-name="lessequal" unicode="&#x2264;" horiz-adv-x="480" 
d="M71 336l338 151v-106l-179 -81l179 -81v-107l-338 152v72zM36 95h408v-89h-408v89z" />
    <glyph glyph-name="greaterequal" unicode="&#x2265;" horiz-adv-x="480" 
d="M71 487l338 -151v-72l-338 -152v107l179 81l-179 81v106zM36 95h408v-89h-408v89z" />
    <glyph glyph-name="lozenge" unicode="&#x25ca;" horiz-adv-x="472" 
d="M229 -30l-199 374l199 374h14l199 -374l-199 -374h-14zM151 344l85 -158l85 158l-85 158z" />
    <glyph glyph-name="Abreve.small" unicode="&#xf66d;" horiz-adv-x="610" 
d="M417 0l-31 99h-170l-32 -99h-168l201 585h177l200 -585h-177zM354 222l-52 165h-1l-53 -165h106zM305 716q67 0 90 61h60q-17 -146 -150 -146q-132 0 -151 146h60q23 -61 91 -61z" />
    <glyph glyph-name="Amacron.small" unicode="&#xf66e;" horiz-adv-x="610" 
d="M417 0l-31 99h-170l-32 -99h-168l201 585h177l200 -585h-177zM354 222l-52 165h-1l-53 -165h106zM138 735h333v-89h-333v89z" />
    <glyph glyph-name="AEacute.small" unicode="&#xf670;" horiz-adv-x="886" 
d="M174 0h-158l316 580h513v-133h-283v-86h238v-132h-238v-97h288v-132h-438v154h-155zM319 278h93v169h-2zM636 750l-97 -120h-80l53 120h124z" />
    <glyph glyph-name="Cacute.small" unicode="&#xf671;" horiz-adv-x="581" 
d="M36 291q0 149 71.5 224t227.5 75q126 0 221 -39l-35 -124q-91 30 -182 30q-73 0 -108.5 -38.5t-35.5 -127.5q0 -90 35.5 -129.5t108.5 -39.5q86 0 182 30l35 -123q-95 -39 -221 -39q-156 0 -227.5 75.5t-71.5 225.5zM467 750l-97 -120h-80l53 120h124z" />
    <glyph glyph-name="Ccaron.small" unicode="&#xf672;" horiz-adv-x="581" 
d="M36 291q0 149 71.5 224t227.5 75q126 0 221 -39l-35 -124q-91 30 -182 30q-73 0 -108.5 -38.5t-35.5 -127.5q0 -90 35.5 -129.5t108.5 -39.5q86 0 182 30l35 -123q-95 -39 -221 -39q-156 0 -227.5 75.5t-71.5 225.5zM254 750l74 -58l74 58h80l-109 -120h-89l-110 120h80z
" />
    <glyph glyph-name="Ccircumflex.small" unicode="&#xf673;" horiz-adv-x="581" 
d="M36 291q0 149 71.5 224t227.5 75q126 0 221 -39l-35 -124q-91 30 -182 30q-73 0 -108.5 -38.5t-35.5 -127.5q0 -90 35.5 -129.5t108.5 -39.5q86 0 182 30l35 -123q-95 -39 -221 -39q-156 0 -227.5 75.5t-71.5 225.5zM327 687l-74 -57h-80l110 120h89l109 -120h-80z" />
    <glyph glyph-name="Cdotaccent.small" unicode="&#xf674;" horiz-adv-x="581" 
d="M36 291q0 149 71.5 224t227.5 75q126 0 221 -39l-35 -124q-91 30 -182 30q-73 0 -108.5 -38.5t-35.5 -127.5q0 -90 35.5 -129.5t108.5 -39.5q86 0 182 30l35 -123q-95 -39 -221 -39q-156 0 -227.5 75.5t-71.5 225.5zM264 750h133v-118h-133v118z" />
    <glyph glyph-name="Dcaron.small" unicode="&#xf675;" horiz-adv-x="610" 
d="M296 0h-250v580h250q278 0 278 -285q0 -142 -69 -218.5t-209 -76.5zM196 132h91q70 0 99 38.5t29 124.5q0 84 -28.5 118t-99.5 34h-91v-315zM198 750l74 -58l74 58h80l-109 -120h-89l-110 120h80z" />
    <glyph glyph-name="Ebreve.small" unicode="&#xf677;" horiz-adv-x="520" 
d="M479 580v-133h-283v-86h238v-132h-238v-97h288v-132h-438v580h433zM259 716q67 0 90 61h60q-17 -146 -150 -146q-132 0 -151 146h60q23 -61 91 -61z" />
    <glyph glyph-name="Ecaron.small" unicode="&#xf678;" horiz-adv-x="520" 
d="M479 580v-133h-283v-86h238v-132h-238v-97h288v-132h-438v580h433zM187 750l74 -58l74 58h80l-109 -120h-89l-110 120h80z" />
    <glyph glyph-name="Edotaccent.small" unicode="&#xf679;" horiz-adv-x="520" 
d="M479 580v-133h-283v-86h238v-132h-238v-97h288v-132h-438v580h433zM197 750h133v-118h-133v118z" />
    <glyph glyph-name="Emacron.small" unicode="&#xf67a;" horiz-adv-x="520" 
d="M479 580v-133h-283v-86h238v-132h-238v-97h288v-132h-438v580h433zM95 735h333v-89h-333v89z" />
    <glyph glyph-name="Gbreve.small" unicode="&#xf67d;" horiz-adv-x="602" 
d="M339 122q35 0 66 6v89h-73v107h223v-295q-93 -39 -220 -39q-156 0 -227.5 75.5t-71.5 225.5q0 149 71.5 224t227.5 75q126 0 221 -39l-35 -124q-91 30 -182 30q-73 0 -108.5 -38.5t-35.5 -127.5q0 -90 35.5 -129.5t108.5 -39.5zM329 716q67 0 90 61h60
q-17 -146 -150 -146q-132 0 -151 146h60q23 -61 91 -61z" />
    <glyph glyph-name="Gcircumflex.small" unicode="&#xf67e;" horiz-adv-x="602" 
d="M339 122q35 0 66 6v89h-73v107h223v-295q-93 -39 -220 -39q-156 0 -227.5 75.5t-71.5 225.5q0 149 71.5 224t227.5 75q126 0 221 -39l-35 -124q-91 30 -182 30q-73 0 -108.5 -38.5t-35.5 -127.5q0 -90 35.5 -129.5t108.5 -39.5zM329 687l-74 -57h-80l110 120h89l109 -120
h-80z" />
    <glyph glyph-name="Gcommaaccent.small" unicode="&#xf67f;" horiz-adv-x="602" 
d="M339 122q35 0 66 6v89h-73v107h223v-295q-93 -39 -220 -39q-156 0 -227.5 75.5t-71.5 225.5q0 149 71.5 224t227.5 75q126 0 221 -39l-35 -124q-91 30 -182 30q-73 0 -108.5 -38.5t-35.5 -127.5q0 -90 35.5 -129.5t108.5 -39.5zM328 -216h-45l27 81h-44v95h133v-95z" />
    <glyph glyph-name="Gdotaccent.small" unicode="&#xf680;" horiz-adv-x="602" 
d="M339 122q35 0 66 6v89h-73v107h223v-295q-93 -39 -220 -39q-156 0 -227.5 75.5t-71.5 225.5q0 149 71.5 224t227.5 75q126 0 221 -39l-35 -124q-91 30 -182 30q-73 0 -108.5 -38.5t-35.5 -127.5q0 -90 35.5 -129.5t108.5 -39.5zM263 750h133v-118h-133v118z" />
    <glyph glyph-name="Hcircumflex.small" unicode="&#xf682;" 
d="M196 0h-150v580h150v-219h208v219h150v-580h-150v229h-208v-229zM300 687l-74 -57h-80l110 120h89l109 -120h-80z" />
    <glyph glyph-name="Ibreve.small" unicode="&#xf683;" horiz-adv-x="242" 
d="M196 0h-150v580h150v-580zM121 716q67 0 90 61h60q-17 -146 -150 -146q-132 0 -151 146h60q23 -61 91 -61z" />
    <glyph glyph-name="Imacron.small" unicode="&#xf685;" horiz-adv-x="242" 
d="M196 0h-150v580h150v-580zM-46 735h333v-89h-333v89z" />
    <glyph glyph-name="Itilde.small" unicode="&#xf687;" horiz-adv-x="242" 
d="M196 0h-150v580h150v-580zM62 655q-32 0 -66 -38l-47 35q42 96 110 96q26 0 71.5 -19.5t60.5 -19.5q31 0 65 38l38 -45q-40 -83 -103 -83q-19 0 -64.5 18t-64.5 18z" />
    <glyph glyph-name="Jcircumflex.small" unicode="&#xf688;" horiz-adv-x="352" 
d="M315 580v-394q0 -196 -190 -196q-61 0 -113 9l13 133q32 -5 56 -5q75 0 75 68v385h159zM236 687l-74 -57h-80l110 120h89l109 -120h-80z" />
    <glyph glyph-name="Kcommaaccent.small" unicode="&#xf689;" horiz-adv-x="601" 
d="M196 580v-219l201 219h185l-219 -248l221 -332h-190l-138 223l-60 -71v-152h-150v580h150zM285 -216h-45l27 81h-44v95h133v-95z" />
    <glyph glyph-name="Lacute.small" unicode="&#xf68a;" horiz-adv-x="500" 
d="M46 580h150v-448h278v-132h-428v580zM261 750l-97 -120h-80l53 120h124z" />
    <glyph glyph-name="Lcaron.small" unicode="&#xf68b;" horiz-adv-x="500" 
d="M46 580h150v-448h278v-132h-428v580zM330 404h-45l27 81h-44v95h133v-95z" />
    <glyph glyph-name="Lcommaaccent.small" unicode="&#xf68c;" horiz-adv-x="500" 
d="M46 580h150v-448h278v-132h-428v580zM254 -216h-45l27 81h-44v95h133v-95z" />
    <glyph glyph-name="Ldot.small" unicode="&#xf68d;" horiz-adv-x="500" 
d="M46 580h150v-448h278v-132h-428v580zM263 370h133v-118h-133v118z" />
    <glyph glyph-name="Nacute.small" unicode="&#xf68e;" horiz-adv-x="610" 
d="M192 0h-146v580h159l211 -337h2v337h146v-580h-159l-211 337h-2v-337zM445 750l-97 -120h-80l53 120h124z" />
    <glyph glyph-name="Ncaron.small" unicode="&#xf68f;" horiz-adv-x="610" 
d="M192 0h-146v580h159l211 -337h2v337h146v-580h-159l-211 337h-2v-337zM231 750l74 -58l74 58h80l-109 -120h-89l-110 120h80z" />
    <glyph glyph-name="Ncommaaccent.small" unicode="&#xf690;" horiz-adv-x="610" 
d="M192 0h-146v580h159l211 -337h2v337h146v-580h-159l-211 337h-2v-337zM301 -216h-45l27 81h-44v95h133v-95z" />
    <glyph glyph-name="Obreve.small" unicode="&#xf691;" horiz-adv-x="650" 
d="M325 466q-76 0 -103 -43t-27 -128q0 -87 27.5 -134t102.5 -47t102.5 47t27.5 134q0 85 -27 128t-103 43zM325 -10q-289 0 -289 305q0 147 69.5 221t219.5 74t219.5 -74t69.5 -221q0 -305 -289 -305zM325 716q67 0 90 61h60q-17 -146 -150 -146q-132 0 -151 146h60
q23 -61 91 -61z" />
    <glyph glyph-name="Ohungarumlaut.small" unicode="&#xf692;" horiz-adv-x="650" 
d="M325 466q-76 0 -103 -43t-27 -128q0 -87 27.5 -134t102.5 -47t102.5 47t27.5 134q0 85 -27 128t-103 43zM325 -10q-289 0 -289 305q0 147 69.5 221t219.5 74t219.5 -74t69.5 -221q0 -305 -289 -305zM347 750l-70 -120h-80l53 120h97zM474 750l-70 -120h-80l52 120h98z
" />
    <glyph glyph-name="Omacron.small" unicode="&#xf693;" horiz-adv-x="650" 
d="M325 466q-76 0 -103 -43t-27 -128q0 -87 27.5 -134t102.5 -47t102.5 47t27.5 134q0 85 -27 128t-103 43zM325 -10q-289 0 -289 305q0 147 69.5 221t219.5 74t219.5 -74t69.5 -221q0 -305 -289 -305zM158 735h333v-89h-333v89z" />
    <glyph glyph-name="Oslashacute.small" unicode="&#xf694;" horiz-adv-x="650" 
d="M466 750l-97 -120h-80l53 120h124zM325 -10q-107 0 -172 41l-56 -69l-45 36l55 68q-71 75 -71 229q0 147 69.5 221t219.5 74q105 0 173 -40l55 68l44 -36l-53 -66q70 -73 70 -221q0 -305 -289 -305zM325 466q-76 0 -103 -43t-27 -128q0 -66 14 -103l201 249
q-30 25 -85 25zM325 114q75 0 102.5 47t27.5 134q0 60 -13 94l-201 -249q29 -26 84 -26z" />
    <glyph glyph-name="Racute.small" unicode="&#xf695;" horiz-adv-x="575" 
d="M558 0h-186l-106 169h-70v-169h-150v580h255q111 0 172 -53t61 -153q0 -66 -29.5 -112.5t-81.5 -66.5zM196 447v-146h104q40 0 59.5 16t19.5 57q0 40 -19.5 56.5t-58.5 16.5h-105zM394 750l-97 -120h-80l53 120h124z" />
    <glyph glyph-name="Rcaron.small" unicode="&#xf696;" horiz-adv-x="575" 
d="M558 0h-186l-106 169h-70v-169h-150v580h255q111 0 172 -53t61 -153q0 -66 -29.5 -112.5t-81.5 -66.5zM196 447v-146h104q40 0 59.5 16t19.5 57q0 40 -19.5 56.5t-58.5 16.5h-105zM198 750l74 -58l74 58h80l-109 -120h-89l-110 120h80z" />
    <glyph glyph-name="Rcommaaccent.small" unicode="&#xf697;" horiz-adv-x="575" 
d="M558 0h-186l-106 169h-70v-169h-150v580h255q111 0 172 -53t61 -153q0 -66 -29.5 -112.5t-81.5 -66.5zM196 447v-146h104q40 0 59.5 16t19.5 57q0 40 -19.5 56.5t-58.5 16.5h-105zM287 -216h-45l27 81h-44v95h133v-95z" />
    <glyph glyph-name="Sacute.small" unicode="&#xf698;" horiz-adv-x="570" 
d="M242 225q-95 17 -140.5 59.5t-45.5 121.5q0 184 224 184q114 0 244 -39l-36 -124q-128 30 -204 30q-40 0 -54.5 -9.5t-14.5 -28.5q0 -7 2 -12.5t7 -10.5t10 -8.5t14 -6.5l15.5 -5t18.5 -4.5t19.5 -3.5t21.5 -3.5t21 -3.5q190 -31 190 -185q0 -94 -67.5 -140t-176.5 -46
q-125 0 -254 39l36 123q128 -30 222 -30q81 0 81 45q0 28 -37 40q-16 5 -96 18zM421 750l-97 -120h-80l53 120h124z" />
    <glyph glyph-name="Scircumflex.small" unicode="&#xf69a;" horiz-adv-x="570" 
d="M242 225q-95 17 -140.5 59.5t-45.5 121.5q0 184 224 184q114 0 244 -39l-36 -124q-128 30 -204 30q-40 0 -54.5 -9.5t-14.5 -28.5q0 -7 2 -12.5t7 -10.5t10 -8.5t14 -6.5l15.5 -5t18.5 -4.5t19.5 -3.5t21.5 -3.5t21 -3.5q190 -31 190 -185q0 -94 -67.5 -140t-176.5 -46
q-125 0 -254 39l36 123q128 -30 222 -30q81 0 81 45q0 28 -37 40q-16 5 -96 18zM285 687l-74 -57h-80l110 120h89l109 -120h-80z" />
    <glyph glyph-name="Scommaaccent.small" unicode="&#xf69b;" horiz-adv-x="570" 
d="M242 225q-95 17 -140.5 59.5t-45.5 121.5q0 184 224 184q114 0 244 -39l-36 -124q-128 30 -204 30q-40 0 -54.5 -9.5t-14.5 -28.5q0 -7 2 -12.5t7 -10.5t10 -8.5t14 -6.5l15.5 -5t18.5 -4.5t19.5 -3.5t21.5 -3.5t21 -3.5q190 -31 190 -185q0 -94 -67.5 -140t-176.5 -46
q-125 0 -254 39l36 123q128 -30 222 -30q81 0 81 45q0 28 -37 40q-16 5 -96 18zM281 -216h-45l27 81h-44v95h133v-95z" />
    <glyph glyph-name="Tcaron.small" unicode="&#xf69d;" horiz-adv-x="520" 
d="M494 447h-159v-447h-150v447h-159v133h468v-133zM186 750l74 -58l74 58h80l-109 -120h-89l-110 120h80z" />
    <glyph glyph-name="Tcommaaccent.small" unicode="&#xf69e;" horiz-adv-x="520" 
d="M494 447h-159v-447h-150v447h-159v133h468v-133zM255 -216h-45l27 81h-44v95h133v-95z" />
    <glyph glyph-name="Ubreve.small" unicode="&#xf69f;" 
d="M46 237v343h150v-341q0 -64 20 -94.5t85 -30.5q63 0 83 31t20 94v341h150v-341q0 -131 -63 -190t-191 -59t-191 58.5t-63 188.5zM300 716q67 0 90 61h60q-17 -146 -150 -146q-132 0 -151 146h60q23 -61 91 -61z" />
    <glyph glyph-name="Uhungarumlaut.small" unicode="&#xf6a0;" 
d="M46 237v343h150v-341q0 -64 20 -94.5t85 -30.5q63 0 83 31t20 94v341h150v-341q0 -131 -63 -190t-191 -59t-191 58.5t-63 188.5zM327 750l-70 -120h-80l53 120h97zM454 750l-70 -120h-80l52 120h98z" />
    <glyph glyph-name="Umacron.small" unicode="&#xf6a1;" 
d="M46 237v343h150v-341q0 -64 20 -94.5t85 -30.5q63 0 83 31t20 94v341h150v-341q0 -131 -63 -190t-191 -59t-191 58.5t-63 188.5zM133 735h333v-89h-333v89z" />
    <glyph glyph-name="Uring.small" unicode="&#xf6a3;" 
d="M46 237v343h150v-341q0 -64 20 -94.5t85 -30.5q63 0 83 31t20 94v341h150v-341q0 -131 -63 -190t-191 -59t-191 58.5t-63 188.5zM218 690q0 34 24 56.5t59 22.5t58 -22.5t23 -56.5t-23 -56.5t-58 -22.5t-59 22.5t-24 56.5zM265 690q0 -16 10.5 -27t25.5 -11t25 11t10 27
t-10 27t-25 11t-25.5 -11t-10.5 -27z" />
    <glyph glyph-name="Utilde.small" unicode="&#xf6a4;" 
d="M46 237v343h150v-341q0 -64 20 -94.5t85 -30.5q63 0 83 31t20 94v341h150v-341q0 -131 -63 -190t-191 -59t-191 58.5t-63 188.5zM240 655q-32 0 -66 -38l-47 35q42 96 110 96q26 0 71.5 -19.5t60.5 -19.5q31 0 65 38l38 -45q-40 -83 -103 -83q-19 0 -64.5 18t-64.5 18z
" />
    <glyph glyph-name="Wacute.small" unicode="&#xf6a5;" horiz-adv-x="900" 
d="M441 325h-2l-77 -330h-185l-161 585h177l93 -387h1l75 387h168l91 -387h1l94 387h168l-161 -585h-203zM591 750l-97 -120h-80l53 120h124z" />
    <glyph glyph-name="Wcircumflex.small" unicode="&#xf6a6;" horiz-adv-x="900" 
d="M441 325h-2l-77 -330h-185l-161 585h177l93 -387h1l75 387h168l91 -387h1l94 387h168l-161 -585h-203zM450 687l-74 -57h-80l110 120h89l109 -120h-80z" />
    <glyph glyph-name="Wdieresis.small" unicode="&#xf6a7;" horiz-adv-x="900" 
d="M441 325h-2l-77 -330h-185l-161 585h177l93 -387h1l75 387h168l91 -387h1l94 387h168l-161 -585h-203zM270 750h124v-118h-124v118zM505 750h124v-118h-124v118z" />
    <glyph glyph-name="Wgrave.small" unicode="&#xf6a8;" horiz-adv-x="900" 
d="M441 325h-2l-77 -330h-185l-161 585h177l93 -387h1l75 387h168l91 -387h1l94 387h168l-161 -585h-203zM402 630l-97 120h124l53 -120h-80z" />
    <glyph glyph-name="Ycircumflex.small" unicode="&#xf6a9;" horiz-adv-x="580" 
d="M293 357h2l97 223h172l-199 -400v-180h-150v180l-199 400h181zM290 687l-74 -57h-80l110 120h89l109 -120h-80z" />
    <glyph glyph-name="Ygrave.small" unicode="&#xf6aa;" horiz-adv-x="580" 
d="M293 357h2l97 223h172l-199 -400v-180h-150v180l-199 400h181zM256 630l-97 120h124l53 -120h-80z" />
    <glyph glyph-name="Zacute.small" unicode="&#xf6ab;" horiz-adv-x="520" 
d="M232 134v-2h263v-132h-470v115l257 330v2h-237v133h440v-115zM386 750l-97 -120h-80l53 120h124z" />
    <glyph glyph-name="Zdotaccent.small" unicode="&#xf6ac;" horiz-adv-x="520" 
d="M232 134v-2h263v-132h-470v115l257 330v2h-237v133h440v-115zM193 750h133v-118h-133v118z" />
    <glyph glyph-name="Idotaccent.small" unicode="&#xf6ad;" horiz-adv-x="242" 
d="M196 0h-150v580h150v-580zM54 750h133v-118h-133v118z" />
    <glyph glyph-name="commaaccent" unicode="&#xf6c3;" horiz-adv-x="238" 
d="M123 736h45l-27 -81h44v-95h-133v95z" />
    <glyph glyph-name="rupiah" unicode="&#xf6dd;" horiz-adv-x="1142" 
d="M205 539v-167h117q89 0 89 84q0 83 -87 83h-119zM648 0h-235l-133 231h-75v-231h-159v680h295q109 0 171 -60t62 -164q0 -71 -32 -124t-96 -75l90 -151h112v394h150v-50h2q23 27 59.5 43.5t74.5 16.5q182 0 182 -260q0 -75 -17.5 -131t-61.5 -92.5t-111 -36.5
q-78 0 -126 56h-2v-246h-150v200zM957 250q0 136 -84 136q-42 0 -75 -25v-222q33 -25 75 -25q84 0 84 136z" />
    <glyph glyph-name="asuperior" unicode="&#xf6e9;" horiz-adv-x="291" 
d="M138 623q-33 0 -77 -10l-12 60q63 12 107 12q53 0 77 -17.5t24 -66.5v-171h-75v25q-29 -30 -72 -30q-36 0 -56 22.5t-20 55.5q0 43 31.5 61t73.5 18h43v14q0 16 -10 21.5t-34 5.5zM182 495v43h-39q-34 0 -34 -28t32 -28q24 0 41 13z" />
    <glyph glyph-name="bsuperior" unicode="&#xf6ea;" horiz-adv-x="301" 
d="M109 780v-125h1q25 30 67 30q90 0 90 -130q0 -58 -23 -94t-72 -36q-39 0 -67 28h-1l-13 -25h-57v352h75zM188 555q0 68 -42 68q-19 0 -37 -13v-110q18 -13 37 -13q42 0 42 68z" />
    <glyph glyph-name="esuperior" unicode="&#xf6ec;" horiz-adv-x="310" 
d="M272 538h-156q2 -51 62 -51q43 0 77 10q1 -5 9 -59q-44 -13 -98 -13q-132 0 -132 130t132 130q94 0 107 -77q4 -28 -1 -70zM161 627q-42 0 -45 -42h82q1 6 1 16q-2 26 -38 26z" />
    <glyph glyph-name="isuperior" unicode="&#xf6ed;" horiz-adv-x="142" 
d="M34 780h75v-72h-75v72zM34 680h75v-250h-75v250z" />
    <glyph glyph-name="lsuperior" unicode="&#xf6ee;" horiz-adv-x="142" 
d="M34 430v350h75v-350h-75z" />
    <glyph glyph-name="msuperior" unicode="&#xf6ef;" horiz-adv-x="446" 
d="M109 608v-178h-75v250h75v-31h1q31 36 76 36q50 0 66 -40q35 40 85 40q37 0 56 -22.5t19 -61.5v-171h-75v153q0 40 -35 40q-16 0 -42 -15q0 -4 0.5 -15.5t0.5 -18.5v-144h-75v157q-2 36 -35 36q-18 0 -42 -15z" />
    <glyph glyph-name="osuperior" unicode="&#xf6f0;" horiz-adv-x="316" 
d="M159 623q-26 0 -36 -17t-10 -51t10 -51t36 -17q44 0 44 68t-44 68zM159 425q-125 0 -125 130t125 130q123 0 123 -130t-123 -130z" />
    <glyph glyph-name="rsuperior" unicode="&#xf6f1;" horiz-adv-x="226" 
d="M109 600v-170h-75v250h75v-40h1q27 45 82 45v-71q-52 0 -83 -14z" />
    <glyph glyph-name="ssuperior" unicode="&#xf6f2;" horiz-adv-x="286" 
d="M252 508q0 -83 -101 -83q-68 0 -117 13l13 59q50 -12 95 -12q35 0 35 18q0 12 -36 17q-49 9 -75.5 28t-26.5 59q0 78 102 78q56 0 107 -12l-13 -60q-55 13 -90 13q-31 0 -31 -16q0 -7 6.5 -10.5t27.5 -8.5l29 -7.5t26 -9t27 -14.5t14.5 -21t7.5 -31z" />
    <glyph glyph-name="tsuperior" unicode="&#xf6f3;" horiz-adv-x="236" 
d="M66 501v126h-32v48l32 5l8 70h67v-70h58v-53h-58v-112q0 -30 33 -30q5 0 21 2l7 -57q-23 -5 -55 -5q-43 0 -62 18.5t-19 57.5z" />
    <glyph glyph-name="Lslashsmall" unicode="&#xf6f9;" horiz-adv-x="500" 
d="M299 298l-103 -24v-142h278v-132h-428v238l-70 -16v89l70 16v253h150v-217l103 24v-89z" />
    <glyph glyph-name="OEsmall" unicode="&#xf6fa;" horiz-adv-x="937" 
d="M896 580v-133h-282v-86h237v-132h-237v-97h287v-132h-427v40q-51 -50 -149 -50q-289 0 -289 305q0 147 69.5 221t219.5 74q101 0 153 -49v39h418zM325 466q-76 0 -103 -43t-27 -128q0 -87 27.5 -134t102.5 -47t102.5 47t27.5 134q0 85 -27 128t-103 43z" />
    <glyph glyph-name="Scaronsmall" unicode="&#xf6fd;" horiz-adv-x="570" 
d="M246 780l39 -60l39 60h115l-101 -140h-106l-101 140h115zM242 225q-95 17 -140.5 59.5t-45.5 121.5q0 184 224 184q114 0 244 -39l-36 -124q-128 30 -204 30q-40 0 -54.5 -9.5t-14.5 -28.5q0 -7 2 -12.5t7 -10.5t10 -8.5t14 -6.5l15.5 -5t18.5 -4.5t19.5 -3.5t21.5 -3.5
t21 -3.5q190 -31 190 -185q0 -94 -67.5 -140t-176.5 -46q-125 0 -254 39l36 123q128 -30 222 -30q81 0 81 45q0 28 -37 40q-16 5 -96 18z" />
    <glyph glyph-name="Zcaronsmall" unicode="&#xf6ff;" horiz-adv-x="520" 
d="M221 780l39 -60l39 60h115l-101 -140h-106l-101 140h115zM232 134v-2h263v-132h-470v115l257 330v2h-237v133h440v-115z" />
    <glyph glyph-name="dollaroldstyle" unicode="&#xf724;" horiz-adv-x="510" 
d="M251 180q-99 17 -152 55.5t-53 119.5q0 80 58.5 117.5t145.5 37.5q127 0 215 -43l-27 -111q-105 35 -179 35q-63 0 -63 -32q0 -14 14 -21.5t54 -16.5q31 -7 41 -9.5t39 -10.5t41.5 -15t33.5 -20.5t30 -28t17 -36t8 -47.5q0 -80 -59.5 -122t-144.5 -42q-63 0 -129.5 12
t-104.5 31l27 111q98 -35 189 -35q35 0 53.5 10t18.5 25q0 14 -17.5 21.5t-55.5 14.5zM295 -130h-80v100h80v-100zM295 530h-80v100h80v-100z" />
    <glyph glyph-name="ampersandsmall" unicode="&#xf726;" horiz-adv-x="905" 
d="M596 142v74h-397q18 -102 124 -102q59 0 147 30l17 -115q-92 -39 -186 -39q-122 0 -193.5 70.5t-71.5 189.5t71.5 189.5t192.5 70.5q106 0 157.5 -55.5t58.5 -145.5h80l18 191h132v-191h118v-93h-118v-31q0 -40 13 -58t53 -18q16 0 43 5l14 -115q-52 -9 -109 -9
q-88 0 -126 37t-38 115zM291 395q-36 0 -62 -23t-30 -63h165q6 38 -12.5 62t-60.5 24z" />
    <glyph glyph-name="zerooldstyle" unicode="&#xf730;" horiz-adv-x="590" 
d="M295 386q-46 0 -73 -36t-27 -100t27 -100t73 -36t73 36t27 100t-27 100t-73 36zM295 -10q-121 0 -190 70t-69 190t69 190t190 70t190 -70t69 -190t-69 -190t-190 -70z" />
    <glyph glyph-name="twooldstyle" unicode="&#xf732;" horiz-adv-x="590" 
d="M281 373q-85 0 -189 -32l-36 128q118 41 251 41q102 0 159.5 -43t57.5 -118q0 -39 -16.5 -72t-38 -53.5t-59 -40t-62.5 -29t-65 -23.5q-10 -3 -15 -5v-2l266 8v-132h-478v142q193 73 225 88q80 44 84 84q0 59 -84 59z" />
    <glyph glyph-name="questionsmall" unicode="&#xf73f;" horiz-adv-x="480" 
d="M244 610q114 0 162 -45.5t48 -110.5q0 -46 -17 -78t-42 -47.5t-49.5 -28t-41.5 -29t-17 -40.5v-21h-132v30q0 46 15 75.5t36 42t42 21t36 21t15 32.5q0 45 -87 45q-65 0 -152 -35l-34 111q43 23 104.5 40t113.5 17zM146 152h150v-152h-150v152z" />
    <glyph glyph-name="Asmall" unicode="&#xf761;" horiz-adv-x="610" 
d="M417 0l-31 99h-170l-32 -99h-168l201 585h177l200 -585h-177zM354 222l-52 165h-1l-53 -165h106z" />
    <glyph glyph-name="Bsmall" unicode="&#xf762;" horiz-adv-x="570" 
d="M425 304v-2q50 -11 84.5 -47.5t34.5 -95.5q0 -159 -208 -159h-290v580h289q91 0 140 -38t49 -111q0 -51 -28 -83t-71 -44zM307 237h-111v-105h114q75 0 75 53q0 52 -78 52zM365 401q0 26 -17.5 36t-56.5 10h-95v-95h94q38 0 56.5 10.5t18.5 38.5z" />
    <glyph glyph-name="Csmall" unicode="&#xf763;" horiz-adv-x="581" 
d="M36 291q0 149 71.5 224t227.5 75q126 0 221 -39l-35 -124q-91 30 -182 30q-73 0 -108.5 -38.5t-35.5 -127.5q0 -90 35.5 -129.5t108.5 -39.5q86 0 182 30l35 -123q-95 -39 -221 -39q-156 0 -227.5 75.5t-71.5 225.5z" />
    <glyph glyph-name="Dsmall" unicode="&#xf764;" horiz-adv-x="610" 
d="M296 0h-250v580h250q278 0 278 -285q0 -142 -69 -218.5t-209 -76.5zM196 132h91q70 0 99 38.5t29 124.5q0 84 -28.5 118t-99.5 34h-91v-315z" />
    <glyph glyph-name="Esmall" unicode="&#xf765;" horiz-adv-x="520" 
d="M479 580v-133h-283v-86h238v-132h-238v-97h288v-132h-438v580h433z" />
    <glyph glyph-name="Fsmall" unicode="&#xf766;" horiz-adv-x="495" 
d="M469 580v-133h-273v-106h228v-132h-228v-209h-150v580h423z" />
    <glyph glyph-name="Gsmall" unicode="&#xf767;" horiz-adv-x="602" 
d="M339 122q35 0 66 6v89h-73v107h223v-295q-93 -39 -220 -39q-156 0 -227.5 75.5t-71.5 225.5q0 149 71.5 224t227.5 75q126 0 221 -39l-35 -124q-91 30 -182 30q-73 0 -108.5 -38.5t-35.5 -127.5q0 -90 35.5 -129.5t108.5 -39.5z" />
    <glyph glyph-name="Hsmall" unicode="&#xf768;" 
d="M196 0h-150v580h150v-219h208v219h150v-580h-150v229h-208v-229z" />
    <glyph glyph-name="Ismall" unicode="&#xf769;" horiz-adv-x="242" 
d="M196 0h-150v580h150v-580z" />
    <glyph glyph-name="Jsmall" unicode="&#xf76a;" horiz-adv-x="352" 
d="M315 580v-394q0 -196 -190 -196q-61 0 -113 9l13 133q32 -5 56 -5q75 0 75 68v385h159z" />
    <glyph glyph-name="Ksmall" unicode="&#xf76b;" horiz-adv-x="601" 
d="M196 580v-219l201 219h185l-219 -248l221 -332h-190l-138 223l-60 -71v-152h-150v580h150z" />
    <glyph glyph-name="Lsmall" unicode="&#xf76c;" horiz-adv-x="500" 
d="M46 580h150v-448h278v-132h-428v580z" />
    <glyph glyph-name="Msmall" unicode="&#xf76d;" horiz-adv-x="760" 
d="M257 580l127 -333h2l116 333h212v-580h-150v340h-2l-129 -340h-115l-124 340h-2v-340h-146v580h211z" />
    <glyph glyph-name="Nsmall" unicode="&#xf76e;" horiz-adv-x="610" 
d="M192 0h-146v580h159l211 -337h2v337h146v-580h-159l-211 337h-2v-337z" />
    <glyph glyph-name="Osmall" unicode="&#xf76f;" horiz-adv-x="650" 
d="M325 466q-76 0 -103 -43t-27 -128q0 -87 27.5 -134t102.5 -47t102.5 47t27.5 134q0 85 -27 128t-103 43zM325 -10q-289 0 -289 305q0 147 69.5 221t219.5 74t219.5 -74t69.5 -221q0 -305 -289 -305z" />
    <glyph glyph-name="Psmall" unicode="&#xf770;" horiz-adv-x="560" 
d="M301 169h-105v-169h-150v580h255q112 0 172.5 -52t60.5 -154q0 -103 -60.5 -154t-172.5 -51zM196 447v-146h96q87 0 87 73t-87 73h-96z" />
    <glyph glyph-name="Qsmall" unicode="&#xf771;" horiz-adv-x="650" 
d="M325 114q39 0 65.5 13t40 39t19 56.5t5.5 72.5q0 85 -27 128t-103 43t-103 -43t-27 -128q0 -87 27.5 -134t102.5 -47zM295 -8q-135 8 -197 84.5t-62 218.5q0 147 69.5 221t219.5 74t219.5 -74t69.5 -221q0 -127 -54 -191t-147 -75q3 -15 73 -17t109 4v-124
q-222 -25 -300 100z" />
    <glyph glyph-name="Rsmall" unicode="&#xf772;" horiz-adv-x="575" 
d="M558 0h-186l-106 169h-70v-169h-150v580h255q111 0 172 -53t61 -153q0 -66 -29.5 -112.5t-81.5 -66.5zM196 447v-146h104q40 0 59.5 16t19.5 57q0 40 -19.5 56.5t-58.5 16.5h-105z" />
    <glyph glyph-name="Ssmall" unicode="&#xf773;" horiz-adv-x="570" 
d="M242 225q-95 17 -140.5 59.5t-45.5 121.5q0 184 224 184q114 0 244 -39l-36 -124q-128 30 -204 30q-40 0 -54.5 -9.5t-14.5 -28.5q0 -7 2 -12.5t7 -10.5t10 -8.5t14 -6.5l15.5 -5t18.5 -4.5t19.5 -3.5t21.5 -3.5t21 -3.5q190 -31 190 -185q0 -94 -67.5 -140t-176.5 -46
q-125 0 -254 39l36 123q128 -30 222 -30q81 0 81 45q0 28 -37 40q-16 5 -96 18z" />
    <glyph glyph-name="Tsmall" unicode="&#xf774;" horiz-adv-x="520" 
d="M494 447h-159v-447h-150v447h-159v133h468v-133z" />
    <glyph glyph-name="Usmall" unicode="&#xf775;" 
d="M46 237v343h150v-341q0 -64 20 -94.5t85 -30.5q63 0 83 31t20 94v341h150v-341q0 -131 -63 -190t-191 -59t-191 58.5t-63 188.5z" />
    <glyph glyph-name="Vsmall" unicode="&#xf776;" horiz-adv-x="610" 
d="M309 193h1l116 387h168l-200 -585h-177l-201 585h177z" />
    <glyph glyph-name="Wsmall" unicode="&#xf777;" horiz-adv-x="900" 
d="M441 325h-2l-77 -330h-185l-161 585h177l93 -387h1l75 387h168l91 -387h1l94 387h168l-161 -585h-203z" />
    <glyph glyph-name="Xsmall" unicode="&#xf778;" horiz-adv-x="612" 
d="M402 580h177l-189 -279l206 -301h-190l-113 173l-108 -173h-168l188 292l-180 288h177l102 -151z" />
    <glyph glyph-name="Ysmall" unicode="&#xf779;" horiz-adv-x="580" 
d="M293 357h2l97 223h172l-199 -400v-180h-150v180l-199 400h181z" />
    <glyph glyph-name="Zsmall" unicode="&#xf77a;" horiz-adv-x="520" 
d="M232 134v-2h263v-132h-470v115l257 330v2h-237v133h440v-115z" />
    <glyph glyph-name="centoldstyle" unicode="&#xf7a2;" horiz-adv-x="514" 
d="M313 386q-53 0 -85.5 -34t-32.5 -102t32.5 -102t85.5 -34q67 0 147 30l17 -115q-90 -39 -177 -39q-121 0 -192.5 70.5t-71.5 189.5t71.5 189.5t192.5 70.5q84 0 177 -39l-17 -115q-80 30 -147 30zM335 -130h-80v100h80v-100zM335 530h-80v100h80v-100z" />
    <glyph glyph-name="Agravesmall" unicode="&#xf7e0;" horiz-adv-x="610" 
d="M417 0l-31 99h-170l-32 -99h-168l201 585h177l200 -585h-177zM354 222l-52 165h-1l-53 -165h106zM261 630l-97 120h124l53 -120h-80z" />
    <glyph glyph-name="Aacutesmall" unicode="&#xf7e1;" horiz-adv-x="610" 
d="M417 0l-31 99h-170l-32 -99h-168l201 585h177l200 -585h-177zM354 222l-52 165h-1l-53 -165h106zM439 750l-97 -120h-80l53 120h124z" />
    <glyph glyph-name="Acircumflexsmall" unicode="&#xf7e2;" horiz-adv-x="610" 
d="M417 0l-31 99h-170l-32 -99h-168l201 585h177l200 -585h-177zM354 222l-52 165h-1l-53 -165h106zM305 687l-74 -57h-80l110 120h89l109 -120h-80z" />
    <glyph glyph-name="Atildesmall" unicode="&#xf7e3;" horiz-adv-x="610" 
d="M417 0l-31 99h-170l-32 -99h-168l201 585h177l200 -585h-177zM354 222l-52 165h-1l-53 -165h106zM245 655q-32 0 -66 -38l-47 35q42 96 110 96q26 0 71.5 -19.5t60.5 -19.5q31 0 65 38l38 -45q-40 -83 -103 -83q-19 0 -64.5 18t-64.5 18z" />
    <glyph glyph-name="Adieresissmall" unicode="&#xf7e4;" horiz-adv-x="610" 
d="M417 0l-31 99h-170l-32 -99h-168l201 585h177l200 -585h-177zM354 222l-52 165h-1l-53 -165h106zM125 750h124v-118h-124v118zM360 750h124v-118h-124v118z" />
    <glyph glyph-name="Aringsmall" unicode="&#xf7e5;" horiz-adv-x="610" 
d="M417 0l-31 99h-170l-32 -99h-168l201 585h177l200 -585h-177zM354 222l-52 165h-1l-53 -165h106zM223 690q0 34 24 56.5t59 22.5t58 -22.5t23 -56.5t-23 -56.5t-58 -22.5t-59 22.5t-24 56.5zM270 690q0 -16 10.5 -27t25.5 -11t25 11t10 27t-10 27t-25 11t-25.5 -11
t-10.5 -27z" />
    <glyph glyph-name="AEsmall" unicode="&#xf7e6;" horiz-adv-x="886" 
d="M174 0h-158l316 580h513v-133h-283v-86h238v-132h-238v-97h288v-132h-438v154h-155zM319 278h93v169h-2z" />
    <glyph glyph-name="Ccedillasmall" unicode="&#xf7e7;" horiz-adv-x="581" 
d="M301 -79v71q-138 7 -201.5 82t-63.5 217q0 149 71.5 224t227.5 75q126 0 221 -39l-35 -124q-91 30 -182 30q-73 0 -108.5 -38.5t-35.5 -127.5q0 -90 35.5 -129.5t108.5 -39.5q86 0 182 30l35 -123q-85 -35 -201 -39v-41q83 -13 83 -74q0 -37 -27.5 -58.5t-77.5 -21.5
q-43 0 -84 12l9 47q20 -5 45 -5q21 0 32.5 9.5t11.5 24.5q0 29 -46 38z" />
    <glyph glyph-name="Egravesmall" unicode="&#xf7e8;" horiz-adv-x="520" 
d="M479 580v-133h-283v-86h238v-132h-238v-97h288v-132h-438v580h433zM231 630l-97 120h124l53 -120h-80z" />
    <glyph glyph-name="Eacutesmall" unicode="&#xf7e9;" horiz-adv-x="520" 
d="M479 580v-133h-283v-86h238v-132h-238v-97h288v-132h-438v580h433zM401 750l-97 -120h-80l53 120h124z" />
    <glyph glyph-name="Ecircumflexsmall" unicode="&#xf7ea;" horiz-adv-x="520" 
d="M479 580v-133h-283v-86h238v-132h-238v-97h288v-132h-438v580h433zM262 687l-74 -57h-80l110 120h89l109 -120h-80z" />
    <glyph glyph-name="Edieresissmall" unicode="&#xf7eb;" horiz-adv-x="520" 
d="M479 580v-133h-283v-86h238v-132h-238v-97h288v-132h-438v580h433zM83 750h124v-118h-124v118zM318 750h124v-118h-124v118z" />
    <glyph glyph-name="Igravesmall" unicode="&#xf7ec;" horiz-adv-x="242" 
d="M196 0h-150v580h150v-580zM80 630l-97 120h124l53 -120h-80z" />
    <glyph glyph-name="Iacutesmall" unicode="&#xf7ed;" horiz-adv-x="242" 
d="M196 0h-150v580h150v-580zM259 750l-97 -120h-80l53 120h124z" />
    <glyph glyph-name="Icircumflexsmall" unicode="&#xf7ee;" horiz-adv-x="242" 
d="M196 0h-150v580h150v-580zM121 687l-74 -57h-80l110 120h89l109 -120h-80z" />
    <glyph glyph-name="Idieresissmall" unicode="&#xf7ef;" horiz-adv-x="242" 
d="M196 0h-150v580h150v-580zM-59 750h124v-118h-124v118zM176 750h124v-118h-124v118z" />
    <glyph glyph-name="Ntildesmall" unicode="&#xf7f1;" horiz-adv-x="610" 
d="M192 0h-146v580h159l211 -337h2v337h146v-580h-159l-211 337h-2v-337zM245 655q-32 0 -66 -38l-47 35q42 96 110 96q26 0 71.5 -19.5t60.5 -19.5q31 0 65 38l38 -45q-40 -83 -103 -83q-19 0 -64.5 18t-64.5 18z" />
    <glyph glyph-name="Ogravesmall" unicode="&#xf7f2;" horiz-adv-x="650" 
d="M325 466q-76 0 -103 -43t-27 -128q0 -87 27.5 -134t102.5 -47t102.5 47t27.5 134q0 85 -27 128t-103 43zM325 -10q-289 0 -289 305q0 147 69.5 221t219.5 74t219.5 -74t69.5 -221q0 -305 -289 -305zM280 630l-97 120h124l53 -120h-80z" />
    <glyph glyph-name="Oacutesmall" unicode="&#xf7f3;" horiz-adv-x="650" 
d="M325 466q-76 0 -103 -43t-27 -128q0 -87 27.5 -134t102.5 -47t102.5 47t27.5 134q0 85 -27 128t-103 43zM325 -10q-289 0 -289 305q0 147 69.5 221t219.5 74t219.5 -74t69.5 -221q0 -305 -289 -305zM455 750l-97 -120h-80l53 120h124z" />
    <glyph glyph-name="Ocircumflexsmall" unicode="&#xf7f4;" horiz-adv-x="650" 
d="M325 466q-76 0 -103 -43t-27 -128q0 -87 27.5 -134t102.5 -47t102.5 47t27.5 134q0 85 -27 128t-103 43zM325 -10q-289 0 -289 305q0 147 69.5 221t219.5 74t219.5 -74t69.5 -221q0 -305 -289 -305zM325 687l-74 -57h-80l110 120h89l109 -120h-80z" />
    <glyph glyph-name="Otildesmall" unicode="&#xf7f5;" horiz-adv-x="650" 
d="M325 466q-76 0 -103 -43t-27 -128q0 -87 27.5 -134t102.5 -47t102.5 47t27.5 134q0 85 -27 128t-103 43zM325 -10q-289 0 -289 305q0 147 69.5 221t219.5 74t219.5 -74t69.5 -221q0 -305 -289 -305zM265 655q-32 0 -66 -38l-47 35q42 96 110 96q26 0 71.5 -19.5
t60.5 -19.5q31 0 65 38l38 -45q-40 -83 -103 -83q-19 0 -64.5 18t-64.5 18z" />
    <glyph glyph-name="Odieresissmall" unicode="&#xf7f6;" horiz-adv-x="650" 
d="M325 466q-76 0 -103 -43t-27 -128q0 -87 27.5 -134t102.5 -47t102.5 47t27.5 134q0 85 -27 128t-103 43zM325 -10q-289 0 -289 305q0 147 69.5 221t219.5 74t219.5 -74t69.5 -221q0 -305 -289 -305zM145 750h124v-118h-124v118zM380 750h124v-118h-124v118z" />
    <glyph glyph-name="Oslashsmall" unicode="&#xf7f8;" horiz-adv-x="650" 
d="M325 -10q-107 0 -172 41l-56 -69l-45 36l55 68q-71 75 -71 229q0 147 69.5 221t219.5 74q105 0 173 -40l55 68l44 -36l-53 -66q70 -73 70 -221q0 -305 -289 -305zM325 466q-76 0 -103 -43t-27 -128q0 -66 14 -103l201 249q-30 25 -85 25zM325 114q75 0 102.5 47t27.5 134
q0 60 -13 94l-201 -249q29 -26 84 -26z" />
    <glyph glyph-name="Ugravesmall" unicode="&#xf7f9;" 
d="M46 237v343h150v-341q0 -64 20 -94.5t85 -30.5q63 0 83 31t20 94v341h150v-341q0 -131 -63 -190t-191 -59t-191 58.5t-63 188.5zM250 630l-97 120h124l53 -120h-80z" />
    <glyph glyph-name="Uacutesmall" unicode="&#xf7fa;" 
d="M46 237v343h150v-341q0 -64 20 -94.5t85 -30.5q63 0 83 31t20 94v341h150v-341q0 -131 -63 -190t-191 -59t-191 58.5t-63 188.5zM438 750l-97 -120h-80l53 120h124z" />
    <glyph glyph-name="Ucircumflexsmall" unicode="&#xf7fb;" 
d="M46 237v343h150v-341q0 -64 20 -94.5t85 -30.5q63 0 83 31t20 94v341h150v-341q0 -131 -63 -190t-191 -59t-191 58.5t-63 188.5zM300 687l-74 -57h-80l110 120h89l109 -120h-80z" />
    <glyph glyph-name="Udieresissmall" unicode="&#xf7fc;" 
d="M46 237v343h150v-341q0 -64 20 -94.5t85 -30.5q63 0 83 31t20 94v341h150v-341q0 -131 -63 -190t-191 -59t-191 58.5t-63 188.5zM120 750h124v-118h-124v118zM355 750h124v-118h-124v118z" />
    <glyph glyph-name="Yacutesmall" unicode="&#xf7fd;" horiz-adv-x="580" 
d="M293 357h2l97 223h172l-199 -400v-180h-150v180l-199 400h181zM428 750l-97 -120h-80l53 120h124z" />
    <glyph glyph-name="Ydieresissmall" unicode="&#xf7ff;" horiz-adv-x="580" 
d="M293 357h2l97 223h172l-199 -400v-180h-150v180l-199 400h181zM110 750h124v-118h-124v118zM345 750h124v-118h-124v118z" />
    <glyph glyph-name="longs_t" unicode="&#xfb05;" horiz-adv-x="637" 
d="M76 -45v593q0 78 38 115t126 37q39 0 91 -9l-13 -115q-28 5 -43 5q-27 0 -38 -14.5t-11 -44.5v-578q0 -79 -34.5 -116.5t-129.5 -37.5q-39 0 -91 9l14 115q27 -5 42 -5q29 0 39 9.5t10 36.5zM339 142v252h-64v97l64 9l17 140h133v-140h117v-106h-117v-226q0 -59 66 -59
q15 0 43 5l13 -115q-52 -9 -109 -9q-87 0 -125 37t-38 115z" />
    <glyph glyph-name="s_t" unicode="&#xfb06;" horiz-adv-x="860" 
d="M459 156q0 -84 -54 -125t-150 -41q-138 0 -234 24l27 120q105 -25 189 -25q35 0 53.5 10.5t18.5 25.5q0 14 -17 21t-56 14q-99 17 -152 55.5t-53 119.5q0 155 204 155q119 0 215 -24l-27 -120q-104 25 -179 25q-63 0 -63 -32q0 -14 14 -21.5t54 -16.5q103 -23 141 -45
q69 -41 69 -120zM561 142v252h-64v97l64 9l18 140h132v-140h118v-106h-118v-226q0 -59 66 -59q16 0 43 5l14 -115q-52 -9 -109 -9q-88 0 -126 37t-38 115z" />
    <glyph glyph-name="cyrbreve" horiz-adv-x="406" 
d="M203 646q67 0 90 61h60q-17 -146 -150 -146q-132 0 -151 146h60q23 -61 91 -61z" />
    <glyph glyph-name="undercommaaccent" horiz-adv-x="238" 
d="M115 -216h-45l27 81h-44v95h133v-95z" />
    <glyph glyph-name="dieresisacute" horiz-adv-x="560" 
d="M52 680h124v-118h-124v118zM384 680h123v-118h-123v118zM374 700l-97 -138h-80l53 138h124z" />
    <glyph glyph-name="dieresisgrave" horiz-adv-x="560" 
d="M384 680h123v-118h-123v118zM52 680h124v-118h-124v118zM282 562l-96 138h124l52 -138h-80z" />
    <glyph glyph-name="dblgrave" horiz-adv-x="381" 
d="M249 560l-70 120h97l53 -120h-80zM122 560l-70 120h98l52 -120h-80z" />
    <glyph glyph-name="cyrflex" horiz-adv-x="412" 
d="M206 620l-39 -60h-115l101 140h106l101 -140h-115z" />
    <glyph glyph-name="Acute" horiz-adv-x="281" 
d="M246 850l-96 -140h-115l52 140h159z" />
    <glyph glyph-name="Breve" horiz-adv-x="406" 
d="M203 816q67 0 90 61h60q-17 -146 -150 -146q-132 0 -151 146h60q23 -61 91 -61z" />
    <glyph glyph-name="cyrBreve" horiz-adv-x="406" 
d="M203 816q67 0 90 61h60q-17 -146 -150 -146q-132 0 -151 146h60q23 -61 91 -61z" />
    <glyph glyph-name="Caron" horiz-adv-x="412" 
d="M167 850l39 -60l39 60h115l-101 -140h-106l-101 140h115z" />
    <glyph glyph-name="Cedilla" horiz-adv-x="293" 
d="M104 -79v79h54v-51q83 -13 83 -74q0 -37 -27.5 -58.5t-77.5 -21.5q-44 0 -84 12l9 47q20 -5 45 -5q21 0 32.5 9.5t11.5 24.5q0 29 -46 38z" />
    <glyph glyph-name="Circumflex" horiz-adv-x="412" 
d="M206 770l-39 -60h-115l101 140h106l101 -140h-115z" />
    <glyph glyph-name="commaaccent.cap" horiz-adv-x="238" 
d="M115 -216h-45l27 81h-44v95h133v-95z" />
    <glyph glyph-name="Dieresis" horiz-adv-x="464" 
d="M74 857h123v-135h-123v135zM266 857h124v-135h-124v135z" />
    <glyph glyph-name="DieresisAcute" horiz-adv-x="560" 
d="M52 850h124v-118h-124v118zM384 850h123v-118h-123v118zM374 870l-97 -138h-80l53 138h124z" />
    <glyph glyph-name="DieresisGrave" horiz-adv-x="560" 
d="M384 850h123v-118h-123v118zM52 850h124v-118h-124v118zM282 732l-96 138h124l52 -138h-80z" />
    <glyph glyph-name="Dotaccent" horiz-adv-x="237" 
d="M52 850h133v-118h-133v118z" />
    <glyph glyph-name="Hungarumlaut" horiz-adv-x="381" 
d="M202 850l-70 -120h-80l53 120h97zM329 850l-70 -120h-80l52 120h98z" />
    <glyph glyph-name="Grave" horiz-adv-x="281" 
d="M131 710l-96 140h159l52 -140h-115z" />
    <glyph glyph-name="dblGrave" horiz-adv-x="381" 
d="M249 730l-70 120h97l53 -120h-80zM122 730l-70 120h98l52 -120h-80z" />
    <glyph glyph-name="cyrFlex" horiz-adv-x="412" 
d="M206 770l-39 -60h-115l101 140h106l101 -140h-115z" />
    <glyph glyph-name="Macron" horiz-adv-x="437" 
d="M52 844h333v-98h-333v98z" />
    <glyph glyph-name="Ogonek" horiz-adv-x="310" 
d="M253 -140l5 -35q-37 -29 -98 -29q-48 0 -78 23t-30 58q0 69 86 123h72q-57 -46 -57 -96q0 -53 59 -53q18 0 41 9z" />
    <glyph glyph-name="Ring" horiz-adv-x="269" 
d="M52 790q0 34 24 56.5t59 22.5t58 -22.5t23 -56.5t-23 -56.5t-58 -22.5t-59 22.5t-24 56.5zM99 790q0 -16 10.5 -27t25.5 -11t25 11t10 27t-10 27t-25 11t-25.5 -11t-10.5 -27z" />
    <glyph glyph-name="Tilde" horiz-adv-x="449" 
d="M165 745q-32 0 -66 -38l-47 53q42 96 110 96q26 0 71.5 -20t60.5 -20q31 0 65 39l38 -63q-40 -83 -103 -83q-19 0 -64.5 18t-64.5 18z" />
    <glyph glyph-name="Acutesmall" horiz-adv-x="281" 
d="M229 750l-97 -120h-80l53 120h124z" />
    <glyph glyph-name="Brevesmall" horiz-adv-x="406" 
d="M203 716q67 0 90 61h60q-17 -146 -150 -146q-132 0 -151 146h60q23 -61 91 -61z" />
    <glyph glyph-name="Caronsmall" horiz-adv-x="412" 
d="M132 750l74 -58l74 58h80l-109 -120h-89l-110 120h80z" />
    <glyph glyph-name="Cedillasmall" horiz-adv-x="293" 
d="M104 -79v79h54v-51q83 -13 83 -74q0 -37 -27.5 -58.5t-77.5 -21.5q-44 0 -84 12l9 47q20 -5 45 -5q21 0 32.5 9.5t11.5 24.5q0 29 -46 38z" />
    <glyph glyph-name="Circumflexsmall" horiz-adv-x="412" 
d="M206 687l-74 -57h-80l110 120h89l109 -120h-80z" />
    <glyph glyph-name="commaaccent.small" horiz-adv-x="238" 
d="M115 -216h-45l27 81h-44v95h133v-95z" />
    <glyph glyph-name="Dieresissmall" horiz-adv-x="464" 
d="M52 750h124v-118h-124v118zM287 750h124v-118h-124v118z" />
    <glyph glyph-name="DieresisAcute.small" horiz-adv-x="560" 
d="M52 750h124v-118h-124v118zM384 750h123v-118h-123v118zM374 770l-97 -138h-80l53 138h124z" />
    <glyph glyph-name="DieresisGrave.small" horiz-adv-x="560" 
d="M384 750h123v-118h-123v118zM52 750h124v-118h-124v118zM282 632l-96 138h124l52 -138h-80z" />
    <glyph glyph-name="Dotaccentsmall" horiz-adv-x="237" 
d="M52 750h133v-118h-133v118z" />
    <glyph glyph-name="Hungarumlautsmall" horiz-adv-x="381" 
d="M202 750l-70 -120h-80l53 120h97zM329 750l-70 -120h-80l52 120h98z" />
    <glyph glyph-name="Gravesmall" horiz-adv-x="281" 
d="M149 630l-97 120h124l53 -120h-80z" />
    <glyph glyph-name="dblGrave.small" horiz-adv-x="381" 
d="M249 630l-70 120h97l53 -120h-80zM122 630l-70 120h98l52 -120h-80z" />
    <glyph glyph-name="Macronsmall" horiz-adv-x="437" 
d="M52 735h333v-89h-333v89z" />
    <glyph glyph-name="Ogoneksmall" horiz-adv-x="310" 
d="M253 -140l5 -35q-37 -29 -98 -29q-48 0 -78 23t-30 58q0 69 86 123h72q-57 -46 -57 -96q0 -53 59 -53q18 0 41 9z" />
    <glyph glyph-name="Ringsmall" horiz-adv-x="269" 
d="M52 690q0 34 24 56.5t59 22.5t58 -22.5t23 -56.5t-23 -56.5t-58 -22.5t-59 22.5t-24 56.5zM99 690q0 -16 10.5 -27t25.5 -11t25 11t10 27t-10 27t-25 11t-25.5 -11t-10.5 -27z" />
    <glyph glyph-name="Tildesmall" horiz-adv-x="449" 
d="M165 655q-32 0 -66 -38l-47 35q42 96 110 96q26 0 71.5 -19.5t60.5 -19.5q31 0 65 38l38 -45q-40 -83 -103 -83q-19 0 -64.5 18t-64.5 18z" />
    <glyph glyph-name="middot" horiz-adv-x="245" 
d="M56 377h133v-135h-133v135z" />
    <glyph glyph-name="Aogonek.small" horiz-adv-x="610" 
d="M480 0h-63l-31 99h-170l-32 -99h-168l201 585h177l200 -585q-50 -3 -75 -32.5t-25 -63.5q0 -25 16 -39t44 -14q18 0 41 9l5 -35q-37 -29 -98 -29q-48 0 -78 23t-30 58q0 69 86 123zM302 387h-1l-53 -165h106z" />
    <glyph glyph-name="Dcroat.small" horiz-adv-x="610" 
d="M214 132h73q70 0 99 38.5t29 124.5q0 84 -28.5 118t-99.5 34h-73v-108h107v-88h-107v-119zM296 0h-232v251h-70v88h70v241h232q278 0 278 -285q0 -142 -69 -218.5t-209 -76.5z" />
    <glyph glyph-name="Eogonek.small" horiz-adv-x="520" 
d="M527 -140l5 -35q-37 -29 -98 -29q-48 0 -78 23t-30 58q0 69 86 123h-366v580h433v-133h-283v-86h238v-132h-238v-97h288v-132q-58 -47 -58 -96q0 -25 16 -39t44 -14q18 0 41 9z" />
    <glyph glyph-name="Hbar.small" horiz-adv-x="620" 
d="M-14 514h70v66h150v-66h208v66h150v-66h70v-88h-70v-426h-150v229h-208v-229h-150v426h-70v88zM206 361h208v65h-208v-65z" />
    <glyph glyph-name="Iogonek.small" horiz-adv-x="242" 
d="M196 580v-580q-44 -3 -67 -34t-23 -62q0 -53 59 -53q18 0 41 9l5 -35q-37 -29 -98 -29q-48 0 -77.5 22.5t-29.5 58.5q0 72 86 123l-46 18v562h150z" />
    <glyph glyph-name="IJ.small" horiz-adv-x="595" 
d="M196 0h-150v580h150v-580zM557 580v-394q0 -196 -190 -196q-61 0 -113 9l13 133q32 -5 56 -5q75 0 75 68v385h159z" />
    <glyph glyph-name="Scedilla.small" horiz-adv-x="570" 
d="M242 225q-95 17 -140.5 59.5t-45.5 121.5q0 184 224 184q114 0 244 -39l-36 -124q-128 30 -204 30q-40 0 -54.5 -9.5t-14.5 -28.5q0 -7 2 -12.5t7 -10.5t10 -8.5t14 -6.5l15.5 -5t18.5 -4.5t19.5 -3.5t21.5 -3.5t21 -3.5q190 -31 190 -185q0 -91 -63.5 -137t-166.5 -48
v-42q83 -13 83 -74q0 -37 -27.5 -58.5t-76.5 -21.5q-43 0 -84 12l8 47q20 -5 45 -5q44 0 44 34q0 29 -46 38v70q-110 5 -214 38l36 123q128 -30 222 -30q81 0 81 45q0 28 -37 40q-16 5 -96 18z" />
    <glyph glyph-name="Tbar.small" horiz-adv-x="520" 
d="M111 274h74v173h-159v133h468v-133h-159v-173h74v-88h-74v-186h-150v186h-74v88z" />
    <glyph glyph-name="Uogonek.small" 
d="M46 237v343h150v-341q0 -64 20 -94.5t85 -30.5q63 0 83 31t20 94v341h150v-341q0 -123 -56 -182.5t-169 -65.5q-46 -42 -46 -87q0 -53 59 -53q18 0 41 9l5 -35q-37 -29 -98 -29q-48 0 -78 23t-30 58q0 64 73 115q-105 8 -157 67t-52 178z" />
    <glyph glyph-name="c_t" horiz-adv-x="855" 
d="M556 142v252h-64v97l64 9l18 140h132v-140h118v-106h-118v-226q0 -59 66 -59q16 0 43 5l14 -115q-52 -9 -109 -9q-88 0 -126 37t-38 115zM26 250q0 127 61 193.5t203 66.5q81 0 177 -24l-26 -120q-84 20 -151 20q-105 0 -105 -136t105 -136q67 0 151 20l26 -120
q-96 -24 -177 -24q-142 0 -203 66.5t-61 193.5z" />
    <glyph glyph-name="s_p" horiz-adv-x="1025" 
d="M459 156q0 -84 -54 -125t-150 -41q-138 0 -234 24l27 120q105 -25 189 -25q35 0 53.5 10.5t18.5 25.5q0 14 -17 21t-56 14q-99 17 -152 55.5t-53 119.5q0 155 204 155q119 0 215 -24l-27 -120q-104 25 -179 25q-63 0 -63 -32q0 -14 14 -21.5t54 -16.5q103 -23 141 -45
q69 -41 69 -120zM681 500v-50h2q23 27 59.5 43.5t74.5 16.5q182 0 182 -260q0 -75 -17.5 -131t-61.5 -92.5t-111 -36.5q-78 0 -126 56h-2v-246h-150v700h150zM840 250q0 136 -84 136q-40 0 -75 -25v-222q35 -25 75 -25q84 0 84 136z" />
    <glyph glyph-name="dsuperior" horiz-adv-x="301" 
d="M192 655v125h75v-352h-75v25h-1q-26 -28 -62 -28q-49 0 -72 36t-23 94q0 130 90 130q42 0 67 -30h1zM113 555q0 -68 42 -68q19 0 37 13v110q-18 13 -37 13q-42 0 -42 -68z" />
    <glyph glyph-name="h.superior" horiz-adv-x="296" 
d="M109 608v-178h-75v350h75v-131h1q31 36 77 36q37 0 56 -22.5t19 -61.5v-171h-75v153q0 40 -35 40q-19 0 -43 -15z" />
    <glyph glyph-name="Ethsmall" horiz-adv-x="610" 
d="M214 132h73q70 0 99 38.5t29 124.5q0 84 -28.5 118t-99.5 34h-73v-108h107v-88h-107v-119zM296 0h-232v251h-70v88h70v241h232q278 0 278 -285q0 -142 -69 -218.5t-209 -76.5z" />
    <glyph glyph-name="Thornsmall" horiz-adv-x="560" 
d="M292 84h-96v-84h-150v580h150v-84h96q113 0 177.5 -52t64.5 -154t-64 -154t-178 -52zM196 363v-146h96q87 0 87 73t-87 73h-96z" />
    <glyph glyph-name="Eng.small" horiz-adv-x="610" 
d="M414 -45v45l-220 337h-2v-337h-146v580h159l211 -337h2v337h146v-636q0 -79 -35 -116.5t-129 -37.5q-39 0 -91 9l13 115q28 -5 43 -5q27 0 38 9.5t11 36.5z" />
    <glyph glyph-name="longs_h" horiz-adv-x="865" 
d="M521 687v-250h2q65 73 156 73q73 0 111.5 -45.5t38.5 -123.5v-341h-150v306q0 80 -70 80q-37 0 -88 -29v-357h-150v573q-31 8 -57 8q-31 0 -50 -6t-26.5 -17.5t-9.5 -20.5t-2 -24v-569q0 -79 -34.5 -116.5t-129.5 -37.5q-39 0 -91 9l14 115q27 -5 42 -5q29 0 39 9.5
t10 36.5v558q0 86 49 136.5t171 50.5q70 0 119 -13h106z" />
    <glyph glyph-name="longs_l" horiz-adv-x="557" 
d="M76 -45v558q0 86 49 136.5t171 50.5q70 0 119 -13h106v-687h-150v573q-31 8 -57 8q-31 0 -50 -6t-26.5 -17.5t-9.5 -20.5t-2 -24v-569q0 -79 -34.5 -116.5t-129.5 -37.5q-39 0 -91 9l14 115q27 -5 42 -5q29 0 39 9.5t10 36.5z" />
    <glyph glyph-name="longs_i" horiz-adv-x="525" 
d="M76 -45v593q0 78 38 115t126 37q39 0 91 -9l-13 -115q-28 5 -43 5q-27 0 -38 -14.5t-11 -44.5v-578q0 -79 -34.5 -116.5t-129.5 -37.5q-39 0 -91 9l14 115q27 -5 42 -5q29 0 39 9.5t10 36.5zM339 500h150v-500h-150v500z" />
    <glyph glyph-name="longs_longs" horiz-adv-x="630" 
d="M76 -45v593q0 78 38 115t126 37q39 0 91 -9l-13 -115q-28 5 -43 5q-27 0 -38 -14.5t-11 -44.5v-578q0 -79 -34.5 -116.5t-129.5 -37.5q-39 0 -91 9l14 115q27 -5 42 -5q29 0 39 9.5t10 36.5zM361 -45v593q0 78 38 115t126 37q39 0 91 -9l-13 -115q-28 5 -43 5
q-27 0 -38 -14.5t-11 -44.5v-578q0 -79 -34.5 -116.5t-129.5 -37.5q-39 0 -91 9l14 115q27 -5 42 -5q29 0 39 9.5t10 36.5z" />
    <glyph glyph-name="zero.slash" horiz-adv-x="590" 
d="M295 -10q-138 0 -198.5 90.5t-60.5 264.5q0 172 60 258.5t199 86.5t199 -86.5t60 -258.5q0 -174 -60.5 -264.5t-198.5 -90.5zM295 114q100 0 100 231q0 41 -6 75l-178 -226q24 -80 84 -80zM295 566q-55 0 -77.5 -57.5t-22.5 -163.5q0 -45 5 -72l176 224q-24 69 -81 69z
" />
    <glyph glyph-name="zero.fitted" 
d="M300 566q-55 0 -77.5 -57.5t-22.5 -163.5q0 -231 100 -231t100 231q0 106 -22.5 163.5t-77.5 57.5zM300 -10q-76 0 -128.5 27.5t-80 78.5t-39 111t-11.5 138q0 62 6.5 111t24.5 94t46.5 75t74.5 47.5t107 17.5t107 -17.5t74.5 -47.5t46.5 -75t24.5 -94t6.5 -111
q0 -78 -11.5 -138t-39 -111t-80 -78.5t-128.5 -27.5z" />
    <glyph glyph-name="one.fitted" 
d="M39 124h187v385l-130 -53l-37 124q141 49 207 105h110v-561h185v-124h-522v124z" />
    <glyph glyph-name="two.fitted" 
d="M260 553q-68 0 -155 -32l-44 119q126 50 234 50q113 0 173.5 -58t60.5 -150q0 -98 -63.5 -177.5t-192.5 -170.5v-2h266v-132h-478v142q178 111 243.5 180.5t65.5 128.5q0 102 -110 102z" />
    <glyph glyph-name="three.fitted" 
d="M415 357v-2q67 -18 100.5 -63.5t33.5 -104.5q0 -94 -67.5 -145.5t-187.5 -51.5q-136 0 -243 49l45 115q89 -40 190 -40q56 0 82 24.5t26 57.5q0 82 -119 82h-93v124h86q111 0 111 91q0 30 -24 51.5t-69 21.5q-82 0 -177 -40l-44 115q111 49 247 49q92 0 154.5 -47
t62.5 -133q0 -108 -114 -153z" />
    <glyph glyph-name="four.fitted" 
d="M184 272h151v214h-2q-53 -96 -149 -214zM299 680h186v-408h84v-123h-84v-149h-150v149h-304v123q171 187 268 408z" />
    <glyph glyph-name="five.fitted" 
d="M285 -10q-124 0 -234 50l44 115q94 -41 181 -41q57 0 85.5 29.5t28.5 75.5q0 42 -23 72.5t-75 30.5q-57 0 -96 -39l-106 9l11 388h408v-133h-278l-7 -135l2 -1q53 39 121 39q92 0 147 -58t55 -165q0 -116 -69 -176.5t-195 -60.5z" />
    <glyph glyph-name="six.fitted" 
d="M201 394l2 -1q55 62 136 62q98 0 154 -62t56 -173q0 -106 -66.5 -168t-174.5 -62q-128 0 -192.5 89t-64.5 221q0 390 303 390q89 0 174 -29l-18 -115q-83 20 -143 20q-66 0 -116.5 -43.5t-49.5 -128.5zM214 284q-5 -45 -0.5 -81t26.5 -62.5t61 -26.5t64 28t25 78
q0 43 -20.5 74t-70.5 31q-44 0 -85 -41z" />
    <glyph glyph-name="seven.fitted" 
d="M360 545v2h-284v133h448v-106q-58 -103 -91.5 -170t-72 -177.5t-56.5 -226.5h-168q22 129 83.5 277.5t140.5 267.5z" />
    <glyph glyph-name="eight.fitted" 
d="M430 359v-2q129 -65 129 -170q0 -99 -75.5 -148t-187.5 -49q-69 0 -124.5 17t-93 59.5t-37.5 104.5q0 112 127 165v2q-107 57 -107 166q0 90 71.5 138t171.5 48q94 0 164.5 -47t70.5 -131q0 -53 -27 -88.5t-82 -64.5zM196 187q0 -35 27 -60.5t82 -25.5q51 0 75 20.5
t24 52.5q0 13 -3.5 24.5t-13 21l-16.5 16t-22.5 14l-23 11t-26 10.5t-22.5 9q-81 -32 -81 -93zM296 579q-37 0 -61 -20.5t-24 -50.5q0 -36 31.5 -60.5t75.5 -35.5q31 11 51 34t20 53q0 35 -25.5 57.5t-67.5 22.5z" />
    <glyph glyph-name="nine.fitted" 
d="M399 286l-2 1q-55 -62 -136 -62q-98 0 -154 61.5t-56 173.5q0 106 66.5 168t174.5 62q128 0 192.5 -89t64.5 -221q0 -390 -303 -390q-89 0 -174 29l18 115q83 -20 143 -20q66 0 116.5 43.5t49.5 128.5zM386 396q5 45 0.5 81t-26.5 62.5t-61 26.5t-64 -28t-25 -78
q0 -43 20.5 -74t70.5 -31q44 0 85 41z" />
    <glyph glyph-name="oneoldstyle" horiz-adv-x="385" 
d="M181 329l-130 -53l-37 124q141 49 207 105h110v-505h-150v329z" />
    <glyph glyph-name="threeoldstyle" horiz-adv-x="570" 
d="M400 177v-2q67 -18 100.5 -63.5t33.5 -104.5q0 -94 -67.5 -145.5t-187.5 -51.5q-136 0 -243 49l45 115q89 -40 190 -40q56 0 82 24.5t26 57.5q0 82 -119 82h-93v124h86q111 0 111 91q0 30 -24 51.5t-69 21.5q-82 0 -177 -40l-44 115q111 49 247 49q92 0 154.5 -47
t62.5 -133q0 -108 -114 -153z" />
    <glyph glyph-name="fouroldstyle" 
d="M294 505h186v-381h84v-124h-84v-170h-150v170h-304v124q100 109 160 190.5t108 190.5zM179 124h151v217h-2q-63 -112 -149 -217z" />
    <glyph glyph-name="fiveoldstyle" horiz-adv-x="570" 
d="M270 -190q-124 0 -234 50l44 115q94 -41 181 -41q57 0 85.5 29.5t28.5 75.5q0 42 -23 72.5t-75 30.5q-57 0 -96 -39l-106 9l11 388h408v-133h-278l-7 -135l2 -1q53 39 121 39q92 0 147 -58t55 -165q0 -116 -69 -176.5t-195 -60.5z" />
    <glyph glyph-name="sixoldstyle" horiz-adv-x="570" 
d="M186 394l2 -1q55 62 136 62q98 0 154 -62t56 -173q0 -106 -66.5 -168t-174.5 -62q-128 0 -192.5 89t-64.5 221q0 390 303 390q89 0 174 -29l-18 -115q-83 20 -143 20q-66 0 -116.5 -43.5t-49.5 -128.5zM199 284q-5 -45 -0.5 -81t26.5 -62.5t61 -26.5t64 28t25 78
q0 43 -20.5 74t-70.5 31q-44 0 -85 -41z" />
    <glyph glyph-name="sevenoldstyle" horiz-adv-x="500" 
d="M310 365v2h-284v133h448v-106q-58 -103 -91.5 -170t-72 -177.5t-56.5 -226.5h-168q22 129 83.5 277.5t140.5 267.5z" />
    <glyph glyph-name="eightoldstyle" horiz-adv-x="590" 
d="M425 359v-2q129 -65 129 -170q0 -99 -75.5 -148t-187.5 -49q-69 0 -124.5 17t-93 59.5t-37.5 104.5q0 112 127 165v2q-107 57 -107 166q0 90 71.5 138t171.5 48q94 0 164.5 -47t70.5 -131q0 -53 -27 -88.5t-82 -64.5zM191 187q0 -35 27 -60.5t82 -25.5q51 0 75 20.5
t24 52.5q0 13 -3.5 24.5t-13 21l-16.5 16t-22.5 14l-23 11t-26 10.5t-22.5 9q-81 -32 -81 -93zM291 579q-37 0 -61 -20.5t-24 -50.5q0 -36 31.5 -60.5t75.5 -35.5q31 11 51 34t20 53q0 35 -25.5 57.5t-67.5 22.5z" />
    <glyph glyph-name="nineoldstyle" horiz-adv-x="570" 
d="M384 106l-2 1q-55 -62 -136 -62q-98 0 -154 61.5t-56 173.5q0 106 66.5 168t174.5 62q128 0 192.5 -89t64.5 -221q0 -390 -303 -390q-89 0 -174 29l18 115q83 -20 143 -20q66 0 116.5 43.5t49.5 128.5zM371 216q5 45 0.5 81t-26.5 62.5t-61 26.5t-64 -28t-25 -78
q0 -43 20.5 -74t70.5 -31q44 0 85 41z" />
    <glyph glyph-name="zero.taboldstyle" 
d="M300 386q-46 0 -73 -36t-27 -100t27 -100t73 -36t73 36t27 100t-27 100t-73 36zM300 -10q-121 0 -190 70t-69 190t69 190t190 70t190 -70t69 -190t-69 -190t-190 -70z" />
    <glyph glyph-name="one.taboldstyle" 
d="M39 124h187v205l-130 -53l-37 124q141 49 207 105h110v-381h185v-124h-522v124z" />
    <glyph glyph-name="two.taboldstyle" 
d="M286 373q-85 0 -189 -32l-36 128q118 41 251 41q102 0 159.5 -43t57.5 -118q0 -39 -16.5 -72t-38 -53.5t-59 -40t-62.5 -29t-65 -23.5q-10 -3 -15 -5v-2l266 8v-132h-478v142q193 73 225 88q80 44 84 84q0 59 -84 59z" />
    <glyph glyph-name="three.taboldstyle" 
d="M415 177v-2q67 -18 100.5 -63.5t33.5 -104.5q0 -94 -67.5 -145.5t-187.5 -51.5q-136 0 -243 49l45 115q89 -40 190 -40q56 0 82 24.5t26 57.5q0 82 -119 82h-93v124h86q111 0 111 91q0 30 -24 51.5t-69 21.5q-82 0 -177 -40l-44 115q111 49 247 49q92 0 154.5 -47
t62.5 -133q0 -108 -114 -153z" />
    <glyph glyph-name="four.taboldstyle" 
d="M299 505h186v-381h84v-124h-84v-170h-150v170h-304v124q100 109 160 190.5t108 190.5zM184 124h151v217h-2q-63 -112 -149 -217z" />
    <glyph glyph-name="five.taboldstyle" 
d="M285 -190q-124 0 -234 50l44 115q94 -41 181 -41q57 0 85.5 29.5t28.5 75.5q0 42 -23 72.5t-75 30.5q-57 0 -96 -39l-106 9l11 388h408v-133h-278l-7 -135l2 -1q53 39 121 39q92 0 147 -58t55 -165q0 -116 -69 -176.5t-195 -60.5z" />
    <glyph glyph-name="six.taboldstyle" 
d="M201 394l2 -1q55 62 136 62q98 0 154 -62t56 -173q0 -106 -66.5 -168t-174.5 -62q-128 0 -192.5 89t-64.5 221q0 390 303 390q89 0 174 -29l-18 -115q-83 20 -143 20q-66 0 -116.5 -43.5t-49.5 -128.5zM214 284q-5 -45 -0.5 -81t26.5 -62.5t61 -26.5t64 28t25 78
q0 43 -20.5 74t-70.5 31q-44 0 -85 -41z" />
    <glyph glyph-name="seven.taboldstyle" 
d="M360 365v2h-284v133h448v-106q-58 -103 -91.5 -170t-72 -177.5t-56.5 -226.5h-168q22 129 83.5 277.5t140.5 267.5z" />
    <glyph glyph-name="eight.taboldstyle" 
d="M430 359v-2q129 -65 129 -170q0 -99 -75.5 -148t-187.5 -49q-69 0 -124.5 17t-93 59.5t-37.5 104.5q0 112 127 165v2q-107 57 -107 166q0 90 71.5 138t171.5 48q94 0 164.5 -47t70.5 -131q0 -53 -27 -88.5t-82 -64.5zM196 187q0 -35 27 -60.5t82 -25.5q51 0 75 20.5
t24 52.5q0 13 -3.5 24.5t-13 21l-16.5 16t-22.5 14l-23 11t-26 10.5t-22.5 9q-81 -32 -81 -93zM296 579q-37 0 -61 -20.5t-24 -50.5q0 -36 31.5 -60.5t75.5 -35.5q31 11 51 34t20 53q0 35 -25.5 57.5t-67.5 22.5z" />
    <glyph glyph-name="nine.taboldstyle" 
d="M399 106l-2 1q-55 -62 -136 -62q-98 0 -154 61.5t-56 173.5q0 106 66.5 168t174.5 62q128 0 192.5 -89t64.5 -221q0 -390 -303 -390q-89 0 -174 29l18 115q83 -20 143 -20q66 0 116.5 43.5t49.5 128.5zM386 216q5 45 0.5 81t-26.5 62.5t-61 26.5t-64 -28t-25 -78
q0 -43 20.5 -74t70.5 -31q44 0 85 41z" />
    <glyph glyph-name="currency.taboldstyle" horiz-adv-x="513" 
d="M100 249q0 68 48 114l-78 90l8 8l79 -90q44 36 100 36q55 0 99 -36l78 90l9 -8l-78 -89q50 -47 50 -115t-49 -114l76 -86l-9 -9l-77 87q-43 -35 -99 -35q-57 0 -100 35l-76 -87l-9 9l76 86q-48 46 -48 114zM112 249q0 -59 43 -102t102 -43t102.5 43t43.5 102t-43.5 102.5
t-102.5 43.5t-102 -43.5t-43 -102.5z" />
    <glyph glyph-name="cent.taboldstyle" 
d="M356 386q-52 0 -85 -34t-33 -102t33 -102t85 -34q67 0 147 30l18 -115q-91 -39 -178 -39q-121 0 -192.5 70.5t-71.5 189.5t71.5 189.5t192.5 70.5q83 0 178 -39l-18 -115q-80 30 -147 30zM378 -130h-80v100h80v-100zM378 530h-80v100h80v-100z" />
    <glyph glyph-name="dollar.taboldstyle" 
d="M296 180q-99 17 -152 55.5t-53 119.5q0 80 58.5 117.5t145.5 37.5q127 0 215 -43l-27 -111q-105 35 -179 35q-63 0 -63 -32q0 -14 14 -21.5t54 -16.5q31 -7 41 -9.5t39 -10.5t41.5 -15t33.5 -20.5t30 -28t17 -36t8 -47.5q0 -80 -59.5 -122t-144.5 -42q-63 0 -129.5 12
t-104.5 31l27 111q98 -35 189 -35q35 0 53.5 10t18.5 25q0 14 -17.5 21.5t-55.5 14.5zM340 -130h-80v100h80v-100zM340 530h-80v100h80v-100z" />
    <glyph glyph-name="Euro.taboldstyle" 
d="M54 317h57q19 90 86.5 141.5t170.5 51.5q83 0 178 -39l-18 -115q-80 30 -147 30q-78 0 -105 -69h96v-45h-108q-1 -7 -1 -22q0 -16 1 -23h108v-45h-96q27 -68 105 -68q67 0 147 30l18 -115q-91 -39 -178 -39q-103 0 -170.5 51t-86.5 141h-57v45h51q-1 8 -1 25q0 15 1 20
h-51v45z" />
    <glyph glyph-name="franc.taboldstyle" 
d="M54 317h57q19 90 86.5 141.5t170.5 51.5q83 0 178 -39l-18 -115q-80 30 -147 30q-78 0 -105 -69h96v-45h-108q-1 -7 -1 -22q0 -16 1 -23h108v-45h-96q27 -68 105 -68q67 0 147 30l18 -115q-91 -39 -178 -39q-103 0 -170.5 51t-86.5 141h-57v45h51q-1 8 -1 25q0 15 1 20
h-51v45z" />
    <glyph glyph-name="sterling.taboldstyle" 
d="M359 206h-118v-74h298v-132h-498v132h50v74h-50v89h50v36q0 93 66.5 136t174.5 43q125 0 227 -63l-45 -111q-105 50 -190 50q-46 0 -64.5 -18t-18.5 -42v-31h118v-89z" />
    <glyph glyph-name="yen.taboldstyle" 
d="M396 220h88v-71h-109v-149h-150v149h-109v71h87l-157 280h181l76 -178h2l77 178h172z" />
    <glyph glyph-name="lira.taboldstyle" 
d="M54 317h57q19 90 86.5 141.5t170.5 51.5q83 0 178 -39l-18 -115q-80 30 -147 30q-78 0 -105 -69h96v-45h-108q-1 -7 -1 -22q0 -16 1 -23h108v-45h-96q27 -68 105 -68q67 0 147 30l18 -115q-91 -39 -178 -39q-103 0 -170.5 51t-86.5 141h-57v45h51q-1 8 -1 25q0 15 1 20
h-51v45z" />
    <glyph glyph-name="peseta.taboldstyle" 
d="M54 317h57q19 90 86.5 141.5t170.5 51.5q83 0 178 -39l-18 -115q-80 30 -147 30q-78 0 -105 -69h96v-45h-108q-1 -7 -1 -22q0 -16 1 -23h108v-45h-96q27 -68 105 -68q67 0 147 30l18 -115q-91 -39 -178 -39q-103 0 -170.5 51t-86.5 141h-57v45h51q-1 8 -1 25q0 15 1 20
h-51v45z" />
    <glyph glyph-name="colonmonetary.taboldstyle" 
d="M356 386q-52 0 -85 -34t-33 -102t33 -102t85 -34q67 0 147 30l18 -115q-91 -39 -178 -39q-121 0 -192.5 70.5t-71.5 189.5t71.5 189.5t192.5 70.5q83 0 178 -39l-18 -115q-80 30 -147 30zM311 -130h-80v100h80v-100zM311 530h-80v100h80v-100zM428 -130h-80v100h80v-100z
M428 530h-80v100h80v-100z" />
    <glyph glyph-name="florin.taboldstyle" 
d="M225 -32v426h-64v97l64 9v48q0 78 38 115t126 37q39 0 91 -9l-13 -115q-28 5 -43 5q-27 0 -38 -14.5t-11 -44.5v-22h100v-106h-100v-427q0 -86 -35.5 -131.5t-128.5 -45.5q-39 0 -91 9l13 115q28 -5 43 -5q27 0 38 14.5t11 44.5z" />
    <glyph glyph-name="numbersign.taboldstyle" 
d="M172 500h106l-10 -96h95l10 96h107l-11 -96h100l-10 -98h-100l-12 -112h100l-10 -98h-100l-10 -96h-107l11 96h-95l-11 -96h-106l11 96h-100l10 98h100l12 112h-100l10 98h100zM258 306l-12 -112h95l12 112h-95z" />
    <glyph glyph-name="hyphensuperior" horiz-adv-x="282" 
d="M34 741h214v-62h-214v62z" />
    <glyph glyph-name="commasuperior" horiz-adv-x="165" 
d="M96 465h-62q22 45 22 141h76q0 -98 -36 -141z" />
    <glyph glyph-name="periodsuperior" horiz-adv-x="143" 
d="M34 606h75v-76h-75v76z" />
    <glyph glyph-name="centsuperior" horiz-adv-x="348" 
d="M202 799q-40 0 -62 -26.5t-22 -74.5q0 -49 22 -78t62 -29q41 0 85 32l27 -60q-50 -43 -125 -43q-74 0 -114.5 50.5t-40.5 127.5q0 75 40.5 123.5t114.5 48.5q70 0 125 -42l-27 -61q-44 32 -85 32zM207 440h-40v60h40v-60zM207 890h-40v60h40v-60z" />
    <glyph glyph-name="dollarsuperior" horiz-adv-x="337" 
d="M192 440h-41v60h41v-60zM192 890h-41v60h41v-60zM143 664q-99 28 -99 108q0 50 35.5 74t91.5 24q73 0 122 -34l-31 -62q-49 25 -91 25q-43 0 -43 -27q0 -8 5.5 -14.5t21 -12.5t20.5 -7.5t26 -6.5q102 -25 102 -103q0 -53 -38.5 -80.5t-98.5 -27.5q-84 0 -132 43l35 58
q49 -30 102 -30q47 0 47 32q0 8 -4.5 14t-14 10.5t-17.5 6.5l-21 5.5t-18 4.5z" />
    <glyph glyph-name="hypheninferior" horiz-adv-x="282" 
d="M34 11h214v-62h-214v62z" />
    <glyph glyph-name="commainferior" horiz-adv-x="165" 
d="M96 -265h-62q22 45 22 141h76q0 -98 -36 -141z" />
    <glyph glyph-name="periodinferior" horiz-adv-x="143" 
d="M34 -124h75v-76h-75v76z" />
    <glyph glyph-name="centinferior" horiz-adv-x="348" 
d="M202 69q-40 0 -62 -26.5t-22 -74.5q0 -49 22 -78t62 -29q41 0 85 32l27 -60q-50 -43 -125 -43q-74 0 -114.5 50.5t-40.5 127.5q0 75 40.5 123.5t114.5 48.5q70 0 125 -42l-27 -61q-44 32 -85 32zM207 -290h-40v60h40v-60zM207 160h-40v60h40v-60z" />
    <glyph glyph-name="dollarinferior" horiz-adv-x="337" 
d="M192 -290h-41v60h41v-60zM192 160h-41v60h41v-60zM143 -66q-99 28 -99 108q0 50 35.5 74t91.5 24q73 0 122 -34l-31 -62q-49 25 -91 25q-43 0 -43 -27q0 -8 5.5 -14.5t21 -12.5t20.5 -7.5t26 -6.5q102 -25 102 -103q0 -53 -38.5 -80.5t-98.5 -27.5q-84 0 -132 43l35 58
q49 -30 102 -30q47 0 47 32q0 8 -4.5 14t-14 10.5t-17.5 6.5l-21 5.5t-18 4.5z" />
    <glyph glyph-name="zero.denominator" horiz-adv-x="327" 
d="M164 278q-50 0 -50 -110q0 -116 50 -116q49 0 49 116q0 110 -49 110zM164 -10q-68 0 -99 49t-31 129q0 172 130 172q67 0 98 -47t31 -125q0 -80 -31 -129t-98 -49z" />
    <glyph glyph-name="one.denominator" horiz-adv-x="297" 
d="M25 62h92v197l-64 -26l-19 58q70 23 104 52h55v-281h92v-62h-260v62z" />
    <glyph glyph-name="two.denominator" horiz-adv-x="307" 
d="M133 276q-30 0 -77 -23l-22 58q59 34 121 34q54 0 83.5 -29t29.5 -75q0 -49 -32 -88.5t-96 -84.5v-1h133v-67h-239v71q89 56 121.5 90.5t32.5 64.5q0 50 -55 50z" />
    <glyph glyph-name="three.denominator" horiz-adv-x="317" 
d="M216 174q67 -20 67 -85q0 -48 -33.5 -73.5t-94.5 -25.5q-68 0 -121 33l22 58q62 -29 98 -29q25 0 38 12t13 28q0 23 -14 32.5t-45 9.5h-46v62h42q55 0 55 45q0 16 -10.5 26.5t-28.5 10.5q-11 0 -20.5 -1.5t-20.5 -5t-16.5 -6l-19.5 -8.5t-18 -8l-22 57q59 34 123 34
q47 0 78 -23.5t31 -66.5q0 -54 -57 -76z" />
    <glyph glyph-name="four.denominator" horiz-adv-x="337" 
d="M111 136h75v106q-36 -58 -75 -106zM168 340h93v-204h42v-62h-42v-74h-75v74h-152v62q83 90 134 204z" />
    <glyph glyph-name="five.denominator" horiz-adv-x="317" 
d="M154 -10q-58 0 -120 34l22 58q62 -30 95 -30q22 0 37 14t15 38q0 21 -11.5 36.5t-36.5 15.5q-29 0 -48 -20l-54 5l6 194h204v-67h-139l-3 -66l1 -1q27 20 60 20q46 0 73.5 -29t27.5 -83t-35 -86.5t-94 -32.5z" />
    <glyph glyph-name="six.denominator" horiz-adv-x="317" 
d="M109 192h1q27 30 68 30q49 0 77 -30.5t28 -86.5q0 -53 -33.5 -84t-87.5 -31q-64 0 -96 44.5t-32 110.5q0 195 151 195q42 0 87 -19l-9 -58q-39 15 -71 15q-33 0 -58 -22t-25 -64zM115 137q-8 -85 43 -85q20 0 32.5 14t12.5 39q0 52 -45 52q-21 0 -43 -20z" />
    <glyph glyph-name="seven.denominator" horiz-adv-x="312" 
d="M196 272v1h-162v67h244v-54l-48.5 -87.5t-35 -83t-30.5 -115.5h-80q25 142 112 272z" />
    <glyph glyph-name="eight.denominator" horiz-adv-x="327" 
d="M229 175q64 -38 64 -87t-38 -73.5t-94 -24.5q-54 0 -90.5 22.5t-36.5 68.5q0 56 63 82q-53 30 -53 84q0 45 35.5 69t85.5 24q48 0 83 -23.5t35 -65.5q0 -47 -54 -76zM112 88q0 -20 15 -31t39 -11q48 0 50 36q0 18 -15.5 29.5t-48.5 23.5q-40 -16 -40 -47zM163 285
q-18 0 -31 -10t-13 -26q0 -34 54 -47q34 14 34 43q0 18 -12.5 29t-31.5 11z" />
    <glyph glyph-name="nine.denominator" horiz-adv-x="317" 
d="M207 138h-1q-27 -30 -68 -30q-48 0 -76 30.5t-28 86.5q0 53 33 84t88 31q64 0 96 -44.5t32 -110.5q0 -195 -151 -195q-42 0 -87 19l9 58q37 -15 71 -15q33 0 58 22t24 64zM201 193q10 85 -43 85q-19 0 -31.5 -14t-12.5 -39q0 -52 45 -52q22 0 42 20z" />
    <glyph glyph-name="parenleft.denominator" horiz-adv-x="206" 
d="M34 160q0 136 89 240h49q-63 -113 -63 -240q0 -121 63 -240h-49q-89 104 -89 240z" />
    <glyph glyph-name="parenright.denominator" horiz-adv-x="206" 
d="M172 160q0 -134 -89 -240h-49q62 115 62 240q0 131 -62 240h49q89 -106 89 -240z" />
    <glyph glyph-name="cent.denominator" horiz-adv-x="348" 
d="M202 269q-40 0 -62 -26.5t-22 -74.5q0 -49 22 -78t62 -29q41 0 85 32l27 -60q-50 -43 -125 -43q-74 0 -114.5 50.5t-40.5 127.5q0 75 40.5 123.5t114.5 48.5q70 0 125 -42l-27 -61q-44 32 -85 32zM207 -90h-40v60h40v-60zM207 360h-40v60h40v-60z" />
    <glyph glyph-name="dollar.denominator" horiz-adv-x="337" 
d="M192 -90h-41v60h41v-60zM192 360h-41v60h41v-60zM143 134q-99 28 -99 108q0 50 35.5 74t91.5 24q73 0 122 -34l-31 -62q-49 25 -91 25q-43 0 -43 -27q0 -8 5.5 -14.5t21 -12.5t20.5 -7.5t26 -6.5q102 -25 102 -103q0 -53 -38.5 -80.5t-98.5 -27.5q-84 0 -132 43l35 58
q49 -30 102 -30q47 0 47 32q0 8 -4.5 14t-14 10.5t-17.5 6.5l-21 5.5t-18 4.5z" />
    <glyph glyph-name="hyphen.denominator" horiz-adv-x="282" 
d="M34 211h214v-62h-214v62z" />
    <glyph glyph-name="comma.denominator" horiz-adv-x="165" 
d="M96 -65h-62q22 45 22 141h76q0 -98 -36 -141z" />
    <glyph glyph-name="period.denominator" horiz-adv-x="143" 
d="M34 76h75v-76h-75v76z" />
    <glyph glyph-name="zero.numerator" horiz-adv-x="327" 
d="M164 608q-50 0 -50 -110q0 -116 50 -116q49 0 49 116q0 110 -49 110zM164 320q-68 0 -99 49t-31 129q0 172 130 172q67 0 98 -47t31 -125q0 -80 -31 -129t-98 -49z" />
    <glyph glyph-name="one.numerator" horiz-adv-x="297" 
d="M25 392h92v197l-64 -26l-19 58q70 23 104 52h55v-281h92v-62h-260v62z" />
    <glyph glyph-name="two.numerator" horiz-adv-x="307" 
d="M133 606q-30 0 -77 -23l-22 58q59 34 121 34q54 0 83.5 -29t29.5 -75q0 -49 -32 -88.5t-96 -84.5v-1h133v-67h-239v71q89 56 121.5 90.5t32.5 64.5q0 50 -55 50z" />
    <glyph glyph-name="three.numerator" horiz-adv-x="317" 
d="M216 504q67 -20 67 -85q0 -48 -33.5 -73.5t-94.5 -25.5q-68 0 -121 33l22 58q62 -29 98 -29q25 0 38 12t13 28q0 23 -14 32.5t-45 9.5h-46v62h42q55 0 55 45q0 16 -10.5 26.5t-28.5 10.5q-11 0 -20.5 -1.5t-20.5 -5t-16.5 -6l-19.5 -8.5t-18 -8l-22 57q59 34 123 34
q47 0 78 -23.5t31 -66.5q0 -54 -57 -76z" />
    <glyph glyph-name="four.numerator" horiz-adv-x="337" 
d="M111 466h75v106q-36 -58 -75 -106zM168 670h93v-204h42v-62h-42v-74h-75v74h-152v62q83 90 134 204z" />
    <glyph glyph-name="five.numerator" horiz-adv-x="317" 
d="M154 320q-58 0 -120 34l22 58q62 -30 95 -30q22 0 37 14t15 38q0 21 -11.5 36.5t-36.5 15.5q-29 0 -48 -20l-54 5l6 194h204v-67h-139l-3 -66l1 -1q27 20 60 20q46 0 73.5 -29t27.5 -83t-35 -86.5t-94 -32.5z" />
    <glyph glyph-name="six.numerator" horiz-adv-x="317" 
d="M109 522h1q27 30 68 30q49 0 77 -30.5t28 -86.5q0 -53 -33.5 -84t-87.5 -31q-64 0 -96 44.5t-32 110.5q0 195 151 195q42 0 87 -19l-9 -58q-39 15 -71 15q-33 0 -58 -22t-25 -64zM115 467q-8 -85 43 -85q20 0 32.5 14t12.5 39q0 52 -45 52q-21 0 -43 -20z" />
    <glyph glyph-name="seven.numerator" horiz-adv-x="312" 
d="M196 602v1h-162v67h244v-54l-48.5 -87.5t-35 -83t-30.5 -115.5h-80q25 142 112 272z" />
    <glyph glyph-name="eight.numerator" horiz-adv-x="327" 
d="M229 505q64 -38 64 -87t-38 -73.5t-94 -24.5q-54 0 -90.5 22.5t-36.5 68.5q0 56 63 82q-53 30 -53 84q0 45 35.5 69t85.5 24q48 0 83 -23.5t35 -65.5q0 -47 -54 -76zM112 418q0 -20 15 -31t39 -11q48 0 50 36q0 18 -15.5 29.5t-48.5 23.5q-40 -16 -40 -47zM163 615
q-18 0 -31 -10t-13 -26q0 -34 54 -47q34 14 34 43q0 18 -12.5 29t-31.5 11z" />
    <glyph glyph-name="nine.numerator" horiz-adv-x="317" 
d="M207 468h-1q-27 -30 -68 -30q-48 0 -76 30.5t-28 86.5q0 53 33 84t88 31q64 0 96 -44.5t32 -110.5q0 -195 -151 -195q-42 0 -87 19l9 58q38 -15 71 -15t58 22t24 64zM201 523q10 85 -43 85q-19 0 -31.5 -14t-12.5 -39q0 -52 45 -52q22 0 42 20z" />
    <glyph glyph-name="parenleft.numerator" horiz-adv-x="206" 
d="M34 490q0 136 89 240h49q-63 -113 -63 -240q0 -121 63 -240h-49q-89 104 -89 240z" />
    <glyph glyph-name="parenright.numerator" horiz-adv-x="206" 
d="M172 490q0 -134 -89 -240h-49q62 115 62 240q0 131 -62 240h49q89 -106 89 -240z" />
    <glyph glyph-name="cent.numerator" horiz-adv-x="348" 
d="M202 599q-40 0 -62 -26.5t-22 -74.5q0 -49 22 -78t62 -29q41 0 85 32l27 -60q-50 -43 -125 -43q-74 0 -114.5 50.5t-40.5 127.5q0 75 40.5 123.5t114.5 48.5q70 0 125 -42l-27 -61q-44 32 -85 32zM207 240h-40v60h40v-60zM207 690h-40v60h40v-60z" />
    <glyph glyph-name="dollar.numerator" horiz-adv-x="337" 
d="M192 240h-41v60h41v-60zM192 690h-41v60h41v-60zM143 464q-99 28 -99 108q0 50 35.5 74t91.5 24q73 0 122 -34l-31 -62q-49 25 -91 25q-43 0 -43 -27q0 -8 5.5 -14.5t21 -12.5t20.5 -7.5t26 -6.5q102 -25 102 -103q0 -53 -38.5 -80.5t-98.5 -27.5q-84 0 -132 43l35 58
q49 -30 102 -30q47 0 47 32q0 8 -4.5 14t-14 10.5t-17.5 6.5l-21 5.5t-18 4.5z" />
    <glyph glyph-name="hyphen.numerator" horiz-adv-x="282" 
d="M34 541h214v-62h-214v62z" />
    <glyph glyph-name="comma.numerator" horiz-adv-x="165" 
d="M96 265h-62q22 45 22 141h76q0 -98 -36 -141z" />
    <glyph glyph-name="period.numerator" horiz-adv-x="143" 
d="M34 406h75v-76h-75v76z" />
    <glyph glyph-name="exclamsmall" horiz-adv-x="222" 
d="M36 152h150v-152h-150v152zM36 580h150l-9 -361h-132z" />
    <glyph glyph-name="exclamdownsmall" horiz-adv-x="222" 
d="M186 427h-150v153h150v-153zM186 0h-150l9 361h132z" />
    <glyph glyph-name="at.cap" horiz-adv-x="830" 
d="M585 411v-179q62 0 92 52.5t30 117.5q0 110 -78 178t-194 68q-138 0 -224.5 -87.5t-86.5 -227.5q0 -124 80.5 -207.5t203.5 -83.5l-9 -82q-161 0 -265 106t-104 267q0 174 114.5 286.5t289.5 112.5q154 0 260 -91.5t106 -234.5q0 -112 -63 -186t-177 -74h-93v39h-1
q-42 -46 -111 -46q-56 0 -87.5 34.5t-31.5 86.5q0 67 49 95t115 28h67v21q0 48 -63 48q-49 0 -129 -23l-21 79q102 33 180 33q73 0 112 -29.5t39 -100.5zM467 247v68h-62q-51 0 -51 -45q0 -21 13.5 -31.5t33.5 -10.5q41 0 66 19z" />
    <glyph glyph-name="parenleft.cap" horiz-adv-x="330" 
d="M38 340q0 128 45 252.5t133 227.5h98q-126 -220 -126 -480q0 -247 126 -480h-98q-87 103 -132.5 228.5t-45.5 251.5z" />
    <glyph glyph-name="parenright.cap" horiz-adv-x="330" 
d="M292 340q0 -126 -45.5 -251.5t-132.5 -228.5h-98q126 233 126 480q0 260 -126 480h98q88 -103 133 -227.5t45 -252.5z" />
    <glyph glyph-name="bracketleft.cap" horiz-adv-x="300" 
d="M195 -51h89v-89h-248v960h248v-89h-89v-782z" />
    <glyph glyph-name="bracketright.cap" horiz-adv-x="300" 
d="M16 -51h89v782h-89v89h248v-960h-248v89z" />
    <glyph glyph-name="braceleft.cap" horiz-adv-x="340" 
d="M255 17q0 -34 4 -54t15 -28.5t20.5 -10.5t29.5 -2v-62q-45 0 -71.5 1.5t-60 9.5t-52 22.5t-31.5 43t-13 69.5q0 31 5 95.5t5 93.5q0 30 -1 43.5t-7.5 30t-21 24t-40.5 11.5v72q26 4 40.5 11.5t21 24t7.5 30t1 43.5q0 29 -5 93.5t-5 95.5q0 41 13 69t31.5 43t52 23
t60.5 9.5t71 1.5v-63q-20 0 -29 -1.5t-20.5 -10t-15.5 -29t-4 -54.5q0 -30 6.5 -101t6.5 -102q0 -54 -26.5 -79t-78.5 -39v-2q52 -14 78.5 -39t26.5 -79q0 -31 -6.5 -102.5t-6.5 -101.5z" />
    <glyph glyph-name="braceright.cap" horiz-adv-x="340" 
d="M85 662q0 34 -4 54.5t-15.5 29t-20.5 10t-29 1.5v63q44 0 71 -1.5t60.5 -9.5t52 -23t31.5 -43t13 -69q0 -31 -5 -95.5t-5 -93.5q0 -30 1 -43.5t7.5 -30t21 -24t40.5 -11.5v-72q-26 -4 -40.5 -11.5t-21 -24t-7.5 -30t-1 -43.5q0 -29 5 -93.5t5 -95.5q0 -41 -13 -69.5
t-31.5 -43t-52.5 -22.5t-60.5 -9.5t-70.5 -1.5v62q20 0 29.5 2t20.5 10.5t15 28.5t4 54q0 30 -7 101.5t-7 102.5q0 54 27 79t79 39v2q-52 14 -79 39t-27 79q0 31 7 102t7 101z" />
    <glyph glyph-name="exclamdown.cap" horiz-adv-x="222" 
d="M36 152h150v-152h-150v152zM36 680h150l-9 -461h-132z" />
    <glyph glyph-name="questiondown.cap" horiz-adv-x="480" 
d="M236 -10q-60 0 -104 17.5t-65.5 46.5t-31 59t-9.5 63q0 46 17 81.5t41.5 57.5t49 40.5t41.5 39.5t17 45v30h133v-30q0 -46 -15 -80.5t-36 -55t-42 -37t-36 -35t-15 -40.5q0 -61 86 -61q58 0 144 27l43 -128q-94 -40 -218 -40zM334 527h-150v153h150v-153z" />
    <glyph glyph-name="guillemotleft.cap" horiz-adv-x="714" 
d="M36 334l308 170v-133l-149 -81l149 -81v-133l-308 170v88zM370 334l307 170v-133l-148 -81l148 -81v-133l-307 170v88z" />
    <glyph glyph-name="guillemotright.cap" horiz-adv-x="714" 
d="M370 504l307 -170v-88l-307 -170v133l149 81l-149 81v133zM36 504l308 -170v-88l-308 -170v133l149 81l-149 81v133z" />
    <glyph glyph-name="guilsinglleft.cap" horiz-adv-x="380" 
d="M36 334l308 170v-133l-149 -81l149 -81v-133l-308 170v88z" />
    <glyph glyph-name="guilsinglright.cap" horiz-adv-x="380" 
d="M344 246l-308 -170v133l149 81l-149 81v133l308 -170v-88z" />
    <glyph glyph-name="hyphen.cap" horiz-adv-x="500" 
d="M36 367h428v-124h-428v124z" />
    <glyph glyph-name="endash.cap" horiz-adv-x="699" 
d="M36 367h626v-124h-626v124z" />
    <glyph glyph-name="emdash.cap" horiz-adv-x="760" 
d="M36 367h688v-124h-688v124z" />
    <glyph glyph-name="periodcentered.cap" horiz-adv-x="245" 
d="M56 377h133v-135h-133v135z" />
    <glyph glyph-name="questiondownsmall" horiz-adv-x="480" 
d="M236 0q-114 0 -162 45.5t-48 110.5q0 39 12.5 68t30.5 44t40 28t40 22t30.5 24.5t12.5 36.5v21h133v-30q0 -46 -15 -75.5t-36 -42t-42 -21t-36 -21t-15 -32.5q0 -46 86 -46q62 0 153 36l34 -111q-43 -23 -104.5 -40t-113.5 -17zM334 457h-150v153h150v-153z" />
    <glyph glyph-name="percent.oldstyle" horiz-adv-x="760" 
d="M614 580l-370 -580h-98l370 580h98zM180 288q-70 0 -108 40t-38 110q0 71 38 111t108 40q71 0 109 -40t38 -111q0 -70 -38 -110t-109 -40zM180 363q54 0 54 75q0 76 -54 76q-53 0 -53 -76q0 -75 53 -75zM580 -9q-71 0 -109 40t-38 111q0 70 38 110t109 40q70 0 108 -40
t38 -110q0 -71 -38 -111t-108 -40zM580 66q53 0 53 76q0 75 -53 75q-54 0 -54 -75q0 -76 54 -76z" />
    <glyph glyph-name="perthousand.oldstyle" horiz-adv-x="1095" 
d="M580 -9q-71 0 -109 40t-38 111q0 70 38 110t109 40q70 0 108 -40t38 -110q0 -71 -38 -111t-108 -40zM580 66q53 0 53 76q0 75 -53 75q-54 0 -54 -75q0 -76 54 -76zM915 -9q-71 0 -109 40t-38 111q0 70 38 110t109 40q70 0 108 -40t38 -110q0 -71 -38 -111t-108 -40z
M915 66q53 0 53 76q0 75 -53 75q-54 0 -54 -75q0 -76 54 -76zM614 580l-370 -580h-98l370 580h98zM180 288q-70 0 -108 40t-38 110q0 71 38 111t108 40q71 0 109 -40t38 -111q0 -70 -38 -110t-109 -40zM180 363q54 0 54 75q0 76 -54 76q-53 0 -53 -76q0 -75 53 -75z" />
    <glyph glyph-name="threequartersemdash" horiz-adv-x="760" 
d="M36 327h688v-124h-688v124z" />
    <glyph glyph-name="overscore" horiz-adv-x="437" 
d="M52 665h333v-89h-333v89z" />
    <glyph glyph-name="ampersand.alt" horiz-adv-x="840" 
d="M531 197h-244q-75 0 -75 -41q0 -42 79 -42q70 0 148 30l18 -115q-94 -39 -197 -39q-105 0 -164.5 36.5t-59.5 103.5q0 101 126 123v2q-48 12 -77 43.5t-29 81.5q0 130 214 130q106 0 187 -39l-17 -115q-78 30 -148 30q-77 0 -77 -41q0 -17 17.5 -29t54.5 -12h244l18 196
h132v-196h118v-93h-118v-43q0 -59 66 -59q16 0 43 5l14 -115q-52 -9 -109 -9q-88 0 -126 37t-38 115v55z" />
    </font>
</defs>
</svg>
