<?xml version="1.0" standalone="no"?>
<!DOCTYPE svg PUBLIC "-//W3C//DTD SVG 1.1//EN" "http://www.w3.org/Graphics/SVG/1.1/DTD/svg11.dtd" >
<svg>
<metadata>
Created by FontForge 20090622 at Wed Jul  1 12:36:47 2015
 By deploy user
Copyright (c) 2008 by Dino dos Santos _DSType. All rights reserved.
</metadata>
<defs>
<font id="Prelo-Light" horiz-adv-x="600" >
  <font-face 
    font-family="Prelo Light"
    font-weight="300"
    font-stretch="normal"
    units-per-em="1000"
    panose-1="2 0 5 6 4 0 0 2 0 4"
    ascent="750"
    descent="-250"
    x-height="500"
    cap-height="680"
    bbox="-88 -290 1019 950"
    underline-thickness="50"
    underline-position="-50"
    unicode-range="U+0020-U+FB06"
  />
<missing-glyph horiz-adv-x="590" 
d="M70 500h450v-500h-450v500zM287 249l-206 236v-469zM304 249l205 -231v465zM93 488l203 -229l202 229h-405zM296 240l-201 -228h401z" />
    <glyph glyph-name=".notdef" horiz-adv-x="590" 
d="M70 500h450v-500h-450v500zM287 249l-206 236v-469zM304 249l205 -231v465zM93 488l203 -229l202 229h-405zM296 240l-201 -228h401z" />
    <glyph glyph-name=".null" horiz-adv-x="0" 
 />
    <glyph glyph-name="nonmarkingreturn" horiz-adv-x="333" 
 />
    <glyph glyph-name="space" unicode=" " horiz-adv-x="180" 
 />
    <glyph glyph-name="exclam" unicode="!" horiz-adv-x="185" 
d="M67 115h50v-115h-50v115zM67 680h50l-2 -468h-45z" />
    <glyph glyph-name="quotedbl" unicode="&#x22;" horiz-adv-x="385" 
d="M67 680h50l-5 -118h-40zM267 680h50l-5 -118h-40z" />
    <glyph glyph-name="numbersign" unicode="#" horiz-adv-x="605" 
d="M207 500h37l-14 -128h170l14 128h38l-14 -128h100l-4 -35h-100l-18 -175h100l-4 -35h-100l-13 -127h-38l14 127h-170l-14 -127h-37l13 127h-100l4 35h100l18 175h-100l4 35h100zM227 337l-19 -175h170l19 175h-170z" />
    <glyph glyph-name="dollar" unicode="$" 
d="M314 -100h-25v90q-121 3 -222 32l10 45q114 -30 223 -30q91 0 134 41.5t43 98.5q0 29 -14 52.5t-32 38t-47.5 26.5t-46 17t-42.5 11q-92 23 -155 71.5t-63 126.5q0 84 57.5 126t154.5 44v90h25v-90q104 -4 206 -33l-12 -45q-112 30 -208 30q-168 0 -168 -123
q0 -104 195 -152q205 -45 205 -187q0 -88 -60 -137.5t-158 -52.5v-90z" />
    <glyph glyph-name="percent" unicode="%" horiz-adv-x="760" 
d="M582 680l-370 -680h-35l370 680h35zM181 418q-62 0 -95.5 35.5t-33.5 96.5q0 62 33.5 97t95.5 35t95.5 -35t33.5 -97t-33.5 -97t-95.5 -35zM181 446q96 0 96 104t-96 104q-95 0 -95 -104t95 -104zM578 -3q-62 0 -95.5 35.5t-33.5 97.5q0 61 33.5 96.5t95.5 35.5t95.5 -35
t33.5 -97t-33.5 -97.5t-95.5 -35.5zM578 26q96 0 96 104q0 103 -96 103q-95 0 -95 -103q0 -104 95 -104z" />
    <glyph glyph-name="ampersand" unicode="&#x26;" horiz-adv-x="705" 
d="M487 545q0 -51 -38.5 -95.5t-137.5 -90.5l215 -213q65 78 84 204h47q-19 -145 -99 -238l89 -92l-33 -36l-91 95q-94 -89 -238 -89q-108 0 -164.5 48.5t-56.5 130.5q0 61 38.5 107.5t136.5 90.5q-1 1 -17.5 19t-21.5 24.5l-18.5 24.5t-18.5 30.5t-10.5 31t-5.5 36.5
q0 77 52.5 117t125.5 40q75 0 118.5 -38t43.5 -107zM295 34q118 0 197 78l-226 228q-72 -32 -111 -68t-39 -96q0 -23 7.5 -45t25.5 -45t55.5 -37.5t90.5 -14.5zM196 536q0 -39 20.5 -71t64.5 -77q73 32 115.5 70t42.5 88q0 34 -13 57.5t-34 33.5t-37 13.5t-31 3.5
q-38 0 -65.5 -13t-40 -33.5t-17.5 -38t-5 -33.5z" />
    <glyph glyph-name="quotesingle" unicode="'" horiz-adv-x="185" 
d="M67 680h50l-5 -118h-40z" />
    <glyph glyph-name="parenleft" unicode="(" horiz-adv-x="330" 
d="M79 340q0 122 44.5 248t123.5 232h35q-153 -247 -153 -480q0 -230 153 -480h-35q-79 106 -123.5 232t-44.5 248z" />
    <glyph glyph-name="parenright" unicode=")" horiz-adv-x="330" 
d="M251 340q0 -121 -45 -247.5t-124 -232.5h-35q154 249 154 480q0 234 -154 480h35q79 -107 124 -232.5t45 -247.5z" />
    <glyph glyph-name="asterisk" unicode="*" horiz-adv-x="420" 
d="M198 548l-4 132h32l-3 -132l142 35l10 -31l-146 -25l95 -119l-25 -19l-90 125l-88 -125l-25 19l94 119l-145 25l9 31z" />
    <glyph glyph-name="plus" unicode="+" horiz-adv-x="500" 
d="M271 447v-161h161v-42h-161v-162h-42v162h-162v42h162v161h42z" />
    <glyph glyph-name="comma" unicode="," horiz-adv-x="185" 
d="M90 -130h-20l15 130h-18v115h50v-115z" />
    <glyph glyph-name="hyphen" unicode="-" horiz-adv-x="500" 
d="M67 286h365v-42h-365v42z" />
    <glyph glyph-name="period" unicode="." horiz-adv-x="185" 
d="M67 115h50v-115h-50v115z" />
    <glyph glyph-name="slash" unicode="/" horiz-adv-x="540" 
d="M477 680l-370 -680h-45l370 680h45z" />
    <glyph glyph-name="zero" unicode="0" horiz-adv-x="590" 
d="M295 647q-175 0 -175 -302q0 -313 175 -313t175 313q0 302 -175 302zM295 -10q-228 0 -228 355q0 345 228 345q65 0 111 -27t70.5 -76.5t35 -108t10.5 -133.5q0 -355 -227 -355z" />
    <glyph glyph-name="one" unicode="1" horiz-adv-x="361" 
d="M238 622l-191 -110l-15 43q149 76 221 130h35v-685h-50v622z" />
    <glyph glyph-name="two" unicode="2" horiz-adv-x="550" 
d="M260 644q-87 0 -177 -45l-16 41q108 50 203 50q100 0 151 -57t51 -142q0 -106 -81 -214.5t-252 -229.5v-2h343v-45h-415v51q353 239 353 428q0 42 -12.5 73.5t-30 48.5t-41 27t-41.5 13t-35 3z" />
    <glyph glyph-name="three" unicode="3" horiz-adv-x="570" 
d="M343 346v-2q73 -11 116 -56.5t43 -112.5q0 -89 -56.5 -137t-169.5 -48q-127 0 -209 46l17 39q82 -43 190 -43q46 0 80.5 11t52.5 26.5t28.5 37t13 37.5t2.5 33q0 63 -47.5 102.5t-143.5 39.5h-80v42h78q82 0 128.5 44t46.5 104q0 22 -6 43t-21.5 44t-49.5 37t-82 14
q-89 0 -172 -43l-16 40q86 46 195 46q97 0 149 -47t52 -130q0 -63 -39.5 -106.5t-99.5 -60.5z" />
    <glyph glyph-name="four" unicode="4" horiz-adv-x="590" 
d="M110 235h270v379h-2q-86 -174 -268 -379zM366 680h64v-445h102v-43h-102v-192h-50v192h-323v43q215 234 309 445z" />
    <glyph glyph-name="five" unicode="5" horiz-adv-x="570" 
d="M270 -10q-101 0 -203 50l16 39q91 -47 184 -47q83 0 133 48t50 132q0 69 -38 119t-122 50q-93 0 -153 -84l-39 4l19 379h345v-45h-301l-18 -290l2 -1q62 81 160 81q93 0 145 -56t52 -154q0 -107 -62.5 -166t-169.5 -59z" />
    <glyph glyph-name="six" unicode="6" horiz-adv-x="570" 
d="M117 350l2 -1q72 106 177 106q98 0 152 -61.5t54 -173.5q0 -106 -59 -168t-150 -62q-226 0 -226 310q0 207 74.5 298.5t197.5 91.5q65 0 142 -23l-7 -40q-69 20 -131 20q-53 0 -94.5 -22.5t-64.5 -54.5t-39 -75t-21.5 -77t-6.5 -68zM121 305q-8 -273 168 -273
q67 0 114 50t47 138q0 35 -7 65.5t-24.5 60.5t-52 47.5t-82.5 17.5t-90.5 -29.5t-72.5 -76.5z" />
    <glyph glyph-name="seven" unicode="7" horiz-adv-x="500" 
d="M387 633v2h-330v45h385v-38q-223 -361 -270 -642h-55q21 139 101.5 320t168.5 313z" />
    <glyph glyph-name="eight" unicode="8" horiz-adv-x="590" 
d="M343 359v-2q86 -34 132.5 -76t46.5 -110q0 -84 -60 -132.5t-168 -48.5t-167.5 47.5t-59.5 129.5q0 69 48.5 112t130.5 72v2q-75 27 -117 67t-42 104q0 76 57.5 121t151.5 45q92 0 149 -44.5t57 -119.5q0 -62 -39.5 -98.5t-119.5 -68.5zM119 171q0 -61 42 -101.5
t135 -40.5q92 0 133.5 39t41.5 99q0 28 -11.5 51.5t-27 38.5t-43.5 30.5t-47.5 24t-53.5 20.5q-76 -26 -122.5 -63t-46.5 -98zM294 651q-25 0 -49.5 -5.5t-50 -18.5t-41.5 -39.5t-16 -63.5q0 -101 163 -146q73 25 112.5 57.5t39.5 85.5q0 37 -16 64.5t-41.5 40.5t-50.5 19
t-50 6z" />
    <glyph glyph-name="nine" unicode="9" horiz-adv-x="570" 
d="M452 329l-2 1q-33 -48 -78.5 -76.5t-97.5 -28.5q-98 0 -152.5 61.5t-54.5 173.5q0 105 59.5 167.5t150.5 62.5q225 0 225 -310q0 -107 -21 -185t-59.5 -121.5t-85.5 -63.5t-105 -20q-64 0 -143 23l8 39q74 -20 131 -20q53 0 94.5 22t64.5 54.5t38.5 75.5t21 77.5
t6.5 67.5zM449 375q2 58 -4.5 102.5t-23.5 85t-52.5 62.5t-87.5 22q-67 0 -114 -49.5t-47 -137.5q0 -35 7 -65.5t24.5 -60.5t52 -47.5t82.5 -17.5q47 0 90 29.5t73 76.5z" />
    <glyph glyph-name="colon" unicode=":" horiz-adv-x="185" 
d="M67 115h50v-115h-50v115zM67 460h50v-115h-50v115z" />
    <glyph glyph-name="semicolon" unicode=";" horiz-adv-x="185" 
d="M90 -130h-20l15 130h-18v115h50v-115zM67 460h50v-115h-50v115z" />
    <glyph glyph-name="less" unicode="&#x3c;" horiz-adv-x="380" 
d="M67 266l245 164v-47l-192 -133l192 -134v-46l-245 164v32z" />
    <glyph glyph-name="equal" unicode="=" horiz-adv-x="500" 
d="M67 386h365v-42h-365v42zM67 186h365v-42h-365v42z" />
    <glyph glyph-name="greater" unicode="&#x3e;" horiz-adv-x="380" 
d="M312 234l-245 -167v47l193 136l-193 136v46l245 -166v-32z" />
    <glyph glyph-name="question" unicode="?" horiz-adv-x="480" 
d="M237 690q101 0 143 -49t42 -119q0 -51 -20.5 -88.5t-49 -59t-57.5 -39.5t-49.5 -41.5t-20.5 -53.5v-30h-45v30q0 37 19.5 65t48 47.5l56.5 39.5t47.5 52t19.5 74q0 124 -146 124q-66 0 -153 -34l-15 44q98 38 180 38zM177 115h50v-115h-50v115z" />
    <glyph glyph-name="at" unicode="@" horiz-adv-x="830" 
d="M553 334v-236q49 0 88 15.5t61.5 39.5t37.5 55.5t20.5 60t5.5 56.5q0 132 -96.5 214t-235.5 82q-162 0 -266 -102t-104 -266q0 -150 95.5 -246.5t242.5 -96.5l-3 -30q-161 0 -265 106t-104 267q0 174 114.5 286.5t289.5 112.5q154 0 260 -91.5t106 -234.5
q0 -112 -65 -186t-184 -74h-38v39h-2q-53 -46 -129 -46q-59 0 -93.5 28.5t-34.5 80.5q0 118 164 118h95v46q0 48 -22.5 72t-77.5 24q-58 0 -127 -21l-9 29q77 25 145 25q66 0 98.5 -28.5t32.5 -98.5zM513 133v126h-94q-69 0 -96.5 -22.5t-27.5 -65.5q0 -37 25.5 -58.5
t74.5 -21.5q69 0 118 42z" />
    <glyph glyph-name="A" unicode="A" horiz-adv-x="650" 
d="M544 0l-67 191h-304l-70 -191h-56l249 685h65l241 -685h-58zM328 620h-2l-141 -384h281z" />
    <glyph glyph-name="B" unicode="B" horiz-adv-x="610" 
d="M413 348v-2q67 -13 103 -57.5t36 -109.5q0 -84 -49.5 -131.5t-142.5 -47.5h-283v680h263q93 0 142.5 -47t49.5 -124q0 -62 -30.5 -104t-88.5 -57zM337 322h-207v-275h222q70 0 107.5 35t37.5 103q0 65 -40.5 101t-119.5 36zM477 501q0 61 -37 96t-105 35h-205v-262h205
q142 0 142 131z" />
    <glyph glyph-name="C" unicode="C" horiz-adv-x="620" 
d="M67 345q0 60 7 108t26 93.5t49.5 76t80 49t115.5 18.5q113 0 225 -33l-12 -45q-121 30 -209 30q-68 0 -114.5 -23.5t-70 -67.5t-33 -93t-9.5 -113q0 -68 9.5 -119t33 -96t70 -69t114.5 -24q88 0 209 30l12 -45q-113 -32 -225 -32q-66 0 -115.5 18.5t-80 50t-49.5 78
t-26 96.5t-7 112z" />
    <glyph glyph-name="D" unicode="D" horiz-adv-x="650" 
d="M309 0h-232v680h232q273 0 273 -335q0 -345 -273 -345zM130 47h179q218 0 218 298q0 63 -9.5 111t-33 89.5t-67.5 64t-108 22.5h-179v-585z" />
    <glyph glyph-name="E" unicode="E" horiz-adv-x="560" 
d="M487 680v-48h-357v-255h312v-47h-312v-283h362v-47h-415v680h410z" />
    <glyph glyph-name="F" unicode="F" horiz-adv-x="535" 
d="M477 680v-48h-347v-275h302v-47h-302v-310h-53v680h400z" />
    <glyph glyph-name="G" unicode="G" horiz-adv-x="640" 
d="M345 -10q-66 0 -115.5 18.5t-80 50t-49.5 78t-26 96.5t-7 112q0 60 7 108t26 93.5t49.5 76t80 49t115.5 18.5q107 0 217 -33l-12 -45q-120 30 -201 30q-68 0 -114.5 -23.5t-70 -67.5t-33 -93t-9.5 -113q0 -68 9.5 -119t33 -96t70 -69t114.5 -24q87 0 161 49v201h-155v48
h207v-284q-109 -61 -217 -61z" />
    <glyph glyph-name="H" unicode="H" horiz-adv-x="640" 
d="M130 0h-53v680h53v-303h380v303h52v-680h-52v330h-380v-330z" />
    <glyph glyph-name="I" unicode="I" horiz-adv-x="207" 
d="M130 0h-53v680h53v-680z" />
    <glyph glyph-name="J" unicode="J" horiz-adv-x="317" 
d="M240 680v-520q0 -94 -34.5 -132t-105.5 -38q-42 0 -79 6l5 45q32 -5 61 -5q55 0 77.5 30t22.5 97v517h53z" />
    <glyph glyph-name="K" unicode="K" horiz-adv-x="619" 
d="M130 680v-396l367 396h63l-252 -278l259 -402h-66l-232 360l-139 -148v-212h-53v680h53z" />
    <glyph glyph-name="L" unicode="L" horiz-adv-x="540" 
d="M77 680h53v-633h352v-47h-405v680z" />
    <glyph glyph-name="M" unicode="M" horiz-adv-x="800" 
d="M145 680l255 -593h2l253 593h67v-680h-52v577h-2l-249 -577h-40l-248 577h-2v-577h-52v680h68z" />
    <glyph glyph-name="N" unicode="N" horiz-adv-x="650" 
d="M129 0h-52v680h53l389 -582h2v582h51v-680h-52l-389 577h-2v-577z" />
    <glyph glyph-name="O" unicode="O" horiz-adv-x="690" 
d="M345 645q-69 0 -115 -24t-68.5 -69t-31 -93.5t-8.5 -113.5q0 -51 4.5 -92t19 -83.5t38.5 -70.5t65 -46t96 -18t96 18t64.5 46t38 70.5t19 83.5t4.5 92t-4.5 91t-18.5 81t-38 67.5t-65 43.5t-96 17zM345 -10q-66 0 -115.5 19t-80 50.5t-49.5 78.5t-26 96.5t-7 110.5
q0 60 7 108t26 93.5t49.5 76t80 49t115.5 18.5t115.5 -18.5t80 -49t49 -76t25.5 -93.5t7 -108q0 -61 -7 -110.5t-25.5 -96.5t-49 -78.5t-80 -50.5t-115.5 -19z" />
    <glyph glyph-name="P" unicode="P" 
d="M347 300h-217v-300h-53v680h270q93 0 144 -53t51 -137q0 -88 -50.5 -139t-144.5 -51zM130 632v-285h212q70 0 108.5 36.5t38.5 106.5q0 65 -39 103.5t-108 38.5h-212z" />
    <glyph glyph-name="Q" unicode="Q" horiz-adv-x="690" 
d="M67 345q0 60 7 108t26 93.5t49.5 76t80 49t115.5 18.5t115.5 -18.5t80 -49t49 -76t25.5 -93.5t7 -108q0 -58 -7 -106t-24 -91.5t-44 -73.5t-69.5 -48t-98.5 -20q29 -45 126 -54q52 -5 105 1v-48q-57 -6 -105 -2q-126 12 -174 87q-77 3 -130.5 31.5t-81.5 79.5t-40 109.5
t-12 134.5zM345 645q-69 0 -115 -24t-68.5 -69t-31 -93.5t-8.5 -113.5q0 -51 4.5 -92t19 -83.5t38.5 -70.5t65 -46t96 -18t96 18t64.5 46t38 70.5t19 83.5t4.5 92t-4.5 91t-18.5 81t-38 67.5t-65 43.5t-96 17z" />
    <glyph glyph-name="R" unicode="R" horiz-adv-x="615" 
d="M564 0h-62l-181 287h-191v-287h-53v680h270q92 0 143.5 -56t51.5 -140q0 -77 -44 -129t-122 -60zM130 632v-297h205q70 0 112 39.5t42 109.5q0 66 -39.5 107t-107.5 41h-212z" />
    <glyph glyph-name="S" unicode="S" 
d="M300 -10q-120 0 -233 32l10 45q120 -30 223 -30q90 0 133.5 41.5t43.5 97.5q0 29 -13.5 52.5t-30 37.5t-46.5 26.5t-46 17l-46 12.5q-42 10 -78 25.5t-69 39t-52 58t-19 75.5q0 87 61 128.5t162 41.5q108 0 220 -33l-12 -45q-121 30 -208 30q-90 0 -129 -34.5t-39 -88.5
q0 -35 19.5 -62.5t54 -45t60.5 -26.5t61 -18q205 -45 205 -187q0 -91 -63.5 -140.5t-168.5 -49.5z" />
    <glyph glyph-name="T" unicode="T" horiz-adv-x="560" 
d="M502 632h-196v-632h-52v632h-197v48h445v-48z" />
    <glyph glyph-name="U" unicode="U" horiz-adv-x="640" 
d="M324 35q50 0 86.5 14.5t55 34.5t29 51t13 53.5t2.5 51.5v440h52v-440q0 -129 -59 -189.5t-183 -60.5t-183.5 60.5t-59.5 189.5v440h53v-440q0 -31 2 -52.5t12.5 -52.5t30 -51t58 -34.5t91.5 -14.5z" />
    <glyph glyph-name="V" unicode="V" horiz-adv-x="650" 
d="M330 60h1l216 620h55l-241 -685h-65l-249 685h59z" />
    <glyph glyph-name="W" unicode="W" horiz-adv-x="940" 
d="M471 596h-2l-164 -601h-69l-189 685h59l166 -614h1l167 614h63l167 -614h1l166 614h55l-188 -685h-69z" />
    <glyph glyph-name="X" unicode="X" horiz-adv-x="650" 
d="M535 0l-213 314h-2l-209 -314h-60l237 358l-213 322h62l186 -277h2l185 277h62l-214 -322l241 -358h-64z" />
    <glyph glyph-name="Y" unicode="Y" horiz-adv-x="620" 
d="M310 296h2l203 384h57l-236 -440v-240h-52v240l-237 440h61z" />
    <glyph glyph-name="Z" unicode="Z" horiz-adv-x="560" 
d="M124 49v-2h386v-47h-460v40l379 590v2h-359v48h430v-40z" />
    <glyph glyph-name="bracketleft" unicode="[" horiz-adv-x="300" 
d="M120 -108h132v-32h-185v960h185v-33h-132v-895z" />
    <glyph glyph-name="backslash" unicode="\" horiz-adv-x="540" 
d="M432 0l-370 680h45l370 -680h-45z" />
    <glyph glyph-name="bracketright" unicode="]" horiz-adv-x="300" 
d="M47 -108h133v895h-133v33h185v-960h-185v32z" />
    <glyph glyph-name="asciicircum" unicode="^" horiz-adv-x="380" 
d="M189 670l-92 -160h-30l104 190h37l104 -190h-30z" />
    <glyph glyph-name="underscore" unicode="_" horiz-adv-x="500" 
d="M67 -60h365v-33h-365v33z" />
    <glyph glyph-name="grave" unicode="`" horiz-adv-x="237" 
d="M137 560l-77 140h52l65 -140h-40z" />
    <glyph glyph-name="a" unicode="a" horiz-adv-x="505" 
d="M255 467q-75 0 -161 -17l-8 41q94 19 179 19q88 0 130 -36.5t42 -126.5v-347h-50v50h-2q-78 -60 -168 -60q-76 0 -120.5 37.5t-44.5 103.5q0 149 210 149h125v65q0 62 -30.5 92t-101.5 30zM387 84v163h-122q-90 0 -126.5 -28.5t-36.5 -83.5q0 -47 34.5 -76t98.5 -29
q88 0 152 54z" />
    <glyph glyph-name="b" unicode="b" horiz-adv-x="530" 
d="M117 700v-250h2q69 60 166 60q187 0 187 -260q0 -120 -45.5 -190t-144.5 -70q-98 0 -165 59h-2l-9 -50h-39v701h50zM420 250q0 217 -153 217q-81 0 -150 -53v-328q67 -54 150 -54q153 0 153 218z" />
    <glyph glyph-name="c" unicode="c" horiz-adv-x="480" 
d="M57 250q0 260 233 260q81 0 165 -21l-10 -42q-77 20 -155 20q-94 0 -137 -59.5t-43 -157.5t43 -158t137 -60q78 0 155 20l10 -41q-84 -21 -165 -21q-233 0 -233 260z" />
    <glyph glyph-name="d" unicode="d" horiz-adv-x="530" 
d="M412 0v50h-2q-67 -60 -165 -60q-188 0 -188 260q0 119 45.5 189.5t144.5 70.5q97 0 163 -59h2v249h50v-700h-50zM110 250q0 -218 152 -218q86 0 150 54v328q-66 53 -150 53q-152 0 -152 -217z" />
    <glyph glyph-name="e" unicode="e" horiz-adv-x="530" 
d="M472 247h-361q2 -215 193 -215q90 0 156 20l7 -41q-76 -21 -170 -21q-240 0 -240 260t233 260q108 0 151.5 -58t39.5 -144q-1 -19 -9 -61zM287 470q-163 0 -176 -189h313q8 33 5 63q-2 56 -36.5 91t-105.5 35z" />
    <glyph glyph-name="f" unicode="f" horiz-adv-x="345" 
d="M157 567v-67h135v-38h-135v-462h-50v462h-82v34l82 4v74q0 69 30.5 97.5t102.5 28.5q24 0 72 -6l-5 -40q-42 5 -57 5q-53 0 -73 -20.5t-20 -71.5z" />
    <glyph glyph-name="g" unicode="g" horiz-adv-x="555" 
d="M82 -73q0 -102 167 -102q94 0 153.5 32t59.5 92q0 67 -103 72l-195 10q-42 -26 -62 -48t-20 -56zM265 212q65 0 103.5 35t38.5 93q0 60 -38.5 97.5t-103.5 37.5q-72 0 -109 -36.5t-37 -98.5q0 -59 39 -93.5t107 -34.5zM135 40v2q-43 19 -36 67q5 52 57 89v2
q-85 42 -85 140q0 79 51 124.5t143 45.5q29 0 65 -10h167v-33h-113q70 -41 70 -127q0 -78 -53 -120.5t-136 -42.5q-48 0 -81 14q-17 -16 -28 -36q-16 -28 -8.5 -54.5t39.5 -27.5l189 -11q139 -8 139 -105q0 -79 -69.5 -123t-210.5 -44q-195 0 -195 130q0 69 95 120z" />
    <glyph glyph-name="h" unicode="h" horiz-adv-x="530" 
d="M117 391v-391h-50v700h50v-275h2q92 85 193 85q150 0 150 -163v-347h-50v337q0 130 -120 130q-83 0 -175 -76z" />
    <glyph glyph-name="i" unicode="i" horiz-adv-x="185" 
d="M67 500h50v-500h-50v500zM67 680h50v-113h-50v113z" />
    <glyph glyph-name="j" unicode="j" horiz-adv-x="225" 
d="M157 500v-584q0 -69 -30 -97.5t-102 -28.5q-35 0 -73 6l6 40q30 -5 57 -5q53 0 72.5 20t19.5 72v577h50zM107 680h50v-113h-50v113z" />
    <glyph glyph-name="k" unicode="k" horiz-adv-x="530" 
d="M117 700v-434l293 234h62l-197 -165l207 -335h-59l-184 307l-122 -96v-211h-50v700h50z" />
    <glyph glyph-name="l" unicode="l" horiz-adv-x="185" 
d="M67 0v700h50v-700h-50z" />
    <glyph glyph-name="m" unicode="m" horiz-adv-x="830" 
d="M117 391v-391h-50v500h50v-75h2q87 85 171 85q113 0 140 -92q90 92 182 92q150 0 150 -163v-347h-50v337q0 130 -120 130q-30 0 -62.5 -14.5t-50 -28t-43.5 -35.5q4 -32 4 -54v-335h-50v339q-2 128 -120 128q-30 0 -62.5 -14.5t-48 -26.5t-42.5 -35z" />
    <glyph glyph-name="n" unicode="n" horiz-adv-x="530" 
d="M117 391v-391h-50v500h50v-75h2q92 85 193 85q150 0 150 -163v-347h-50v337q0 130 -120 130q-83 0 -175 -76z" />
    <glyph glyph-name="o" unicode="o" horiz-adv-x="550" 
d="M275 467q-165 0 -165 -217q0 -218 165 -218t165 218q0 217 -165 217zM275 -10q-218 0 -218 260t218 260q217 0 217 -260t-217 -260z" />
    <glyph glyph-name="p" unicode="p" horiz-adv-x="530" 
d="M117 500v-50h2q69 60 166 60q187 0 187 -260q0 -120 -45.5 -190t-144.5 -70q-96 0 -163 59h-2v-249h-50v700h50zM420 250q0 217 -153 217q-81 0 -150 -53v-328q67 -54 150 -54q153 0 153 218z" />
    <glyph glyph-name="q" unicode="q" horiz-adv-x="530" 
d="M412 -200v250h-2q-67 -60 -165 -60q-188 0 -188 260q0 119 45.5 189.5t144.5 70.5q97 0 166 -59h2l9 50h38v-701h-50zM110 250q0 -218 152 -218q86 0 150 54v328q-66 53 -150 53q-152 0 -152 -217z" />
    <glyph glyph-name="r" unicode="r" horiz-adv-x="370" 
d="M117 386v-386h-50v500h50v-80h2q100 90 203 90v-48q-55 0 -111 -23.5t-94 -52.5z" />
    <glyph glyph-name="s" unicode="s" horiz-adv-x="480" 
d="M427 134q0 -69 -44 -106.5t-128 -37.5q-119 0 -203 21l10 41q82 -21 188 -21q34 0 59.5 9t38 20.5t19.5 27t8.5 25t1.5 18.5q0 35 -28.5 59.5t-109.5 41.5q-56 11 -91.5 25t-60.5 45t-25 78q0 62 44 96t129 34q106 0 190 -21l-10 -42q-85 22 -178 22q-34 0 -59 -8
t-37 -18t-19 -24t-8.5 -22t-1.5 -16q0 -36 27 -61t106 -41q94 -20 138 -51.5t44 -93.5z" />
    <glyph glyph-name="t" unicode="t" horiz-adv-x="375" 
d="M107 148v314h-82v34l82 4l7 140h43v-140h155v-38h-155v-307q0 -64 21 -94t77 -30q26 0 57 5l5 -40q-36 -6 -77 -6q-70 0 -101.5 35t-31.5 123z" />
    <glyph glyph-name="u" unicode="u" horiz-adv-x="530" 
d="M412 109v391h50v-500h-50v75h-2q-92 -85 -193 -85q-150 0 -150 162v348h50v-338q0 -130 120 -130q82 0 175 77z" />
    <glyph glyph-name="v" unicode="v" horiz-adv-x="560" 
d="M309 -5h-59l-195 505h56l169 -446h2l169 446h54z" />
    <glyph glyph-name="w" unicode="w" horiz-adv-x="790" 
d="M396 422h-2l-125 -427h-55l-159 505h55l135 -446h2l125 446h48l130 -446h2l130 446h53l-155 -505h-55z" />
    <glyph glyph-name="x" unicode="x" horiz-adv-x="545" 
d="M437 0l-168 223h-2l-164 -223h-56l194 261l-179 239h59l152 -202h2l149 202h55l-178 -238l196 -262h-60z" />
    <glyph glyph-name="y" unicode="y" horiz-adv-x="560" 
d="M259 -12l-204 512h56l176 -454h2l162 454h54l-200 -543q-31 -88 -74 -127.5t-106 -39.5q-35 0 -60 6l5 43q21 -5 45 -5t45.5 11t34.5 24t27.5 39t20 39z" />
    <glyph glyph-name="z" unicode="z" horiz-adv-x="470" 
d="M426 500v-38l-324 -420v-2h332v-40h-398v37l325 421v2h-310v40h375z" />
    <glyph glyph-name="braceleft" unicode="{" horiz-adv-x="340" 
d="M180 5q0 -35 7.5 -58.5t16.5 -35.5t27 -18t29 -7t32 -1v-25q-84 0 -124.5 30t-40.5 116q0 31 5 95.5t5 93.5q0 31 -1.5 46.5t-7.5 36t-21 30.5t-40 14v35q25 4 40 14t21 31t7.5 36.5t1.5 46.5q0 29 -5 93.5t-5 95.5q0 86 40.5 116t124.5 30v-25q-21 0 -32 -1t-29 -7
t-27 -18t-16.5 -35.5t-7.5 -58.5q0 -30 5.5 -107.5t5.5 -108.5q0 -56 -20.5 -82.5t-60.5 -35.5v-2q40 -9 60.5 -35.5t20.5 -82.5q0 -31 -5.5 -108.5t-5.5 -107.5z" />
    <glyph glyph-name="bar" unicode="|" horiz-adv-x="190" 
d="M112 -100h-35v880h35v-880z" />
    <glyph glyph-name="braceright" unicode="}" horiz-adv-x="340" 
d="M160 675q0 35 -7.5 58.5t-16.5 35.5t-27 18t-29.5 7t-32.5 1v25q84 0 124.5 -30t40.5 -116q0 -31 -5 -95.5t-5 -93.5q0 -31 1.5 -46.5t7.5 -36.5t21 -31t40 -14v-35q-25 -4 -40 -14t-21 -30.5t-7.5 -36t-1.5 -46.5q0 -29 5 -93.5t5 -95.5q0 -86 -40.5 -116t-124.5 -30v25
q21 0 32.5 1t29.5 7t27 18t16.5 35.5t7.5 58.5q0 30 -5.5 107.5t-5.5 108.5q0 56 20.5 82.5t60.5 35.5v2q-40 9 -60.5 35.5t-20.5 82.5q0 31 5.5 108.5t5.5 107.5z" />
    <glyph glyph-name="asciitilde" unicode="~" horiz-adv-x="456" 
d="M151 337q-12 0 -20.5 -2.5t-26.5 -15t-42 -36.5l-17 14q33 43 56 60t49 17q25 0 95 -31t85 -31q37 0 65 49l16 -16q-18 -35 -36.5 -51.5t-44.5 -16.5q-19 0 -89.5 30t-89.5 30z" />
    <glyph glyph-name="exclamdown" unicode="&#xa1;" horiz-adv-x="185" 
d="M117 385h-50v115h50v-115zM117 -180h-50l3 467h45z" />
    <glyph glyph-name="cent" unicode="&#xa2;" horiz-adv-x="517" 
d="M309 -100h-25v90q-105 3 -164.5 74.5t-59.5 185.5t59.5 185.5t164.5 74.5v90h25v-91q70 -2 148 -35l-6 -40q-87 31 -142 33v-434q55 0 142 33l6 -40q-77 -34 -148 -35v-91zM112 250q0 -90 45 -151.5t127 -65.5v433q-81 -4 -126.5 -65.5t-45.5 -150.5z" />
    <glyph glyph-name="sterling" unicode="&#xa3;" horiz-adv-x="612" 
d="M405 325h-245v-280h365v-45h-465v45h50v280h-50v40h50v155q0 87 60 128.5t160 41.5q133 0 222 -55l-21 -42q-90 49 -199 49q-92 0 -132 -35.5t-40 -92.5v-149h245v-40z" />
    <glyph glyph-name="currency" unicode="&#xa4;" horiz-adv-x="513" 
d="M100 249q0 68 48 114l-78 90l8 8l79 -90q44 36 100 36q55 0 99 -36l78 90l9 -8l-78 -89q50 -47 50 -115t-49 -114l76 -86l-9 -9l-77 87q-43 -35 -99 -35q-57 0 -100 35l-76 -87l-9 9l76 86q-48 46 -48 114zM112 249q0 -59 43 -102t102 -43t102.5 43t43.5 102t-43.5 102.5
t-102.5 43.5t-102 -43.5t-43 -102.5z" />
    <glyph glyph-name="yen" unicode="&#xa5;" horiz-adv-x="645" 
d="M357 257h168v-32h-176v-225h-53v225h-176v32h167l-227 423h60l203 -384h2l202 384h58z" />
    <glyph glyph-name="brokenbar" unicode="&#xa6;" horiz-adv-x="170" 
d="M102 -100h-35v400h35v-400zM102 380h-35v400h35v-400z" />
    <glyph glyph-name="section" unicode="&#xa7;" horiz-adv-x="585" 
d="M525 326h-55q0 24 -8 44.5t-25.5 35t-32 24.5t-41 19l-39 13t-37.5 10q-42 10 -78 25.5t-68.5 39t-51.5 58t-19 75.5q0 87 61 128.5t161 41.5q110 0 220 -33l-12 -45q-120 30 -208 30q-90 0 -128.5 -34.5t-38.5 -88.5q0 -35 19.5 -62.5t54 -45t60.5 -26.5t61 -18
q92 -21 149 -65t56 -126zM70 370h55q0 -104 195 -153q205 -46 205 -187q0 -91 -64 -140.5t-169 -49.5q-120 0 -232 32l10 45q120 -30 222 -30q90 0 134 41.5t44 97.5q0 24 -8 44.5t-25.5 35t-32 24.5t-41 19l-39 13t-37.5 10q-42 10 -78 25.5t-68.5 39t-51.5 58t-19 75.5z
" />
    <glyph glyph-name="dieresis" unicode="&#xa8;" horiz-adv-x="432" 
d="M92 685h43v-110h-43v110zM297 685h43v-110h-43v110z" />
    <glyph glyph-name="copyright" unicode="&#xa9;" horiz-adv-x="765" 
d="M30 340q0 146 103 248t249 102q147 0 250 -102t103 -248t-103 -248t-250 -102q-146 0 -249 102t-103 248zM56 340q0 -135 95.5 -230t230.5 -95t231 95t96 230t-96 229.5t-231 94.5t-230.5 -94.5t-95.5 -229.5zM386 486q-127 0 -127 -142q0 -153 127 -153q60 0 106 30
l13 -24q-50 -35 -121 -35q-79 0 -119.5 47t-40.5 135q0 83 40.5 127.5t119.5 44.5q71 0 121 -35l-12 -26q-49 31 -107 31z" />
    <glyph glyph-name="ordfeminine" unicode="&#xaa;" horiz-adv-x="297" 
d="M154 664q-31 0 -80 -9l-4 21q48 9 89 9q44 0 65 -18t21 -63v-174h-25v25q-40 -30 -85 -30q-38 0 -60.5 19t-22.5 52q0 74 105 74h63v32q0 32 -15 47t-51 15zM220 472v82h-61q-82 0 -82 -56q0 -24 17.5 -38.5t49.5 -14.5q44 0 76 27z" />
    <glyph glyph-name="guillemotleft" unicode="&#xab;" horiz-adv-x="632" 
d="M67 266l245 166v-46l-192 -136l192 -136v-47l-245 167v32zM320 266l245 166v-46l-193 -136l193 -136v-47l-245 167v32z" />
    <glyph glyph-name="logicalnot" unicode="&#xac;" horiz-adv-x="590" 
d="M87 286h415v-154h-42v112h-373v42z" />
    <glyph glyph-name="uni00AD" unicode="&#xad;" horiz-adv-x="500" 
d="M67 286h365v-42h-365v42z" />
    <glyph glyph-name="registered" unicode="&#xae;" horiz-adv-x="765" 
d="M527 168h-41l-103 123h-87v-123h-33v344h134q58 0 89 -29.5t31 -78.5q0 -48 -25.5 -76.5t-72.5 -32.5zM296 482v-162h97q90 0 90 84q0 36 -22.5 57t-63.5 21h-101zM30 340q0 146 103 248t249 102q147 0 250 -102t103 -248t-103 -248t-250 -102q-146 0 -249 102t-103 248z
M56 340q0 -135 95.5 -230t230.5 -95t231 95t96 230t-96 229.5t-231 94.5t-230.5 -94.5t-95.5 -229.5z" />
    <glyph glyph-name="macron" unicode="&#xaf;" horiz-adv-x="425" 
d="M65 642h295v-35h-295v35z" />
    <glyph glyph-name="degree" unicode="&#xb0;" horiz-adv-x="261" 
d="M45 594q0 36 25 61t61 25q35 0 60 -25t25 -61q0 -35 -25 -60.5t-60 -25.5q-36 0 -61 25.5t-25 60.5zM67 594q0 -27 18 -45.5t46 -18.5q27 0 45 18.5t18 45.5t-18 45.5t-45 18.5q-28 0 -46 -18.5t-18 -45.5z" />
    <glyph glyph-name="plusminus" unicode="&#xb1;" horiz-adv-x="500" 
d="M67 102h162v145h-162v43h162v159h42v-159h161v-43h-161v-145h161v-42h-365v42z" />
    <glyph glyph-name="twosuperior" unicode="&#xb2;" horiz-adv-x="315" 
d="M149 849q-40 0 -88 -24l-9 22q53 28 104 28q50 0 75.5 -28.5t25.5 -71.5q0 -104 -165 -219v-1h170v-25h-210v28q176 119 176 211q0 33 -16 52.5t-31.5 23.5t-31.5 4z" />
    <glyph glyph-name="threesuperior" unicode="&#xb3;" horiz-adv-x="325" 
d="M193 698q36 -7 57.5 -29.5t21.5 -55.5q0 -93 -114 -93q-64 0 -106 26l10 22q45 -25 95 -25q48 0 67 20.5t19 44.5q0 75 -93 75h-40v24h38q41 0 63.5 21t22.5 51q0 26 -16.5 46.5t-59.5 20.5q-37 0 -87 -24l-9 22q46 26 99 26q48 0 74.5 -23.5t26.5 -65.5
q0 -31 -19.5 -52.5t-49.5 -30.5z" />
    <glyph glyph-name="acute" unicode="&#xb4;" horiz-adv-x="237" 
d="M177 700l-77 -140h-40l65 140h52z" />
    <glyph glyph-name="mu" unicode="&#xb5;" horiz-adv-x="530" 
d="M117 500v-347q5 -121 120 -121q82 0 175 77v391h50v-500h-50v75h-2q-87 -78 -175 -82q-91 -2 -118 62v-100q0 -92 -32 -128.5t-103 -36.5q-32 0 -70 6l6 40q30 -5 57 -5q55 0 73.5 30.5t18.5 93.5v545h50z" />
    <glyph glyph-name="paragraph" unicode="&#xb6;" horiz-adv-x="557" 
d="M512 657h-82v-657h-25v657h-67v-362h-92q-90 0 -145.5 53.5t-55.5 139.5q0 89 55 140.5t146 51.5h266v-23z" />
    <glyph glyph-name="periodcentered" unicode="&#xb7;" horiz-adv-x="225" 
d="M87 307h50v-115h-50v115z" />
    <glyph glyph-name="cedilla" unicode="&#xb8;" horiz-adv-x="291" 
d="M120 -73v73h22v-58q84 -4 84 -71q0 -35 -25 -55.5t-68 -20.5q-31 0 -68 12l4 20q32 -10 56 -10q37 0 52.5 18.5t15.5 38.5t-16 36.5t-57 16.5z" />
    <glyph glyph-name="onesuperior" unicode="&#xb9;" horiz-adv-x="305" 
d="M49 553h105v286l-93 -53l-9 23q74 35 111 64h19v-320h105v-23h-238v23z" />
    <glyph glyph-name="ordmasculine" unicode="&#xba;" horiz-adv-x="322" 
d="M162 664q-83 0 -83 -109t83 -109q82 0 82 109t-82 109zM162 425q-110 0 -110 130t110 130q108 0 108 -130t-108 -130z" />
    <glyph glyph-name="guillemotright" unicode="&#xbb;" horiz-adv-x="632" 
d="M320 432l245 -166v-32l-245 -167v47l192 136l-192 136v46zM67 432l245 -166v-32l-245 -167v47l193 136l-193 136v46z" />
    <glyph glyph-name="onequarter" unicode="&#xbc;" horiz-adv-x="800" 
d="M663 340h36v-221h51v-24h-51v-95h-28v95h-161v24q108 118 153 221zM50 353h105v286l-94 -53l-8 23q74 35 111 64h19v-320h105v-23h-238v23zM641 680l-370 -680h-20l370 680h20zM540 119h131v184q-44 -86 -131 -184z" />
    <glyph glyph-name="onehalf" unicode="&#xbd;" horiz-adv-x="800" 
d="M637 319q-40 0 -88 -24l-9 22q53 28 104 28q50 0 75.5 -28.5t25.5 -71.5q0 -104 -165 -219v-1h170v-25h-210v28q176 120 176 211q0 33 -16 52.5t-31.5 23.5t-31.5 4zM50 353h105v286l-94 -53l-8 23q74 35 111 64h19v-320h105v-23h-238v23zM621 680l-370 -680h-20l370 680
h20z" />
    <glyph glyph-name="threequarters" unicode="&#xbe;" horiz-adv-x="800" 
d="M641 680l-370 -680h-20l370 680h20zM540 119h131v184q-44 -86 -131 -184zM663 340h36v-221h51v-24h-51v-95h-28v95h-161v24q108 118 153 221zM191 498q36 -7 57.5 -29.5t21.5 -55.5q0 -93 -115 -93q-65 0 -105 26l9 22q45 -25 96 -25q48 0 66.5 20.5t18.5 44.5
q0 75 -92 75h-41v24h39q41 0 63.5 21t22.5 51q0 26 -17 46.5t-60 20.5q-37 0 -87 -24l-9 22q46 26 100 26q48 0 74.5 -23.5t26.5 -65.5q0 -31 -19.5 -52.5t-49.5 -30.5z" />
    <glyph glyph-name="questiondown" unicode="&#xbf;" horiz-adv-x="480" 
d="M242 -190q-53 0 -91 15t-57.5 40.5t-28 53t-8.5 58.5q0 51 20.5 88.5t49.5 59t58 40t49.5 42t20.5 53.5v30h45v-30q0 -37 -19.5 -65.5t-47.5 -47.5l-56.5 -39t-48 -52t-19.5 -74q0 -125 146 -125q61 0 152 34l15 -43q-93 -38 -180 -38zM302 385h-50v115h50v-115z" />
    <glyph glyph-name="Agrave" unicode="&#xc0;" horiz-adv-x="650" 
d="M544 0l-67 191h-304l-70 -191h-56l249 685h65l241 -685h-58zM328 620h-2l-141 -384h281zM302 710l-77 140h52l65 -140h-40z" />
    <glyph glyph-name="Aacute" unicode="&#xc1;" horiz-adv-x="650" 
d="M544 0l-67 191h-304l-70 -191h-56l249 685h65l241 -685h-58zM328 620h-2l-141 -384h281zM429 850l-77 -140h-40l65 140h52z" />
    <glyph glyph-name="Acircumflex" unicode="&#xc2;" horiz-adv-x="650" 
d="M544 0l-67 191h-304l-70 -191h-56l249 685h65l241 -685h-58zM328 620h-2l-141 -384h281zM324 820l-82 -110h-40l104 140h37l104 -140h-40z" />
    <glyph glyph-name="Atilde" unicode="&#xc3;" horiz-adv-x="650" 
d="M544 0l-67 191h-304l-70 -191h-56l249 685h65l241 -685h-58zM328 620h-2l-141 -384h281zM273 795q-20 0 -36 -9t-53 -46l-17 20q32 42 55 58t50 16q25 0 70 -31t60 -31q35 0 65 51l16 -20q-34 -68 -81 -68q-19 0 -64.5 30t-64.5 30z" />
    <glyph glyph-name="Adieresis" unicode="&#xc4;" horiz-adv-x="650" 
d="M544 0l-67 191h-304l-70 -191h-56l249 685h65l241 -685h-58zM328 620h-2l-141 -384h281zM201 845h43v-110h-43v110zM406 845h43v-110h-43v110z" />
    <glyph glyph-name="Aring" unicode="&#xc5;" horiz-adv-x="650" 
d="M544 0l-67 191h-304l-70 -191h-56l249 685h65l241 -685h-58zM328 620h-2l-141 -384h281zM252 790q0 31 21 51.5t52 20.5q32 0 53 -20.5t21 -51.5t-21 -52t-53 -21q-31 0 -52 21t-21 52zM272 790q0 -23 15 -38.5t38 -15.5t38 15.5t15 38.5t-15 38.5t-38 15.5
q-22 0 -37.5 -15.5t-15.5 -38.5z" />
    <glyph glyph-name="AE" unicode="&#xc6;" horiz-adv-x="926" 
d="M443 296h-179l-163 -296h-54l369 680h437v-48h-357v-255h312v-47h-312v-283h362v-47h-415v296zM441 631l-158 -292h160v292h-2z" />
    <glyph glyph-name="Ccedilla" unicode="&#xc7;" horiz-adv-x="620" 
d="M67 345q0 60 7 108t26 93.5t49.5 76t80 49t115.5 18.5q113 0 225 -33l-12 -45q-121 30 -209 30q-68 0 -114.5 -23.5t-70 -67.5t-33 -93t-9.5 -113q0 -68 9.5 -119t33 -96t70 -69t114.5 -24q88 0 209 30l12 -45q-111 -32 -219 -32v-48q35 -2 59 -18.5t24 -52.5
q0 -35 -24.5 -55.5t-67.5 -20.5q-30 0 -69 12l5 20q32 -10 57 -10q36 0 51 18t15 39q0 20 -16 36.5t-57 16.5v63q-77 3 -130 31t-80.5 78.5t-39 109.5t-11.5 136z" />
    <glyph glyph-name="Egrave" unicode="&#xc8;" horiz-adv-x="560" 
d="M487 680v-48h-357v-255h312v-47h-312v-283h362v-47h-415v680h410zM278 710l-77 140h52l65 -140h-40z" />
    <glyph glyph-name="Eacute" unicode="&#xc9;" horiz-adv-x="560" 
d="M487 680v-48h-357v-255h312v-47h-312v-283h362v-47h-415v680h410zM367 850l-77 -140h-40l65 140h52z" />
    <glyph glyph-name="Ecircumflex" unicode="&#xca;" horiz-adv-x="560" 
d="M487 680v-48h-357v-255h312v-47h-312v-283h362v-47h-415v680h410zM291 820l-82 -110h-40l104 140h37l104 -140h-40z" />
    <glyph glyph-name="Edieresis" unicode="&#xcb;" horiz-adv-x="560" 
d="M487 680v-48h-357v-255h312v-47h-312v-283h362v-47h-415v680h410zM159 845h43v-110h-43v110zM364 845h43v-110h-43v110z" />
    <glyph glyph-name="Igrave" unicode="&#xcc;" horiz-adv-x="207" 
d="M130 0h-53v680h53v-680zM84 710l-77 140h52l65 -140h-40z" />
    <glyph glyph-name="Iacute" unicode="&#xcd;" horiz-adv-x="207" 
d="M130 0h-53v680h53v-680zM201 850l-77 -140h-40l65 140h52z" />
    <glyph glyph-name="Icircumflex" unicode="&#xce;" horiz-adv-x="207" 
d="M129 0h-53v680h53v-680zM103 820l-82 -110h-40l104 140h37l104 -140h-40z" />
    <glyph glyph-name="Idieresis" unicode="&#xcf;" horiz-adv-x="207" 
d="M131 0h-53v680h53v-680zM-21 845h43v-110h-43v110zM184 845h43v-110h-43v110z" />
    <glyph glyph-name="Eth" unicode="&#xd0;" horiz-adv-x="655" 
d="M314 0h-232v329h-55v32h55v319h232q273 0 273 -335q0 -345 -273 -345zM135 47h179q218 0 218 298q0 63 -9.5 111t-33 89.5t-67.5 64t-108 22.5h-179v-271h130v-32h-130v-282z" />
    <glyph glyph-name="Ntilde" unicode="&#xd1;" horiz-adv-x="650" 
d="M129 0h-52v680h53l389 -582h2v582h51v-680h-52l-389 577h-2v-577zM273 795q-20 0 -36 -9t-53 -46l-17 20q32 42 55 58t50 16q25 0 70 -31t60 -31q35 0 65 51l16 -20q-34 -68 -81 -68q-19 0 -64.5 30t-64.5 30z" />
    <glyph glyph-name="Ograve" unicode="&#xd2;" horiz-adv-x="690" 
d="M345 645q-69 0 -115 -24t-68.5 -69t-31 -93.5t-8.5 -113.5q0 -51 4.5 -92t19 -83.5t38.5 -70.5t65 -46t96 -18t96 18t64.5 46t38 70.5t19 83.5t4.5 92t-4.5 91t-18.5 81t-38 67.5t-65 43.5t-96 17zM345 -10q-66 0 -115.5 19t-80 50.5t-49.5 78.5t-26 96.5t-7 110.5
q0 60 7 108t26 93.5t49.5 76t80 49t115.5 18.5t115.5 -18.5t80 -49t49 -76t25.5 -93.5t7 -108q0 -61 -7 -110.5t-25.5 -96.5t-49 -78.5t-80 -50.5t-115.5 -19zM334 710l-77 140h52l65 -140h-40z" />
    <glyph glyph-name="Oacute" unicode="&#xd3;" horiz-adv-x="690" 
d="M345 645q-69 0 -115 -24t-68.5 -69t-31 -93.5t-8.5 -113.5q0 -51 4.5 -92t19 -83.5t38.5 -70.5t65 -46t96 -18t96 18t64.5 46t38 70.5t19 83.5t4.5 92t-4.5 91t-18.5 81t-38 67.5t-65 43.5t-96 17zM345 -10q-66 0 -115.5 19t-80 50.5t-49.5 78.5t-26 96.5t-7 110.5
q0 60 7 108t26 93.5t49.5 76t80 49t115.5 18.5t115.5 -18.5t80 -49t49 -76t25.5 -93.5t7 -108q0 -61 -7 -110.5t-25.5 -96.5t-49 -78.5t-80 -50.5t-115.5 -19zM440 850l-77 -140h-40l65 140h52z" />
    <glyph glyph-name="Ocircumflex" unicode="&#xd4;" horiz-adv-x="690" 
d="M345 645q-69 0 -115 -24t-68.5 -69t-31 -93.5t-8.5 -113.5q0 -51 4.5 -92t19 -83.5t38.5 -70.5t65 -46t96 -18t96 18t64.5 46t38 70.5t19 83.5t4.5 92t-4.5 91t-18.5 81t-38 67.5t-65 43.5t-96 17zM345 -10q-66 0 -115.5 19t-80 50.5t-49.5 78.5t-26 96.5t-7 110.5
q0 60 7 108t26 93.5t49.5 76t80 49t115.5 18.5t115.5 -18.5t80 -49t49 -76t25.5 -93.5t7 -108q0 -61 -7 -110.5t-25.5 -96.5t-49 -78.5t-80 -50.5t-115.5 -19zM344 820l-82 -110h-40l104 140h37l104 -140h-40z" />
    <glyph glyph-name="Otilde" unicode="&#xd5;" horiz-adv-x="690" 
d="M345 645q-69 0 -115 -24t-68.5 -69t-31 -93.5t-8.5 -113.5q0 -51 4.5 -92t19 -83.5t38.5 -70.5t65 -46t96 -18t96 18t64.5 46t38 70.5t19 83.5t4.5 92t-4.5 91t-18.5 81t-38 67.5t-65 43.5t-96 17zM345 -10q-66 0 -115.5 19t-80 50.5t-49.5 78.5t-26 96.5t-7 110.5
q0 60 7 108t26 93.5t49.5 76t80 49t115.5 18.5t115.5 -18.5t80 -49t49 -76t25.5 -93.5t7 -108q0 -61 -7 -110.5t-25.5 -96.5t-49 -78.5t-80 -50.5t-115.5 -19zM293 795q-20 0 -36 -9t-53 -46l-17 20q32 42 55 58t50 16q25 0 70 -31t60 -31q35 0 65 51l16 -20
q-34 -68 -81 -68q-19 0 -64.5 30t-64.5 30z" />
    <glyph glyph-name="Odieresis" unicode="&#xd6;" horiz-adv-x="690" 
d="M345 645q-69 0 -115 -24t-68.5 -69t-31 -93.5t-8.5 -113.5q0 -51 4.5 -92t19 -83.5t38.5 -70.5t65 -46t96 -18t96 18t64.5 46t38 70.5t19 83.5t4.5 92t-4.5 91t-18.5 81t-38 67.5t-65 43.5t-96 17zM345 -10q-66 0 -115.5 19t-80 50.5t-49.5 78.5t-26 96.5t-7 110.5
q0 60 7 108t26 93.5t49.5 76t80 49t115.5 18.5t115.5 -18.5t80 -49t49 -76t25.5 -93.5t7 -108q0 -61 -7 -110.5t-25.5 -96.5t-49 -78.5t-80 -50.5t-115.5 -19zM221 845h43v-110h-43v110zM426 845h43v-110h-43v110z" />
    <glyph glyph-name="multiply" unicode="&#xd7;" horiz-adv-x="479" 
d="M412 407l-142 -142l142 -142l-30 -30l-142 142l-143 -142l-30 30l143 142l-143 142l30 30l143 -142l142 142z" />
    <glyph glyph-name="Oslash" unicode="&#xd8;" horiz-adv-x="690" 
d="M345 -10q-137 0 -204 81l-77 -98l-19 16l80 100q-58 86 -58 256q0 60 7 108t26 93.5t49.5 76t80 49t115.5 18.5q129 0 198 -74l82 103l20 -15l-85 -106q62 -81 62 -253q0 -61 -7 -110.5t-25.5 -96.5t-49 -78.5t-80 -50.5t-115.5 -19zM345 35q55 0 96 18t64.5 46t38 70.5
t19 83.5t4.5 92q0 140 -43 208l-350 -442q53 -76 171 -76zM345 645q-69 0 -115 -24t-68.5 -69t-31 -93.5t-8.5 -113.5q0 -140 40 -209l350 440q-54 69 -167 69z" />
    <glyph glyph-name="Ugrave" unicode="&#xd9;" horiz-adv-x="640" 
d="M324 35q50 0 86.5 14.5t55 34.5t29 51t13 53.5t2.5 51.5v440h52v-440q0 -129 -59 -189.5t-183 -60.5t-183.5 60.5t-59.5 189.5v440h53v-440q0 -31 2 -52.5t12.5 -52.5t30 -51t58 -34.5t91.5 -14.5zM303 710l-77 140h52l65 -140h-40z" />
    <glyph glyph-name="Uacute" unicode="&#xda;" horiz-adv-x="640" 
d="M324 35q50 0 86.5 14.5t55 34.5t29 51t13 53.5t2.5 51.5v440h52v-440q0 -129 -59 -189.5t-183 -60.5t-183.5 60.5t-59.5 189.5v440h53v-440q0 -31 2 -52.5t12.5 -52.5t30 -51t58 -34.5t91.5 -14.5zM416 850l-77 -140h-40l65 140h52z" />
    <glyph glyph-name="Ucircumflex" unicode="&#xdb;" horiz-adv-x="640" 
d="M324 35q50 0 86.5 14.5t55 34.5t29 51t13 53.5t2.5 51.5v440h52v-440q0 -129 -59 -189.5t-183 -60.5t-183.5 60.5t-59.5 189.5v440h53v-440q0 -31 2 -52.5t12.5 -52.5t30 -51t58 -34.5t91.5 -14.5zM319 820l-82 -110h-40l104 140h37l104 -140h-40z" />
    <glyph glyph-name="Udieresis" unicode="&#xdc;" horiz-adv-x="640" 
d="M324 35q50 0 86.5 14.5t55 34.5t29 51t13 53.5t2.5 51.5v440h52v-440q0 -129 -59 -189.5t-183 -60.5t-183.5 60.5t-59.5 189.5v440h53v-440q0 -31 2 -52.5t12.5 -52.5t30 -51t58 -34.5t91.5 -14.5zM196 845h43v-110h-43v110zM401 845h43v-110h-43v110z" />
    <glyph glyph-name="Yacute" unicode="&#xdd;" horiz-adv-x="620" 
d="M310 296h2l203 384h57l-236 -440v-240h-52v240l-237 440h61zM416 850l-77 -140h-40l65 140h52z" />
    <glyph glyph-name="Thorn" unicode="&#xde;" 
d="M345 155h-215v-155h-53v680h53v-145h215q92 0 144.5 -53.5t52.5 -136.5q0 -88 -51.5 -139t-145.5 -51zM130 487v-285h210q70 0 109.5 37t39.5 106q0 65 -40 103.5t-109 38.5h-210z" />
    <glyph glyph-name="germandbls" unicode="&#xdf;" horiz-adv-x="645" 
d="M320 700q92 0 142 -39.5t50 -110.5q0 -43 -20.5 -76.5t-45 -49.5t-45 -34t-20.5 -34q0 -28 49 -45q84 -25 123 -64.5t39 -98.5q0 -81 -54.5 -119.5t-133.5 -38.5q-66 0 -129 20l7 40q61 -20 118 -20q46 0 77 14t43 36t16 37t4 30q0 26 -10.5 47.5t-31.5 36.5t-34.5 23
t-39.5 18l-25 9q-37 15 -52 30.5t-15 39.5q0 21 19.5 41.5t42.5 36t42.5 45.5t19.5 68q0 35 -14 59.5t-37.5 36.5t-45 16.5t-43.5 4.5q-50 0 -84 -16.5t-49 -45.5t-20.5 -56.5t-5.5 -63.5v-477h-50v462h-82v34l82 4q0 200 213 200z" />
    <glyph glyph-name="agrave" unicode="&#xe0;" horiz-adv-x="505" 
d="M255 467q-75 0 -161 -17l-8 41q94 19 179 19q88 0 130 -36.5t42 -126.5v-347h-50v50h-2q-78 -60 -168 -60q-76 0 -120.5 37.5t-44.5 103.5q0 149 210 149h125v65q0 62 -30.5 92t-101.5 30zM387 84v163h-122q-90 0 -126.5 -28.5t-36.5 -83.5q0 -47 34.5 -76t98.5 -29
q88 0 152 54zM249 560l-77 140h52l65 -140h-40z" />
    <glyph glyph-name="aacute" unicode="&#xe1;" horiz-adv-x="505" 
d="M255 467q-75 0 -161 -17l-8 41q94 19 179 19q88 0 130 -36.5t42 -126.5v-347h-50v50h-2q-78 -60 -168 -60q-76 0 -120.5 37.5t-44.5 103.5q0 149 210 149h125v65q0 62 -30.5 92t-101.5 30zM387 84v163h-122q-90 0 -126.5 -28.5t-36.5 -83.5q0 -47 34.5 -76t98.5 -29
q88 0 152 54zM355 700l-77 -140h-40l65 140h52z" />
    <glyph glyph-name="acircumflex" unicode="&#xe2;" horiz-adv-x="505" 
d="M255 467q-75 0 -161 -17l-8 41q94 19 179 19q88 0 130 -36.5t42 -126.5v-347h-50v50h-2q-78 -60 -168 -60q-76 0 -120.5 37.5t-44.5 103.5q0 149 210 149h125v65q0 62 -30.5 92t-101.5 30zM387 84v163h-122q-90 0 -126.5 -28.5t-36.5 -83.5q0 -47 34.5 -76t98.5 -29
q88 0 152 54zM261 670l-82 -110h-40l104 140h37l104 -140h-40z" />
    <glyph glyph-name="atilde" unicode="&#xe3;" horiz-adv-x="505" 
d="M255 467q-75 0 -161 -17l-8 41q94 19 179 19q88 0 130 -36.5t42 -126.5v-347h-50v50h-2q-78 -60 -168 -60q-76 0 -120.5 37.5t-44.5 103.5q0 149 210 149h125v65q0 62 -30.5 92t-101.5 30zM387 84v163h-122q-90 0 -126.5 -28.5t-36.5 -83.5q0 -47 34.5 -76t98.5 -29
q88 0 152 54zM217 635q-20 0 -36 -9t-53 -46l-17 20q32 42 55 58t50 16q25 0 70 -31t60 -31q35 0 65 51l16 -20q-34 -68 -81 -68q-19 0 -64.5 30t-64.5 30z" />
    <glyph glyph-name="adieresis" unicode="&#xe4;" horiz-adv-x="505" 
d="M255 467q-75 0 -161 -17l-8 41q94 19 179 19q88 0 130 -36.5t42 -126.5v-347h-50v50h-2q-78 -60 -168 -60q-76 0 -120.5 37.5t-44.5 103.5q0 149 210 149h125v65q0 62 -30.5 92t-101.5 30zM387 84v163h-122q-90 0 -126.5 -28.5t-36.5 -83.5q0 -47 34.5 -76t98.5 -29
q88 0 152 54zM138 685h43v-110h-43v110zM343 685h43v-110h-43v110z" />
    <glyph glyph-name="aring" unicode="&#xe5;" horiz-adv-x="505" 
d="M255 467q-75 0 -161 -17l-8 41q94 19 179 19q88 0 130 -36.5t42 -126.5v-347h-50v50h-2q-78 -60 -168 -60q-76 0 -120.5 37.5t-44.5 103.5q0 149 210 149h125v65q0 62 -30.5 92t-101.5 30zM387 84v163h-122q-90 0 -126.5 -28.5t-36.5 -83.5q0 -47 34.5 -76t98.5 -29
q88 0 152 54zM193 620q0 31 21 51.5t52 20.5q32 0 53 -20.5t21 -51.5t-21 -52t-53 -21q-31 0 -52 21t-21 52zM213 620q0 -23 15 -38.5t38 -15.5t38 15.5t15 38.5t-15 38.5t-38 15.5q-22 0 -37.5 -15.5t-15.5 -38.5z" />
    <glyph glyph-name="ae" unicode="&#xe6;" horiz-adv-x="860" 
d="M802 247h-361q2 -215 193 -215q90 0 156 20l7 -41q-76 -21 -170 -21q-145 0 -202 94q-85 -94 -208 -94q-73 0 -119 36t-46 105q0 149 210 149h125v65q0 62 -30.5 92t-101.5 30q-75 0 -161 -17l-8 41q95 19 179 19q74 0 111 -29.5t47 -101.5q45 131 197 131
q48 0 83.5 -12.5t55.5 -31.5t32.5 -45.5t16 -49.5t3.5 -48q0 -38 -9 -76zM235 30q103 0 176 75q-21 44 -24 142h-122q-90 0 -126.5 -28.5t-36.5 -83.5q0 -47 34.5 -76t98.5 -29zM617 470q-163 0 -176 -189h313q6 26 6 51q0 57 -32.5 97.5t-110.5 40.5z" />
    <glyph glyph-name="ccedilla" unicode="&#xe7;" horiz-adv-x="480" 
d="M57 250q0 260 233 260q81 0 165 -21l-10 -42q-77 20 -155 20q-94 0 -137 -59.5t-43 -157.5t43 -158t137 -60q78 0 155 20l10 -41q-84 -21 -163 -21v-48q35 -2 59.5 -18.5t24.5 -52.5q0 -35 -25 -55.5t-68 -20.5q-31 0 -68 12l4 20q32 -10 57 -10q36 0 51 18t15 39
q0 20 -16 36.5t-57 16.5v64q-212 10 -212 259z" />
    <glyph glyph-name="egrave" unicode="&#xe8;" horiz-adv-x="530" 
d="M472 247h-361q2 -215 193 -215q90 0 156 20l7 -41q-76 -21 -170 -21q-240 0 -240 260t233 260q108 0 151.5 -58t39.5 -144q-1 -19 -9 -61zM287 470q-163 0 -176 -189h313q8 33 5 63q-2 56 -36.5 91t-105.5 35zM269 560l-77 140h52l65 -140h-40z" />
    <glyph glyph-name="eacute" unicode="&#xe9;" horiz-adv-x="530" 
d="M472 247h-361q2 -215 193 -215q90 0 156 20l7 -41q-76 -21 -170 -21q-240 0 -240 260t233 260q108 0 151.5 -58t39.5 -144q-1 -19 -9 -61zM287 470q-163 0 -176 -189h313q8 33 5 63q-2 56 -36.5 91t-105.5 35zM383 700l-77 -140h-40l65 140h52z" />
    <glyph glyph-name="ecircumflex" unicode="&#xea;" horiz-adv-x="530" 
d="M472 247h-361q2 -215 193 -215q90 0 156 20l7 -41q-76 -21 -170 -21q-240 0 -240 260t233 260q108 0 151.5 -58t39.5 -144q-1 -19 -9 -61zM287 470q-163 0 -176 -189h313q8 33 5 63q-2 56 -36.5 91t-105.5 35zM264 670l-82 -110h-40l104 140h37l104 -140h-40z" />
    <glyph glyph-name="edieresis" unicode="&#xeb;" horiz-adv-x="530" 
d="M472 247h-361q2 -215 193 -215q90 0 156 20l7 -41q-76 -21 -170 -21q-240 0 -240 260t233 260q108 0 151.5 -58t39.5 -144q-1 -19 -9 -61zM287 470q-163 0 -176 -189h313q8 33 5 63q-2 56 -36.5 91t-105.5 35zM141 685h43v-110h-43v110zM346 685h43v-110h-43v110z" />
    <glyph glyph-name="igrave" unicode="&#xec;" horiz-adv-x="185" 
d="M73 560l-77 140h52l65 -140h-40zM67 500h50v-500h-50v500z" />
    <glyph glyph-name="iacute" unicode="&#xed;" horiz-adv-x="185" 
d="M192 700l-77 -140h-40l65 140h52zM67 500h50v-500h-50v500z" />
    <glyph glyph-name="icircumflex" unicode="&#xee;" horiz-adv-x="185" 
d="M67 500h50v-500h-50v500zM92 670l-82 -110h-40l104 140h37l104 -140h-40z" />
    <glyph glyph-name="idieresis" unicode="&#xef;" horiz-adv-x="185" 
d="M-32 685h43v-110h-43v110zM173 685h43v-110h-43v110zM67 500h50v-500h-50v500z" />
    <glyph glyph-name="eth" unicode="&#xf0;" horiz-adv-x="550" 
d="M378 636l78 78l20 -20l-75 -76q91 -96 91 -318q0 -310 -225 -310q-91 0 -150.5 62.5t-59.5 167.5q0 112 54.5 173.5t152.5 61.5q105 0 176 -106l2 1q-6 160 -73 235l-81 -81l-20 21l76 77q-52 45 -127 45q-65 0 -131 -22l-8 39q75 26 143 26q94 0 157 -54zM439 305
q-30 47 -73 76.5t-90 29.5q-48 0 -82.5 -17.5t-52 -47.5t-24.5 -60.5t-7 -65.5q0 -88 47 -138t114 -50q176 0 168 273z" />
    <glyph glyph-name="ntilde" unicode="&#xf1;" horiz-adv-x="530" 
d="M117 391v-391h-50v500h50v-75h2q92 85 193 85q150 0 150 -163v-347h-50v337q0 130 -120 130q-83 0 -175 -76zM213 635q-20 0 -36 -9t-53 -46l-17 20q32 42 55 58t50 16q25 0 70 -31t60 -31q35 0 65 51l16 -20q-34 -68 -81 -68q-19 0 -64.5 30t-64.5 30z" />
    <glyph glyph-name="ograve" unicode="&#xf2;" horiz-adv-x="550" 
d="M275 467q-165 0 -165 -217q0 -218 165 -218t165 218q0 217 -165 217zM275 -10q-218 0 -218 260t218 260q217 0 217 -260t-217 -260zM263 560l-77 140h52l65 -140h-40z" />
    <glyph glyph-name="oacute" unicode="&#xf3;" horiz-adv-x="550" 
d="M275 467q-165 0 -165 -217q0 -218 165 -218t165 218q0 217 -165 217zM275 -10q-218 0 -218 260t218 260q217 0 217 -260t-217 -260zM360 700l-77 -140h-40l65 140h52z" />
    <glyph glyph-name="ocircumflex" unicode="&#xf4;" horiz-adv-x="550" 
d="M275 467q-165 0 -165 -217q0 -218 165 -218t165 218q0 217 -165 217zM275 -10q-218 0 -218 260t218 260q217 0 217 -260t-217 -260zM274 670l-82 -110h-40l104 140h37l104 -140h-40z" />
    <glyph glyph-name="otilde" unicode="&#xf5;" horiz-adv-x="550" 
d="M275 467q-165 0 -165 -217q0 -218 165 -218t165 218q0 217 -165 217zM275 -10q-218 0 -218 260t218 260q217 0 217 -260t-217 -260zM226 635q-20 0 -36 -9t-53 -46l-17 20q32 42 55 58t50 16q25 0 70 -31t60 -31q35 0 65 51l16 -20q-34 -68 -81 -68q-19 0 -64.5 30
t-64.5 30z" />
    <glyph glyph-name="odieresis" unicode="&#xf6;" horiz-adv-x="550" 
d="M275 467q-165 0 -165 -217q0 -218 165 -218t165 218q0 217 -165 217zM275 -10q-218 0 -218 260t218 260q217 0 217 -260t-217 -260zM149 685h43v-110h-43v110zM354 685h43v-110h-43v110z" />
    <glyph glyph-name="divide" unicode="&#xf7;" horiz-adv-x="500" 
d="M227 165h45v-110h-45v110zM227 475h45v-110h-45v110zM67 286h365v-42h-365v42z" />
    <glyph glyph-name="oslash" unicode="&#xf8;" horiz-adv-x="550" 
d="M275 -10q-102 0 -155 61l-66 -78l-19 16l67 79q-45 63 -45 182q0 260 218 260q99 0 154 -60l67 77l19 -15l-69 -80q46 -66 46 -182q0 -260 -217 -260zM275 32q165 0 165 218q0 86 -31 138l-257 -301q42 -55 123 -55zM275 467q-165 0 -165 -217q0 -88 30 -138l258 301
q-43 54 -123 54z" />
    <glyph glyph-name="ugrave" unicode="&#xf9;" horiz-adv-x="530" 
d="M412 109v391h50v-500h-50v75h-2q-92 -85 -193 -85q-150 0 -150 162v348h50v-338q0 -130 120 -130q82 0 175 77zM238 560l-77 140h52l65 -140h-40z" />
    <glyph glyph-name="uacute" unicode="&#xfa;" horiz-adv-x="530" 
d="M412 109v391h50v-500h-50v75h-2q-92 -85 -193 -85q-150 0 -150 162v348h50v-338q0 -130 120 -130q82 0 175 77zM350 700l-77 -140h-40l65 140h52z" />
    <glyph glyph-name="ucircumflex" unicode="&#xfb;" horiz-adv-x="530" 
d="M412 109v391h50v-500h-50v75h-2q-92 -85 -193 -85q-150 0 -150 162v348h50v-338q0 -130 120 -130q82 0 175 77zM264 670l-82 -110h-40l104 140h37l104 -140h-40z" />
    <glyph glyph-name="udieresis" unicode="&#xfc;" horiz-adv-x="530" 
d="M412 109v391h50v-500h-50v75h-2q-92 -85 -193 -85q-150 0 -150 162v348h50v-338q0 -130 120 -130q82 0 175 77zM141 685h43v-110h-43v110zM346 685h43v-110h-43v110z" />
    <glyph glyph-name="yacute" unicode="&#xfd;" horiz-adv-x="560" 
d="M259 -12l-204 512h56l176 -454h2l162 454h54l-200 -543q-31 -88 -74 -127.5t-106 -39.5q-35 0 -60 6l5 43q21 -5 45 -5t45.5 11t34.5 24t27.5 39t20 39zM384 700l-77 -140h-40l65 140h52z" />
    <glyph glyph-name="thorn" unicode="&#xfe;" horiz-adv-x="530" 
d="M117 700v-250h2q69 60 166 60q187 0 187 -260q0 -120 -45.5 -190t-144.5 -70q-96 0 -163 59h-2v-249h-50v900h50zM420 250q0 217 -153 217q-81 0 -150 -53v-328q67 -54 150 -54q153 0 153 218z" />
    <glyph glyph-name="ydieresis" unicode="&#xff;" horiz-adv-x="560" 
d="M259 -12l-204 512h56l176 -454h2l162 454h54l-200 -543q-31 -88 -74 -127.5t-106 -39.5q-35 0 -60 6l5 43q21 -5 45 -5t45.5 11t34.5 24t27.5 39t20 39zM156 685h43v-110h-43v110zM361 685h43v-110h-43v110z" />
    <glyph glyph-name="Amacron" unicode="&#x100;" horiz-adv-x="650" 
d="M544 0l-67 191h-304l-70 -191h-56l249 685h65l241 -685h-58zM328 620h-2l-141 -384h281zM177 812h295v-35h-295v35z" />
    <glyph glyph-name="amacron" unicode="&#x101;" horiz-adv-x="505" 
d="M255 467q-75 0 -161 -17l-8 41q94 19 179 19q88 0 130 -36.5t42 -126.5v-347h-50v50h-2q-78 -60 -168 -60q-76 0 -120.5 37.5t-44.5 103.5q0 149 210 149h125v65q0 62 -30.5 92t-101.5 30zM387 84v163h-122q-90 0 -126.5 -28.5t-36.5 -83.5q0 -47 34.5 -76t98.5 -29
q88 0 152 54zM118 642h295v-35h-295v35z" />
    <glyph glyph-name="Abreve" unicode="&#x102;" horiz-adv-x="650" 
d="M544 0l-67 191h-304l-70 -191h-56l249 685h65l241 -685h-58zM328 620h-2l-141 -384h281zM324 769q87 0 109 96h24q-9 -65 -45 -96.5t-88 -31.5q-50 0 -85.5 31.5t-45.5 96.5h24q22 -96 107 -96z" />
    <glyph glyph-name="abreve" unicode="&#x103;" horiz-adv-x="505" 
d="M255 467q-75 0 -161 -17l-8 41q94 19 179 19q88 0 130 -36.5t42 -126.5v-347h-50v50h-2q-78 -60 -168 -60q-76 0 -120.5 37.5t-44.5 103.5q0 149 210 149h125v65q0 62 -30.5 92t-101.5 30zM387 84v163h-122q-90 0 -126.5 -28.5t-36.5 -83.5q0 -47 34.5 -76t98.5 -29
q88 0 152 54zM271 599q87 0 109 96h24q-9 -65 -45 -96.5t-88 -31.5q-50 0 -85.5 31.5t-45.5 96.5h24q22 -96 107 -96z" />
    <glyph glyph-name="Aogonek" unicode="&#x104;" horiz-adv-x="650" 
d="M561 0h-17l-67 191h-304l-70 -191h-56l249 685h65l241 -685q-37 -17 -64.5 -53t-27.5 -67q0 -26 15 -40.5t42 -14.5t66 22l4 -16q-37 -29 -85 -29q-31 0 -54 16.5t-23 49.5q0 35 24.5 70.5t61.5 61.5zM328 620h-1l-142 -384h281z" />
    <glyph glyph-name="aogonek" unicode="&#x105;" horiz-adv-x="505" 
d="M398 0h-11v50h-2q-78 -60 -168 -60q-76 0 -120.5 37.5t-44.5 103.5q0 149 210 149h125v65q0 62 -30.5 92t-101.5 30q-75 0 -161 -17l-8 41q94 19 179 19q88 0 130 -36.5t42 -126.5v-347q-38 -19 -64 -54t-26 -66q0 -55 56 -55q30 0 66 22l4 -16q-37 -29 -85 -29
q-32 0 -54.5 16.5t-22.5 51.5q0 67 87 130zM387 84v163h-122q-90 0 -126.5 -28.5t-36.5 -83.5q0 -47 34.5 -76t98.5 -29q88 0 152 54z" />
    <glyph glyph-name="Cacute" unicode="&#x106;" horiz-adv-x="620" 
d="M67 345q0 60 7 108t26 93.5t49.5 76t80 49t115.5 18.5q113 0 225 -33l-12 -45q-121 30 -209 30q-68 0 -114.5 -23.5t-70 -67.5t-33 -93t-9.5 -113q0 -68 9.5 -119t33 -96t70 -69t114.5 -24q88 0 209 30l12 -45q-113 -32 -225 -32q-66 0 -115.5 18.5t-80 50t-49.5 78
t-26 96.5t-7 112zM459 850l-77 -140h-40l65 140h52z" />
    <glyph glyph-name="cacute" unicode="&#x107;" horiz-adv-x="480" 
d="M57 250q0 260 233 260q81 0 165 -21l-10 -42q-77 20 -155 20q-94 0 -137 -59.5t-43 -157.5t43 -158t137 -60q78 0 155 20l10 -41q-84 -21 -165 -21q-233 0 -233 260zM361 700l-77 -140h-40l65 140h52z" />
    <glyph glyph-name="Ccircumflex" unicode="&#x108;" horiz-adv-x="620" 
d="M67 345q0 60 7 108t26 93.5t49.5 76t80 49t115.5 18.5q113 0 225 -33l-12 -45q-121 30 -209 30q-68 0 -114.5 -23.5t-70 -67.5t-33 -93t-9.5 -113q0 -68 9.5 -119t33 -96t70 -69t114.5 -24q88 0 209 30l12 -45q-113 -32 -225 -32q-66 0 -115.5 18.5t-80 50t-49.5 78
t-26 96.5t-7 112zM350 820l-82 -110h-40l104 140h37l104 -140h-40z" />
    <glyph glyph-name="ccircumflex" unicode="&#x109;" horiz-adv-x="480" 
d="M57 250q0 260 233 260q81 0 165 -21l-10 -42q-77 20 -155 20q-94 0 -137 -59.5t-43 -157.5t43 -158t137 -60q78 0 155 20l10 -41q-84 -21 -165 -21q-233 0 -233 260zM275 670l-82 -110h-40l104 140h37l104 -140h-40z" />
    <glyph glyph-name="Cdotaccent" unicode="&#x10a;" horiz-adv-x="620" 
d="M67 345q0 60 7 108t26 93.5t49.5 76t80 49t115.5 18.5q113 0 225 -33l-12 -45q-121 30 -209 30q-68 0 -114.5 -23.5t-70 -67.5t-33 -93t-9.5 -113q0 -68 9.5 -119t33 -96t70 -69t114.5 -24q88 0 209 30l12 -45q-113 -32 -225 -32q-66 0 -115.5 18.5t-80 50t-49.5 78
t-26 96.5t-7 112zM337 850h45v-105h-45v105z" />
    <glyph glyph-name="cdotaccent" unicode="&#x10b;" horiz-adv-x="480" 
d="M57 250q0 260 233 260q81 0 165 -21l-10 -42q-77 20 -155 20q-94 0 -137 -59.5t-43 -157.5t43 -158t137 -60q78 0 155 20l10 -41q-84 -21 -165 -21q-233 0 -233 260zM260 680h45v-105h-45v105z" />
    <glyph glyph-name="Ccaron" unicode="&#x10c;" horiz-adv-x="620" 
d="M67 345q0 60 7 108t26 93.5t49.5 76t80 49t115.5 18.5q113 0 225 -33l-12 -45q-121 30 -209 30q-68 0 -114.5 -23.5t-70 -67.5t-33 -93t-9.5 -113q0 -68 9.5 -119t33 -96t70 -69t114.5 -24q88 0 209 30l12 -45q-113 -32 -225 -32q-66 0 -115.5 18.5t-80 50t-49.5 78
t-26 96.5t-7 112zM280 850l82 -110l83 110h40l-104 -140h-37l-104 140h40z" />
    <glyph glyph-name="ccaron" unicode="&#x10d;" horiz-adv-x="480" 
d="M57 250q0 260 233 260q81 0 165 -21l-10 -42q-77 20 -155 20q-94 0 -137 -59.5t-43 -157.5t43 -158t137 -60q78 0 155 20l10 -41q-84 -21 -165 -21q-233 0 -233 260zM207 700l82 -110l83 110h40l-104 -140h-37l-104 140h40z" />
    <glyph glyph-name="Dcaron" unicode="&#x10e;" horiz-adv-x="650" 
d="M309 0h-232v680h232q273 0 273 -335q0 -345 -273 -345zM130 47h179q218 0 218 298q0 63 -9.5 111t-33 89.5t-67.5 64t-108 22.5h-179v-585zM221 850l82 -110l83 110h40l-104 -140h-37l-104 140h40z" />
    <glyph glyph-name="dcaron" unicode="&#x10f;" horiz-adv-x="577" 
d="M412 0v50h-2q-67 -60 -165 -60q-188 0 -188 260q0 119 45.5 189.5t144.5 70.5q97 0 163 -59h2v249h50v-700h-50zM110 250q0 -218 152 -218q86 0 150 54v328q-66 53 -150 53q-152 0 -152 -217zM541 542h-19l12 88h-13v70h45v-70z" />
    <glyph glyph-name="Dcroat" unicode="&#x110;" horiz-adv-x="655" 
d="M314 0h-232v329h-55v32h55v319h232q273 0 273 -335q0 -345 -273 -345zM135 47h179q218 0 218 298q0 63 -9.5 111t-33 89.5t-67.5 64t-108 22.5h-179v-271h130v-32h-130v-282z" />
    <glyph glyph-name="dcroat" unicode="&#x111;" horiz-adv-x="530" 
d="M412 0v50h-2q-67 -60 -165 -60q-188 0 -188 260q0 119 45.5 189.5t144.5 70.5q97 0 163 -59h2v123h-115v32h115v94h50v-94h70v-32h-70v-574h-50zM110 250q0 -218 152 -218q86 0 150 54v328q-66 53 -150 53q-152 0 -152 -217z" />
    <glyph glyph-name="Emacron" unicode="&#x112;" horiz-adv-x="560" 
d="M487 680v-48h-357v-255h312v-47h-312v-283h362v-47h-415v680h410zM140 812h295v-35h-295v35z" />
    <glyph glyph-name="emacron" unicode="&#x113;" horiz-adv-x="530" 
d="M472 247h-361q2 -215 193 -215q90 0 156 20l7 -41q-76 -21 -170 -21q-240 0 -240 260t233 260q108 0 151.5 -58t39.5 -144q-1 -19 -9 -61zM287 470q-163 0 -176 -189h313q8 33 5 63q-2 56 -36.5 91t-105.5 35zM135 642h295v-35h-295v35z" />
    <glyph glyph-name="Ebreve" unicode="&#x114;" horiz-adv-x="560" 
d="M487 680v-48h-357v-255h312v-47h-312v-283h362v-47h-415v680h410zM287 769q87 0 109 96h24q-9 -65 -45 -96.5t-88 -31.5q-50 0 -85.5 31.5t-45.5 96.5h24q22 -96 107 -96z" />
    <glyph glyph-name="ebreve" unicode="&#x115;" horiz-adv-x="530" 
d="M472 247h-361q2 -215 193 -215q90 0 156 20l7 -41q-76 -21 -170 -21q-240 0 -240 260t233 260q108 0 151.5 -58t39.5 -144q-1 -19 -9 -61zM287 470q-163 0 -176 -189h313q8 33 5 63q-2 56 -36.5 91t-105.5 35zM289 599q87 0 109 96h24q-9 -65 -45 -96.5t-88 -31.5
q-50 0 -85.5 31.5t-45.5 96.5h24q22 -96 107 -96z" />
    <glyph glyph-name="Edotaccent" unicode="&#x116;" horiz-adv-x="560" 
d="M487 680v-48h-357v-255h312v-47h-312v-283h362v-47h-415v680h410zM266 850h45v-105h-45v105z" />
    <glyph glyph-name="edotaccent" unicode="&#x117;" horiz-adv-x="530" 
d="M472 247h-361q2 -215 193 -215q90 0 156 20l7 -41q-76 -21 -170 -21q-240 0 -240 260t233 260q108 0 151.5 -58t39.5 -144q-1 -19 -9 -61zM287 470q-163 0 -176 -189h313q8 33 5 63q-2 56 -36.5 91t-105.5 35zM263 680h45v-105h-45v105z" />
    <glyph glyph-name="Eogonek" unicode="&#x118;" horiz-adv-x="560" 
d="M536 -153l4 -16q-37 -29 -85 -29q-31 0 -54 16.5t-23 49.5q0 67 85 132h-386v680h410v-48h-357v-255h312v-47h-312v-283h362v-47q-33 -25 -55.5 -58.5t-22.5 -61.5q0 -55 56 -55q28 0 66 22z" />
    <glyph glyph-name="eogonek" unicode="&#x119;" horiz-adv-x="530" 
d="M111 281h313q8 33 5 63q-2 56 -36.5 91t-105.5 35q-163 0 -176 -189zM472 247h-361q2 -215 193 -215q90 0 156 20l7 -41q-33 -24 -55.5 -58t-22.5 -62q0 -55 56 -55q27 0 66 22l4 -15q-37 -29 -85 -29q-31 0 -54 16.5t-23 49.5q0 63 73 122q-67 -12 -129 -12
q-240 0 -240 260t233 260q108 0 151.5 -58t39.5 -144q-1 -19 -9 -61z" />
    <glyph glyph-name="Ecaron" unicode="&#x11a;" horiz-adv-x="560" 
d="M487 680v-48h-357v-255h312v-47h-312v-283h362v-47h-415v680h410zM204 850l82 -110l83 110h40l-104 -140h-37l-104 140h40z" />
    <glyph glyph-name="ecaron" unicode="&#x11b;" horiz-adv-x="530" 
d="M472 247h-361q2 -215 193 -215q90 0 156 20l7 -41q-76 -21 -170 -21q-240 0 -240 260t233 260q108 0 151.5 -58t39.5 -144q-1 -19 -9 -61zM287 470q-163 0 -176 -189h313q8 33 5 63q-2 56 -36.5 91t-105.5 35zM208 700l82 -110l83 110h40l-104 -140h-37l-104 140h40z" />
    <glyph glyph-name="Gcircumflex" unicode="&#x11c;" horiz-adv-x="640" 
d="M345 -10q-66 0 -115.5 18.5t-80 50t-49.5 78t-26 96.5t-7 112q0 60 7 108t26 93.5t49.5 76t80 49t115.5 18.5q107 0 217 -33l-12 -45q-120 30 -201 30q-68 0 -114.5 -23.5t-70 -67.5t-33 -93t-9.5 -113q0 -68 9.5 -119t33 -96t70 -69t114.5 -24q87 0 161 49v201h-155v48
h207v-284q-109 -61 -217 -61zM347 820l-82 -110h-40l104 140h37l104 -140h-40z" />
    <glyph glyph-name="gcircumflex" unicode="&#x11d;" horiz-adv-x="555" 
d="M82 -73q0 -102 167 -102q94 0 153.5 32t59.5 92q0 67 -103 72l-195 10q-42 -26 -62 -48t-20 -56zM265 212q65 0 103.5 35t38.5 93q0 60 -38.5 97.5t-103.5 37.5q-72 0 -109 -36.5t-37 -98.5q0 -59 39 -93.5t107 -34.5zM135 40v2q-43 19 -36 67q5 52 57 89v2
q-85 42 -85 140q0 79 51 124.5t143 45.5q29 0 65 -10h167v-33h-113q70 -41 70 -127q0 -78 -53 -120.5t-136 -42.5q-48 0 -81 14q-17 -16 -28 -36q-16 -28 -8.5 -54.5t39.5 -27.5l189 -11q139 -8 139 -105q0 -79 -69.5 -123t-210.5 -44q-195 0 -195 130q0 69 95 120zM272 670
l-82 -110h-40l104 140h37l104 -140h-40z" />
    <glyph glyph-name="Gbreve" unicode="&#x11e;" horiz-adv-x="640" 
d="M345 -10q-66 0 -115.5 18.5t-80 50t-49.5 78t-26 96.5t-7 112q0 60 7 108t26 93.5t49.5 76t80 49t115.5 18.5q107 0 217 -33l-12 -45q-120 30 -201 30q-68 0 -114.5 -23.5t-70 -67.5t-33 -93t-9.5 -113q0 -68 9.5 -119t33 -96t70 -69t114.5 -24q87 0 161 49v201h-155v48
h207v-284q-109 -61 -217 -61zM345 769q87 0 109 96h24q-9 -65 -45 -96.5t-88 -31.5q-50 0 -85.5 31.5t-45.5 96.5h24q22 -96 107 -96z" />
    <glyph glyph-name="gbreve" unicode="&#x11f;" horiz-adv-x="555" 
d="M82 -73q0 -102 167 -102q94 0 153.5 32t59.5 92q0 67 -103 72l-195 10q-42 -26 -62 -48t-20 -56zM265 212q65 0 103.5 35t38.5 93q0 60 -38.5 97.5t-103.5 37.5q-72 0 -109 -36.5t-37 -98.5q0 -59 39 -93.5t107 -34.5zM135 40v2q-43 19 -36 67q5 52 57 89v2
q-85 42 -85 140q0 79 51 124.5t143 45.5q29 0 65 -10h167v-33h-113q70 -41 70 -127q0 -78 -53 -120.5t-136 -42.5q-48 0 -81 14q-17 -16 -28 -36q-16 -28 -8.5 -54.5t39.5 -27.5l189 -11q139 -8 139 -105q0 -79 -69.5 -123t-210.5 -44q-195 0 -195 130q0 69 95 120zM263 599
q87 0 109 96h24q-9 -65 -45 -96.5t-88 -31.5q-50 0 -85.5 31.5t-45.5 96.5h24q22 -96 107 -96z" />
    <glyph glyph-name="Gdotaccent" unicode="&#x120;" horiz-adv-x="640" 
d="M345 -10q-66 0 -115.5 18.5t-80 50t-49.5 78t-26 96.5t-7 112q0 60 7 108t26 93.5t49.5 76t80 49t115.5 18.5q107 0 217 -33l-12 -45q-120 30 -201 30q-68 0 -114.5 -23.5t-70 -67.5t-33 -93t-9.5 -113q0 -68 9.5 -119t33 -96t70 -69t114.5 -24q87 0 161 49v201h-155v48
h207v-284q-109 -61 -217 -61zM316 850h45v-105h-45v105z" />
    <glyph glyph-name="gdotaccent" unicode="&#x121;" horiz-adv-x="555" 
d="M82 -73q0 -102 167 -102q94 0 153.5 32t59.5 92q0 67 -103 72l-195 10q-42 -26 -62 -48t-20 -56zM265 212q65 0 103.5 35t38.5 93q0 60 -38.5 97.5t-103.5 37.5q-72 0 -109 -36.5t-37 -98.5q0 -59 39 -93.5t107 -34.5zM135 40v2q-43 19 -36 67q5 52 57 89v2
q-85 42 -85 140q0 79 51 124.5t143 45.5q29 0 65 -10h167v-33h-113q70 -41 70 -127q0 -78 -53 -120.5t-136 -42.5q-48 0 -81 14q-17 -16 -28 -36q-16 -28 -8.5 -54.5t39.5 -27.5l189 -11q139 -8 139 -105q0 -79 -69.5 -123t-210.5 -44q-195 0 -195 130q0 69 95 120zM241 680
h45v-105h-45v105z" />
    <glyph glyph-name="Gcommaaccent" unicode="&#x122;" horiz-adv-x="640" 
d="M345 -10q-66 0 -115.5 18.5t-80 50t-49.5 78t-26 96.5t-7 112q0 60 7 108t26 93.5t49.5 76t80 49t115.5 18.5q107 0 217 -33l-12 -45q-120 30 -201 30q-68 0 -114.5 -23.5t-70 -67.5t-33 -93t-9.5 -113q0 -68 9.5 -119t33 -96t70 -69t114.5 -24q87 0 161 49v201h-155v48
h207v-284q-109 -61 -217 -61zM345 -198h-19l12 88h-13v70h45v-70z" />
    <glyph glyph-name="gcommaaccent" unicode="&#x123;" horiz-adv-x="555" 
d="M82 -73q0 -102 167 -102q94 0 153.5 32t59.5 92q0 67 -103 72l-195 10q-42 -26 -62 -48t-20 -56zM265 212q65 0 103.5 35t38.5 93q0 60 -38.5 97.5t-103.5 37.5q-72 0 -109 -36.5t-37 -98.5q0 -59 39 -93.5t107 -34.5zM135 40v2q-43 19 -36 67q5 52 57 89v2
q-85 42 -85 140q0 79 51 124.5t143 45.5q29 0 65 -10h167v-33h-113q70 -41 70 -127q0 -78 -53 -120.5t-136 -42.5q-48 0 -81 14q-17 -16 -28 -36q-16 -28 -8.5 -54.5t39.5 -27.5l189 -11q139 -8 139 -105q0 -79 -69.5 -123t-210.5 -44q-195 0 -195 130q0 69 95 120zM267 727
h19l-12 -87h13v-70h-45v70z" />
    <glyph glyph-name="Hcircumflex" unicode="&#x124;" horiz-adv-x="640" 
d="M130 0h-53v680h53v-303h380v303h52v-680h-52v330h-380v-330zM319 820l-82 -110h-40l104 140h37l104 -140h-40z" />
    <glyph glyph-name="hcircumflex" unicode="&#x125;" horiz-adv-x="530" 
d="M117 391v-391h-50v700h50v-275h2q92 85 193 85q150 0 150 -163v-347h-50v337q0 130 -120 130q-83 0 -175 -76zM92 860l-82 -110h-40l104 140h37l104 -140h-40z" />
    <glyph glyph-name="Hbar" unicode="&#x126;" horiz-adv-x="640" 
d="M7 566h70v114h53v-114h380v114h52v-114h70v-32h-70v-534h-52v330h-380v-330h-53v534h-70v32zM130 377h380v157h-380v-157z" />
    <glyph glyph-name="hbar" unicode="&#x127;" horiz-adv-x="530" 
d="M117 574v-149h2q92 85 193 85q150 0 150 -163v-347h-50v337q0 130 -120 130q-83 0 -175 -76v-391h-50v574h-70v32h70v94h50v-94h115v-32h-115z" />
    <glyph glyph-name="Itilde" unicode="&#x128;" horiz-adv-x="207" 
d="M129 0h-53v680h53v-680zM52 795q-20 0 -36 -9t-53 -46l-17 20q32 42 55 58t50 16q25 0 70 -31t60 -31q35 0 65 51l16 -20q-34 -68 -81 -68q-19 0 -64.5 30t-64.5 30z" />
    <glyph glyph-name="itilde" unicode="&#x129;" horiz-adv-x="185" 
d="M41 635q-20 0 -36 -9t-53 -46l-17 20q32 42 55 58t50 16q25 0 70 -31t60 -31q35 0 65 51l16 -20q-34 -68 -81 -68q-19 0 -64.5 30t-64.5 30zM67 500h50v-500h-50v500z" />
    <glyph glyph-name="Imacron" unicode="&#x12a;" horiz-adv-x="207" 
d="M126 0h-53v680h53v-680zM-44 812h295v-35h-295v35z" />
    <glyph glyph-name="imacron" unicode="&#x12b;" horiz-adv-x="185" 
d="M-55 642h295v-35h-295v35zM67 500h50v-500h-50v500z" />
    <glyph glyph-name="Ibreve" unicode="&#x12c;" horiz-adv-x="207" 
d="M132 0h-53v680h53v-680zM102 769q87 0 109 96h24q-9 -65 -45 -96.5t-88 -31.5q-50 0 -85.5 31.5t-45.5 96.5h24q22 -96 107 -96z" />
    <glyph glyph-name="ibreve" unicode="&#x12d;" horiz-adv-x="185" 
d="M91 599q87 0 109 96h24q-9 -65 -45 -96.5t-88 -31.5q-50 0 -85.5 31.5t-45.5 96.5h24q22 -96 107 -96zM67 500h50v-500h-50v500z" />
    <glyph glyph-name="Iogonek" unicode="&#x12e;" horiz-adv-x="207" 
d="M91 0h-14v680h53v-680q-39 -22 -64.5 -56t-25.5 -64q0 -26 15 -40.5t42 -14.5t66 22l4 -16q-37 -29 -85 -29q-31 0 -54 16.5t-23 49.5q0 70 86 132z" />
    <glyph glyph-name="iogonek" unicode="&#x12f;" horiz-adv-x="185" 
d="M117 500v-500q-35 -19 -60 -54.5t-25 -65.5q0 -55 56 -55q28 0 66 22l4 -16q-37 -29 -85 -29q-30 0 -53.5 17t-23.5 49q0 67 85 132q-3 11 -14 47v453h50zM67 700h50v-113h-50v113z" />
    <glyph glyph-name="Idotaccent" unicode="&#x130;" horiz-adv-x="207" 
d="M130 0h-53v680h53v-680zM81 850h45v-105h-45v105z" />
    <glyph glyph-name="dotlessi" unicode="&#x131;" horiz-adv-x="185" 
d="M67 500h50v-500h-50v500z" />
    <glyph glyph-name="IJ" unicode="&#x132;" horiz-adv-x="525" 
d="M130 0h-53v680h53v-680zM447 680v-520q0 -94 -34.5 -132t-105.5 -38q-42 0 -78 6l5 45q31 -5 61 -5q55 0 77.5 30t22.5 97v517h52z" />
    <glyph glyph-name="ij" unicode="&#x133;" horiz-adv-x="364" 
d="M67 500h50v-500h-50v500zM67 680h50v-113h-50v113zM297 500v-584q0 -69 -30.5 -97.5t-102.5 -28.5q-34 0 -72 6l5 40q31 -5 57 -5q53 0 73 20.5t20 71.5v577h50zM247 680h50v-113h-50v113z" />
    <glyph glyph-name="Jcircumflex" unicode="&#x134;" horiz-adv-x="317" 
d="M240 680v-520q0 -94 -34.5 -132t-105.5 -38q-42 0 -79 6l5 45q32 -5 61 -5q55 0 77.5 30t22.5 97v517h53zM213 820l-82 -110h-40l104 140h37l104 -140h-40z" />
    <glyph glyph-name="jcircumflex" unicode="&#x135;" horiz-adv-x="225" 
d="M157 500v-584q0 -69 -30 -97.5t-102 -28.5q-35 0 -73 6l6 40q30 -5 57 -5q53 0 72.5 20t19.5 72v577h50zM132 670l-82 -110h-40l104 140h37l104 -140h-40z" />
    <glyph glyph-name="Kcommaaccent" unicode="&#x136;" horiz-adv-x="619" 
d="M130 680v-396l367 396h63l-252 -278l259 -402h-66l-232 360l-139 -148v-212h-53v680h53zM310 -191h-19l12 88h-13v70h45v-70z" />
    <glyph glyph-name="kcommaaccent" unicode="&#x137;" horiz-adv-x="530" 
d="M117 700v-434l293 234h62l-197 -165l207 -335h-59l-184 307l-122 -96v-211h-50v700h50zM254 -198h-19l12 88h-13v70h45v-70z" />
    <glyph glyph-name="kgreenlandic" unicode="&#x138;" horiz-adv-x="530" 
d="M117 500v-234l293 234h62l-197 -165l207 -335h-59l-184 307l-122 -96v-211h-50v500h50z" />
    <glyph glyph-name="Lacute" unicode="&#x139;" horiz-adv-x="540" 
d="M77 680h53v-633h352v-47h-405v680zM201 850l-77 -140h-40l65 140h52z" />
    <glyph glyph-name="lacute" unicode="&#x13a;" horiz-adv-x="185" 
d="M67 0v700h50v-700h-50zM191 890l-77 -140h-40l65 140h52z" />
    <glyph glyph-name="Lcommaaccent" unicode="&#x13b;" horiz-adv-x="540" 
d="M77 680h53v-633h352v-47h-405v680zM284 -190h-19l12 88h-13v70h45v-70z" />
    <glyph glyph-name="lcommaaccent" unicode="&#x13c;" horiz-adv-x="185" 
d="M67 0v700h50v-700h-50zM90 -198h-19l12 88h-13v70h45v-70z" />
    <glyph glyph-name="Lcaron" unicode="&#x13d;" horiz-adv-x="540" 
d="M77 680h53v-633h352v-47h-405v680zM270 522h-19l12 88h-13v70h45v-70z" />
    <glyph glyph-name="lcaron" unicode="&#x13e;" horiz-adv-x="224" 
d="M67 0v700h50v-700h-50zM189 542h-19l12 88h-13v70h45v-70z" />
    <glyph glyph-name="Ldot" unicode="&#x13f;" horiz-adv-x="540" 
d="M77 680h53v-633h352v-47h-405v680zM274 435h45v-110h-45v110z" />
    <glyph glyph-name="ldot" unicode="&#x140;" horiz-adv-x="230" 
d="M67 0v700h50v-700h-50zM174 415h45v-110h-45v110z" />
    <glyph glyph-name="Lslash" unicode="&#x141;" horiz-adv-x="550" 
d="M255 394l-115 -29v-318h352v-47h-405v353l-70 -17v33l70 16v295h53v-282l115 28v-32z" />
    <glyph glyph-name="lslash" unicode="&#x142;" horiz-adv-x="225" 
d="M245 374l-108 -27v-347h-50v335l-107 -26v32l107 26v333h50v-320l108 26v-32z" />
    <glyph glyph-name="Nacute" unicode="&#x143;" horiz-adv-x="650" 
d="M129 0h-52v680h53l389 -582h2v582h51v-680h-52l-389 577h-2v-577zM428 850l-77 -140h-40l65 140h52z" />
    <glyph glyph-name="nacute" unicode="&#x144;" horiz-adv-x="530" 
d="M117 391v-391h-50v500h50v-75h2q92 85 193 85q150 0 150 -163v-347h-50v337q0 130 -120 130q-83 0 -175 -76zM359 700l-77 -140h-40l65 140h52z" />
    <glyph glyph-name="Ncommaaccent" unicode="&#x145;" horiz-adv-x="650" 
d="M129 0h-52v680h53l389 -582h2v582h51v-680h-52l-389 577h-2v-577zM324 -198h-19l12 88h-13v70h45v-70z" />
    <glyph glyph-name="ncommaaccent" unicode="&#x146;" horiz-adv-x="530" 
d="M117 391v-391h-50v500h50v-75h2q92 85 193 85q150 0 150 -163v-347h-50v337q0 130 -120 130q-83 0 -175 -76zM265 717h19l-12 -87h13v-70h-45v70z" />
    <glyph glyph-name="Ncaron" unicode="&#x147;" horiz-adv-x="650" 
d="M129 0h-52v680h53l389 -582h2v582h51v-680h-52l-389 577h-2v-577zM242 850l82 -110l83 110h40l-104 -140h-37l-104 140h40z" />
    <glyph glyph-name="ncaron" unicode="&#x148;" horiz-adv-x="530" 
d="M117 391v-391h-50v500h50v-75h2q92 85 193 85q150 0 150 -163v-347h-50v337q0 130 -120 130q-83 0 -175 -76zM182 700l82 -110l83 110h40l-104 -140h-37l-104 140h40z" />
    <glyph glyph-name="napostrophe" unicode="&#x149;" horiz-adv-x="530" 
d="M117 391v-391h-50v500h50v-75h2q92 85 193 85q150 0 150 -163v-347h-50v337q0 130 -120 130q-83 0 -175 -76zM94 543h-19l12 87h-13v70h45v-70z" />
    <glyph glyph-name="Eng" unicode="&#x14a;" horiz-adv-x="650" 
d="M522 -78v78l-391 577h-2v-577h-52v680h53l389 -582h2v582h51v-765q0 -69 -30 -97.5t-102 -28.5q-23 0 -73 6l6 40q40 -5 57 -5q53 0 72.5 20t19.5 72z" />
    <glyph glyph-name="eng" unicode="&#x14b;" horiz-adv-x="530" 
d="M412 -77v414q0 130 -120 130q-83 0 -175 -76v-391h-50v500h50v-75h2q92 85 193 85q150 0 150 -163v-431q0 -69 -30 -97.5t-102 -28.5q-36 0 -73 6l6 40q30 -5 57 -5q53 0 72.5 20t19.5 72z" />
    <glyph glyph-name="Omacron" unicode="&#x14c;" horiz-adv-x="690" 
d="M345 645q-69 0 -115 -24t-68.5 -69t-31 -93.5t-8.5 -113.5q0 -51 4.5 -92t19 -83.5t38.5 -70.5t65 -46t96 -18t96 18t64.5 46t38 70.5t19 83.5t4.5 92t-4.5 91t-18.5 81t-38 67.5t-65 43.5t-96 17zM345 -10q-66 0 -115.5 19t-80 50.5t-49.5 78.5t-26 96.5t-7 110.5
q0 60 7 108t26 93.5t49.5 76t80 49t115.5 18.5t115.5 -18.5t80 -49t49 -76t25.5 -93.5t7 -108q0 -61 -7 -110.5t-25.5 -96.5t-49 -78.5t-80 -50.5t-115.5 -19zM197 812h295v-35h-295v35z" />
    <glyph glyph-name="omacron" unicode="&#x14d;" horiz-adv-x="550" 
d="M275 467q-165 0 -165 -217q0 -218 165 -218t165 218q0 217 -165 217zM275 -10q-218 0 -218 260t218 260q217 0 217 -260t-217 -260zM127 642h295v-35h-295v35z" />
    <glyph glyph-name="Obreve" unicode="&#x14e;" horiz-adv-x="690" 
d="M345 645q-69 0 -115 -24t-68.5 -69t-31 -93.5t-8.5 -113.5q0 -51 4.5 -92t19 -83.5t38.5 -70.5t65 -46t96 -18t96 18t64.5 46t38 70.5t19 83.5t4.5 92t-4.5 91t-18.5 81t-38 67.5t-65 43.5t-96 17zM345 -10q-66 0 -115.5 19t-80 50.5t-49.5 78.5t-26 96.5t-7 110.5
q0 60 7 108t26 93.5t49.5 76t80 49t115.5 18.5t115.5 -18.5t80 -49t49 -76t25.5 -93.5t7 -108q0 -61 -7 -110.5t-25.5 -96.5t-49 -78.5t-80 -50.5t-115.5 -19zM344 769q87 0 109 96h24q-9 -65 -45 -96.5t-88 -31.5q-50 0 -85.5 31.5t-45.5 96.5h24q22 -96 107 -96z" />
    <glyph glyph-name="obreve" unicode="&#x14f;" horiz-adv-x="550" 
d="M275 467q-165 0 -165 -217q0 -218 165 -218t165 218q0 217 -165 217zM275 -10q-218 0 -218 260t218 260q217 0 217 -260t-217 -260zM274 599q87 0 109 96h24q-9 -65 -45 -96.5t-88 -31.5q-50 0 -85.5 31.5t-45.5 96.5h24q22 -96 107 -96z" />
    <glyph glyph-name="Ohungarumlaut" unicode="&#x150;" horiz-adv-x="690" 
d="M345 645q-69 0 -115 -24t-68.5 -69t-31 -93.5t-8.5 -113.5q0 -51 4.5 -92t19 -83.5t38.5 -70.5t65 -46t96 -18t96 18t64.5 46t38 70.5t19 83.5t4.5 92t-4.5 91t-18.5 81t-38 67.5t-65 43.5t-96 17zM345 -10q-66 0 -115.5 19t-80 50.5t-49.5 78.5t-26 96.5t-7 110.5
q0 60 7 108t26 93.5t49.5 76t80 49t115.5 18.5t115.5 -18.5t80 -49t49 -76t25.5 -93.5t7 -108q0 -61 -7 -110.5t-25.5 -96.5t-49 -78.5t-80 -50.5t-115.5 -19zM370 850l-70 -120h-30l65 120h35zM477 850l-70 -120h-30l65 120h35z" />
    <glyph glyph-name="ohungarumlaut" unicode="&#x151;" horiz-adv-x="550" 
d="M275 467q-165 0 -165 -217q0 -218 165 -218t165 218q0 217 -165 217zM275 -10q-218 0 -218 260t218 260q217 0 217 -260t-217 -260zM298 680l-70 -120h-30l65 120h35zM405 680l-70 -120h-30l65 120h35z" />
    <glyph glyph-name="OE" unicode="&#x152;" horiz-adv-x="1049" 
d="M976 680v-48h-357v-255h312v-47h-312v-283h362v-47h-414v161h-1q-10 -47 -33.5 -81.5t-48 -51t-56.5 -26t-48.5 -11t-34.5 -1.5q-67 0 -117.5 20t-80.5 52t-48.5 79.5t-25 95.5t-6.5 108t7 108t26 93.5t49.5 76t80 49t115.5 18.5q177 0 221 -166h1v156h409zM345 645
q-69 0 -115 -24t-68.5 -69t-31 -93.5t-8.5 -113.5q0 -51 4.5 -92t19 -83.5t38.5 -70.5t65 -46t96 -18t96 18t65 46.5t38 72t18.5 86t4.5 96.5q0 50 -5 89t-19.5 78.5t-38.5 65.5t-64.5 42t-94.5 16z" />
    <glyph glyph-name="oe" unicode="&#x153;" horiz-adv-x="913" 
d="M855 247h-361q2 -215 192 -215q91 0 157 20l7 -41q-77 -21 -170 -21q-175 0 -213 152q-37 -152 -192 -152q-218 0 -218 260t218 260q155 0 192 -153q39 153 206 153q57 0 97 -17t59.5 -46t27.5 -58t8 -63t-10 -79zM275 467q-165 0 -165 -217q0 -218 165 -218t165 218
q0 217 -165 217zM670 470q-163 0 -176 -189h313q7 30 7 52q0 59 -34.5 98t-109.5 39z" />
    <glyph glyph-name="Racute" unicode="&#x154;" horiz-adv-x="615" 
d="M564 0h-62l-181 287h-191v-287h-53v680h270q92 0 143.5 -56t51.5 -140q0 -77 -44 -129t-122 -60zM130 632v-297h205q70 0 112 39.5t42 109.5q0 66 -39.5 107t-107.5 41h-212zM381 850l-77 -140h-40l65 140h52z" />
    <glyph glyph-name="racute" unicode="&#x155;" horiz-adv-x="370" 
d="M117 386v-386h-50v500h50v-80h2q100 90 203 90v-48q-55 0 -111 -23.5t-94 -52.5zM271 700l-77 -140h-40l65 140h52z" />
    <glyph glyph-name="Rcommaaccent" unicode="&#x156;" horiz-adv-x="615" 
d="M564 0h-62l-181 287h-191v-287h-53v680h270q92 0 143.5 -56t51.5 -140q0 -77 -44 -129t-122 -60zM130 632v-297h205q70 0 112 39.5t42 109.5q0 66 -39.5 107t-107.5 41h-212zM317 -192h-19l12 88h-13v70h45v-70z" />
    <glyph glyph-name="rcommaaccent" unicode="&#x157;" horiz-adv-x="370" 
d="M117 386v-386h-50v500h50v-80h2q100 90 203 90v-48q-55 0 -111 -23.5t-94 -52.5zM89 -198h-19l12 88h-13v70h45v-70z" />
    <glyph glyph-name="Rcaron" unicode="&#x158;" horiz-adv-x="615" 
d="M564 0h-62l-181 287h-191v-287h-53v680h270q92 0 143.5 -56t51.5 -140q0 -77 -44 -129t-122 -60zM130 632v-297h205q70 0 112 39.5t42 109.5q0 66 -39.5 107t-107.5 41h-212zM208 850l82 -110l83 110h40l-104 -140h-37l-104 140h40z" />
    <glyph glyph-name="rcaron" unicode="&#x159;" horiz-adv-x="370" 
d="M117 386v-386h-50v500h50v-80h2q100 90 203 90v-48q-55 0 -111 -23.5t-94 -52.5zM111 700l82 -110l83 110h40l-104 -140h-37l-104 140h40z" />
    <glyph glyph-name="Sacute" unicode="&#x15a;" 
d="M300 -10q-120 0 -233 32l10 45q120 -30 223 -30q90 0 133.5 41.5t43.5 97.5q0 29 -13.5 52.5t-30 37.5t-46.5 26.5t-46 17l-46 12.5q-42 10 -78 25.5t-69 39t-52 58t-19 75.5q0 87 61 128.5t162 41.5q108 0 220 -33l-12 -45q-121 30 -208 30q-90 0 -129 -34.5t-39 -88.5
q0 -35 19.5 -62.5t54 -45t60.5 -26.5t61 -18q205 -45 205 -187q0 -91 -63.5 -140.5t-168.5 -49.5zM403 850l-77 -140h-40l65 140h52z" />
    <glyph glyph-name="sacute" unicode="&#x15b;" horiz-adv-x="480" 
d="M427 134q0 -69 -44 -106.5t-128 -37.5q-119 0 -203 21l10 41q82 -21 188 -21q34 0 59.5 9t38 20.5t19.5 27t8.5 25t1.5 18.5q0 35 -28.5 59.5t-109.5 41.5q-56 11 -91.5 25t-60.5 45t-25 78q0 62 44 96t129 34q106 0 190 -21l-10 -42q-85 22 -178 22q-34 0 -59 -8
t-37 -18t-19 -24t-8.5 -22t-1.5 -16q0 -36 27 -61t106 -41q94 -20 138 -51.5t44 -93.5zM353 700l-77 -140h-40l65 140h52z" />
    <glyph glyph-name="Scircumflex" unicode="&#x15c;" 
d="M300 -10q-120 0 -233 32l10 45q120 -30 223 -30q90 0 133.5 41.5t43.5 97.5q0 29 -13.5 52.5t-30 37.5t-46.5 26.5t-46 17l-46 12.5q-42 10 -78 25.5t-69 39t-52 58t-19 75.5q0 87 61 128.5t162 41.5q108 0 220 -33l-12 -45q-121 30 -208 30q-90 0 -129 -34.5t-39 -88.5
q0 -35 19.5 -62.5t54 -45t60.5 -26.5t61 -18q205 -45 205 -187q0 -91 -63.5 -140.5t-168.5 -49.5zM309 820l-82 -110h-40l104 140h37l104 -140h-40z" />
    <glyph glyph-name="scircumflex" unicode="&#x15d;" horiz-adv-x="480" 
d="M427 134q0 -69 -44 -106.5t-128 -37.5q-119 0 -203 21l10 41q82 -21 188 -21q34 0 59.5 9t38 20.5t19.5 27t8.5 25t1.5 18.5q0 35 -28.5 59.5t-109.5 41.5q-56 11 -91.5 25t-60.5 45t-25 78q0 62 44 96t129 34q106 0 190 -21l-10 -42q-85 22 -178 22q-34 0 -59 -8
t-37 -18t-19 -24t-8.5 -22t-1.5 -16q0 -36 27 -61t106 -41q94 -20 138 -51.5t44 -93.5zM253 670l-82 -110h-40l104 140h37l104 -140h-40z" />
    <glyph glyph-name="Scedilla" unicode="&#x15e;" 
d="M532 180q0 -90 -61.5 -139t-163.5 -51v-48q84 -4 84 -71q0 -35 -25 -55.5t-68 -20.5q-29 0 -68 12l5 20q32 -10 57 -10q36 0 51 18t15 39q0 20 -16 36.5t-57 16.5v63q-120 3 -218 32l10 45q120 -30 223 -30q90 0 133.5 41.5t43.5 97.5q0 29 -13.5 52.5t-30 37.5
t-46.5 26.5t-46 17l-46 12.5q-42 10 -78 25.5t-69 39t-52 58t-19 75.5q0 87 61 128.5t162 41.5q108 0 220 -33l-12 -45q-121 30 -208 30q-90 0 -129 -34.5t-39 -88.5q0 -35 19.5 -62.5t54 -45t60.5 -26.5t61 -18q205 -45 205 -187z" />
    <glyph glyph-name="scedilla" unicode="&#x15f;" horiz-adv-x="480" 
d="M427 134q0 -68 -43 -105.5t-127 -38.5v-48q84 -4 84 -71q0 -35 -25 -55.5t-68 -20.5q-30 0 -68 12l4 20q32 -10 58 -10q36 0 51 18t15 39q0 20 -16 36.5t-57 16.5v63q-108 3 -183 21l10 41q82 -21 188 -21q34 0 59.5 9t38 20.5t19.5 27t8.5 25t1.5 18.5q0 35 -28.5 59.5
t-109.5 41.5q-56 11 -91.5 25t-60.5 45t-25 78q0 62 44 96t129 34q106 0 190 -21l-10 -42q-85 22 -178 22q-34 0 -59 -8t-37 -18t-19 -24t-8.5 -22t-1.5 -16q0 -36 27 -61t106 -41q94 -20 138 -51.5t44 -93.5z" />
    <glyph glyph-name="Scaron" unicode="&#x160;" 
d="M300 -10q-120 0 -233 32l10 45q120 -30 223 -30q90 0 133.5 41.5t43.5 97.5q0 29 -13.5 52.5t-30 37.5t-46.5 26.5t-46 17l-46 12.5q-42 10 -78 25.5t-69 39t-52 58t-19 75.5q0 87 61 128.5t162 41.5q108 0 220 -33l-12 -45q-121 30 -208 30q-90 0 -129 -34.5t-39 -88.5
q0 -35 19.5 -62.5t54 -45t60.5 -26.5t61 -18q205 -45 205 -187q0 -91 -63.5 -140.5t-168.5 -49.5zM217 850l82 -110l83 110h40l-104 -140h-37l-104 140h40z" />
    <glyph glyph-name="scaron" unicode="&#x161;" horiz-adv-x="480" 
d="M427 134q0 -69 -44 -106.5t-128 -37.5q-119 0 -203 21l10 41q82 -21 188 -21q34 0 59.5 9t38 20.5t19.5 27t8.5 25t1.5 18.5q0 35 -28.5 59.5t-109.5 41.5q-56 11 -91.5 25t-60.5 45t-25 78q0 62 44 96t129 34q106 0 190 -21l-10 -42q-85 22 -178 22q-34 0 -59 -8
t-37 -18t-19 -24t-8.5 -22t-1.5 -16q0 -36 27 -61t106 -41q94 -20 138 -51.5t44 -93.5zM166 700l82 -110l83 110h40l-104 -140h-37l-104 140h40z" />
    <glyph glyph-name="Tcommaaccent" unicode="&#x162;" horiz-adv-x="560" 
d="M502 632h-196v-632h-52v632h-197v48h445v-48zM277 -198h-19l12 88h-13v70h45v-70z" />
    <glyph glyph-name="tcommaaccent" unicode="&#x163;" horiz-adv-x="375" 
d="M107 148v314h-82v34l82 4l7 140h43v-140h155v-38h-155v-307q0 -64 21 -94t77 -30q26 0 57 5l5 -40q-36 -6 -77 -6q-70 0 -101.5 35t-31.5 123zM197 -198h-19l12 88h-13v70h45v-70z" />
    <glyph glyph-name="Tcaron" unicode="&#x164;" horiz-adv-x="560" 
d="M502 632h-196v-632h-52v632h-197v48h445v-48zM197 850l82 -110l83 110h40l-104 -140h-37l-104 140h40z" />
    <glyph glyph-name="tcaron" unicode="&#x165;" horiz-adv-x="375" 
d="M107 148v314h-82v34l82 4l7 140h43v-140h155v-38h-155v-307q0 -64 21 -94t77 -30q26 0 57 5l5 -40q-36 -6 -77 -6q-70 0 -101.5 35t-31.5 123zM255 542h-19l12 88h-13v70h45v-70z" />
    <glyph glyph-name="Tbar" unicode="&#x166;" horiz-adv-x="560" 
d="M161 286h93v346h-197v48h445v-48h-196v-346h93v-32h-93v-254h-52v254h-93v32z" />
    <glyph glyph-name="tbar" unicode="&#x167;" horiz-adv-x="375" 
d="M107 257h-60v33h60v172h-82v34l82 4l7 140h43v-140h155v-38h-155v-172h145v-33h-145v-102q0 -64 21 -94t77 -30q26 0 57 5l5 -40q-36 -6 -77 -6q-70 0 -101.5 35t-31.5 123v109z" />
    <glyph glyph-name="Utilde" unicode="&#x168;" horiz-adv-x="640" 
d="M324 35q50 0 86.5 14.5t55 34.5t29 51t13 53.5t2.5 51.5v440h52v-440q0 -129 -59 -189.5t-183 -60.5t-183.5 60.5t-59.5 189.5v440h53v-440q0 -31 2 -52.5t12.5 -52.5t30 -51t58 -34.5t91.5 -14.5zM268 795q-20 0 -36 -9t-53 -46l-17 20q32 42 55 58t50 16q25 0 70 -31
t60 -31q35 0 65 51l16 -20q-34 -68 -81 -68q-19 0 -64.5 30t-64.5 30z" />
    <glyph glyph-name="utilde" unicode="&#x169;" horiz-adv-x="530" 
d="M412 109v391h50v-500h-50v75h-2q-92 -85 -193 -85q-150 0 -150 162v348h50v-338q0 -130 120 -130q82 0 175 77zM213 635q-20 0 -36 -9t-53 -46l-17 20q32 42 55 58t50 16q25 0 70 -31t60 -31q35 0 65 51l16 -20q-34 -68 -81 -68q-19 0 -64.5 30t-64.5 30z" />
    <glyph glyph-name="Umacron" unicode="&#x16a;" horiz-adv-x="640" 
d="M324 35q50 0 86.5 14.5t55 34.5t29 51t13 53.5t2.5 51.5v440h52v-440q0 -129 -59 -189.5t-183 -60.5t-183.5 60.5t-59.5 189.5v440h53v-440q0 -31 2 -52.5t12.5 -52.5t30 -51t58 -34.5t91.5 -14.5zM172 812h295v-35h-295v35z" />
    <glyph glyph-name="umacron" unicode="&#x16b;" horiz-adv-x="530" 
d="M412 109v391h50v-500h-50v75h-2q-92 -85 -193 -85q-150 0 -150 162v348h50v-338q0 -130 120 -130q82 0 175 77zM117 642h295v-35h-295v35z" />
    <glyph glyph-name="Ubreve" unicode="&#x16c;" horiz-adv-x="640" 
d="M324 35q50 0 86.5 14.5t55 34.5t29 51t13 53.5t2.5 51.5v440h52v-440q0 -129 -59 -189.5t-183 -60.5t-183.5 60.5t-59.5 189.5v440h53v-440q0 -31 2 -52.5t12.5 -52.5t30 -51t58 -34.5t91.5 -14.5zM319 769q87 0 109 96h24q-9 -65 -45 -96.5t-88 -31.5q-50 0 -85.5 31.5
t-45.5 96.5h24q22 -96 107 -96z" />
    <glyph glyph-name="ubreve" unicode="&#x16d;" horiz-adv-x="530" 
d="M412 109v391h50v-500h-50v75h-2q-92 -85 -193 -85q-150 0 -150 162v348h50v-338q0 -130 120 -130q82 0 175 77zM264 599q87 0 109 96h24q-9 -65 -45 -96.5t-88 -31.5q-50 0 -85.5 31.5t-45.5 96.5h24q22 -96 107 -96z" />
    <glyph glyph-name="Uring" unicode="&#x16e;" horiz-adv-x="640" 
d="M324 35q50 0 86.5 14.5t55 34.5t29 51t13 53.5t2.5 51.5v440h52v-440q0 -129 -59 -189.5t-183 -60.5t-183.5 60.5t-59.5 189.5v440h53v-440q0 -31 2 -52.5t12.5 -52.5t30 -51t58 -34.5t91.5 -14.5zM247 790q0 31 21 51.5t52 20.5q32 0 53 -20.5t21 -51.5t-21 -52t-53 -21
q-31 0 -52 21t-21 52zM267 790q0 -23 15 -38.5t38 -15.5t38 15.5t15 38.5t-15 38.5t-38 15.5q-22 0 -37.5 -15.5t-15.5 -38.5z" />
    <glyph glyph-name="uring" unicode="&#x16f;" horiz-adv-x="530" 
d="M412 109v391h50v-500h-50v75h-2q-92 -85 -193 -85q-150 0 -150 162v348h50v-338q0 -130 120 -130q82 0 175 77zM192 620q0 31 21 51.5t52 20.5q32 0 53 -20.5t21 -51.5t-21 -52t-53 -21q-31 0 -52 21t-21 52zM212 620q0 -23 15 -38.5t38 -15.5t38 15.5t15 38.5t-15 38.5
t-38 15.5q-22 0 -37.5 -15.5t-15.5 -38.5z" />
    <glyph glyph-name="Uhungarumlaut" unicode="&#x170;" horiz-adv-x="640" 
d="M324 35q50 0 86.5 14.5t55 34.5t29 51t13 53.5t2.5 51.5v440h52v-440q0 -129 -59 -189.5t-183 -60.5t-183.5 60.5t-59.5 189.5v440h53v-440q0 -31 2 -52.5t12.5 -52.5t30 -51t58 -34.5t91.5 -14.5zM334 850l-70 -120h-30l65 120h35zM441 850l-70 -120h-30l65 120h35z" />
    <glyph glyph-name="uhungarumlaut" unicode="&#x171;" horiz-adv-x="530" 
d="M412 109v391h50v-500h-50v75h-2q-92 -85 -193 -85q-150 0 -150 162v348h50v-338q0 -130 120 -130q82 0 175 77zM289 680l-70 -120h-30l65 120h35zM396 680l-70 -120h-30l65 120h35z" />
    <glyph glyph-name="Uogonek" unicode="&#x172;" horiz-adv-x="640" 
d="M324 35q50 0 86.5 14.5t55 34.5t29 51t13 53.5t2.5 51.5v440h52v-440q0 -126 -56.5 -186.5t-174.5 -63.5q-29 -24 -47.5 -54.5t-18.5 -55.5q0 -55 56 -55q27 0 66 22l4 -16q-37 -29 -85 -29q-31 0 -54 16.5t-23 49.5q0 62 73 123q-115 4 -170 64.5t-55 184.5v440h53v-440
q0 -31 2 -52.5t12.5 -52.5t30 -51t58 -34.5t91.5 -14.5z" />
    <glyph glyph-name="uogonek" unicode="&#x173;" horiz-adv-x="530" 
d="M494 -153l4 -16q-37 -29 -85 -29q-32 0 -54.5 16.5t-22.5 51.5q0 67 87 130h-11v75h-2q-92 -85 -193 -85q-150 0 -150 162v348h50v-338q0 -130 120 -130q82 0 175 77v391h50v-500q-38 -19 -64 -54t-26 -66q0 -55 56 -55q30 0 66 22z" />
    <glyph glyph-name="Wcircumflex" unicode="&#x174;" horiz-adv-x="940" 
d="M471 596h-2l-164 -601h-69l-189 685h59l166 -614h1l167 614h63l167 -614h1l166 614h55l-188 -685h-69zM469 820l-82 -110h-40l104 140h37l104 -140h-40z" />
    <glyph glyph-name="wcircumflex" unicode="&#x175;" horiz-adv-x="790" 
d="M396 422h-2l-125 -427h-55l-159 505h55l135 -446h2l125 446h48l130 -446h2l130 446h53l-155 -505h-55zM394 670l-82 -110h-40l104 140h37l104 -140h-40z" />
    <glyph glyph-name="Ycircumflex" unicode="&#x176;" horiz-adv-x="620" 
d="M310 296h2l203 384h57l-236 -440v-240h-52v240l-237 440h61zM309 820l-82 -110h-40l104 140h37l104 -140h-40z" />
    <glyph glyph-name="ycircumflex" unicode="&#x177;" horiz-adv-x="560" 
d="M259 -12l-204 512h56l176 -454h2l162 454h54l-200 -543q-31 -88 -74 -127.5t-106 -39.5q-35 0 -60 6l5 43q21 -5 45 -5t45.5 11t34.5 24t27.5 39t20 39zM279 670l-82 -110h-40l104 140h37l104 -140h-40z" />
    <glyph glyph-name="Ydieresis" unicode="&#x178;" horiz-adv-x="620" 
d="M310 296h2l203 384h57l-236 -440v-240h-52v240l-237 440h61zM186 845h43v-110h-43v110zM391 845h43v-110h-43v110z" />
    <glyph glyph-name="Zacute" unicode="&#x179;" horiz-adv-x="560" 
d="M124 49v-2h386v-47h-460v40l379 590v2h-359v48h430v-40zM379 850l-77 -140h-40l65 140h52z" />
    <glyph glyph-name="zacute" unicode="&#x17a;" horiz-adv-x="470" 
d="M426 500v-38l-324 -420v-2h332v-40h-398v37l325 421v2h-310v40h375zM330 700l-77 -140h-40l65 140h52z" />
    <glyph glyph-name="Zdotaccent" unicode="&#x17b;" horiz-adv-x="560" 
d="M124 49v-2h386v-47h-460v40l379 590v2h-359v48h430v-40zM257 850h45v-105h-45v105z" />
    <glyph glyph-name="zdotaccent" unicode="&#x17c;" horiz-adv-x="470" 
d="M426 500v-38l-324 -420v-2h332v-40h-398v37l325 421v2h-310v40h375zM212 680h45v-105h-45v105z" />
    <glyph glyph-name="Zcaron" unicode="&#x17d;" horiz-adv-x="560" 
d="M124 49v-2h386v-47h-460v40l379 590v2h-359v48h430v-40zM197 850l82 -110l83 110h40l-104 -140h-37l-104 140h40z" />
    <glyph glyph-name="zcaron" unicode="&#x17e;" horiz-adv-x="470" 
d="M426 500v-38l-324 -420v-2h332v-40h-398v37l325 421v2h-310v40h375zM152 700l82 -110l83 110h40l-104 -140h-37l-104 140h40z" />
    <glyph glyph-name="longs" unicode="&#x17f;" horiz-adv-x="345" 
d="M107 -77v619q0 88 31.5 123t101.5 35q24 0 72 -6l-5 -40q-42 5 -57 5q-54 0 -73.5 -29.5t-19.5 -94.5v-619q0 -68 -29.5 -97t-102.5 -29q-35 0 -73 6l6 40q30 -5 57 -5q54 0 73 21t19 71z" />
    <glyph glyph-name="florin" unicode="&#x192;" horiz-adv-x="345" 
d="M107 -45v507h-82v34l82 4v42q0 88 31.5 123t101.5 35q24 0 72 -6l-5 -40q-42 5 -57 5q-54 0 -73.5 -29.5t-19.5 -94.5v-35h150v-38h-150v-507q0 -90 -30.5 -127.5t-101.5 -37.5q-35 0 -73 6l6 40q30 -5 57 -5q53 0 72.5 29.5t19.5 94.5z" />
    <glyph glyph-name="AEacute" unicode="&#x1fc;" horiz-adv-x="926" 
d="M443 296h-179l-163 -296h-54l369 680h437v-48h-357v-255h312v-47h-312v-283h362v-47h-415v296zM441 631l-158 -292h160v292h-2zM570 850l-77 -140h-40l65 140h52z" />
    <glyph glyph-name="aeacute" unicode="&#x1fd;" horiz-adv-x="860" 
d="M802 247h-361q2 -215 193 -215q90 0 156 20l7 -41q-76 -21 -170 -21q-145 0 -202 94q-85 -94 -208 -94q-73 0 -119 36t-46 105q0 149 210 149h125v65q0 62 -30.5 92t-101.5 30q-75 0 -161 -17l-8 41q95 19 179 19q74 0 111 -29.5t47 -101.5q45 131 197 131
q48 0 83.5 -12.5t55.5 -31.5t32.5 -45.5t16 -49.5t3.5 -48q0 -38 -9 -76zM235 30q103 0 176 75q-21 44 -24 142h-122q-90 0 -126.5 -28.5t-36.5 -83.5q0 -47 34.5 -76t98.5 -29zM617 470q-163 0 -176 -189h313q6 26 6 51q0 57 -32.5 97.5t-110.5 40.5zM534 700l-77 -140h-40
l65 140h52z" />
    <glyph glyph-name="Oslashacute" unicode="&#x1fe;" horiz-adv-x="690" 
d="M424 850l-77 -140h-40l65 140h52zM345 -10q-137 0 -204 81l-77 -98l-19 16l80 100q-58 86 -58 256q0 60 7 108t26 93.5t49.5 76t80 49t115.5 18.5q129 0 198 -74l82 103l20 -15l-85 -106q62 -81 62 -253q0 -61 -7 -110.5t-25.5 -96.5t-49 -78.5t-80 -50.5t-115.5 -19z
M345 35q55 0 96 18t64.5 46t38 70.5t19 83.5t4.5 92q0 140 -43 208l-350 -442q53 -76 171 -76zM345 645q-69 0 -115 -24t-68.5 -69t-31 -93.5t-8.5 -113.5q0 -140 40 -209l350 440q-54 69 -167 69z" />
    <glyph glyph-name="oslashacute" unicode="&#x1ff;" horiz-adv-x="550" 
d="M358 700l-77 -140h-40l65 140h52zM275 -10q-102 0 -155 61l-66 -78l-19 16l67 79q-45 63 -45 182q0 260 218 260q99 0 154 -60l67 77l19 -15l-69 -80q46 -66 46 -182q0 -260 -217 -260zM275 32q165 0 165 218q0 86 -31 138l-257 -301q42 -55 123 -55zM275 467
q-165 0 -165 -217q0 -88 30 -138l258 301q-43 54 -123 54z" />
    <glyph glyph-name="Scommaaccent" unicode="&#x218;" 
d="M300 -10q-120 0 -233 32l10 45q120 -30 223 -30q90 0 133.5 41.5t43.5 97.5q0 29 -13.5 52.5t-30 37.5t-46.5 26.5t-46 17l-46 12.5q-42 10 -78 25.5t-69 39t-52 58t-19 75.5q0 87 61 128.5t162 41.5q108 0 220 -33l-12 -45q-121 30 -208 30q-90 0 -129 -34.5t-39 -88.5
q0 -35 19.5 -62.5t54 -45t60.5 -26.5t61 -18q205 -45 205 -187q0 -91 -63.5 -140.5t-168.5 -49.5zM299 -198h-19l12 88h-13v70h45v-70z" />
    <glyph glyph-name="scommaaccent" unicode="&#x219;" horiz-adv-x="480" 
d="M427 134q0 -69 -44 -106.5t-128 -37.5q-119 0 -203 21l10 41q82 -21 188 -21q34 0 59.5 9t38 20.5t19.5 27t8.5 25t1.5 18.5q0 35 -28.5 59.5t-109.5 41.5q-56 11 -91.5 25t-60.5 45t-25 78q0 62 44 96t129 34q106 0 190 -21l-10 -42q-85 22 -178 22q-34 0 -59 -8
t-37 -18t-19 -24t-8.5 -22t-1.5 -16q0 -36 27 -61t106 -41q94 -20 138 -51.5t44 -93.5zM239 -198h-19l12 88h-13v70h45v-70z" />
    <glyph glyph-name="uni021A" unicode="&#x21a;" horiz-adv-x="560" 
d="M502 632h-196v-632h-52v632h-197v48h445v-48zM277 -198h-19l12 88h-13v70h45v-70z" />
    <glyph glyph-name="uni021B" unicode="&#x21b;" horiz-adv-x="375" 
d="M107 148v314h-82v34l82 4l7 140h43v-140h155v-38h-155v-307q0 -64 21 -94t77 -30q26 0 57 5l5 -40q-36 -6 -77 -6q-70 0 -101.5 35t-31.5 123zM208 -200h-19l12 88h-13v70h45v-70z" />
    <glyph glyph-name="dotlessj" unicode="&#x237;" horiz-adv-x="225" 
d="M157 500v-584q0 -69 -30 -97.5t-102 -28.5q-35 0 -73 6l6 40q30 -5 57 -5q53 0 72.5 20t19.5 72v577h50z" />
    <glyph glyph-name="circumflex" unicode="&#x2c6;" horiz-adv-x="375" 
d="M187 670l-82 -110h-40l104 140h37l104 -140h-40z" />
    <glyph glyph-name="caron" unicode="&#x2c7;" horiz-adv-x="375" 
d="M105 700l82 -110l83 110h40l-104 -140h-37l-104 140h40z" />
    <glyph glyph-name="uni02C9" unicode="&#x2c9;" horiz-adv-x="425" 
d="M65 642h295v-35h-295v35z" />
    <glyph glyph-name="breve" unicode="&#x2d8;" horiz-adv-x="394" 
d="M196 599q87 0 109 96h24q-9 -65 -45 -96.5t-88 -31.5q-50 0 -85.5 31.5t-45.5 96.5h24q22 -96 107 -96z" />
    <glyph glyph-name="dotaccent" unicode="&#x2d9;" horiz-adv-x="175" 
d="M65 680h45v-105h-45v105z" />
    <glyph glyph-name="ring" unicode="&#x2da;" horiz-adv-x="277" 
d="M65 620q0 31 21 51.5t52 20.5q32 0 53 -20.5t21 -51.5t-21 -52t-53 -21q-31 0 -52 21t-21 52zM85 620q0 -23 15 -38.5t38 -15.5t38 15.5t15 38.5t-15 38.5t-38 15.5q-22 0 -37.5 -15.5t-15.5 -38.5z" />
    <glyph glyph-name="ogonek" unicode="&#x2db;" horiz-adv-x="292" 
d="M223 -153l4 -16q-37 -29 -85 -29q-31 0 -54 17t-23 50q0 66 85 131h29q-33 -25 -55.5 -58.5t-22.5 -61.5q0 -55 56 -55q27 0 66 22z" />
    <glyph glyph-name="tilde" unicode="&#x2dc;" horiz-adv-x="446" 
d="M171 635q-20 0 -36 -9t-53 -46l-17 20q32 42 55 58t50 16q25 0 70 -31t60 -31q35 0 65 51l16 -20q-34 -68 -81 -68q-19 0 -64.5 30t-64.5 30z" />
    <glyph glyph-name="hungarumlaut" unicode="&#x2dd;" horiz-adv-x="337" 
d="M165 680l-70 -120h-30l65 120h35zM272 680l-70 -120h-30l65 120h35z" />
    <glyph glyph-name="uni037E" unicode="&#x37e;" horiz-adv-x="225" 
d="M87 307h50v-115h-50v115z" />
    <glyph glyph-name="tonos" unicode="&#x384;" horiz-adv-x="237" 
d="M172 680l-77 -120h-30l65 120h42z" />
    <glyph glyph-name="dieresistonos" unicode="&#x385;" horiz-adv-x="460" 
d="M65 680h42v-105h-42v105zM352 680h43v-105h-43v105zM292 700l-77 -125h-30l65 125h42z" />
    <glyph glyph-name="anoteleia" unicode="&#x387;" horiz-adv-x="432" 
d="M65 680h42v-105h-42v105zM325 680h42v-105h-42v105z" />
    <glyph glyph-name="uni03BC" unicode="&#x3bc;" horiz-adv-x="530" 
d="M117 500v-347q5 -121 120 -121q82 0 175 77v391h50v-500h-50v75h-2q-87 -78 -175 -82q-91 -2 -118 62v-100q0 -92 -32 -128.5t-103 -36.5q-32 0 -70 6l6 40q30 -5 57 -5q55 0 73.5 30.5t18.5 93.5v545h50z" />
    <glyph glyph-name="pi" unicode="&#x3c0;" horiz-adv-x="530" 
d="M117 0h-50v500h395v-500h-50v455h-295v-455z" />
    <glyph glyph-name="uni03C2" unicode="&#x3c2;" horiz-adv-x="513" 
d="M100 249q0 68 48 114l-78 90l8 8l79 -90q44 36 100 36q55 0 99 -36l78 90l9 -8l-78 -89q50 -47 50 -115t-49 -114l76 -86l-9 -9l-77 87q-43 -35 -99 -35q-57 0 -100 35l-76 -87l-9 9l76 86q-48 46 -48 114zM112 249q0 -59 43 -102t102 -43t102.5 43t43.5 102t-43.5 102.5
t-102.5 43.5t-102 -43.5t-43 -102.5z" />
    <glyph glyph-name="sigma" unicode="&#x3c3;" horiz-adv-x="513" 
d="M100 249q0 68 48 114l-78 90l8 8l79 -90q44 36 100 36q55 0 99 -36l78 90l9 -8l-78 -89q50 -47 50 -115t-49 -114l76 -86l-9 -9l-77 87q-43 -35 -99 -35q-57 0 -100 35l-76 -87l-9 9l76 86q-48 46 -48 114zM112 249q0 -59 43 -102t102 -43t102.5 43t43.5 102t-43.5 102.5
t-102.5 43.5t-102 -43.5t-43 -102.5z" />
    <glyph glyph-name="Wgrave" unicode="&#x1e80;" horiz-adv-x="940" 
d="M471 596h-2l-164 -601h-69l-189 685h59l166 -614h1l167 614h63l167 -614h1l166 614h55l-188 -685h-69zM452 710l-77 140h52l65 -140h-40z" />
    <glyph glyph-name="wgrave" unicode="&#x1e81;" horiz-adv-x="790" 
d="M396 422h-2l-125 -427h-55l-159 505h55l135 -446h2l125 446h48l130 -446h2l130 446h53l-155 -505h-55zM374 560l-77 140h52l65 -140h-40z" />
    <glyph glyph-name="Wacute" unicode="&#x1e82;" horiz-adv-x="940" 
d="M471 596h-2l-164 -601h-69l-189 685h59l166 -614h1l167 614h63l167 -614h1l166 614h55l-188 -685h-69zM570 850l-77 -140h-40l65 140h52z" />
    <glyph glyph-name="wacute" unicode="&#x1e83;" horiz-adv-x="790" 
d="M396 422h-2l-125 -427h-55l-159 505h55l135 -446h2l125 446h48l130 -446h2l130 446h53l-155 -505h-55zM495 698l-77 -140h-40l65 140h52z" />
    <glyph glyph-name="Wdieresis" unicode="&#x1e84;" horiz-adv-x="940" 
d="M471 596h-2l-164 -601h-69l-189 685h59l166 -614h1l167 614h63l167 -614h1l166 614h55l-188 -685h-69zM346 845h43v-110h-43v110zM551 845h43v-110h-43v110z" />
    <glyph glyph-name="wdieresis" unicode="&#x1e85;" horiz-adv-x="790" 
d="M396 422h-2l-125 -427h-55l-159 505h55l135 -446h2l125 446h48l130 -446h2l130 446h53l-155 -505h-55zM271 685h43v-110h-43v110zM476 685h43v-110h-43v110z" />
    <glyph glyph-name="Ygrave" unicode="&#x1ef2;" horiz-adv-x="620" 
d="M310 296h2l203 384h57l-236 -440v-240h-52v240l-237 440h61zM290 710l-77 140h52l65 -140h-40z" />
    <glyph glyph-name="ygrave" unicode="&#x1ef3;" horiz-adv-x="560" 
d="M259 -12l-204 512h56l176 -454h2l162 454h54l-200 -543q-31 -88 -74 -127.5t-106 -39.5q-35 0 -60 6l5 43q21 -5 45 -5t45.5 11t34.5 24t27.5 39t20 39zM258 560l-77 140h52l65 -140h-40z" />
    <glyph glyph-name="figuredash" unicode="&#x2012;" horiz-adv-x="692" 
d="M67 286h558v-42h-558v42z" />
    <glyph glyph-name="endash" unicode="&#x2013;" horiz-adv-x="692" 
d="M67 286h558v-42h-558v42z" />
    <glyph glyph-name="emdash" unicode="&#x2014;" horiz-adv-x="760" 
d="M67 286h625v-42h-625v42z" />
    <glyph glyph-name="quoteleft" unicode="&#x2018;" horiz-adv-x="185" 
d="M95 680h20l-15 -130h17v-115h-50v115z" />
    <glyph glyph-name="quoteright" unicode="&#x2019;" horiz-adv-x="185" 
d="M90 435h-20l15 130h-18v115h50v-115z" />
    <glyph glyph-name="quotesinglbase" unicode="&#x201a;" horiz-adv-x="185" 
d="M90 -145h-20l15 130h-18v115h50v-115z" />
    <glyph glyph-name="quotedblleft" unicode="&#x201c;" horiz-adv-x="405" 
d="M95 680h20l-15 -130h17v-115h-50v115zM315 680h20l-15 -130h17v-115h-50v115z" />
    <glyph glyph-name="quotedblright" unicode="&#x201d;" horiz-adv-x="405" 
d="M90 435h-20l15 130h-18v115h50v-115zM310 435h-20l15 130h-18v115h50v-115z" />
    <glyph glyph-name="quotedblbase" unicode="&#x201e;" horiz-adv-x="405" 
d="M90 -145h-20l15 130h-18v115h50v-115zM310 -145h-20l15 130h-18v115h50v-115z" />
    <glyph glyph-name="dagger" unicode="&#x2020;" horiz-adv-x="580" 
d="M512 452l-198 3l2 -455h-52l2 455l-199 -3v48l199 -3l-2 203h52l-2 -203l198 3v-48z" />
    <glyph glyph-name="daggerdbl" unicode="&#x2021;" horiz-adv-x="580" 
d="M266 255v190l-199 -3v48l199 -3l-2 213h52l-2 -213l198 3v-48l-198 3v-190l198 2v-47l-198 2l2 -212h-52l2 212l-199 -2v47z" />
    <glyph glyph-name="bullet" unicode="&#x2022;" horiz-adv-x="225" 
d="M87 307h50v-115h-50v115z" />
    <glyph glyph-name="onedotenleader" unicode="&#x2024;" horiz-adv-x="185" 
d="M67 115h50v-115h-50v115z" />
    <glyph glyph-name="twodotenleader" unicode="&#x2025;" horiz-adv-x="310" 
d="M67 115h50v-115h-50v115zM192 115h50v-115h-50v115z" />
    <glyph glyph-name="ellipsis" unicode="&#x2026;" horiz-adv-x="585" 
d="M67 115h50v-115h-50v115zM467 115h50v-115h-50v115zM267 115h50v-115h-50v115z" />
    <glyph glyph-name="perthousand" unicode="&#x2030;" horiz-adv-x="1070" 
d="M582 680l-370 -680h-35l370 680h35zM181 418q-62 0 -95.5 35.5t-33.5 96.5q0 62 33.5 97t95.5 35t95.5 -35t33.5 -97t-33.5 -97t-95.5 -35zM181 446q96 0 96 104t-96 104q-95 0 -95 -104t95 -104zM578 -3q-62 0 -95.5 35.5t-33.5 97.5q0 61 33.5 96.5t95.5 35.5t95.5 -35
t33.5 -97t-33.5 -97.5t-95.5 -35.5zM578 26q96 0 96 104q0 103 -96 103q-95 0 -95 -103q0 -104 95 -104zM888 -3q-62 0 -95.5 35.5t-33.5 97.5q0 61 33.5 96.5t95.5 35.5t95.5 -35t33.5 -97t-33.5 -97.5t-95.5 -35.5zM888 26q96 0 96 104q0 103 -96 103q-95 0 -95 -103
q0 -104 95 -104z" />
    <glyph glyph-name="guilsinglleft" unicode="&#x2039;" horiz-adv-x="380" 
d="M67 266l245 166v-46l-192 -136l192 -136v-47l-245 167v32z" />
    <glyph glyph-name="guilsinglright" unicode="&#x203a;" horiz-adv-x="380" 
d="M312 234l-245 -167v47l193 136l-193 136v46l245 -166v-32z" />
    <glyph glyph-name="exclamdbl" unicode="&#x203c;" horiz-adv-x="310" 
d="M67 115h50v-115h-50v115zM67 680h50l-2 -468h-45zM192 115h50v-115h-50v115zM192 680h50l-2 -468h-45z" />
    <glyph glyph-name="fraction" unicode="&#x2044;" horiz-adv-x="540" 
d="M477 680l-370 -680h-45l370 680h45z" />
    <glyph glyph-name="zerosuperior" unicode="&#x2070;" horiz-adv-x="335" 
d="M167 846q-85 0 -85 -148q0 -155 85 -155q86 0 86 155q0 148 -86 148zM167 520q-115 0 -115 178q0 172 115 172t115 -172q0 -178 -115 -178z" />
    <glyph glyph-name="foursuperior" unicode="&#x2074;" horiz-adv-x="345" 
d="M82 649h132v184q-48 -91 -132 -184zM206 870h36v-221h50v-24h-50v-95h-28v95h-162v24q107 117 154 221z" />
    <glyph glyph-name="fivesuperior" unicode="&#x2075;" horiz-adv-x="325" 
d="M156 520q-51 0 -104 28l9 22q50 -26 93 -27q39 0 64 24t25 64q0 34 -18.5 58.5t-59.5 24.5q-46 0 -75 -41l-21 2l8 190h175v-25h-150l-8 -140l1 -1q31 40 78 40q46 0 72.5 -28t26.5 -78q0 -52 -32 -82.5t-84 -30.5z" />
    <glyph glyph-name="sixsuperior" unicode="&#x2076;" horiz-adv-x="325" 
d="M80 701h1q36 51 88 51q48 0 75.5 -30.5t27.5 -86.5q0 -53 -30 -84t-76 -31q-114 0 -114 155q0 103 38 149t99 46q36 0 72 -13l-4 -23q-32 12 -66 12q-41 0 -67.5 -28t-34.5 -57t-9 -60zM83 677q-6 -134 81 -134q33 0 55.5 24.5t22.5 67.5q0 38 -18 65.5t-63 27.5t-78 -51
z" />
    <glyph glyph-name="sevensuperior" unicode="&#x2077;" horiz-adv-x="320" 
d="M236 844v1h-184v25h215v-21q-112 -182 -135 -319h-30q10 69 50 158t84 156z" />
    <glyph glyph-name="eightsuperior" unicode="&#x2078;" horiz-adv-x="335" 
d="M194 705q43 -20 65.5 -40.5t22.5 -53.5q0 -42 -30.5 -66.5t-84.5 -24.5q-55 0 -85 23.5t-30 65.5q0 60 88 91q-78 32 -78 86q0 39 29.5 61.5t76.5 22.5t75.5 -22.5t28.5 -60.5q0 -31 -19.5 -49t-58.5 -33zM81 611q0 -30 21.5 -49.5t65.5 -19.5q84 0 86 67q0 21 -15 37.5
t-31 24t-45 18.5q-82 -27 -82 -78zM167 848q-29 0 -53 -14t-24 -48q0 -49 81 -71q73 24 73 70q0 35 -24 49t-53 14z" />
    <glyph glyph-name="ninesuperior" unicode="&#x2079;" horiz-adv-x="325" 
d="M244 689h-1q-35 -51 -87 -51q-49 0 -76.5 30.5t-27.5 86.5q0 53 30 84t76 31q114 0 114 -155q0 -195 -137 -195q-35 0 -72 13l4 22q38 -12 66 -12q32 0 55 15.5t34 40t16 46.5t6 44zM242 713q4 133 -81 133q-33 0 -56 -24.5t-23 -66.5q0 -38 18 -65.5t63 -27.5
q44 0 79 51z" />
    <glyph glyph-name="parenleftsuperior" unicode="&#x207d;" horiz-adv-x="209" 
d="M52 690q0 127 84 240h21q-77 -124 -77 -240q0 -114 77 -240h-21q-84 113 -84 240z" />
    <glyph glyph-name="parenrightsuperior" unicode="&#x207e;" horiz-adv-x="209" 
d="M157 690q0 -127 -84 -240h-21q77 123 77 240q0 118 -77 240h21q84 -113 84 -240z" />
    <glyph glyph-name="nsuperior" unicode="&#x207f;" horiz-adv-x="302" 
d="M77 626v-196h-25v250h25v-38h1q46 43 97 43q75 0 75 -81v-174h-25v169q0 65 -60 65q-39 0 -88 -38z" />
    <glyph glyph-name="zeroinferior" unicode="&#x2080;" horiz-adv-x="335" 
d="M167 116q-85 0 -85 -148q0 -155 85 -155q86 0 86 155q0 148 -86 148zM167 -210q-115 0 -115 178q0 172 115 172t115 -172q0 -178 -115 -178z" />
    <glyph glyph-name="oneinferior" unicode="&#x2081;" horiz-adv-x="305" 
d="M49 -177h105v286l-93 -53l-9 23q74 35 111 64h19v-320h105v-23h-238v23z" />
    <glyph glyph-name="twoinferior" unicode="&#x2082;" horiz-adv-x="315" 
d="M149 119q-40 0 -88 -24l-9 22q53 28 104 28q50 0 75.5 -28.5t25.5 -71.5q0 -104 -165 -219v-1h170v-25h-210v28q176 119 176 211q0 33 -16 52.5t-31.5 23.5t-31.5 4z" />
    <glyph glyph-name="threeinferior" unicode="&#x2083;" horiz-adv-x="325" 
d="M193 -32q36 -7 57.5 -29.5t21.5 -55.5q0 -93 -114 -93q-64 0 -106 26l10 22q45 -25 95 -25q48 0 67 20.5t19 44.5q0 75 -93 75h-40v24h38q41 0 63.5 21t22.5 51q0 26 -16.5 46.5t-59.5 20.5q-37 0 -87 -24l-9 22q46 26 99 26q48 0 74.5 -23.5t26.5 -65.5
q0 -31 -19.5 -52.5t-49.5 -30.5z" />
    <glyph glyph-name="fourinferior" unicode="&#x2084;" horiz-adv-x="345" 
d="M82 -81h132v184q-48 -91 -132 -184zM206 140h36v-221h50v-24h-50v-95h-28v95h-162v24q107 117 154 221z" />
    <glyph glyph-name="fiveinferior" unicode="&#x2085;" horiz-adv-x="325" 
d="M156 -210q-51 0 -104 28l9 22q50 -26 93 -27q39 0 64 24t25 64q0 34 -18.5 58.5t-59.5 24.5q-46 0 -75 -41l-21 2l8 190h175v-25h-150l-8 -140l1 -1q31 40 78 40q46 0 72.5 -28t26.5 -78q0 -52 -32 -82.5t-84 -30.5z" />
    <glyph glyph-name="sixinferior" unicode="&#x2086;" horiz-adv-x="325" 
d="M80 -29h1q36 51 88 51q48 0 75.5 -30.5t27.5 -86.5q0 -53 -30 -84t-76 -31q-114 0 -114 155q0 103 38 149t99 46q36 0 72 -13l-4 -23q-32 12 -66 12q-41 0 -67.5 -28t-34.5 -57t-9 -60zM83 -53q-6 -134 81 -134q33 0 55.5 24.5t22.5 67.5q0 38 -18 65.5t-63 27.5t-78 -51
z" />
    <glyph glyph-name="seveninferior" unicode="&#x2087;" horiz-adv-x="320" 
d="M236 114v1h-184v25h215v-21q-112 -182 -135 -319h-30q10 69 50 158t84 156z" />
    <glyph glyph-name="eightinferior" unicode="&#x2088;" horiz-adv-x="335" 
d="M194 -25q43 -20 65.5 -40.5t22.5 -53.5q0 -42 -30.5 -66.5t-84.5 -24.5q-55 0 -85 23.5t-30 65.5q0 60 88 91q-78 32 -78 86q0 39 29.5 61.5t76.5 22.5t75.5 -22.5t28.5 -60.5q0 -31 -19.5 -49t-58.5 -33zM81 -119q0 -30 21.5 -49.5t65.5 -19.5q84 0 86 67q0 21 -15 37.5
t-31 24t-45 18.5q-82 -27 -82 -78zM167 118q-29 0 -53 -14t-24 -48q0 -49 81 -71q73 24 73 70q0 35 -24 49t-53 14z" />
    <glyph glyph-name="nineinferior" unicode="&#x2089;" horiz-adv-x="325" 
d="M244 -41h-1q-35 -51 -87 -51q-49 0 -76.5 30.5t-27.5 86.5q0 53 30 84t76 31q114 0 114 -155q0 -195 -137 -195q-35 0 -72 13l4 22q38 -12 66 -12q32 0 55 15.5t34 40t16 46.5t6 44zM242 -17q4 133 -81 133q-33 0 -56 -24.5t-23 -66.5q0 -38 18 -65.5t63 -27.5
q44 0 79 51z" />
    <glyph glyph-name="parenleftinferior" unicode="&#x208d;" horiz-adv-x="209" 
d="M52 -40q0 127 84 240h21q-77 -124 -77 -240q0 -114 77 -240h-21q-84 113 -84 240z" />
    <glyph glyph-name="parenrightinferior" unicode="&#x208e;" horiz-adv-x="209" 
d="M157 -40q0 -127 -84 -240h-21q77 123 77 240q0 118 -77 240h21q84 -113 84 -240z" />
    <glyph glyph-name="colonmonetary" unicode="&#x20a1;" horiz-adv-x="630" 
d="M422 -100h-25v91q-8 0 -25 -0.5t-27 -0.5q-40 0 -73 6v-96h-25v102q-53 15 -90 48t-56 81t-26.5 99t-7.5 115q0 62 8 111t27 95.5t55.5 78.5t89.5 48v102h25v-97q38 7 73 7q20 0 52 -2v92h25v-94q71 -5 148 -29l-12 -45q-124 30 -208 30q-68 0 -114.5 -23.5t-70.5 -67
t-33.5 -93t-9.5 -113.5q0 -52 5 -93.5t20 -83t39.5 -69t66 -45t97.5 -17.5q82 0 208 30l12 -45q-71 -21 -148 -28v-94z" />
    <glyph glyph-name="franc" unicode="&#x20a3;" horiz-adv-x="700" 
d="M193 426h217l-6 -32h-218q-1 -17 -1 -49q0 -21 2 -59h223l-6 -32h-209q16 -97 69 -157t151 -60q111 0 206 79l19 -41q-28 -23 -48.5 -36.5t-73 -31t-111.5 -17.5q-119 0 -185.5 72t-84.5 192h-77v32h72q-2 38 -2 59q0 8 0.5 24t0.5 25h-71v32h76q16 120 82.5 192
t188.5 72q59 0 111.5 -17.5t73 -31t48.5 -36.5l-19 -41q-94 78 -206 78q-101 0 -154 -59.5t-68 -156.5z" />
    <glyph glyph-name="lira" unicode="&#x20a4;" horiz-adv-x="700" 
d="M193 426h217l-6 -32h-218q-1 -17 -1 -49q0 -21 2 -59h223l-6 -32h-209q16 -97 69 -157t151 -60q111 0 206 79l19 -41q-28 -23 -48.5 -36.5t-73 -31t-111.5 -17.5q-119 0 -185.5 72t-84.5 192h-77v32h72q-2 38 -2 59q0 8 0.5 24t0.5 25h-71v32h76q16 120 82.5 192
t188.5 72q59 0 111.5 -17.5t73 -31t48.5 -36.5l-19 -41q-94 78 -206 78q-101 0 -154 -59.5t-68 -156.5z" />
    <glyph glyph-name="peseta" unicode="&#x20a7;" horiz-adv-x="700" 
d="M193 426h217l-6 -32h-218q-1 -17 -1 -49q0 -21 2 -59h223l-6 -32h-209q16 -97 69 -157t151 -60q111 0 206 79l19 -41q-28 -23 -48.5 -36.5t-73 -31t-111.5 -17.5q-119 0 -185.5 72t-84.5 192h-77v32h72q-2 38 -2 59q0 8 0.5 24t0.5 25h-71v32h76q16 120 82.5 192
t188.5 72q59 0 111.5 -17.5t73 -31t48.5 -36.5l-19 -41q-94 78 -206 78q-101 0 -154 -59.5t-68 -156.5z" />
    <glyph glyph-name="Euro" unicode="&#x20ac;" horiz-adv-x="700" 
d="M193 426h217l-6 -32h-218q-1 -17 -1 -49q0 -21 2 -59h223l-6 -32h-209q16 -97 69 -157t151 -60q111 0 206 79l19 -41q-28 -23 -48.5 -36.5t-73 -31t-111.5 -17.5q-119 0 -185.5 72t-84.5 192h-77v32h72q-2 38 -2 59q0 8 0.5 24t0.5 25h-71v32h76q16 120 82.5 192
t188.5 72q59 0 111.5 -17.5t73 -31t48.5 -36.5l-19 -41q-94 78 -206 78q-101 0 -154 -59.5t-68 -156.5z" />
    <glyph glyph-name="litre" unicode="&#x2113;" horiz-adv-x="449" 
d="M42 156l-12 11l94 99v243q0 102 40 151q42 50 100 50q44 0 70 -27t26 -72q0 -51 -31 -112q-31 -63 -129 -176v-168q0 -75 23 -106q22 -29 60 -29q35 0 64 29q32 29 54 103h18q-21 -83 -68 -127q-37 -35 -89 -35q-43 0 -77.5 24.5t-49.5 65.5q-11 33 -11 107v52zM200 543
v-193q134 155 134 242q0 41 -19 65t-48 24t-48 -28t-19 -110z" />
    <glyph glyph-name="afii61352" unicode="&#x2116;" horiz-adv-x="1081" 
d="M837 350q-81 0 -124 45t-43 125t43 125t124 45t124 -45t43 -125t-43 -125t-124 -45zM670 320h334v-33h-334v33zM837 380q62 0 96 37t34 103t-33.5 102.5t-96.5 36.5t-96.5 -36.5t-33.5 -102.5t33.5 -103t96.5 -37zM129 0h-52v680h53l389 -582h2v582h51v-680h-52l-389 577
h-2v-577z" />
    <glyph glyph-name="trademark" unicode="&#x2122;" horiz-adv-x="785" 
d="M441 680l126 -291h2l128 291h43v-344h-33v281h-2l-126 -281h-26l-122 281h-2v-281h-31v344h43zM299 650h-111v-314h-32v314h-111v30h254v-30z" />
    <glyph glyph-name="Omega" unicode="&#x2126;" horiz-adv-x="670" 
d="M335 690q142 0 209.5 -84t67.5 -216q0 -101 -52 -176t-146 -85v-92h198v-37h-236v154q91 4 136 71t45 165q0 52 -11 95.5t-35.5 80.5t-69 58t-106.5 21q-50 0 -89 -14t-63.5 -38t-41 -57.5t-23 -69t-6.5 -76.5q0 -97 45.5 -164.5t136.5 -71.5v-154h-237v37h199v92
q-94 10 -146.5 85t-52.5 176q0 132 68 216t210 84z" />
    <glyph glyph-name="estimated" unicode="&#x212e;" horiz-adv-x="736" 
d="M706 349h-528v-235q81 -78 190 -78q163 0 252 157l46 -26q-68 -96 -133.5 -136.5t-164.5 -40.5q-150 0 -244 102t-94 257q0 157 94.5 259t243.5 102q141 0 236.5 -94.5t101.5 -266.5zM178 397h380v189q-82 77 -191 77q-110 0 -189 -77v-189z" />
    <glyph glyph-name="onethird" unicode="&#x2153;" horiz-adv-x="800" 
d="M671 168q36 -7 57.5 -29.5t21.5 -55.5q0 -93 -114 -93q-64 0 -106 26l9 22q45 -25 96 -25q48 0 67 20.5t19 44.5q0 75 -93 75h-40v24h38q41 0 63.5 21t22.5 51q0 26 -16.5 46.5t-59.5 20.5q-39 0 -87 -24l-10 22q45 26 100 26q48 0 74.5 -23.5t26.5 -65.5
q0 -31 -19.5 -52.5t-49.5 -30.5zM50 353h105v286l-94 -53l-8 23q74 35 111 64h19v-320h105v-23h-238v23zM604 680l-370 -680h-20l370 680h20z" />
    <glyph glyph-name="twothirds" unicode="&#x2154;" horiz-adv-x="800" 
d="M604 680l-370 -680h-20l370 680h20zM671 168q36 -7 57.5 -29.5t21.5 -55.5q0 -93 -114 -93q-64 0 -106 26l9 22q45 -25 96 -25q48 0 67 20.5t19 44.5q0 75 -93 75h-40v24h38q41 0 63.5 21t22.5 51q0 26 -16.5 46.5t-59.5 20.5q-39 0 -87 -24l-10 22q45 26 100 26
q48 0 74.5 -23.5t26.5 -65.5q0 -31 -19.5 -52.5t-49.5 -30.5zM147 649q-41 0 -89 -24l-8 22q53 28 104 28q50 0 75.5 -28.5t25.5 -71.5q0 -103 -165 -219v-1h170v-25h-210v28q175 119 175 211q0 33 -16 52.5t-31 23.5t-31 4z" />
    <glyph glyph-name="oneeighth" unicode="&#x215b;" horiz-adv-x="800" 
d="M662 175q43 -20 65.5 -40.5t22.5 -53.5q0 -42 -30.5 -66.5t-85.5 -24.5q-54 0 -84 23.5t-30 65.5q0 60 88 91q-78 32 -78 86q0 39 29.5 61.5t76.5 22.5q46 0 75 -22.5t29 -60.5q0 -31 -19.5 -49t-58.5 -33zM549 81q0 -30 21.5 -49.5t65.5 -19.5t64.5 19t20.5 48
q0 16 -6.5 28.5t-21.5 22.5t-27.5 15.5t-34.5 13.5q-82 -27 -82 -78zM50 353h105v286l-94 -53l-8 23q74 35 111 64h19v-320h105v-23h-238v23zM635 318q-29 0 -53 -14t-24 -48q0 -48 80 -71q74 24 74 70q0 35 -24 49t-53 14zM604 680l-370 -680h-20l370 680h20z" />
    <glyph glyph-name="threeeighths" unicode="&#x215c;" horiz-adv-x="800" 
d="M598 680l-370 -680h-20l370 680h20zM662 175q43 -20 65.5 -40.5t22.5 -53.5q0 -42 -30.5 -66.5t-85.5 -24.5q-54 0 -84 23.5t-30 65.5q0 60 88 91q-78 32 -78 86q0 39 29.5 61.5t76.5 22.5q46 0 75 -22.5t29 -60.5q0 -31 -19.5 -49t-58.5 -33zM549 81q0 -30 21.5 -49.5
t65.5 -19.5t64.5 19t20.5 48q0 16 -6.5 28.5t-21.5 22.5t-27.5 15.5t-34.5 13.5q-82 -27 -82 -78zM635 318q-29 0 -53 -14t-24 -48q0 -48 80 -71q74 24 74 70q0 35 -24 49t-53 14zM191 498q36 -7 57.5 -29.5t21.5 -55.5q0 -93 -115 -93q-65 0 -105 26l9 22q45 -25 96 -25
q48 0 66.5 20.5t18.5 44.5q0 75 -92 75h-41v24h39q41 0 63.5 21t22.5 51q0 26 -17 46.5t-60 20.5q-37 0 -87 -24l-9 22q46 26 100 26q48 0 74.5 -23.5t26.5 -65.5q0 -31 -19.5 -52.5t-49.5 -30.5z" />
    <glyph glyph-name="fiveeighths" unicode="&#x215d;" horiz-adv-x="800" 
d="M598 680l-370 -680h-20l370 680h20zM662 175q43 -20 65.5 -40.5t22.5 -53.5q0 -42 -30.5 -66.5t-85.5 -24.5q-54 0 -84 23.5t-30 65.5q0 60 88 91q-78 32 -78 86q0 39 29.5 61.5t76.5 22.5q46 0 75 -22.5t29 -60.5q0 -31 -19.5 -49t-58.5 -33zM549 81q0 -30 21.5 -49.5
t65.5 -19.5t64.5 19t20.5 48q0 16 -6.5 28.5t-21.5 22.5t-27.5 15.5t-34.5 13.5q-82 -27 -82 -78zM635 318q-29 0 -53 -14t-24 -48q0 -48 80 -71q74 24 74 70q0 35 -24 49t-53 14zM154 320q-51 0 -104 28l8 22q51 -26 93 -27q39 0 64 24t25 64q0 34 -18.5 58.5t-59.5 24.5
q-45 0 -75 -41l-21 2l9 190h175v-25h-151l-8 -140l1 -1q33 40 79 40t72.5 -28.5t26.5 -77.5q0 -52 -32 -82.5t-84 -30.5z" />
    <glyph glyph-name="seveneighths" unicode="&#x215e;" horiz-adv-x="800" 
d="M548 680l-370 -680h-20l370 680h20zM662 175q43 -20 65.5 -40.5t22.5 -53.5q0 -42 -30.5 -66.5t-85.5 -24.5q-54 0 -84 23.5t-30 65.5q0 60 88 91q-78 32 -78 86q0 39 29.5 61.5t76.5 22.5q46 0 75 -22.5t29 -60.5q0 -31 -19.5 -49t-58.5 -33zM549 81q0 -30 21.5 -49.5
t65.5 -19.5t64.5 19t20.5 48q0 16 -6.5 28.5t-21.5 22.5t-27.5 15.5t-34.5 13.5q-82 -27 -82 -78zM635 318q-29 0 -53 -14t-24 -48q0 -48 80 -71q74 24 74 70q0 35 -24 49t-53 14zM233 644v1h-183v25h215v-21q-113 -184 -135 -319h-30q10 69 50 158.5t83 155.5z" />
    <glyph glyph-name="partialdiff" unicode="&#x2202;" horiz-adv-x="574" 
d="M462 349l1 1h1q1 30 2.5 67.5t-9.5 78t-29 74t-56.5 55.5t-91.5 22q-65 0 -134 -22l-2 39q78 26 147 26q123 0 184 -91.5t32 -298.5q-43 -310 -269 -310q-91 0 -141.5 62.5t-35.5 167.5q16 112 79 173.5t160 61.5q106 0 162 -106zM454 305q-24 47 -62.5 76.5t-85.5 29.5
q-48 0 -85 -17.5t-58.5 -47.5t-32.5 -60.5t-16 -65.5q-13 -88 27 -138t107 -50q52 0 90.5 22t61.5 63t35 85.5t19 102.5z" />
    <glyph glyph-name="Delta" unicode="&#x2206;" horiz-adv-x="628" 
d="M294 710l284 -710h-528zM286 626l-205 -601h442z" />
    <glyph glyph-name="product" unicode="&#x220f;" horiz-adv-x="650" 
d="M127 0h-50v700h495v-700h-50v655h-395v-655z" />
    <glyph glyph-name="summation" unicode="&#x2211;" horiz-adv-x="550" 
d="M131 630l186 -291l-185 -290v-2h358v-47h-430v40l191 298l-191 302v40h430v-48h-359v-2z" />
    <glyph glyph-name="minus" unicode="&#x2212;" horiz-adv-x="500" 
d="M67 286h365v-42h-365v42z" />
    <glyph glyph-name="uni2215" unicode="&#x2215;" horiz-adv-x="540" 
d="M477 680l-370 -680h-45l370 680h45z" />
    <glyph glyph-name="uni2219" unicode="&#x2219;" horiz-adv-x="225" 
d="M87 307h50v-115h-50v115z" />
    <glyph glyph-name="radical" unicode="&#x221a;" horiz-adv-x="807" 
d="M87 357v33h205l128 -336h2l244 646h54l-271 -705h-59l-143 362h-160z" />
    <glyph glyph-name="infinity" unicode="&#x221e;" horiz-adv-x="685" 
d="M178 361q-51 0 -84 -30t-33 -84q0 -46 31 -78t85 -32q51 0 88 35.5t55 74.5q-16 39 -54.5 76.5t-87.5 37.5zM340 222q-24 -48 -67.5 -82t-101.5 -34q-66 0 -105 39.5t-39 104.5t42 104.5t114 39.5q98 0 160 -120q27 50 70 85t101 35q66 0 105 -39.5t39 -104.5
q0 -62 -41 -103t-112 -41q-47 0 -92.5 30.5t-72.5 85.5zM507 363q-48 0 -87 -36.5t-58 -78.5q18 -44 59 -77t84 -33q58 0 88.5 32.5t30.5 79.5t-29 80t-88 33z" />
    <glyph glyph-name="integral" unicode="&#x222b;" horiz-adv-x="345" 
d="M107 -77v619q0 88 31.5 123t101.5 35q24 0 72 -6l-5 -40q-42 5 -57 5q-54 0 -73.5 -29.5t-19.5 -94.5v-619q0 -68 -29.5 -97t-102.5 -29q-35 0 -73 6l6 40q30 -5 57 -5q54 0 73 21t19 71z" />
    <glyph glyph-name="approxequal" unicode="&#x2248;" horiz-adv-x="501" 
d="M174 377q-12 0 -20.5 -2.5t-26 -14.5t-42.5 -37l-18 14q34 43 56.5 60t48.5 17t96 -31t85 -31q37 0 65 49l16 -16q-18 -35 -36.5 -51.5t-44.5 -16.5q-19 0 -89.5 30t-89.5 30zM174 177q-12 0 -20.5 -2.5t-26 -14.5t-42.5 -37l-18 14q34 43 56.5 60t48.5 17t96 -31t85 -31
q37 0 65 49l16 -16q-18 -35 -36.5 -51.5t-44.5 -16.5q-19 0 -89.5 30t-89.5 30z" />
    <glyph glyph-name="notequal" unicode="&#x2260;" horiz-adv-x="500" 
d="M67 186h127l86 158h-213v42h236l119 219h25l-119 -219h104v-42h-127l-86 -158h213v-42h-236l-119 -219h-25l119 219h-104v42z" />
    <glyph glyph-name="lessequal" unicode="&#x2264;" horiz-adv-x="480" 
d="M77 314l325 161v-38l-272 -137l272 -138v-37l-325 161v28zM67 70h345v-33h-345v33z" />
    <glyph glyph-name="greaterequal" unicode="&#x2265;" horiz-adv-x="480" 
d="M77 475l325 -161v-28l-325 -161v37l273 138l-273 137v38zM67 70h345v-33h-345v33z" />
    <glyph glyph-name="lozenge" unicode="&#x25ca;" horiz-adv-x="472" 
d="M229 -30l-199 374l199 374h14l199 -374l-199 -374h-14zM72 344l164 -307l163 307l-163 306z" />
    <glyph glyph-name="Abreve.small" unicode="&#xf66d;" horiz-adv-x="610" 
d="M504 0l-65 167h-269l-67 -167h-56l231 585h61l223 -585h-58zM428 210l-120 311h-1l-125 -311h246zM304 669q87 0 109 96h24q-9 -65 -45 -96.5t-88 -31.5q-50 0 -85.5 31.5t-45.5 96.5h24q22 -96 107 -96z" />
    <glyph glyph-name="Amacron.small" unicode="&#xf66e;" horiz-adv-x="610" 
d="M504 0l-65 167h-269l-67 -167h-56l231 585h61l223 -585h-58zM428 210l-120 311h-1l-125 -311h246zM157 710h295v-33h-295v33z" />
    <glyph glyph-name="AEacute.small" unicode="&#xf670;" horiz-adv-x="886" 
d="M101 0h-54l368 580h398v-45h-320v-218h275v-45h-275v-227h325v-45h-375v251h-180zM286 294h157v241h-2zM567 750l-77 -120h-30l65 120h42z" />
    <glyph glyph-name="Cacute.small" unicode="&#xf671;" horiz-adv-x="587" 
d="M67 294q0 147 62 221.5t206 74.5q100 0 202 -33l-12 -42q-105 30 -189 30q-120 0 -168 -64t-48 -187q0 -129 47.5 -194t168.5 -65q84 0 189 30l12 -43q-104 -32 -202 -32q-145 0 -206.5 75.5t-61.5 228.5zM423 750l-77 -120h-30l65 120h42z" />
    <glyph glyph-name="Ccaron.small" unicode="&#xf672;" horiz-adv-x="587" 
d="M67 294q0 147 62 221.5t206 74.5q100 0 202 -33l-12 -42q-105 30 -189 30q-120 0 -168 -64t-48 -187q0 -129 47.5 -194t168.5 -65q84 0 189 30l12 -43q-104 -32 -202 -32q-145 0 -206.5 75.5t-61.5 228.5zM242 750l92 -95l93 95h30l-106 -120h-33l-106 120h30z" />
    <glyph glyph-name="Ccircumflex.small" unicode="&#xf673;" horiz-adv-x="587" 
d="M67 294q0 147 62 221.5t206 74.5q100 0 202 -33l-12 -42q-105 30 -189 30q-120 0 -168 -64t-48 -187q0 -129 47.5 -194t168.5 -65q84 0 189 30l12 -43q-104 -32 -202 -32q-145 0 -206.5 75.5t-61.5 228.5zM325 725l-92 -95h-30l106 120h33l106 -120h-30z" />
    <glyph glyph-name="Cdotaccent.small" unicode="&#xf674;" horiz-adv-x="587" 
d="M67 294q0 147 62 221.5t206 74.5q100 0 202 -33l-12 -42q-105 30 -189 30q-120 0 -168 -64t-48 -187q0 -129 47.5 -194t168.5 -65q84 0 189 30l12 -43q-104 -32 -202 -32q-145 0 -206.5 75.5t-61.5 228.5zM312 750h45v-105h-45v105z" />
    <glyph glyph-name="Dcaron.small" unicode="&#xf675;" horiz-adv-x="610" 
d="M277 0h-200v580h200q139 0 202 -71t63 -214q0 -146 -63 -220.5t-202 -74.5zM127 45h148q120 0 167.5 64t47.5 186q0 121 -47 180.5t-168 59.5h-148v-490zM174 750l92 -95l93 95h30l-106 -120h-33l-106 120h30z" />
    <glyph glyph-name="Ebreve.small" unicode="&#xf677;" horiz-adv-x="520" 
d="M447 580v-45h-320v-218h275v-45h-275v-227h325v-45h-375v580h370zM258 669q87 0 109 96h24q-9 -65 -45 -96.5t-88 -31.5q-50 0 -85.5 31.5t-45.5 96.5h24q22 -96 107 -96z" />
    <glyph glyph-name="Ecaron.small" unicode="&#xf678;" horiz-adv-x="520" 
d="M447 580v-45h-320v-218h275v-45h-275v-227h325v-45h-375v580h370zM163 750l92 -95l93 95h30l-106 -120h-33l-106 120h30z" />
    <glyph glyph-name="Edotaccent.small" unicode="&#xf679;" horiz-adv-x="520" 
d="M447 580v-45h-320v-218h275v-45h-275v-227h325v-45h-375v580h370zM246 750h45v-105h-45v105z" />
    <glyph glyph-name="Emacron.small" unicode="&#xf67a;" horiz-adv-x="520" 
d="M447 580v-45h-320v-218h275v-45h-275v-227h325v-45h-375v580h370zM112 710h295v-33h-295v33z" />
    <glyph glyph-name="Gbreve.small" unicode="&#xf67d;" horiz-adv-x="615" 
d="M336 35q64 0 144 21v199h-135v37h185v-270q-99 -32 -195 -32q-145 0 -206.5 75.5t-61.5 228.5q0 147 62 221.5t206 74.5q100 0 202 -33l-12 -42q-105 30 -189 30q-120 0 -168 -64t-48 -187q0 -129 47.5 -194t168.5 -65zM328 669q87 0 109 96h24q-9 -65 -45 -96.5
t-88 -31.5q-50 0 -85.5 31.5t-45.5 96.5h24q22 -96 107 -96z" />
    <glyph glyph-name="Gcircumflex.small" unicode="&#xf67e;" horiz-adv-x="615" 
d="M336 35q64 0 144 21v199h-135v37h185v-270q-99 -32 -195 -32q-145 0 -206.5 75.5t-61.5 228.5q0 147 62 221.5t206 74.5q100 0 202 -33l-12 -42q-105 30 -189 30q-120 0 -168 -64t-48 -187q0 -129 47.5 -194t168.5 -65zM332 725l-92 -95h-30l106 120h33l106 -120h-30z
" />
    <glyph glyph-name="Gcommaaccent.small" unicode="&#xf67f;" horiz-adv-x="615" 
d="M336 35q64 0 144 21v199h-135v37h185v-270q-99 -32 -195 -32q-145 0 -206.5 75.5t-61.5 228.5q0 147 62 221.5t206 74.5q100 0 202 -33l-12 -42q-105 30 -189 30q-120 0 -168 -64t-48 -187q0 -129 47.5 -194t168.5 -65zM321 -198h-19l12 88h-13v70h45v-70z" />
    <glyph glyph-name="Gdotaccent.small" unicode="&#xf680;" horiz-adv-x="615" 
d="M336 35q64 0 144 21v199h-135v37h185v-270q-99 -32 -195 -32q-145 0 -206.5 75.5t-61.5 228.5q0 147 62 221.5t206 74.5q100 0 202 -33l-12 -42q-105 30 -189 30q-120 0 -168 -64t-48 -187q0 -129 47.5 -194t168.5 -65zM312 750h45v-105h-45v105z" />
    <glyph glyph-name="Hcircumflex.small" unicode="&#xf682;" 
d="M127 0h-50v580h50v-263h345v263h50v-580h-50v272h-345v-272zM299 725l-92 -95h-30l106 120h33l106 -120h-30z" />
    <glyph glyph-name="Ibreve.small" unicode="&#xf683;" horiz-adv-x="205" 
d="M127 0h-50v580h50v-580zM101 669q87 0 109 96h24q-9 -65 -45 -96.5t-88 -31.5q-50 0 -85.5 31.5t-45.5 96.5h24q22 -96 107 -96z" />
    <glyph glyph-name="Imacron.small" unicode="&#xf685;" horiz-adv-x="205" 
d="M127 0h-50v580h50v-580zM-45 710h295v-33h-295v33z" />
    <glyph glyph-name="Itilde.small" unicode="&#xf687;" horiz-adv-x="205" 
d="M127 0h-50v580h50v-580zM51 705q-20 0 -36 -9t-53 -46l-17 15q32 42 55 58t50 16q25 0 70 -31t60 -31q35 0 65 51l16 -15q-34 -68 -81 -68q-19 0 -64.5 30t-64.5 30z" />
    <glyph glyph-name="Jcircumflex.small" unicode="&#xf688;" horiz-adv-x="315" 
d="M240 580v-420q0 -94 -34.5 -132t-105.5 -38q-42 0 -79 6l5 45q32 -5 61 -5q55 0 77.5 30t22.5 97v417h53zM213 725l-92 -95h-30l106 120h33l106 -120h-30z" />
    <glyph glyph-name="Kcommaaccent.small" unicode="&#xf689;" horiz-adv-x="579" 
d="M127 580v-341l330 341h63l-220 -231l227 -349h-63l-200 312l-137 -143v-169h-50v580h50zM277 -198h-19l12 88h-13v70h45v-70z" />
    <glyph glyph-name="Lacute.small" unicode="&#xf68a;" horiz-adv-x="500" 
d="M77 580h50v-535h315v-45h-365v580zM196 750l-77 -120h-30l65 120h42z" />
    <glyph glyph-name="Lcaron.small" unicode="&#xf68b;" horiz-adv-x="500" 
d="M77 580h50v-535h315v-45h-365v580zM254 422h-19l12 88h-13v70h45v-70z" />
    <glyph glyph-name="Lcommaaccent.small" unicode="&#xf68c;" horiz-adv-x="500" 
d="M77 580h50v-535h315v-45h-365v580zM259 -198h-19l12 88h-13v70h45v-70z" />
    <glyph glyph-name="Ldot.small" unicode="&#xf68d;" horiz-adv-x="500" 
d="M77 580h50v-535h315v-45h-365v580zM232 370h45v-105h-45v105z" />
    <glyph glyph-name="Nacute.small" unicode="&#xf68e;" horiz-adv-x="610" 
d="M126 0h-49v580h53l352 -496h2v496h48v-580h-52l-352 496h-2v-496zM401 750l-77 -120h-30l65 120h42z" />
    <glyph glyph-name="Ncaron.small" unicode="&#xf68f;" horiz-adv-x="610" 
d="M126 0h-49v580h53l352 -496h2v496h48v-580h-52l-352 496h-2v-496zM212 750l92 -95l93 95h30l-106 -120h-33l-106 120h30z" />
    <glyph glyph-name="Ncommaaccent.small" unicode="&#xf690;" horiz-adv-x="610" 
d="M126 0h-49v580h53l352 -496h2v496h48v-580h-52l-352 496h-2v-496zM304 -198h-19l12 88h-13v70h45v-70z" />
    <glyph glyph-name="Obreve.small" unicode="&#xf691;" horiz-adv-x="650" 
d="M325 547q-63 0 -105 -19t-63 -55.5t-29 -78t-8 -99.5t8 -101t29 -82t63 -59.5t105 -20.5t105 20.5t63 59.5t29 82t8 101t-8 99.5t-29 78t-63 55.5t-105 19zM325 -10q-139 0 -198.5 78t-59.5 227q0 146 59.5 220.5t198.5 74.5t198 -74.5t59 -220.5q0 -149 -59 -227
t-198 -78zM324 669q87 0 109 96h24q-9 -65 -45 -96.5t-88 -31.5q-50 0 -85.5 31.5t-45.5 96.5h24q22 -96 107 -96z" />
    <glyph glyph-name="Ohungarumlaut.small" unicode="&#xf692;" horiz-adv-x="650" 
d="M325 547q-63 0 -105 -19t-63 -55.5t-29 -78t-8 -99.5t8 -101t29 -82t63 -59.5t105 -20.5t105 20.5t63 59.5t29 82t8 101t-8 99.5t-29 78t-63 55.5t-105 19zM325 -10q-139 0 -198.5 78t-59.5 227q0 146 59.5 220.5t198.5 74.5t198 -74.5t59 -220.5q0 -149 -59 -227
t-198 -78zM335 750l-70 -120h-30l65 120h35zM442 750l-70 -120h-30l65 120h35z" />
    <glyph glyph-name="Omacron.small" unicode="&#xf693;" horiz-adv-x="650" 
d="M325 547q-63 0 -105 -19t-63 -55.5t-29 -78t-8 -99.5t8 -101t29 -82t63 -59.5t105 -20.5t105 20.5t63 59.5t29 82t8 101t-8 99.5t-29 78t-63 55.5t-105 19zM325 -10q-139 0 -198.5 78t-59.5 227q0 146 59.5 220.5t198.5 74.5t198 -74.5t59 -220.5q0 -149 -59 -227
t-198 -78zM177 710h295v-33h-295v33z" />
    <glyph glyph-name="Oslashacute.small" unicode="&#xf694;" horiz-adv-x="650" 
d="M409 750l-77 -120h-30l65 120h42zM325 -10q-117 0 -179 59l-63 -78l-18 15l63 79q-61 73 -61 230q0 146 59.5 220.5t198.5 74.5q118 0 180 -59l61 75l19 -15l-62 -76q59 -72 59 -220q0 -149 -59 -227t-198 -78zM325 547q-63 0 -105 -19t-63 -55.5t-29 -78t-8 -99.5
q0 -128 42 -188l314 387q-51 53 -151 53zM325 32q63 0 105 20.5t63 59.5t29 82t8 101q0 121 -40 178l-314 -387q51 -54 149 -54z" />
    <glyph glyph-name="Racute.small" unicode="&#xf695;" horiz-adv-x="575" 
d="M524 0h-64l-173 212h-160v-212h-50v580h230q93 0 144 -51t51 -133q0 -76 -41.5 -123.5t-119.5 -52.5zM127 535v-278h173q151 0 151 139q0 64 -37.5 101.5t-106.5 37.5h-180zM355 750l-77 -120h-30l65 120h42z" />
    <glyph glyph-name="Rcaron.small" unicode="&#xf696;" horiz-adv-x="575" 
d="M524 0h-64l-173 212h-160v-212h-50v580h230q93 0 144 -51t51 -133q0 -76 -41.5 -123.5t-119.5 -52.5zM127 535v-278h173q151 0 151 139q0 64 -37.5 101.5t-106.5 37.5h-180zM174 750l92 -95l93 95h30l-106 -120h-33l-106 120h30z" />
    <glyph glyph-name="Rcommaaccent.small" unicode="&#xf697;" horiz-adv-x="575" 
d="M524 0h-64l-173 212h-160v-212h-50v580h230q93 0 144 -51t51 -133q0 -76 -41.5 -123.5t-119.5 -52.5zM127 535v-278h173q151 0 151 139q0 64 -37.5 101.5t-106.5 37.5h-180zM279 -198h-19l12 88h-13v70h45v-70z" />
    <glyph glyph-name="Sacute.small" unicode="&#xf698;" horiz-adv-x="570" 
d="M280 273q-37 8 -60.5 14.5t-51.5 19t-43.5 28.5t-26.5 42t-11 60q0 153 193 153q102 0 212 -33l-12 -42q-115 30 -199 30q-141 0 -141 -104q0 -21 5 -37.5t17 -28.5t22.5 -20t31 -14l31.5 -9t36 -8t33 -7q90 -18 138 -53.5t48 -109.5q0 -82 -60 -123t-152 -41
q-110 0 -223 32l13 43q115 -30 211 -30q82 0 120.5 34t38.5 82q0 15 -3 28t-11 23.5l-14 18.5t-20.5 15t-21.5 11t-26 9t-24 6.5t-26.5 6t-23.5 4.5zM382 750l-77 -120h-30l65 120h42z" />
    <glyph glyph-name="Scircumflex.small" unicode="&#xf69a;" horiz-adv-x="570" 
d="M280 273q-37 8 -60.5 14.5t-51.5 19t-43.5 28.5t-26.5 42t-11 60q0 153 193 153q102 0 212 -33l-12 -42q-115 30 -199 30q-141 0 -141 -104q0 -21 5 -37.5t17 -28.5t22.5 -20t31 -14l31.5 -9t36 -8t33 -7q90 -18 138 -53.5t48 -109.5q0 -82 -60 -123t-152 -41
q-110 0 -223 32l13 43q115 -30 211 -30q82 0 120.5 34t38.5 82q0 15 -3 28t-11 23.5l-14 18.5t-20.5 15t-21.5 11t-26 9t-24 6.5t-26.5 6t-23.5 4.5zM284 725l-92 -95h-30l106 120h33l106 -120h-30z" />
    <glyph glyph-name="Scommaaccent.small" unicode="&#xf69b;" horiz-adv-x="570" 
d="M280 273q-37 8 -60.5 14.5t-51.5 19t-43.5 28.5t-26.5 42t-11 60q0 153 193 153q102 0 212 -33l-12 -42q-115 30 -199 30q-141 0 -141 -104q0 -21 5 -37.5t17 -28.5t22.5 -20t31 -14l31.5 -9t36 -8t33 -7q90 -18 138 -53.5t48 -109.5q0 -82 -60 -123t-152 -41
q-110 0 -223 32l13 43q115 -30 211 -30q82 0 120.5 34t38.5 82q0 15 -3 28t-11 23.5l-14 18.5t-20.5 15t-21.5 11t-26 9t-24 6.5t-26.5 6t-23.5 4.5zM284 -198h-19l12 88h-13v70h45v-70z" />
    <glyph glyph-name="Tcaron.small" unicode="&#xf69d;" horiz-adv-x="520" 
d="M462 535h-177v-535h-50v535h-178v45h405v-45zM167 750l92 -95l93 95h30l-106 -120h-33l-106 120h30z" />
    <glyph glyph-name="Tcommaaccent.small" unicode="&#xf69e;" horiz-adv-x="520" 
d="M462 535h-177v-535h-50v535h-178v45h405v-45zM257 -198h-19l12 88h-13v70h45v-70z" />
    <glyph glyph-name="Ubreve.small" unicode="&#xf69f;" 
d="M77 225v355h50v-348q0 -33 2 -55t11.5 -52.5t27.5 -48.5t52.5 -31t83.5 -13q45 0 77 13t49 31.5t27 47.5t12.5 52.5t2.5 55.5v348h50v-348q0 -127 -55 -184.5t-167 -57.5t-167.5 54.5t-55.5 180.5zM299 669q87 0 109 96h24q-9 -65 -45 -96.5t-88 -31.5q-50 0 -85.5 31.5
t-45.5 96.5h24q22 -96 107 -96z" />
    <glyph glyph-name="Uhungarumlaut.small" unicode="&#xf6a0;" 
d="M77 225v355h50v-348q0 -33 2 -55t11.5 -52.5t27.5 -48.5t52.5 -31t83.5 -13q45 0 77 13t49 31.5t27 47.5t12.5 52.5t2.5 55.5v348h50v-348q0 -127 -55 -184.5t-167 -57.5t-167.5 54.5t-55.5 180.5zM290 750l-70 -120h-30l65 120h35zM397 750l-70 -120h-30l65 120h35z" />
    <glyph glyph-name="Umacron.small" unicode="&#xf6a1;" 
d="M77 225v355h50v-348q0 -33 2 -55t11.5 -52.5t27.5 -48.5t52.5 -31t83.5 -13q45 0 77 13t49 31.5t27 47.5t12.5 52.5t2.5 55.5v348h50v-348q0 -127 -55 -184.5t-167 -57.5t-167.5 54.5t-55.5 180.5zM152 710h295v-33h-295v33z" />
    <glyph glyph-name="Uring.small" unicode="&#xf6a3;" 
d="M77 225v355h50v-348q0 -33 2 -55t11.5 -52.5t27.5 -48.5t52.5 -31t83.5 -13q45 0 77 13t49 31.5t27 47.5t12.5 52.5t2.5 55.5v348h50v-348q0 -127 -55 -184.5t-167 -57.5t-167.5 54.5t-55.5 180.5zM227 690q0 31 21 51.5t52 20.5q32 0 53 -20.5t21 -51.5t-21 -52t-53 -21
q-31 0 -52 21t-21 52zM247 690q0 -23 15 -38.5t38 -15.5t38 15.5t15 38.5t-15 38.5t-38 15.5q-22 0 -37.5 -15.5t-15.5 -38.5z" />
    <glyph glyph-name="Utilde.small" unicode="&#xf6a4;" 
d="M77 225v355h50v-348q0 -33 2 -55t11.5 -52.5t27.5 -48.5t52.5 -31t83.5 -13q45 0 77 13t49 31.5t27 47.5t12.5 52.5t2.5 55.5v348h50v-348q0 -127 -55 -184.5t-167 -57.5t-167.5 54.5t-55.5 180.5zM248 705q-20 0 -36 -9t-53 -46l-17 15q32 42 55 58t50 16q25 0 70 -31
t60 -31q35 0 65 51l16 -15q-34 -68 -81 -68q-19 0 -64.5 30t-64.5 30z" />
    <glyph glyph-name="Wacute.small" unicode="&#xf6a5;" horiz-adv-x="900" 
d="M448 500h-2l-146 -505h-64l-189 585h59l166 -520h1l147 520h58l151 -520h1l167 520h55l-188 -585h-69zM545 750l-77 -120h-30l65 120h42z" />
    <glyph glyph-name="Wcircumflex.small" unicode="&#xf6a6;" horiz-adv-x="900" 
d="M448 500h-2l-146 -505h-64l-189 585h59l166 -520h1l147 520h58l151 -520h1l167 520h55l-188 -585h-69zM449 725l-92 -95h-30l106 120h33l106 -120h-30z" />
    <glyph glyph-name="Wdieresis.small" unicode="&#xf6a7;" horiz-adv-x="900" 
d="M448 500h-2l-146 -505h-64l-189 585h59l166 -520h1l147 520h58l151 -520h1l167 520h55l-188 -585h-69zM299 750h42v-105h-42v105zM559 750h42v-105h-42v105z" />
    <glyph glyph-name="Wgrave.small" unicode="&#xf6a8;" horiz-adv-x="900" 
d="M448 500h-2l-146 -505h-64l-189 585h59l166 -520h1l147 520h58l151 -520h1l167 520h55l-188 -585h-69zM431 630l-77 120h42l65 -120h-30z" />
    <glyph glyph-name="Ycircumflex.small" unicode="&#xf6a9;" horiz-adv-x="580" 
d="M290 240h2l183 340h57l-217 -400v-180h-50v180l-218 400h61zM289 725l-92 -95h-30l106 120h33l106 -120h-30z" />
    <glyph glyph-name="Ygrave.small" unicode="&#xf6aa;" horiz-adv-x="580" 
d="M290 240h2l183 340h57l-217 -400v-180h-50v180l-218 400h61zM279 630l-77 120h42l65 -120h-30z" />
    <glyph glyph-name="Zacute.small" unicode="&#xf6ab;" horiz-adv-x="520" 
d="M120 47v-2h350v-45h-420v40l343 493v2h-323v45h390v-40zM342 750l-77 -120h-30l65 120h42z" />
    <glyph glyph-name="Zdotaccent.small" unicode="&#xf6ac;" horiz-adv-x="520" 
d="M120 47v-2h350v-45h-420v40l343 493v2h-323v45h390v-40zM237 750h45v-105h-45v105z" />
    <glyph glyph-name="Idotaccent.small" unicode="&#xf6ad;" horiz-adv-x="205" 
d="M127 0h-50v580h50v-580zM80 750h45v-105h-45v105z" />
    <glyph glyph-name="commaaccent" unicode="&#xf6c3;" horiz-adv-x="179" 
d="M90 717h19l-12 -87h13v-70h-45v70z" />
    <glyph glyph-name="rupiah" unicode="&#xf6dd;" horiz-adv-x="1076" 
d="M130 632v-297h205q70 0 112 39.5t42 109.5q0 66 -39.5 107t-107.5 41h-212zM614 0h-112l-181 287h-191v-287h-53v680h270q92 0 143.5 -56t51.5 -140q0 -77 -44 -129t-122 -60l165 -258h73v463h50v-50h2q67 60 165 60q188 0 188 -260q0 -120 -45.5 -190t-144.5 -70
q-97 0 -163 59h-2v-249h-50v200zM966 250q0 217 -152 217q-84 0 -150 -53v-328q64 -54 150 -54q152 0 152 218z" />
    <glyph glyph-name="asuperior" unicode="&#xf6e9;" horiz-adv-x="297" 
d="M154 664q-31 0 -80 -9l-4 21q48 9 89 9q44 0 65 -18t21 -63v-174h-25v25q-40 -30 -85 -30q-38 0 -60.5 19t-22.5 52q0 74 105 74h63v32q0 32 -15 47t-51 15zM220 472v82h-61q-82 0 -82 -56q0 -24 17.5 -38.5t49.5 -14.5q44 0 76 27z" />
    <glyph glyph-name="bsuperior" unicode="&#xf6ea;" horiz-adv-x="307" 
d="M77 780v-125h1q33 30 83 30q94 0 94 -130t-95 -130q-47 0 -83 29h-1l-4 -25h-20v351h25zM229 555q0 109 -77 109q-40 0 -75 -27v-164q35 -27 75 -27q77 0 77 109z" />
    <glyph glyph-name="esuperior" unicode="&#xf6ec;" horiz-adv-x="318" 
d="M260 554h-181q2 -108 97 -108q44 0 78 10q0 -1 1.5 -8.5t1.5 -11.5q-40 -11 -85 -11q-120 0 -120 130t117 130q53 0 74 -27.5t21 -65.5q0 -14 -4 -38zM167 665q-81 0 -88 -94h157q4 20 3 32q-4 62 -72 62z" />
    <glyph glyph-name="isuperior" unicode="&#xf6ed;" horiz-adv-x="130" 
d="M52 780h25v-56h-25v56zM52 680h25v-250h-25v250z" />
    <glyph glyph-name="lsuperior" unicode="&#xf6ee;" horiz-adv-x="130" 
d="M52 430v350h25v-350h-25z" />
    <glyph glyph-name="msuperior" unicode="&#xf6ef;" horiz-adv-x="452" 
d="M77 626v-196h-25v250h25v-38h1q45 43 86 43q57 0 70 -46q44 46 91 46q75 0 75 -81v-174h-25v169q0 65 -60 65q-33 0 -78 -40q2 -14 2 -28v-166h-25v170q-2 64 -60 64q-31 0 -77 -38z" />
    <glyph glyph-name="osuperior" unicode="&#xf6f0;" horiz-adv-x="322" 
d="M162 664q-83 0 -83 -109t83 -109q82 0 82 109t-82 109zM162 425q-110 0 -110 130t110 130q108 0 108 -130t-108 -130z" />
    <glyph glyph-name="rsuperior" unicode="&#xf6f1;" horiz-adv-x="232" 
d="M77 623v-193h-25v250h25v-40h1q49 45 102 45v-24q-52 0 -103 -38z" />
    <glyph glyph-name="ssuperior" unicode="&#xf6f2;" horiz-adv-x="292" 
d="M240 497q0 -72 -86 -72q-61 0 -102 11l6 20q38 -10 93 -10q28 0 43.5 11.5t18 20.5t2.5 18q0 18 -14 30t-55 20q-44 9 -66.5 24.5t-22.5 49.5q0 65 87 65q54 0 95 -11l-5 -20q-39 10 -89 10q-21 0 -35 -5.5t-19.5 -13.5t-7 -13.5t-1.5 -10.5q0 -18 13.5 -31t53.5 -21
q46 -9 68.5 -25t22.5 -47z" />
    <glyph glyph-name="tsuperior" unicode="&#xf6f3;" horiz-adv-x="252" 
d="M94 504v157h-42v17l42 2l3 70h22v-70h77v-19h-77v-153q0 -32 10.5 -47t37.5 -15q5 0 29 2l3 -20q-19 -3 -39 -3q-35 0 -50.5 17.5t-15.5 61.5z" />
    <glyph glyph-name="Lslashsmall" unicode="&#xf6f9;" horiz-adv-x="500" 
d="M242 314l-115 -29v-240h315v-45h-365v273l-70 -17v33l70 16v275h50v-262l115 28v-32z" />
    <glyph glyph-name="OEsmall" unicode="&#xf6fa;" horiz-adv-x="975" 
d="M902 580v-45h-320v-218h275v-45h-275v-227h325v-45h-372v138q-43 -148 -210 -148q-139 0 -198.5 78t-59.5 227q0 146 59.5 220.5t198.5 74.5q167 0 211 -143v133h366zM325 547q-63 0 -105 -19t-63 -55.5t-29 -78t-8 -99.5t8 -101t29 -82t63 -59.5t105 -20.5t105 20.5
t63 59.5t29 82t8 101t-8 99.5t-29 78t-63 55.5t-105 19z" />
    <glyph glyph-name="Scaronsmall" unicode="&#xf6fd;" horiz-adv-x="570" 
d="M202 780l82 -110l83 110h40l-104 -140h-37l-104 140h40zM280 273q-37 8 -60.5 14.5t-51.5 19t-43.5 28.5t-26.5 42t-11 60q0 153 193 153q102 0 212 -33l-12 -42q-115 30 -199 30q-141 0 -141 -104q0 -21 5 -37.5t17 -28.5t22.5 -20t31 -14l31.5 -9t36 -8t33 -7
q90 -18 138 -53.5t48 -109.5q0 -82 -60 -123t-152 -41q-110 0 -223 32l13 43q115 -30 211 -30q82 0 120.5 34t38.5 82q0 15 -3 28t-11 23.5l-14 18.5t-20.5 15t-21.5 11t-26 9t-24 6.5t-26.5 6t-23.5 4.5z" />
    <glyph glyph-name="Zcaronsmall" unicode="&#xf6ff;" horiz-adv-x="520" 
d="M177 780l82 -110l83 110h40l-104 -140h-37l-104 140h40zM120 47v-2h350v-45h-420v40l343 493v2h-323v45h390v-40z" />
    <glyph glyph-name="dollaroldstyle" unicode="&#xf724;" horiz-adv-x="510" 
d="M254 232q-56 11 -91.5 25t-60.5 45t-25 78q0 60 48 95t125 35q100 0 190 -34l-10 -39q-96 32 -178 32q-39 0 -66.5 -11t-38.5 -27.5t-15.5 -28.5t-4.5 -21q0 -36 27 -61t106 -41q93 -19 137.5 -53t44.5 -100q0 -60 -47 -98t-125 -38q-113 0 -203 34l10 38q92 -31 188 -31
q40 0 67.5 11.5t39 28.5t16 29.5t4.5 22.5q0 37 -28.5 65t-109.5 44zM270 -130h-30v100h30v-100zM270 530h-30v100h30v-100z" />
    <glyph glyph-name="ampersandsmall" unicode="&#xf726;" horiz-adv-x="905" 
d="M627 148v99h-506q2 -96 53 -155.5t140 -59.5q67 0 154 34q4 -29 7 -40q-83 -36 -168 -36q-109 0 -174.5 72t-65.5 188q0 115 63.5 187.5t169.5 72.5q49 0 86 -16t56 -41t31.5 -56t12.5 -61t-1 -55h142q2 37 3.5 110t3.5 109h43v-219h155v-34h-155v-87q0 -68 20 -98.5
t78 -30.5q26 0 57 5l5 -40q-36 -6 -77 -6q-70 0 -101.5 35t-31.5 123zM297 470q-78 0 -124 -54t-52 -135h313q9 32 3.5 65.5t-19 61t-45.5 45t-76 17.5z" />
    <glyph glyph-name="zerooldstyle" unicode="&#xf730;" horiz-adv-x="590" 
d="M295 467q-84 0 -129.5 -62t-45.5 -155q0 -94 45.5 -156t129.5 -62t129.5 62t45.5 156q0 93 -45.5 155t-129.5 62zM295 -10q-107 0 -167.5 71.5t-60.5 188.5t60.5 188.5t167.5 71.5t167 -71.5t60 -188.5t-60 -188.5t-167 -71.5z" />
    <glyph glyph-name="twooldstyle" unicode="&#xf732;" horiz-adv-x="590" 
d="M287 464q-93 0 -187 -45l-13 43q104 48 208 48q90 0 143.5 -45.5t53.5 -118.5q0 -116 -135 -202q-50 -32 -198 -100v-2l343 3v-45h-415v51q204 88 278.5 151.5t74.5 133.5q0 37 -16.5 64t-42.5 40t-49.5 18.5t-44.5 5.5z" />
    <glyph glyph-name="questionsmall" unicode="&#xf73f;" horiz-adv-x="480" 
d="M237 610q93 0 139 -38t46 -100q0 -47 -20.5 -78t-49 -46.5t-57.5 -28t-49.5 -32.5t-20.5 -50v-27h-45v30q0 37 19.5 61.5t48 37.5l56.5 26t47.5 38t19.5 63q0 99 -146 99q-66 0 -155 -37l-13 39q104 43 180 43zM177 115h50v-115h-50v115z" />
    <glyph glyph-name="Asmall" unicode="&#xf761;" horiz-adv-x="610" 
d="M504 0l-65 167h-269l-67 -167h-56l231 585h61l223 -585h-58zM428 210l-120 311h-1l-125 -311h246z" />
    <glyph glyph-name="Bsmall" unicode="&#xf762;" horiz-adv-x="570" 
d="M373 298v-2q66 -8 102.5 -45t36.5 -99q0 -152 -195 -152h-240v580h233q89 0 135.5 -37.5t46.5 -105.5q0 -58 -31.5 -93t-87.5 -46zM295 275h-168v-230h183q150 0 150 115t-165 115zM440 429q0 51 -37 78.5t-106 27.5h-170v-220h163q150 0 150 114z" />
    <glyph glyph-name="Csmall" unicode="&#xf763;" horiz-adv-x="587" 
d="M67 294q0 147 62 221.5t206 74.5q100 0 202 -33l-12 -42q-105 30 -189 30q-120 0 -168 -64t-48 -187q0 -129 47.5 -194t168.5 -65q84 0 189 30l12 -43q-104 -32 -202 -32q-145 0 -206.5 75.5t-61.5 228.5z" />
    <glyph glyph-name="Dsmall" unicode="&#xf764;" horiz-adv-x="610" 
d="M277 0h-200v580h200q139 0 202 -71t63 -214q0 -146 -63 -220.5t-202 -74.5zM127 45h148q120 0 167.5 64t47.5 186q0 121 -47 180.5t-168 59.5h-148v-490z" />
    <glyph glyph-name="Esmall" unicode="&#xf765;" horiz-adv-x="520" 
d="M447 580v-45h-320v-218h275v-45h-275v-227h325v-45h-375v580h370z" />
    <glyph glyph-name="Fsmall" unicode="&#xf766;" horiz-adv-x="495" 
d="M437 580v-45h-310v-238h265v-45h-265v-252h-50v580h360z" />
    <glyph glyph-name="Gsmall" unicode="&#xf767;" horiz-adv-x="615" 
d="M336 35q64 0 144 21v199h-135v37h185v-270q-99 -32 -195 -32q-145 0 -206.5 75.5t-61.5 228.5q0 147 62 221.5t206 74.5q100 0 202 -33l-12 -42q-105 30 -189 30q-120 0 -168 -64t-48 -187q0 -129 47.5 -194t168.5 -65z" />
    <glyph glyph-name="Hsmall" unicode="&#xf768;" 
d="M127 0h-50v580h50v-263h345v263h50v-580h-50v272h-345v-272z" />
    <glyph glyph-name="Ismall" unicode="&#xf769;" horiz-adv-x="205" 
d="M127 0h-50v580h50v-580z" />
    <glyph glyph-name="Jsmall" unicode="&#xf76a;" horiz-adv-x="315" 
d="M240 580v-420q0 -94 -34.5 -132t-105.5 -38q-42 0 -79 6l5 45q32 -5 61 -5q55 0 77.5 30t22.5 97v417h53z" />
    <glyph glyph-name="Ksmall" unicode="&#xf76b;" horiz-adv-x="579" 
d="M127 580v-341l330 341h63l-220 -231l227 -349h-63l-200 312l-137 -143v-169h-50v580h50z" />
    <glyph glyph-name="Lsmall" unicode="&#xf76c;" horiz-adv-x="500" 
d="M77 580h50v-535h315v-45h-365v580z" />
    <glyph glyph-name="Msmall" unicode="&#xf76d;" horiz-adv-x="760" 
d="M145 580l235 -499h2l233 499h67v-580h-50v491h-2l-231 -491h-40l-231 491h-2v-491h-49v580h68z" />
    <glyph glyph-name="Nsmall" unicode="&#xf76e;" horiz-adv-x="610" 
d="M126 0h-49v580h53l352 -496h2v496h48v-580h-52l-352 496h-2v-496z" />
    <glyph glyph-name="Osmall" unicode="&#xf76f;" horiz-adv-x="650" 
d="M325 547q-63 0 -105 -19t-63 -55.5t-29 -78t-8 -99.5t8 -101t29 -82t63 -59.5t105 -20.5t105 20.5t63 59.5t29 82t8 101t-8 99.5t-29 78t-63 55.5t-105 19zM325 -10q-139 0 -198.5 78t-59.5 227q0 146 59.5 220.5t198.5 74.5t198 -74.5t59 -220.5q0 -149 -59 -227
t-198 -78z" />
    <glyph glyph-name="Psmall" unicode="&#xf770;" horiz-adv-x="560" 
d="M307 212h-180v-212h-50v580h230q94 0 144.5 -50.5t50.5 -133.5q0 -87 -50 -135.5t-145 -48.5zM127 535v-278h178q70 0 108 35.5t38 103.5q0 64 -39 101.5t-107 37.5h-178z" />
    <glyph glyph-name="Qsmall" unicode="&#xf771;" horiz-adv-x="650" 
d="M325 32q60 0 101.5 19.5t63.5 57t31 82t9 104.5q0 58 -8 99.5t-29 78t-63 55.5t-105 19t-105 -19t-63 -55.5t-29 -78t-8 -99.5t8 -101t29 -82t63 -59.5t105 -20.5zM311 -10q-132 4 -188 81.5t-56 223.5t59.5 220.5t198.5 74.5t198 -74.5t59 -220.5q0 -143 -53.5 -216.5
t-174.5 -77.5q21 -33 81 -47t135 -6v-43q-191 -23 -259 85z" />
    <glyph glyph-name="Rsmall" unicode="&#xf772;" horiz-adv-x="575" 
d="M524 0h-64l-173 212h-160v-212h-50v580h230q93 0 144 -51t51 -133q0 -76 -41.5 -123.5t-119.5 -52.5zM127 535v-278h173q151 0 151 139q0 64 -37.5 101.5t-106.5 37.5h-180z" />
    <glyph glyph-name="Ssmall" unicode="&#xf773;" horiz-adv-x="570" 
d="M280 273q-37 8 -60.5 14.5t-51.5 19t-43.5 28.5t-26.5 42t-11 60q0 153 193 153q102 0 212 -33l-12 -42q-115 30 -199 30q-141 0 -141 -104q0 -21 5 -37.5t17 -28.5t22.5 -20t31 -14l31.5 -9t36 -8t33 -7q90 -18 138 -53.5t48 -109.5q0 -82 -60 -123t-152 -41
q-110 0 -223 32l13 43q115 -30 211 -30q82 0 120.5 34t38.5 82q0 15 -3 28t-11 23.5l-14 18.5t-20.5 15t-21.5 11t-26 9t-24 6.5t-26.5 6t-23.5 4.5z" />
    <glyph glyph-name="Tsmall" unicode="&#xf774;" horiz-adv-x="520" 
d="M462 535h-177v-535h-50v535h-178v45h405v-45z" />
    <glyph glyph-name="Usmall" unicode="&#xf775;" 
d="M77 225v355h50v-348q0 -33 2 -55t11.5 -52.5t27.5 -48.5t52.5 -31t83.5 -13q45 0 77 13t49 31.5t27 47.5t12.5 52.5t2.5 55.5v348h50v-348q0 -127 -55 -184.5t-167 -57.5t-167.5 54.5t-55.5 180.5z" />
    <glyph glyph-name="Vsmall" unicode="&#xf776;" horiz-adv-x="610" 
d="M310 59h1l196 521h55l-223 -585h-61l-231 585h59z" />
    <glyph glyph-name="Wsmall" unicode="&#xf777;" horiz-adv-x="900" 
d="M448 500h-2l-146 -505h-64l-189 585h59l166 -520h1l147 520h58l151 -520h1l167 520h55l-188 -585h-69z" />
    <glyph glyph-name="Xsmall" unicode="&#xf778;" horiz-adv-x="625" 
d="M488 580h59l-206 -273l233 -307h-64l-201 264l-201 -264h-57l227 304l-203 276h60l177 -231z" />
    <glyph glyph-name="Ysmall" unicode="&#xf779;" horiz-adv-x="580" 
d="M290 240h2l183 340h57l-217 -400v-180h-50v180l-218 400h61z" />
    <glyph glyph-name="Zsmall" unicode="&#xf77a;" horiz-adv-x="520" 
d="M120 47v-2h350v-45h-420v40l343 493v2h-323v45h390v-40z" />
    <glyph glyph-name="centoldstyle" unicode="&#xf7a2;" horiz-adv-x="532" 
d="M304 467q-86 0 -135 -61.5t-49 -155.5t49 -156t135 -62q42 0 73 7.5t81 26.5l7 -40q-85 -36 -165 -36q-108 0 -170.5 71.5t-62.5 188.5q0 116 62.5 188t170.5 72q80 0 165 -36l-7 -40q-87 33 -154 33zM310 -130h-30v100h30v-100zM310 530h-30v100h30v-100z" />
    <glyph glyph-name="Agravesmall" unicode="&#xf7e0;" horiz-adv-x="610" 
d="M504 0l-65 167h-269l-67 -167h-56l231 585h61l223 -585h-58zM428 210l-120 311h-1l-125 -311h246zM290 630l-77 120h42l65 -120h-30z" />
    <glyph glyph-name="Aacutesmall" unicode="&#xf7e1;" horiz-adv-x="610" 
d="M504 0l-65 167h-269l-67 -167h-56l231 585h61l223 -585h-58zM428 210l-120 311h-1l-125 -311h246zM401 750l-77 -120h-30l65 120h42z" />
    <glyph glyph-name="Acircumflexsmall" unicode="&#xf7e2;" horiz-adv-x="610" 
d="M504 0l-65 167h-269l-67 -167h-56l231 585h61l223 -585h-58zM428 210l-120 311h-1l-125 -311h246zM304 725l-92 -95h-30l106 120h33l106 -120h-30z" />
    <glyph glyph-name="Atildesmall" unicode="&#xf7e3;" horiz-adv-x="610" 
d="M504 0l-65 167h-269l-67 -167h-56l231 585h61l223 -585h-58zM428 210l-120 311h-1l-125 -311h246zM253 705q-20 0 -36 -9t-53 -46l-17 15q32 42 55 58t50 16q25 0 70 -31t60 -31q35 0 65 51l16 -15q-34 -68 -81 -68q-19 0 -64.5 30t-64.5 30z" />
    <glyph glyph-name="Adieresissmall" unicode="&#xf7e4;" horiz-adv-x="610" 
d="M504 0l-65 167h-269l-67 -167h-56l231 585h61l223 -585h-58zM428 210l-120 311h-1l-125 -311h246zM154 750h42v-105h-42v105zM414 750h42v-105h-42v105z" />
    <glyph glyph-name="Aringsmall" unicode="&#xf7e5;" horiz-adv-x="610" 
d="M504 0l-65 167h-269l-67 -167h-56l231 585h61l223 -585h-58zM428 210l-120 311h-1l-125 -311h246zM232 690q0 31 21 51.5t52 20.5q32 0 53 -20.5t21 -51.5t-21 -52t-53 -21q-31 0 -52 21t-21 52zM252 690q0 -23 15 -38.5t38 -15.5t38 15.5t15 38.5t-15 38.5t-38 15.5
q-22 0 -37.5 -15.5t-15.5 -38.5z" />
    <glyph glyph-name="AEsmall" unicode="&#xf7e6;" horiz-adv-x="886" 
d="M101 0h-54l368 580h398v-45h-320v-218h275v-45h-275v-227h325v-45h-375v251h-180zM286 294h157v241h-2z" />
    <glyph glyph-name="Ccedillasmall" unicode="&#xf7e7;" horiz-adv-x="587" 
d="M322 -73v63q-138 4 -196.5 79t-58.5 225q0 147 62 221.5t206 74.5q100 0 202 -33l-12 -42q-105 30 -189 30q-120 0 -168 -64t-48 -187q0 -129 47.5 -194t168.5 -65q84 0 189 30l12 -43q-99 -31 -193 -32v-48q84 -4 84 -71q0 -35 -25 -55.5t-68 -20.5q-31 0 -68 12l4 20
q32 -10 58 -10q36 0 51 18t15 39q0 20 -16 36.5t-57 16.5z" />
    <glyph glyph-name="Egravesmall" unicode="&#xf7e8;" horiz-adv-x="520" 
d="M447 580v-45h-320v-218h275v-45h-275v-227h325v-45h-375v580h370zM259 630l-77 120h42l65 -120h-30z" />
    <glyph glyph-name="Eacutesmall" unicode="&#xf7e9;" horiz-adv-x="520" 
d="M447 580v-45h-320v-218h275v-45h-275v-227h325v-45h-375v580h370zM357 750l-77 -120h-30l65 120h42z" />
    <glyph glyph-name="Ecircumflexsmall" unicode="&#xf7ea;" horiz-adv-x="520" 
d="M447 580v-45h-320v-218h275v-45h-275v-227h325v-45h-375v580h370zM259 725l-92 -95h-30l106 120h33l106 -120h-30z" />
    <glyph glyph-name="Edieresissmall" unicode="&#xf7eb;" horiz-adv-x="520" 
d="M447 580v-45h-320v-218h275v-45h-275v-227h325v-45h-375v580h370zM109 750h42v-105h-42v105zM369 750h42v-105h-42v105z" />
    <glyph glyph-name="Igravesmall" unicode="&#xf7ec;" horiz-adv-x="205" 
d="M127 0h-50v580h50v-580zM86 630l-77 120h42l65 -120h-30z" />
    <glyph glyph-name="Iacutesmall" unicode="&#xf7ed;" horiz-adv-x="205" 
d="M127 0h-50v580h50v-580zM196 750l-77 -120h-30l65 120h42z" />
    <glyph glyph-name="Icircumflexsmall" unicode="&#xf7ee;" horiz-adv-x="205" 
d="M127 0h-50v580h50v-580zM102 725l-92 -95h-30l106 120h33l106 -120h-30z" />
    <glyph glyph-name="Idieresissmall" unicode="&#xf7ef;" horiz-adv-x="205" 
d="M127 0h-50v580h50v-580zM-49 750h42v-105h-42v105zM211 750h42v-105h-42v105z" />
    <glyph glyph-name="Ntildesmall" unicode="&#xf7f1;" horiz-adv-x="610" 
d="M126 0h-49v580h53l352 -496h2v496h48v-580h-52l-352 496h-2v-496zM253 705q-20 0 -36 -9t-53 -46l-17 15q32 42 55 58t50 16q25 0 70 -31t60 -31q35 0 65 51l16 -15q-34 -68 -81 -68q-19 0 -64.5 30t-64.5 30z" />
    <glyph glyph-name="Ogravesmall" unicode="&#xf7f2;" horiz-adv-x="650" 
d="M325 547q-63 0 -105 -19t-63 -55.5t-29 -78t-8 -99.5t8 -101t29 -82t63 -59.5t105 -20.5t105 20.5t63 59.5t29 82t8 101t-8 99.5t-29 78t-63 55.5t-105 19zM325 -10q-139 0 -198.5 78t-59.5 227q0 146 59.5 220.5t198.5 74.5t198 -74.5t59 -220.5q0 -149 -59 -227
t-198 -78zM311 630l-77 120h42l65 -120h-30z" />
    <glyph glyph-name="Oacutesmall" unicode="&#xf7f3;" horiz-adv-x="650" 
d="M325 547q-63 0 -105 -19t-63 -55.5t-29 -78t-8 -99.5t8 -101t29 -82t63 -59.5t105 -20.5t105 20.5t63 59.5t29 82t8 101t-8 99.5t-29 78t-63 55.5t-105 19zM325 -10q-139 0 -198.5 78t-59.5 227q0 146 59.5 220.5t198.5 74.5t198 -74.5t59 -220.5q0 -149 -59 -227
t-198 -78zM411 750l-77 -120h-30l65 120h42z" />
    <glyph glyph-name="Ocircumflexsmall" unicode="&#xf7f4;" horiz-adv-x="650" 
d="M325 547q-63 0 -105 -19t-63 -55.5t-29 -78t-8 -99.5t8 -101t29 -82t63 -59.5t105 -20.5t105 20.5t63 59.5t29 82t8 101t-8 99.5t-29 78t-63 55.5t-105 19zM325 -10q-139 0 -198.5 78t-59.5 227q0 146 59.5 220.5t198.5 74.5t198 -74.5t59 -220.5q0 -149 -59 -227
t-198 -78zM324 725l-92 -95h-30l106 120h33l106 -120h-30z" />
    <glyph glyph-name="Otildesmall" unicode="&#xf7f5;" horiz-adv-x="650" 
d="M325 547q-63 0 -105 -19t-63 -55.5t-29 -78t-8 -99.5t8 -101t29 -82t63 -59.5t105 -20.5t105 20.5t63 59.5t29 82t8 101t-8 99.5t-29 78t-63 55.5t-105 19zM325 -10q-139 0 -198.5 78t-59.5 227q0 146 59.5 220.5t198.5 74.5t198 -74.5t59 -220.5q0 -149 -59 -227
t-198 -78zM273 705q-20 0 -36 -9t-53 -46l-17 15q32 42 55 58t50 16q25 0 70 -31t60 -31q35 0 65 51l16 -15q-34 -68 -81 -68q-19 0 -64.5 30t-64.5 30z" />
    <glyph glyph-name="Odieresissmall" unicode="&#xf7f6;" horiz-adv-x="650" 
d="M325 547q-63 0 -105 -19t-63 -55.5t-29 -78t-8 -99.5t8 -101t29 -82t63 -59.5t105 -20.5t105 20.5t63 59.5t29 82t8 101t-8 99.5t-29 78t-63 55.5t-105 19zM325 -10q-139 0 -198.5 78t-59.5 227q0 146 59.5 220.5t198.5 74.5t198 -74.5t59 -220.5q0 -149 -59 -227
t-198 -78zM174 750h42v-105h-42v105zM434 750h42v-105h-42v105z" />
    <glyph glyph-name="Oslashsmall" unicode="&#xf7f8;" horiz-adv-x="650" 
d="M325 -10q-117 0 -179 59l-63 -78l-18 15l63 79q-61 73 -61 230q0 146 59.5 220.5t198.5 74.5q118 0 180 -59l61 75l19 -15l-62 -76q59 -72 59 -220q0 -149 -59 -227t-198 -78zM325 547q-63 0 -105 -19t-63 -55.5t-29 -78t-8 -99.5q0 -128 42 -188l314 387q-51 53 -151 53
zM325 32q63 0 105 20.5t63 59.5t29 82t8 101q0 121 -40 178l-314 -387q51 -54 149 -54z" />
    <glyph glyph-name="Ugravesmall" unicode="&#xf7f9;" 
d="M77 225v355h50v-348q0 -33 2 -55t11.5 -52.5t27.5 -48.5t52.5 -31t83.5 -13q45 0 77 13t49 31.5t27 47.5t12.5 52.5t2.5 55.5v348h50v-348q0 -127 -55 -184.5t-167 -57.5t-167.5 54.5t-55.5 180.5zM243 630l-77 120h42l65 -120h-30z" />
    <glyph glyph-name="Uacutesmall" unicode="&#xf7fa;" 
d="M77 225v355h50v-348q0 -33 2 -55t11.5 -52.5t27.5 -48.5t52.5 -31t83.5 -13q45 0 77 13t49 31.5t27 47.5t12.5 52.5t2.5 55.5v348h50v-348q0 -127 -55 -184.5t-167 -57.5t-167.5 54.5t-55.5 180.5zM381 750l-77 -120h-30l65 120h42z" />
    <glyph glyph-name="Ucircumflexsmall" unicode="&#xf7fb;" 
d="M77 225v355h50v-348q0 -33 2 -55t11.5 -52.5t27.5 -48.5t52.5 -31t83.5 -13q45 0 77 13t49 31.5t27 47.5t12.5 52.5t2.5 55.5v348h50v-348q0 -127 -55 -184.5t-167 -57.5t-167.5 54.5t-55.5 180.5zM299 725l-92 -95h-30l106 120h33l106 -120h-30z" />
    <glyph glyph-name="Udieresissmall" unicode="&#xf7fc;" 
d="M77 225v355h50v-348q0 -33 2 -55t11.5 -52.5t27.5 -48.5t52.5 -31t83.5 -13q45 0 77 13t49 31.5t27 47.5t12.5 52.5t2.5 55.5v348h50v-348q0 -127 -55 -184.5t-167 -57.5t-167.5 54.5t-55.5 180.5zM149 750h42v-105h-42v105zM409 750h42v-105h-42v105z" />
    <glyph glyph-name="Yacutesmall" unicode="&#xf7fd;" horiz-adv-x="580" 
d="M290 240h2l183 340h57l-217 -400v-180h-50v180l-218 400h61zM384 750l-77 -120h-30l65 120h42z" />
    <glyph glyph-name="Ydieresissmall" unicode="&#xf7ff;" horiz-adv-x="580" 
d="M290 240h2l183 340h57l-217 -400v-180h-50v180l-218 400h61zM139 750h42v-105h-42v105zM399 750h42v-105h-42v105z" />
    <glyph glyph-name="ff" unicode="&#xfb00;" horiz-adv-x="640" 
d="M402 500v42q0 88 31.5 123t101.5 35q24 0 72 -6l-5 -40q-42 5 -57 5q-54 0 -73.5 -29.5t-19.5 -94.5v-35h150v-38h-150v-462h-50v462h-245v-462h-50v462h-82v34l82 4v42q0 88 31.5 123t101.5 35q24 0 72 -6l-5 -40q-42 5 -57 5q-54 0 -73.5 -29.5t-19.5 -94.5v-35h245z
" />
    <glyph glyph-name="fi" unicode="&#xfb01;" horiz-adv-x="520" 
d="M107 500v35q0 87 43 126t127 39q85 0 160 -34l-7 -37q-75 30 -148 30q-69 0 -97 -31t-28 -93v-35h295v-500h-50v462h-245v-462h-50v462h-82v34z" />
    <glyph glyph-name="fl" unicode="&#xfb02;" horiz-adv-x="520" 
d="M157 462v-462h-50v462h-82v34l82 4v35q0 87 43 126t127 39q70 0 138 -29h37v-671h-50v630q-68 29 -120 29q-69 0 -97 -31t-28 -93v-35h150v-38h-150z" />
    <glyph glyph-name="ffi" unicode="&#xfb03;" horiz-adv-x="815" 
d="M402 462h-245v-462h-50v462h-82v34l82 4v42q0 88 31.5 123t101.5 35q24 0 72 -6l-5 -40q-42 5 -57 5q-54 0 -73.5 -29.5t-19.5 -94.5v-35h245v35q0 87 43 126t127 39q85 0 160 -34l-7 -37q-75 30 -148 30q-69 0 -97 -31t-28 -93v-35h295v-500h-50v462h-245v-462h-50v462z
" />
    <glyph glyph-name="ffl" unicode="&#xfb04;" horiz-adv-x="815" 
d="M402 462h-245v-462h-50v462h-82v34l82 4v42q0 88 31.5 123t101.5 35q24 0 72 -6l-5 -40q-42 5 -57 5q-54 0 -73.5 -29.5t-19.5 -94.5v-35h245v35q0 87 43 126t127 39q70 0 138 -29h37v-671h-50v630q-68 29 -120 29q-69 0 -97 -31t-28 -93v-35h150v-38h-150v-462h-50v462z
" />
    <glyph glyph-name="longs_t" unicode="&#xfb05;" 
d="M107 -77v619q0 88 31.5 123t101.5 35q24 0 72 -6l-5 -40q-42 5 -57 5q-54 0 -73.5 -29.5t-19.5 -94.5v-619q0 -68 -29.5 -97t-102.5 -29q-35 0 -73 6l6 40q30 -5 57 -5q54 0 73 21t19 71zM332 148v314h-82v34l82 4l7 140h43v-140h155v-38h-155v-307q0 -64 21 -94t77 -30
q26 0 57 5l5 -40q-36 -6 -77 -6q-70 0 -101.5 35t-31.5 123z" />
    <glyph glyph-name="s_t" unicode="&#xfb06;" horiz-adv-x="860" 
d="M427 134q0 -69 -44 -106.5t-128 -37.5q-119 0 -203 21l10 41q82 -21 188 -21q34 0 59.5 9t38 20.5t19.5 27t8.5 25t1.5 18.5q0 35 -28.5 59.5t-109.5 41.5q-56 11 -91.5 25t-60.5 45t-25 78q0 62 44 96t129 34q106 0 190 -21l-10 -42q-85 22 -178 22q-34 0 -59 -8
t-37 -18t-19 -24t-8.5 -22t-1.5 -16q0 -36 27 -61t106 -41q94 -20 138 -51.5t44 -93.5zM592 148v314h-82v34l82 4l7 140h43v-140h155v-38h-155v-307q0 -64 21 -94t77 -30q26 0 57 5l5 -40q-36 -6 -77 -6q-70 0 -101.5 35t-31.5 123z" />
    <glyph glyph-name="cyrbreve" horiz-adv-x="394" 
d="M196 599q87 0 109 96h24q-9 -65 -45 -96.5t-88 -31.5q-50 0 -85.5 31.5t-45.5 96.5h24q22 -96 107 -96z" />
    <glyph glyph-name="undercommaaccent" horiz-adv-x="179" 
d="M89 -198h-19l12 88h-13v70h45v-70z" />
    <glyph glyph-name="dieresisacute" horiz-adv-x="460" 
d="M65 680h42v-105h-42v105zM352 680h43v-105h-43v105zM292 700l-77 -125h-30l65 125h42z" />
    <glyph glyph-name="dieresisgrave" horiz-adv-x="460" 
d="M352 680h43v-105h-43v105zM65 680h42v-105h-42v105zM245 575l-78 125h43l65 -125h-30z" />
    <glyph glyph-name="dblgrave" horiz-adv-x="337" 
d="M242 560l-70 120h35l65 -120h-30zM135 560l-70 120h35l65 -120h-30z" />
    <glyph glyph-name="cyrflex" horiz-adv-x="375" 
d="M187 670l-82 -110h-40l104 140h37l104 -140h-40z" />
    <glyph glyph-name="Acute" horiz-adv-x="237" 
d="M177 850l-77 -140h-40l65 140h52z" />
    <glyph glyph-name="Breve" horiz-adv-x="394" 
d="M196 769q87 0 109 96h24q-9 -65 -45 -96.5t-88 -31.5q-50 0 -85.5 31.5t-45.5 96.5h24q22 -96 107 -96z" />
    <glyph glyph-name="cyrBreve" horiz-adv-x="394" 
d="M196 769q87 0 109 96h24q-9 -65 -45 -96.5t-88 -31.5q-50 0 -85.5 31.5t-45.5 96.5h24q22 -96 107 -96z" />
    <glyph glyph-name="Caron" horiz-adv-x="375" 
d="M105 850l82 -110l83 110h40l-104 -140h-37l-104 140h40z" />
    <glyph glyph-name="Cedilla" horiz-adv-x="291" 
d="M120 -73v73h22v-58q84 -4 84 -71q0 -35 -25 -55.5t-68 -20.5q-31 0 -68 12l4 20q32 -10 56 -10q37 0 52.5 18.5t15.5 38.5t-16 36.5t-57 16.5z" />
    <glyph glyph-name="Circumflex" horiz-adv-x="375" 
d="M187 820l-82 -110h-40l104 140h37l104 -140h-40z" />
    <glyph glyph-name="commaaccent.cap" horiz-adv-x="179" 
d="M89 -198h-19l12 88h-13v70h45v-70z" />
    <glyph glyph-name="Dieresis" horiz-adv-x="432" 
d="M92 845h43v-110h-43v110zM297 845h43v-110h-43v110z" />
    <glyph glyph-name="DieresisAcute" horiz-adv-x="460" 
d="M65 850h42v-105h-42v105zM352 850h43v-105h-43v105zM292 870l-77 -125h-30l65 125h42z" />
    <glyph glyph-name="DieresisGrave" horiz-adv-x="460" 
d="M352 850h43v-105h-43v105zM65 850h42v-105h-42v105zM245 745l-78 125h43l65 -125h-30z" />
    <glyph glyph-name="Dotaccent" horiz-adv-x="175" 
d="M65 850h45v-105h-45v105z" />
    <glyph glyph-name="Hungarumlaut" horiz-adv-x="337" 
d="M165 850l-70 -120h-30l65 120h35zM272 850l-70 -120h-30l65 120h35z" />
    <glyph glyph-name="Grave" horiz-adv-x="237" 
d="M137 710l-77 140h52l65 -140h-40z" />
    <glyph glyph-name="dblGrave" horiz-adv-x="337" 
d="M242 730l-70 120h35l65 -120h-30zM135 730l-70 120h35l65 -120h-30z" />
    <glyph glyph-name="cyrFlex" horiz-adv-x="375" 
d="M187 820l-82 -110h-40l104 140h37l104 -140h-40z" />
    <glyph glyph-name="Macron" horiz-adv-x="425" 
d="M65 812h295v-35h-295v35z" />
    <glyph glyph-name="Ogonek" horiz-adv-x="292" 
d="M223 -153l4 -16q-37 -29 -85 -29q-31 0 -54 17t-23 50q0 66 85 131h29q-33 -25 -55.5 -58.5t-22.5 -61.5q0 -55 56 -55q27 0 66 22z" />
    <glyph glyph-name="Ring" horiz-adv-x="277" 
d="M65 790q0 31 21 51.5t52 20.5q32 0 53 -20.5t21 -51.5t-21 -52t-53 -21q-31 0 -52 21t-21 52zM85 790q0 -23 15 -38.5t38 -15.5t38 15.5t15 38.5t-15 38.5t-38 15.5q-22 0 -37.5 -15.5t-15.5 -38.5z" />
    <glyph glyph-name="Tilde" horiz-adv-x="446" 
d="M171 795q-20 0 -36 -9t-53 -46l-17 20q32 42 55 58t50 16q25 0 70 -31t60 -31q35 0 65 51l16 -20q-34 -68 -81 -68q-19 0 -64.5 30t-64.5 30z" />
    <glyph glyph-name="Acutesmall" horiz-adv-x="237" 
d="M172 750l-77 -120h-30l65 120h42z" />
    <glyph glyph-name="Brevesmall" horiz-adv-x="394" 
d="M196 669q87 0 109 96h24q-9 -65 -45 -96.5t-88 -31.5q-50 0 -85.5 31.5t-45.5 96.5h24q22 -96 107 -96z" />
    <glyph glyph-name="Caronsmall" horiz-adv-x="375" 
d="M95 750l92 -95l93 95h30l-106 -120h-33l-106 120h30z" />
    <glyph glyph-name="Cedillasmall" horiz-adv-x="291" 
d="M120 -73v73h22v-58q84 -4 84 -71q0 -35 -25 -55.5t-68 -20.5q-31 0 -68 12l4 20q32 -10 56 -10q37 0 52.5 18.5t15.5 38.5t-16 36.5t-57 16.5z" />
    <glyph glyph-name="Circumflexsmall" horiz-adv-x="375" 
d="M187 725l-92 -95h-30l106 120h33l106 -120h-30z" />
    <glyph glyph-name="commaaccent.small" horiz-adv-x="179" 
d="M89 -198h-19l12 88h-13v70h45v-70z" />
    <glyph glyph-name="Dieresissmall" horiz-adv-x="432" 
d="M65 750h42v-105h-42v105zM325 750h42v-105h-42v105z" />
    <glyph glyph-name="DieresisAcute.small" horiz-adv-x="460" 
d="M65 750h42v-105h-42v105zM352 750h43v-105h-43v105zM292 770l-77 -125h-30l65 125h42z" />
    <glyph glyph-name="DieresisGrave.small" horiz-adv-x="460" 
d="M352 750h43v-105h-43v105zM65 750h42v-105h-42v105zM245 645l-78 125h43l65 -125h-30z" />
    <glyph glyph-name="Dotaccentsmall" horiz-adv-x="175" 
d="M65 750h45v-105h-45v105z" />
    <glyph glyph-name="Hungarumlautsmall" horiz-adv-x="337" 
d="M165 750l-70 -120h-30l65 120h35zM272 750l-70 -120h-30l65 120h35z" />
    <glyph glyph-name="Gravesmall" horiz-adv-x="237" 
d="M142 630l-77 120h42l65 -120h-30z" />
    <glyph glyph-name="dblGrave.small" horiz-adv-x="337" 
d="M242 630l-70 120h35l65 -120h-30zM135 630l-70 120h35l65 -120h-30z" />
    <glyph glyph-name="Macronsmall" horiz-adv-x="425" 
d="M65 710h295v-33h-295v33z" />
    <glyph glyph-name="Ogoneksmall" horiz-adv-x="292" 
d="M223 -153l4 -16q-37 -29 -85 -29q-31 0 -54 17t-23 50q0 66 85 131h29q-33 -25 -55.5 -58.5t-22.5 -61.5q0 -55 56 -55q27 0 66 22z" />
    <glyph glyph-name="Ringsmall" horiz-adv-x="277" 
d="M65 690q0 31 21 51.5t52 20.5q32 0 53 -20.5t21 -51.5t-21 -52t-53 -21q-31 0 -52 21t-21 52zM85 690q0 -23 15 -38.5t38 -15.5t38 15.5t15 38.5t-15 38.5t-38 15.5q-22 0 -37.5 -15.5t-15.5 -38.5z" />
    <glyph glyph-name="Tildesmall" horiz-adv-x="446" 
d="M171 705q-20 0 -36 -9t-53 -46l-17 15q32 42 55 58t50 16q25 0 70 -31t60 -31q35 0 65 51l16 -15q-34 -68 -81 -68q-19 0 -64.5 30t-64.5 30z" />
    <glyph glyph-name="middot" horiz-adv-x="220" 
d="M87 365h45v-110h-45v110z" />
    <glyph glyph-name="T_h" horiz-adv-x="1030" 
d="M617 391v-391h-50v632h-261v-632h-52v632h-197v48h560v-255h2q92 85 193 85q150 0 150 -163v-347h-50v337q0 130 -120 130q-83 0 -175 -76z" />
    <glyph glyph-name="T_h.caron" horiz-adv-x="1030" 
d="M617 391v-391h-50v632h-261v-632h-52v632h-197v48h560v-255h2q92 85 193 85q150 0 150 -163v-347h-50v337q0 130 -120 130q-83 0 -175 -76zM198 850l82 -110l83 110h40l-104 -140h-37l-104 140h40z" />
    <glyph glyph-name="T_h.commaaccent" horiz-adv-x="1030" 
d="M617 391v-391h-50v632h-261v-632h-52v632h-197v48h560v-255h2q92 85 193 85q150 0 150 -163v-347h-50v337q0 130 -120 130q-83 0 -175 -76zM277 -198h-19l12 88h-13v70h45v-70z" />
    <glyph glyph-name="Aogonek.small" horiz-adv-x="610" 
d="M522 0h-18l-65 167h-269l-67 -167h-56l231 585h61l223 -585q-37 -18 -63.5 -53.5t-26.5 -66.5q0 -55 56 -55q28 0 66 22l4 -16q-37 -29 -85 -29q-31 0 -54 16.5t-23 49.5q0 70 86 132zM308 521h-1l-125 -311h246z" />
    <glyph glyph-name="Dcroat.small" horiz-adv-x="610" 
d="M132 45h143q120 0 167.5 64t47.5 186q0 121 -47 180.5t-168 59.5h-143v-224h145v-32h-145v-234zM277 0h-195v279h-70v32h70v269h195q139 0 202 -71t63 -214q0 -146 -63 -220.5t-202 -74.5z" />
    <glyph glyph-name="Eogonek.small" horiz-adv-x="520" 
d="M496 -153l4 -16q-37 -29 -85 -29q-31 0 -54 16.5t-23 49.5q0 67 85 132h-346v580h370v-45h-320v-218h275v-45h-275v-227h325v-45q-33 -25 -55.5 -58.5t-22.5 -61.5q0 -55 56 -55q28 0 66 22z" />
    <glyph glyph-name="Hbar.small" horiz-adv-x="620" 
d="M17 486h70v94h50v-94h345v94h50v-94h70v-32h-70v-454h-50v272h-345v-272h-50v454h-70v32zM137 317h345v137h-345v-137z" />
    <glyph glyph-name="Iogonek.small" horiz-adv-x="205" 
d="M127 580v-580q-37 -18 -62.5 -54t-25.5 -66q0 -26 15 -40.5t42 -14.5q28 0 66 22l4 -16q-37 -29 -85 -29q-31 0 -54 16.5t-23 49.5q0 36 24.5 72t61.5 60l-13 109v471h50z" />
    <glyph glyph-name="IJ.small" horiz-adv-x="520" 
d="M127 0h-50v580h50v-580zM445 580v-420q0 -94 -34.5 -132t-105.5 -38q-41 0 -79 6l5 45q33 -5 61 -5q55 0 77.5 30t22.5 97v417h53z" />
    <glyph glyph-name="Scedilla.small" horiz-adv-x="570" 
d="M280 273q-37 8 -60.5 14.5t-51.5 19t-43.5 28.5t-26.5 42t-11 60q0 153 193 153q102 0 212 -33l-12 -42q-115 30 -199 30q-141 0 -141 -104q0 -21 5 -37.5t17 -28.5t22.5 -20t31 -14l31.5 -9t36 -8t33 -7q90 -18 138 -53.5t48 -109.5q0 -81 -58 -121.5t-149 -42.5v-48
q84 -4 84 -71q0 -35 -25 -55.5t-68 -20.5q-29 0 -68 12l5 20q32 -10 57 -10q36 0 51 18t15 39q0 20 -16 36.5t-57 16.5v63q-103 3 -206 32l13 43q115 -30 211 -30q82 0 120.5 34t38.5 82q0 15 -3 28t-11 23.5l-14 18.5t-20.5 15t-21.5 11t-26 9t-24 6.5t-26.5 6t-23.5 4.5z
" />
    <glyph glyph-name="Tbar.small" horiz-adv-x="520" 
d="M142 246h93v289h-178v45h405v-45h-177v-289h92v-32h-92v-214h-50v214h-93v32z" />
    <glyph glyph-name="Uogonek.small" 
d="M77 225v355h50v-348q0 -33 2 -55t11.5 -52.5t27.5 -48.5t52.5 -31t83.5 -13q45 0 77 13t49 31.5t27 47.5t12.5 52.5t2.5 55.5v348h50v-348q0 -124 -51.5 -181.5t-158.5 -60.5q-29 -24 -47.5 -54.5t-18.5 -55.5q0 -55 56 -55q28 0 66 22l4 -16q-37 -29 -85 -29
q-31 0 -54 16.5t-23 49.5q0 65 73 122q-103 4 -154.5 58.5t-51.5 176.5z" />
    <glyph glyph-name="c_t" horiz-adv-x="855" 
d="M587 148v314h-82v34l82 4l7 140h43v-140h155v-38h-155v-307q0 -64 21 -94t77 -30q26 0 57 5l5 -40q-36 -6 -77 -6q-70 0 -101.5 35t-31.5 123zM57 250q0 260 233 260q81 0 165 -21l-10 -42q-77 20 -155 20q-94 0 -137 -59.5t-43 -157.5t43 -158t137 -60q78 0 155 20
l10 -41q-84 -21 -165 -21q-233 0 -233 260z" />
    <glyph glyph-name="f_f_j" horiz-adv-x="815" 
d="M697 -77v539h-245v-462h-50v462h-245v-462h-50v462h-82v34l82 4v42q0 88 31.5 123t101.5 35q24 0 72 -6l-5 -40q-42 5 -57 5q-54 0 -73.5 -29.5t-19.5 -94.5v-35h245v35q0 87 43 126t127 39q85 0 160 -34l-7 -37q-75 30 -148 30q-69 0 -97 -31t-28 -93v-35h295v-584
q0 -69 -30 -97.5t-102 -28.5q-35 0 -73 6l6 40q30 -5 57 -5q53 0 72.5 20t19.5 72z" />
    <glyph glyph-name="f_j" horiz-adv-x="520" 
d="M402 -77v539h-245v-462h-50v462h-82v34l82 4v35q0 87 43 126t127 39q85 0 160 -34l-7 -37q-75 30 -148 30q-69 0 -97 -31t-28 -93v-35h295v-584q0 -69 -30 -97.5t-102 -28.5q-36 0 -73 6l6 40q30 -5 57 -5q53 0 72.5 20t19.5 72z" />
    <glyph glyph-name="s_p" horiz-adv-x="1025" 
d="M427 134q0 -69 -44 -106.5t-128 -37.5q-119 0 -203 21l10 41q82 -21 188 -21q34 0 59.5 9t38 20.5t19.5 27t8.5 25t1.5 18.5q0 35 -28.5 59.5t-109.5 41.5q-56 11 -91.5 25t-60.5 45t-25 78q0 62 44 96t129 34q106 0 190 -21l-10 -42q-85 22 -178 22q-34 0 -59 -8
t-37 -18t-19 -24t-8.5 -22t-1.5 -16q0 -36 27 -61t106 -41q94 -20 138 -51.5t44 -93.5zM612 500v-50h2q69 60 166 60q187 0 187 -260q0 -120 -45.5 -190t-144.5 -70q-96 0 -163 59h-2v-249h-50v700h50zM915 250q0 217 -153 217q-81 0 -150 -53v-328q67 -54 150 -54
q153 0 153 218z" />
    <glyph glyph-name="dsuperior" horiz-adv-x="307" 
d="M230 655v125h25v-351h-25v25h-1q-36 -29 -82 -29q-95 0 -95 130t94 130q50 0 83 -30h1zM79 555q0 -109 76 -109q40 0 75 27v164q-35 27 -75 27q-76 0 -76 -109z" />
    <glyph glyph-name="h.superior" horiz-adv-x="302" 
d="M77 626v-196h-25v350h25v-138h1q46 43 97 43q75 0 75 -81v-174h-25v169q0 65 -60 65q-39 0 -88 -38z" />
    <glyph glyph-name="Ethsmall" horiz-adv-x="610" 
d="M132 45h143q120 0 167.5 64t47.5 186q0 121 -47 180.5t-168 59.5h-143v-224h145v-32h-145v-234zM277 0h-195v279h-70v32h70v269h195q139 0 202 -71t63 -214q0 -146 -63 -220.5t-202 -74.5z" />
    <glyph glyph-name="Thornsmall" horiz-adv-x="560" 
d="M305 106h-178v-106h-50v580h50v-106h178q93 0 145 -51t52 -133q0 -87 -51 -135.5t-146 -48.5zM127 429v-278h178q70 0 108 35.5t38 103.5q0 64 -39 101.5t-107 37.5h-178z" />
    <glyph glyph-name="Eng.small" horiz-adv-x="610" 
d="M482 -77v77l-354 496h-2v-496h-49v580h53l352 -496h2v496h48v-664q0 -69 -30 -97.5t-102 -28.5q-36 0 -73 6l6 40q30 -5 57 -5q53 0 72.5 20t19.5 72z" />
    <glyph glyph-name="longs_h" horiz-adv-x="865" 
d="M452 671v-246h2q92 85 193 85q150 0 150 -163v-347h-50v337q0 130 -120 130q-83 0 -175 -76v-391h-50v630q-68 29 -120 29q-69 0 -97 -32t-28 -95v-616q0 -68 -29.5 -97t-102.5 -29q-35 0 -73 6l6 40q30 -5 57 -5q54 0 73 21t19 71v609q0 168 170 168q70 0 138 -29h37z
" />
    <glyph glyph-name="longs_l" horiz-adv-x="520" 
d="M107 -77v609q0 168 170 168q70 0 138 -29h37v-671h-50v630q-68 29 -120 29q-69 0 -97 -32t-28 -95v-616q0 -68 -29.5 -97t-102.5 -29q-35 0 -73 6l6 40q30 -5 57 -5q54 0 73 21t19 71z" />
    <glyph glyph-name="longs_i" horiz-adv-x="450" 
d="M107 -77v619q0 88 31.5 123t101.5 35q24 0 72 -6l-5 -40q-42 5 -57 5q-54 0 -73.5 -29.5t-19.5 -94.5v-619q0 -68 -29.5 -97t-102.5 -29q-35 0 -73 6l6 40q30 -5 57 -5q54 0 73 21t19 71zM332 500h50v-500h-50v500z" />
    <glyph glyph-name="longs_longs" horiz-adv-x="605" 
d="M107 -77v619q0 88 31.5 123t101.5 35q24 0 72 -6l-5 -40q-42 5 -57 5q-54 0 -73.5 -29.5t-19.5 -94.5v-619q0 -68 -29.5 -97t-102.5 -29q-35 0 -73 6l6 40q30 -5 57 -5q54 0 73 21t19 71zM367 -77v619q0 88 31.5 123t101.5 35q24 0 72 -6l-5 -40q-42 5 -57 5
q-54 0 -73.5 -29.5t-19.5 -94.5v-619q0 -68 -29.5 -97t-102.5 -29q-35 0 -73 6l6 40q30 -5 57 -5q54 0 73 21t19 71z" />
    <glyph glyph-name="zero.slash" horiz-adv-x="590" 
d="M295 -10q-228 0 -228 355q0 345 228 345q227 0 227 -345q0 -355 -227 -355zM295 32q175 0 175 313q0 105 -24 172l-297 -375q42 -110 146 -110zM295 647q-175 0 -175 -302q0 -108 23 -172l296 374q-42 100 -144 100z" />
    <glyph glyph-name="zero.fitted" 
d="M300 647q-175 0 -175 -302q0 -313 175 -313t175 313q0 302 -175 302zM300 -10q-228 0 -228 355q0 345 228 345q65 0 111 -27t70.5 -76.5t35 -108t10.5 -133.5q0 -355 -227 -355z" />
    <glyph glyph-name="one.fitted" 
d="M57 42h225v580l-190 -110l-15 43q150 77 220 130h35v-643h210v-42h-485v42z" />
    <glyph glyph-name="two.fitted" 
d="M285 644q-87 0 -177 -45l-16 41q108 50 203 50q100 0 151 -57t51 -142q0 -106 -81 -214.5t-252 -229.5v-2h343v-45h-415v51q353 239 353 428q0 42 -12.5 73.5t-30 48.5t-41 27t-41.5 13t-35 3z" />
    <glyph glyph-name="three.fitted" 
d="M358 346v-2q73 -11 116 -56.5t43 -112.5q0 -89 -56.5 -137t-169.5 -48q-127 0 -209 46l17 39q82 -43 190 -43q46 0 80.5 11t52.5 26.5t28.5 37t13 37.5t2.5 33q0 63 -47.5 102.5t-143.5 39.5h-80v42h78q82 0 128.5 44t46.5 104q0 22 -6 43t-21.5 44t-49.5 37t-82 14
q-89 0 -172 -43l-16 40q86 46 195 46q97 0 149 -47t52 -130q0 -63 -39.5 -106.5t-99.5 -60.5z" />
    <glyph glyph-name="four.fitted" 
d="M115 235h270v379h-2q-86 -174 -268 -379zM371 680h64v-445h102v-43h-102v-192h-50v192h-323v43q215 234 309 445z" />
    <glyph glyph-name="five.fitted" 
d="M285 -10q-101 0 -203 50l16 39q91 -47 184 -47q83 0 133 48t50 132q0 69 -38 119t-122 50q-93 0 -153 -84l-39 4l19 379h345v-45h-301l-18 -290l2 -1q62 81 160 81q93 0 145 -56t52 -154q0 -107 -62.5 -166t-169.5 -59z" />
    <glyph glyph-name="six.fitted" 
d="M132 350l2 -1q72 106 177 106q98 0 152 -61.5t54 -173.5q0 -106 -59 -168t-150 -62q-226 0 -226 310q0 207 74.5 298.5t197.5 91.5q65 0 142 -23l-7 -40q-69 20 -131 20q-53 0 -94.5 -22.5t-64.5 -54.5t-39 -75t-21.5 -77t-6.5 -68zM136 305q-8 -273 168 -273
q67 0 114 50t47 138q0 35 -7 65.5t-24.5 60.5t-52 47.5t-82.5 17.5t-90.5 -29.5t-72.5 -76.5z" />
    <glyph glyph-name="seven.fitted" 
d="M437 633v2h-330v45h385v-38q-223 -361 -270 -642h-55q21 139 101.5 320t168.5 313z" />
    <glyph glyph-name="eight.fitted" 
d="M348 359v-2q86 -34 132.5 -76t46.5 -110q0 -84 -60 -132.5t-168 -48.5t-167.5 47.5t-59.5 129.5q0 69 48.5 112t130.5 72v2q-75 27 -117 67t-42 104q0 76 57.5 121t151.5 45q92 0 149 -44.5t57 -119.5q0 -62 -39.5 -98.5t-119.5 -68.5zM124 171q0 -61 42 -101.5
t135 -40.5q92 0 133.5 39t41.5 99q0 28 -11.5 51.5t-27 38.5t-43.5 30.5t-47.5 24t-53.5 20.5q-76 -26 -122.5 -63t-46.5 -98zM299 651q-25 0 -49.5 -5.5t-50 -18.5t-41.5 -39.5t-16 -63.5q0 -101 163 -146q73 25 112.5 57.5t39.5 85.5q0 37 -16 64.5t-41.5 40.5t-50.5 19
t-50 6z" />
    <glyph glyph-name="nine.fitted" 
d="M467 329l-2 1q-33 -48 -78.5 -76.5t-97.5 -28.5q-98 0 -152.5 61.5t-54.5 173.5q0 105 59.5 167.5t150.5 62.5q225 0 225 -310q0 -107 -21 -185t-59.5 -121.5t-85.5 -63.5t-105 -20q-64 0 -143 23l8 39q74 -20 131 -20q53 0 94.5 22t64.5 54.5t38.5 75.5t21 77.5
t6.5 67.5zM464 375q2 58 -4.5 102.5t-23.5 85t-52.5 62.5t-87.5 22q-67 0 -114 -49.5t-47 -137.5q0 -35 7 -65.5t24.5 -60.5t52 -47.5t82.5 -17.5q47 0 90 29.5t73 76.5z" />
    <glyph glyph-name="oneoldstyle" horiz-adv-x="361" 
d="M238 442l-191 -110l-15 43q149 76 221 130h35v-505h-50v442z" />
    <glyph glyph-name="threeoldstyle" horiz-adv-x="570" 
d="M343 166v-2q73 -11 116 -56.5t43 -112.5q0 -89 -56.5 -137t-169.5 -48q-127 0 -209 46l17 39q82 -43 190 -43q46 0 80.5 11t52.5 26.5t28.5 37t13 37.5t2.5 33q0 63 -47.5 102.5t-143.5 39.5h-80v42h78q82 0 128.5 44t46.5 104q0 22 -6 43t-21.5 44t-49.5 37t-82 14
q-89 0 -172 -43l-16 40q86 46 195 46q97 0 149 -47t52 -130q0 -63 -39.5 -106.5t-99.5 -60.5z" />
    <glyph glyph-name="fouroldstyle" 
d="M366 505h64v-463h102v-42h-102v-170h-50v170h-323v42q86 94 171.5 220.5t137.5 242.5zM110 42h270v405h-2q-118 -235 -268 -405z" />
    <glyph glyph-name="fiveoldstyle" horiz-adv-x="570" 
d="M270 -190q-101 0 -203 50l16 39q91 -47 184 -47q83 0 133 48t50 132q0 69 -38 119t-122 50q-93 0 -153 -84l-39 4l19 379h345v-45h-301l-18 -290l2 -1q62 81 160 81q93 0 145 -56t52 -154q0 -107 -62.5 -166t-169.5 -59z" />
    <glyph glyph-name="sixoldstyle" horiz-adv-x="570" 
d="M117 350l2 -1q72 106 177 106q98 0 152 -61.5t54 -173.5q0 -106 -59 -168t-150 -62q-226 0 -226 310q0 207 74.5 298.5t197.5 91.5q65 0 142 -23l-7 -40q-69 20 -131 20q-53 0 -94.5 -22.5t-64.5 -54.5t-39 -75t-21.5 -77t-6.5 -68zM121 305q-8 -273 168 -273
q67 0 114 50t47 138q0 35 -7 65.5t-24.5 60.5t-52 47.5t-82.5 17.5t-90.5 -29.5t-72.5 -76.5z" />
    <glyph glyph-name="sevenoldstyle" horiz-adv-x="500" 
d="M387 453v2h-330v45h385v-38q-223 -361 -270 -642h-55q21 139 101.5 320t168.5 313z" />
    <glyph glyph-name="eightoldstyle" horiz-adv-x="590" 
d="M343 359v-2q86 -34 132.5 -76t46.5 -110q0 -84 -60 -132.5t-168 -48.5t-167.5 47.5t-59.5 129.5q0 69 48.5 112t130.5 72v2q-75 27 -117 67t-42 104q0 76 57.5 121t151.5 45q92 0 149 -44.5t57 -119.5q0 -62 -39.5 -98.5t-119.5 -68.5zM119 171q0 -61 42 -101.5
t135 -40.5q92 0 133.5 39t41.5 99q0 28 -11.5 51.5t-27 38.5t-43.5 30.5t-47.5 24t-53.5 20.5q-76 -26 -122.5 -63t-46.5 -98zM294 651q-25 0 -49.5 -5.5t-50 -18.5t-41.5 -39.5t-16 -63.5q0 -101 163 -146q73 25 112.5 57.5t39.5 85.5q0 37 -16 64.5t-41.5 40.5t-50.5 19
t-50 6z" />
    <glyph glyph-name="nineoldstyle" horiz-adv-x="570" 
d="M452 149l-2 1q-33 -48 -78.5 -76.5t-97.5 -28.5q-98 0 -152.5 61.5t-54.5 173.5q0 105 59.5 167.5t150.5 62.5q225 0 225 -310q0 -107 -21 -185t-59.5 -121.5t-85.5 -63.5t-105 -20q-64 0 -143 23l8 39q74 -20 131 -20q53 0 94.5 22t64.5 54.5t38.5 75.5t21 77.5
t6.5 67.5zM449 195q2 58 -4.5 102.5t-23.5 85t-52.5 62.5t-87.5 22q-67 0 -114 -49.5t-47 -137.5q0 -35 7 -65.5t24.5 -60.5t52 -47.5t82.5 -17.5q47 0 90 29.5t73 76.5z" />
    <glyph glyph-name="zero.taboldstyle" 
d="M300 467q-84 0 -129.5 -62t-45.5 -155q0 -94 45.5 -156t129.5 -62t129.5 62t45.5 156q0 93 -45.5 155t-129.5 62zM300 -10q-107 0 -167.5 71.5t-60.5 188.5t60.5 188.5t167.5 71.5t167 -71.5t60 -188.5t-60 -188.5t-167 -71.5z" />
    <glyph glyph-name="one.taboldstyle" 
d="M57 42h225v400l-190 -110l-15 43q150 77 220 130h35v-463h210v-42h-485v42z" />
    <glyph glyph-name="two.taboldstyle" 
d="M292 464q-93 0 -187 -45l-13 43q104 48 208 48q90 0 143.5 -45.5t53.5 -118.5q0 -116 -135 -202q-50 -32 -198 -100v-2l343 3v-45h-415v51q204 88 278.5 151.5t74.5 133.5q0 37 -16.5 64t-42.5 40t-49.5 18.5t-44.5 5.5z" />
    <glyph glyph-name="three.taboldstyle" 
d="M358 166v-2q73 -11 116 -56.5t43 -112.5q0 -89 -56.5 -137t-169.5 -48q-127 0 -209 46l17 39q82 -43 190 -43q46 0 80.5 11t52.5 26.5t28.5 37t13 37.5t2.5 33q0 63 -47.5 102.5t-143.5 39.5h-80v42h78q82 0 128.5 44t46.5 104q0 22 -6 43t-21.5 44t-49.5 37t-82 14
q-89 0 -172 -43l-16 40q86 46 195 46q97 0 149 -47t52 -130q0 -63 -39.5 -106.5t-99.5 -60.5z" />
    <glyph glyph-name="four.taboldstyle" 
d="M371 505h64v-463h102v-42h-102v-170h-50v170h-323v42q86 94 171.5 220.5t137.5 242.5zM115 42h270v405h-2q-118 -235 -268 -405z" />
    <glyph glyph-name="five.taboldstyle" 
d="M285 -190q-101 0 -203 50l16 39q91 -47 184 -47q83 0 133 48t50 132q0 69 -38 119t-122 50q-93 0 -153 -84l-39 4l19 379h345v-45h-301l-18 -290l2 -1q62 81 160 81q93 0 145 -56t52 -154q0 -107 -62.5 -166t-169.5 -59z" />
    <glyph glyph-name="six.taboldstyle" 
d="M132 350l2 -1q72 106 177 106q98 0 152 -61.5t54 -173.5q0 -106 -59 -168t-150 -62q-226 0 -226 310q0 207 74.5 298.5t197.5 91.5q65 0 142 -23l-7 -40q-69 20 -131 20q-53 0 -94.5 -22.5t-64.5 -54.5t-39 -75t-21.5 -77t-6.5 -68zM136 305q-8 -273 168 -273
q67 0 114 50t47 138q0 35 -7 65.5t-24.5 60.5t-52 47.5t-82.5 17.5t-90.5 -29.5t-72.5 -76.5z" />
    <glyph glyph-name="seven.taboldstyle" 
d="M437 453v2h-330v45h385v-38q-223 -361 -270 -642h-55q21 139 101.5 320t168.5 313z" />
    <glyph glyph-name="eight.taboldstyle" 
d="M348 359v-2q86 -34 132.5 -76t46.5 -110q0 -84 -60 -132.5t-168 -48.5t-167.5 47.5t-59.5 129.5q0 69 48.5 112t130.5 72v2q-75 27 -117 67t-42 104q0 76 57.5 121t151.5 45q92 0 149 -44.5t57 -119.5q0 -62 -39.5 -98.5t-119.5 -68.5zM124 171q0 -61 42 -101.5
t135 -40.5q92 0 133.5 39t41.5 99q0 28 -11.5 51.5t-27 38.5t-43.5 30.5t-47.5 24t-53.5 20.5q-76 -26 -122.5 -63t-46.5 -98zM299 651q-25 0 -49.5 -5.5t-50 -18.5t-41.5 -39.5t-16 -63.5q0 -101 163 -146q73 25 112.5 57.5t39.5 85.5q0 37 -16 64.5t-41.5 40.5t-50.5 19
t-50 6z" />
    <glyph glyph-name="nine.taboldstyle" 
d="M467 149l-2 1q-33 -48 -78.5 -76.5t-97.5 -28.5q-98 0 -152.5 61.5t-54.5 173.5q0 105 59.5 167.5t150.5 62.5q225 0 225 -310q0 -107 -21 -185t-59.5 -121.5t-85.5 -63.5t-105 -20q-64 0 -143 23l8 39q74 -20 131 -20q53 0 94.5 22t64.5 54.5t38.5 75.5t21 77.5
t6.5 67.5zM464 195q2 58 -4.5 102.5t-23.5 85t-52.5 62.5t-87.5 22q-67 0 -114 -49.5t-47 -137.5q0 -35 7 -65.5t24.5 -60.5t52 -47.5t82.5 -17.5q47 0 90 29.5t73 76.5z" />
    <glyph glyph-name="currency.taboldstyle" horiz-adv-x="513" 
d="M100 249q0 68 48 114l-78 90l8 8l79 -90q44 36 100 36q55 0 99 -36l78 90l9 -8l-78 -89q50 -47 50 -115t-49 -114l76 -86l-9 -9l-77 87q-43 -35 -99 -35q-57 0 -100 35l-76 -87l-9 9l76 86q-48 46 -48 114zM112 249q0 -59 43 -102t102 -43t102.5 43t43.5 102t-43.5 102.5
t-102.5 43.5t-102 -43.5t-43 -102.5z" />
    <glyph glyph-name="cent.taboldstyle" 
d="M337 467q-86 0 -134.5 -61.5t-48.5 -155.5t48.5 -156t134.5 -62q43 0 74 7.5t81 26.5l7 -40q-85 -36 -165 -36q-108 0 -170.5 71.5t-62.5 188.5q0 116 62.5 188t170.5 72q80 0 165 -36l-7 -40q-87 33 -155 33zM344 -130h-30v100h30v-100zM344 530h-30v100h30v-100z" />
    <glyph glyph-name="dollar.taboldstyle" 
d="M299 232q-56 11 -91.5 25t-60.5 45t-25 78q0 60 48 95t125 35q100 0 190 -34l-10 -39q-96 32 -178 32q-39 0 -66.5 -11t-38.5 -27.5t-15.5 -28.5t-4.5 -21q0 -36 27 -61t106 -41q93 -19 137.5 -53t44.5 -100q0 -60 -47 -98t-125 -38q-113 0 -203 34l10 38q92 -31 188 -31
q40 0 67.5 11.5t39 28.5t16 29.5t4.5 22.5q0 37 -28.5 65t-109.5 44zM315 -130h-30v100h30v-100zM315 530h-30v100h30v-100z" />
    <glyph glyph-name="Euro.taboldstyle" 
d="M76 305h54q15 94 75 149.5t154 55.5q80 0 165 -36l-7 -40q-87 33 -155 33q-72 0 -118.5 -45t-59.5 -117h147v-20h-151q-1 -12 -1 -35q0 -24 1 -35h151v-20h-147q13 -72 59.5 -117.5t118.5 -45.5q43 0 74 7.5t81 26.5l7 -40q-85 -36 -165 -36q-94 0 -154 55.5t-75 149.5
h-54v20h52q-2 11 -2 35t2 35h-52v20z" />
    <glyph glyph-name="franc.taboldstyle" 
d="M76 305h54q15 94 75 149.5t154 55.5q80 0 165 -36l-7 -40q-87 33 -155 33q-72 0 -118.5 -45t-59.5 -117h147v-20h-151q-1 -12 -1 -35q0 -24 1 -35h151v-20h-147q13 -72 59.5 -117.5t118.5 -45.5q43 0 74 7.5t81 26.5l7 -40q-85 -36 -165 -36q-94 0 -154 55.5t-75 149.5
h-54v20h52q-2 11 -2 35t2 35h-52v20z" />
    <glyph glyph-name="sterling.taboldstyle" 
d="M327 237h-155v-192h335v-45h-435v45h50v192h-50v33h50v89q0 78 56 114.5t142 36.5q118 0 207 -54l-16 -38q-93 49 -194 49q-77 0 -111 -31.5t-34 -78.5v-87h155v-33z" />
    <glyph glyph-name="yen.taboldstyle" 
d="M333 195h119v-28h-127v-167h-50v167h-128v28h119l-189 305h61l162 -270h2l163 270h57z" />
    <glyph glyph-name="lira.taboldstyle" 
d="M76 305h54q15 94 75 149.5t154 55.5q80 0 165 -36l-7 -40q-87 33 -155 33q-72 0 -118.5 -45t-59.5 -117h147v-20h-151q-1 -12 -1 -35q0 -24 1 -35h151v-20h-147q13 -72 59.5 -117.5t118.5 -45.5q43 0 74 7.5t81 26.5l7 -40q-85 -36 -165 -36q-94 0 -154 55.5t-75 149.5
h-54v20h52q-2 11 -2 35t2 35h-52v20z" />
    <glyph glyph-name="peseta.taboldstyle" 
d="M76 305h54q15 94 75 149.5t154 55.5q80 0 165 -36l-7 -40q-87 33 -155 33q-72 0 -118.5 -45t-59.5 -117h147v-20h-151q-1 -12 -1 -35q0 -24 1 -35h151v-20h-147q13 -72 59.5 -117.5t118.5 -45.5q43 0 74 7.5t81 26.5l7 -40q-85 -36 -165 -36q-94 0 -154 55.5t-75 149.5
h-54v20h52q-2 11 -2 35t2 35h-52v20z" />
    <glyph glyph-name="colonmonetary.taboldstyle" 
d="M337 467q-86 0 -134.5 -61.5t-48.5 -155.5t48.5 -156t134.5 -62q43 0 74 7.5t81 26.5l7 -40q-85 -36 -165 -36q-108 0 -170.5 71.5t-62.5 188.5q0 116 62.5 188t170.5 72q80 0 165 -36l-7 -40q-87 33 -155 33zM289 -130h-30v100h30v-100zM289 530h-30v100h30v-100z
M394 -130h-30v100h30v-100zM394 530h-30v100h30v-100z" />
    <glyph glyph-name="florin.taboldstyle" 
d="M275 -45v507h-83v34l83 4v42q0 88 31 123t101 35q23 0 73 -6l-5 -40q-42 5 -58 5q-53 0 -72.5 -29.5t-19.5 -94.5v-35h150v-38h-150v-507q0 -90 -30.5 -127.5t-102.5 -37.5q-34 0 -72 6l5 40q31 -5 57 -5q54 0 73.5 29.5t19.5 94.5z" />
    <glyph glyph-name="numbersign.taboldstyle" 
d="M203 500h38l-14 -128h170l14 128h37l-13 -128h100l-4 -35h-100l-18 -175h100l-4 -35h-100l-14 -127h-37l14 127h-170l-14 -127h-38l14 127h-100l4 35h100l18 175h-100l4 35h100zM224 337l-19 -175h170l19 175h-170z" />
    <glyph glyph-name="hyphensuperior" horiz-adv-x="290" 
d="M52 722h185v-24h-185v24z" />
    <glyph glyph-name="commasuperior" horiz-adv-x="152" 
d="M77 465h-25q20 41 20 124h28q0 -85 -23 -124z" />
    <glyph glyph-name="periodsuperior" horiz-adv-x="133" 
d="M52 589h28v-59h-28v59z" />
    <glyph glyph-name="centsuperior" horiz-adv-x="361" 
d="M197 843q-60 0 -86.5 -40.5t-26.5 -104.5q0 -65 26.5 -108t86.5 -43q56 0 101 39l11 -23q-52 -43 -117 -43q-71 0 -105.5 49.5t-34.5 128.5q0 76 34.5 124t105.5 48q63 0 117 -42l-11 -24q-45 39 -101 39zM203 440h-18v60h18v-60zM203 890h-18v60h18v-60z" />
    <glyph glyph-name="dollarsuperior" horiz-adv-x="345" 
d="M185 440h-18v60h18v-60zM185 890h-18v60h18v-60zM171 685q-46 10 -77.5 35t-31.5 64q0 44 31 65t82 21q67 0 111 -28l-13 -23q-44 24 -98 24q-81 0 -81 -59q0 -52 95 -74q103 -23 103 -94q0 -46 -33 -71t-86 -25q-74 0 -121 34l14 22q46 -29 109 -29q39 0 62.5 18
t23.5 49q0 46 -76 67q-3 1 -8 2q-4 1 -6 2z" />
    <glyph glyph-name="hypheninferior" horiz-adv-x="290" 
d="M52 -8h185v-24h-185v24z" />
    <glyph glyph-name="commainferior" horiz-adv-x="152" 
d="M77 -265h-25q20 41 20 124h28q0 -85 -23 -124z" />
    <glyph glyph-name="periodinferior" horiz-adv-x="133" 
d="M52 -141h28v-59h-28v59z" />
    <glyph glyph-name="centinferior" horiz-adv-x="361" 
d="M197 113q-60 0 -86.5 -40.5t-26.5 -104.5q0 -65 26.5 -108t86.5 -43q56 0 101 39l11 -23q-52 -43 -117 -43q-71 0 -105.5 49.5t-34.5 128.5q0 76 34.5 124t105.5 48q63 0 117 -42l-11 -24q-45 39 -101 39zM203 -290h-18v60h18v-60zM203 160h-18v60h18v-60z" />
    <glyph glyph-name="dollarinferior" horiz-adv-x="345" 
d="M185 -290h-18v60h18v-60zM185 160h-18v60h18v-60zM171 -45q-46 10 -77.5 35t-31.5 64q0 44 31 65t82 21q67 0 111 -28l-13 -23q-44 24 -98 24q-81 0 -81 -59q0 -52 95 -74q103 -23 103 -94q0 -46 -33 -71t-86 -25q-74 0 -121 34l14 22q46 -29 109 -29q39 0 62.5 18
t23.5 49q0 46 -76 67q-3 1 -8 2q-4 1 -6 2z" />
    <glyph glyph-name="zero.denominator" horiz-adv-x="335" 
d="M167 316q-85 0 -85 -148q0 -155 85 -155q86 0 86 155q0 148 -86 148zM167 -10q-115 0 -115 178q0 172 115 172t115 -172q0 -178 -115 -178z" />
    <glyph glyph-name="one.denominator" horiz-adv-x="305" 
d="M49 23h105v286l-93 -53l-9 23q74 35 111 64h19v-320h105v-23h-238v23z" />
    <glyph glyph-name="two.denominator" horiz-adv-x="315" 
d="M149 319q-40 0 -88 -24l-9 22q53 28 104 28q50 0 75.5 -28.5t25.5 -71.5q0 -104 -165 -219v-1h170v-25h-210v28q176 119 176 211q0 33 -16 52.5t-31.5 23.5t-31.5 4z" />
    <glyph glyph-name="three.denominator" horiz-adv-x="325" 
d="M193 168q36 -7 57.5 -29.5t21.5 -55.5q0 -93 -114 -93q-64 0 -106 26l10 22q45 -25 95 -25q48 0 67 20.5t19 44.5q0 75 -93 75h-40v24h38q41 0 63.5 21t22.5 51q0 26 -16.5 46.5t-59.5 20.5q-37 0 -87 -24l-9 22q46 26 99 26q48 0 74.5 -23.5t26.5 -65.5
q0 -31 -19.5 -52.5t-49.5 -30.5z" />
    <glyph glyph-name="four.denominator" horiz-adv-x="345" 
d="M82 119h132v184q-48 -91 -132 -184zM206 340h36v-221h50v-24h-50v-95h-28v95h-162v24q107 117 154 221z" />
    <glyph glyph-name="five.denominator" horiz-adv-x="325" 
d="M156 -10q-51 0 -104 28l9 22q50 -26 93 -27q39 0 64 24t25 64q0 34 -18.5 58.5t-59.5 24.5q-46 0 -75 -41l-21 2l8 190h175v-25h-150l-8 -140l1 -1q31 40 78 40q46 0 72.5 -28t26.5 -78q0 -52 -32 -82.5t-84 -30.5z" />
    <glyph glyph-name="six.denominator" horiz-adv-x="325" 
d="M80 171h1q36 51 88 51q48 0 75.5 -30.5t27.5 -86.5q0 -53 -30 -84t-76 -31q-114 0 -114 155q0 103 38 149t99 46q36 0 72 -13l-4 -23q-32 12 -66 12q-41 0 -67.5 -28t-34.5 -57t-9 -60zM83 147q-6 -134 81 -134q33 0 55.5 24.5t22.5 67.5q0 38 -18 65.5t-63 27.5t-78 -51
z" />
    <glyph glyph-name="seven.denominator" horiz-adv-x="320" 
d="M236 314v1h-184v25h215v-21q-112 -182 -135 -319h-30q10 69 50 158t84 156z" />
    <glyph glyph-name="eight.denominator" horiz-adv-x="335" 
d="M194 175q43 -20 65.5 -40.5t22.5 -53.5q0 -42 -30.5 -66.5t-84.5 -24.5q-55 0 -85 23.5t-30 65.5q0 60 88 91q-78 32 -78 86q0 39 29.5 61.5t76.5 22.5t75.5 -22.5t28.5 -60.5q0 -31 -19.5 -49t-58.5 -33zM81 81q0 -30 21.5 -49.5t65.5 -19.5q84 0 86 67q0 21 -15 37.5
t-31 24t-45 18.5q-82 -27 -82 -78zM167 318q-29 0 -53 -14t-24 -48q0 -49 81 -71q73 24 73 70q0 35 -24 49t-53 14z" />
    <glyph glyph-name="nine.denominator" horiz-adv-x="325" 
d="M244 159h-1q-35 -51 -87 -51q-49 0 -76.5 30.5t-27.5 86.5q0 53 30 84t76 31q114 0 114 -155q0 -195 -137 -195q-35 0 -72 13l4 22q37 -12 66 -12q32 0 55 15.5t34 40t16 46.5t6 44zM242 183q4 133 -81 133q-33 0 -56 -24.5t-23 -66.5q0 -38 18 -65.5t63 -27.5
q44 0 79 51z" />
    <glyph glyph-name="parenleft.denominator" horiz-adv-x="209" 
d="M52 160q0 127 84 240h21q-77 -124 -77 -240q0 -114 77 -240h-21q-84 113 -84 240z" />
    <glyph glyph-name="parenright.denominator" horiz-adv-x="209" 
d="M157 160q0 -127 -84 -240h-21q77 123 77 240q0 118 -77 240h21q84 -113 84 -240z" />
    <glyph glyph-name="cent.denominator" horiz-adv-x="361" 
d="M197 313q-60 0 -86.5 -40.5t-26.5 -104.5q0 -65 26.5 -108t86.5 -43q56 0 101 39l11 -23q-52 -43 -117 -43q-71 0 -105.5 49.5t-34.5 128.5q0 76 34.5 124t105.5 48q63 0 117 -42l-11 -24q-45 39 -101 39zM203 -90h-18v60h18v-60zM203 360h-18v60h18v-60z" />
    <glyph glyph-name="dollar.denominator" horiz-adv-x="345" 
d="M185 -90h-18v60h18v-60zM185 360h-18v60h18v-60zM171 155q-46 10 -77.5 35t-31.5 64q0 44 31 65t82 21q67 0 111 -28l-13 -23q-44 24 -98 24q-81 0 -81 -59q0 -52 95 -74q103 -23 103 -94q0 -46 -33 -71t-86 -25q-74 0 -121 34l14 22q46 -29 109 -29q39 0 62.5 18
t23.5 49q0 46 -76 67q-3 1 -8 2q-4 1 -6 2z" />
    <glyph glyph-name="hyphen.denominator" horiz-adv-x="290" 
d="M52 192h185v-24h-185v24z" />
    <glyph glyph-name="comma.denominator" horiz-adv-x="152" 
d="M77 -65h-25q20 41 20 124h28q0 -85 -23 -124z" />
    <glyph glyph-name="period.denominator" horiz-adv-x="133" 
d="M52 59h28v-59h-28v59z" />
    <glyph glyph-name="zero.numerator" horiz-adv-x="335" 
d="M167 646q-85 0 -85 -148q0 -155 85 -155q86 0 86 155q0 148 -86 148zM167 320q-115 0 -115 178q0 172 115 172t115 -172q0 -178 -115 -178z" />
    <glyph glyph-name="one.numerator" horiz-adv-x="305" 
d="M49 353h105v286l-93 -53l-9 23q74 35 111 64h19v-320h105v-23h-238v23z" />
    <glyph glyph-name="two.numerator" horiz-adv-x="315" 
d="M149 649q-40 0 -88 -24l-9 22q53 28 104 28q50 0 75.5 -28.5t25.5 -71.5q0 -104 -165 -219v-1h170v-25h-210v28q176 119 176 211q0 33 -16 52.5t-31.5 23.5t-31.5 4z" />
    <glyph glyph-name="three.numerator" horiz-adv-x="325" 
d="M193 498q36 -7 57.5 -29.5t21.5 -55.5q0 -93 -114 -93q-64 0 -106 26l10 22q45 -25 95 -25q48 0 67 20.5t19 44.5q0 75 -93 75h-40v24h38q41 0 63.5 21t22.5 51q0 26 -16.5 46.5t-59.5 20.5q-37 0 -87 -24l-9 22q46 26 99 26q48 0 74.5 -23.5t26.5 -65.5
q0 -31 -19.5 -52.5t-49.5 -30.5z" />
    <glyph glyph-name="four.numerator" horiz-adv-x="345" 
d="M82 449h132v184q-48 -91 -132 -184zM206 670h36v-221h50v-24h-50v-95h-28v95h-162v24q107 117 154 221z" />
    <glyph glyph-name="five.numerator" horiz-adv-x="325" 
d="M156 320q-51 0 -104 28l9 22q50 -26 93 -27q39 0 64 24t25 64q0 34 -18.5 58.5t-59.5 24.5q-46 0 -75 -41l-21 2l8 190h175v-25h-150l-8 -140l1 -1q31 40 78 40q46 0 72.5 -28t26.5 -78q0 -52 -32 -82.5t-84 -30.5z" />
    <glyph glyph-name="six.numerator" horiz-adv-x="325" 
d="M80 501h1q36 51 88 51q48 0 75.5 -30.5t27.5 -86.5q0 -53 -30 -84t-76 -31q-114 0 -114 155q0 103 38 149t99 46q36 0 72 -13l-4 -23q-32 12 -66 12q-41 0 -67.5 -28t-34.5 -57t-9 -60zM83 477q-6 -134 81 -134q33 0 55.5 24.5t22.5 67.5q0 38 -18 65.5t-63 27.5t-78 -51
z" />
    <glyph glyph-name="seven.numerator" horiz-adv-x="320" 
d="M236 644v1h-184v25h215v-21q-112 -182 -135 -319h-30q10 69 50 158t84 156z" />
    <glyph glyph-name="eight.numerator" horiz-adv-x="335" 
d="M194 505q43 -20 65.5 -40.5t22.5 -53.5q0 -42 -30.5 -66.5t-84.5 -24.5q-55 0 -85 23.5t-30 65.5q0 60 88 91q-78 32 -78 86q0 39 29.5 61.5t76.5 22.5t75.5 -22.5t28.5 -60.5q0 -31 -19.5 -49t-58.5 -33zM81 411q0 -30 21.5 -49.5t65.5 -19.5q84 0 86 67q0 21 -15 37.5
t-31 24t-45 18.5q-82 -27 -82 -78zM167 648q-29 0 -53 -14t-24 -48q0 -49 81 -71q73 24 73 70q0 35 -24 49t-53 14z" />
    <glyph glyph-name="nine.numerator" horiz-adv-x="325" 
d="M244 489h-1q-35 -51 -87 -51q-49 0 -76.5 30.5t-27.5 86.5q0 53 30 84t76 31q114 0 114 -155q0 -195 -137 -195q-35 0 -72 13l4 22q38 -12 66 -12q32 0 55 15.5t34 40t16 46.5t6 44zM242 513q4 133 -81 133q-33 0 -56 -24.5t-23 -66.5q0 -38 18 -65.5t63 -27.5
q44 0 79 51z" />
    <glyph glyph-name="parenleft.numerator" horiz-adv-x="209" 
d="M52 490q0 127 84 240h21q-77 -124 -77 -240q0 -114 77 -240h-21q-84 113 -84 240z" />
    <glyph glyph-name="parenright.numerator" horiz-adv-x="209" 
d="M157 490q0 -127 -84 -240h-21q77 123 77 240q0 118 -77 240h21q84 -113 84 -240z" />
    <glyph glyph-name="cent.numerator" horiz-adv-x="361" 
d="M197 643q-60 0 -86.5 -40.5t-26.5 -104.5q0 -65 26.5 -108t86.5 -43q56 0 101 39l11 -23q-52 -43 -117 -43q-71 0 -105.5 49.5t-34.5 128.5q0 76 34.5 124t105.5 48q63 0 117 -42l-11 -24q-45 39 -101 39zM203 240h-18v60h18v-60zM203 690h-18v60h18v-60z" />
    <glyph glyph-name="dollar.numerator" horiz-adv-x="345" 
d="M185 240h-18v60h18v-60zM185 690h-18v60h18v-60zM171 485q-46 10 -77.5 35t-31.5 64q0 44 31 65t82 21q67 0 111 -28l-13 -23q-44 24 -98 24q-81 0 -81 -59q0 -52 95 -74q103 -23 103 -94q0 -46 -33 -71t-86 -25q-74 0 -121 34l14 22q46 -29 109 -29q39 0 62.5 18
t23.5 49q0 46 -76 67q-3 1 -8 2q-4 1 -6 2z" />
    <glyph glyph-name="hyphen.numerator" horiz-adv-x="290" 
d="M52 522h185v-24h-185v24z" />
    <glyph glyph-name="comma.numerator" horiz-adv-x="152" 
d="M77 265h-25q20 41 20 124h28q0 -85 -23 -124z" />
    <glyph glyph-name="period.numerator" horiz-adv-x="133" 
d="M52 389h28v-59h-28v59z" />
    <glyph glyph-name="exclamsmall" horiz-adv-x="185" 
d="M67 115h50v-115h-50v115zM67 580h50l-2 -368h-45z" />
    <glyph glyph-name="exclamdownsmall" horiz-adv-x="185" 
d="M117 465h-50v115h50v-115zM117 0h-50l3 367h45z" />
    <glyph glyph-name="at.cap" horiz-adv-x="830" 
d="M553 414v-236q49 0 88 15.5t61.5 39.5t37.5 55.5t20.5 60t5.5 56.5q0 132 -96.5 214t-235.5 82q-162 0 -266 -102t-104 -266q0 -150 95.5 -246.5t242.5 -96.5l-3 -30q-161 0 -265 106t-104 267q0 174 114.5 286.5t289.5 112.5q154 0 260 -91.5t106 -234.5
q0 -112 -65 -186t-184 -74h-38v39h-2q-53 -46 -129 -46q-59 0 -93.5 28.5t-34.5 80.5q0 118 164 118h95v46q0 48 -22.5 72t-77.5 24q-58 0 -127 -21l-9 29q77 25 145 25q66 0 98.5 -28.5t32.5 -98.5zM513 213v126h-94q-69 0 -96.5 -22.5t-27.5 -65.5q0 -37 25.5 -58.5
t74.5 -21.5q69 0 118 42z" />
    <glyph glyph-name="parenleft.cap" horiz-adv-x="330" 
d="M79 340q0 122 44.5 248t123.5 232h35q-153 -247 -153 -480q0 -230 153 -480h-35q-79 106 -123.5 232t-44.5 248z" />
    <glyph glyph-name="parenright.cap" horiz-adv-x="330" 
d="M251 340q0 -121 -45 -247.5t-124 -232.5h-35q154 249 154 480q0 234 -154 480h35q79 -107 124 -232.5t45 -247.5z" />
    <glyph glyph-name="bracketleft.cap" horiz-adv-x="300" 
d="M120 -108h132v-32h-185v960h185v-33h-132v-895z" />
    <glyph glyph-name="bracketright.cap" horiz-adv-x="300" 
d="M47 -108h133v895h-133v33h185v-960h-185v32z" />
    <glyph glyph-name="braceleft.cap" horiz-adv-x="340" 
d="M180 5q0 -35 7.5 -58.5t16.5 -35.5t27 -18t29 -7t32 -1v-25q-84 0 -124.5 30t-40.5 116q0 31 5 95.5t5 93.5q0 31 -1.5 46.5t-7.5 36t-21 30.5t-40 14v35q25 4 40 14t21 31t7.5 36.5t1.5 46.5q0 29 -5 93.5t-5 95.5q0 86 40.5 116t124.5 30v-25q-21 0 -32 -1t-29 -7
t-27 -18t-16.5 -35.5t-7.5 -58.5q0 -30 5.5 -107.5t5.5 -108.5q0 -56 -20.5 -82.5t-60.5 -35.5v-2q40 -9 60.5 -35.5t20.5 -82.5q0 -31 -5.5 -108.5t-5.5 -107.5z" />
    <glyph glyph-name="braceright.cap" horiz-adv-x="340" 
d="M160 675q0 35 -7.5 58.5t-16.5 35.5t-27 18t-29.5 7t-32.5 1v25q84 0 124.5 -30t40.5 -116q0 -31 -5 -95.5t-5 -93.5q0 -31 1.5 -46.5t7.5 -36.5t21 -31t40 -14v-35q-25 -4 -40 -14t-21 -30.5t-7.5 -36t-1.5 -46.5q0 -29 5 -93.5t5 -95.5q0 -86 -40.5 -116t-124.5 -30v25
q21 0 32.5 1t29.5 7t27 18t16.5 35.5t7.5 58.5q0 30 -5.5 107.5t-5.5 108.5q0 56 20.5 82.5t60.5 35.5v2q-40 9 -60.5 35.5t-20.5 82.5q0 31 5.5 108.5t5.5 107.5z" />
    <glyph glyph-name="exclamdown.cap" horiz-adv-x="185" 
d="M67 115h50v-115h-50v115zM67 680h50l-2 -468h-45z" />
    <glyph glyph-name="questiondown.cap" horiz-adv-x="480" 
d="M242 -10q-53 0 -91 15t-57.5 40.5t-28 53t-8.5 58.5q0 51 20.5 88.5t49.5 59t58 40t49.5 42t20.5 53.5v30h45v-30q0 -37 -19.5 -65.5t-47.5 -47.5l-56.5 -39t-48 -52t-19.5 -74q0 -125 146 -125q61 0 152 34l15 -43q-93 -38 -180 -38zM302 565h-50v115h50v-115z" />
    <glyph glyph-name="guillemotleft.cap" horiz-adv-x="632" 
d="M67 306l245 166v-46l-192 -136l192 -136v-47l-245 167v32zM320 306l245 166v-46l-193 -136l193 -136v-47l-245 167v32z" />
    <glyph glyph-name="guillemotright.cap" horiz-adv-x="632" 
d="M320 472l245 -166v-32l-245 -167v47l192 136l-192 136v46zM67 472l245 -166v-32l-245 -167v47l193 136l-193 136v46z" />
    <glyph glyph-name="guilsinglleft.cap" horiz-adv-x="380" 
d="M67 306l245 166v-46l-192 -136l192 -136v-47l-245 167v32z" />
    <glyph glyph-name="guilsinglright.cap" horiz-adv-x="380" 
d="M312 274l-245 -167v47l193 136l-193 136v46l245 -166v-32z" />
    <glyph glyph-name="hyphen.cap" horiz-adv-x="500" 
d="M67 326h365v-42h-365v42z" />
    <glyph glyph-name="endash.cap" horiz-adv-x="692" 
d="M67 326h558v-42h-558v42z" />
    <glyph glyph-name="emdash.cap" horiz-adv-x="760" 
d="M67 326h625v-42h-625v42z" />
    <glyph glyph-name="periodcentered.cap" horiz-adv-x="220" 
d="M87 365h45v-110h-45v110z" />
    <glyph glyph-name="questiondownsmall" horiz-adv-x="480" 
d="M242 0q-93 0 -139 37.5t-46 99.5q0 47 20.5 78t49.5 46.5t58 28t49.5 32.5t20.5 50v28h45v-30q0 -37 -19.5 -61.5t-47.5 -38l-56.5 -26.5t-48 -37.5t-19.5 -62.5q0 -99 146 -99q65 0 155 36l12 -38q-97 -43 -180 -43zM302 495h-50v115h50v-115z" />
    <glyph glyph-name="percent.oldstyle" horiz-adv-x="760" 
d="M582 580l-370 -580h-35l370 580h35zM181 318q-62 0 -95.5 35.5t-33.5 96.5q0 62 33.5 97t95.5 35t95.5 -35t33.5 -97t-33.5 -97t-95.5 -35zM181 346q96 0 96 104t-96 104q-95 0 -95 -104t95 -104zM578 -3q-62 0 -95.5 35.5t-33.5 97.5q0 61 33.5 96.5t95.5 35.5t95.5 -35
t33.5 -97t-33.5 -97.5t-95.5 -35.5zM578 26q96 0 96 104q0 103 -96 103q-95 0 -95 -103q0 -104 95 -104z" />
    <glyph glyph-name="perthousand.oldstyle" horiz-adv-x="1070" 
d="M578 -3q-62 0 -95.5 35.5t-33.5 97.5q0 61 33.5 96.5t95.5 35.5t95.5 -35t33.5 -97t-33.5 -97.5t-95.5 -35.5zM578 26q96 0 96 104q0 103 -96 103q-95 0 -95 -103q0 -104 95 -104zM888 -3q-62 0 -95.5 35.5t-33.5 97.5q0 61 33.5 96.5t95.5 35.5t95.5 -35t33.5 -97
t-33.5 -97.5t-95.5 -35.5zM888 26q96 0 96 104q0 103 -96 103q-95 0 -95 -103q0 -104 95 -104zM582 580l-370 -580h-35l370 580h35zM181 318q-62 0 -95.5 35.5t-33.5 96.5q0 62 33.5 97t95.5 35t95.5 -35t33.5 -97t-33.5 -97t-95.5 -35zM181 346q96 0 96 104t-96 104
q-95 0 -95 -104t95 -104z" />
    <glyph glyph-name="threequartersemdash" horiz-adv-x="760" 
d="M67 286h625v-42h-625v42z" />
    <glyph glyph-name="overscore" horiz-adv-x="425" 
d="M65 640h295v-33h-295v33z" />
    <glyph glyph-name="ampersand.alt" horiz-adv-x="840" 
d="M562 235h-287q-20 0 -42.5 -4t-48.5 -14t-42.5 -30.5t-16.5 -49.5q0 -105 147 -105q86 0 164 30l8 -39q-92 -33 -184 -33q-95 0 -144 36t-49 104q0 53 37 83t96 40v2q-113 25 -113 125q0 69 52 99.5t131 30.5q93 0 175 -33q-3 -11 -7 -40q-78 30 -162 30
q-33 0 -60.5 -6.5t-51.5 -29.5t-24 -61q0 -12 4 -24.5t15.5 -31t41.5 -30.5t74 -12h287q2 38 4 114l3 114h43v-228h155v-33h-155v-84q0 -64 21 -94t77 -30q26 0 57 5l5 -40q-36 -6 -77 -6q-70 0 -101.5 35t-31.5 123v87z" />
  </font>
</defs>
</svg>
