<?xml version="1.0" standalone="no"?>
<!DOCTYPE svg PUBLIC "-//W3C//DTD SVG 1.1//EN" "http://www.w3.org/Graphics/SVG/1.1/DTD/svg11.dtd" >
<svg>
<metadata>
Created by FontForge 20090622 at Wed Jul  1 12:41:10 2015
 By deploy user
Copyright (c) 2008 by Dino dos Santos _DSType. All rights reserved.
</metadata>
<defs>
<font id="Prelo-SemiBold" horiz-adv-x="600" >
  <font-face 
    font-family="Prelo SemiBold"
    font-weight="600"
    font-stretch="normal"
    units-per-em="1000"
    panose-1="2 0 5 6 4 0 0 2 0 4"
    ascent="750"
    descent="-250"
    x-height="500"
    cap-height="680"
    bbox="-76 -290 1077 950"
    underline-thickness="50"
    underline-position="-50"
    unicode-range="U+0020-U+FB06"
  />
<missing-glyph horiz-adv-x="590" 
d="M70 500h450v-500h-450v500zM287 249l-206 236v-469zM304 249l205 -231v465zM93 488l203 -229l202 229h-405zM296 240l-201 -228h401z" />
    <glyph glyph-name=".notdef" horiz-adv-x="590" 
d="M70 500h450v-500h-450v500zM287 249l-206 236v-469zM304 249l205 -231v465zM93 488l203 -229l202 229h-405zM296 240l-201 -228h401z" />
    <glyph glyph-name=".null" horiz-adv-x="0" 
 />
    <glyph glyph-name="nonmarkingreturn" horiz-adv-x="333" 
 />
    <glyph glyph-name="space" unicode=" " horiz-adv-x="180" 
 />
    <glyph glyph-name="exclam" unicode="!" horiz-adv-x="207" 
d="M49 137h110v-137h-110v137zM49 680h110l-7 -464h-97z" />
    <glyph glyph-name="quotedbl" unicode="&#x22;" horiz-adv-x="407" 
d="M49 680h110l-13 -144h-85zM249 680h110l-13 -144h-85z" />
    <glyph glyph-name="numbersign" unicode="#" horiz-adv-x="609" 
d="M190 500h79l-12 -109h125l12 109h78l-12 -109h100l-7 -72h-100l-15 -138h100l-7 -72h-100l-12 -109h-78l11 109h-125l-11 -109h-79l12 109h-100l7 72h100l15 138h-100l7 72h100zM249 319l-14 -138h125l14 138h-125z" />
    <glyph glyph-name="dollar" unicode="$" 
d="M327 -100h-48v91q-121 3 -230 35l20 98q116 -30 231 -30q65 0 97 26t32 67q0 15 -5 28t-18.5 23l-22.5 17t-30.5 14.5t-29.5 10.5t-32.5 9.5t-26.5 6.5q-205 58 -205 209q0 89 60.5 134.5t159.5 49.5v91h48v-91q97 -5 208 -35l-26 -98q-119 30 -209 30q-119 0 -119 -84
q0 -20 12.5 -37t26.5 -27t43 -20t41 -13.5t42 -10.5q205 -49 205 -199q0 -94 -61.5 -146.5t-162.5 -57.5v-91z" />
    <glyph glyph-name="percent" unicode="%" horiz-adv-x="760" 
d="M601 680l-370 -680h-72l370 680h72zM181 400q-67 0 -103.5 38t-36.5 105t36.5 105t103.5 38t103 -38t36 -105t-36 -105t-103 -38zM181 456q70 0 70 87t-70 87t-70 -87t70 -87zM579 -6q-67 0 -103 38t-36 105t36 105t103 38t103.5 -38t36.5 -105t-36.5 -105t-103.5 -38z
M579 50q70 0 70 87t-70 87t-70 -87t70 -87z" />
    <glyph glyph-name="ampersand" unicode="&#x26;" horiz-adv-x="705" 
d="M506 529q0 -95 -146 -172l155 -150q47 64 57 143h104q-16 -121 -90 -217l80 -83l-72 -78l-86 90q-92 -72 -223 -72q-119 0 -178.5 50.5t-59.5 135.5q0 57 34 102t125 93q-27 32 -39.5 49.5t-25 46.5t-12.5 56q0 80 57.5 123.5t138.5 43.5q84 0 132.5 -42.5t48.5 -118.5z
M295 84q86 0 145 49l-177 182q-100 -55 -100 -122q0 -44 33 -76.5t99 -32.5zM236 528q0 -29 15 -53.5t46 -57.5q105 57 105 116q0 44 -25 62.5t-55 18.5q-46 0 -66 -26.5t-20 -59.5z" />
    <glyph glyph-name="quotesingle" unicode="'" horiz-adv-x="207" 
d="M49 680h110l-13 -144h-85z" />
    <glyph glyph-name="parenleft" unicode="(" horiz-adv-x="330" 
d="M54 340q0 126 45.5 250.5t129.5 229.5h72q-137 -232 -137 -480q0 -240 137 -480h-72q-84 104 -129.5 230t-45.5 250z" />
    <glyph glyph-name="parenright" unicode=")" horiz-adv-x="330" 
d="M276 340q0 -124 -45.5 -250t-129.5 -230h-72q137 240 137 480q0 248 -137 480h72q84 -105 129.5 -229.5t45.5 -250.5z" />
    <glyph glyph-name="asterisk" unicode="*" horiz-adv-x="415" 
d="M184 555l-8 125h63l-8 -125l127 43l19 -63l-131 -17l86 -102l-50 -38l-75 118l-75 -118l-50 38l87 102l-132 17l19 63z" />
    <glyph glyph-name="plus" unicode="+" horiz-adv-x="500" 
d="M296 466v-155h155v-92h-155v-155h-92v155h-155v92h155v155h92z" />
    <glyph glyph-name="comma" unicode="," horiz-adv-x="207" 
d="M105 -130h-35l22 130h-43v137h110v-137z" />
    <glyph glyph-name="hyphen" unicode="-" horiz-adv-x="500" 
d="M49 311h402v-92h-402v92z" />
    <glyph glyph-name="period" unicode="." horiz-adv-x="207" 
d="M49 137h110v-137h-110v137z" />
    <glyph glyph-name="slash" unicode="/" horiz-adv-x="540" 
d="M504 680l-370 -680h-98l370 680h98z" />
    <glyph glyph-name="zero" unicode="0" horiz-adv-x="590" 
d="M295 599q-72 0 -101 -68t-29 -186q0 -264 130 -264t130 264q0 118 -29 186t-101 68zM295 -10q-72 0 -121.5 27.5t-76 78.5t-37.5 111t-11 138q0 77 11 135.5t37.5 108t76 75.5t121.5 26t121.5 -26t76 -75.5t37.5 -108t11 -135.5q0 -78 -11 -138t-37.5 -111t-76 -78.5
t-121.5 -27.5z" />
    <glyph glyph-name="one" unicode="1" horiz-adv-x="375" 
d="M204 554l-154 -75l-29 91q141 57 213 115h80v-685h-110v554z" />
    <glyph glyph-name="two" unicode="2" horiz-adv-x="550" 
d="M245 589q-75 0 -164 -37l-32 88q117 50 221 50q108 0 164.5 -57.5t56.5 -146.5q0 -101 -71 -193t-216 -194v-2h297v-97h-452v106q188 122 257 206t69 150q0 40 -13.5 67.5t-36 39t-41 16t-39.5 4.5z" />
    <glyph glyph-name="three" unicode="3" horiz-adv-x="570" 
d="M377 353v-2q69 -15 106.5 -61t37.5 -108q0 -92 -63 -142t-180 -50q-133 0 -229 48l33 85q87 -42 190 -42q76 0 106 33.5t30 74.5q0 105 -148 105h-88v92h83q71 0 104 33t33 80q0 39 -28 69.5t-92 30.5q-85 0 -175 -42l-33 85q103 48 227 48q94 0 152 -47t58 -132
q0 -114 -124 -158z" />
    <glyph glyph-name="four" unicode="4" horiz-adv-x="590" 
d="M152 257h198v280h-2q-67 -128 -196 -280zM323 680h137v-423h91v-91h-91v-166h-110v166h-311v91q187 204 284 423z" />
    <glyph glyph-name="five" unicode="5" horiz-adv-x="570" 
d="M270 -10q-114 0 -221 50l32 85q93 -44 183 -44q68 0 104.5 36.5t36.5 98.5q0 53 -29 91.5t-94 38.5q-70 0 -118 -57l-80 7l15 384h382v-98h-287l-11 -197l2 -1q56 56 136 56q92 0 146 -57t54 -161q0 -112 -66.5 -172t-184.5 -60z" />
    <glyph glyph-name="six" unicode="6" horiz-adv-x="570" 
d="M159 377l2 -1q61 79 152 79q97 0 152.5 -61.5t55.5 -173.5q0 -106 -63.5 -168t-164.5 -62q-66 0 -114.5 25.5t-76 70t-40.5 98t-13 116.5q0 390 290 390q83 0 161 -27l-13 -84q-81 20 -139 20q-86 0 -137.5 -66.5t-51.5 -155.5zM168 292q-14 -211 119 -211q50 0 84 36.5
t34 102.5q0 57 -27.5 98t-93.5 41q-65 0 -116 -67z" />
    <glyph glyph-name="seven" unicode="7" horiz-adv-x="500" 
d="M341 580v2h-302v98h422v-79q-92 -156 -153 -297t-87 -304h-122q22 133 90.5 294.5t151.5 285.5z" />
    <glyph glyph-name="eight" unicode="8" horiz-adv-x="590" 
d="M392 359v-2q73 -33 111 -74.5t38 -101.5q0 -93 -69 -142t-180 -49q-108 0 -175.5 45.5t-67.5 133.5q0 117 147 173v2q-127 58 -127 168q0 84 66 131t163 47q93 0 158 -46t65 -126q0 -57 -32 -93t-97 -66zM162 181q0 -46 33.5 -77.5t103.5 -31.5q67 0 98 28t31 71
q0 26 -11 46t-34.5 35t-41.5 23.5t-49 20.5q-9 3 -13 5q-117 -43 -117 -120zM292 608q-44 0 -78.5 -24t-34.5 -70q0 -81 129 -116q103 36 103 110q0 49 -35.5 74.5t-83.5 25.5z" />
    <glyph glyph-name="nine" unicode="9" horiz-adv-x="570" 
d="M411 303l-2 1q-61 -79 -152 -79q-98 0 -153 61.5t-55 173.5q0 106 63.5 168t164.5 62q66 0 114.5 -25.5t76 -70t40.5 -98t13 -116.5q0 -390 -290 -390q-83 0 -161 27l13 84q81 -20 139 -20q86 0 137.5 66.5t51.5 155.5zM402 388q14 211 -119 211q-50 0 -84 -36.5
t-34 -102.5q0 -26 5.5 -48t18 -44t37.5 -34.5t60 -12.5q65 0 116 67z" />
    <glyph glyph-name="colon" unicode=":" horiz-adv-x="207" 
d="M49 137h110v-137h-110v137zM49 460h110v-138h-110v138z" />
    <glyph glyph-name="semicolon" unicode=";" horiz-adv-x="207" 
d="M105 -130h-35l22 130h-43v137h110v-137zM49 460h110v-138h-110v138z" />
    <glyph glyph-name="less" unicode="&#x3c;" horiz-adv-x="380" 
d="M49 283l282 162v-98l-166 -97l166 -97v-98l-282 162v66z" />
    <glyph glyph-name="equal" unicode="=" horiz-adv-x="500" 
d="M49 411h402v-92h-402v92zM49 211h402v-92h-402v92z" />
    <glyph glyph-name="greater" unicode="&#x3e;" horiz-adv-x="380" 
d="M331 217l-282 -168v98l166 103l-166 103v98l282 -168v-66z" />
    <glyph glyph-name="question" unicode="?" horiz-adv-x="480" 
d="M241 690q58 0 99 -16.5t62 -44.5t30 -57t9 -61q0 -40 -13.5 -72.5t-33 -52.5t-43 -38.5t-43 -32t-33 -33t-13.5 -42.5v-30h-97v30q0 42 17 74.5t40.5 52t47.5 37.5t41 42t17 54q0 86 -111 86q-63 0 -147 -29l-31 94q97 39 202 39zM159 137h110v-137h-110v137z" />
    <glyph glyph-name="at" unicode="@" horiz-adv-x="830" 
d="M572 332v-202q44 0 76.5 19t49.5 49.5t25 61.5t8 63q0 119 -85.5 192.5t-210.5 73.5q-148 0 -241.5 -93.5t-93.5 -242.5q0 -135 87 -223.5t219 -88.5l-7 -61q-161 0 -265 106t-104 267q0 174 114.5 286.5t289.5 112.5q154 0 260 -91.5t106 -234.5q0 -112 -64 -186
t-180 -74h-71v39h-1q-46 -46 -118 -46q-57 0 -90 32.5t-33 83.5q0 64 46 92.5t118 28.5h78v31q0 34 -17.5 51t-59.5 17q-51 0 -129 -23l-16 59q90 30 166 30q71 0 107 -29t36 -100zM485 153v92h-74q-81 0 -81 -63q0 -27 18.5 -42t50.5 -15q51 0 86 28z" />
    <glyph glyph-name="A" unicode="A" horiz-adv-x="650" 
d="M492 0l-51 163h-237l-52 -163h-123l226 685h143l223 -685h-129zM325 540h-2l-95 -279h189z" />
    <glyph glyph-name="B" unicode="B" horiz-adv-x="610" 
d="M444 352v-2q60 -16 93.5 -59t33.5 -107q0 -87 -54 -135.5t-157 -48.5h-301v680h281q103 0 157 -45.5t54 -127.5q0 -56 -28.5 -97.5t-78.5 -57.5zM334 296h-159v-192h166q108 0 108 96t-115 96zM429 488q0 88 -102 88h-152v-176h152q102 0 102 88z" />
    <glyph glyph-name="C" unicode="C" horiz-adv-x="620" 
d="M49 345q0 61 8 110t28.5 94t53 75t85 48t121.5 18q117 0 240 -36l-26 -98q-126 30 -205 30q-100 0 -141.5 -63t-41.5 -178q0 -122 41 -186.5t142 -64.5q79 0 205 30l26 -98q-123 -36 -240 -36q-69 0 -121.5 18.5t-85 50t-53 78t-28.5 96.5t-8 112z" />
    <glyph glyph-name="D" unicode="D" horiz-adv-x="650" 
d="M307 0h-248v680h248q160 0 227 -89t67 -246q0 -345 -294 -345zM175 104h132q98 0 135 62t37 179q0 115 -36.5 173t-135.5 58h-132v-472z" />
    <glyph glyph-name="E" unicode="E" horiz-adv-x="560" 
d="M506 680v-104h-331v-172h286v-104h-286v-196h336v-104h-452v680h447z" />
    <glyph glyph-name="F" unicode="F" horiz-adv-x="535" 
d="M496 680v-104h-321v-192h276v-104h-276v-280h-116v680h437z" />
    <glyph glyph-name="G" unicode="G" horiz-adv-x="640" 
d="M345 -10q-69 0 -121.5 18.5t-85 50t-53 78t-28.5 96.5t-8 112q0 61 8 110t28.5 94t53 75t85 48t121.5 18q113 0 236 -36l-26 -98q-126 30 -201 30q-100 0 -141.5 -63t-41.5 -178q0 -122 41 -186.5t142 -64.5q57 0 111 26v134h-118v103h234v-317q-131 -50 -236 -50z" />
    <glyph glyph-name="H" unicode="H" horiz-adv-x="640" 
d="M175 0h-116v680h116v-276h290v276h116v-680h-116v300h-290v-300z" />
    <glyph glyph-name="I" unicode="I" horiz-adv-x="234" 
d="M175 0h-116v680h116v-680z" />
    <glyph glyph-name="J" unicode="J" horiz-adv-x="344" 
d="M285 680v-504q0 -186 -170 -186q-56 0 -99 8l10 98q26 -5 58 -5q42 0 63.5 21t21.5 70v498h116z" />
    <glyph glyph-name="K" unicode="K" horiz-adv-x="632" 
d="M175 680v-331l284 331h138l-240 -284l244 -396h-145l-184 303l-97 -113v-190h-116v680h116z" />
    <glyph glyph-name="L" unicode="L" horiz-adv-x="540" 
d="M59 680h116v-576h326v-104h-442v680z" />
    <glyph glyph-name="M" unicode="M" horiz-adv-x="800" 
d="M212 680l191 -487h2l182 487h154v-680h-116v469h-2l-184 -469h-85l-180 469h-2v-469h-113v680h153z" />
    <glyph glyph-name="N" unicode="N" horiz-adv-x="650" 
d="M172 0h-113v680h116l301 -466h2v466h113v-680h-116l-301 453h-2v-453z" />
    <glyph glyph-name="O" unicode="O" horiz-adv-x="690" 
d="M345 592q-54 0 -89.5 -18t-53.5 -54t-24.5 -76.5t-6.5 -98.5q0 -46 4 -81t15 -70t29.5 -57t50.5 -36t75 -14t75 14t50.5 36t29.5 57t15 70t4 81q0 58 -6.5 98.5t-24.5 76.5t-53.5 54t-89.5 18zM345 -10q-85 0 -145 27.5t-92 78.5t-45.5 111t-13.5 138q0 61 8 110t28.5 94
t53 75t85 48t121.5 18t121.5 -18t85 -48t53 -75t28.5 -94t8 -110q0 -78 -13.5 -138t-45.5 -111t-92 -78.5t-145 -27.5z" />
    <glyph glyph-name="P" unicode="P" 
d="M344 255h-169v-255h-116v680h285q102 0 159.5 -58t57.5 -155q0 -98 -57 -155t-160 -57zM175 576v-217h156q52 0 81.5 26.5t29.5 81.5q0 54 -30 81.5t-81 27.5h-156z" />
    <glyph glyph-name="Q" unicode="Q" horiz-adv-x="690" 
d="M49 345q0 61 8 110t28.5 94t53 75t85 48t121.5 18t121.5 -18t85 -48t53 -75t28.5 -94t8 -110q0 -141 -54 -224t-165 -90q14 -29 103 -33q53 -2 100 4v-105q-59 -6 -107 -2q-144 10 -198 95q-271 14 -271 355zM345 592q-54 0 -89.5 -18t-53.5 -54t-24.5 -76.5t-6.5 -98.5
q0 -46 4 -81t15 -70t29.5 -57t50.5 -36t75 -14t75 14t50.5 36t29.5 57t15 70t4 81q0 58 -6.5 98.5t-24.5 76.5t-53.5 54t-89.5 18z" />
    <glyph glyph-name="R" unicode="R" horiz-adv-x="615" 
d="M584 0h-135l-152 254h-122v-254h-116v680h285q102 0 159.5 -58.5t57.5 -154.5q0 -73 -36.5 -125.5t-106.5 -69.5zM175 576v-219h152q53 0 84 27.5t31 82.5q0 53 -30 81t-81 28h-156z" />
    <glyph glyph-name="S" unicode="S" 
d="M300 -10q-129 0 -251 36l20 98q126 -30 231 -30q61 0 95 26.5t34 65.5q0 12 -2.5 22t-9.5 19t-13 15.5t-18.5 12.5l-20.5 10t-24.5 9.5t-24 7.5l-26.5 7t-25 7q-206 56 -206 209q0 94 66.5 139.5t174.5 45.5q112 0 235 -36l-26 -98q-126 30 -209 30q-61 0 -90 -23
t-29 -61q0 -24 13.5 -42t40.5 -30.5t50.5 -20t60.5 -15.5q205 -47 205 -199q0 -101 -69.5 -153t-181.5 -52z" />
    <glyph glyph-name="T" unicode="T" horiz-adv-x="560" 
d="M521 576h-183v-576h-116v576h-183v104h482v-104z" />
    <glyph glyph-name="U" unicode="U" horiz-adv-x="640" 
d="M322 87q44 0 73.5 13t44 36.5t20 48t5.5 55.5v440h116v-440q0 -250 -261 -250t-261 250v440h116v-440q0 -32 5.5 -56t20 -47.5t45 -36.5t76.5 -13z" />
    <glyph glyph-name="V" unicode="V" horiz-adv-x="650" 
d="M329 140h1l168 540h123l-223 -685h-143l-226 685h129z" />
    <glyph glyph-name="W" unicode="W" horiz-adv-x="940" 
d="M471 493h-2l-119 -498h-149l-172 685h129l123 -537h1l123 537h136l126 -537h1l120 537h123l-172 -685h-149z" />
    <glyph glyph-name="X" unicode="X" horiz-adv-x="650" 
d="M480 0l-163 258h-2l-155 -258h-129l213 354l-199 326h136l142 -230h2l138 230h136l-200 -326l220 -354h-139z" />
    <glyph glyph-name="Y" unicode="Y" horiz-adv-x="620" 
d="M312 358h2l151 322h126l-223 -440v-240h-116v240l-223 440h132z" />
    <glyph glyph-name="Z" unicode="Z" horiz-adv-x="560" 
d="M197 106v-2h328v-104h-490v85l322 489v2h-302v104h460v-85z" />
    <glyph glyph-name="bracketleft" unicode="[" horiz-adv-x="300" 
d="M165 -74h106v-66h-222v960h222v-66h-106v-828z" />
    <glyph glyph-name="backslash" unicode="\" horiz-adv-x="540" 
d="M406 0l-370 680h98l370 -680h-98z" />
    <glyph glyph-name="bracketright" unicode="]" horiz-adv-x="300" 
d="M29 -74h106v828h-106v66h222v-960h-222v66z" />
    <glyph glyph-name="asciicircum" unicode="^" horiz-adv-x="380" 
d="M190 639l-81 -129h-60l106 190h69l107 -190h-60z" />
    <glyph glyph-name="underscore" unicode="_" horiz-adv-x="500" 
d="M49 -60h402v-66h-402v66z" />
    <glyph glyph-name="grave" unicode="`" horiz-adv-x="264" 
d="M134 560l-89 140h116l58 -140h-85z" />
    <glyph glyph-name="a" unicode="a" horiz-adv-x="505" 
d="M240 419q-66 0 -158 -19l-16 88q108 22 199 22q99 0 145 -35.5t46 -130.5v-344h-110v50h-2q-63 -60 -153 -60q-73 0 -115 42t-42 109q0 81 59.5 117.5t150.5 36.5h102v42q0 44 -25 63t-81 19zM346 112v117h-96q-106 0 -106 -79q0 -35 25 -55t66 -20q65 0 111 37z" />
    <glyph glyph-name="b" unicode="b" horiz-adv-x="530" 
d="M159 700v-250h2q25 27 65 43.5t81 16.5q184 0 184 -260q0 -117 -45.5 -188.5t-144.5 -71.5q-87 0 -147 57h-2l-19 -50h-84v703h110zM375 250q0 169 -111 169q-57 0 -105 -37v-264q48 -37 105 -37q111 0 111 169z" />
    <glyph glyph-name="c" unicode="c" horiz-adv-x="480" 
d="M39 250q0 125 58.5 192.5t192.5 67.5q80 0 172 -23l-19 -88q-82 20 -153 20q-67 0 -101 -44.5t-34 -124.5t34 -124.5t101 -44.5q71 0 153 20l19 -88q-92 -23 -172 -23q-134 0 -192.5 67.5t-58.5 192.5z" />
    <glyph glyph-name="d" unicode="d" horiz-adv-x="530" 
d="M371 0v50h-2q-25 -27 -65 -43.5t-82 -16.5q-183 0 -183 260q0 117 45.5 188.5t144.5 71.5q86 0 140 -57h2v247h110v-700h-110zM155 250q0 -169 111 -169q57 0 105 37v264q-48 37 -105 37q-111 0 -111 -169z" />
    <glyph glyph-name="e" unicode="e" horiz-adv-x="530" 
d="M490 229h-332q5 -148 151 -148q88 0 156 20l14 -88q-83 -23 -185 -23q-255 0 -255 260t251 260q110 0 160 -54t48 -152q-2 -32 -8 -75zM284 425q-116 0 -126 -127h224q5 21 3 39q-3 88 -101 88z" />
    <glyph glyph-name="f" unicode="f" horiz-adv-x="345" 
d="M199 549v-49h112v-79h-112v-421h-110v421h-72v72l72 7v57q0 75 33 109t118 34q39 0 84 -8l-10 -85q-33 5 -49 5q-38 0 -52 -13.5t-14 -49.5z" />
    <glyph glyph-name="g" unicode="g" horiz-adv-x="555" 
d="M116 -61q0 -77 138 -77q68 0 114 22t46 64q0 48 -72 53l-180 10q-17 -14 -24.5 -21t-14.5 -20.5t-7 -30.5zM265 246q47 0 74 24.5t27 69.5q0 46 -27.5 71.5t-73.5 25.5q-50 0 -76.5 -25t-26.5 -72q0 -46 27.5 -70t75.5 -24zM107 26v2q-40 24 -38 69q2 63 71 101v2
q-38 19 -60 56t-22 84q0 82 55.5 126t151.5 44q38 0 70 -10h181v-66h-89q40 -32 40 -94q0 -82 -55.5 -124t-146.5 -42q-38 0 -68 10q-9 -9 -17 -25q-11 -20 -5 -39t31 -20l174 -11q150 -12 150 -120q0 -92 -72 -135.5t-223 -43.5q-210 0 -210 130q0 64 82 106z" />
    <glyph glyph-name="h" unicode="h" horiz-adv-x="530" 
d="M159 371v-371h-110v700h110v-268h2q75 78 170 78q74 0 112 -43.5t38 -122.5v-344h-110v319q0 100 -90 100q-54 0 -122 -48z" />
    <glyph glyph-name="i" unicode="i" horiz-adv-x="207" 
d="M49 500h110v-500h-110v500zM49 680h110v-131h-110v131z" />
    <glyph glyph-name="j" unicode="j" horiz-adv-x="247" 
d="M199 500v-567q0 -75 -33.5 -109t-118.5 -34q-40 0 -83 8l10 85q33 -5 48 -5q38 0 52.5 13.5t14.5 50.5v558h110zM89 680h110v-131h-110v131z" />
    <glyph glyph-name="k" unicode="k" horiz-adv-x="545" 
d="M159 700v-389l213 189h134l-186 -176l196 -324h-130l-143 261l-84 -73v-188h-110v700h110z" />
    <glyph glyph-name="l" unicode="l" horiz-adv-x="207" 
d="M49 0v700h110v-700h-110z" />
    <glyph glyph-name="m" unicode="m" horiz-adv-x="830" 
d="M159 371v-371h-110v500h110v-68h2q71 78 159 78q104 0 135 -85q79 85 176 85q74 0 112 -43.5t38 -122.5v-344h-110v319q0 100 -90 100q-46 0 -113 -50q2 -32 2 -55v-314h-110v323q-3 96 -90 96q-46 0 -111 -48z" />
    <glyph glyph-name="n" unicode="n" horiz-adv-x="530" 
d="M159 371v-371h-110v500h110v-68h2q75 78 170 78q74 0 112 -43.5t38 -122.5v-344h-110v319q0 100 -90 100q-54 0 -122 -48z" />
    <glyph glyph-name="o" unicode="o" horiz-adv-x="550" 
d="M275 419q-66 0 -93 -44t-27 -125t27 -125t93 -44t93 44t27 125t-27 125t-93 44zM275 -10q-236 0 -236 260t236 260t236 -260t-236 -260z" />
    <glyph glyph-name="p" unicode="p" horiz-adv-x="530" 
d="M159 500v-50h2q25 27 65 43.5t81 16.5q184 0 184 -260q0 -117 -45.5 -188.5t-144.5 -71.5q-86 0 -140 57h-2v-247h-110v700h110zM375 250q0 169 -111 169q-57 0 -105 -37v-264q48 -37 105 -37q111 0 111 169z" />
    <glyph glyph-name="q" unicode="q" horiz-adv-x="530" 
d="M371 -200v250h-2q-25 -27 -65 -43.5t-82 -16.5q-183 0 -183 260q0 117 45.5 188.5t144.5 71.5q87 0 146 -57h2l20 50h84v-703h-110zM155 250q0 -169 111 -169q57 0 105 37v264q-48 37 -105 37q-111 0 -111 -169z" />
    <glyph glyph-name="r" unicode="r" horiz-adv-x="370" 
d="M159 358v-358h-110v500h110v-80h2q30 38 77 64t103 26v-104q-99 0 -182 -48z" />
    <glyph glyph-name="s" unicode="s" horiz-adv-x="480" 
d="M446 147q0 -77 -50 -117t-141 -40q-129 0 -221 23l20 88q93 -23 188 -23q52 0 73 20t21 41q0 23 -22.5 37.5t-76.5 24.5q-94 17 -143.5 52.5t-49.5 111.5q0 145 191 145q113 0 205 -23l-20 -88q-93 23 -179 23q-49 0 -68 -17.5t-19 -36.5q0 -23 19.5 -37.5t74.5 -26.5
q36 -8 59.5 -14t52.5 -18.5t45.5 -28t28.5 -40t12 -56.5z" />
    <glyph glyph-name="t" unicode="t" horiz-adv-x="375" 
d="M89 144v277h-72v72l72 7l13 140h97v-140h132v-79h-132v-258q0 -43 18 -64t60 -21q16 0 49 5l10 -85q-43 -8 -96 -8q-81 0 -116 36t-35 118z" />
    <glyph glyph-name="u" unicode="u" horiz-adv-x="530" 
d="M371 129v371h110v-500h-110v67h-2q-75 -77 -170 -77q-74 0 -112 43.5t-38 122.5v344h110v-319q0 -100 90 -100q54 0 122 48z" />
    <glyph glyph-name="v" unicode="v" horiz-adv-x="560" 
d="M346 -5h-134l-180 505h124l125 -383h2l127 383h117z" />
    <glyph glyph-name="w" unicode="w" horiz-adv-x="790" 
d="M395 331h-2l-89 -336h-122l-150 505h123l99 -383h2l88 383h107l94 -383h2l94 383h116l-147 -505h-123z" />
    <glyph glyph-name="x" unicode="x" horiz-adv-x="545" 
d="M386 0l-121 179h-2l-117 -179h-117l178 260l-163 240h126l108 -160h2l105 160h114l-164 -237l181 -263h-130z" />
    <glyph glyph-name="y" unicode="y" horiz-adv-x="560" 
d="M222 -8l-190 508h124l129 -387h2l123 387h117l-182 -524q-35 -102 -84 -144t-129 -42q-44 0 -82 8l10 91q27 -5 47 -5q77 0 115 108z" />
    <glyph glyph-name="z" unicode="z" horiz-adv-x="470" 
d="M436 500v-79l-270 -334v-2h281v-85h-424v79l273 334v2h-258v85h398z" />
    <glyph glyph-name="braceleft" unicode="{" horiz-adv-x="340" 
d="M225 12q0 -37 6.5 -60t20.5 -32t25.5 -11t33.5 -2v-47q-39 0 -65 2t-54.5 10.5t-44.5 24t-27 43t-11 66.5q0 31 5 95.5t5 93.5q0 31 -1 45t-7.5 32t-21.5 26.5t-40 12.5v58q25 4 40 12.5t21.5 26.5t7.5 32t1 45q0 29 -5 93.5t-5 95.5q0 48 14.5 78.5t45 44.5t62 18.5
t80.5 4.5v-48q-22 0 -33 -2t-26 -11t-21 -31.5t-6 -60.5q0 -30 6 -103.5t6 -104.5q0 -55 -24 -80.5t-71 -37.5v-2q47 -12 71 -37.5t24 -80.5q0 -31 -6 -105t-6 -104z" />
    <glyph glyph-name="bar" unicode="|" horiz-adv-x="190" 
d="M131 -100h-72v880h72v-880z" />
    <glyph glyph-name="braceright" unicode="}" horiz-adv-x="340" 
d="M115 667q0 38 -6 60.5t-21 31.5t-26 11t-33 2v48q38 0 64.5 -2.5t54.5 -11t44.5 -23.5t27.5 -42.5t11 -66.5q0 -31 -5 -95.5t-5 -93.5q0 -31 1 -45t7.5 -32t21.5 -26.5t40 -12.5v-58q-25 -4 -40 -12.5t-21.5 -26.5t-7.5 -32t-1 -45q0 -29 5 -93.5t5 -95.5
q0 -39 -11 -66.5t-27.5 -43t-44.5 -24t-54 -10.5t-65 -2v47q22 0 33.5 2t25.5 11t20.5 32t6.5 60q0 30 -6.5 104t-6.5 105q0 55 24.5 80.5t71.5 37.5v2q-47 12 -71.5 37.5t-24.5 80.5q0 31 6.5 104.5t6.5 103.5z" />
    <glyph glyph-name="asciitilde" unicode="~" horiz-adv-x="458" 
d="M148 311q-32 0 -76 -45l-35 28q51 93 108 93q26 0 96.5 -24t85.5 -24q12 0 19 1t20 10t26 26l29 -33q-39 -77 -94 -77q-19 0 -89.5 22.5t-89.5 22.5z" />
    <glyph glyph-name="exclamdown" unicode="&#xa1;" horiz-adv-x="207" 
d="M159 362h-110v138h110v-138zM159 -180h-110l6 464h97z" />
    <glyph glyph-name="cent" unicode="&#xa2;" horiz-adv-x="514" 
d="M329 -100h-47v91q-110 4 -173.5 74t-63.5 185q0 114 63.5 184.5t173.5 74.5v91h47v-92q63 -4 140 -36l-14 -85q-75 28 -126 30v-335q52 2 126 31l14 -85q-73 -32 -140 -36v-92zM161 250q0 -71 32 -115.5t89 -50.5v332q-57 -6 -89 -51t-32 -115z" />
    <glyph glyph-name="sterling" unicode="&#xa3;" horiz-adv-x="616" 
d="M427 302h-222v-205h342v-97h-502v97h50v205h-50v85h50v118q0 95 64 140t171 45q146 0 241 -63l-45 -90q-95 49 -190 49q-66 0 -98.5 -26t-32.5 -69v-104h222v-85z" />
    <glyph glyph-name="currency" unicode="&#xa4;" horiz-adv-x="513" 
d="M100 249q0 68 48 114l-78 90l8 8l79 -90q44 36 100 36q55 0 99 -36l78 90l9 -8l-78 -89q50 -47 50 -115t-49 -114l76 -86l-9 -9l-77 87q-43 -35 -99 -35q-57 0 -100 35l-76 -87l-9 9l76 86q-48 46 -48 114zM112 249q0 -59 43 -102t102 -43t102.5 43t43.5 102t-43.5 102.5
t-102.5 43.5t-102 -43.5t-43 -102.5z" />
    <glyph glyph-name="yen" unicode="&#xa5;" horiz-adv-x="652" 
d="M402 276h145v-66h-163v-210h-116v210h-163v66h146l-206 404h133l150 -322h2l151 322h126z" />
    <glyph glyph-name="brokenbar" unicode="&#xa6;" horiz-adv-x="170" 
d="M121 -100h-72v400h72v-400zM121 380h-72v400h72v-400z" />
    <glyph glyph-name="section" unicode="&#xa7;" horiz-adv-x="593" 
d="M547 336h-122q0 12 -2.5 22t-9.5 19t-13 15.5t-18.5 12.5l-20.5 10t-24.5 9.5t-24 7.5l-26.5 7t-25 7q-206 56 -206 209q0 94 67 139.5t174 45.5q112 0 235 -36l-26 -98q-126 30 -209 30q-61 0 -90 -23t-29 -61q0 -24 13.5 -42t40.5 -30.5t50.5 -20t60.5 -15.5
q211 -48 205 -208zM55 355h122q0 -24 13.5 -42.5t40 -31.5t51.5 -21t60 -16q205 -46 205 -199q0 -101 -69 -153t-182 -52q-128 0 -251 36l20 98q126 -30 231 -30q61 0 95 26.5t34 65.5q0 12 -2.5 22t-9.5 19t-13 15.5t-18.5 12.5l-20.5 10t-24.5 9.5t-24 7.5l-26.5 7t-25 7
q-206 56 -206 209z" />
    <glyph glyph-name="dieresis" unicode="&#xa8;" horiz-adv-x="451" 
d="M81 692h91v-125h-91v125zM279 692h91v-125h-91v125z" />
    <glyph glyph-name="copyright" unicode="&#xa9;" horiz-adv-x="765" 
d="M30 340q0 146 103 248t249 102q147 0 250 -102t103 -248t-103 -248t-250 -102q-146 0 -249 102t-103 248zM81 340q0 -125 88 -214t213 -89t213.5 89t88.5 214q0 124 -88.5 211.5t-213.5 87.5t-213 -87.5t-88 -211.5zM390 457q-103 0 -103 -113q0 -123 103 -123
q55 0 100 30l24 -50q-54 -39 -128 -39q-81 0 -125.5 47.5t-44.5 134.5q0 83 44.5 127.5t125.5 44.5q74 0 128 -39l-24 -51q-46 31 -100 31z" />
    <glyph glyph-name="ordfeminine" unicode="&#xaa;" horiz-adv-x="294" 
d="M144 639q-37 0 -78 -9l-9 44q55 11 100 11q49 0 72 -18t23 -65v-172h-55v25q-33 -30 -77 -30q-37 0 -58 21t-21 54q0 77 105 77h51v22q0 22 -12 31t-41 9zM197 486v58h-48q-53 0 -53 -39q0 -18 12.5 -28t33.5 -10q31 0 55 19z" />
    <glyph glyph-name="guillemotleft" unicode="&#xab;" horiz-adv-x="681" 
d="M49 283l282 168v-98l-166 -103l166 -103v-98l-282 168v66zM350 283l282 168v-98l-166 -103l166 -103v-98l-282 168v66z" />
    <glyph glyph-name="logicalnot" unicode="&#xac;" horiz-adv-x="590" 
d="M69 311h452v-197h-91v105h-361v92z" />
    <glyph glyph-name="uni00AD" unicode="&#xad;" horiz-adv-x="500" 
d="M49 311h402v-92h-402v92z" />
    <glyph glyph-name="registered" unicode="&#xae;" horiz-adv-x="765" 
d="M540 168h-83l-79 109h-59v-109h-67v344h141q63 0 98.5 -30.5t35.5 -85.5q0 -43 -21 -71.5t-57 -36.5zM319 453v-117h72q68 0 68 60q0 57 -66 57h-74zM30 340q0 146 103 248t249 102q147 0 250 -102t103 -248t-103 -248t-250 -102q-146 0 -249 102t-103 248zM81 340
q0 -125 88 -214t213 -89t213.5 89t88.5 214q0 124 -88.5 211.5t-213.5 87.5t-213 -87.5t-88 -211.5z" />
    <glyph glyph-name="macron" unicode="&#xaf;" horiz-adv-x="432" 
d="M57 661h318v-72h-318v72z" />
    <glyph glyph-name="degree" unicode="&#xb0;" horiz-adv-x="261" 
d="M37 587q0 38 27.5 65.5t65.5 27.5q39 0 66 -27.5t27 -65.5t-27 -65.5t-66 -27.5q-38 0 -65.5 27.5t-27.5 65.5zM79 587q0 -22 14.5 -36.5t36.5 -14.5t37 14.5t15 36.5t-15 36.5t-37 14.5t-36.5 -14.5t-14.5 -36.5z" />
    <glyph glyph-name="plusminus" unicode="&#xb1;" horiz-adv-x="500" 
d="M49 121h155v108h-155v91h155v149h92v-149h155v-91h-155v-108h155v-91h-402v91z" />
    <glyph glyph-name="twosuperior" unicode="&#xb2;" horiz-adv-x="310" 
d="M140 823q-36 0 -82 -23l-17 44q59 31 115 31q52 0 80 -29t28 -73q0 -50 -35.5 -95.5t-107.5 -96.5v-1h148v-50h-228v54q163 106 163 177q0 62 -64 62z" />
    <glyph glyph-name="threesuperior" unicode="&#xb3;" horiz-adv-x="320" 
d="M207 702q34 -9 53 -32t19 -53q0 -47 -32 -72t-91 -25q-66 0 -115 30l17 44q54 -27 97 -27q35 0 50 15.5t15 34.5q0 55 -72 55h-44v46h41q35 0 51 16.5t16 39.5q0 20 -13 34.5t-41 14.5q-36 0 -92 -27l-17 43q53 31 114 31q47 0 76.5 -23.5t29.5 -65.5q0 -57 -62 -79z" />
    <glyph glyph-name="acute" unicode="&#xb4;" horiz-adv-x="264" 
d="M219 700l-89 -140h-85l57 140h117z" />
    <glyph glyph-name="mu" unicode="&#xb5;" horiz-adv-x="530" 
d="M159 500v-323q2 -96 90 -96q54 0 122 48v371h110v-500h-110v67h-2q-60 -58 -126 -69q-60 -5 -84 25v-61q0 -91 -38.5 -131.5t-119.5 -40.5q-34 0 -77 8l10 85q33 -5 48 -5q38 0 52.5 21t14.5 64v537h110z" />
    <glyph glyph-name="paragraph" unicode="&#xb6;" horiz-adv-x="561" 
d="M524 639h-82v-639h-48v639h-64v-344h-92q-90 0 -145.5 53.5t-55.5 139.5q0 89 55 140.5t146 51.5h286v-41z" />
    <glyph glyph-name="periodcentered" unicode="&#xb7;" horiz-adv-x="247" 
d="M69 319h110v-138h-110v138z" />
    <glyph glyph-name="cedilla" unicode="&#xb8;" horiz-adv-x="292" 
d="M110 -76v76h42v-54q33 -3 58 -19.5t25 -52.5t-26.5 -57.5t-73.5 -21.5q-37 0 -78 12l7 36q28 -7 50 -7q26 0 39.5 13t13.5 30t-14 29.5t-43 15.5z" />
    <glyph glyph-name="onesuperior" unicode="&#xb9;" horiz-adv-x="300" 
d="M35 577h97v232l-41.5 -20l-34.5 -17l-15 44q72 29 107 57h41v-296h97v-47h-251v47z" />
    <glyph glyph-name="ordmasculine" unicode="&#xba;" horiz-adv-x="319" 
d="M160 639q-61 0 -61 -84t61 -84q59 0 59 84t-59 84zM160 425q-119 0 -119 130t119 130q117 0 117 -130t-117 -130z" />
    <glyph glyph-name="guillemotright" unicode="&#xbb;" horiz-adv-x="681" 
d="M350 451l282 -168v-66l-282 -168v98l166 103l-166 103v98zM49 451l282 -168v-66l-282 -168v98l166 103l-166 103v98z" />
    <glyph glyph-name="onequarter" unicode="&#xbc;" horiz-adv-x="800" 
d="M646 680l-370 -680h-35l370 680h35zM35 377h97v232l-34.5 -17l-41.5 -20l-14 44q75 31 106 57h41v-296h97v-47h-251v47zM566 129h97v137q-38 -67 -97 -137zM649 340h71v-211h45v-47h-45v-82h-57v82h-155v47q93 102 141 211z" />
    <glyph glyph-name="onehalf" unicode="&#xbd;" horiz-adv-x="800" 
d="M626 680l-370 -680h-35l370 680h35zM35 377h97v232l-34.5 -17l-41.5 -20l-14 44q75 31 106 57h41v-296h97v-47h-251v47zM636 293q-35 0 -82 -23l-16 44q57 31 114 31q52 0 80 -29t28 -73q0 -51 -35.5 -96.5t-107.5 -95.5v-1h148v-50h-227v54q162 105 162 177q0 62 -64 62
z" />
    <glyph glyph-name="threequarters" unicode="&#xbe;" horiz-adv-x="800" 
d="M646 680l-370 -680h-35l370 680h35zM566 129h97v137q-38 -67 -97 -137zM649 340h71v-211h45v-47h-45v-82h-57v82h-155v47q93 102 141 211zM201 502q34 -9 52.5 -32t18.5 -53q0 -47 -32 -72t-90 -25q-66 0 -115 30l17 44q54 -27 97 -27q34 0 49.5 15.5t15.5 34.5
q0 55 -73 55h-43v46h40q35 0 51.5 16.5t16.5 39.5q0 19 -13.5 34t-40.5 15q-36 0 -92 -27l-17 43q53 31 114 31q47 0 76 -23.5t29 -65.5q0 -58 -61 -79z" />
    <glyph glyph-name="questiondown" unicode="&#xbf;" horiz-adv-x="480" 
d="M239 -190q-58 0 -99 16.5t-62 44.5t-30 57t-9 61q0 48 18.5 84.5t44.5 58t52 39.5t44.5 40t18.5 49v30h98v-30q0 -42 -17 -74.5t-40.5 -52t-47.5 -37.5t-41 -42t-17 -54q0 -86 110 -86q64 0 148 29l31 -94q-97 -39 -202 -39zM321 362h-110v138h110v-138z" />
    <glyph glyph-name="Agrave" unicode="&#xc0;" horiz-adv-x="650" 
d="M492 0l-51 163h-237l-52 -163h-123l226 685h143l223 -685h-129zM325 540h-2l-95 -279h189zM276 710l-89 140h116l58 -140h-85z" />
    <glyph glyph-name="Aacute" unicode="&#xc1;" horiz-adv-x="650" 
d="M492 0l-51 163h-237l-52 -163h-123l226 685h143l223 -685h-129zM325 540h-2l-95 -279h189zM463 850l-89 -140h-85l57 140h117z" />
    <glyph glyph-name="Acircumflex" unicode="&#xc2;" horiz-adv-x="650" 
d="M492 0l-51 163h-237l-52 -163h-123l226 685h143l223 -685h-129zM325 540h-2l-95 -279h189zM325 790l-57 -80h-85l102 140h79l102 -140h-85z" />
    <glyph glyph-name="Atilde" unicode="&#xc3;" horiz-adv-x="650" 
d="M492 0l-51 163h-237l-52 -163h-123l226 685h143l223 -685h-129zM325 540h-2l-95 -279h189zM269 765q-19 0 -33.5 -8.5t-42.5 -36.5l-35 40q47 87 108 87q26 0 71.5 -24t60.5 -24q32 0 65 43l29 -46q-39 -77 -94 -77q-19 0 -64.5 23t-64.5 23z" />
    <glyph glyph-name="Adieresis" unicode="&#xc4;" horiz-adv-x="650" 
d="M492 0l-51 163h-237l-52 -163h-123l226 685h143l223 -685h-129zM325 540h-2l-95 -279h189zM180 852h91v-125h-91v125zM378 852h91v-125h-91v125z" />
    <glyph glyph-name="Aring" unicode="&#xc5;" horiz-adv-x="650" 
d="M492 0l-51 163h-237l-52 -163h-123l226 685h143l223 -685h-129zM325 540h-2l-95 -279h189zM246 790q0 33 23 54.5t56 21.5q34 0 56 -21.5t22 -54.5t-22 -54.5t-56 -21.5q-33 0 -56 21.5t-23 54.5zM283 790q0 -19 12 -31.5t30 -12.5q19 0 31 12.5t12 31.5t-12 31.5
t-31 12.5q-18 0 -30 -12.5t-12 -31.5z" />
    <glyph glyph-name="AE" unicode="&#xc6;" horiz-adv-x="926" 
d="M425 216h-172l-108 -216h-116l337 680h506v-104h-331v-172h286v-104h-286v-196h336v-104h-452v216zM423 575l-131 -268h133v268h-2z" />
    <glyph glyph-name="Ccedilla" unicode="&#xc7;" horiz-adv-x="620" 
d="M49 345q0 61 8 110t28.5 94t53 75t85 48t121.5 18q117 0 240 -36l-26 -98q-126 30 -205 30q-100 0 -141.5 -63t-41.5 -178q0 -122 41 -186.5t142 -64.5q79 0 205 30l26 -98q-116 -34 -227 -36v-44q33 -3 58 -19.5t25 -52.5t-26.5 -57.5t-73.5 -21.5q-38 0 -77 12l6 36
q28 -7 51 -7q26 0 39 13t13 30t-14 29.5t-42 15.5v67q-77 4 -131 33t-83 79t-41.5 108.5t-12.5 133.5z" />
    <glyph glyph-name="Egrave" unicode="&#xc8;" horiz-adv-x="560" 
d="M506 680v-104h-331v-172h286v-104h-286v-196h336v-104h-452v680h447zM258 710l-89 140h116l58 -140h-85z" />
    <glyph glyph-name="Eacute" unicode="&#xc9;" horiz-adv-x="560" 
d="M506 680v-104h-331v-172h286v-104h-286v-196h336v-104h-452v680h447zM401 850l-89 -140h-85l57 140h117z" />
    <glyph glyph-name="Ecircumflex" unicode="&#xca;" horiz-adv-x="560" 
d="M506 680v-104h-331v-172h286v-104h-286v-196h336v-104h-452v680h447zM288 790l-57 -80h-85l102 140h79l102 -140h-85z" />
    <glyph glyph-name="Edieresis" unicode="&#xcb;" horiz-adv-x="560" 
d="M506 680v-104h-331v-172h286v-104h-286v-196h336v-104h-452v680h447zM142 852h91v-125h-91v125zM340 852h91v-125h-91v125z" />
    <glyph glyph-name="Igrave" unicode="&#xcc;" horiz-adv-x="234" 
d="M175 0h-116v680h116v-680zM78 710l-89 140h116l58 -140h-85z" />
    <glyph glyph-name="Iacute" unicode="&#xcd;" horiz-adv-x="234" 
d="M175 0h-116v680h116v-680zM248 850l-89 -140h-85l57 140h117z" />
    <glyph glyph-name="Icircumflex" unicode="&#xce;" horiz-adv-x="234" 
d="M174 0h-116v680h116v-680zM117 790l-57 -80h-85l102 140h79l102 -140h-85z" />
    <glyph glyph-name="Idieresis" unicode="&#xcf;" horiz-adv-x="234" 
d="M176 0h-116v680h116v-680zM-28 852h91v-125h-91v125zM170 852h91v-125h-91v125z" />
    <glyph glyph-name="Eth" unicode="&#xd0;" horiz-adv-x="662" 
d="M319 0h-248v312h-62v66h62v302h248q83 0 142 -25t91.5 -71.5t47 -105t14.5 -133.5q0 -345 -295 -345zM187 104h132q51 0 86 17.5t53 51.5t25.5 74.5t7.5 97.5q0 115 -36.5 173t-135.5 58h-132v-198h115v-66h-115v-208z" />
    <glyph glyph-name="Ntilde" unicode="&#xd1;" horiz-adv-x="650" 
d="M172 0h-113v680h116l301 -466h2v466h113v-680h-116l-301 453h-2v-453zM269 765q-19 0 -33.5 -8.5t-42.5 -36.5l-35 40q47 87 108 87q26 0 71.5 -24t60.5 -24q32 0 65 43l29 -46q-39 -77 -94 -77q-19 0 -64.5 23t-64.5 23z" />
    <glyph glyph-name="Ograve" unicode="&#xd2;" horiz-adv-x="690" 
d="M345 592q-54 0 -89.5 -18t-53.5 -54t-24.5 -76.5t-6.5 -98.5q0 -46 4 -81t15 -70t29.5 -57t50.5 -36t75 -14t75 14t50.5 36t29.5 57t15 70t4 81q0 58 -6.5 98.5t-24.5 76.5t-53.5 54t-89.5 18zM345 -10q-85 0 -145 27.5t-92 78.5t-45.5 111t-13.5 138q0 61 8 110t28.5 94
t53 75t85 48t121.5 18t121.5 -18t85 -48t53 -75t28.5 -94t8 -110q0 -78 -13.5 -138t-45.5 -111t-92 -78.5t-145 -27.5zM310 710l-89 140h116l58 -140h-85z" />
    <glyph glyph-name="Oacute" unicode="&#xd3;" horiz-adv-x="690" 
d="M345 592q-54 0 -89.5 -18t-53.5 -54t-24.5 -76.5t-6.5 -98.5q0 -46 4 -81t15 -70t29.5 -57t50.5 -36t75 -14t75 14t50.5 36t29.5 57t15 70t4 81q0 58 -6.5 98.5t-24.5 76.5t-53.5 54t-89.5 18zM345 -10q-85 0 -145 27.5t-92 78.5t-45.5 111t-13.5 138q0 61 8 110t28.5 94
t53 75t85 48t121.5 18t121.5 -18t85 -48t53 -75t28.5 -94t8 -110q0 -78 -13.5 -138t-45.5 -111t-92 -78.5t-145 -27.5zM474 850l-89 -140h-85l57 140h117z" />
    <glyph glyph-name="Ocircumflex" unicode="&#xd4;" horiz-adv-x="690" 
d="M345 592q-54 0 -89.5 -18t-53.5 -54t-24.5 -76.5t-6.5 -98.5q0 -46 4 -81t15 -70t29.5 -57t50.5 -36t75 -14t75 14t50.5 36t29.5 57t15 70t4 81q0 58 -6.5 98.5t-24.5 76.5t-53.5 54t-89.5 18zM345 -10q-85 0 -145 27.5t-92 78.5t-45.5 111t-13.5 138q0 61 8 110t28.5 94
t53 75t85 48t121.5 18t121.5 -18t85 -48t53 -75t28.5 -94t8 -110q0 -78 -13.5 -138t-45.5 -111t-92 -78.5t-145 -27.5zM345 790l-57 -80h-85l102 140h79l102 -140h-85z" />
    <glyph glyph-name="Otilde" unicode="&#xd5;" horiz-adv-x="690" 
d="M345 592q-54 0 -89.5 -18t-53.5 -54t-24.5 -76.5t-6.5 -98.5q0 -46 4 -81t15 -70t29.5 -57t50.5 -36t75 -14t75 14t50.5 36t29.5 57t15 70t4 81q0 58 -6.5 98.5t-24.5 76.5t-53.5 54t-89.5 18zM345 -10q-85 0 -145 27.5t-92 78.5t-45.5 111t-13.5 138q0 61 8 110t28.5 94
t53 75t85 48t121.5 18t121.5 -18t85 -48t53 -75t28.5 -94t8 -110q0 -78 -13.5 -138t-45.5 -111t-92 -78.5t-145 -27.5zM289 765q-19 0 -33.5 -8.5t-42.5 -36.5l-35 40q47 87 108 87q26 0 71.5 -24t60.5 -24q32 0 65 43l29 -46q-39 -77 -94 -77q-19 0 -64.5 23t-64.5 23z" />
    <glyph glyph-name="Odieresis" unicode="&#xd6;" horiz-adv-x="690" 
d="M345 592q-54 0 -89.5 -18t-53.5 -54t-24.5 -76.5t-6.5 -98.5q0 -46 4 -81t15 -70t29.5 -57t50.5 -36t75 -14t75 14t50.5 36t29.5 57t15 70t4 81q0 58 -6.5 98.5t-24.5 76.5t-53.5 54t-89.5 18zM345 -10q-85 0 -145 27.5t-92 78.5t-45.5 111t-13.5 138q0 61 8 110t28.5 94
t53 75t85 48t121.5 18t121.5 -18t85 -48t53 -75t28.5 -94t8 -110q0 -78 -13.5 -138t-45.5 -111t-92 -78.5t-145 -27.5zM200 852h91v-125h-91v125zM398 852h91v-125h-91v125z" />
    <glyph glyph-name="multiply" unicode="&#xd7;" horiz-adv-x="503" 
d="M454 403l-138 -138l138 -138l-65 -65l-138 138l-138 -138l-64 65l138 138l-138 138l64 65l138 -139l138 139z" />
    <glyph glyph-name="Oslash" unicode="&#xd8;" horiz-adv-x="690" 
d="M345 -10q-129 0 -201 67l-72 -90l-35 27l76 95q-64 85 -64 256q0 61 8 110t28.5 94t53 75t85 48t121.5 18q124 0 196 -61l76 97l35 -28l-79 -99q68 -84 68 -254q0 -78 -13.5 -138t-45.5 -111t-92 -78.5t-145 -27.5zM345 87q43 0 75 14t50.5 36t29.5 57t15 70t4 81
q0 102 -26 153l-279 -353q42 -58 131 -58zM345 592q-54 0 -89.5 -18t-53.5 -54t-24.5 -76.5t-6.5 -98.5q0 -101 23 -153l279 351q-41 49 -128 49z" />
    <glyph glyph-name="Ugrave" unicode="&#xd9;" horiz-adv-x="640" 
d="M322 87q44 0 73.5 13t44 36.5t20 48t5.5 55.5v440h116v-440q0 -250 -261 -250t-261 250v440h116v-440q0 -32 5.5 -56t20 -47.5t45 -36.5t76.5 -13zM280 710l-89 140h116l58 -140h-85z" />
    <glyph glyph-name="Uacute" unicode="&#xda;" horiz-adv-x="640" 
d="M322 87q44 0 73.5 13t44 36.5t20 48t5.5 55.5v440h116v-440q0 -250 -261 -250t-261 250v440h116v-440q0 -32 5.5 -56t20 -47.5t45 -36.5t76.5 -13zM450 850l-89 -140h-85l57 140h117z" />
    <glyph glyph-name="Ucircumflex" unicode="&#xdb;" horiz-adv-x="640" 
d="M322 87q44 0 73.5 13t44 36.5t20 48t5.5 55.5v440h116v-440q0 -250 -261 -250t-261 250v440h116v-440q0 -32 5.5 -56t20 -47.5t45 -36.5t76.5 -13zM320 790l-57 -80h-85l102 140h79l102 -140h-85z" />
    <glyph glyph-name="Udieresis" unicode="&#xdc;" horiz-adv-x="640" 
d="M322 87q44 0 73.5 13t44 36.5t20 48t5.5 55.5v440h116v-440q0 -250 -261 -250t-261 250v440h116v-440q0 -32 5.5 -56t20 -47.5t45 -36.5t76.5 -13zM175 852h91v-125h-91v125zM373 852h91v-125h-91v125z" />
    <glyph glyph-name="Yacute" unicode="&#xdd;" horiz-adv-x="620" 
d="M312 358h2l151 322h126l-223 -440v-240h-116v240l-223 440h132zM450 850l-89 -140h-85l57 140h117z" />
    <glyph glyph-name="Thorn" unicode="&#xde;" 
d="M337 132h-162v-132h-116v680h116v-123h162q103 0 163.5 -58t60.5 -154q0 -98 -60 -155.5t-164 -57.5zM175 454v-218h150q53 0 85 27t32 82q0 53 -32.5 81t-84.5 28h-150z" />
    <glyph glyph-name="germandbls" unicode="&#xdf;" horiz-adv-x="645" 
d="M320 700q98 0 154.5 -36.5t56.5 -113.5q0 -38 -19 -69.5t-41.5 -48t-41.5 -35t-19 -34.5q0 -17 12 -27t33 -18q85 -30 120.5 -71t35.5 -95q0 -57 -31 -95t-75.5 -52.5t-100.5 -14.5q-66 0 -129 20l14 85q61 -20 111 -20q53 0 74 24.5t21 51.5q0 18 -8 33.5t-24 27
t-28 18.5t-31 15.5t-23 10.5q-43 22 -59 41t-16 54q0 25 15.5 47.5t33.5 38t33.5 41t15.5 53.5q0 43 -27.5 62t-65.5 19q-112 0 -112 -138v-474h-110v421h-72v72l72 7q0 200 231 200z" />
    <glyph glyph-name="agrave" unicode="&#xe0;" horiz-adv-x="505" 
d="M240 419q-66 0 -158 -19l-16 88q108 22 199 22q99 0 145 -35.5t46 -130.5v-344h-110v50h-2q-63 -60 -153 -60q-73 0 -115 42t-42 109q0 81 59.5 117.5t150.5 36.5h102v42q0 44 -25 63t-81 19zM346 112v117h-96q-106 0 -106 -79q0 -35 25 -55t66 -20q65 0 111 37zM228 560
l-89 140h116l58 -140h-85z" />
    <glyph glyph-name="aacute" unicode="&#xe1;" horiz-adv-x="505" 
d="M240 419q-66 0 -158 -19l-16 88q108 22 199 22q99 0 145 -35.5t46 -130.5v-344h-110v50h-2q-63 -60 -153 -60q-73 0 -115 42t-42 109q0 81 59.5 117.5t150.5 36.5h102v42q0 44 -25 63t-81 19zM346 112v117h-96q-106 0 -106 -79q0 -35 25 -55t66 -20q65 0 111 37zM386 700
l-89 -140h-85l57 140h117z" />
    <glyph glyph-name="acircumflex" unicode="&#xe2;" horiz-adv-x="505" 
d="M240 419q-66 0 -158 -19l-16 88q108 22 199 22q99 0 145 -35.5t46 -130.5v-344h-110v50h-2q-63 -60 -153 -60q-73 0 -115 42t-42 109q0 81 59.5 117.5t150.5 36.5h102v42q0 44 -25 63t-81 19zM346 112v117h-96q-106 0 -106 -79q0 -35 25 -55t66 -20q65 0 111 37zM262 640
l-57 -80h-85l102 140h79l102 -140h-85z" />
    <glyph glyph-name="atilde" unicode="&#xe3;" horiz-adv-x="505" 
d="M240 419q-66 0 -158 -19l-16 88q108 22 199 22q99 0 145 -35.5t46 -130.5v-344h-110v50h-2q-63 -60 -153 -60q-73 0 -115 42t-42 109q0 81 59.5 117.5t150.5 36.5h102v42q0 44 -25 63t-81 19zM346 112v117h-96q-106 0 -106 -79q0 -35 25 -55t66 -20q65 0 111 37zM214 605
q-18 0 -33 -8.5t-43 -36.5l-35 40q47 87 108 87q26 0 71.5 -24t60.5 -24q32 0 65 43l29 -46q-39 -77 -94 -77q-19 0 -64.5 23t-64.5 23z" />
    <glyph glyph-name="adieresis" unicode="&#xe4;" horiz-adv-x="505" 
d="M240 419q-66 0 -158 -19l-16 88q108 22 199 22q99 0 145 -35.5t46 -130.5v-344h-110v50h-2q-63 -60 -153 -60q-73 0 -115 42t-42 109q0 81 59.5 117.5t150.5 36.5h102v42q0 44 -25 63t-81 19zM346 112v117h-96q-106 0 -106 -79q0 -35 25 -55t66 -20q65 0 111 37zM117 692
h91v-125h-91v125zM315 692h91v-125h-91v125z" />
    <glyph glyph-name="aring" unicode="&#xe5;" horiz-adv-x="505" 
d="M240 419q-66 0 -158 -19l-16 88q108 22 199 22q99 0 145 -35.5t46 -130.5v-344h-110v50h-2q-63 -60 -153 -60q-73 0 -115 42t-42 109q0 81 59.5 117.5t150.5 36.5h102v42q0 44 -25 63t-81 19zM346 112v117h-96q-106 0 -106 -79q0 -35 25 -55t66 -20q65 0 111 37zM181 620
q0 33 23 54.5t56 21.5q34 0 56 -21.5t22 -54.5t-22 -54.5t-56 -21.5q-33 0 -56 21.5t-23 54.5zM218 620q0 -19 12 -31.5t30 -12.5q19 0 31 12.5t12 31.5t-12 31.5t-31 12.5q-18 0 -30 -12.5t-12 -31.5z" />
    <glyph glyph-name="ae" unicode="&#xe6;" horiz-adv-x="837" 
d="M797 229h-331q5 -148 151 -148q87 0 156 20l13 -88q-82 -23 -185 -23q-154 0 -215 93q-83 -93 -195 -93q-71 0 -114 41t-43 110q0 47 20 79.5t54.5 47.5t66.5 21t69 6h102v42q0 44 -25 63t-81 19q-66 0 -158 -19l-16 88q110 22 199 22q60 0 95.5 -17.5t60.5 -63.5
q53 81 176 81q209 0 209 -198q0 -29 -9 -83zM235 75q72 0 123 47q-9 29 -12 107h-96q-106 0 -106 -79q0 -35 25 -55t66 -20zM591 425q-115 0 -125 -127h223q4 12 4 33q0 94 -102 94z" />
    <glyph glyph-name="ccedilla" unicode="&#xe7;" horiz-adv-x="480" 
d="M39 250q0 125 58.5 192.5t192.5 67.5q80 0 172 -23l-19 -88q-82 20 -153 20q-67 0 -101 -44.5t-34 -124.5t34 -124.5t101 -44.5q71 0 153 20l19 -88q-84 -22 -167 -23v-44q33 -3 58 -19.5t25 -52.5t-26.5 -57.5t-73.5 -21.5q-38 0 -77 12l7 36q28 -7 50 -7q26 0 39 13
t13 30t-14 29.5t-42 15.5v68q-215 15 -215 258z" />
    <glyph glyph-name="egrave" unicode="&#xe8;" horiz-adv-x="530" 
d="M490 229h-332q5 -148 151 -148q88 0 156 20l14 -88q-83 -23 -185 -23q-255 0 -255 260t251 260q110 0 160 -54t48 -152q-2 -32 -8 -75zM284 425q-116 0 -126 -127h224q5 21 3 39q-3 88 -101 88zM248 560l-89 140h116l58 -140h-85z" />
    <glyph glyph-name="eacute" unicode="&#xe9;" horiz-adv-x="530" 
d="M490 229h-332q5 -148 151 -148q88 0 156 20l14 -88q-83 -23 -185 -23q-255 0 -255 260t251 260q110 0 160 -54t48 -152q-2 -32 -8 -75zM284 425q-116 0 -126 -127h224q5 21 3 39q-3 88 -101 88zM425 700l-89 -140h-85l57 140h117z" />
    <glyph glyph-name="ecircumflex" unicode="&#xea;" horiz-adv-x="530" 
d="M490 229h-332q5 -148 151 -148q88 0 156 20l14 -88q-83 -23 -185 -23q-255 0 -255 260t251 260q110 0 160 -54t48 -152q-2 -32 -8 -75zM284 425q-116 0 -126 -127h224q5 21 3 39q-3 88 -101 88zM265 640l-57 -80h-85l102 140h79l102 -140h-85z" />
    <glyph glyph-name="edieresis" unicode="&#xeb;" horiz-adv-x="530" 
d="M490 229h-332q5 -148 151 -148q88 0 156 20l14 -88q-83 -23 -185 -23q-255 0 -255 260t251 260q110 0 160 -54t48 -152q-2 -32 -8 -75zM284 425q-116 0 -126 -127h224q5 21 3 39q-3 88 -101 88zM120 692h91v-125h-91v125zM318 692h91v-125h-91v125z" />
    <glyph glyph-name="igrave" unicode="&#xec;" horiz-adv-x="207" 
d="M65 560l-89 140h116l58 -140h-85zM49 500h110v-500h-110v500z" />
    <glyph glyph-name="iacute" unicode="&#xed;" horiz-adv-x="207" 
d="M238 700l-89 -140h-85l57 140h117zM49 500h110v-500h-110v500z" />
    <glyph glyph-name="icircumflex" unicode="&#xee;" horiz-adv-x="207" 
d="M49 500h110v-500h-110v500zM104 640l-57 -80h-85l102 140h79l102 -140h-85z" />
    <glyph glyph-name="idieresis" unicode="&#xef;" horiz-adv-x="207" 
d="M-41 692h91v-125h-91v125zM157 692h91v-125h-91v125zM49 500h110v-500h-110v500z" />
    <glyph glyph-name="eth" unicode="&#xf0;" horiz-adv-x="550" 
d="M373 648l75 74l38 -38l-69 -68q94 -96 94 -316q0 -63 -13 -116.5t-40.5 -98t-76 -70t-114.5 -25.5q-101 0 -164.5 62t-63.5 168q0 112 55 173.5t153 61.5q91 0 152 -79l2 1q-2 112 -54 169l-61 -62l-38 39l51 50q-42 26 -87 26q-66 0 -139 -27l-13 85q80 33 161 33
q90 0 152 -42zM392 292q-51 67 -116 67q-35 0 -60 -12.5t-37.5 -34.5t-18 -44t-5.5 -48q0 -66 34 -102.5t84 -36.5q133 0 119 211z" />
    <glyph glyph-name="ntilde" unicode="&#xf1;" horiz-adv-x="530" 
d="M159 371v-371h-110v500h110v-68h2q75 78 170 78q74 0 112 -43.5t38 -122.5v-344h-110v319q0 100 -90 100q-54 0 -122 -48zM209 605q-19 0 -33.5 -8.5t-42.5 -36.5l-35 40q47 87 108 87q26 0 71.5 -24t60.5 -24q32 0 65 43l29 -46q-39 -77 -94 -77q-19 0 -64.5 23
t-64.5 23z" />
    <glyph glyph-name="ograve" unicode="&#xf2;" horiz-adv-x="550" 
d="M275 419q-66 0 -93 -44t-27 -125t27 -125t93 -44t93 44t27 125t-27 125t-93 44zM275 -10q-236 0 -236 260t236 260t236 -260t-236 -260zM242 560l-89 140h116l58 -140h-85z" />
    <glyph glyph-name="oacute" unicode="&#xf3;" horiz-adv-x="550" 
d="M275 419q-66 0 -93 -44t-27 -125t27 -125t93 -44t93 44t27 125t-27 125t-93 44zM275 -10q-236 0 -236 260t236 260t236 -260t-236 -260zM402 700l-89 -140h-85l57 140h117z" />
    <glyph glyph-name="ocircumflex" unicode="&#xf4;" horiz-adv-x="550" 
d="M275 419q-66 0 -93 -44t-27 -125t27 -125t93 -44t93 44t27 125t-27 125t-93 44zM275 -10q-236 0 -236 260t236 260t236 -260t-236 -260zM275 640l-57 -80h-85l102 140h79l102 -140h-85z" />
    <glyph glyph-name="otilde" unicode="&#xf5;" horiz-adv-x="550" 
d="M275 419q-66 0 -93 -44t-27 -125t27 -125t93 -44t93 44t27 125t-27 125t-93 44zM275 -10q-236 0 -236 260t236 260t236 -260t-236 -260zM221 605q-19 0 -33.5 -8.5t-42.5 -36.5l-35 40q47 87 108 87q26 0 71.5 -24t60.5 -24q32 0 65 43l29 -46q-39 -77 -94 -77
q-19 0 -64.5 23t-64.5 23z" />
    <glyph glyph-name="odieresis" unicode="&#xf6;" horiz-adv-x="550" 
d="M275 419q-66 0 -93 -44t-27 -125t27 -125t93 -44t93 44t27 125t-27 125t-93 44zM275 -10q-236 0 -236 260t236 260t236 -260t-236 -260zM127 692h91v-125h-91v125zM325 692h91v-125h-91v125z" />
    <glyph glyph-name="divide" unicode="&#xf7;" horiz-adv-x="500" 
d="M201 165h98v-125h-98v125zM201 490h98v-125h-98v125zM49 311h402v-92h-402v92z" />
    <glyph glyph-name="oslash" unicode="&#xf8;" horiz-adv-x="550" 
d="M275 -10q-97 0 -153 47l-60 -70l-35 27l61 72q-49 63 -49 184q0 260 236 260q97 0 152 -47l61 71l34 -28l-61 -72q50 -64 50 -184q0 -260 -236 -260zM275 81q66 0 93 44t27 125q0 52 -16 88l-190 -223q31 -34 86 -34zM275 419q-66 0 -93 -44t-27 -125q0 -56 16 -88
l189 222q-32 35 -85 35z" />
    <glyph glyph-name="ugrave" unicode="&#xf9;" horiz-adv-x="530" 
d="M371 129v371h110v-500h-110v67h-2q-75 -77 -170 -77q-74 0 -112 43.5t-38 122.5v344h110v-319q0 -100 90 -100q54 0 122 48zM217 560l-89 140h116l58 -140h-85z" />
    <glyph glyph-name="uacute" unicode="&#xfa;" horiz-adv-x="530" 
d="M371 129v371h110v-500h-110v67h-2q-75 -77 -170 -77q-74 0 -112 43.5t-38 122.5v344h110v-319q0 -100 90 -100q54 0 122 48zM392 700l-89 -140h-85l57 140h117z" />
    <glyph glyph-name="ucircumflex" unicode="&#xfb;" horiz-adv-x="530" 
d="M371 129v371h110v-500h-110v67h-2q-75 -77 -170 -77q-74 0 -112 43.5t-38 122.5v344h110v-319q0 -100 90 -100q54 0 122 48zM265 640l-57 -80h-85l102 140h79l102 -140h-85z" />
    <glyph glyph-name="udieresis" unicode="&#xfc;" horiz-adv-x="530" 
d="M371 129v371h110v-500h-110v67h-2q-75 -77 -170 -77q-74 0 -112 43.5t-38 122.5v344h110v-319q0 -100 90 -100q54 0 122 48zM120 692h91v-125h-91v125zM318 692h91v-125h-91v125z" />
    <glyph glyph-name="yacute" unicode="&#xfd;" horiz-adv-x="560" 
d="M222 -8l-190 508h124l129 -387h2l123 387h117l-182 -524q-35 -102 -84 -144t-129 -42q-44 0 -82 8l10 91q27 -5 47 -5q77 0 115 108zM418 700l-89 -140h-85l57 140h117z" />
    <glyph glyph-name="thorn" unicode="&#xfe;" horiz-adv-x="530" 
d="M159 700v-250h2q25 27 65 43.5t81 16.5q184 0 184 -260q0 -117 -45.5 -188.5t-144.5 -71.5q-86 0 -140 57h-2v-247h-110v900h110zM375 250q0 169 -111 169q-57 0 -105 -37v-264q48 -37 105 -37q111 0 111 169z" />
    <glyph glyph-name="ydieresis" unicode="&#xff;" horiz-adv-x="560" 
d="M222 -8l-190 508h124l129 -387h2l123 387h117l-182 -524q-35 -102 -84 -144t-129 -42q-44 0 -82 8l10 91q27 -5 47 -5q77 0 115 108zM135 692h91v-125h-91v125zM333 692h91v-125h-91v125z" />
    <glyph glyph-name="Amacron" unicode="&#x100;" horiz-adv-x="650" 
d="M492 0l-51 163h-237l-52 -163h-123l226 685h143l223 -685h-129zM325 540h-2l-95 -279h189zM166 831h318v-72h-318v72z" />
    <glyph glyph-name="amacron" unicode="&#x101;" horiz-adv-x="505" 
d="M240 419q-66 0 -158 -19l-16 88q108 22 199 22q99 0 145 -35.5t46 -130.5v-344h-110v50h-2q-63 -60 -153 -60q-73 0 -115 42t-42 109q0 81 59.5 117.5t150.5 36.5h102v42q0 44 -25 63t-81 19zM346 112v117h-96q-106 0 -106 -79q0 -35 25 -55t66 -20q65 0 111 37zM107 661
h318v-72h-318v72z" />
    <glyph glyph-name="Abreve" unicode="&#x102;" horiz-adv-x="650" 
d="M492 0l-51 163h-237l-52 -163h-123l226 685h143l223 -685h-129zM325 540h-2l-95 -279h189zM324 797q38 0 62.5 21t35.5 54h46q-9 -66 -45.5 -102t-98.5 -36q-61 0 -97.5 36t-45.5 102h46q11 -33 35.5 -54t61.5 -21z" />
    <glyph glyph-name="abreve" unicode="&#x103;" horiz-adv-x="505" 
d="M240 419q-66 0 -158 -19l-16 88q108 22 199 22q99 0 145 -35.5t46 -130.5v-344h-110v50h-2q-63 -60 -153 -60q-73 0 -115 42t-42 109q0 81 59.5 117.5t150.5 36.5h102v42q0 44 -25 63t-81 19zM346 112v117h-96q-106 0 -106 -79q0 -35 25 -55t66 -20q65 0 111 37zM272 627
q38 0 62.5 21t35.5 54h46q-9 -66 -45.5 -102t-98.5 -36q-61 0 -97.5 36t-45.5 102h46q11 -33 35.5 -54t61.5 -21z" />
    <glyph glyph-name="Aogonek" unicode="&#x104;" horiz-adv-x="650" 
d="M533 0h-41l-51 163h-237l-52 -163h-123l226 685h143l223 -685q-47 -8 -73 -40t-26 -66q0 -53 58 -53q18 0 51 14l4 -27q-37 -29 -92 -29q-42 0 -69 20.5t-27 54.5q0 69 86 126zM325 540h-1l-96 -279h189z" />
    <glyph glyph-name="aogonek" unicode="&#x105;" horiz-adv-x="505" 
d="M372 0h-26v50h-2q-63 -60 -153 -60q-73 0 -115 42t-42 109q0 81 59.5 117.5t150.5 36.5h102v42q0 44 -25 63t-81 19q-66 0 -158 -19l-16 88q108 22 199 22q99 0 145 -35.5t46 -130.5v-344q-45 -9 -70.5 -41t-25.5 -65q0 -53 59 -53q21 0 51 14l4 -27q-37 -29 -92 -29
q-39 0 -67.5 18.5t-28.5 56.5q0 69 86 126zM346 112v117h-96q-106 0 -106 -79q0 -35 25 -55t66 -20q65 0 111 37z" />
    <glyph glyph-name="Cacute" unicode="&#x106;" horiz-adv-x="620" 
d="M49 345q0 61 8 110t28.5 94t53 75t85 48t121.5 18q117 0 240 -36l-26 -98q-126 30 -205 30q-100 0 -141.5 -63t-41.5 -178q0 -122 41 -186.5t142 -64.5q79 0 205 30l26 -98q-123 -36 -240 -36q-69 0 -121.5 18.5t-85 50t-53 78t-28.5 96.5t-8 112zM486 850l-89 -140h-85
l57 140h117z" />
    <glyph glyph-name="cacute" unicode="&#x107;" horiz-adv-x="480" 
d="M39 250q0 125 58.5 192.5t192.5 67.5q80 0 172 -23l-19 -88q-82 20 -153 20q-67 0 -101 -44.5t-34 -124.5t34 -124.5t101 -44.5q71 0 153 20l19 -88q-92 -23 -172 -23q-134 0 -192.5 67.5t-58.5 192.5zM403 700l-89 -140h-85l57 140h117z" />
    <glyph glyph-name="Ccircumflex" unicode="&#x108;" horiz-adv-x="620" 
d="M49 345q0 61 8 110t28.5 94t53 75t85 48t121.5 18q117 0 240 -36l-26 -98q-126 30 -205 30q-100 0 -141.5 -63t-41.5 -178q0 -122 41 -186.5t142 -64.5q79 0 205 30l26 -98q-123 -36 -240 -36q-69 0 -121.5 18.5t-85 50t-53 78t-28.5 96.5t-8 112zM359 790l-57 -80h-85
l102 140h79l102 -140h-85z" />
    <glyph glyph-name="ccircumflex" unicode="&#x109;" horiz-adv-x="480" 
d="M39 250q0 125 58.5 192.5t192.5 67.5q80 0 172 -23l-19 -88q-82 20 -153 20q-67 0 -101 -44.5t-34 -124.5t34 -124.5t101 -44.5q71 0 153 20l19 -88q-92 -23 -172 -23q-134 0 -192.5 67.5t-58.5 192.5zM276 640l-57 -80h-85l102 140h79l102 -140h-85z" />
    <glyph glyph-name="Cdotaccent" unicode="&#x10a;" horiz-adv-x="620" 
d="M49 345q0 61 8 110t28.5 94t53 75t85 48t121.5 18q117 0 240 -36l-26 -98q-126 30 -205 30q-100 0 -141.5 -63t-41.5 -178q0 -122 41 -186.5t142 -64.5q79 0 205 30l26 -98q-123 -36 -240 -36q-69 0 -121.5 18.5t-85 50t-53 78t-28.5 96.5t-8 112zM309 850h98v-113h-98
v113z" />
    <glyph glyph-name="cdotaccent" unicode="&#x10b;" horiz-adv-x="480" 
d="M39 250q0 125 58.5 192.5t192.5 67.5q80 0 172 -23l-19 -88q-82 20 -153 20q-67 0 -101 -44.5t-34 -124.5t34 -124.5t101 -44.5q71 0 153 20l19 -88q-92 -23 -172 -23q-134 0 -192.5 67.5t-58.5 192.5zM234 680h98v-113h-98v113z" />
    <glyph glyph-name="Ccaron" unicode="&#x10c;" horiz-adv-x="620" 
d="M49 345q0 61 8 110t28.5 94t53 75t85 48t121.5 18q117 0 240 -36l-26 -98q-126 30 -205 30q-100 0 -141.5 -63t-41.5 -178q0 -122 41 -186.5t142 -64.5q79 0 205 30l26 -98q-123 -36 -240 -36q-69 0 -121.5 18.5t-85 50t-53 78t-28.5 96.5t-8 112zM303 850l57 -80l56 80
h85l-102 -140h-79l-102 140h85z" />
    <glyph glyph-name="ccaron" unicode="&#x10d;" horiz-adv-x="480" 
d="M39 250q0 125 58.5 192.5t192.5 67.5q80 0 172 -23l-19 -88q-82 20 -153 20q-67 0 -101 -44.5t-34 -124.5t34 -124.5t101 -44.5q71 0 153 20l19 -88q-92 -23 -172 -23q-134 0 -192.5 67.5t-58.5 192.5zM233 700l57 -80l56 80h85l-102 -140h-79l-102 140h85z" />
    <glyph glyph-name="Dcaron" unicode="&#x10e;" horiz-adv-x="650" 
d="M307 0h-248v680h248q160 0 227 -89t67 -246q0 -345 -294 -345zM175 104h132q98 0 135 62t37 179q0 115 -36.5 173t-135.5 58h-132v-472zM244 850l57 -80l56 80h85l-102 -140h-79l-102 140h85z" />
    <glyph glyph-name="dcaron" unicode="&#x10f;" horiz-adv-x="638" 
d="M371 0v50h-2q-25 -27 -65 -43.5t-82 -16.5q-183 0 -183 260q0 117 45.5 188.5t144.5 71.5q86 0 140 -57h2v247h110v-700h-110zM155 250q0 -169 111 -169q57 0 105 37v264q-48 37 -105 37q-111 0 -111 -169zM576 531h-35l21 84h-31v85h97v-85z" />
    <glyph glyph-name="Dcroat" unicode="&#x110;" horiz-adv-x="662" 
d="M319 0h-248v312h-62v66h62v302h248q83 0 142 -25t91.5 -71.5t47 -105t14.5 -133.5q0 -345 -295 -345zM187 104h132q51 0 86 17.5t53 51.5t25.5 74.5t7.5 97.5q0 115 -36.5 173t-135.5 58h-132v-198h115v-66h-115v-208z" />
    <glyph glyph-name="dcroat" unicode="&#x111;" horiz-adv-x="530" 
d="M371 0v50h-2q-25 -27 -65 -43.5t-82 -16.5q-183 0 -183 260q0 117 45.5 188.5t144.5 71.5q86 0 140 -57h2v104h-107v66h107v77h110v-77h70v-66h-70v-557h-110zM155 250q0 -169 111 -169q57 0 105 37v264q-48 37 -105 37q-111 0 -111 -169z" />
    <glyph glyph-name="Emacron" unicode="&#x112;" horiz-adv-x="560" 
d="M506 680v-104h-331v-172h286v-104h-286v-196h336v-104h-452v680h447zM128 831h318v-72h-318v72z" />
    <glyph glyph-name="emacron" unicode="&#x113;" horiz-adv-x="530" 
d="M490 229h-332q5 -148 151 -148q88 0 156 20l14 -88q-83 -23 -185 -23q-255 0 -255 260t251 260q110 0 160 -54t48 -152q-2 -32 -8 -75zM284 425q-116 0 -126 -127h224q5 21 3 39q-3 88 -101 88zM124 661h318v-72h-318v72z" />
    <glyph glyph-name="Ebreve" unicode="&#x114;" horiz-adv-x="560" 
d="M506 680v-104h-331v-172h286v-104h-286v-196h336v-104h-452v680h447zM289 797q38 0 62.5 21t35.5 54h46q-9 -66 -45.5 -102t-98.5 -36q-61 0 -97.5 36t-45.5 102h46q11 -33 35.5 -54t61.5 -21z" />
    <glyph glyph-name="ebreve" unicode="&#x115;" horiz-adv-x="530" 
d="M490 229h-332q5 -148 151 -148q88 0 156 20l14 -88q-83 -23 -185 -23q-255 0 -255 260t251 260q110 0 160 -54t48 -152q-2 -32 -8 -75zM284 425q-116 0 -126 -127h224q5 21 3 39q-3 88 -101 88zM288 627q38 0 62.5 21t35.5 54h46q-9 -66 -45.5 -102t-98.5 -36
q-61 0 -97.5 36t-45.5 102h46q11 -33 35.5 -54t61.5 -21z" />
    <glyph glyph-name="Edotaccent" unicode="&#x116;" horiz-adv-x="560" 
d="M506 680v-104h-331v-172h286v-104h-286v-196h336v-104h-452v680h447zM235 850h98v-113h-98v113z" />
    <glyph glyph-name="edotaccent" unicode="&#x117;" horiz-adv-x="530" 
d="M490 229h-332q5 -148 151 -148q88 0 156 20l14 -88q-83 -23 -185 -23q-255 0 -255 260t251 260q110 0 160 -54t48 -152q-2 -32 -8 -75zM284 425q-116 0 -126 -127h224q5 21 3 39q-3 88 -101 88zM236 680h98v-113h-98v113z" />
    <glyph glyph-name="Eogonek" unicode="&#x118;" horiz-adv-x="560" 
d="M555 -145l4 -27q-37 -29 -92 -29q-42 0 -69 20.5t-27 54.5q0 69 86 126h-398v680h447v-104h-331v-172h286v-104h-286v-196h336v-104q-66 -52 -66 -106q0 -53 59 -53q18 0 51 14z" />
    <glyph glyph-name="eogonek" unicode="&#x119;" horiz-adv-x="530" 
d="M158 298h224q5 21 3 39q-3 88 -101 88q-116 0 -126 -127zM490 229h-332q5 -148 151 -148q88 0 156 20l14 -88q-66 -52 -66 -106q0 -53 58 -53q21 0 51 14l5 -27q-37 -29 -93 -29q-41 0 -68 20.5t-27 54.5q0 60 67 112q-51 -9 -112 -9q-255 0 -255 260t251 260
q110 0 160 -54t48 -152q-2 -32 -8 -75z" />
    <glyph glyph-name="Ecaron" unicode="&#x11a;" horiz-adv-x="560" 
d="M506 680v-104h-331v-172h286v-104h-286v-196h336v-104h-452v680h447zM230 850l57 -80l56 80h85l-102 -140h-79l-102 140h85z" />
    <glyph glyph-name="ecaron" unicode="&#x11b;" horiz-adv-x="530" 
d="M490 229h-332q5 -148 151 -148q88 0 156 20l14 -88q-83 -23 -185 -23q-255 0 -255 260t251 260q110 0 160 -54t48 -152q-2 -32 -8 -75zM284 425q-116 0 -126 -127h224q5 21 3 39q-3 88 -101 88zM229 700l57 -80l56 80h85l-102 -140h-79l-102 140h85z" />
    <glyph glyph-name="Gcircumflex" unicode="&#x11c;" horiz-adv-x="640" 
d="M345 -10q-69 0 -121.5 18.5t-85 50t-53 78t-28.5 96.5t-8 112q0 61 8 110t28.5 94t53 75t85 48t121.5 18q113 0 236 -36l-26 -98q-126 30 -201 30q-100 0 -141.5 -63t-41.5 -178q0 -122 41 -186.5t142 -64.5q57 0 111 26v134h-118v103h234v-317q-131 -50 -236 -50z
M351 790l-57 -80h-85l102 140h79l102 -140h-85z" />
    <glyph glyph-name="gcircumflex" unicode="&#x11d;" horiz-adv-x="555" 
d="M116 -61q0 -77 138 -77q68 0 114 22t46 64q0 48 -72 53l-180 10q-17 -14 -24.5 -21t-14.5 -20.5t-7 -30.5zM265 246q47 0 74 24.5t27 69.5q0 46 -27.5 71.5t-73.5 25.5q-50 0 -76.5 -25t-26.5 -72q0 -46 27.5 -70t75.5 -24zM107 26v2q-40 24 -38 69q2 63 71 101v2
q-38 19 -60 56t-22 84q0 82 55.5 126t151.5 44q38 0 70 -10h181v-66h-89q40 -32 40 -94q0 -82 -55.5 -124t-146.5 -42q-38 0 -68 10q-9 -9 -17 -25q-11 -20 -5 -39t31 -20l174 -11q150 -12 150 -120q0 -92 -72 -135.5t-223 -43.5q-210 0 -210 130q0 64 82 106zM276 640
l-57 -80h-85l102 140h79l102 -140h-85z" />
    <glyph glyph-name="Gbreve" unicode="&#x11e;" horiz-adv-x="640" 
d="M345 -10q-69 0 -121.5 18.5t-85 50t-53 78t-28.5 96.5t-8 112q0 61 8 110t28.5 94t53 75t85 48t121.5 18q113 0 236 -36l-26 -98q-126 30 -201 30q-100 0 -141.5 -63t-41.5 -178q0 -122 41 -186.5t142 -64.5q57 0 111 26v134h-118v103h234v-317q-131 -50 -236 -50z
M349 797q38 0 62.5 21t35.5 54h46q-9 -66 -45.5 -102t-98.5 -36q-61 0 -97.5 36t-45.5 102h46q11 -33 35.5 -54t61.5 -21z" />
    <glyph glyph-name="gbreve" unicode="&#x11f;" horiz-adv-x="555" 
d="M116 -61q0 -77 138 -77q68 0 114 22t46 64q0 48 -72 53l-180 10q-17 -14 -24.5 -21t-14.5 -20.5t-7 -30.5zM265 246q47 0 74 24.5t27 69.5q0 46 -27.5 71.5t-73.5 25.5q-50 0 -76.5 -25t-26.5 -72q0 -46 27.5 -70t75.5 -24zM107 26v2q-40 24 -38 69q2 63 71 101v2
q-38 19 -60 56t-22 84q0 82 55.5 126t151.5 44q38 0 70 -10h181v-66h-89q40 -32 40 -94q0 -82 -55.5 -124t-146.5 -42q-38 0 -68 10q-9 -9 -17 -25q-11 -20 -5 -39t31 -20l174 -11q150 -12 150 -120q0 -92 -72 -135.5t-223 -43.5q-210 0 -210 130q0 64 82 106zM268 627
q38 0 62.5 21t35.5 54h46q-9 -66 -45.5 -102t-98.5 -36q-61 0 -97.5 36t-45.5 102h46q11 -33 35.5 -54t61.5 -21z" />
    <glyph glyph-name="Gdotaccent" unicode="&#x120;" horiz-adv-x="640" 
d="M345 -10q-69 0 -121.5 18.5t-85 50t-53 78t-28.5 96.5t-8 112q0 61 8 110t28.5 94t53 75t85 48t121.5 18q113 0 236 -36l-26 -98q-126 30 -201 30q-100 0 -141.5 -63t-41.5 -178q0 -122 41 -186.5t142 -64.5q57 0 111 26v134h-118v103h234v-317q-131 -50 -236 -50z
M290 850h98v-113h-98v113z" />
    <glyph glyph-name="gdotaccent" unicode="&#x121;" horiz-adv-x="555" 
d="M116 -61q0 -77 138 -77q68 0 114 22t46 64q0 48 -72 53l-180 10q-17 -14 -24.5 -21t-14.5 -20.5t-7 -30.5zM265 246q47 0 74 24.5t27 69.5q0 46 -27.5 71.5t-73.5 25.5q-50 0 -76.5 -25t-26.5 -72q0 -46 27.5 -70t75.5 -24zM107 26v2q-40 24 -38 69q2 63 71 101v2
q-38 19 -60 56t-22 84q0 82 55.5 126t151.5 44q38 0 70 -10h181v-66h-89q40 -32 40 -94q0 -82 -55.5 -124t-146.5 -42q-38 0 -68 10q-9 -9 -17 -25q-11 -20 -5 -39t31 -20l174 -11q150 -12 150 -120q0 -92 -72 -135.5t-223 -43.5q-210 0 -210 130q0 64 82 106zM218 680h98
v-113h-98v113z" />
    <glyph glyph-name="Gcommaaccent" unicode="&#x122;" horiz-adv-x="640" 
d="M345 -10q-69 0 -121.5 18.5t-85 50t-53 78t-28.5 96.5t-8 112q0 61 8 110t28.5 94t53 75t85 48t121.5 18q113 0 236 -36l-26 -98q-126 30 -201 30q-100 0 -141.5 -63t-41.5 -178q0 -122 41 -186.5t142 -64.5q57 0 111 26v134h-118v103h234v-317q-131 -50 -236 -50z
M353 -209h-35l21 84h-31v85h97v-85z" />
    <glyph glyph-name="gcommaaccent" unicode="&#x123;" horiz-adv-x="555" 
d="M116 -61q0 -77 138 -77q68 0 114 22t46 64q0 48 -72 53l-180 10q-17 -14 -24.5 -21t-14.5 -20.5t-7 -30.5zM265 246q47 0 74 24.5t27 69.5q0 46 -27.5 71.5t-73.5 25.5q-50 0 -76.5 -25t-26.5 -72q0 -46 27.5 -70t75.5 -24zM107 26v2q-40 24 -38 69q2 63 71 101v2
q-38 19 -60 56t-22 84q0 82 55.5 126t151.5 44q38 0 70 -10h181v-66h-89q40 -32 40 -94q0 -82 -55.5 -124t-146.5 -42q-38 0 -68 10q-9 -9 -17 -25q-11 -20 -5 -39t31 -20l174 -11q150 -12 150 -120q0 -92 -72 -135.5t-223 -43.5q-210 0 -210 130q0 64 82 106zM279 739h35
l-21 -84h31v-85h-98v85z" />
    <glyph glyph-name="Hcircumflex" unicode="&#x124;" horiz-adv-x="640" 
d="M175 0h-116v680h116v-276h290v276h116v-680h-116v300h-290v-300zM320 790l-57 -80h-85l102 140h79l102 -140h-85z" />
    <glyph glyph-name="hcircumflex" unicode="&#x125;" horiz-adv-x="530" 
d="M159 371v-371h-110v700h110v-268h2q75 78 170 78q74 0 112 -43.5t38 -122.5v-344h-110v319q0 100 -90 100q-54 0 -122 -48zM104 830l-57 -80h-85l102 140h79l102 -140h-85z" />
    <glyph glyph-name="Hbar" unicode="&#x126;" horiz-adv-x="640" 
d="M-11 583h70v97h116v-97h290v97h116v-97h70v-66h-70v-517h-116v300h-290v-300h-116v517h-70v66zM175 404h290v113h-290v-113z" />
    <glyph glyph-name="hbar" unicode="&#x127;" horiz-adv-x="530" 
d="M159 557v-125h2q75 78 170 78q74 0 112 -43.5t38 -122.5v-344h-110v319q0 100 -90 100q-54 0 -122 -48v-371h-110v557h-70v66h70v77h110v-77h107v-66h-107z" />
    <glyph glyph-name="Itilde" unicode="&#x128;" horiz-adv-x="234" 
d="M174 0h-116v680h116v-680zM61 765q-19 0 -33.5 -8.5t-42.5 -36.5l-35 40q47 87 108 87q26 0 71.5 -24t60.5 -24q32 0 65 43l29 -46q-39 -77 -94 -77q-19 0 -64.5 23t-64.5 23z" />
    <glyph glyph-name="itilde" unicode="&#x129;" horiz-adv-x="207" 
d="M48 605q-18 0 -33 -8.5t-43 -36.5l-35 40q47 87 108 87q26 0 71.5 -24t60.5 -24q32 0 65 43l29 -46q-39 -77 -94 -77q-19 0 -64.5 23t-64.5 23zM49 500h110v-500h-110v500z" />
    <glyph glyph-name="Imacron" unicode="&#x12a;" horiz-adv-x="234" 
d="M171 0h-116v680h116v-680zM-42 831h318v-72h-318v72z" />
    <glyph glyph-name="imacron" unicode="&#x12b;" horiz-adv-x="207" 
d="M-56 661h318v-72h-318v72zM49 500h110v-500h-110v500z" />
    <glyph glyph-name="Ibreve" unicode="&#x12c;" horiz-adv-x="234" 
d="M177 0h-116v680h116v-680zM116 797q38 0 62.5 21t35.5 54h46q-9 -66 -45.5 -102t-98.5 -36q-61 0 -97.5 36t-45.5 102h46q11 -33 35.5 -54t61.5 -21z" />
    <glyph glyph-name="ibreve" unicode="&#x12d;" horiz-adv-x="207" 
d="M103 627q38 0 62.5 21t35.5 54h46q-9 -66 -45.5 -102t-98.5 -36q-61 0 -97.5 36t-45.5 102h46q11 -33 35.5 -54t61.5 -21zM49 500h110v-500h-110v500z" />
    <glyph glyph-name="Iogonek" unicode="&#x12e;" horiz-adv-x="234" 
d="M94 0h-35v680h116v-680q-44 -10 -68.5 -42t-24.5 -64q0 -53 58 -53q18 0 51 14l4 -27q-37 -29 -92 -29q-42 0 -69 20.5t-27 54.5q0 71 87 126z" />
    <glyph glyph-name="iogonek" unicode="&#x12f;" horiz-adv-x="207" 
d="M159 500v-500q-39 -9 -63 -42.5t-24 -63.5q0 -53 59 -53q18 0 51 14l4 -27q-37 -29 -92 -29q-41 0 -68.5 20.5t-27.5 54.5q0 69 86 126l-35 24v476h110zM49 700h110v-131h-110v131z" />
    <glyph glyph-name="Idotaccent" unicode="&#x130;" horiz-adv-x="234" 
d="M175 0h-116v680h116v-680zM68 850h98v-113h-98v113z" />
    <glyph glyph-name="dotlessi" unicode="&#x131;" horiz-adv-x="207" 
d="M49 500h110v-500h-110v500z" />
    <glyph glyph-name="IJ" unicode="&#x132;" horiz-adv-x="577" 
d="M175 0h-116v680h116v-680zM519 680v-504q0 -186 -170 -186q-55 0 -100 8l10 98q27 -5 58 -5q42 0 63.5 20.5t21.5 70.5v498h117z" />
    <glyph glyph-name="ij" unicode="&#x133;" horiz-adv-x="413" 
d="M49 500h110v-500h-110v500zM49 680h110v-131h-110v131zM364 500v-567q0 -75 -33 -109t-118 -34q-39 0 -84 8l11 85q32 -5 48 -5q38 0 52 13.5t14 50.5v558h110zM254 680h110v-131h-110v131z" />
    <glyph glyph-name="Jcircumflex" unicode="&#x134;" horiz-adv-x="344" 
d="M285 680v-504q0 -186 -170 -186q-56 0 -99 8l10 98q26 -5 58 -5q42 0 63.5 21t21.5 70v498h116zM228 790l-57 -80h-85l102 140h79l102 -140h-85z" />
    <glyph glyph-name="jcircumflex" unicode="&#x135;" horiz-adv-x="247" 
d="M199 500v-567q0 -75 -33.5 -109t-118.5 -34q-40 0 -83 8l10 85q33 -5 48 -5q38 0 52.5 13.5t14.5 50.5v558h110zM144 640l-57 -80h-85l102 140h79l102 -140h-85z" />
    <glyph glyph-name="Kcommaaccent" unicode="&#x136;" horiz-adv-x="632" 
d="M175 680v-331l284 331h138l-240 -284l244 -396h-145l-184 303l-97 -113v-190h-116v680h116zM311 -202h-35l21 84h-31v85h97v-85z" />
    <glyph glyph-name="kcommaaccent" unicode="&#x137;" horiz-adv-x="545" 
d="M159 700v-389l213 189h134l-186 -176l196 -324h-130l-143 261l-84 -73v-188h-110v700h110zM262 -209h-35l21 84h-31v85h97v-85z" />
    <glyph glyph-name="kgreenlandic" unicode="&#x138;" horiz-adv-x="545" 
d="M159 500v-189l213 189h134l-186 -176l196 -324h-130l-143 261l-84 -73v-188h-110v500h110z" />
    <glyph glyph-name="Lacute" unicode="&#x139;" horiz-adv-x="540" 
d="M59 680h116v-576h326v-104h-442v680zM247 850l-89 -140h-85l57 140h117z" />
    <glyph glyph-name="lacute" unicode="&#x13a;" horiz-adv-x="207" 
d="M49 0v700h110v-700h-110zM237 890l-89 -140h-85l57 140h117z" />
    <glyph glyph-name="Lcommaaccent" unicode="&#x13b;" horiz-adv-x="540" 
d="M59 680h116v-576h326v-104h-442v680zM278 -201h-35l21 84h-31v85h97v-85z" />
    <glyph glyph-name="lcommaaccent" unicode="&#x13c;" horiz-adv-x="207" 
d="M49 0v700h110v-700h-110zM101 -209h-35l21 84h-31v85h97v-85z" />
    <glyph glyph-name="Lcaron" unicode="&#x13d;" horiz-adv-x="540" 
d="M59 680h116v-576h326v-104h-442v680zM318 511h-35l21 84h-31v85h97v-85z" />
    <glyph glyph-name="lcaron" unicode="&#x13e;" horiz-adv-x="312" 
d="M49 0v700h110v-700h-110zM250 531h-35l21 84h-31v85h97v-85z" />
    <glyph glyph-name="Ldot" unicode="&#x13f;" horiz-adv-x="540" 
d="M59 680h116v-576h326v-104h-442v680zM283 442h97v-125h-97v125z" />
    <glyph glyph-name="ldot" unicode="&#x140;" horiz-adv-x="320" 
d="M49 0v700h110v-700h-110zM213 422h97v-125h-97v125z" />
    <glyph glyph-name="Lslash" unicode="&#x141;" horiz-adv-x="550" 
d="M292 384l-107 -25v-255h326v-104h-442v332l-70 -16v66l70 16v282h116v-255l107 26v-67z" />
    <glyph glyph-name="lslash" unicode="&#x142;" horiz-adv-x="247" 
d="M267 364l-88 -22v-342h-110v314l-89 -22v66l89 22v320h110v-292l88 23v-67z" />
    <glyph glyph-name="Nacute" unicode="&#x143;" horiz-adv-x="650" 
d="M172 0h-113v680h116l301 -466h2v466h113v-680h-116l-301 453h-2v-453zM459 850l-89 -140h-85l57 140h117z" />
    <glyph glyph-name="nacute" unicode="&#x144;" horiz-adv-x="530" 
d="M159 371v-371h-110v500h110v-68h2q75 78 170 78q74 0 112 -43.5t38 -122.5v-344h-110v319q0 100 -90 100q-54 0 -122 -48zM390 700l-89 -140h-85l57 140h117z" />
    <glyph glyph-name="Ncommaaccent" unicode="&#x145;" horiz-adv-x="650" 
d="M172 0h-113v680h116l301 -466h2v466h113v-680h-116l-301 453h-2v-453zM323 -209h-35l21 84h-31v85h97v-85z" />
    <glyph glyph-name="ncommaaccent" unicode="&#x146;" horiz-adv-x="530" 
d="M159 371v-371h-110v500h110v-68h2q75 78 170 78q74 0 112 -43.5t38 -122.5v-344h-110v319q0 100 -90 100q-54 0 -122 -48zM268 729h35l-21 -84h31v-85h-98v85z" />
    <glyph glyph-name="Ncaron" unicode="&#x147;" horiz-adv-x="650" 
d="M172 0h-113v680h116l301 -466h2v466h113v-680h-116l-301 453h-2v-453zM268 850l57 -80l56 80h85l-102 -140h-79l-102 140h85z" />
    <glyph glyph-name="ncaron" unicode="&#x148;" horiz-adv-x="530" 
d="M159 371v-371h-110v500h110v-68h2q75 78 170 78q74 0 112 -43.5t38 -122.5v-344h-110v319q0 100 -90 100q-54 0 -122 -48zM208 700l57 -80l56 80h85l-102 -140h-79l-102 140h85z" />
    <glyph glyph-name="napostrophe" unicode="&#x149;" horiz-adv-x="530" 
d="M159 371v-371h-110v500h110v-68h2q75 78 170 78q74 0 112 -43.5t38 -122.5v-344h-110v319q0 100 -90 100q-54 0 -122 -48zM98 531h-35l21 84h-31v85h98v-85z" />
    <glyph glyph-name="Eng" unicode="&#x14a;" horiz-adv-x="650" 
d="M481 -60v60l-307 453h-2v-453h-113v680h116l301 -466h2v466h113v-749q0 -75 -33 -109t-118 -34q-39 0 -84 8l10 85q33 -5 49 -5q37 0 51.5 13.5t14.5 50.5z" />
    <glyph glyph-name="eng" unicode="&#x14b;" horiz-adv-x="530" 
d="M371 -58v377q0 100 -90 100q-54 0 -122 -48v-371h-110v500h110v-68h2q75 78 170 78q74 0 112 -43.5t38 -122.5v-411q0 -75 -33 -109t-118 -34q-39 0 -84 8l10 85q33 -5 49 -5q37 0 51.5 13.5t14.5 50.5z" />
    <glyph glyph-name="Omacron" unicode="&#x14c;" horiz-adv-x="690" 
d="M345 592q-54 0 -89.5 -18t-53.5 -54t-24.5 -76.5t-6.5 -98.5q0 -46 4 -81t15 -70t29.5 -57t50.5 -36t75 -14t75 14t50.5 36t29.5 57t15 70t4 81q0 58 -6.5 98.5t-24.5 76.5t-53.5 54t-89.5 18zM345 -10q-85 0 -145 27.5t-92 78.5t-45.5 111t-13.5 138q0 61 8 110t28.5 94
t53 75t85 48t121.5 18t121.5 -18t85 -48t53 -75t28.5 -94t8 -110q0 -78 -13.5 -138t-45.5 -111t-92 -78.5t-145 -27.5zM186 831h318v-72h-318v72z" />
    <glyph glyph-name="omacron" unicode="&#x14d;" horiz-adv-x="550" 
d="M275 419q-66 0 -93 -44t-27 -125t27 -125t93 -44t93 44t27 125t-27 125t-93 44zM275 -10q-236 0 -236 260t236 260t236 -260t-236 -260zM116 661h318v-72h-318v72z" />
    <glyph glyph-name="Obreve" unicode="&#x14e;" horiz-adv-x="690" 
d="M345 592q-54 0 -89.5 -18t-53.5 -54t-24.5 -76.5t-6.5 -98.5q0 -46 4 -81t15 -70t29.5 -57t50.5 -36t75 -14t75 14t50.5 36t29.5 57t15 70t4 81q0 58 -6.5 98.5t-24.5 76.5t-53.5 54t-89.5 18zM345 -10q-85 0 -145 27.5t-92 78.5t-45.5 111t-13.5 138q0 61 8 110t28.5 94
t53 75t85 48t121.5 18t121.5 -18t85 -48t53 -75t28.5 -94t8 -110q0 -78 -13.5 -138t-45.5 -111t-92 -78.5t-145 -27.5zM344 797q38 0 62.5 21t35.5 54h46q-9 -66 -45.5 -102t-98.5 -36q-61 0 -97.5 36t-45.5 102h46q11 -33 35.5 -54t61.5 -21z" />
    <glyph glyph-name="obreve" unicode="&#x14f;" horiz-adv-x="550" 
d="M275 419q-66 0 -93 -44t-27 -125t27 -125t93 -44t93 44t27 125t-27 125t-93 44zM275 -10q-236 0 -236 260t236 260t236 -260t-236 -260zM274 627q38 0 62.5 21t35.5 54h46q-9 -66 -45.5 -102t-98.5 -36q-61 0 -97.5 36t-45.5 102h46q11 -33 35.5 -54t61.5 -21z" />
    <glyph glyph-name="Ohungarumlaut" unicode="&#x150;" horiz-adv-x="690" 
d="M345 592q-54 0 -89.5 -18t-53.5 -54t-24.5 -76.5t-6.5 -98.5q0 -46 4 -81t15 -70t29.5 -57t50.5 -36t75 -14t75 14t50.5 36t29.5 57t15 70t4 81q0 58 -6.5 98.5t-24.5 76.5t-53.5 54t-89.5 18zM345 -10q-85 0 -145 27.5t-92 78.5t-45.5 111t-13.5 138q0 61 8 110t28.5 94
t53 75t85 48t121.5 18t121.5 -18t85 -48t53 -75t28.5 -94t8 -110q0 -78 -13.5 -138t-45.5 -111t-92 -78.5t-145 -27.5zM381 850l-70 -120h-60l58 120h72zM500 850l-70 -120h-60l58 120h72z" />
    <glyph glyph-name="ohungarumlaut" unicode="&#x151;" horiz-adv-x="550" 
d="M275 419q-66 0 -93 -44t-27 -125t27 -125t93 -44t93 44t27 125t-27 125t-93 44zM275 -10q-236 0 -236 260t236 260t236 -260t-236 -260zM309 680l-70 -120h-60l58 120h72zM428 680l-70 -120h-60l58 120h72z" />
    <glyph glyph-name="OE" unicode="&#x152;" horiz-adv-x="1017" 
d="M963 680v-104h-331v-172h286v-104h-286v-196h336v-104h-449v90h-1q-37 -100 -173 -100q-72 0 -126.5 21t-86 53.5t-51 81t-26 95.5t-6.5 104q0 61 8 110t28.5 94t53 75t85 48t121.5 18q121 0 173 -98h1v88h444zM345 592q-54 0 -89.5 -18t-53.5 -54t-24.5 -76.5
t-6.5 -98.5q0 -46 4 -81t15 -70t29.5 -57t50.5 -36t75 -14t74.5 14t50.5 36.5t30 57.5t15 71t4 83q0 118 -36.5 180.5t-137.5 62.5z" />
    <glyph glyph-name="oe" unicode="&#x153;" horiz-adv-x="887" 
d="M847 229h-332q5 -148 151 -148q88 0 156 20l14 -88q-83 -23 -185 -23q-143 0 -197 98q-51 -98 -179 -98q-236 0 -236 260t236 260q128 0 179 -98q54 98 193 98q208 0 208 -195q0 -36 -8 -86zM275 419q-66 0 -93 -44t-27 -125t27 -125t93 -44q65 0 92.5 43.5t27.5 125.5
q0 81 -27 125t-93 44zM641 425q-116 0 -126 -127h224q4 17 4 36q0 40 -24.5 65.5t-77.5 25.5z" />
    <glyph glyph-name="Racute" unicode="&#x154;" horiz-adv-x="615" 
d="M584 0h-135l-152 254h-122v-254h-116v680h285q102 0 159.5 -58.5t57.5 -154.5q0 -73 -36.5 -125.5t-106.5 -69.5zM175 576v-219h152q53 0 84 27.5t31 82.5q0 53 -30 81t-81 28h-156zM412 850l-89 -140h-85l57 140h117z" />
    <glyph glyph-name="racute" unicode="&#x155;" horiz-adv-x="370" 
d="M159 358v-358h-110v500h110v-80h2q30 38 77 64t103 26v-104q-99 0 -182 -48zM319 700l-89 -140h-85l57 140h117z" />
    <glyph glyph-name="Rcommaaccent" unicode="&#x156;" horiz-adv-x="615" 
d="M584 0h-135l-152 254h-122v-254h-116v680h285q102 0 159.5 -58.5t57.5 -154.5q0 -73 -36.5 -125.5t-106.5 -69.5zM175 576v-219h152q53 0 84 27.5t31 82.5q0 53 -30 81t-81 28h-156zM315 -203h-35l21 84h-31v85h97v-85z" />
    <glyph glyph-name="rcommaaccent" unicode="&#x157;" horiz-adv-x="370" 
d="M159 358v-358h-110v500h110v-80h2q30 38 77 64t103 26v-104q-99 0 -182 -48zM100 -209h-35l21 84h-31v85h97v-85z" />
    <glyph glyph-name="Rcaron" unicode="&#x158;" horiz-adv-x="615" 
d="M584 0h-135l-152 254h-122v-254h-116v680h285q102 0 159.5 -58.5t57.5 -154.5q0 -73 -36.5 -125.5t-106.5 -69.5zM175 576v-219h152q53 0 84 27.5t31 82.5q0 53 -30 81t-81 28h-156zM235 850l57 -80l56 80h85l-102 -140h-79l-102 140h85z" />
    <glyph glyph-name="rcaron" unicode="&#x159;" horiz-adv-x="370" 
d="M159 358v-358h-110v500h110v-80h2q30 38 77 64t103 26v-104q-99 0 -182 -48zM137 700l57 -80l56 80h85l-102 -140h-79l-102 140h85z" />
    <glyph glyph-name="Sacute" unicode="&#x15a;" 
d="M300 -10q-129 0 -251 36l20 98q126 -30 231 -30q61 0 95 26.5t34 65.5q0 12 -2.5 22t-9.5 19t-13 15.5t-18.5 12.5l-20.5 10t-24.5 9.5t-24 7.5l-26.5 7t-25 7q-206 56 -206 209q0 94 66.5 139.5t174.5 45.5q112 0 235 -36l-26 -98q-126 30 -209 30q-61 0 -90 -23
t-29 -61q0 -24 13.5 -42t40.5 -30.5t50.5 -20t60.5 -15.5q205 -47 205 -199q0 -101 -69.5 -153t-181.5 -52zM442 850l-89 -140h-85l57 140h117z" />
    <glyph glyph-name="sacute" unicode="&#x15b;" horiz-adv-x="480" 
d="M446 147q0 -77 -50 -117t-141 -40q-129 0 -221 23l20 88q93 -23 188 -23q52 0 73 20t21 41q0 23 -22.5 37.5t-76.5 24.5q-94 17 -143.5 52.5t-49.5 111.5q0 145 191 145q113 0 205 -23l-20 -88q-93 23 -179 23q-49 0 -68 -17.5t-19 -36.5q0 -23 19.5 -37.5t74.5 -26.5
q36 -8 59.5 -14t52.5 -18.5t45.5 -28t28.5 -40t12 -56.5zM384 700l-89 -140h-85l57 140h117z" />
    <glyph glyph-name="Scircumflex" unicode="&#x15c;" 
d="M300 -10q-129 0 -251 36l20 98q126 -30 231 -30q61 0 95 26.5t34 65.5q0 12 -2.5 22t-9.5 19t-13 15.5t-18.5 12.5l-20.5 10t-24.5 9.5t-24 7.5l-26.5 7t-25 7q-206 56 -206 209q0 94 66.5 139.5t174.5 45.5q112 0 235 -36l-26 -98q-126 30 -209 30q-61 0 -90 -23
t-29 -61q0 -24 13.5 -42t40.5 -30.5t50.5 -20t60.5 -15.5q205 -47 205 -199q0 -101 -69.5 -153t-181.5 -52zM310 790l-57 -80h-85l102 140h79l102 -140h-85z" />
    <glyph glyph-name="scircumflex" unicode="&#x15d;" horiz-adv-x="480" 
d="M446 147q0 -77 -50 -117t-141 -40q-129 0 -221 23l20 88q93 -23 188 -23q52 0 73 20t21 41q0 23 -22.5 37.5t-76.5 24.5q-94 17 -143.5 52.5t-49.5 111.5q0 145 191 145q113 0 205 -23l-20 -88q-93 23 -179 23q-49 0 -68 -17.5t-19 -36.5q0 -23 19.5 -37.5t74.5 -26.5
q36 -8 59.5 -14t52.5 -18.5t45.5 -28t28.5 -40t12 -56.5zM250 640l-57 -80h-85l102 140h79l102 -140h-85z" />
    <glyph glyph-name="Scedilla" unicode="&#x15e;" 
d="M551 195q0 -99 -66 -150.5t-174 -54.5v-44q33 -3 58.5 -19.5t25.5 -52.5t-27 -57.5t-73 -21.5q-39 0 -78 12l7 36q28 -7 50 -7q27 0 39.5 13t12.5 30t-13.5 29.5t-42.5 15.5v67q-117 3 -221 35l20 98q126 -30 231 -30q61 0 95 26.5t34 65.5q0 12 -2.5 22t-9.5 19
t-13 15.5t-18.5 12.5l-20.5 10t-24.5 9.5t-24 7.5l-26.5 7t-25 7q-206 56 -206 209q0 94 66.5 139.5t174.5 45.5q112 0 235 -36l-26 -98q-126 30 -209 30q-61 0 -90 -23t-29 -61q0 -24 13.5 -42t40.5 -30.5t50.5 -20t60.5 -15.5q205 -47 205 -199z" />
    <glyph glyph-name="scedilla" unicode="&#x15f;" horiz-adv-x="480" 
d="M446 147q0 -76 -48.5 -115.5t-136.5 -41.5v-44q33 -3 58 -19.5t25 -52.5t-26.5 -57.5t-73.5 -21.5q-38 0 -78 12l7 36q28 -7 50 -7q27 0 40 13t13 30t-14 29.5t-43 15.5v67q-112 3 -185 22l20 88q93 -23 188 -23q52 0 73 20t21 41q0 23 -22.5 37.5t-76.5 24.5
q-94 17 -143.5 52.5t-49.5 111.5q0 145 191 145q113 0 205 -23l-20 -88q-93 23 -179 23q-49 0 -68 -17.5t-19 -36.5q0 -23 19.5 -37.5t74.5 -26.5q36 -8 59.5 -14t52.5 -18.5t45.5 -28t28.5 -40t12 -56.5z" />
    <glyph glyph-name="Scaron" unicode="&#x160;" 
d="M300 -10q-129 0 -251 36l20 98q126 -30 231 -30q61 0 95 26.5t34 65.5q0 12 -2.5 22t-9.5 19t-13 15.5t-18.5 12.5l-20.5 10t-24.5 9.5t-24 7.5l-26.5 7t-25 7q-206 56 -206 209q0 94 66.5 139.5t174.5 45.5q112 0 235 -36l-26 -98q-126 30 -209 30q-61 0 -90 -23
t-29 -61q0 -24 13.5 -42t40.5 -30.5t50.5 -20t60.5 -15.5q205 -47 205 -199q0 -101 -69.5 -153t-181.5 -52zM243 850l57 -80l56 80h85l-102 -140h-79l-102 140h85z" />
    <glyph glyph-name="scaron" unicode="&#x161;" horiz-adv-x="480" 
d="M446 147q0 -77 -50 -117t-141 -40q-129 0 -221 23l20 88q93 -23 188 -23q52 0 73 20t21 41q0 23 -22.5 37.5t-76.5 24.5q-94 17 -143.5 52.5t-49.5 111.5q0 145 191 145q113 0 205 -23l-20 -88q-93 23 -179 23q-49 0 -68 -17.5t-19 -36.5q0 -23 19.5 -37.5t74.5 -26.5
q36 -8 59.5 -14t52.5 -18.5t45.5 -28t28.5 -40t12 -56.5zM192 700l57 -80l56 80h85l-102 -140h-79l-102 140h85z" />
    <glyph glyph-name="Tcommaaccent" unicode="&#x162;" horiz-adv-x="560" 
d="M521 576h-183v-576h-116v576h-183v104h482v-104zM277 -209h-35l21 84h-31v85h97v-85z" />
    <glyph glyph-name="tcommaaccent" unicode="&#x163;" horiz-adv-x="375" 
d="M89 144v277h-72v72l72 7l13 140h97v-140h132v-79h-132v-258q0 -43 18 -64t60 -21q16 0 49 5l10 -85q-43 -8 -96 -8q-81 0 -116 36t-35 118zM198 -209h-35l21 84h-31v85h97v-85z" />
    <glyph glyph-name="Tcaron" unicode="&#x164;" horiz-adv-x="560" 
d="M521 576h-183v-576h-116v576h-183v104h482v-104zM223 850l57 -80l56 80h85l-102 -140h-79l-102 140h85z" />
    <glyph glyph-name="tcaron" unicode="&#x165;" horiz-adv-x="375" 
d="M89 144v277h-72v72l72 7l13 140h97v-140h132v-79h-132v-258q0 -43 18 -64t60 -21q16 0 49 5l10 -85q-43 -8 -96 -8q-81 0 -116 36t-35 118zM303 531h-35l21 84h-31v85h97v-85z" />
    <glyph glyph-name="Tbar" unicode="&#x166;" horiz-adv-x="560" 
d="M141 303h81v273h-183v104h482v-104h-183v-273h81v-66h-81v-237h-116v237h-81v66z" />
    <glyph glyph-name="tbar" unicode="&#x167;" horiz-adv-x="375" 
d="M89 239h-60v66h60v116h-72v72l72 7l13 140h97v-140h132v-79h-132v-116h122v-66h-122v-76q0 -43 18 -64t60 -21q16 0 49 5l10 -85q-43 -8 -96 -8q-81 0 -116 36t-35 118v95z" />
    <glyph glyph-name="Utilde" unicode="&#x168;" horiz-adv-x="640" 
d="M322 87q44 0 73.5 13t44 36.5t20 48t5.5 55.5v440h116v-440q0 -250 -261 -250t-261 250v440h116v-440q0 -32 5.5 -56t20 -47.5t45 -36.5t76.5 -13zM264 765q-18 0 -33 -8.5t-43 -36.5l-35 40q47 87 108 87q26 0 71.5 -24t60.5 -24q32 0 65 43l29 -46q-39 -77 -94 -77
q-19 0 -64.5 23t-64.5 23z" />
    <glyph glyph-name="utilde" unicode="&#x169;" horiz-adv-x="530" 
d="M371 129v371h110v-500h-110v67h-2q-75 -77 -170 -77q-74 0 -112 43.5t-38 122.5v344h110v-319q0 -100 90 -100q54 0 122 48zM209 605q-19 0 -33.5 -8.5t-42.5 -36.5l-35 40q47 87 108 87q26 0 71.5 -24t60.5 -24q32 0 65 43l29 -46q-39 -77 -94 -77q-19 0 -64.5 23
t-64.5 23z" />
    <glyph glyph-name="Umacron" unicode="&#x16a;" horiz-adv-x="640" 
d="M322 87q44 0 73.5 13t44 36.5t20 48t5.5 55.5v440h116v-440q0 -250 -261 -250t-261 250v440h116v-440q0 -32 5.5 -56t20 -47.5t45 -36.5t76.5 -13zM161 831h318v-72h-318v72z" />
    <glyph glyph-name="umacron" unicode="&#x16b;" horiz-adv-x="530" 
d="M371 129v371h110v-500h-110v67h-2q-75 -77 -170 -77q-74 0 -112 43.5t-38 122.5v344h110v-319q0 -100 90 -100q54 0 122 48zM106 661h318v-72h-318v72z" />
    <glyph glyph-name="Ubreve" unicode="&#x16c;" horiz-adv-x="640" 
d="M322 87q44 0 73.5 13t44 36.5t20 48t5.5 55.5v440h116v-440q0 -250 -261 -250t-261 250v440h116v-440q0 -32 5.5 -56t20 -47.5t45 -36.5t76.5 -13zM319 797q38 0 62.5 21t35.5 54h46q-9 -66 -45.5 -102t-98.5 -36q-61 0 -97.5 36t-45.5 102h46q11 -33 35.5 -54t61.5 -21z
" />
    <glyph glyph-name="ubreve" unicode="&#x16d;" horiz-adv-x="530" 
d="M371 129v371h110v-500h-110v67h-2q-75 -77 -170 -77q-74 0 -112 43.5t-38 122.5v344h110v-319q0 -100 90 -100q54 0 122 48zM264 627q38 0 62.5 21t35.5 54h46q-9 -66 -45.5 -102t-98.5 -36q-61 0 -97.5 36t-45.5 102h46q11 -33 35.5 -54t61.5 -21z" />
    <glyph glyph-name="Uring" unicode="&#x16e;" horiz-adv-x="640" 
d="M322 87q44 0 73.5 13t44 36.5t20 48t5.5 55.5v440h116v-440q0 -250 -261 -250t-261 250v440h116v-440q0 -32 5.5 -56t20 -47.5t45 -36.5t76.5 -13zM241 790q0 33 23 54.5t56 21.5q34 0 56 -21.5t22 -54.5t-22 -54.5t-56 -21.5q-33 0 -56 21.5t-23 54.5zM278 790
q0 -19 12 -31.5t30 -12.5q19 0 31 12.5t12 31.5t-12 31.5t-31 12.5q-18 0 -30 -12.5t-12 -31.5z" />
    <glyph glyph-name="uring" unicode="&#x16f;" horiz-adv-x="530" 
d="M371 129v371h110v-500h-110v67h-2q-75 -77 -170 -77q-74 0 -112 43.5t-38 122.5v344h110v-319q0 -100 90 -100q54 0 122 48zM186 620q0 33 23 54.5t56 21.5q34 0 56 -21.5t22 -54.5t-22 -54.5t-56 -21.5q-33 0 -56 21.5t-23 54.5zM223 620q0 -19 12 -31.5t30 -12.5
q19 0 31 12.5t12 31.5t-12 31.5t-31 12.5q-18 0 -30 -12.5t-12 -31.5z" />
    <glyph glyph-name="Uhungarumlaut" unicode="&#x170;" horiz-adv-x="640" 
d="M322 87q44 0 73.5 13t44 36.5t20 48t5.5 55.5v440h116v-440q0 -250 -261 -250t-261 250v440h116v-440q0 -32 5.5 -56t20 -47.5t45 -36.5t76.5 -13zM345 850l-70 -120h-60l58 120h72zM464 850l-70 -120h-60l58 120h72z" />
    <glyph glyph-name="uhungarumlaut" unicode="&#x171;" horiz-adv-x="530" 
d="M371 129v371h110v-500h-110v67h-2q-75 -77 -170 -77q-74 0 -112 43.5t-38 122.5v344h110v-319q0 -100 90 -100q54 0 122 48zM302 680l-70 -120h-60l58 120h72zM421 680l-70 -120h-60l58 120h72z" />
    <glyph glyph-name="Uogonek" unicode="&#x172;" horiz-adv-x="640" 
d="M322 87q44 0 73.5 13t44 36.5t20 48t5.5 55.5v440h116v-440q0 -239 -240 -249q-54 -51 -54 -97q0 -53 59 -53q18 0 51 14l4 -27q-37 -29 -92 -29q-42 0 -69 20.5t-27 54.5q0 63 74 118q-228 14 -228 248v440h116v-440q0 -32 5.5 -56t20 -47.5t45 -36.5t76.5 -13z" />
    <glyph glyph-name="uogonek" unicode="&#x173;" horiz-adv-x="530" 
d="M495 -145l4 -27q-37 -29 -92 -29q-39 0 -67.5 18.5t-28.5 56.5q0 69 86 126h-26v67h-2q-75 -77 -170 -77q-74 0 -112 43.5t-38 122.5v344h110v-319q0 -100 90 -100q54 0 122 48v371h110v-500q-45 -9 -70.5 -41t-25.5 -65q0 -53 59 -53q21 0 51 14z" />
    <glyph glyph-name="Wcircumflex" unicode="&#x174;" horiz-adv-x="940" 
d="M471 493h-2l-119 -498h-149l-172 685h129l123 -537h1l123 537h136l126 -537h1l120 537h123l-172 -685h-149zM470 790l-57 -80h-85l102 140h79l102 -140h-85z" />
    <glyph glyph-name="wcircumflex" unicode="&#x175;" horiz-adv-x="790" 
d="M395 331h-2l-89 -336h-122l-150 505h123l99 -383h2l88 383h107l94 -383h2l94 383h116l-147 -505h-123zM395 640l-57 -80h-85l102 140h79l102 -140h-85z" />
    <glyph glyph-name="Ycircumflex" unicode="&#x176;" horiz-adv-x="620" 
d="M312 358h2l151 322h126l-223 -440v-240h-116v240l-223 440h132zM310 790l-57 -80h-85l102 140h79l102 -140h-85z" />
    <glyph glyph-name="ycircumflex" unicode="&#x177;" horiz-adv-x="560" 
d="M222 -8l-190 508h124l129 -387h2l123 387h117l-182 -524q-35 -102 -84 -144t-129 -42q-44 0 -82 8l10 91q27 -5 47 -5q77 0 115 108zM280 640l-57 -80h-85l102 140h79l102 -140h-85z" />
    <glyph glyph-name="Ydieresis" unicode="&#x178;" horiz-adv-x="620" 
d="M312 358h2l151 322h126l-223 -440v-240h-116v240l-223 440h132zM165 852h91v-125h-91v125zM363 852h91v-125h-91v125z" />
    <glyph glyph-name="Zacute" unicode="&#x179;" horiz-adv-x="560" 
d="M197 106v-2h328v-104h-490v85l322 489v2h-302v104h460v-85zM410 850l-89 -140h-85l57 140h117z" />
    <glyph glyph-name="zacute" unicode="&#x17a;" horiz-adv-x="470" 
d="M436 500v-79l-270 -334v-2h281v-85h-424v79l273 334v2h-258v85h398zM361 700l-89 -140h-85l57 140h117z" />
    <glyph glyph-name="Zdotaccent" unicode="&#x17b;" horiz-adv-x="560" 
d="M197 106v-2h328v-104h-490v85l322 489v2h-302v104h460v-85zM231 850h98v-113h-98v113z" />
    <glyph glyph-name="zdotaccent" unicode="&#x17c;" horiz-adv-x="470" 
d="M436 500v-79l-270 -334v-2h281v-85h-424v79l273 334v2h-258v85h398zM186 680h98v-113h-98v113z" />
    <glyph glyph-name="Zcaron" unicode="&#x17d;" horiz-adv-x="560" 
d="M197 106v-2h328v-104h-490v85l322 489v2h-302v104h460v-85zM223 850l57 -80l56 80h85l-102 -140h-79l-102 140h85z" />
    <glyph glyph-name="zcaron" unicode="&#x17e;" horiz-adv-x="470" 
d="M436 500v-79l-270 -334v-2h281v-85h-424v79l273 334v2h-258v85h398zM178 700l57 -80l56 80h85l-102 -140h-79l-102 140h85z" />
    <glyph glyph-name="longs" unicode="&#x17f;" horiz-adv-x="345" 
d="M89 -58v604q0 82 35 118t116 36q39 0 84 -8l-10 -85q-33 5 -49 5q-38 0 -52 -20.5t-14 -64.5v-594q0 -75 -33 -109t-119 -34q-40 0 -83 8l10 85q33 -5 48 -5q39 0 53 14t14 50z" />
    <glyph glyph-name="florin" unicode="&#x192;" horiz-adv-x="345" 
d="M89 -37v458h-72v72l72 7v46q0 82 35 118t116 36q39 0 84 -8l-10 -85q-33 5 -49 5q-38 0 -52 -20.5t-14 -64.5v-27h120v-79h-120v-459q0 -87 -33.5 -129.5t-118.5 -42.5q-40 0 -83 8l10 85q33 -5 48 -5q38 0 52.5 20.5t14.5 64.5z" />
    <glyph glyph-name="AEacute" unicode="&#x1fc;" horiz-adv-x="926" 
d="M425 216h-172l-108 -216h-116l337 680h506v-104h-331v-172h286v-104h-286v-196h336v-104h-452v216zM423 575l-131 -268h133v268h-2zM615 850l-89 -140h-85l57 140h117z" />
    <glyph glyph-name="aeacute" unicode="&#x1fd;" horiz-adv-x="837" 
d="M797 229h-331q5 -148 151 -148q87 0 156 20l13 -88q-82 -23 -185 -23q-154 0 -215 93q-83 -93 -195 -93q-71 0 -114 41t-43 110q0 47 20 79.5t54.5 47.5t66.5 21t69 6h102v42q0 44 -25 63t-81 19q-66 0 -158 -19l-16 88q110 22 199 22q60 0 95.5 -17.5t60.5 -63.5
q53 81 176 81q209 0 209 -198q0 -29 -9 -83zM235 75q72 0 123 47q-9 29 -12 107h-96q-106 0 -106 -79q0 -35 25 -55t66 -20zM591 425q-115 0 -125 -127h223q4 12 4 33q0 94 -102 94zM562 700l-89 -140h-85l57 140h117z" />
    <glyph glyph-name="Oslashacute" unicode="&#x1fe;" horiz-adv-x="690" 
d="M466 850l-89 -140h-85l57 140h117zM345 -10q-129 0 -201 67l-72 -90l-35 27l76 95q-64 85 -64 256q0 61 8 110t28.5 94t53 75t85 48t121.5 18q124 0 196 -61l76 97l35 -28l-79 -99q68 -84 68 -254q0 -78 -13.5 -138t-45.5 -111t-92 -78.5t-145 -27.5zM345 87q43 0 75 14
t50.5 36t29.5 57t15 70t4 81q0 102 -26 153l-279 -353q42 -58 131 -58zM345 592q-54 0 -89.5 -18t-53.5 -54t-24.5 -76.5t-6.5 -98.5q0 -101 23 -153l279 351q-41 49 -128 49z" />
    <glyph glyph-name="oslashacute" unicode="&#x1ff;" horiz-adv-x="550" 
d="M400 700l-89 -140h-85l57 140h117zM275 -10q-97 0 -153 47l-60 -70l-35 27l61 72q-49 63 -49 184q0 260 236 260q97 0 152 -47l61 71l34 -28l-61 -72q50 -64 50 -184q0 -260 -236 -260zM275 81q66 0 93 44t27 125q0 52 -16 88l-190 -223q31 -34 86 -34zM275 419
q-66 0 -93 -44t-27 -125q0 -56 16 -88l189 222q-32 35 -85 35z" />
    <glyph glyph-name="Scommaaccent" unicode="&#x218;" 
d="M300 -10q-129 0 -251 36l20 98q126 -30 231 -30q61 0 95 26.5t34 65.5q0 12 -2.5 22t-9.5 19t-13 15.5t-18.5 12.5l-20.5 10t-24.5 9.5t-24 7.5l-26.5 7t-25 7q-206 56 -206 209q0 94 66.5 139.5t174.5 45.5q112 0 235 -36l-26 -98q-126 30 -209 30q-61 0 -90 -23
t-29 -61q0 -24 13.5 -42t40.5 -30.5t50.5 -20t60.5 -15.5q205 -47 205 -199q0 -101 -69.5 -153t-181.5 -52zM298 -209h-35l21 84h-31v85h97v-85z" />
    <glyph glyph-name="scommaaccent" unicode="&#x219;" horiz-adv-x="480" 
d="M446 147q0 -77 -50 -117t-141 -40q-129 0 -221 23l20 88q93 -23 188 -23q52 0 73 20t21 41q0 23 -22.5 37.5t-76.5 24.5q-94 17 -143.5 52.5t-49.5 111.5q0 145 191 145q113 0 205 -23l-20 -88q-93 23 -179 23q-49 0 -68 -17.5t-19 -36.5q0 -23 19.5 -37.5t74.5 -26.5
q36 -8 59.5 -14t52.5 -18.5t45.5 -28t28.5 -40t12 -56.5zM238 -209h-35l21 84h-31v85h97v-85z" />
    <glyph glyph-name="uni021A" unicode="&#x21a;" horiz-adv-x="560" 
d="M521 576h-183v-576h-116v576h-183v104h482v-104zM277 -209h-35l21 84h-31v85h97v-85z" />
    <glyph glyph-name="uni021B" unicode="&#x21b;" horiz-adv-x="375" 
d="M89 144v277h-72v72l72 7l13 140h97v-140h132v-79h-132v-258q0 -43 18 -64t60 -21q16 0 49 5l10 -85q-43 -8 -96 -8q-81 0 -116 36t-35 118zM209 -211h-35l21 84h-31v85h97v-85z" />
    <glyph glyph-name="dotlessj" unicode="&#x237;" horiz-adv-x="247" 
d="M199 500v-567q0 -75 -33.5 -109t-118.5 -34q-40 0 -83 8l10 85q33 -5 48 -5q38 0 52.5 13.5t14.5 50.5v558h110z" />
    <glyph glyph-name="circumflex" unicode="&#x2c6;" horiz-adv-x="397" 
d="M199 640l-57 -80h-85l102 140h79l102 -140h-85z" />
    <glyph glyph-name="caron" unicode="&#x2c7;" horiz-adv-x="397" 
d="M142 700l57 -80l56 80h85l-102 -140h-79l-102 140h85z" />
    <glyph glyph-name="uni02C9" unicode="&#x2c9;" horiz-adv-x="432" 
d="M57 661h318v-72h-318v72z" />
    <glyph glyph-name="breve" unicode="&#x2d8;" horiz-adv-x="401" 
d="M200 627q38 0 62.5 21t35.5 54h46q-9 -66 -45.5 -102t-98.5 -36q-61 0 -97.5 36t-45.5 102h46q11 -33 35.5 -54t61.5 -21z" />
    <glyph glyph-name="dotaccent" unicode="&#x2d9;" horiz-adv-x="212" 
d="M57 680h98v-113h-98v113z" />
    <glyph glyph-name="ring" unicode="&#x2da;" horiz-adv-x="272" 
d="M57 620q0 33 23 54.5t56 21.5q34 0 56 -21.5t22 -54.5t-22 -54.5t-56 -21.5q-33 0 -56 21.5t-23 54.5zM94 620q0 -19 12 -31.5t30 -12.5q19 0 31 12.5t12 31.5t-12 31.5t-31 12.5q-18 0 -30 -12.5t-12 -31.5z" />
    <glyph glyph-name="ogonek" unicode="&#x2db;" horiz-adv-x="303" 
d="M241 -145l5 -27q-37 -29 -93 -29q-41 0 -68.5 20.5t-27.5 54.5q0 69 86 126h55q-66 -52 -66 -106q0 -53 58 -53q21 0 51 14z" />
    <glyph glyph-name="tilde" unicode="&#x2dc;" horiz-adv-x="448" 
d="M168 605q-18 0 -33 -8.5t-43 -36.5l-35 40q47 87 108 87q26 0 71.5 -24t60.5 -24q32 0 65 43l29 -46q-39 -77 -94 -77q-19 0 -64.5 23t-64.5 23z" />
    <glyph glyph-name="hungarumlaut" unicode="&#x2dd;" horiz-adv-x="364" 
d="M187 680l-70 -120h-60l58 120h72zM306 680l-70 -120h-60l58 120h72z" />
    <glyph glyph-name="uni037E" unicode="&#x37e;" horiz-adv-x="247" 
d="M69 319h110v-138h-110v138z" />
    <glyph glyph-name="tonos" unicode="&#x384;" horiz-adv-x="264" 
d="M206 680l-89 -120h-60l58 120h91z" />
    <glyph glyph-name="dieresistonos" unicode="&#x385;" horiz-adv-x="520" 
d="M57 680h92v-113h-92v113zM371 680h91v-113h-91v113zM341 700l-89 -133h-60l58 133h91z" />
    <glyph glyph-name="anoteleia" unicode="&#x387;" horiz-adv-x="451" 
d="M57 680h92v-113h-92v113zM302 680h92v-113h-92v113z" />
    <glyph glyph-name="uni03BC" unicode="&#x3bc;" horiz-adv-x="530" 
d="M159 500v-323q2 -96 90 -96q54 0 122 48v371h110v-500h-110v67h-2q-60 -58 -126 -69q-60 -5 -84 25v-61q0 -91 -38.5 -131.5t-119.5 -40.5q-34 0 -77 8l10 85q33 -5 48 -5q38 0 52.5 21t14.5 64v537h110z" />
    <glyph glyph-name="pi" unicode="&#x3c0;" horiz-adv-x="530" 
d="M159 0h-110v500h432v-500h-110v402h-212v-402z" />
    <glyph glyph-name="uni03C2" unicode="&#x3c2;" horiz-adv-x="513" 
d="M100 249q0 68 48 114l-78 90l8 8l79 -90q44 36 100 36q55 0 99 -36l78 90l9 -8l-78 -89q50 -47 50 -115t-49 -114l76 -86l-9 -9l-77 87q-43 -35 -99 -35q-57 0 -100 35l-76 -87l-9 9l76 86q-48 46 -48 114zM112 249q0 -59 43 -102t102 -43t102.5 43t43.5 102t-43.5 102.5
t-102.5 43.5t-102 -43.5t-43 -102.5z" />
    <glyph glyph-name="sigma" unicode="&#x3c3;" horiz-adv-x="513" 
d="M100 249q0 68 48 114l-78 90l8 8l79 -90q44 36 100 36q55 0 99 -36l78 90l9 -8l-78 -89q50 -47 50 -115t-49 -114l76 -86l-9 -9l-77 87q-43 -35 -99 -35q-57 0 -100 35l-76 -87l-9 9l76 86q-48 46 -48 114zM112 249q0 -59 43 -102t102 -43t102.5 43t43.5 102t-43.5 102.5
t-102.5 43.5t-102 -43.5t-43 -102.5z" />
    <glyph glyph-name="Wgrave" unicode="&#x1e80;" horiz-adv-x="940" 
d="M471 493h-2l-119 -498h-149l-172 685h129l123 -537h1l123 537h136l126 -537h1l120 537h123l-172 -685h-149zM437 710l-89 140h116l58 -140h-85z" />
    <glyph glyph-name="wgrave" unicode="&#x1e81;" horiz-adv-x="790" 
d="M395 331h-2l-89 -336h-122l-150 505h123l99 -383h2l88 383h107l94 -383h2l94 383h116l-147 -505h-123zM351 560l-89 140h116l58 -140h-85z" />
    <glyph glyph-name="Wacute" unicode="&#x1e82;" horiz-adv-x="940" 
d="M471 493h-2l-119 -498h-149l-172 685h129l123 -537h1l123 537h136l126 -537h1l120 537h123l-172 -685h-149zM606 850l-89 -140h-85l57 140h117z" />
    <glyph glyph-name="wacute" unicode="&#x1e83;" horiz-adv-x="790" 
d="M395 331h-2l-89 -336h-122l-150 505h123l99 -383h2l88 383h107l94 -383h2l94 383h116l-147 -505h-123zM530 698l-89 -140h-85l57 140h117z" />
    <glyph glyph-name="Wdieresis" unicode="&#x1e84;" horiz-adv-x="940" 
d="M471 493h-2l-119 -498h-149l-172 685h129l123 -537h1l123 537h136l126 -537h1l120 537h123l-172 -685h-149zM325 852h91v-125h-91v125zM523 852h91v-125h-91v125z" />
    <glyph glyph-name="wdieresis" unicode="&#x1e85;" horiz-adv-x="790" 
d="M395 331h-2l-89 -336h-122l-150 505h123l99 -383h2l88 383h107l94 -383h2l94 383h116l-147 -505h-123zM250 692h91v-125h-91v125zM448 692h91v-125h-91v125z" />
    <glyph glyph-name="Ygrave" unicode="&#x1ef2;" horiz-adv-x="620" 
d="M312 358h2l151 322h126l-223 -440v-240h-116v240l-223 440h132zM272 710l-89 140h116l58 -140h-85z" />
    <glyph glyph-name="ygrave" unicode="&#x1ef3;" horiz-adv-x="560" 
d="M222 -8l-190 508h124l129 -387h2l123 387h117l-182 -524q-35 -102 -84 -144t-129 -42q-44 0 -82 8l10 91q27 -5 47 -5q77 0 115 108zM237 560l-89 140h116l58 -140h-85z" />
    <glyph glyph-name="figuredash" unicode="&#x2012;" horiz-adv-x="696" 
d="M49 311h598v-92h-598v92z" />
    <glyph glyph-name="endash" unicode="&#x2013;" horiz-adv-x="696" 
d="M49 311h598v-92h-598v92z" />
    <glyph glyph-name="emdash" unicode="&#x2014;" horiz-adv-x="760" 
d="M49 311h662v-92h-662v92z" />
    <glyph glyph-name="quoteleft" unicode="&#x2018;" horiz-adv-x="207" 
d="M102 680h35l-22 -130h44v-138h-110v138z" />
    <glyph glyph-name="quoteright" unicode="&#x2019;" horiz-adv-x="207" 
d="M105 412h-35l22 130h-43v138h110v-138z" />
    <glyph glyph-name="quotesinglbase" unicode="&#x201a;" horiz-adv-x="207" 
d="M105 -168h-35l22 130h-43v138h110v-138z" />
    <glyph glyph-name="quotedblleft" unicode="&#x201c;" horiz-adv-x="427" 
d="M322 680h35l-22 -130h44v-138h-110v138q9 26 53 130zM102 680h35l-22 -130h44v-138h-110v138z" />
    <glyph glyph-name="quotedblright" unicode="&#x201d;" horiz-adv-x="427" 
d="M105 412h-35l22 130h-43v138h110v-138zM325 412h-35l22 130h-43v138h110v-138z" />
    <glyph glyph-name="quotedblbase" unicode="&#x201e;" horiz-adv-x="427" 
d="M105 -168h-35l22 130h-43v138h110v-138zM325 -168h-35l22 130h-43v138h110v-138z" />
    <glyph glyph-name="dagger" unicode="&#x2020;" horiz-adv-x="580" 
d="M531 396l-189 6l6 -402h-116l6 402l-189 -6v104l189 -6l-6 206h116l-6 -206l189 6v-104z" />
    <glyph glyph-name="daggerdbl" unicode="&#x2021;" horiz-adv-x="580" 
d="M238 277v145l-189 -6v104l189 -6l-6 186h116l-6 -186l189 6v-104l-189 6v-145l189 7v-104l-189 6l6 -186h-116l6 186l-189 -6v104z" />
    <glyph glyph-name="bullet" unicode="&#x2022;" horiz-adv-x="247" 
d="M69 319h110v-138h-110v138z" />
    <glyph glyph-name="onedotenleader" unicode="&#x2024;" horiz-adv-x="207" 
d="M49 137h110v-137h-110v137z" />
    <glyph glyph-name="twodotenleader" unicode="&#x2025;" horiz-adv-x="370" 
d="M49 137h110v-137h-110v137zM211 137h110v-137h-110v137z" />
    <glyph glyph-name="ellipsis" unicode="&#x2026;" horiz-adv-x="607" 
d="M49 137h110v-137h-110v137zM449 137h110v-137h-110v137zM249 137h110v-137h-110v137z" />
    <glyph glyph-name="perthousand" unicode="&#x2030;" horiz-adv-x="1085" 
d="M601 680l-370 -680h-72l370 680h72zM181 400q-67 0 -103.5 38t-36.5 105t36.5 105t103.5 38t103 -38t36 -105t-36 -105t-103 -38zM181 456q70 0 70 87t-70 87t-70 -87t70 -87zM579 -6q-67 0 -103 38t-36 105t36 105t103 38t103.5 -38t36.5 -105t-36.5 -105t-103.5 -38z
M579 50q70 0 70 87t-70 87t-70 -87t70 -87zM904 -6q-67 0 -103 38t-36 105t36 105t103 38t103.5 -38t36.5 -105t-36.5 -105t-103.5 -38zM904 50q70 0 70 87t-70 87t-70 -87t70 -87z" />
    <glyph glyph-name="guilsinglleft" unicode="&#x2039;" horiz-adv-x="380" 
d="M49 283l282 168v-98l-166 -103l166 -103v-98l-282 168v66z" />
    <glyph glyph-name="guilsinglright" unicode="&#x203a;" horiz-adv-x="380" 
d="M331 217l-282 -168v98l166 103l-166 103v98l282 -168v-66z" />
    <glyph glyph-name="exclamdbl" unicode="&#x203c;" horiz-adv-x="370" 
d="M49 137h110v-137h-110v137zM49 680h110l-7 -464h-97zM211 137h110v-137h-110v137zM211 680h110l-6 -464h-98z" />
    <glyph glyph-name="fraction" unicode="&#x2044;" horiz-adv-x="540" 
d="M504 680l-370 -680h-98l370 680h98z" />
    <glyph glyph-name="zerosuperior" unicode="&#x2070;" horiz-adv-x="330" 
d="M165 823q-64 0 -64 -125q0 -131 64 -131t64 131q0 125 -64 125zM165 520q-65 0 -94.5 49t-29.5 129q0 172 124 172t124 -172q0 -80 -29.5 -129t-94.5 -49z" />
    <glyph glyph-name="foursuperior" unicode="&#x2074;" horiz-adv-x="340" 
d="M100 659h97v137q-35 -61 -97 -137zM183 870h70v-211h46v-47h-46v-82h-56v82h-156v47q92 101 142 211z" />
    <glyph glyph-name="fivesuperior" unicode="&#x2075;" horiz-adv-x="320" 
d="M155 520q-56 0 -114 32l17 43q56 -28 94 -28q28 0 47.5 18t19.5 48q0 26 -14.5 45t-45.5 19q-35 0 -59 -28l-41 4l7 192h193v-50h-144l-5 -96l1 -1q30 28 68 28q46 0 73 -28.5t27 -80.5q0 -54 -34 -85.5t-90 -31.5z" />
    <glyph glyph-name="sixsuperior" unicode="&#x2076;" horiz-adv-x="320" 
d="M98 714h1q30 38 75 38q49 0 77 -30.5t28 -86.5q0 -53 -32 -84t-83 -31q-64 0 -93.5 44t-29.5 111q0 195 146 195q40 0 81 -17l-7 -43q-38 13 -69 13q-42 0 -68 -32.5t-26 -76.5zM102 671q-6 -104 58 -104q25 0 42 18t17 50q0 28 -13.5 48t-46.5 20q-30 0 -57 -32z" />
    <glyph glyph-name="sevensuperior" unicode="&#x2077;" horiz-adv-x="315" 
d="M212 819v1h-171v50h233v-41q-33 -56 -51.5 -90.5t-40.5 -93t-31 -115.5h-60q11 66 45.5 146.5t75.5 142.5z" />
    <glyph glyph-name="eightsuperior" unicode="&#x2078;" horiz-adv-x="330" 
d="M215 705q37 -20 55.5 -40t18.5 -50q0 -46 -35 -70.5t-91 -24.5q-54 0 -88 23t-34 67q0 57 73 86q-63 32 -63 85q0 42 33 65.5t82 23.5q47 0 80 -23t33 -63q0 -28 -16 -46t-48 -33zM100 615q0 -24 17.5 -38.5t49.5 -14.5q62 0 64 49q0 16 -11 28.5t-25 19.5t-38 16
q-57 -22 -57 -60zM165 828q-22 0 -39.5 -11.5t-17.5 -34.5q0 -40 64 -57q50 18 50 54q0 24 -17.5 36.5t-39.5 12.5z" />
    <glyph glyph-name="ninesuperior" unicode="&#x2079;" horiz-adv-x="320" 
d="M222 676h-1q-30 -38 -76 -38q-48 0 -76 30.5t-28 86.5q0 53 32 84t83 31q64 0 93.5 -44t29.5 -111q0 -195 -146 -195q-40 0 -81 17l7 43q36 -13 69 -13q42 0 68 32.5t26 76.5zM217 719q8 104 -58 104q-25 0 -41.5 -18t-16.5 -50q0 -28 13.5 -48t46.5 -20q31 0 56 32z" />
    <glyph glyph-name="parenleftsuperior" unicode="&#x207d;" horiz-adv-x="207" 
d="M41 690q0 131 87 240h38q-68 -116 -68 -240q0 -120 68 -240h-38q-87 109 -87 240z" />
    <glyph glyph-name="parenrightsuperior" unicode="&#x207e;" horiz-adv-x="207" 
d="M166 690q0 -131 -87 -240h-38q68 118 68 240q0 126 -68 240h38q87 -109 87 -240z" />
    <glyph glyph-name="nsuperior" unicode="&#x207f;" horiz-adv-x="299" 
d="M96 615v-185h-55v250h55v-34h1q37 39 85 39q75 0 75 -83v-172h-55v159q0 50 -45 50q-27 0 -61 -24z" />
    <glyph glyph-name="zeroinferior" unicode="&#x2080;" horiz-adv-x="330" 
d="M165 93q-64 0 -64 -125q0 -131 64 -131t64 131q0 125 -64 125zM165 -210q-65 0 -94.5 49t-29.5 129q0 172 124 172t124 -172q0 -80 -29.5 -129t-94.5 -49z" />
    <glyph glyph-name="oneinferior" unicode="&#x2081;" horiz-adv-x="300" 
d="M35 -153h97v232l-41.5 -20l-34.5 -17l-15 44q72 29 107 57h41v-296h97v-47h-251v47z" />
    <glyph glyph-name="twoinferior" unicode="&#x2082;" horiz-adv-x="310" 
d="M140 93q-36 0 -82 -23l-17 44q59 31 115 31q52 0 80 -29t28 -73q0 -50 -35.5 -95.5t-107.5 -96.5v-1h148v-50h-228v54q163 106 163 177q0 62 -64 62z" />
    <glyph glyph-name="threeinferior" unicode="&#x2083;" horiz-adv-x="320" 
d="M207 -28q34 -9 53 -32t19 -53q0 -47 -32 -72t-91 -25q-66 0 -115 30l17 44q54 -27 97 -27q35 0 50 15.5t15 34.5q0 55 -72 55h-44v46h41q35 0 51 16.5t16 39.5q0 20 -13 34.5t-41 14.5q-36 0 -92 -27l-17 43q53 31 114 31q47 0 76.5 -23.5t29.5 -65.5q0 -57 -62 -79z" />
    <glyph glyph-name="fourinferior" unicode="&#x2084;" horiz-adv-x="340" 
d="M100 -71h97v137q-35 -61 -97 -137zM183 140h70v-211h46v-47h-46v-82h-56v82h-156v47q92 101 142 211z" />
    <glyph glyph-name="fiveinferior" unicode="&#x2085;" horiz-adv-x="320" 
d="M155 -210q-56 0 -114 32l17 43q56 -28 94 -28q28 0 47.5 18t19.5 48q0 26 -14.5 45t-45.5 19q-35 0 -59 -28l-41 4l7 192h193v-50h-144l-5 -96l1 -1q30 28 68 28q46 0 73 -28.5t27 -80.5q0 -54 -34 -85.5t-90 -31.5z" />
    <glyph glyph-name="sixinferior" unicode="&#x2086;" horiz-adv-x="320" 
d="M98 -16h1q30 38 75 38q49 0 77 -30.5t28 -86.5q0 -53 -32 -84t-83 -31q-64 0 -93.5 44t-29.5 111q0 195 146 195q40 0 81 -17l-7 -43q-38 13 -69 13q-42 0 -68 -32.5t-26 -76.5zM102 -59q-6 -104 58 -104q25 0 42 18t17 50q0 28 -13.5 48t-46.5 20q-30 0 -57 -32z" />
    <glyph glyph-name="seveninferior" unicode="&#x2087;" horiz-adv-x="315" 
d="M212 89v1h-171v50h233v-41q-33 -56 -51.5 -90.5t-40.5 -93t-31 -115.5h-60q11 66 45.5 146.5t75.5 142.5z" />
    <glyph glyph-name="eightinferior" unicode="&#x2088;" horiz-adv-x="330" 
d="M215 -25q37 -20 55.5 -40t18.5 -50q0 -46 -35 -70.5t-91 -24.5q-54 0 -88 23t-34 67q0 57 73 86q-63 32 -63 85q0 42 33 65.5t82 23.5q47 0 80 -23t33 -63q0 -28 -16 -46t-48 -33zM100 -115q0 -24 17.5 -38.5t49.5 -14.5q62 0 64 49q0 16 -11 28.5t-25 19.5t-38 16
q-57 -22 -57 -60zM165 98q-22 0 -39.5 -11.5t-17.5 -34.5q0 -40 64 -57q50 18 50 54q0 24 -17.5 36.5t-39.5 12.5z" />
    <glyph glyph-name="nineinferior" unicode="&#x2089;" horiz-adv-x="320" 
d="M222 -54h-1q-30 -38 -76 -38q-48 0 -76 30.5t-28 86.5q0 53 32 84t83 31q64 0 93.5 -44t29.5 -111q0 -195 -146 -195q-40 0 -81 17l7 43q36 -13 69 -13q42 0 68 32.5t26 76.5zM217 -11q8 104 -58 104q-25 0 -41.5 -18t-16.5 -50q0 -28 13.5 -48t46.5 -20q31 0 56 32z" />
    <glyph glyph-name="parenleftinferior" unicode="&#x208d;" horiz-adv-x="207" 
d="M41 -40q0 131 87 240h38q-68 -116 -68 -240q0 -120 68 -240h-38q-87 109 -87 240z" />
    <glyph glyph-name="parenrightinferior" unicode="&#x208e;" horiz-adv-x="207" 
d="M166 -40q0 -131 -87 -240h-38q68 118 68 240q0 126 -68 240h38q87 -109 87 -240z" />
    <glyph glyph-name="colonmonetary" unicode="&#x20a1;" horiz-adv-x="630" 
d="M434 -100h-48v91q-13 -1 -41 -1q-23 0 -61 4v-94h-48v104q-55 17 -93 50t-57.5 80t-28 97.5t-8.5 113.5q0 62 8.5 111t28.5 94.5t57.5 77.5t92.5 48v104h48v-94q38 4 61 4q28 0 41 -1v91h48v-95q76 -7 151 -31l-26 -98q-124 30 -202 30q-101 0 -143.5 -62t-42.5 -179
q0 -121 41.5 -186t144.5 -65q76 0 202 30l26 -98q-85 -23 -151 -31v-95z" />
    <glyph glyph-name="franc" unicode="&#x20a3;" horiz-adv-x="700" 
d="M254 443h186l-8 -66h-194q-1 -11 -1 -32q0 -14 2 -42h201l-8 -66h-176q42 -143 174 -143q95 0 186 69l39 -88q-106 -85 -244 -85q-118 0 -189 67t-96 180h-81v66h71q-1 13 -1 42q0 21 1 32h-71v66h80q21 112 93.5 179.5t192.5 67.5q138 0 244 -85l-39 -88q-91 69 -186 69
q-138 0 -176 -143z" />
    <glyph glyph-name="lira" unicode="&#x20a4;" horiz-adv-x="700" 
d="M254 443h186l-8 -66h-194q-1 -11 -1 -32q0 -14 2 -42h201l-8 -66h-176q42 -143 174 -143q95 0 186 69l39 -88q-106 -85 -244 -85q-118 0 -189 67t-96 180h-81v66h71q-1 13 -1 42q0 21 1 32h-71v66h80q21 112 93.5 179.5t192.5 67.5q138 0 244 -85l-39 -88q-91 69 -186 69
q-138 0 -176 -143z" />
    <glyph glyph-name="peseta" unicode="&#x20a7;" horiz-adv-x="700" 
d="M254 443h186l-8 -66h-194q-1 -11 -1 -32q0 -14 2 -42h201l-8 -66h-176q42 -143 174 -143q95 0 186 69l39 -88q-106 -85 -244 -85q-118 0 -189 67t-96 180h-81v66h71q-1 13 -1 42q0 21 1 32h-71v66h80q21 112 93.5 179.5t192.5 67.5q138 0 244 -85l-39 -88q-91 69 -186 69
q-138 0 -176 -143z" />
    <glyph glyph-name="Euro" unicode="&#x20ac;" horiz-adv-x="700" 
d="M254 443h186l-8 -66h-194q-1 -11 -1 -32q0 -14 2 -42h201l-8 -66h-176q42 -143 174 -143q95 0 186 69l39 -88q-106 -85 -244 -85q-118 0 -189 67t-96 180h-81v66h71q-1 13 -1 42q0 21 1 32h-71v66h80q21 112 93.5 179.5t192.5 67.5q138 0 244 -85l-39 -88q-91 69 -186 69
q-138 0 -176 -143z" />
    <glyph glyph-name="litre" unicode="&#x2113;" horiz-adv-x="449" 
d="M42 156l-12 11l94 99v243q0 102 40 151q42 50 100 50q44 0 70 -27t26 -72q0 -51 -31 -112q-31 -63 -129 -176v-168q0 -75 23 -106q22 -29 60 -29q35 0 64 29q32 29 54 103h18q-21 -83 -68 -127q-37 -35 -89 -35q-43 0 -77.5 24.5t-49.5 65.5q-11 33 -11 107v52zM200 543
v-193q134 155 134 242q0 41 -19 65t-48 24t-48 -28t-19 -110z" />
    <glyph glyph-name="afii61352" unicode="&#x2116;" horiz-adv-x="1063" 
d="M837 350q-81 0 -124 45t-43 125t43 125t124 45t124 -45t43 -125t-43 -125t-124 -45zM670 320h334v-66h-334v66zM837 411q43 0 66.5 28t23.5 81t-23.5 81t-66.5 28t-66.5 -28t-23.5 -81t23.5 -81t66.5 -28zM172 0h-113v680h116l301 -466h2v466h113v-680h-116l-301 453h-2
v-453z" />
    <glyph glyph-name="trademark" unicode="&#x2122;" horiz-adv-x="792" 
d="M475 680l96 -234h1l90 234h93v-344h-66v233h-2l-95 -233h-52l-93 233h-1v-233h-63v344h92zM306 621h-101v-285h-66v285h-102v59h269v-59z" />
    <glyph glyph-name="Omega" unicode="&#x2126;" horiz-adv-x="670" 
d="M335 690q145 0 220.5 -84t75.5 -216q0 -90 -46.5 -162.5t-135.5 -93.5v-55h182v-79h-260v182q68 9 103 62.5t35 145.5q0 93 -41.5 147.5t-132.5 54.5t-132.5 -54.5t-41.5 -147.5q0 -92 35 -145.5t103 -62.5v-182h-260v79h182v55q-89 21 -135.5 93.5t-46.5 162.5
q0 132 75.5 216t220.5 84z" />
    <glyph glyph-name="estimated" unicode="&#x212e;" horiz-adv-x="736" 
d="M706 349h-528v-235q81 -78 190 -78q163 0 252 157l46 -26q-67 -96 -133 -136.5t-165 -40.5q-150 0 -244 102.5t-94 256.5q0 158 94.5 259.5t243.5 101.5q141 0 236.5 -94.5t101.5 -266.5zM178 397h380v189q-82 77 -191 77q-110 0 -189 -77v-189z" />
    <glyph glyph-name="onethird" unicode="&#x2153;" horiz-adv-x="800" 
d="M616 680l-370 -680h-35l370 680h35zM35 377h97v232l-34.5 -17l-41.5 -20l-14 44q75 31 106 57h41v-296h97v-47h-251v47zM693 172q35 -9 53.5 -32t18.5 -53q0 -47 -32 -72t-90 -25q-68 0 -115 30l17 44q54 -27 97 -27q34 0 49.5 15.5t15.5 34.5q0 55 -73 55h-44v46h41
q35 0 51 16.5t16 39.5q0 20 -13 34.5t-41 14.5q-35 0 -91 -27l-17 43q53 31 113 31q47 0 76.5 -23.5t29.5 -65.5q0 -57 -62 -79z" />
    <glyph glyph-name="twothirds" unicode="&#x2154;" horiz-adv-x="800" 
d="M616 680l-370 -680h-35l370 680h35zM693 172q35 -9 53.5 -32t18.5 -53q0 -47 -32 -72t-90 -25q-68 0 -115 30l17 44q54 -27 97 -27q34 0 49.5 15.5t15.5 34.5q0 55 -73 55h-44v46h41q35 0 51 16.5t16 39.5q0 20 -13 34.5t-41 14.5q-35 0 -91 -27l-17 43q53 31 113 31
q47 0 76.5 -23.5t29.5 -65.5q0 -57 -62 -79zM133 623q-35 0 -81 -23l-17 44q59 31 114 31q52 0 80 -29t28 -73q0 -50 -35 -96t-107 -96v-1h147v-50h-227v54q163 106 163 177q0 62 -65 62z" />
    <glyph glyph-name="oneeighth" unicode="&#x215b;" horiz-adv-x="800" 
d="M616 680l-370 -680h-35l370 680h35zM35 377h97v232l-34.5 -17l-41.5 -20l-14 44q75 31 106 57h41v-296h97v-47h-251v47zM691 175q37 -20 55.5 -40t18.5 -50q0 -46 -35 -70.5t-90 -24.5q-54 0 -88 23t-34 67q0 57 73 86q-63 32 -63 85q0 42 33 65.5t82 23.5q47 0 79.5 -23
t32.5 -63q0 -28 -16 -46t-48 -33zM576 85q0 -24 17.5 -38.5t49.5 -14.5q64 0 64 49q1 23 -17.5 37t-56.5 27q-57 -22 -57 -60zM641 298q-22 0 -39.5 -11.5t-17.5 -34.5q0 -39 64 -57q50 18 50 54q0 24 -17.5 36.5t-39.5 12.5z" />
    <glyph glyph-name="threeeighths" unicode="&#x215c;" horiz-adv-x="800" 
d="M608 680l-370 -680h-35l370 680h35zM691 175q37 -20 55.5 -40t18.5 -50q0 -46 -35 -70.5t-90 -24.5q-54 0 -88 23t-34 67q0 57 73 86q-63 32 -63 85q0 42 33 65.5t82 23.5q47 0 79.5 -23t32.5 -63q0 -28 -16 -46t-48 -33zM576 85q0 -24 17.5 -38.5t49.5 -14.5q64 0 64 49
q1 23 -17.5 37t-56.5 27q-57 -22 -57 -60zM641 298q-22 0 -39.5 -11.5t-17.5 -34.5q0 -39 64 -57q50 18 50 54q0 24 -17.5 36.5t-39.5 12.5zM201 502q34 -9 52.5 -32t18.5 -53q0 -47 -32 -72t-90 -25q-66 0 -115 30l17 44q54 -27 97 -27q34 0 49.5 15.5t15.5 34.5
q0 55 -73 55h-43v46h40q35 0 51.5 16.5t16.5 39.5q0 19 -13.5 34t-40.5 15q-36 0 -92 -27l-17 43q53 31 114 31q47 0 76 -23.5t29 -65.5q0 -58 -61 -79z" />
    <glyph glyph-name="fiveeighths" unicode="&#x215d;" horiz-adv-x="800" 
d="M608 680l-370 -680h-35l370 680h35zM691 175q37 -20 55.5 -40t18.5 -50q0 -46 -35 -70.5t-90 -24.5q-54 0 -88 23t-34 67q0 57 73 86q-63 32 -63 85q0 42 33 65.5t82 23.5q47 0 79.5 -23t32.5 -63q0 -28 -16 -46t-48 -33zM576 85q0 -24 17.5 -38.5t49.5 -14.5q64 0 64 49
q1 23 -17.5 37t-56.5 27q-57 -22 -57 -60zM641 298q-22 0 -39.5 -11.5t-17.5 -34.5q0 -39 64 -57q50 18 50 54q0 24 -17.5 36.5t-39.5 12.5zM149 320q-56 0 -114 32l17 43q56 -28 94 -28q28 0 47.5 18t19.5 48q0 26 -14.5 45t-45.5 19q-37 0 -59 -28l-41 4l7 192h192v-50
h-143l-5 -96l1 -1q28 28 67 28q46 0 73 -28.5t27 -80.5q0 -54 -33.5 -85.5t-89.5 -31.5z" />
    <glyph glyph-name="seveneighths" unicode="&#x215e;" horiz-adv-x="800" 
d="M558 680l-370 -680h-35l370 680h35zM691 175q37 -20 55.5 -40t18.5 -50q0 -46 -35 -70.5t-90 -24.5q-54 0 -88 23t-34 67q0 57 73 86q-63 32 -63 85q0 42 33 65.5t82 23.5q47 0 79.5 -23t32.5 -63q0 -28 -16 -46t-48 -33zM576 85q0 -24 17.5 -38.5t49.5 -14.5q64 0 64 49
q1 23 -17.5 37t-56.5 27q-57 -22 -57 -60zM641 298q-22 0 -39.5 -11.5t-17.5 -34.5q0 -39 64 -57q50 18 50 54q0 24 -17.5 36.5t-39.5 12.5zM206 619v1h-171v50h232v-41q-32 -54 -51 -90t-40.5 -94t-30.5 -115h-60q11 66 45.5 146.5t75.5 142.5z" />
    <glyph glyph-name="partialdiff" unicode="&#x2202;" horiz-adv-x="574" 
d="M424 376h1l1 1q12 89 -30 155.5t-128 66.5q-66 0 -142 -27l-2 85q86 33 166 33q290 0 236 -390q-9 -63 -29.5 -116.5t-54.5 -98t-86.5 -70t-118.5 -25.5q-101 0 -155.5 62t-39.5 168q16 112 80 173.5t161 61.5q91 0 141 -79zM405 292q-42 67 -107 67q-67 0 -100 -41
t-40 -98q-9 -66 19.5 -102.5t79.5 -36.5q132 0 148 211z" />
    <glyph glyph-name="Delta" unicode="&#x2206;" horiz-adv-x="628" 
d="M294 710l284 -710h-528zM274 538l-168 -491h358z" />
    <glyph glyph-name="product" unicode="&#x220f;" horiz-adv-x="650" 
d="M169 0h-110v700h532v-700h-110v602h-312v-602z" />
    <glyph glyph-name="summation" unicode="&#x2211;" horiz-adv-x="550" 
d="M203 574l154 -234l-153 -234v-2h301v-104h-460v85l166 254l-166 256v85h460v-104h-302v-2z" />
    <glyph glyph-name="minus" unicode="&#x2212;" horiz-adv-x="500" 
d="M49 311h402v-92h-402v92z" />
    <glyph glyph-name="uni2215" unicode="&#x2215;" horiz-adv-x="540" 
d="M504 680l-370 -680h-98l370 680h98z" />
    <glyph glyph-name="uni2219" unicode="&#x2219;" horiz-adv-x="247" 
d="M69 319h110v-138h-110v138z" />
    <glyph glyph-name="radical" unicode="&#x221a;" horiz-adv-x="804" 
d="M69 324v66h261l91 -273h2l195 583h117l-249 -705h-134l-122 329h-161z" />
    <glyph glyph-name="infinity" unicode="&#x221e;" horiz-adv-x="678" 
d="M177 331q-36 0 -59.5 -21.5t-23.5 -61.5q0 -34 21.5 -58.5t61.5 -24.5q39 0 70.5 26.5t48.5 56.5q-14 28 -48 55.5t-71 27.5zM335 202q-23 -40 -67 -69.5t-101 -29.5q-65 0 -104 40.5t-39 106.5q0 65 41.5 106t113.5 41q93 0 164 -100q65 100 167 100q66 0 105 -40.5
t39 -106.5q0 -62 -42 -104.5t-112 -42.5q-98 0 -165 99zM500 334q-38 0 -70 -26.5t-49 -58.5q16 -31 50 -55.5t67 -24.5q43 0 64.5 23.5t21.5 58.5t-20.5 59t-63.5 24z" />
    <glyph glyph-name="integral" unicode="&#x222b;" horiz-adv-x="345" 
d="M89 -58v604q0 82 35 118t116 36q39 0 84 -8l-10 -85q-33 5 -49 5q-38 0 -52 -20.5t-14 -64.5v-594q0 -75 -33 -109t-119 -34q-40 0 -83 8l10 85q33 -5 48 -5q39 0 53 14t14 50z" />
    <glyph glyph-name="approxequal" unicode="&#x2248;" horiz-adv-x="481" 
d="M159 351q-32 0 -76 -45l-34 28q49 93 107 93q26 0 96.5 -24t85.5 -24q12 0 19 1t20 10t26 26l29 -33q-38 -77 -94 -77q-19 0 -89.5 22.5t-89.5 22.5zM159 151q-32 0 -76 -45l-34 28q49 93 107 93q26 0 96.5 -24t85.5 -24q12 0 19 1t20 10t26 26l29 -33q-38 -77 -94 -77
q-19 0 -89.5 22.5t-89.5 22.5z" />
    <glyph glyph-name="notequal" unicode="&#x2260;" horiz-adv-x="500" 
d="M49 211h147l60 108h-207v92h256l106 194h48l-106 -194h98v-92h-148l-59 -108h207v-92h-257l-105 -194h-48l106 194h-98v92z" />
    <glyph glyph-name="lessequal" unicode="&#x2264;" horiz-adv-x="480" 
d="M74 327l332 155v-78l-216 -104l216 -104v-79l-332 156v54zM49 85h382v-66h-382v66z" />
    <glyph glyph-name="greaterequal" unicode="&#x2265;" horiz-adv-x="480" 
d="M74 482l332 -155v-54l-332 -156v79l216 104l-216 104v78zM49 85h382v-66h-382v66z" />
    <glyph glyph-name="lozenge" unicode="&#x25ca;" horiz-adv-x="472" 
d="M229 -30l-199 374l199 374h14l199 -374l-199 -374h-14zM120 344l116 -217l116 217l-116 217z" />
    <glyph glyph-name="Abreve.small" unicode="&#xf66d;" horiz-adv-x="610" 
d="M452 0l-45 126h-209l-46 -126h-123l213 585h130l209 -585h-129zM384 217l-80 224h-1l-81 -224h162zM304 697q38 0 62.5 21t35.5 54h46q-9 -66 -45.5 -102t-98.5 -36q-61 0 -97.5 36t-45.5 102h46q11 -33 35.5 -54t61.5 -21z" />
    <glyph glyph-name="Amacron.small" unicode="&#xf66e;" horiz-adv-x="610" 
d="M452 0l-45 126h-209l-46 -126h-123l213 585h130l209 -585h-129zM384 217l-80 224h-1l-81 -224h162zM146 725h318v-66h-318v66z" />
    <glyph glyph-name="AEacute.small" unicode="&#xf670;" horiz-adv-x="886" 
d="M145 0h-116l336 580h467v-98h-297v-138h252v-98h-252v-149h302v-97h-412v193h-165zM306 284h119v198h-2zM608 750l-89 -120h-60l58 120h91z" />
    <glyph glyph-name="Cacute.small" unicode="&#xf671;" horiz-adv-x="584" 
d="M49 292q0 148 67.5 223t218.5 75q110 0 214 -36l-26 -92q-98 30 -185 30q-92 0 -132.5 -48.5t-40.5 -151.5q0 -105 40.5 -155t132.5 -50q82 0 185 30l26 -91q-104 -36 -214 -36q-152 0 -219 75.5t-67 226.5zM449 750l-89 -120h-60l58 120h91z" />
    <glyph glyph-name="Ccaron.small" unicode="&#xf672;" horiz-adv-x="584" 
d="M49 292q0 148 67.5 223t218.5 75q110 0 214 -36l-26 -92q-98 30 -185 30q-92 0 -132.5 -48.5t-40.5 -151.5q0 -105 40.5 -155t132.5 -50q82 0 185 30l26 -91q-104 -36 -214 -36q-152 0 -219 75.5t-67 226.5zM249 750l82 -73l81 73h60l-108 -120h-66l-109 120h60z" />
    <glyph glyph-name="Ccircumflex.small" unicode="&#xf673;" horiz-adv-x="584" 
d="M49 292q0 148 67.5 223t218.5 75q110 0 214 -36l-26 -92q-98 30 -185 30q-92 0 -132.5 -48.5t-40.5 -151.5q0 -105 40.5 -155t132.5 -50q82 0 185 30l26 -91q-104 -36 -214 -36q-152 0 -219 75.5t-67 226.5zM327 702l-82 -72h-60l109 120h66l108 -120h-60z" />
    <glyph glyph-name="Cdotaccent.small" unicode="&#xf674;" horiz-adv-x="584" 
d="M49 292q0 148 67.5 223t218.5 75q110 0 214 -36l-26 -92q-98 30 -185 30q-92 0 -132.5 -48.5t-40.5 -151.5q0 -105 40.5 -155t132.5 -50q82 0 185 30l26 -91q-104 -36 -214 -36q-152 0 -219 75.5t-67 226.5zM283 750h98v-113h-98v113z" />
    <glyph glyph-name="Dcaron.small" unicode="&#xf675;" horiz-adv-x="610" 
d="M289 0h-230v580h230q140 0 206 -72t66 -213q0 -295 -272 -295zM169 97h113q90 0 126.5 48.5t36.5 149.5q0 99 -36 143t-127 44h-113v-385zM188 750l82 -73l81 73h60l-108 -120h-66l-109 120h60z" />
    <glyph glyph-name="Ebreve.small" unicode="&#xf677;" horiz-adv-x="520" 
d="M466 580v-98h-297v-138h252v-98h-252v-149h302v-97h-412v580h407zM259 697q38 0 62.5 21t35.5 54h46q-9 -66 -45.5 -102t-98.5 -36q-61 0 -97.5 36t-45.5 102h46q11 -33 35.5 -54t61.5 -21z" />
    <glyph glyph-name="Ecaron.small" unicode="&#xf678;" horiz-adv-x="520" 
d="M466 580v-98h-297v-138h252v-98h-252v-149h302v-97h-412v580h407zM177 750l82 -73l81 73h60l-108 -120h-66l-109 120h60z" />
    <glyph glyph-name="Edotaccent.small" unicode="&#xf679;" horiz-adv-x="520" 
d="M466 580v-98h-297v-138h252v-98h-252v-149h302v-97h-412v580h407zM217 750h98v-113h-98v113z" />
    <glyph glyph-name="Emacron.small" unicode="&#xf67a;" horiz-adv-x="520" 
d="M466 580v-98h-297v-138h252v-98h-252v-149h302v-97h-412v580h407zM102 725h318v-66h-318v66z" />
    <glyph glyph-name="Gbreve.small" unicode="&#xf67d;" horiz-adv-x="607" 
d="M338 87q48 0 97 12v133h-98v79h208v-285q-98 -36 -210 -36q-152 0 -219 75.5t-67 226.5q0 148 67.5 223t218.5 75q110 0 214 -36l-26 -92q-98 30 -185 30q-92 0 -132.5 -48.5t-40.5 -151.5q0 -105 40.5 -155t132.5 -50zM329 697q38 0 62.5 21t35.5 54h46
q-9 -66 -45.5 -102t-98.5 -36q-61 0 -97.5 36t-45.5 102h46q11 -33 35.5 -54t61.5 -21z" />
    <glyph glyph-name="Gcircumflex.small" unicode="&#xf67e;" horiz-adv-x="607" 
d="M338 87q48 0 97 12v133h-98v79h208v-285q-98 -36 -210 -36q-152 0 -219 75.5t-67 226.5q0 148 67.5 223t218.5 75q110 0 214 -36l-26 -92q-98 30 -185 30q-92 0 -132.5 -48.5t-40.5 -151.5q0 -105 40.5 -155t132.5 -50zM331 702l-82 -72h-60l109 120h66l108 -120h-60z
" />
    <glyph glyph-name="Gcommaaccent.small" unicode="&#xf67f;" horiz-adv-x="607" 
d="M338 87q48 0 97 12v133h-98v79h208v-285q-98 -36 -210 -36q-152 0 -219 75.5t-67 226.5q0 148 67.5 223t218.5 75q110 0 214 -36l-26 -92q-98 30 -185 30q-92 0 -132.5 -48.5t-40.5 -151.5q0 -105 40.5 -155t132.5 -50zM326 -209h-35l21 84h-31v85h97v-85z" />
    <glyph glyph-name="Gdotaccent.small" unicode="&#xf680;" horiz-adv-x="607" 
d="M338 87q48 0 97 12v133h-98v79h208v-285q-98 -36 -210 -36q-152 0 -219 75.5t-67 226.5q0 148 67.5 223t218.5 75q110 0 214 -36l-26 -92q-98 30 -185 30q-92 0 -132.5 -48.5t-40.5 -151.5q0 -105 40.5 -155t132.5 -50zM283 750h98v-113h-98v113z" />
    <glyph glyph-name="Hcircumflex.small" unicode="&#xf682;" 
d="M169 0h-110v580h110v-236h262v236h110v-580h-110v246h-262v-246zM300 702l-82 -72h-60l109 120h66l108 -120h-60z" />
    <glyph glyph-name="Ibreve.small" unicode="&#xf683;" horiz-adv-x="227" 
d="M169 0h-110v580h110v-580zM113 697q38 0 62.5 21t35.5 54h46q-9 -66 -45.5 -102t-98.5 -36q-61 0 -97.5 36t-45.5 102h46q11 -33 35.5 -54t61.5 -21z" />
    <glyph glyph-name="Imacron.small" unicode="&#xf685;" horiz-adv-x="227" 
d="M169 0h-110v580h110v-580zM-46 725h318v-66h-318v66z" />
    <glyph glyph-name="Itilde.small" unicode="&#xf687;" horiz-adv-x="227" 
d="M169 0h-110v580h110v-580zM58 675q-18 0 -33 -8.5t-43 -36.5l-35 27q47 87 108 87q26 0 71.5 -24t60.5 -24q32 0 65 44l29 -34q-39 -77 -94 -77q-19 0 -64.5 23t-64.5 23z" />
    <glyph glyph-name="Jcircumflex.small" unicode="&#xf688;" horiz-adv-x="337" 
d="M285 580v-404q0 -186 -170 -186q-56 0 -99 8l10 98q26 -5 58 -5q42 0 63.5 21t21.5 70v398h116zM228 702l-82 -72h-60l109 120h66l108 -120h-60z" />
    <glyph glyph-name="Kcommaaccent.small" unicode="&#xf689;" horiz-adv-x="592" 
d="M169 580v-268l252 268h136l-219 -241l223 -339h-139l-163 259l-90 -100v-159h-110v580h110zM282 -209h-35l21 84h-31v85h97v-85z" />
    <glyph glyph-name="Lacute.small" unicode="&#xf68a;" horiz-adv-x="500" 
d="M59 580h110v-483h292v-97h-402v580zM235 750l-89 -120h-60l58 120h91z" />
    <glyph glyph-name="Lcaron.small" unicode="&#xf68b;" horiz-adv-x="500" 
d="M59 580h110v-483h292v-97h-402v580zM300 411h-35l21 84h-31v85h97v-85z" />
    <glyph glyph-name="Lcommaaccent.small" unicode="&#xf68c;" horiz-adv-x="500" 
d="M59 580h110v-483h292v-97h-402v580zM257 -209h-35l21 84h-31v85h97v-85z" />
    <glyph glyph-name="Ldot.small" unicode="&#xf68d;" horiz-adv-x="500" 
d="M59 580h110v-483h292v-97h-402v580zM251 370h98v-113h-98v113z" />
    <glyph glyph-name="Nacute.small" unicode="&#xf68e;" horiz-adv-x="610" 
d="M166 0h-107v580h116l267 -401h2v401h107v-580h-116l-267 401h-2v-401zM427 750l-89 -120h-60l58 120h91z" />
    <glyph glyph-name="Ncaron.small" unicode="&#xf68f;" horiz-adv-x="610" 
d="M166 0h-107v580h116l267 -401h2v401h107v-580h-116l-267 401h-2v-401zM223 750l82 -73l81 73h60l-108 -120h-66l-109 120h60z" />
    <glyph glyph-name="Ncommaaccent.small" unicode="&#xf690;" horiz-adv-x="610" 
d="M166 0h-107v580h116l267 -401h2v401h107v-580h-116l-267 401h-2v-401zM303 -209h-35l21 84h-31v85h97v-85z" />
    <glyph glyph-name="Obreve.small" unicode="&#xf691;" horiz-adv-x="650" 
d="M325 499q-93 0 -126.5 -52.5t-33.5 -151.5q0 -48 6.5 -83.5t23 -67t49.5 -47.5t81 -16t81 16t49.5 47.5t23 67t6.5 83.5q0 99 -33.5 151.5t-126.5 52.5zM325 -10q-144 0 -210 78t-66 227q0 146 65.5 220.5t210.5 74.5t210.5 -74.5t65.5 -220.5q0 -149 -66 -227t-210 -78z
M324 697q38 0 62.5 21t35.5 54h46q-9 -66 -45.5 -102t-98.5 -36q-61 0 -97.5 36t-45.5 102h46q11 -33 35.5 -54t61.5 -21z" />
    <glyph glyph-name="Ohungarumlaut.small" unicode="&#xf692;" horiz-adv-x="650" 
d="M325 499q-93 0 -126.5 -52.5t-33.5 -151.5q0 -48 6.5 -83.5t23 -67t49.5 -47.5t81 -16t81 16t49.5 47.5t23 67t6.5 83.5q0 99 -33.5 151.5t-126.5 52.5zM325 -10q-144 0 -210 78t-66 227q0 146 65.5 220.5t210.5 74.5t210.5 -74.5t65.5 -220.5q0 -149 -66 -227t-210 -78z
M342 750l-70 -120h-60l58 120h72zM461 750l-70 -120h-60l58 120h72z" />
    <glyph glyph-name="Omacron.small" unicode="&#xf693;" horiz-adv-x="650" 
d="M325 499q-93 0 -126.5 -52.5t-33.5 -151.5q0 -48 6.5 -83.5t23 -67t49.5 -47.5t81 -16t81 16t49.5 47.5t23 67t6.5 83.5q0 99 -33.5 151.5t-126.5 52.5zM325 -10q-144 0 -210 78t-66 227q0 146 65.5 220.5t210.5 74.5t210.5 -74.5t65.5 -220.5q0 -149 -66 -227t-210 -78z
M166 725h318v-66h-318v66z" />
    <glyph glyph-name="Oslashacute.small" unicode="&#xf694;" horiz-adv-x="650" 
d="M443 750l-89 -120h-60l58 120h91zM325 -10q-110 0 -175 48l-58 -72l-35 27l59 73q-67 74 -67 229q0 146 65.5 220.5t210.5 74.5q111 0 176 -48l57 71l34 -27l-56 -70q65 -74 65 -221q0 -149 -66 -227t-210 -78zM325 499q-93 0 -126.5 -52.5t-33.5 -151.5q0 -92 25 -137
l246 304q-39 37 -111 37zM325 81q48 0 81 16t49.5 47.5t23 67t6.5 83.5q0 85 -24 128l-246 -304q38 -38 110 -38z" />
    <glyph glyph-name="Racute.small" unicode="&#xf695;" horiz-adv-x="575" 
d="M544 0h-137l-133 186h-105v-186h-110v580h245q103 0 160 -52t57 -145q0 -71 -34 -117.5t-97 -60.5zM169 482v-198h131q108 0 108 99t-104 99h-135zM378 750l-89 -120h-60l58 120h91z" />
    <glyph glyph-name="Rcaron.small" unicode="&#xf696;" horiz-adv-x="575" 
d="M544 0h-137l-133 186h-105v-186h-110v580h245q103 0 160 -52t57 -145q0 -71 -34 -117.5t-97 -60.5zM169 482v-198h131q108 0 108 99t-104 99h-135zM188 750l82 -73l81 73h60l-108 -120h-66l-109 120h60z" />
    <glyph glyph-name="Rcommaaccent.small" unicode="&#xf697;" horiz-adv-x="575" 
d="M544 0h-137l-133 186h-105v-186h-110v580h245q103 0 160 -52t57 -145q0 -71 -34 -117.5t-97 -60.5zM169 482v-198h131q108 0 108 99t-104 99h-135zM284 -209h-35l21 84h-31v85h97v-85z" />
    <glyph glyph-name="Sacute.small" unicode="&#xf698;" horiz-adv-x="570" 
d="M257 244q-94 18 -141 57t-47 118q0 171 211 171q108 0 231 -36l-26 -92q-124 30 -202 30q-98 0 -98 -64q0 -14 4 -24.5t14 -18.5t18 -13.5t25.5 -10t26 -6.5t31 -6t29.5 -5q92 -17 140 -59t48 -118q0 -89 -64.5 -133t-166.5 -44q-119 0 -241 36l26 91q124 -30 218 -30
q58 0 85 21.5t27 52.5q0 17 -7 29t-16.5 19.5t-29.5 14t-35 9.5t-43 8q-11 2 -17 3zM405 750l-89 -120h-60l58 120h91z" />
    <glyph glyph-name="Scircumflex.small" unicode="&#xf69a;" horiz-adv-x="570" 
d="M257 244q-94 18 -141 57t-47 118q0 171 211 171q108 0 231 -36l-26 -92q-124 30 -202 30q-98 0 -98 -64q0 -14 4 -24.5t14 -18.5t18 -13.5t25.5 -10t26 -6.5t31 -6t29.5 -5q92 -17 140 -59t48 -118q0 -89 -64.5 -133t-166.5 -44q-119 0 -241 36l26 91q124 -30 218 -30
q58 0 85 21.5t27 52.5q0 17 -7 29t-16.5 19.5t-29.5 14t-35 9.5t-43 8q-11 2 -17 3zM285 702l-82 -72h-60l109 120h66l108 -120h-60z" />
    <glyph glyph-name="Scommaaccent.small" unicode="&#xf69b;" horiz-adv-x="570" 
d="M257 244q-94 18 -141 57t-47 118q0 171 211 171q108 0 231 -36l-26 -92q-124 30 -202 30q-98 0 -98 -64q0 -14 4 -24.5t14 -18.5t18 -13.5t25.5 -10t26 -6.5t31 -6t29.5 -5q92 -17 140 -59t48 -118q0 -89 -64.5 -133t-166.5 -44q-119 0 -241 36l26 91q124 -30 218 -30
q58 0 85 21.5t27 52.5q0 17 -7 29t-16.5 19.5t-29.5 14t-35 9.5t-43 8q-11 2 -17 3zM283 -209h-35l21 84h-31v85h97v-85z" />
    <glyph glyph-name="Tcaron.small" unicode="&#xf69d;" horiz-adv-x="520" 
d="M481 482h-166v-482h-110v482h-166v98h442v-98zM178 750l82 -73l81 73h60l-108 -120h-66l-109 120h60z" />
    <glyph glyph-name="Tcommaaccent.small" unicode="&#xf69e;" horiz-adv-x="520" 
d="M481 482h-166v-482h-110v482h-166v98h442v-98zM256 -209h-35l21 84h-31v85h97v-85z" />
    <glyph glyph-name="Ubreve.small" unicode="&#xf69f;" 
d="M59 232v348h110v-344q0 -28 1.5 -47t9 -41.5t21.5 -35.5t39.5 -22t61.5 -9q42 0 69 12.5t39.5 36.5t16.5 47.5t4 58.5v344h110v-344q0 -129 -59.5 -187.5t-181.5 -58.5q-121 0 -181 56.5t-60 185.5zM299 697q38 0 62.5 21t35.5 54h46q-9 -66 -45.5 -102t-98.5 -36
q-61 0 -97.5 36t-45.5 102h46q11 -33 35.5 -54t61.5 -21z" />
    <glyph glyph-name="Uhungarumlaut.small" unicode="&#xf6a0;" 
d="M59 232v348h110v-344q0 -28 1.5 -47t9 -41.5t21.5 -35.5t39.5 -22t61.5 -9q42 0 69 12.5t39.5 36.5t16.5 47.5t4 58.5v344h110v-344q0 -129 -59.5 -187.5t-181.5 -58.5q-121 0 -181 56.5t-60 185.5zM312 750l-70 -120h-60l58 120h72zM431 750l-70 -120h-60l58 120h72z
" />
    <glyph glyph-name="Umacron.small" unicode="&#xf6a1;" 
d="M59 232v348h110v-344q0 -28 1.5 -47t9 -41.5t21.5 -35.5t39.5 -22t61.5 -9q42 0 69 12.5t39.5 36.5t16.5 47.5t4 58.5v344h110v-344q0 -129 -59.5 -187.5t-181.5 -58.5q-121 0 -181 56.5t-60 185.5zM141 725h318v-66h-318v66z" />
    <glyph glyph-name="Uring.small" unicode="&#xf6a3;" 
d="M59 232v348h110v-344q0 -28 1.5 -47t9 -41.5t21.5 -35.5t39.5 -22t61.5 -9q42 0 69 12.5t39.5 36.5t16.5 47.5t4 58.5v344h110v-344q0 -129 -59.5 -187.5t-181.5 -58.5q-121 0 -181 56.5t-60 185.5zM221 690q0 33 23 54.5t56 21.5q34 0 56 -21.5t22 -54.5t-22 -54.5
t-56 -21.5q-33 0 -56 21.5t-23 54.5zM258 690q0 -19 12 -31.5t30 -12.5q19 0 31 12.5t12 31.5t-12 31.5t-31 12.5q-18 0 -30 -12.5t-12 -31.5z" />
    <glyph glyph-name="Utilde.small" unicode="&#xf6a4;" 
d="M59 232v348h110v-344q0 -28 1.5 -47t9 -41.5t21.5 -35.5t39.5 -22t61.5 -9q42 0 69 12.5t39.5 36.5t16.5 47.5t4 58.5v344h110v-344q0 -129 -59.5 -187.5t-181.5 -58.5q-121 0 -181 56.5t-60 185.5zM244 675q-18 0 -33 -8.5t-43 -36.5l-35 27q47 87 108 87q26 0 71.5 -24
t60.5 -24q32 0 65 44l29 -34q-39 -77 -94 -77q-19 0 -64.5 23t-64.5 23z" />
    <glyph glyph-name="Wacute.small" unicode="&#xf6a5;" horiz-adv-x="900" 
d="M444 395h-2l-105 -400h-136l-172 585h129l123 -440h1l103 440h124l115 -440h1l123 440h123l-172 -585h-149zM572 750l-89 -120h-60l58 120h91z" />
    <glyph glyph-name="Wcircumflex.small" unicode="&#xf6a6;" horiz-adv-x="900" 
d="M444 395h-2l-105 -400h-136l-172 585h129l123 -440h1l103 440h124l115 -440h1l123 440h123l-172 -585h-149zM450 702l-82 -72h-60l109 120h66l108 -120h-60z" />
    <glyph glyph-name="Wdieresis.small" unicode="&#xf6a7;" horiz-adv-x="900" 
d="M444 395h-2l-105 -400h-136l-172 585h129l123 -440h1l103 440h124l115 -440h1l123 440h123l-172 -585h-149zM281 750h92v-113h-92v113zM526 750h92v-113h-92v113z" />
    <glyph glyph-name="Wgrave.small" unicode="&#xf6a8;" horiz-adv-x="900" 
d="M444 395h-2l-105 -400h-136l-172 585h129l123 -440h1l103 440h124l115 -440h1l123 440h123l-172 -585h-149zM413 630l-89 120h92l57 -120h-60z" />
    <glyph glyph-name="Ycircumflex.small" unicode="&#xf6a9;" horiz-adv-x="580" 
d="M292 310h2l131 270h126l-206 -400v-180h-110v180l-206 400h132zM290 702l-82 -72h-60l109 120h66l108 -120h-60z" />
    <glyph glyph-name="Ygrave.small" unicode="&#xf6aa;" horiz-adv-x="580" 
d="M292 310h2l131 270h126l-206 -400v-180h-110v180l-206 400h132zM265 630l-89 120h92l57 -120h-60z" />
    <glyph glyph-name="Zacute.small" unicode="&#xf6ab;" horiz-adv-x="520" 
d="M187 99v-2h298v-97h-450v85l291 395v2h-271v98h420v-85zM368 750l-89 -120h-60l58 120h91z" />
    <glyph glyph-name="Zdotaccent.small" unicode="&#xf6ac;" horiz-adv-x="520" 
d="M187 99v-2h298v-97h-450v85l291 395v2h-271v98h420v-85zM211 750h98v-113h-98v113z" />
    <glyph glyph-name="Idotaccent.small" unicode="&#xf6ad;" horiz-adv-x="227" 
d="M169 0h-110v580h110v-580zM64 750h98v-113h-98v113z" />
    <glyph glyph-name="commaaccent" unicode="&#xf6c3;" horiz-adv-x="215" 
d="M110 729h35l-21 -84h31v-85h-98v85z" />
    <glyph glyph-name="rupiah" unicode="&#xf6dd;" horiz-adv-x="1116" 
d="M175 576v-219h152q53 0 84 27.5t31 82.5q0 53 -30 81t-81 28h-156zM634 0h-185l-152 254h-122v-254h-116v680h285q102 0 159.5 -58.5t57.5 -154.5q0 -73 -36.5 -125.5t-106.5 -69.5l120 -193h96v421h110v-50h2q26 27 65.5 43.5t81.5 16.5q184 0 184 -260
q0 -117 -45.5 -188.5t-144.5 -71.5q-86 0 -141 57h-2v-247h-110v200zM961 250q0 169 -112 169q-57 0 -105 -37v-264q48 -37 105 -37q112 0 112 169z" />
    <glyph glyph-name="asuperior" unicode="&#xf6e9;" horiz-adv-x="294" 
d="M144 639q-37 0 -78 -9l-9 44q55 11 100 11q49 0 72 -18t23 -65v-172h-55v25q-33 -30 -77 -30q-37 0 -58 21t-21 54q0 77 105 77h51v22q0 22 -12 31t-41 9zM197 486v58h-48q-53 0 -53 -39q0 -18 12.5 -28t33.5 -10q31 0 55 19z" />
    <glyph glyph-name="bsuperior" unicode="&#xf6ea;" horiz-adv-x="304" 
d="M96 780v-125h1q28 30 74 30q91 0 91 -130t-95 -130q-42 0 -73 29h-1l-10 -25h-42v351h55zM204 555q0 84 -55 84q-27 0 -53 -18v-132q26 -18 53 -18q55 0 55 84z" />
    <glyph glyph-name="esuperior" unicode="&#xf6ec;" horiz-adv-x="313" 
d="M267 544h-166q2 -73 76 -73q44 0 78 10q0 -4 6 -44q-43 -12 -92 -12q-128 0 -128 130t126 130q94 0 102 -83q3 -26 -2 -58zM164 642q-58 0 -63 -63h112q2 8 2 23q-2 40 -51 40z" />
    <glyph glyph-name="isuperior" unicode="&#xf6ed;" horiz-adv-x="137" 
d="M41 780h55v-66h-55v66zM41 680h55v-250h-55v250z" />
    <glyph glyph-name="lsuperior" unicode="&#xf6ee;" horiz-adv-x="137" 
d="M41 430v350h55v-350h-55z" />
    <glyph glyph-name="msuperior" unicode="&#xf6ef;" horiz-adv-x="449" 
d="M96 615v-185h-55v250h55v-34h1q35 39 80 39q52 0 68 -42q37 42 87 42q75 0 75 -83v-172h-55v159q0 50 -45 50q-22 0 -56 -24q0 -4 0.5 -15t0.5 -17v-153h-55v162q-2 47 -45 47q-22 0 -56 -24z" />
    <glyph glyph-name="osuperior" unicode="&#xf6f0;" horiz-adv-x="319" 
d="M160 639q-61 0 -61 -84t61 -84q59 0 59 84t-59 84zM160 425q-119 0 -119 130t119 130q117 0 117 -130t-117 -130z" />
    <glyph glyph-name="rsuperior" unicode="&#xf6f1;" horiz-adv-x="229" 
d="M96 609v-179h-55v250h55v-40h1q37 45 90 45v-52q-51 0 -91 -24z" />
    <glyph glyph-name="ssuperior" unicode="&#xf6f2;" horiz-adv-x="289" 
d="M247 504q0 -79 -95 -79q-66 0 -111 12l10 44q49 -12 95 -12q26 0 36 10t10 21q0 22 -49 31q-47 8 -72 25.5t-25 55.5q0 73 96 73q55 0 102 -11l-9 -45q-49 12 -90 12q-44 0 -44 -27q0 -11 10 -18.5t38 -13.5q31 -7 48.5 -13t33.5 -23t16 -42z" />
    <glyph glyph-name="tsuperior" unicode="&#xf6f3;" horiz-adv-x="242" 
d="M77 502v139h-36v35l36 4l6 70h49v-70h66v-39h-66v-129q0 -43 39 -43q10 0 25 3l5 -43q-28 -4 -49 -4q-40 0 -57.5 18t-17.5 59z" />
    <glyph glyph-name="Lslashsmall" unicode="&#xf6f9;" horiz-adv-x="500" 
d="M276 304l-107 -25v-182h292v-97h-402v252l-70 -16v66l70 16v262h110v-235l107 26v-67z" />
    <glyph glyph-name="OEsmall" unicode="&#xf6fa;" horiz-adv-x="952" 
d="M899 580v-98h-298v-138h253v-98h-253v-149h303v-97h-405v79q-50 -89 -174 -89q-144 0 -210 78t-66 227q0 146 65.5 220.5t210.5 74.5q125 0 176 -86v76h398zM325 499q-93 0 -126.5 -52.5t-33.5 -151.5q0 -48 6.5 -83.5t23 -67t49.5 -47.5t81 -16t81 16t49.5 47.5t23 67
t6.5 83.5q0 99 -33.5 151.5t-126.5 52.5z" />
    <glyph glyph-name="Scaronsmall" unicode="&#xf6fd;" horiz-adv-x="570" 
d="M228 780l57 -80l56 80h85l-102 -140h-79l-102 140h85zM257 244q-94 18 -141 57t-47 118q0 171 211 171q108 0 231 -36l-26 -92q-124 30 -202 30q-98 0 -98 -64q0 -14 4 -24.5t14 -18.5t18 -13.5t25.5 -10t26 -6.5t31 -6t29.5 -5q92 -17 140 -59t48 -118q0 -89 -64.5 -133
t-166.5 -44q-119 0 -241 36l26 91q124 -30 218 -30q58 0 85 21.5t27 52.5q0 17 -7 29t-16.5 19.5t-29.5 14t-35 9.5t-43 8q-11 2 -17 3z" />
    <glyph glyph-name="Zcaronsmall" unicode="&#xf6ff;" horiz-adv-x="520" 
d="M203 780l57 -80l56 80h85l-102 -140h-79l-102 140h85zM187 99v-2h298v-97h-450v85l291 395v2h-271v98h420v-85z" />
    <glyph glyph-name="dollaroldstyle" unicode="&#xf724;" horiz-adv-x="510" 
d="M252 201q-94 17 -143.5 52.5t-49.5 111.5q0 72 54 108.5t137 36.5q113 0 205 -39l-20 -82q-99 33 -179 33q-47 0 -67 -18t-20 -36q0 -23 19.5 -37.5t74.5 -26.5q35 -7 59 -14t52.5 -20t46 -28.5t29 -41t11.5 -57.5q0 -72 -54.5 -112.5t-136.5 -40.5q-131 0 -221 39l20 82
q94 -33 188 -33q49 0 71.5 19.5t22.5 38.5q0 46 -99 65zM285 -130h-60v100h60v-100zM285 530h-60v100h60v-100z" />
    <glyph glyph-name="ampersandsmall" unicode="&#xf726;" horiz-adv-x="905" 
d="M609 144v85h-441q6 -69 44.5 -108.5t106.5 -39.5q62 0 150 32q4 -24 13 -85q-88 -38 -178 -38q-116 0 -185.5 71t-69.5 189t68 189t183 71q57 0 98.5 -19t63.5 -51t32 -67t10 -75h105q7 126 13 202h97v-202h132v-69h-132v-54q0 -51 15.5 -74t62.5 -23q16 0 49 5
q4 -25 10 -85q-43 -8 -96 -8q-81 0 -116 36t-35 118zM294 425q-53 0 -87 -35.5t-39 -91.5h224q10 52 -14.5 89.5t-83.5 37.5z" />
    <glyph glyph-name="zerooldstyle" unicode="&#xf730;" horiz-adv-x="590" 
d="M295 419q-61 0 -95.5 -46.5t-34.5 -122.5t34.5 -122.5t95.5 -46.5t95.5 46.5t34.5 122.5t-34.5 122.5t-95.5 46.5zM295 -10q-115 0 -180.5 70.5t-65.5 189.5t65.5 189.5t180.5 70.5q116 0 181 -70.5t65 -189.5t-65 -189.5t-181 -70.5z" />
    <glyph glyph-name="twooldstyle" unicode="&#xf732;" horiz-adv-x="590" 
d="M284 409q-92 0 -189 -37l-26 94q113 44 233 44q97 0 153 -44t56 -118q0 -29 -9.5 -55.5t-21.5 -46.5t-37 -40t-42 -32t-51.5 -28t-51.5 -23l-54 -22q-13 -5 -20 -8v-2l297 6v-97h-452v106q184 74 255 119t71 98q0 47 -34 66.5t-77 19.5z" />
    <glyph glyph-name="questionsmall" unicode="&#xf73f;" horiz-adv-x="480" 
d="M241 610q106 0 153 -42.5t47 -106.5q0 -46 -18.5 -77.5t-44.5 -47t-52.5 -28t-45 -30.5t-18.5 -44v-24h-97v30q0 42 17 70t40.5 40.5t47.5 23t41 28t17 44.5q0 66 -111 66q-65 0 -153 -35l-25 82q106 51 202 51zM159 137h110v-137h-110v137z" />
    <glyph glyph-name="Asmall" unicode="&#xf761;" horiz-adv-x="610" 
d="M452 0l-45 126h-209l-46 -126h-123l213 585h130l209 -585h-129zM384 217l-80 224h-1l-81 -224h162z" />
    <glyph glyph-name="Bsmall" unicode="&#xf762;" horiz-adv-x="570" 
d="M404 302v-2q56 -10 91.5 -47t35.5 -97q0 -156 -202 -156h-270v580h266q90 0 138 -37.5t48 -108.5q0 -54 -29 -87.5t-78 -44.5zM302 252h-133v-155h141q105 0 105 78q0 77 -113 77zM395 412q0 70 -101 70h-125v-145h121q105 0 105 75z" />
    <glyph glyph-name="Csmall" unicode="&#xf763;" horiz-adv-x="584" 
d="M49 292q0 148 67.5 223t218.5 75q110 0 214 -36l-26 -92q-98 30 -185 30q-92 0 -132.5 -48.5t-40.5 -151.5q0 -105 40.5 -155t132.5 -50q82 0 185 30l26 -91q-104 -36 -214 -36q-152 0 -219 75.5t-67 226.5z" />
    <glyph glyph-name="Dsmall" unicode="&#xf764;" horiz-adv-x="610" 
d="M289 0h-230v580h230q140 0 206 -72t66 -213q0 -295 -272 -295zM169 97h113q90 0 126.5 48.5t36.5 149.5q0 99 -36 143t-127 44h-113v-385z" />
    <glyph glyph-name="Esmall" unicode="&#xf765;" horiz-adv-x="520" 
d="M466 580v-98h-297v-138h252v-98h-252v-149h302v-97h-412v580h407z" />
    <glyph glyph-name="Fsmall" unicode="&#xf766;" horiz-adv-x="495" 
d="M456 580v-98h-287v-158h242v-98h-242v-226h-110v580h397z" />
    <glyph glyph-name="Gsmall" unicode="&#xf767;" horiz-adv-x="607" 
d="M338 87q48 0 97 12v133h-98v79h208v-285q-98 -36 -210 -36q-152 0 -219 75.5t-67 226.5q0 148 67.5 223t218.5 75q110 0 214 -36l-26 -92q-98 30 -185 30q-92 0 -132.5 -48.5t-40.5 -151.5q0 -105 40.5 -155t132.5 -50z" />
    <glyph glyph-name="Hsmall" unicode="&#xf768;" 
d="M169 0h-110v580h110v-236h262v236h110v-580h-110v246h-262v-246z" />
    <glyph glyph-name="Ismall" unicode="&#xf769;" horiz-adv-x="227" 
d="M169 0h-110v580h110v-580z" />
    <glyph glyph-name="Jsmall" unicode="&#xf76a;" horiz-adv-x="337" 
d="M285 580v-404q0 -186 -170 -186q-56 0 -99 8l10 98q26 -5 58 -5q42 0 63.5 21t21.5 70v398h116z" />
    <glyph glyph-name="Ksmall" unicode="&#xf76b;" horiz-adv-x="592" 
d="M169 580v-268l252 268h136l-219 -241l223 -339h-139l-163 259l-90 -100v-159h-110v580h110z" />
    <glyph glyph-name="Lsmall" unicode="&#xf76c;" horiz-adv-x="500" 
d="M59 580h110v-483h292v-97h-402v580z" />
    <glyph glyph-name="Msmall" unicode="&#xf76d;" horiz-adv-x="760" 
d="M212 580l171 -399h2l162 399h154v-580h-110v401h-2l-170 -401h-85l-166 401h-2v-401h-107v580h153z" />
    <glyph glyph-name="Nsmall" unicode="&#xf76e;" horiz-adv-x="610" 
d="M166 0h-107v580h116l267 -401h2v401h107v-580h-116l-267 401h-2v-401z" />
    <glyph glyph-name="Osmall" unicode="&#xf76f;" horiz-adv-x="650" 
d="M325 499q-93 0 -126.5 -52.5t-33.5 -151.5q0 -48 6.5 -83.5t23 -67t49.5 -47.5t81 -16t81 16t49.5 47.5t23 67t6.5 83.5q0 99 -33.5 151.5t-126.5 52.5zM325 -10q-144 0 -210 78t-66 227q0 146 65.5 220.5t210.5 74.5t210.5 -74.5t65.5 -220.5q0 -149 -66 -227t-210 -78z
" />
    <glyph glyph-name="Psmall" unicode="&#xf770;" horiz-adv-x="560" 
d="M304 186h-135v-186h-110v580h245q104 0 160.5 -51.5t56.5 -145.5q0 -97 -56.5 -147t-160.5 -50zM169 482v-198h128q111 0 111 99q0 49 -29.5 74t-81.5 25h-128z" />
    <glyph glyph-name="Qsmall" unicode="&#xf771;" horiz-adv-x="650" 
d="M325 81q91 0 125.5 56t34.5 158q0 99 -33.5 151.5t-126.5 52.5t-126.5 -52.5t-33.5 -151.5q0 -48 6.5 -83.5t23 -67t49.5 -47.5t81 -16zM302 -9q-134 7 -193.5 83.5t-59.5 220.5q0 146 65.5 220.5t210.5 74.5t210.5 -74.5t65.5 -220.5q0 -260 -212 -277q10 -22 77 -29
t119 0v-92q-210 -23 -283 94z" />
    <glyph glyph-name="Rsmall" unicode="&#xf772;" horiz-adv-x="575" 
d="M544 0h-137l-133 186h-105v-186h-110v580h245q103 0 160 -52t57 -145q0 -71 -34 -117.5t-97 -60.5zM169 482v-198h131q108 0 108 99t-104 99h-135z" />
    <glyph glyph-name="Ssmall" unicode="&#xf773;" horiz-adv-x="570" 
d="M257 244q-94 18 -141 57t-47 118q0 171 211 171q108 0 231 -36l-26 -92q-124 30 -202 30q-98 0 -98 -64q0 -14 4 -24.5t14 -18.5t18 -13.5t25.5 -10t26 -6.5t31 -6t29.5 -5q92 -17 140 -59t48 -118q0 -89 -64.5 -133t-166.5 -44q-119 0 -241 36l26 91q124 -30 218 -30
q58 0 85 21.5t27 52.5q0 17 -7 29t-16.5 19.5t-29.5 14t-35 9.5t-43 8q-11 2 -17 3z" />
    <glyph glyph-name="Tsmall" unicode="&#xf774;" horiz-adv-x="520" 
d="M481 482h-166v-482h-110v482h-166v98h442v-98z" />
    <glyph glyph-name="Usmall" unicode="&#xf775;" 
d="M59 232v348h110v-344q0 -28 1.5 -47t9 -41.5t21.5 -35.5t39.5 -22t61.5 -9q42 0 69 12.5t39.5 36.5t16.5 47.5t4 58.5v344h110v-344q0 -129 -59.5 -187.5t-181.5 -58.5q-121 0 -181 56.5t-60 185.5z" />
    <glyph glyph-name="Vsmall" unicode="&#xf776;" horiz-adv-x="610" 
d="M309 139h1l148 441h123l-209 -585h-130l-213 585h129z" />
    <glyph glyph-name="Wsmall" unicode="&#xf777;" horiz-adv-x="900" 
d="M444 395h-2l-105 -400h-136l-172 585h129l123 -440h1l103 440h124l115 -440h1l123 440h123l-172 -585h-149z" />
    <glyph glyph-name="Xsmall" unicode="&#xf778;" horiz-adv-x="617" 
d="M436 580h130l-196 -277l217 -303h-139l-149 210l-145 -210h-123l203 297l-189 283h130l132 -183z" />
    <glyph glyph-name="Ysmall" unicode="&#xf779;" horiz-adv-x="580" 
d="M292 310h2l131 270h126l-206 -400v-180h-110v180l-206 400h132z" />
    <glyph glyph-name="Zsmall" unicode="&#xf77a;" horiz-adv-x="520" 
d="M187 99v-2h298v-97h-450v85l291 395v2h-271v98h420v-85z" />
    <glyph glyph-name="centoldstyle" unicode="&#xf7a2;" horiz-adv-x="521" 
d="M309 419q-66 0 -105 -45.5t-39 -123.5t39 -123.5t105 -45.5q65 0 150 32l13 -85q-86 -38 -172 -38q-116 0 -183.5 71t-67.5 189t67.5 189t183.5 71q83 0 172 -38l-13 -85q-85 32 -150 32zM325 -130h-60v100h60v-100zM325 530h-60v100h60v-100z" />
    <glyph glyph-name="Agravesmall" unicode="&#xf7e0;" horiz-adv-x="610" 
d="M452 0l-45 126h-209l-46 -126h-123l213 585h130l209 -585h-129zM384 217l-80 224h-1l-81 -224h162zM272 630l-89 120h92l57 -120h-60z" />
    <glyph glyph-name="Aacutesmall" unicode="&#xf7e1;" horiz-adv-x="610" 
d="M452 0l-45 126h-209l-46 -126h-123l213 585h130l209 -585h-129zM384 217l-80 224h-1l-81 -224h162zM424 750l-89 -120h-60l58 120h91z" />
    <glyph glyph-name="Acircumflexsmall" unicode="&#xf7e2;" horiz-adv-x="610" 
d="M452 0l-45 126h-209l-46 -126h-123l213 585h130l209 -585h-129zM384 217l-80 224h-1l-81 -224h162zM305 702l-82 -72h-60l109 120h66l108 -120h-60z" />
    <glyph glyph-name="Atildesmall" unicode="&#xf7e3;" horiz-adv-x="610" 
d="M452 0l-45 126h-209l-46 -126h-123l213 585h130l209 -585h-129zM384 217l-80 224h-1l-81 -224h162zM249 675q-18 0 -33 -8.5t-43 -36.5l-35 27q47 87 108 87q26 0 71.5 -24t60.5 -24q32 0 65 44l29 -34q-39 -77 -94 -77q-19 0 -64.5 23t-64.5 23z" />
    <glyph glyph-name="Adieresissmall" unicode="&#xf7e4;" horiz-adv-x="610" 
d="M452 0l-45 126h-209l-46 -126h-123l213 585h130l209 -585h-129zM384 217l-80 224h-1l-81 -224h162zM136 750h92v-113h-92v113zM381 750h92v-113h-92v113z" />
    <glyph glyph-name="Aringsmall" unicode="&#xf7e5;" horiz-adv-x="610" 
d="M452 0l-45 126h-209l-46 -126h-123l213 585h130l209 -585h-129zM384 217l-80 224h-1l-81 -224h162zM226 690q0 33 23 54.5t56 21.5q34 0 56 -21.5t22 -54.5t-22 -54.5t-56 -21.5q-33 0 -56 21.5t-23 54.5zM263 690q0 -19 12 -31.5t30 -12.5q19 0 31 12.5t12 31.5
t-12 31.5t-31 12.5q-18 0 -30 -12.5t-12 -31.5z" />
    <glyph glyph-name="AEsmall" unicode="&#xf7e6;" horiz-adv-x="886" 
d="M145 0h-116l336 580h467v-98h-297v-138h252v-98h-252v-149h302v-97h-412v193h-165zM306 284h119v198h-2z" />
    <glyph glyph-name="Ccedillasmall" unicode="&#xf7e7;" horiz-adv-x="584" 
d="M309 -76v67q-138 6 -199 81t-61 220q0 148 67.5 223t218.5 75q110 0 214 -36l-26 -92q-98 30 -185 30q-92 0 -132.5 -48.5t-40.5 -151.5q0 -105 40.5 -155t132.5 -50q82 0 185 30l26 -91q-97 -34 -198 -36v-44q33 -3 58 -19.5t25 -52.5t-26.5 -57.5t-73.5 -21.5
q-38 0 -78 12l7 36q28 -7 50 -7q27 0 40 13t13 30t-14 29.5t-43 15.5z" />
    <glyph glyph-name="Egravesmall" unicode="&#xf7e8;" horiz-adv-x="520" 
d="M466 580v-98h-297v-138h252v-98h-252v-149h302v-97h-412v580h407zM242 630l-89 120h92l57 -120h-60z" />
    <glyph glyph-name="Eacutesmall" unicode="&#xf7e9;" horiz-adv-x="520" 
d="M466 580v-98h-297v-138h252v-98h-252v-149h302v-97h-412v580h407zM383 750l-89 -120h-60l58 120h91z" />
    <glyph glyph-name="Ecircumflexsmall" unicode="&#xf7ea;" horiz-adv-x="520" 
d="M466 580v-98h-297v-138h252v-98h-252v-149h302v-97h-412v580h407zM261 702l-82 -72h-60l109 120h66l108 -120h-60z" />
    <glyph glyph-name="Edieresissmall" unicode="&#xf7eb;" horiz-adv-x="520" 
d="M466 580v-98h-297v-138h252v-98h-252v-149h302v-97h-412v580h407zM93 750h92v-113h-92v113zM338 750h92v-113h-92v113z" />
    <glyph glyph-name="Igravesmall" unicode="&#xf7ec;" horiz-adv-x="227" 
d="M169 0h-110v580h110v-580zM82 630l-89 120h92l57 -120h-60z" />
    <glyph glyph-name="Iacutesmall" unicode="&#xf7ed;" horiz-adv-x="227" 
d="M169 0h-110v580h110v-580zM234 750l-89 -120h-60l58 120h91z" />
    <glyph glyph-name="Icircumflexsmall" unicode="&#xf7ee;" horiz-adv-x="227" 
d="M169 0h-110v580h110v-580zM114 702l-82 -72h-60l109 120h66l108 -120h-60z" />
    <glyph glyph-name="Idieresissmall" unicode="&#xf7ef;" horiz-adv-x="227" 
d="M169 0h-110v580h110v-580zM-55 750h92v-113h-92v113zM190 750h92v-113h-92v113z" />
    <glyph glyph-name="Ntildesmall" unicode="&#xf7f1;" horiz-adv-x="610" 
d="M166 0h-107v580h116l267 -401h2v401h107v-580h-116l-267 401h-2v-401zM249 675q-18 0 -33 -8.5t-43 -36.5l-35 27q47 87 108 87q26 0 71.5 -24t60.5 -24q32 0 65 44l29 -34q-39 -77 -94 -77q-19 0 -64.5 23t-64.5 23z" />
    <glyph glyph-name="Ogravesmall" unicode="&#xf7f2;" horiz-adv-x="650" 
d="M325 499q-93 0 -126.5 -52.5t-33.5 -151.5q0 -48 6.5 -83.5t23 -67t49.5 -47.5t81 -16t81 16t49.5 47.5t23 67t6.5 83.5q0 99 -33.5 151.5t-126.5 52.5zM325 -10q-144 0 -210 78t-66 227q0 146 65.5 220.5t210.5 74.5t210.5 -74.5t65.5 -220.5q0 -149 -66 -227t-210 -78z
M292 630l-89 120h92l57 -120h-60z" />
    <glyph glyph-name="Oacutesmall" unicode="&#xf7f3;" horiz-adv-x="650" 
d="M325 499q-93 0 -126.5 -52.5t-33.5 -151.5q0 -48 6.5 -83.5t23 -67t49.5 -47.5t81 -16t81 16t49.5 47.5t23 67t6.5 83.5q0 99 -33.5 151.5t-126.5 52.5zM325 -10q-144 0 -210 78t-66 227q0 146 65.5 220.5t210.5 74.5t210.5 -74.5t65.5 -220.5q0 -149 -66 -227t-210 -78z
M437 750l-89 -120h-60l58 120h91z" />
    <glyph glyph-name="Ocircumflexsmall" unicode="&#xf7f4;" horiz-adv-x="650" 
d="M325 499q-93 0 -126.5 -52.5t-33.5 -151.5q0 -48 6.5 -83.5t23 -67t49.5 -47.5t81 -16t81 16t49.5 47.5t23 67t6.5 83.5q0 99 -33.5 151.5t-126.5 52.5zM325 -10q-144 0 -210 78t-66 227q0 146 65.5 220.5t210.5 74.5t210.5 -74.5t65.5 -220.5q0 -149 -66 -227t-210 -78z
M325 702l-82 -72h-60l109 120h66l108 -120h-60z" />
    <glyph glyph-name="Otildesmall" unicode="&#xf7f5;" horiz-adv-x="650" 
d="M325 499q-93 0 -126.5 -52.5t-33.5 -151.5q0 -48 6.5 -83.5t23 -67t49.5 -47.5t81 -16t81 16t49.5 47.5t23 67t6.5 83.5q0 99 -33.5 151.5t-126.5 52.5zM325 -10q-144 0 -210 78t-66 227q0 146 65.5 220.5t210.5 74.5t210.5 -74.5t65.5 -220.5q0 -149 -66 -227t-210 -78z
M269 675q-19 0 -33.5 -8.5t-42.5 -36.5l-35 27q47 87 108 87q26 0 71.5 -24t60.5 -24q32 0 65 44l29 -34q-39 -77 -94 -77q-19 0 -64.5 23t-64.5 23z" />
    <glyph glyph-name="Odieresissmall" unicode="&#xf7f6;" horiz-adv-x="650" 
d="M325 499q-93 0 -126.5 -52.5t-33.5 -151.5q0 -48 6.5 -83.5t23 -67t49.5 -47.5t81 -16t81 16t49.5 47.5t23 67t6.5 83.5q0 99 -33.5 151.5t-126.5 52.5zM325 -10q-144 0 -210 78t-66 227q0 146 65.5 220.5t210.5 74.5t210.5 -74.5t65.5 -220.5q0 -149 -66 -227t-210 -78z
M156 750h92v-113h-92v113zM401 750h92v-113h-92v113z" />
    <glyph glyph-name="Oslashsmall" unicode="&#xf7f8;" horiz-adv-x="650" 
d="M325 -10q-110 0 -175 48l-58 -72l-35 27l59 73q-67 74 -67 229q0 146 65.5 220.5t210.5 74.5q111 0 176 -48l57 71l34 -27l-56 -70q65 -74 65 -221q0 -149 -66 -227t-210 -78zM325 499q-93 0 -126.5 -52.5t-33.5 -151.5q0 -92 25 -137l246 304q-39 37 -111 37zM325 81
q48 0 81 16t49.5 47.5t23 67t6.5 83.5q0 85 -24 128l-246 -304q38 -38 110 -38z" />
    <glyph glyph-name="Ugravesmall" unicode="&#xf7f9;" 
d="M59 232v348h110v-344q0 -28 1.5 -47t9 -41.5t21.5 -35.5t39.5 -22t61.5 -9q42 0 69 12.5t39.5 36.5t16.5 47.5t4 58.5v344h110v-344q0 -129 -59.5 -187.5t-181.5 -58.5q-121 0 -181 56.5t-60 185.5zM247 630l-89 120h92l57 -120h-60z" />
    <glyph glyph-name="Uacutesmall" unicode="&#xf7fa;" 
d="M59 232v348h110v-344q0 -28 1.5 -47t9 -41.5t21.5 -35.5t39.5 -22t61.5 -9q42 0 69 12.5t39.5 36.5t16.5 47.5t4 58.5v344h110v-344q0 -129 -59.5 -187.5t-181.5 -58.5q-121 0 -181 56.5t-60 185.5zM415 750l-89 -120h-60l58 120h91z" />
    <glyph glyph-name="Ucircumflexsmall" unicode="&#xf7fb;" 
d="M59 232v348h110v-344q0 -28 1.5 -47t9 -41.5t21.5 -35.5t39.5 -22t61.5 -9q42 0 69 12.5t39.5 36.5t16.5 47.5t4 58.5v344h110v-344q0 -129 -59.5 -187.5t-181.5 -58.5q-121 0 -181 56.5t-60 185.5zM300 702l-82 -72h-60l109 120h66l108 -120h-60z" />
    <glyph glyph-name="Udieresissmall" unicode="&#xf7fc;" 
d="M59 232v348h110v-344q0 -28 1.5 -47t9 -41.5t21.5 -35.5t39.5 -22t61.5 -9q42 0 69 12.5t39.5 36.5t16.5 47.5t4 58.5v344h110v-344q0 -129 -59.5 -187.5t-181.5 -58.5q-121 0 -181 56.5t-60 185.5zM131 750h92v-113h-92v113zM376 750h92v-113h-92v113z" />
    <glyph glyph-name="Yacutesmall" unicode="&#xf7fd;" horiz-adv-x="580" 
d="M292 310h2l131 270h126l-206 -400v-180h-110v180l-206 400h132zM410 750l-89 -120h-60l58 120h91z" />
    <glyph glyph-name="Ydieresissmall" unicode="&#xf7ff;" horiz-adv-x="580" 
d="M292 310h2l131 270h126l-206 -400v-180h-110v180l-206 400h132zM121 750h92v-113h-92v113zM366 750h92v-113h-92v113z" />
    <glyph glyph-name="ff" unicode="&#xfb00;" horiz-adv-x="640" 
d="M384 500v46q0 82 35 118t116 36q39 0 84 -8l-10 -85q-33 5 -49 5q-38 0 -52 -20.5t-14 -64.5v-27h120v-79h-120v-421h-110v421h-185v-421h-110v421h-72v72l72 7v46q0 82 35 118t116 36q39 0 84 -8l-10 -85q-33 5 -49 5q-38 0 -52 -20.5t-14 -64.5v-27h185z" />
    <glyph glyph-name="fi" unicode="&#xfb01;" horiz-adv-x="542" 
d="M89 500v27q0 86 46.5 129.5t153.5 43.5q36 0 93 -9.5t89 -22.5l-11 -79q-69 23 -159 23q-62 0 -82 -21t-20 -64v-27h295v-500h-110v421h-185v-421h-110v421h-72v72z" />
    <glyph glyph-name="fl" unicode="&#xfb02;" horiz-adv-x="542" 
d="M199 421v-421h-110v421h-72v72l72 7v27q0 86 46.5 129.5t153.5 43.5q72 0 126 -19h79v-681h-110v596q-46 16 -83 16q-62 0 -82 -21t-20 -64v-27h120v-79h-120z" />
    <glyph glyph-name="ffi" unicode="&#xfb03;" horiz-adv-x="837" 
d="M384 421h-185v-421h-110v421h-72v72l72 7v46q0 82 35 118t116 36q39 0 84 -8l-10 -85q-33 5 -49 5q-38 0 -52 -20.5t-14 -64.5v-27h185v27q0 86 46.5 129.5t153.5 43.5q36 0 93 -9.5t89 -22.5l-11 -79q-69 23 -159 23q-62 0 -82 -21t-20 -64v-27h295v-500h-110v421h-185
v-421h-110v421z" />
    <glyph glyph-name="ffl" unicode="&#xfb04;" horiz-adv-x="837" 
d="M384 421h-185v-421h-110v421h-72v72l72 7v46q0 82 35 118t116 36q39 0 84 -8l-10 -85q-33 5 -49 5q-38 0 -52 -20.5t-14 -64.5v-27h185v27q0 86 46.5 129.5t153.5 43.5q72 0 126 -19h79v-681h-110v596q-46 16 -83 16q-62 0 -82 -21t-20 -64v-27h120v-79h-120v-421h-110
v421z" />
    <glyph glyph-name="longs_t" unicode="&#xfb05;" horiz-adv-x="622" 
d="M89 -58v604q0 82 35 118t116 36q39 0 84 -8l-10 -85q-33 5 -49 5q-38 0 -52 -20.5t-14 -64.5v-594q0 -75 -33 -109t-119 -34q-40 0 -83 8l10 85q33 -5 48 -5q39 0 53 14t14 50zM336 144v277h-71v72l71 7l13 140h97v-140h133v-79h-133v-258q0 -43 18 -64t61 -21q16 0 49 5
l10 -85q-45 -8 -97 -8q-81 0 -116 36t-35 118z" />
    <glyph glyph-name="s_t" unicode="&#xfb06;" horiz-adv-x="860" 
d="M446 147q0 -77 -50 -117t-141 -40q-129 0 -221 23l20 88q93 -23 188 -23q52 0 73 20t21 41q0 23 -22.5 37.5t-76.5 24.5q-94 17 -143.5 52.5t-49.5 111.5q0 145 191 145q113 0 205 -23l-20 -88q-93 23 -179 23q-49 0 -68 -17.5t-19 -36.5q0 -23 19.5 -37.5t74.5 -26.5
q36 -8 59.5 -14t52.5 -18.5t45.5 -28t28.5 -40t12 -56.5zM574 144v277h-72v72l72 7l13 140h97v-140h132v-79h-132v-258q0 -43 18 -64t60 -21q16 0 49 5l10 -85q-43 -8 -96 -8q-81 0 -116 36t-35 118z" />
    <glyph glyph-name="cyrbreve" horiz-adv-x="401" 
d="M200 627q38 0 62.5 21t35.5 54h46q-9 -66 -45.5 -102t-98.5 -36q-61 0 -97.5 36t-45.5 102h46q11 -33 35.5 -54t61.5 -21z" />
    <glyph glyph-name="undercommaaccent" horiz-adv-x="215" 
d="M105 -209h-35l21 84h-31v85h97v-85z" />
    <glyph glyph-name="dieresisacute" horiz-adv-x="520" 
d="M57 680h92v-113h-92v113zM371 680h91v-113h-91v113zM341 700l-89 -133h-60l58 133h91z" />
    <glyph glyph-name="dieresisgrave" horiz-adv-x="520" 
d="M371 680h91v-113h-91v113zM57 680h92v-113h-92v113zM267 567l-88 133h91l57 -133h-60z" />
    <glyph glyph-name="dblgrave" horiz-adv-x="364" 
d="M246 560l-70 120h73l57 -120h-60zM127 560l-70 120h73l57 -120h-60z" />
    <glyph glyph-name="cyrflex" horiz-adv-x="397" 
d="M199 640l-57 -80h-85l102 140h79l102 -140h-85z" />
    <glyph glyph-name="Acute" horiz-adv-x="264" 
d="M219 850l-89 -140h-85l57 140h117z" />
    <glyph glyph-name="Breve" horiz-adv-x="401" 
d="M200 797q38 0 62.5 21t35.5 54h46q-9 -66 -45.5 -102t-98.5 -36q-61 0 -97.5 36t-45.5 102h46q11 -33 35.5 -54t61.5 -21z" />
    <glyph glyph-name="cyrBreve" horiz-adv-x="401" 
d="M200 797q38 0 62.5 21t35.5 54h46q-9 -66 -45.5 -102t-98.5 -36q-61 0 -97.5 36t-45.5 102h46q11 -33 35.5 -54t61.5 -21z" />
    <glyph glyph-name="Caron" horiz-adv-x="397" 
d="M142 850l57 -80l56 80h85l-102 -140h-79l-102 140h85z" />
    <glyph glyph-name="Cedilla" horiz-adv-x="292" 
d="M110 -76v76h42v-54q33 -3 58 -19.5t25 -52.5t-26.5 -57.5t-73.5 -21.5q-37 0 -78 12l7 36q28 -7 50 -7q26 0 39.5 13t13.5 30t-14 29.5t-43 15.5z" />
    <glyph glyph-name="Circumflex" horiz-adv-x="397" 
d="M199 790l-57 -80h-85l102 140h79l102 -140h-85z" />
    <glyph glyph-name="commaaccent.cap" horiz-adv-x="215" 
d="M105 -209h-35l21 84h-31v85h97v-85z" />
    <glyph glyph-name="Dieresis" horiz-adv-x="451" 
d="M81 852h91v-125h-91v125zM279 852h91v-125h-91v125z" />
    <glyph glyph-name="DieresisAcute" horiz-adv-x="520" 
d="M57 850h92v-113h-92v113zM371 850h91v-113h-91v113zM341 870l-89 -133h-60l58 133h91z" />
    <glyph glyph-name="DieresisGrave" horiz-adv-x="520" 
d="M371 850h91v-113h-91v113zM57 850h92v-113h-92v113zM267 737l-88 133h91l57 -133h-60z" />
    <glyph glyph-name="Dotaccent" horiz-adv-x="212" 
d="M57 850h98v-113h-98v113z" />
    <glyph glyph-name="Hungarumlaut" horiz-adv-x="364" 
d="M187 850l-70 -120h-60l58 120h72zM306 850l-70 -120h-60l58 120h72z" />
    <glyph glyph-name="Grave" horiz-adv-x="264" 
d="M134 710l-89 140h116l58 -140h-85z" />
    <glyph glyph-name="dblGrave" horiz-adv-x="364" 
d="M246 730l-70 120h73l57 -120h-60zM127 730l-70 120h73l57 -120h-60z" />
    <glyph glyph-name="cyrFlex" horiz-adv-x="397" 
d="M199 790l-57 -80h-85l102 140h79l102 -140h-85z" />
    <glyph glyph-name="Macron" horiz-adv-x="432" 
d="M57 831h318v-72h-318v72z" />
    <glyph glyph-name="Ogonek" horiz-adv-x="303" 
d="M241 -145l5 -27q-37 -29 -93 -29q-41 0 -68.5 20.5t-27.5 54.5q0 69 86 126h55q-66 -52 -66 -106q0 -53 58 -53q21 0 51 14z" />
    <glyph glyph-name="Ring" horiz-adv-x="272" 
d="M57 790q0 33 23 54.5t56 21.5q34 0 56 -21.5t22 -54.5t-22 -54.5t-56 -21.5q-33 0 -56 21.5t-23 54.5zM94 790q0 -19 12 -31.5t30 -12.5q19 0 31 12.5t12 31.5t-12 31.5t-31 12.5q-18 0 -30 -12.5t-12 -31.5z" />
    <glyph glyph-name="Tilde" horiz-adv-x="448" 
d="M168 765q-18 0 -33 -8.5t-43 -36.5l-35 40q47 87 108 87q26 0 71.5 -24t60.5 -24q32 0 65 43l29 -46q-39 -77 -94 -77q-19 0 -64.5 23t-64.5 23z" />
    <glyph glyph-name="Acutesmall" horiz-adv-x="264" 
d="M206 750l-89 -120h-60l58 120h91z" />
    <glyph glyph-name="Brevesmall" horiz-adv-x="401" 
d="M200 697q38 0 62.5 21t35.5 54h46q-9 -66 -45.5 -102t-98.5 -36q-61 0 -97.5 36t-45.5 102h46q11 -33 35.5 -54t61.5 -21z" />
    <glyph glyph-name="Caronsmall" horiz-adv-x="397" 
d="M117 750l82 -73l81 73h60l-108 -120h-66l-109 120h60z" />
    <glyph glyph-name="Cedillasmall" horiz-adv-x="292" 
d="M110 -76v76h42v-54q33 -3 58 -19.5t25 -52.5t-26.5 -57.5t-73.5 -21.5q-37 0 -78 12l7 36q28 -7 50 -7q26 0 39.5 13t13.5 30t-14 29.5t-43 15.5z" />
    <glyph glyph-name="Circumflexsmall" horiz-adv-x="397" 
d="M199 702l-82 -72h-60l109 120h66l108 -120h-60z" />
    <glyph glyph-name="commaaccent.small" horiz-adv-x="215" 
d="M105 -209h-35l21 84h-31v85h97v-85z" />
    <glyph glyph-name="Dieresissmall" horiz-adv-x="451" 
d="M57 750h92v-113h-92v113zM302 750h92v-113h-92v113z" />
    <glyph glyph-name="DieresisAcute.small" horiz-adv-x="520" 
d="M57 750h92v-113h-92v113zM371 750h91v-113h-91v113zM341 770l-89 -133h-60l58 133h91z" />
    <glyph glyph-name="DieresisGrave.small" horiz-adv-x="520" 
d="M371 750h91v-113h-91v113zM57 750h92v-113h-92v113zM267 637l-88 133h91l57 -133h-60z" />
    <glyph glyph-name="Dotaccentsmall" horiz-adv-x="212" 
d="M57 750h98v-113h-98v113z" />
    <glyph glyph-name="Hungarumlautsmall" horiz-adv-x="364" 
d="M187 750l-70 -120h-60l58 120h72zM306 750l-70 -120h-60l58 120h72z" />
    <glyph glyph-name="Gravesmall" horiz-adv-x="264" 
d="M146 630l-89 120h92l57 -120h-60z" />
    <glyph glyph-name="dblGrave.small" horiz-adv-x="364" 
d="M246 630l-70 120h73l57 -120h-60zM127 630l-70 120h73l57 -120h-60z" />
    <glyph glyph-name="Macronsmall" horiz-adv-x="432" 
d="M57 725h318v-66h-318v66z" />
    <glyph glyph-name="Ogoneksmall" horiz-adv-x="303" 
d="M241 -145l5 -27q-37 -29 -93 -29q-41 0 -68.5 20.5t-27.5 54.5q0 69 86 126h55q-66 -52 -66 -106q0 -53 58 -53q21 0 51 14z" />
    <glyph glyph-name="Ringsmall" horiz-adv-x="272" 
d="M57 690q0 33 23 54.5t56 21.5q34 0 56 -21.5t22 -54.5t-22 -54.5t-56 -21.5q-33 0 -56 21.5t-23 54.5zM94 690q0 -19 12 -31.5t30 -12.5q19 0 31 12.5t12 31.5t-12 31.5t-31 12.5q-18 0 -30 -12.5t-12 -31.5z" />
    <glyph glyph-name="Tildesmall" horiz-adv-x="448" 
d="M168 675q-18 0 -33 -8.5t-43 -36.5l-35 27q47 87 108 87q26 0 71.5 -24t60.5 -24q32 0 65 44l29 -34q-39 -77 -94 -77q-19 0 -64.5 23t-64.5 23z" />
    <glyph glyph-name="middot" horiz-adv-x="235" 
d="M69 372h97v-125h-97v125z" />
    <glyph glyph-name="T_h" horiz-adv-x="1030" 
d="M659 371v-371h-110v576h-211v-576h-116v576h-183v104h620v-248h2q75 78 170 78q74 0 112 -43.5t38 -122.5v-344h-110v319q0 100 -90 100q-54 0 -122 -48z" />
    <glyph glyph-name="T_h.caron" horiz-adv-x="1030" 
d="M659 371v-371h-110v576h-211v-576h-116v576h-183v104h620v-248h2q75 78 170 78q74 0 112 -43.5t38 -122.5v-344h-110v319q0 100 -90 100q-54 0 -122 -48zM225 850l57 -80l56 80h85l-102 -140h-79l-102 140h85z" />
    <glyph glyph-name="T_h.commaaccent" horiz-adv-x="1030" 
d="M659 371v-371h-110v576h-211v-576h-116v576h-183v104h620v-248h2q75 78 170 78q74 0 112 -43.5t38 -122.5v-344h-110v319q0 100 -90 100q-54 0 -122 -48zM278 -209h-35l21 84h-31v85h97v-85z" />
    <glyph glyph-name="Aogonek.small" horiz-adv-x="610" 
d="M497 0h-45l-45 126h-209l-46 -126h-123l213 585h130l209 -585q-45 -8 -70.5 -40.5t-25.5 -65.5q0 -53 59 -53q18 0 51 14l4 -27q-37 -29 -92 -29q-42 0 -69 20.5t-27 54.5q0 71 86 126zM304 441h-1l-81 -224h162z" />
    <glyph glyph-name="Dcroat.small" horiz-adv-x="610" 
d="M181 97h101q90 0 126.5 48.5t36.5 149.5q0 99 -36 143t-127 44h-101v-154h123v-66h-123v-165zM289 0h-218v262h-70v66h70v252h218q140 0 206 -72t66 -213q0 -295 -272 -295z" />
    <glyph glyph-name="Eogonek.small" horiz-adv-x="520" 
d="M515 -145l4 -27q-37 -29 -92 -29q-42 0 -69 20.5t-27 54.5q0 69 86 126h-358v580h407v-98h-297v-138h252v-98h-252v-149h302v-97q-66 -52 -66 -106q0 -53 59 -53q18 0 51 14z" />
    <glyph glyph-name="Hbar.small" horiz-adv-x="620" 
d="M-1 503h70v77h110v-77h262v77h110v-77h70v-66h-70v-437h-110v246h-262v-246h-110v437h-70v66zM179 344h262v93h-262v-93z" />
    <glyph glyph-name="Iogonek.small" horiz-adv-x="227" 
d="M169 580v-580q-41 -8 -65.5 -41.5t-24.5 -64.5q0 -53 58 -53q21 0 51 14l5 -27q-37 -29 -93 -29q-41 0 -68 20.5t-27 54.5q0 72 86 126q-5 9 -16 27t-16 27v526h110z" />
    <glyph glyph-name="IJ.small" horiz-adv-x="565" 
d="M169 0h-110v580h110v-580zM512 580v-404q0 -186 -170 -186q-56 0 -99 8l10 98q26 -5 58 -5q42 0 63.5 21t21.5 70v398h116z" />
    <glyph glyph-name="Scedilla.small" horiz-adv-x="570" 
d="M257 244q-94 18 -141 57t-47 118q0 171 211 171q108 0 231 -36l-26 -92q-124 30 -202 30q-98 0 -98 -64q0 -14 4 -24.5t14 -18.5t18 -13.5t25.5 -10t26 -6.5t31 -6t29.5 -5q92 -17 140 -59t48 -118q0 -87 -61.5 -130.5t-158.5 -45.5v-45q33 -3 58 -19.5t25 -52.5
t-26.5 -57.5t-73.5 -21.5q-38 0 -77 12l6 36q28 -7 50 -7q27 0 40 13t13 30t-14 29.5t-43 15.5v67q-106 3 -210 35l26 91q124 -30 218 -30q58 0 85 21.5t27 52.5q0 17 -7 29t-16.5 19.5t-29.5 14t-35 9.5t-43 8q-11 2 -17 3z" />
    <glyph glyph-name="Tbar.small" horiz-adv-x="520" 
d="M124 263h81v219h-166v98h442v-98h-166v-219h81v-66h-81v-197h-110v197h-81v66z" />
    <glyph glyph-name="Uogonek.small" 
d="M59 232v348h110v-344q0 -28 1.5 -47t9 -41.5t21.5 -35.5t39.5 -22t61.5 -9q42 0 69 12.5t39.5 36.5t16.5 47.5t4 58.5v344h110v-344q0 -124 -54.5 -182t-164.5 -63q-54 -49 -54 -97q0 -53 58 -53q21 0 51 14l5 -27q-37 -29 -93 -29q-41 0 -68.5 20.5t-27.5 54.5
q0 63 73 117q-104 7 -155.5 64t-51.5 177z" />
    <glyph glyph-name="c_t" horiz-adv-x="855" 
d="M569 144v277h-72v72l72 7l13 140h97v-140h132v-79h-132v-258q0 -43 18 -64t60 -21q16 0 49 5l10 -85q-43 -8 -96 -8q-81 0 -116 36t-35 118zM39 250q0 125 58.5 192.5t192.5 67.5q80 0 172 -23l-19 -88q-82 20 -153 20q-67 0 -101 -44.5t-34 -124.5t34 -124.5t101 -44.5
q71 0 153 20l19 -88q-92 -23 -172 -23q-134 0 -192.5 67.5t-58.5 192.5z" />
    <glyph glyph-name="f_f_j" horiz-adv-x="837" 
d="M679 -58v479h-185v-421h-110v421h-185v-421h-110v421h-72v72l72 7v46q0 82 35 118t116 36q39 0 84 -8l-10 -85q-33 5 -49 5q-38 0 -52 -20.5t-14 -64.5v-27h185v27q0 86 46.5 129.5t153.5 43.5q36 0 93 -9.5t89 -22.5l-11 -79q-69 23 -159 23q-62 0 -82 -21t-20 -64v-27
h295v-567q0 -75 -33.5 -109t-118.5 -34q-40 0 -83 8l10 85q33 -5 48 -5q38 0 52.5 13.5t14.5 50.5z" />
    <glyph glyph-name="f_j" horiz-adv-x="542" 
d="M384 -58v479h-185v-421h-110v421h-72v72l72 7v27q0 86 46.5 129.5t153.5 43.5q36 0 93 -9.5t89 -22.5l-11 -79q-69 23 -159 23q-62 0 -82 -21t-20 -64v-27h295v-567q0 -75 -33.5 -109t-118.5 -34q-40 0 -83 8l10 85q33 -5 48 -5q38 0 52.5 13.5t14.5 50.5z" />
    <glyph glyph-name="s_p" horiz-adv-x="1025" 
d="M446 147q0 -77 -50 -117t-141 -40q-129 0 -221 23l20 88q93 -23 188 -23q52 0 73 20t21 41q0 23 -22.5 37.5t-76.5 24.5q-94 17 -143.5 52.5t-49.5 111.5q0 145 191 145q113 0 205 -23l-20 -88q-93 23 -179 23q-49 0 -68 -17.5t-19 -36.5q0 -23 19.5 -37.5t74.5 -26.5
q36 -8 59.5 -14t52.5 -18.5t45.5 -28t28.5 -40t12 -56.5zM654 500v-50h2q25 27 65 43.5t81 16.5q184 0 184 -260q0 -117 -45.5 -188.5t-144.5 -71.5q-86 0 -140 57h-2v-247h-110v700h110zM870 250q0 169 -111 169q-57 0 -105 -37v-264q48 -37 105 -37q111 0 111 169z" />
    <glyph glyph-name="dsuperior" horiz-adv-x="304" 
d="M207 655v125h55v-351h-55v25h-1q-29 -29 -70 -29q-95 0 -95 130t92 130q45 0 73 -30h1zM99 555q0 -84 56 -84q29 0 52 18v132q-23 18 -52 18q-56 0 -56 -84z" />
    <glyph glyph-name="h.superior" horiz-adv-x="299" 
d="M96 615v-185h-55v350h55v-134h1q37 39 85 39q75 0 75 -83v-172h-55v159q0 50 -45 50q-27 0 -61 -24z" />
    <glyph glyph-name="Ethsmall" horiz-adv-x="610" 
d="M181 97h101q90 0 126.5 48.5t36.5 149.5q0 99 -36 143t-127 44h-101v-154h123v-66h-123v-165zM289 0h-218v262h-70v66h70v252h218q140 0 206 -72t66 -213q0 -295 -272 -295z" />
    <glyph glyph-name="Thornsmall" horiz-adv-x="560" 
d="M297 93h-128v-93h-110v580h110v-93h128q105 0 164.5 -51.5t59.5 -145.5q0 -96 -59 -146.5t-165 -50.5zM169 389v-198h128q111 0 111 99q0 49 -29.5 74t-81.5 25h-128z" />
    <glyph glyph-name="Eng.small" horiz-adv-x="610" 
d="M441 -58v58l-273 401h-2v-401h-107v580h116l267 -401h2v401h107v-647q0 -75 -33 -109t-118 -34q-39 0 -84 8l10 85q33 -5 49 -5q37 0 51.5 13.5t14.5 50.5z" />
    <glyph glyph-name="longs_h" horiz-adv-x="865" 
d="M494 681v-249h2q75 78 170 78q74 0 112 -43.5t38 -122.5v-344h-110v319q0 100 -90 100q-54 0 -122 -48v-371h-110v596q-46 16 -83 16q-61 0 -81.5 -23.5t-20.5 -67.5v-588q0 -75 -33 -109t-119 -34q-40 0 -83 8l10 85q33 -5 48 -5q39 0 53 14t14 50v579q0 86 47 132.5
t153 46.5q72 0 126 -19h79z" />
    <glyph glyph-name="longs_l" horiz-adv-x="542" 
d="M89 -58v579q0 86 47 132.5t153 46.5q72 0 126 -19h79v-681h-110v596q-46 16 -83 16q-61 0 -81.5 -23.5t-20.5 -67.5v-588q0 -75 -33 -109t-119 -34q-40 0 -83 8l10 85q33 -5 48 -5q39 0 53 14t14 50z" />
    <glyph glyph-name="longs_i" horiz-adv-x="495" 
d="M89 -58v604q0 82 35 118t116 36q39 0 84 -8l-10 -85q-33 5 -49 5q-38 0 -52 -20.5t-14 -64.5v-594q0 -75 -33 -109t-119 -34q-40 0 -83 8l10 85q33 -5 48 -5q39 0 53 14t14 50zM336 500h110v-500h-110v500z" />
    <glyph glyph-name="longs_longs" horiz-adv-x="620" 
d="M89 -58v604q0 82 35 118t116 36q39 0 84 -8l-10 -85q-33 5 -49 5q-38 0 -52 -20.5t-14 -64.5v-594q0 -75 -33 -109t-119 -34q-40 0 -83 8l10 85q33 -5 48 -5q39 0 53 14t14 50zM364 -58v604q0 82 35 118t116 36q39 0 84 -8l-10 -85q-33 5 -49 5q-38 0 -52 -20.5
t-14 -64.5v-594q0 -75 -33 -109t-119 -34q-40 0 -83 8l10 85q33 -5 48 -5q39 0 53 14t14 50z" />
    <glyph glyph-name="zero.slash" horiz-adv-x="590" 
d="M295 -10q-133 0 -189.5 92.5t-56.5 262.5q0 168 56.5 256.5t189.5 88.5t189.5 -88.5t56.5 -256.5q0 -170 -56.5 -262.5t-189.5 -92.5zM295 81q130 0 130 264q0 65 -13 114l-226 -286q31 -92 109 -92zM295 599q-72 0 -101 -68t-29 -186q0 -68 12 -112l224 284
q-31 82 -106 82z" />
    <glyph glyph-name="zero.fitted" 
d="M300 599q-72 0 -101 -68t-29 -186q0 -264 130 -264t130 264q0 118 -29 186t-101 68zM300 -10q-72 0 -121.5 27.5t-76 78.5t-37.5 111t-11 138q0 77 11 135.5t37.5 108t76 75.5t121.5 26t121.5 -26t76 -75.5t37.5 -108t11 -135.5q0 -78 -11 -138t-37.5 -111t-76 -78.5
t-121.5 -27.5z" />
    <glyph glyph-name="one.fitted" 
d="M46 91h203v463l-155 -75l-28 91q143 59 213 115h80v-594h195v-91h-508v91z" />
    <glyph glyph-name="two.fitted" 
d="M270 589q-75 0 -164 -37l-32 88q117 50 221 50q108 0 164.5 -57.5t56.5 -146.5q0 -101 -71 -193t-216 -194v-2h297v-97h-452v106q188 122 257 206t69 150q0 40 -13.5 67.5t-36 39t-41 16t-39.5 4.5z" />
    <glyph glyph-name="three.fitted" 
d="M392 353v-2q69 -15 106.5 -61t37.5 -108q0 -92 -63 -142t-180 -50q-133 0 -229 48l33 85q87 -42 190 -42q76 0 106 33.5t30 74.5q0 105 -148 105h-88v92h83q71 0 104 33t33 80q0 39 -28 69.5t-92 30.5q-85 0 -175 -42l-33 85q103 48 227 48q94 0 152 -47t58 -132
q0 -114 -124 -158z" />
    <glyph glyph-name="four.fitted" 
d="M157 257h198v280h-2q-67 -128 -196 -280zM328 680h137v-423h91v-91h-91v-166h-110v166h-311v91q187 204 284 423z" />
    <glyph glyph-name="five.fitted" 
d="M285 -10q-114 0 -221 50l32 85q93 -44 183 -44q67 0 104 36.5t37 98.5q0 53 -29 91.5t-94 38.5q-70 0 -118 -57l-80 7l15 384h382v-98h-287l-11 -197l2 -1q56 56 136 56q92 0 146 -57t54 -161q0 -112 -66.5 -172t-184.5 -60z" />
    <glyph glyph-name="six.fitted" 
d="M174 377l2 -1q61 79 152 79q97 0 152.5 -61.5t55.5 -173.5q0 -106 -63.5 -168t-164.5 -62q-66 0 -114.5 25.5t-76 70t-40.5 98t-13 116.5q0 390 290 390q83 0 161 -27l-13 -84q-81 20 -139 20q-86 0 -137.5 -66.5t-51.5 -155.5zM183 292q-14 -211 119 -211q50 0 84 36.5
t34 102.5q0 57 -27.5 98t-93.5 41q-65 0 -116 -67z" />
    <glyph glyph-name="seven.fitted" 
d="M391 580v2h-302v98h422v-79q-92 -156 -153 -297t-87 -304h-122q22 133 90.5 294.5t151.5 285.5z" />
    <glyph glyph-name="eight.fitted" 
d="M397 359v-2q73 -33 111 -74.5t38 -101.5q0 -93 -69 -142t-180 -49q-108 0 -175.5 45.5t-67.5 133.5q0 117 147 173v2q-127 58 -127 168q0 84 66 131t163 47q93 0 158 -46t65 -126q0 -57 -32 -93t-97 -66zM167 181q0 -46 33.5 -77.5t103.5 -31.5q67 0 98 28t31 71
q0 26 -11 46t-34.5 35t-41.5 23.5t-49 20.5q-9 3 -13 5q-117 -43 -117 -120zM297 608q-44 0 -78.5 -24t-34.5 -70q0 -81 129 -116q103 36 103 110q0 49 -35.5 74.5t-83.5 25.5z" />
    <glyph glyph-name="nine.fitted" 
d="M426 303l-2 1q-61 -79 -152 -79q-98 0 -153 61.5t-55 173.5q0 106 63.5 168t164.5 62q66 0 114.5 -25.5t76 -70t40.5 -98t13 -116.5q0 -390 -290 -390q-83 0 -161 27l13 84q81 -20 139 -20q86 0 137.5 66.5t51.5 155.5zM417 388q14 211 -119 211q-50 0 -84 -36.5
t-34 -102.5q0 -26 5.5 -48t18 -44t37.5 -34.5t60 -12.5q65 0 116 67z" />
    <glyph glyph-name="oneoldstyle" horiz-adv-x="375" 
d="M204 374l-154 -75l-29 91q141 57 213 115h80v-505h-110v374z" />
    <glyph glyph-name="threeoldstyle" horiz-adv-x="570" 
d="M377 173v-2q69 -15 106.5 -61t37.5 -108q0 -92 -63 -142t-180 -50q-133 0 -229 48l33 85q87 -42 190 -42q76 0 106 33.5t30 74.5q0 105 -148 105h-88v92h83q71 0 104 33t33 80q0 39 -28 69.5t-92 30.5q-85 0 -175 -42l-33 85q103 48 227 48q94 0 152 -47t58 -132
q0 -114 -124 -158z" />
    <glyph glyph-name="fouroldstyle" 
d="M323 505h137v-414h91v-91h-91v-170h-110v170h-311v91q194 212 284 414zM152 91h198v293h-2q-85 -162 -196 -293z" />
    <glyph glyph-name="fiveoldstyle" horiz-adv-x="570" 
d="M270 -190q-114 0 -221 50l32 85q93 -44 183 -44q68 0 104.5 36.5t36.5 98.5q0 53 -29 91.5t-94 38.5q-70 0 -118 -57l-80 7l15 384h382v-98h-287l-11 -197l2 -1q56 56 136 56q92 0 146 -57t54 -161q0 -112 -66.5 -172t-184.5 -60z" />
    <glyph glyph-name="sixoldstyle" horiz-adv-x="570" 
d="M159 377l2 -1q61 79 152 79q97 0 152.5 -61.5t55.5 -173.5q0 -106 -63.5 -168t-164.5 -62q-66 0 -114.5 25.5t-76 70t-40.5 98t-13 116.5q0 390 290 390q83 0 161 -27l-13 -84q-81 20 -139 20q-86 0 -137.5 -66.5t-51.5 -155.5zM168 292q-14 -211 119 -211q50 0 84 36.5
t34 102.5q0 57 -27.5 98t-93.5 41q-65 0 -116 -67z" />
    <glyph glyph-name="sevenoldstyle" horiz-adv-x="500" 
d="M341 400v2h-302v98h422v-79q-92 -156 -153 -297t-87 -304h-122q22 133 90.5 294.5t151.5 285.5z" />
    <glyph glyph-name="eightoldstyle" horiz-adv-x="590" 
d="M392 359v-2q73 -33 111 -74.5t38 -101.5q0 -93 -69 -142t-180 -49q-108 0 -175.5 45.5t-67.5 133.5q0 117 147 173v2q-127 58 -127 168q0 84 66 131t163 47q93 0 158 -46t65 -126q0 -57 -32 -93t-97 -66zM162 181q0 -46 33.5 -77.5t103.5 -31.5q67 0 98 28t31 71
q0 26 -11 46t-34.5 35t-41.5 23.5t-49 20.5q-9 3 -13 5q-117 -43 -117 -120zM292 608q-44 0 -78.5 -24t-34.5 -70q0 -81 129 -116q103 36 103 110q0 49 -35.5 74.5t-83.5 25.5z" />
    <glyph glyph-name="nineoldstyle" horiz-adv-x="570" 
d="M411 123l-2 1q-61 -79 -152 -79q-98 0 -153 61.5t-55 173.5q0 106 63.5 168t164.5 62q66 0 114.5 -25.5t76 -70t40.5 -98t13 -116.5q0 -390 -290 -390q-83 0 -161 27l13 84q81 -20 139 -20q86 0 137.5 66.5t51.5 155.5zM402 208q14 211 -119 211q-50 0 -84 -36.5
t-34 -102.5q0 -26 5.5 -48t18 -44t37.5 -34.5t60 -12.5q65 0 116 67z" />
    <glyph glyph-name="zero.taboldstyle" 
d="M300 419q-61 0 -95.5 -46.5t-34.5 -122.5t34.5 -122.5t95.5 -46.5t95.5 46.5t34.5 122.5t-34.5 122.5t-95.5 46.5zM300 -10q-116 0 -181 70.5t-65 189.5t65 189.5t181 70.5t181 -70.5t65 -189.5t-65 -189.5t-181 -70.5z" />
    <glyph glyph-name="one.taboldstyle" 
d="M46 91h203v283l-155 -75l-28 91q143 59 213 115h80v-414h195v-91h-508v91z" />
    <glyph glyph-name="two.taboldstyle" 
d="M289 409q-92 0 -189 -37l-26 94q113 44 233 44q97 0 153 -44t56 -118q0 -29 -9.5 -55.5t-21.5 -46.5t-37 -40t-42 -32t-51.5 -28t-51.5 -23l-54 -22q-13 -5 -20 -8v-2l297 6v-97h-452v106q184 74 255 119t71 98q0 47 -34 66.5t-77 19.5z" />
    <glyph glyph-name="three.taboldstyle" 
d="M392 173v-2q69 -15 106.5 -61t37.5 -108q0 -92 -63 -142t-180 -50q-133 0 -229 48l33 85q87 -42 190 -42q76 0 106 33.5t30 74.5q0 105 -148 105h-88v92h83q71 0 104 33t33 80q0 39 -28 69.5t-92 30.5q-85 0 -175 -42l-33 85q103 48 227 48q94 0 152 -47t58 -132
q0 -114 -124 -158z" />
    <glyph glyph-name="four.taboldstyle" 
d="M328 505h137v-414h91v-91h-91v-170h-110v170h-311v91q194 212 284 414zM157 91h198v293h-2q-85 -162 -196 -293z" />
    <glyph glyph-name="five.taboldstyle" 
d="M285 -190q-114 0 -221 50l32 85q93 -44 183 -44q67 0 104 36.5t37 98.5q0 53 -29 91.5t-94 38.5q-70 0 -118 -57l-80 7l15 384h382v-98h-287l-11 -197l2 -1q56 56 136 56q92 0 146 -57t54 -161q0 -112 -66.5 -172t-184.5 -60z" />
    <glyph glyph-name="six.taboldstyle" 
d="M174 377l2 -1q61 79 152 79q97 0 152.5 -61.5t55.5 -173.5q0 -106 -63.5 -168t-164.5 -62q-66 0 -114.5 25.5t-76 70t-40.5 98t-13 116.5q0 390 290 390q83 0 161 -27l-13 -84q-81 20 -139 20q-86 0 -137.5 -66.5t-51.5 -155.5zM183 292q-14 -211 119 -211q50 0 84 36.5
t34 102.5q0 57 -27.5 98t-93.5 41q-65 0 -116 -67z" />
    <glyph glyph-name="seven.taboldstyle" 
d="M391 400v2h-302v98h422v-79q-92 -156 -153 -297t-87 -304h-122q22 133 90.5 294.5t151.5 285.5z" />
    <glyph glyph-name="eight.taboldstyle" 
d="M397 359v-2q73 -33 111 -74.5t38 -101.5q0 -93 -69 -142t-180 -49q-108 0 -175.5 45.5t-67.5 133.5q0 117 147 173v2q-127 58 -127 168q0 84 66 131t163 47q93 0 158 -46t65 -126q0 -57 -32 -93t-97 -66zM167 181q0 -46 33.5 -77.5t103.5 -31.5q67 0 98 28t31 71
q0 26 -11 46t-34.5 35t-41.5 23.5t-49 20.5q-9 3 -13 5q-117 -43 -117 -120zM297 608q-44 0 -78.5 -24t-34.5 -70q0 -81 129 -116q103 36 103 110q0 49 -35.5 74.5t-83.5 25.5z" />
    <glyph glyph-name="nine.taboldstyle" 
d="M426 123l-2 1q-61 -79 -152 -79q-98 0 -153 61.5t-55 173.5q0 106 63.5 168t164.5 62q66 0 114.5 -25.5t76 -70t40.5 -98t13 -116.5q0 -390 -290 -390q-83 0 -161 27l13 84q81 -20 139 -20q86 0 137.5 66.5t51.5 155.5zM417 208q14 211 -119 211q-50 0 -84 -36.5
t-34 -102.5q0 -26 5.5 -48t18 -44t37.5 -34.5t60 -12.5q65 0 116 67z" />
    <glyph glyph-name="currency.taboldstyle" horiz-adv-x="513" 
d="M100 249q0 68 48 114l-78 90l8 8l79 -90q44 36 100 36q55 0 99 -36l78 90l9 -8l-78 -89q50 -47 50 -115t-49 -114l76 -86l-9 -9l-77 87q-43 -35 -99 -35q-57 0 -100 35l-76 -87l-9 9l76 86q-48 46 -48 114zM112 249q0 -59 43 -102t102 -43t102.5 43t43.5 102t-43.5 102.5
t-102.5 43.5t-102 -43.5t-43 -102.5z" />
    <glyph glyph-name="cent.taboldstyle" 
d="M349 419q-66 0 -105.5 -45.5t-39.5 -123.5t39.5 -123.5t105.5 -45.5q64 0 150 32l13 -85q-87 -38 -173 -38q-115 0 -183 71t-68 189t68 189t183 71q82 0 173 -38l-13 -85q-86 32 -150 32zM364 -130h-60v100h60v-100zM364 530h-60v100h60v-100z" />
    <glyph glyph-name="dollar.taboldstyle" 
d="M297 201q-94 17 -143.5 52.5t-49.5 111.5q0 72 54 108.5t137 36.5q113 0 205 -39l-20 -82q-99 33 -179 33q-47 0 -67 -18t-20 -36q0 -23 19.5 -37.5t74.5 -26.5q35 -7 59 -14t52.5 -20t46 -28.5t29 -41t11.5 -57.5q0 -72 -54.5 -112.5t-136.5 -40.5q-131 0 -221 39l20 82
q94 -33 188 -33q49 0 71.5 19.5t22.5 38.5q0 46 -99 65zM330 -130h-60v100h60v-100zM330 530h-60v100h60v-100z" />
    <glyph glyph-name="Euro.taboldstyle" 
d="M63 312h56q17 91 81.5 144.5t163.5 53.5q82 0 173 -38l-13 -85q-86 32 -150 32q-51 0 -86 -29t-49 -78h117v-35h-125q-2 -9 -2 -27q0 -19 2 -28h125v-35h-117q14 -49 49 -77.5t86 -28.5q64 0 150 32l13 -85q-87 -38 -173 -38q-99 0 -163.5 53t-81.5 144h-56v35h51
q-1 10 -1 29t1 26h-51v35z" />
    <glyph glyph-name="franc.taboldstyle" 
d="M63 312h56q17 91 81.5 144.5t163.5 53.5q82 0 173 -38l-13 -85q-86 32 -150 32q-51 0 -86 -29t-49 -78h117v-35h-125q-2 -9 -2 -27q0 -19 2 -28h125v-35h-117q14 -49 49 -77.5t86 -28.5q64 0 150 32l13 -85q-87 -38 -173 -38q-99 0 -163.5 53t-81.5 144h-56v35h51
q-1 10 -1 29t1 26h-51v35z" />
    <glyph glyph-name="sterling.taboldstyle" 
d="M346 219h-132v-122h312v-97h-472v97h50v122h-50v66h50v57q0 87 62 127.5t161 40.5q124 0 219 -59l-33 -82q-99 50 -192 50q-58 0 -82.5 -23.5t-24.5 -56.5v-54h132v-66z" />
    <glyph glyph-name="yen.taboldstyle" 
d="M371 210h100v-54h-116v-156h-110v156h-116v54h99l-169 290h132l111 -215h2l111 215h126z" />
    <glyph glyph-name="lira.taboldstyle" 
d="M63 312h56q17 91 81.5 144.5t163.5 53.5q82 0 173 -38l-13 -85q-86 32 -150 32q-51 0 -86 -29t-49 -78h117v-35h-125q-2 -9 -2 -27q0 -19 2 -28h125v-35h-117q14 -49 49 -77.5t86 -28.5q64 0 150 32l13 -85q-87 -38 -173 -38q-99 0 -163.5 53t-81.5 144h-56v35h51
q-1 10 -1 29t1 26h-51v35z" />
    <glyph glyph-name="peseta.taboldstyle" 
d="M63 312h56q17 91 81.5 144.5t163.5 53.5q82 0 173 -38l-13 -85q-86 32 -150 32q-51 0 -86 -29t-49 -78h117v-35h-125q-2 -9 -2 -27q0 -19 2 -28h125v-35h-117q14 -49 49 -77.5t86 -28.5q64 0 150 32l13 -85q-87 -38 -173 -38q-99 0 -163.5 53t-81.5 144h-56v35h51
q-1 10 -1 29t1 26h-51v35z" />
    <glyph glyph-name="colonmonetary.taboldstyle" 
d="M349 419q-66 0 -105.5 -45.5t-39.5 -123.5t39.5 -123.5t105.5 -45.5q64 0 150 32l13 -85q-87 -38 -173 -38q-115 0 -183 71t-68 189t68 189t183 71q82 0 173 -38l-13 -85q-86 32 -150 32zM302 -130h-60v100h60v-100zM302 530h-60v100h60v-100zM414 -130h-60v100h60v-100z
M414 530h-60v100h60v-100z" />
    <glyph glyph-name="florin.taboldstyle" 
d="M245 -37v458h-71v72l71 7v46q0 82 35 118t116 36q41 0 84 -8l-10 -85q-33 5 -49 5q-37 0 -51.5 -20.5t-14.5 -64.5v-27h120v-79h-120v-459q0 -87 -33.5 -129.5t-117.5 -42.5q-41 0 -84 8l10 85q33 -5 49 -5q37 0 51.5 20.5t14.5 64.5z" />
    <glyph glyph-name="numbersign.taboldstyle" 
d="M185 500h78l-11 -109h125l11 109h79l-12 -109h100l-7 -72h-100l-15 -138h100l-7 -72h-100l-12 -109h-79l12 109h-125l-12 -109h-78l12 109h-100l7 72h100l15 138h-100l7 72h100zM244 319l-14 -138h125l14 138h-125z" />
    <glyph glyph-name="hyphensuperior" horiz-adv-x="285" 
d="M41 734h203v-47h-203v47z" />
    <glyph glyph-name="commasuperior" horiz-adv-x="160" 
d="M88 465h-47q21 42 21 134h57q0 -93 -31 -134z" />
    <glyph glyph-name="periodsuperior" horiz-adv-x="139" 
d="M41 599h57v-69h-57v69z" />
    <glyph glyph-name="centsuperior" horiz-adv-x="353" 
d="M200 817q-48 0 -72 -32.5t-24 -86.5q0 -56 24 -90.5t72 -34.5q46 0 92 35l20 -45q-51 -43 -122 -43q-73 0 -111 50.5t-38 127.5q0 76 38 124t111 48q66 0 122 -42l-20 -46q-46 35 -92 35zM205 440h-31v60h31v-60zM205 890h-31v60h31v-60z" />
    <glyph glyph-name="dollarsuperior" horiz-adv-x="340" 
d="M189 440h-31v60h31v-60zM189 890h-31v60h31v-60zM154 672q-103 29 -103 105q0 48 34 70.5t88 22.5q69 0 117 -31l-23 -47q-49 25 -94 25q-59 0 -59 -40q0 -35 82 -54q103 -25 103 -100q0 -50 -36.5 -76.5t-93.5 -26.5q-80 0 -128 40l27 43q47 -30 105 -30q29 0 45.5 12.5
t16.5 34.5q0 6 -1.5 11t-5.5 9.5t-7.5 7.5t-10 6l-10.5 5t-12.5 4.5t-11.5 3.5t-12 3t-10 2z" />
    <glyph glyph-name="hypheninferior" horiz-adv-x="285" 
d="M41 4h203v-47h-203v47z" />
    <glyph glyph-name="commainferior" horiz-adv-x="160" 
d="M88 -265h-47q21 42 21 134h57q0 -93 -31 -134z" />
    <glyph glyph-name="periodinferior" horiz-adv-x="139" 
d="M41 -131h57v-69h-57v69z" />
    <glyph glyph-name="centinferior" horiz-adv-x="353" 
d="M200 87q-48 0 -72 -32.5t-24 -86.5q0 -56 24 -90.5t72 -34.5q46 0 92 35l20 -45q-51 -43 -122 -43q-73 0 -111 50.5t-38 127.5q0 76 38 124t111 48q66 0 122 -42l-20 -46q-46 35 -92 35zM205 -290h-31v60h31v-60zM205 160h-31v60h31v-60z" />
    <glyph glyph-name="dollarinferior" horiz-adv-x="340" 
d="M189 -290h-31v60h31v-60zM189 160h-31v60h31v-60zM154 -58q-103 29 -103 105q0 48 34 70.5t88 22.5q69 0 117 -31l-23 -47q-49 25 -94 25q-59 0 -59 -40q0 -35 82 -54q103 -25 103 -100q0 -50 -36.5 -76.5t-93.5 -26.5q-80 0 -128 40l27 43q47 -30 105 -30
q29 0 45.5 12.5t16.5 34.5q0 6 -1.5 11t-5.5 9.5t-7.5 7.5t-10 6l-10.5 5t-12.5 4.5t-11.5 3.5t-12 3t-10 2z" />
    <glyph glyph-name="zero.denominator" horiz-adv-x="330" 
d="M165 293q-64 0 -64 -125q0 -131 64 -131t64 131q0 125 -64 125zM165 -10q-65 0 -94.5 49t-29.5 129q0 172 124 172t124 -172q0 -80 -29.5 -129t-94.5 -49z" />
    <glyph glyph-name="one.denominator" horiz-adv-x="300" 
d="M35 47h97v232l-41.5 -20l-34.5 -17l-15 44q72 29 107 57h41v-296h97v-47h-251v47z" />
    <glyph glyph-name="two.denominator" horiz-adv-x="310" 
d="M140 293q-36 0 -82 -23l-17 44q59 31 115 31q52 0 80 -29t28 -73q0 -50 -35.5 -95.5t-107.5 -96.5v-1h148v-50h-228v54q163 106 163 177q0 62 -64 62z" />
    <glyph glyph-name="three.denominator" horiz-adv-x="320" 
d="M207 172q34 -9 53 -32t19 -53q0 -47 -32 -72t-91 -25q-66 0 -115 30l17 44q54 -27 97 -27q35 0 50 15.5t15 34.5q0 55 -72 55h-44v46h41q35 0 51 16.5t16 39.5q0 20 -13 34.5t-41 14.5q-36 0 -92 -27l-17 43q53 31 114 31q47 0 76.5 -23.5t29.5 -65.5q0 -57 -62 -79z" />
    <glyph glyph-name="four.denominator" horiz-adv-x="340" 
d="M100 129h97v137q-35 -61 -97 -137zM183 340h70v-211h46v-47h-46v-82h-56v82h-156v47q92 101 142 211z" />
    <glyph glyph-name="five.denominator" horiz-adv-x="320" 
d="M155 -10q-56 0 -114 32l17 43q56 -28 94 -28q28 0 47.5 18t19.5 48q0 26 -14.5 45t-45.5 19q-35 0 -59 -28l-41 4l7 192h193v-50h-144l-5 -96l1 -1q30 28 68 28q46 0 73 -28.5t27 -80.5q0 -54 -34 -85.5t-90 -31.5z" />
    <glyph glyph-name="six.denominator" horiz-adv-x="320" 
d="M98 184h1q30 38 75 38q49 0 77 -30.5t28 -86.5q0 -53 -32 -84t-83 -31q-64 0 -93.5 44t-29.5 111q0 195 146 195q40 0 81 -17l-7 -43q-38 13 -69 13q-42 0 -68 -32.5t-26 -76.5zM102 141q-6 -104 58 -104q25 0 42 18t17 50q0 28 -13.5 48t-46.5 20q-30 0 -57 -32z" />
    <glyph glyph-name="seven.denominator" horiz-adv-x="315" 
d="M212 289v1h-171v50h233v-41q-33 -56 -51.5 -90.5t-40.5 -93t-31 -115.5h-60q11 66 45.5 146.5t75.5 142.5z" />
    <glyph glyph-name="eight.denominator" horiz-adv-x="330" 
d="M215 175q37 -20 55.5 -40t18.5 -50q0 -46 -35 -70.5t-91 -24.5q-54 0 -88 23t-34 67q0 57 73 86q-63 32 -63 85q0 42 33 65.5t82 23.5q47 0 80 -23t33 -63q0 -28 -16 -46t-48 -33zM100 85q0 -24 17.5 -38.5t49.5 -14.5q62 0 64 49q0 16 -11 28.5t-25 19.5t-38 16
q-57 -22 -57 -60zM165 298q-22 0 -39.5 -11.5t-17.5 -34.5q0 -40 64 -57q50 18 50 54q0 24 -17.5 36.5t-39.5 12.5z" />
    <glyph glyph-name="nine.denominator" horiz-adv-x="320" 
d="M222 146h-1q-30 -38 -76 -38q-48 0 -76 30.5t-28 86.5q0 53 32 84t83 31q64 0 93.5 -44t29.5 -111q0 -195 -146 -195q-40 0 -81 17l7 43q36 -13 69 -13q42 0 68 32.5t26 76.5zM217 189q8 104 -58 104q-25 0 -41.5 -18t-16.5 -50q0 -28 13.5 -48t46.5 -20q31 0 56 32z" />
    <glyph glyph-name="parenleft.denominator" horiz-adv-x="207" 
d="M41 160q0 131 87 240h38q-68 -116 -68 -240q0 -120 68 -240h-38q-87 109 -87 240z" />
    <glyph glyph-name="parenright.denominator" horiz-adv-x="207" 
d="M166 160q0 -131 -87 -240h-38q68 118 68 240q0 126 -68 240h38q87 -109 87 -240z" />
    <glyph glyph-name="cent.denominator" horiz-adv-x="353" 
d="M200 287q-48 0 -72 -32.5t-24 -86.5q0 -56 24 -90.5t72 -34.5q46 0 92 35l20 -45q-51 -43 -122 -43q-73 0 -111 50.5t-38 127.5q0 76 38 124t111 48q66 0 122 -42l-20 -46q-46 35 -92 35zM205 -90h-31v60h31v-60zM205 360h-31v60h31v-60z" />
    <glyph glyph-name="dollar.denominator" horiz-adv-x="340" 
d="M189 -90h-31v60h31v-60zM189 360h-31v60h31v-60zM154 142q-103 29 -103 105q0 48 34 70.5t88 22.5q69 0 117 -31l-23 -47q-49 25 -94 25q-59 0 -59 -40q0 -35 82 -54q103 -25 103 -100q0 -50 -36.5 -76.5t-93.5 -26.5q-80 0 -128 40l27 43q47 -30 105 -30q29 0 45.5 12.5
t16.5 34.5q0 6 -1.5 11t-5.5 9.5t-7.5 7.5t-10 6l-10.5 5t-12.5 4.5t-11.5 3.5t-12 3t-10 2z" />
    <glyph glyph-name="hyphen.denominator" horiz-adv-x="285" 
d="M41 204h203v-47h-203v47z" />
    <glyph glyph-name="comma.denominator" horiz-adv-x="160" 
d="M88 -65h-47q21 42 21 134h57q0 -93 -31 -134z" />
    <glyph glyph-name="period.denominator" horiz-adv-x="139" 
d="M41 69h57v-69h-57v69z" />
    <glyph glyph-name="zero.numerator" horiz-adv-x="330" 
d="M165 623q-64 0 -64 -125q0 -131 64 -131t64 131q0 125 -64 125zM165 320q-65 0 -94.5 49t-29.5 129q0 172 124 172t124 -172q0 -80 -29.5 -129t-94.5 -49z" />
    <glyph glyph-name="one.numerator" horiz-adv-x="300" 
d="M35 377h97v232l-41.5 -20l-34.5 -17l-15 44q72 29 107 57h41v-296h97v-47h-251v47z" />
    <glyph glyph-name="two.numerator" horiz-adv-x="310" 
d="M140 623q-36 0 -82 -23l-17 44q59 31 115 31q52 0 80 -29t28 -73q0 -50 -35.5 -95.5t-107.5 -96.5v-1h148v-50h-228v54q163 106 163 177q0 62 -64 62z" />
    <glyph glyph-name="three.numerator" horiz-adv-x="320" 
d="M207 502q34 -9 53 -32t19 -53q0 -47 -32 -72t-91 -25q-66 0 -115 30l17 44q54 -27 97 -27q35 0 50 15.5t15 34.5q0 55 -72 55h-44v46h41q35 0 51 16.5t16 39.5q0 20 -13 34.5t-41 14.5q-36 0 -92 -27l-17 43q53 31 114 31q47 0 76.5 -23.5t29.5 -65.5q0 -57 -62 -79z" />
    <glyph glyph-name="four.numerator" horiz-adv-x="340" 
d="M100 459h97v137q-35 -61 -97 -137zM183 670h70v-211h46v-47h-46v-82h-56v82h-156v47q92 101 142 211z" />
    <glyph glyph-name="five.numerator" horiz-adv-x="320" 
d="M155 320q-56 0 -114 32l17 43q56 -28 94 -28q28 0 47.5 18t19.5 48q0 26 -14.5 45t-45.5 19q-35 0 -59 -28l-41 4l7 192h193v-50h-144l-5 -96l1 -1q30 28 68 28q46 0 73 -28.5t27 -80.5q0 -54 -34 -85.5t-90 -31.5z" />
    <glyph glyph-name="six.numerator" horiz-adv-x="320" 
d="M98 514h1q30 38 75 38q49 0 77 -30.5t28 -86.5q0 -53 -32 -84t-83 -31q-64 0 -93.5 44t-29.5 111q0 195 146 195q40 0 81 -17l-7 -43q-38 13 -69 13q-42 0 -68 -32.5t-26 -76.5zM102 471q-6 -104 58 -104q25 0 42 18t17 50q0 28 -13.5 48t-46.5 20q-30 0 -57 -32z" />
    <glyph glyph-name="seven.numerator" horiz-adv-x="315" 
d="M212 619v1h-171v50h233v-41q-33 -56 -51.5 -90.5t-40.5 -93t-31 -115.5h-60q11 66 45.5 146.5t75.5 142.5z" />
    <glyph glyph-name="eight.numerator" horiz-adv-x="330" 
d="M215 505q37 -20 55.5 -40t18.5 -50q0 -46 -35 -70.5t-91 -24.5q-54 0 -88 23t-34 67q0 57 73 86q-63 32 -63 85q0 42 33 65.5t82 23.5q47 0 80 -23t33 -63q0 -28 -16 -46t-48 -33zM100 415q0 -24 17.5 -38.5t49.5 -14.5q62 0 64 49q0 16 -11 28.5t-25 19.5t-38 16
q-57 -22 -57 -60zM165 628q-22 0 -39.5 -11.5t-17.5 -34.5q0 -40 64 -57q50 18 50 54q0 24 -17.5 36.5t-39.5 12.5z" />
    <glyph glyph-name="nine.numerator" horiz-adv-x="320" 
d="M222 476h-1q-30 -38 -76 -38q-48 0 -76 30.5t-28 86.5q0 53 32 84t83 31q64 0 93.5 -44t29.5 -111q0 -195 -146 -195q-40 0 -81 17l7 43q36 -13 69 -13q42 0 68 32.5t26 76.5zM217 519q8 104 -58 104q-25 0 -41.5 -18t-16.5 -50q0 -28 13.5 -48t46.5 -20q31 0 56 32z" />
    <glyph glyph-name="parenleft.numerator" horiz-adv-x="207" 
d="M41 490q0 131 87 240h38q-68 -116 -68 -240q0 -120 68 -240h-38q-87 109 -87 240z" />
    <glyph glyph-name="parenright.numerator" horiz-adv-x="207" 
d="M166 490q0 -131 -87 -240h-38q68 118 68 240q0 126 -68 240h38q87 -109 87 -240z" />
    <glyph glyph-name="cent.numerator" horiz-adv-x="353" 
d="M200 617q-48 0 -72 -32.5t-24 -86.5q0 -56 24 -90.5t72 -34.5q46 0 92 35l20 -45q-51 -43 -122 -43q-73 0 -111 50.5t-38 127.5q0 76 38 124t111 48q66 0 122 -42l-20 -46q-46 35 -92 35zM205 240h-31v60h31v-60zM205 690h-31v60h31v-60z" />
    <glyph glyph-name="dollar.numerator" horiz-adv-x="340" 
d="M189 240h-31v60h31v-60zM189 690h-31v60h31v-60zM154 472q-103 29 -103 105q0 48 34 70.5t88 22.5q69 0 117 -31l-23 -47q-49 25 -94 25q-59 0 -59 -40q0 -35 82 -54q103 -25 103 -100q0 -50 -36.5 -76.5t-93.5 -26.5q-80 0 -128 40l27 43q47 -30 105 -30q29 0 45.5 12.5
t16.5 34.5q0 6 -1.5 11t-5.5 9.5t-7.5 7.5t-10 6l-10.5 5t-12.5 4.5t-11.5 3.5t-12 3t-10 2z" />
    <glyph glyph-name="hyphen.numerator" horiz-adv-x="285" 
d="M41 534h203v-47h-203v47z" />
    <glyph glyph-name="comma.numerator" horiz-adv-x="160" 
d="M88 265h-47q21 42 21 134h57q0 -93 -31 -134z" />
    <glyph glyph-name="period.numerator" horiz-adv-x="139" 
d="M41 399h57v-69h-57v69z" />
    <glyph glyph-name="exclamsmall" horiz-adv-x="207" 
d="M49 137h110v-137h-110v137zM49 580h110l-7 -364h-97z" />
    <glyph glyph-name="exclamdownsmall" horiz-adv-x="207" 
d="M159 442h-110v138h110v-138zM159 0h-110l6 364h97z" />
    <glyph glyph-name="at.cap" horiz-adv-x="830" 
d="M572 412v-202q44 0 76.5 19t49.5 49.5t25 61.5t8 63q0 119 -85.5 192.5t-210.5 73.5q-148 0 -241.5 -93.5t-93.5 -242.5q0 -135 87 -223.5t219 -88.5l-7 -61q-161 0 -265 106t-104 267q0 174 114.5 286.5t289.5 112.5q154 0 260 -91.5t106 -234.5q0 -112 -64 -186
t-180 -74h-71v39h-1q-46 -46 -118 -46q-57 0 -90 32.5t-33 83.5q0 64 46 92.5t118 28.5h78v31q0 34 -17.5 51t-59.5 17q-51 0 -129 -23l-16 59q90 30 166 30q71 0 107 -29t36 -100zM485 233v92h-74q-81 0 -81 -63q0 -27 18.5 -42t50.5 -15q51 0 86 28z" />
    <glyph glyph-name="parenleft.cap" horiz-adv-x="330" 
d="M54 340q0 126 45.5 250.5t129.5 229.5h72q-137 -232 -137 -480q0 -240 137 -480h-72q-84 104 -129.5 230t-45.5 250z" />
    <glyph glyph-name="parenright.cap" horiz-adv-x="330" 
d="M276 340q0 -124 -45.5 -250t-129.5 -230h-72q137 240 137 480q0 248 -137 480h72q84 -105 129.5 -229.5t45.5 -250.5z" />
    <glyph glyph-name="bracketleft.cap" horiz-adv-x="300" 
d="M165 -74h106v-66h-222v960h222v-66h-106v-828z" />
    <glyph glyph-name="bracketright.cap" horiz-adv-x="300" 
d="M29 -74h106v828h-106v66h222v-960h-222v66z" />
    <glyph glyph-name="braceleft.cap" horiz-adv-x="340" 
d="M225 12q0 -37 6.5 -60t20.5 -32t25.5 -11t33.5 -2v-47q-39 0 -65 2t-54.5 10.5t-44.5 24t-27 43t-11 66.5q0 31 5 95.5t5 93.5q0 31 -1 45t-7.5 32t-21.5 26.5t-40 12.5v58q25 4 40 12.5t21.5 26.5t7.5 32t1 45q0 29 -5 93.5t-5 95.5q0 48 14.5 78.5t45 44.5t62 18.5
t80.5 4.5v-48q-22 0 -33 -2t-26 -11t-21 -31.5t-6 -60.5q0 -30 6 -103.5t6 -104.5q0 -55 -24 -80.5t-71 -37.5v-2q47 -12 71 -37.5t24 -80.5q0 -31 -6 -105t-6 -104z" />
    <glyph glyph-name="braceright.cap" horiz-adv-x="340" 
d="M115 667q0 38 -6 60.5t-21 31.5t-26 11t-33 2v48q38 0 64.5 -2.5t54.5 -11t44.5 -23.5t27.5 -42.5t11 -66.5q0 -31 -5 -95.5t-5 -93.5q0 -31 1 -45t7.5 -32t21.5 -26.5t40 -12.5v-58q-25 -4 -40 -12.5t-21.5 -26.5t-7.5 -32t-1 -45q0 -29 5 -93.5t5 -95.5
q0 -39 -11 -66.5t-27.5 -43t-44.5 -24t-54 -10.5t-65 -2v47q22 0 33.5 2t25.5 11t20.5 32t6.5 60q0 30 -6.5 104t-6.5 105q0 55 24.5 80.5t71.5 37.5v2q-47 12 -71.5 37.5t-24.5 80.5q0 31 6.5 104.5t6.5 103.5z" />
    <glyph glyph-name="exclamdown.cap" horiz-adv-x="207" 
d="M49 137h110v-137h-110v137zM49 680h110l-7 -464h-97z" />
    <glyph glyph-name="questiondown.cap" horiz-adv-x="480" 
d="M239 -10q-58 0 -99 16.5t-62 44.5t-30 57t-9 61q0 48 18.5 84.5t44.5 58t52 39.5t44.5 40t18.5 49v30h98v-30q0 -42 -17 -74.5t-40.5 -52t-47.5 -37.5t-41 -42t-17 -54q0 -86 110 -86q64 0 148 29l31 -94q-97 -39 -202 -39zM321 542h-110v138h110v-138z" />
    <glyph glyph-name="guillemotleft.cap" horiz-adv-x="681" 
d="M49 323l282 168v-98l-166 -103l166 -103v-98l-282 168v66zM350 323l282 168v-98l-166 -103l166 -103v-98l-282 168v66z" />
    <glyph glyph-name="guillemotright.cap" horiz-adv-x="681" 
d="M350 491l282 -168v-66l-282 -168v98l166 103l-166 103v98zM49 491l282 -168v-66l-282 -168v98l166 103l-166 103v98z" />
    <glyph glyph-name="guilsinglleft.cap" horiz-adv-x="380" 
d="M49 323l282 168v-98l-166 -103l166 -103v-98l-282 168v66z" />
    <glyph glyph-name="guilsinglright.cap" horiz-adv-x="380" 
d="M331 257l-282 -168v98l166 103l-166 103v98l282 -168v-66z" />
    <glyph glyph-name="hyphen.cap" horiz-adv-x="500" 
d="M49 351h402v-92h-402v92z" />
    <glyph glyph-name="endash.cap" horiz-adv-x="696" 
d="M49 351h598v-92h-598v92z" />
    <glyph glyph-name="emdash.cap" horiz-adv-x="760" 
d="M49 351h662v-92h-662v92z" />
    <glyph glyph-name="periodcentered.cap" horiz-adv-x="235" 
d="M69 372h97v-125h-97v125z" />
    <glyph glyph-name="questiondownsmall" horiz-adv-x="480" 
d="M239 0q-106 0 -153 42.5t-47 106.5q0 46 18.5 77.5t44.5 47t52 28t44.5 30t18.5 44.5v24h98v-30q0 -42 -17 -70t-40.5 -40.5t-47.5 -23t-41 -28t-17 -44.5q0 -67 110 -67q62 0 154 36l25 -82q-106 -51 -202 -51zM321 472h-110v138h110v-138z" />
    <glyph glyph-name="percent.oldstyle" horiz-adv-x="760" 
d="M601 580l-370 -580h-72l370 580h72zM181 300q-67 0 -103.5 38t-36.5 105t36.5 105t103.5 38t103 -38t36 -105t-36 -105t-103 -38zM181 356q70 0 70 87t-70 87t-70 -87t70 -87zM579 -6q-67 0 -103 38t-36 105t36 105t103 38t103.5 -38t36.5 -105t-36.5 -105t-103.5 -38z
M579 50q70 0 70 87t-70 87t-70 -87t70 -87z" />
    <glyph glyph-name="perthousand.oldstyle" horiz-adv-x="1085" 
d="M579 -6q-67 0 -103 38t-36 105t36 105t103 38t103.5 -38t36.5 -105t-36.5 -105t-103.5 -38zM579 50q70 0 70 87t-70 87t-70 -87t70 -87zM904 -6q-67 0 -103 38t-36 105t36 105t103 38t103.5 -38t36.5 -105t-36.5 -105t-103.5 -38zM904 50q70 0 70 87t-70 87t-70 -87
t70 -87zM601 580l-370 -580h-72l370 580h72zM181 300q-67 0 -103.5 38t-36.5 105t36.5 105t103.5 38t103 -38t36 -105t-36 -105t-103 -38zM181 356q70 0 70 87t-70 87t-70 -87t70 -87z" />
    <glyph glyph-name="threequartersemdash" horiz-adv-x="760" 
d="M49 311h662v-92h-662v92z" />
    <glyph glyph-name="overscore" horiz-adv-x="432" 
d="M57 655h318v-66h-318v66z" />
    <glyph glyph-name="ampersand.alt" horiz-adv-x="840" 
d="M544 212h-262q-24 0 -46 -5t-40.5 -20t-18.5 -38q0 -68 107 -68q76 0 154 30l14 -84q-92 -37 -192 -37q-101 0 -156 36.5t-55 103.5q0 100 128 123v2q-108 26 -108 125q0 130 201 130q99 0 182 -36q-9 -61 -13 -85q-78 30 -153 30q-101 0 -101 -64q0 -9 4 -18.5t13 -20.5
t30 -18t50 -7h262q8 140 13 209h97v-209h132v-69h-132v-59q0 -43 18 -64t60 -21q16 0 49 5q4 -25 10 -85q-43 -8 -96 -8q-81 0 -116 36t-35 118v68z" />
  </font>
</defs>
</svg>
