<?xml version="1.0" encoding="UTF-8" standalone="no"?>
<svg xmlns:dc="http://purl.org/dc/elements/1.1/" xmlns:cc="http://creativecommons.org/ns#" xmlns:rdf="http://www.w3.org/1999/02/22-rdf-syntax-ns#" xmlns:svg="http://www.w3.org/2000/svg" xmlns="http://www.w3.org/2000/svg" viewBox="0 0 515 418.53" height="418.53" width="515" xml:space="preserve" version="1.1" id="svg2"><metadata id="metadata8"><rdf:RDF><cc:Work rdf:about=""><dc:format>image/svg+xml</dc:format><dc:type rdf:resource="http://purl.org/dc/dcmitype/StillImage" /><dc:title></dc:title></cc:Work></rdf:RDF></metadata><defs id="defs6"><clipPath id="clipPath16" clipPathUnits="userSpaceOnUse"><path id="path18" d="m 0,334.824 412,0 L 412,0 0,0 0,334.824 Z" /></clipPath></defs><g transform="matrix(1.25,0,0,-1.25,0,418.53)" id="g10"><g style="stroke:#7d8e98;stroke-opacity:1;fill:#7d8e98;fill-opacity:1" id="g12"><g style="stroke:#7d8e98;stroke-opacity:1;fill:#7d8e98;fill-opacity:1" clip-path="url(#clipPath16)" id="g14"><g style="stroke:#7d8e98;stroke-opacity:1;fill:#7d8e98;fill-opacity:1" transform="translate(412,295.1899)" id="g20"><path id="path22" style="fill:#7d8e98;fill-opacity:1;fill-rule:nonzero;stroke:#7d8e98;stroke-opacity:1" d="m 0,0 c -15.158,-6.724 -31.449,-11.269 -48.547,-13.31 17.449,10.461 30.854,27.025 37.164,46.764 -16.333,-9.687 -34.422,-16.721 -53.676,-20.511 -15.418,16.428 -37.386,26.691 -61.698,26.691 -54.559,0 -94.668,-50.916 -82.337,-103.787 -70.25,3.524 -132.534,37.177 -174.223,88.314 -22.142,-37.983 -11.485,-87.691 26.158,-112.85 -13.854,0.438 -26.891,4.241 -38.285,10.574 -0.917,-39.162 27.146,-75.781 67.795,-83.949 -11.896,-3.236 -24.926,-3.978 -38.17,-1.447 10.754,-33.58 41.972,-58.018 78.96,-58.699 -35.537,-27.849 -80.295,-40.288 -125.141,-35.002 37.406,-23.983 81.837,-37.978 129.571,-37.978 156.932,0 245.595,132.552 240.251,251.435 C -25.661,-31.838 -11.332,-16.951 0,0" /></g></g></g></g></svg>