<?xml version="1.0" encoding="UTF-8" standalone="no"?>
<svg xmlns:dc="http://purl.org/dc/elements/1.1/" xmlns:cc="http://creativecommons.org/ns#" xmlns:rdf="http://www.w3.org/1999/02/22-rdf-syntax-ns#" xmlns:svg="http://www.w3.org/2000/svg" xmlns="http://www.w3.org/2000/svg" viewBox="0 0 39.67675 39.633877" height="32" width="32" xml:space="preserve" version="1.1" id="svg2"><metadata id="metadata8"><rdf:RDF><cc:Work rdf:about=""><dc:format>image/svg+xml</dc:format><dc:type rdf:resource="http://purl.org/dc/dcmitype/StillImage" /><dc:title></dc:title></cc:Work></rdf:RDF></metadata><defs id="defs6"><clipPath id="clipPath16" clipPathUnits="userSpaceOnUse"><path id="path18" d="m 0,31.707 31.741,0 L 31.741,0 0,0 0,31.707 Z" /></clipPath></defs><g transform="matrix(1.25,0,0,-1.25,0,39.633875)" id="g10"><g style="stroke:#0072c6;stroke-opacity:1" id="g12"><g style="stroke:#0072c6;stroke-opacity:1" clip-path="url(#clipPath16)" id="g14"><g style="stroke:#0072c6;stroke-opacity:1" transform="translate(1.8779,27.293)" id="g20"><path id="path22" style="fill:none;stroke:#0072c6;stroke-width:2;stroke-linecap:butt;stroke-linejoin:miter;stroke-miterlimit:10;stroke-dasharray:none;stroke-opacity:1" d="m 0,0 0.707,-0.708 c 0.781,-0.78 2.049,-0.779 2.828,0 0.783,0.782 0.781,2.048 0,2.829 L 2.828,2.828 0,0 Z" /></g><g style="stroke:#0072c6;stroke-opacity:1" transform="translate(11.7412,20.4824)" id="g24"><path id="path26" style="fill:none;stroke:#0072c6;stroke-width:2;stroke-linecap:butt;stroke-linejoin:miter;stroke-miterlimit:10;stroke-dasharray:none;stroke-opacity:1" d="M 0,0 -6.328,6.103" /></g><g style="stroke:#0072c6;stroke-opacity:1" transform="translate(26.7412,5.4824)" id="g28"><path id="path30" style="fill:none;stroke:#0072c6;stroke-width:2;stroke-linecap:butt;stroke-linejoin:miter;stroke-miterlimit:10;stroke-dasharray:none;stroke-opacity:1" d="M 0,0 -5.465,5.465" /></g><g style="stroke:#0072c6;stroke-opacity:1" transform="translate(23.4951,14.3916)" id="g32"><path id="path34" style="fill:none;stroke:#0072c6;stroke-width:2;stroke-linecap:butt;stroke-linejoin:miter;stroke-miterlimit:10;stroke-dasharray:none;stroke-opacity:1" d="m 0,0 6.072,-6.071 c 1.561,-1.563 1.569,-4.102 0.006,-5.663 -1.562,-1.563 -4.09,-1.568 -5.65,-0.007 l -6.084,6.084" /></g><g style="stroke:#0072c6;stroke-opacity:1" transform="translate(29.5859,21.1006)" id="g36"><path id="path38" style="fill:none;stroke:#0072c6;stroke-width:2;stroke-linecap:butt;stroke-linejoin:miter;stroke-miterlimit:10;stroke-dasharray:none;stroke-opacity:1" d="m 0,0 -1.828,-1.828 c -2.344,-2.345 -6.141,-2.344 -8.485,0 -2.343,2.343 -2.345,6.14 0,8.485 l 1.829,1.828" /></g><g style="stroke:#0072c6;stroke-opacity:1" transform="translate(31,21.1006)" id="g40"><path id="path42" style="fill:none;stroke:#0072c6;stroke-width:2;stroke-linecap:butt;stroke-linejoin:miter;stroke-miterlimit:10;stroke-dasharray:none;stroke-opacity:1" d="M 0,0 -2.828,2.828 -4.242,1.414 c -1.172,-1.173 -3.072,-1.171 -4.242,0 -1.172,1.171 -1.172,3.07 0,4.243 l 1.414,1.414 -2.828,2.828" /></g><g style="stroke:#0072c6;stroke-opacity:1" transform="translate(4.0313,5.0312)" id="g44"><path id="path46" style="fill:none;stroke:#0072c6;stroke-width:2;stroke-linecap:butt;stroke-linejoin:miter;stroke-miterlimit:10;stroke-dasharray:none;stroke-opacity:1" d="M 0,0 2,0" /></g><g style="stroke:#0072c6;stroke-opacity:1" transform="translate(17.833,14.4854)" id="g48"><path id="path50" style="fill:none;stroke:#0072c6;stroke-width:2;stroke-linecap:butt;stroke-linejoin:miter;stroke-miterlimit:10;stroke-dasharray:none;stroke-opacity:1" d="M 0,0 -3.967,3.922" /></g><g style="stroke:#0072c6;stroke-opacity:1" transform="translate(12.5176,15.3437)" id="g52"><path id="path54" style="fill:none;stroke:#0072c6;stroke-width:2;stroke-linecap:butt;stroke-linejoin:miter;stroke-miterlimit:10;stroke-dasharray:none;stroke-opacity:1" d="m 0,0 -10.346,-7.516 c -1.562,-1.561 -1.562,-4.094 0,-5.656 1.563,-1.562 4.096,-1.562 5.657,0 l 7.517,10.344" /></g></g></g></g></svg>