<?xml version="1.0" encoding="UTF-8" standalone="no"?>
<svg xmlns:dc="http://purl.org/dc/elements/1.1/" xmlns:cc="http://creativecommons.org/ns#" xmlns:rdf="http://www.w3.org/1999/02/22-rdf-syntax-ns#" xmlns:svg="http://www.w3.org/2000/svg" xmlns="http://www.w3.org/2000/svg" viewBox="0 0 71.25 96.25" height="96.25" width="71.25" xml:space="preserve" version="1.1" id="svg2"><metadata id="metadata8"><rdf:RDF><cc:Work rdf:about=""><dc:format>image/svg+xml</dc:format><dc:type rdf:resource="http://purl.org/dc/dcmitype/StillImage" /><dc:title></dc:title></cc:Work></rdf:RDF></metadata><defs id="defs6"><clipPath id="clipPath16" clipPathUnits="userSpaceOnUse"><path id="path18" d="M 0,77 57,77 57,0 0,0 0,77 Z" /></clipPath></defs><g transform="matrix(1.25,0,0,-1.25,0,96.25)" id="g10"><g style="stroke:#0079c2;stroke-opacity:1" id="g12"><g style="stroke:#0079c2;stroke-opacity:1" clip-path="url(#clipPath16)" id="g14"><g style="stroke:#0079c2;stroke-opacity:1" transform="translate(28.5,21)" id="g20"><path id="path22" style="fill:none;stroke:#0079c2;stroke-width:2;stroke-linecap:butt;stroke-linejoin:miter;stroke-miterlimit:10;stroke-dasharray:none;stroke-opacity:1" d="M 0,0 C -15.164,0 -27.5,12.337 -27.5,27.5 -27.5,42.663 -15.164,55 0,55 15.163,55 27.5,42.663 27.5,27.5 27.5,12.337 15.163,0 0,0 Z" /></g><g style="stroke:#0079c2;stroke-opacity:1" transform="translate(41,48.5)" id="g24"><path id="path26" style="fill:none;stroke:#0079c2;stroke-width:2;stroke-linecap:butt;stroke-linejoin:miter;stroke-miterlimit:10;stroke-dasharray:none;stroke-opacity:1" d="m 0,0 c 0,-6.902 -5.596,-12.5 -12.5,-12.5 -6.904,0 -12.5,5.598 -12.5,12.5 0,6.904 5.596,12.5 12.5,12.5 C -5.596,12.5 0,6.904 0,0 Z" /></g><g style="stroke:#0079c2;stroke-opacity:1" transform="translate(26,48.5)" id="g28"><path id="path30" style="fill:none;stroke:#0079c2;stroke-width:2;stroke-linecap:butt;stroke-linejoin:miter;stroke-miterlimit:10;stroke-dasharray:none;stroke-opacity:1" d="M 0,0 C 0,1.377 1.123,2.5 2.5,2.5" /></g><g style="stroke:#0079c2;stroke-opacity:1" transform="translate(48.5,13.5)" id="g32"><path id="path34" style="fill:none;stroke:#0079c2;stroke-width:2;stroke-linecap:butt;stroke-linejoin:miter;stroke-miterlimit:10;stroke-dasharray:none;stroke-opacity:1" d="m 0,0 5,-12.5 -50,0 5,12.5" /></g></g></g></g></svg>