<?xml version="1.0" encoding="UTF-8" standalone="no"?>
<svg xmlns:dc="http://purl.org/dc/elements/1.1/" xmlns:cc="http://creativecommons.org/ns#" xmlns:rdf="http://www.w3.org/1999/02/22-rdf-syntax-ns#" xmlns:svg="http://www.w3.org/2000/svg" xmlns="http://www.w3.org/2000/svg" viewBox="0 0 96.25 96.25" height="96.25" width="96.25" xml:space="preserve" version="1.1" id="svg2"><metadata id="metadata8"><rdf:RDF><cc:Work rdf:about=""><dc:format>image/svg+xml</dc:format><dc:type rdf:resource="http://purl.org/dc/dcmitype/StillImage" /><dc:title></dc:title></cc:Work></rdf:RDF></metadata><defs id="defs6"><clipPath id="clipPath16" clipPathUnits="userSpaceOnUse"><path id="path18" d="M 0,77 77,77 77,0 0,0 0,77 Z" /></clipPath></defs><g transform="matrix(1.25,0,0,-1.25,0,96.25)" id="g10"><g style="stroke:#0079c2;stroke-opacity:1" id="g12"><g style="stroke:#0079c2;stroke-opacity:1" clip-path="url(#clipPath16)" id="g14"><g style="stroke:#0079c2;stroke-opacity:1" transform="translate(76,38.5)" id="g20"><path id="path22" style="fill:none;stroke:#0079c2;stroke-width:2;stroke-linecap:butt;stroke-linejoin:miter;stroke-miterlimit:10;stroke-dasharray:none;stroke-opacity:1" d="M 0,0 C 0,20.71 -16.79,37.5 -37.5,37.5 -58.211,37.5 -75,20.71 -75,0 -75,-20.71 -58.211,-37.5 -37.5,-37.5 -16.79,-37.5 0,-20.71 0,0 Z" /></g><g style="stroke:#0079c2;stroke-opacity:1" transform="translate(46,38.5)" id="g24"><path id="path26" style="fill:none;stroke:#0079c2;stroke-width:2;stroke-linecap:butt;stroke-linejoin:miter;stroke-miterlimit:10;stroke-dasharray:none;stroke-opacity:1" d="m 0,0 c 0,-4.141 -3.359,-7.5 -7.5,-7.5 -4.141,0 -7.5,3.359 -7.5,7.5 0,4.141 3.359,7.5 7.5,7.5 C -3.359,7.5 0,4.141 0,0 Z" /></g><g style="stroke:#0079c2;stroke-opacity:1" transform="translate(38.5,68.1667)" id="g28"><path id="path30" style="fill:none;stroke:#0079c2;stroke-width:2;stroke-linecap:butt;stroke-linejoin:miter;stroke-miterlimit:10;stroke-dasharray:none;stroke-opacity:1" d="M 0,0 0,-22.167" /></g><g style="stroke:#0079c2;stroke-opacity:1" transform="translate(38.5,31.8333)" id="g32"><path id="path34" style="fill:none;stroke:#0079c2;stroke-width:2;stroke-linecap:butt;stroke-linejoin:miter;stroke-miterlimit:10;stroke-dasharray:none;stroke-opacity:1" d="M 0,0 0,-23.333" /></g><g style="stroke:#0079c2;stroke-opacity:1" transform="translate(59.7135,59.7135)" id="g36"><path id="path38" style="fill:none;stroke:#0079c2;stroke-width:2;stroke-linecap:butt;stroke-linejoin:miter;stroke-miterlimit:10;stroke-dasharray:none;stroke-opacity:1" d="M 0,0 -15.911,-15.911" /></g><g style="stroke:#0079c2;stroke-opacity:1" transform="translate(33.1973,33.1973)" id="g40"><path id="path42" style="fill:none;stroke:#0079c2;stroke-width:2;stroke-linecap:butt;stroke-linejoin:miter;stroke-miterlimit:10;stroke-dasharray:none;stroke-opacity:1" d="M 0,0 -15.911,-15.911" /></g></g></g></g></svg>