<?xml version="1.0" encoding="UTF-8" standalone="no"?>
<svg xmlns:dc="http://purl.org/dc/elements/1.1/" xmlns:cc="http://creativecommons.org/ns#" xmlns:rdf="http://www.w3.org/1999/02/22-rdf-syntax-ns#" xmlns:svg="http://www.w3.org/2000/svg" xmlns="http://www.w3.org/2000/svg" viewBox="0 0 38.75 34.008373" height="34.008373" width="38.75" xml:space="preserve" version="1.1" id="svg2"><metadata id="metadata8"><rdf:RDF><cc:Work rdf:about=""><dc:format>image/svg+xml</dc:format><dc:type rdf:resource="http://purl.org/dc/dcmitype/StillImage" /><dc:title></dc:title></cc:Work></rdf:RDF></metadata><defs id="defs6"><clipPath id="clipPath20" clipPathUnits="userSpaceOnUse"><path id="path22" d="m 0,27.207 31,0 L 31,0 0,0 0,27.207 Z" /></clipPath><clipPath id="clipPath36" clipPathUnits="userSpaceOnUse"><path id="path38" d="m 0,27.207 31,0 L 31,0 0,0 0,27.207 Z" /></clipPath></defs><g transform="matrix(1.25,0,0,-1.25,0,34.008375)" id="g10"><g style="stroke:#f6af16;stroke-opacity:1" transform="translate(9.5,10.5)" id="g12"><path id="path14" style="fill:none;stroke:#f6af16;stroke-width:1;stroke-linecap:butt;stroke-linejoin:miter;stroke-miterlimit:10;stroke-dasharray:none;stroke-opacity:1" d="m 0,0 4,0 0,10 -6,0" /></g><g style="stroke:#f6af16;stroke-opacity:1" id="g16"><g style="stroke:#f6af16;stroke-opacity:1" clip-path="url(#clipPath20)" id="g18"><g style="stroke:#f6af16;stroke-opacity:1" transform="translate(13.5,20.5)" id="g24"><path id="path26" style="fill:none;stroke:#f6af16;stroke-width:1;stroke-linecap:butt;stroke-linejoin:miter;stroke-miterlimit:10;stroke-dasharray:none;stroke-opacity:1" d="m 0,0 17,6 0,-22 -17,6" /></g></g></g><g style="stroke:#f6af16;stroke-opacity:1" transform="translate(26.5,20.8457)" id="g28"><path id="path30" style="fill:none;stroke:#f6af16;stroke-width:1;stroke-linecap:butt;stroke-linejoin:miter;stroke-miterlimit:10;stroke-dasharray:none;stroke-opacity:1" d="M 0,0 -8.988,-3.322" /></g><g style="stroke:#f6af16;stroke-opacity:1" id="g32"><g style="stroke:#f6af16;stroke-opacity:1" clip-path="url(#clipPath36)" id="g34"><path id="path40" style="fill:none;stroke:#f6af16;stroke-width:1;stroke-linecap:butt;stroke-linejoin:miter;stroke-miterlimit:10;stroke-dasharray:none;stroke-opacity:1" d="m 0.5,10.5 4,0 0,10 -4,0 0,-10 z" /><g style="stroke:#f6af16;stroke-opacity:1" transform="translate(13.5,6.5)" id="g42"><path id="path44" style="fill:none;stroke:#f6af16;stroke-width:1;stroke-linecap:butt;stroke-linejoin:miter;stroke-miterlimit:10;stroke-dasharray:none;stroke-opacity:1" d="m 0,0 -3,0 0,-3 c 0,-1.656 -1.344,-3 -3,-3 -1.656,0 -3,1.344 -3,3 l 0,4" /></g></g></g></g></svg>