<?xml version="1.0" encoding="UTF-8" standalone="no"?>
<svg xmlns:dc="http://purl.org/dc/elements/1.1/" xmlns:cc="http://creativecommons.org/ns#" xmlns:rdf="http://www.w3.org/1999/02/22-rdf-syntax-ns#" xmlns:svg="http://www.w3.org/2000/svg" xmlns="http://www.w3.org/2000/svg" viewBox="0 0 32.793125 40" height="32" width="27" xml:space="preserve" version="1.1" id="svg2"><metadata id="metadata8"><rdf:RDF><cc:Work rdf:about=""><dc:format>image/svg+xml</dc:format><dc:type rdf:resource="http://purl.org/dc/dcmitype/StillImage" /><dc:title></dc:title></cc:Work></rdf:RDF></metadata><defs id="defs6"><clipPath id="clipPath16" clipPathUnits="userSpaceOnUse"><path id="path18" d="m 0,32 26.235,0 0,-32 L 0,0 0,32 Z" /></clipPath></defs><g transform="matrix(1.25,0,0,-1.25,0,40)" id="g10"><g style="stroke:#0072c6;stroke-opacity:1" id="g12"><g style="stroke:#0072c6;stroke-opacity:1" clip-path="url(#clipPath16)" id="g14"><g style="stroke:#0072c6;stroke-opacity:1" transform="translate(20.8946,23)" id="g20"><path id="path22" style="fill:none;stroke:#0072c6;stroke-width:2;stroke-linecap:butt;stroke-linejoin:miter;stroke-miterlimit:10;stroke-dasharray:none;stroke-opacity:1" d="m 0,0 c 0,-4.419 -3.582,-8 -7.999,-8 -4.418,0 -8,3.581 -8,8 0,4.42 3.582,8 8,8 C -3.582,8 0,4.42 0,0 Z" /></g><g style="stroke:#0072c6;stroke-opacity:1" transform="translate(19.1173,12)" id="g24"><path id="path26" style="fill:none;stroke:#0072c6;stroke-width:2;stroke-linecap:butt;stroke-linejoin:miter;stroke-miterlimit:10;stroke-dasharray:none;stroke-opacity:1" d="m 0,0 5,-2 1,-9 -24,0 1,9 5,2" /></g></g></g></g></svg>