<?xml version="1.0" encoding="UTF-8" standalone="no"?>
<svg xmlns:dc="http://purl.org/dc/elements/1.1/" xmlns:cc="http://creativecommons.org/ns#" xmlns:rdf="http://www.w3.org/1999/02/22-rdf-syntax-ns#" xmlns:svg="http://www.w3.org/2000/svg" xmlns="http://www.w3.org/2000/svg" viewBox="0 0 58.75 96.25" height="77" width="47" xml:space="preserve" version="1.1" id="svg2"><metadata id="metadata8"><rdf:RDF><cc:Work rdf:about=""><dc:format>image/svg+xml</dc:format><dc:type rdf:resource="http://purl.org/dc/dcmitype/StillImage" /><dc:title></dc:title></cc:Work></rdf:RDF></metadata><defs id="defs6"><clipPath id="clipPath16" clipPathUnits="userSpaceOnUse"><path id="path18" d="M 0,77 47,77 47,0 0,0 0,77 Z" /></clipPath><clipPath id="clipPath38" clipPathUnits="userSpaceOnUse"><path id="path40" d="M 0,77 47,77 47,0 0,0 0,77 Z" /></clipPath></defs><g transform="matrix(1.25,0,0,-1.25,0,96.25)" id="g10"><g style="stroke:#ffffff;stroke-opacity:1" id="g12"><g style="stroke:#ffffff;stroke-opacity:1" clip-path="url(#clipPath16)" id="g14"><path id="path20" style="fill:none;stroke:#ffffff;stroke-width:2;stroke-linecap:butt;stroke-linejoin:miter;stroke-miterlimit:10;stroke-dasharray:none;stroke-opacity:1" d="M 1,61 46,61 46,76 1,76 1,61 Z" /><g style="stroke:#ffffff;stroke-opacity:1" transform="translate(46,53.6198)" id="g22"><path id="path24" style="fill:none;stroke:#ffffff;stroke-width:2;stroke-linecap:butt;stroke-linejoin:miter;stroke-miterlimit:10;stroke-dasharray:none;stroke-opacity:1" d="m 0,0 0,-52.62 -45,0 0,52.62" /></g></g></g><g style="stroke:#ffffff;stroke-opacity:1" transform="translate(21,11)" id="g26"><path id="path28" style="fill:none;stroke:#ffffff;stroke-width:2;stroke-linecap:butt;stroke-linejoin:miter;stroke-miterlimit:10;stroke-dasharray:none;stroke-opacity:1" d="M 0,0 5,0" /></g><g style="stroke:#ffffff;stroke-opacity:1" transform="translate(18.5,68.5)" id="g30"><path id="path32" style="fill:none;stroke:#ffffff;stroke-width:2;stroke-linecap:butt;stroke-linejoin:miter;stroke-miterlimit:10;stroke-dasharray:none;stroke-opacity:1" d="M 0,0 10,0" /></g><g style="stroke:#ffffff;stroke-opacity:1" id="g34"><g style="stroke:#ffffff;stroke-opacity:1" clip-path="url(#clipPath38)" id="g36"><g style="stroke:#ffffff;stroke-opacity:1" transform="translate(1,21)" id="g42"><path id="path44" style="fill:none;stroke:#ffffff;stroke-width:2;stroke-linecap:butt;stroke-linejoin:miter;stroke-miterlimit:10;stroke-dasharray:none;stroke-opacity:1" d="M 0,0 45,0" /></g></g></g></g></svg>