<?xml version="1.0" encoding="UTF-8" standalone="no"?>
<svg xmlns:dc="http://purl.org/dc/elements/1.1/" xmlns:cc="http://creativecommons.org/ns#" xmlns:rdf="http://www.w3.org/1999/02/22-rdf-syntax-ns#" xmlns:svg="http://www.w3.org/2000/svg" xmlns="http://www.w3.org/2000/svg" viewBox="0 0 71.25 96.25" height="96.25" width="71.25" xml:space="preserve" version="1.1" id="svg2"><metadata id="metadata8"><rdf:RDF><cc:Work rdf:about=""><dc:format>image/svg+xml</dc:format><dc:type rdf:resource="http://purl.org/dc/dcmitype/StillImage" /><dc:title></dc:title></cc:Work></rdf:RDF></metadata><defs id="defs6"><clipPath id="clipPath16" clipPathUnits="userSpaceOnUse"><path id="path18" d="M 0,77 57,77 57,0 0,0 0,77 Z" /></clipPath></defs><g transform="matrix(1.25,0,0,-1.25,0,96.25)" id="g10"><g style="stroke:#0079c2;stroke-opacity:1" id="g12"><g style="stroke:#0079c2;stroke-opacity:1" clip-path="url(#clipPath16)" id="g14"><g style="stroke:#0079c2;stroke-opacity:1" transform="translate(48.312,66)" id="g20"><path id="path22" style="fill:none;stroke:#0079c2;stroke-width:2;stroke-linecap:butt;stroke-linejoin:miter;stroke-miterlimit:10;stroke-dasharray:none;stroke-opacity:1" d="m 0,0 7.688,0 0,-65 -55,0 0,65 7.539,0" /></g><g style="stroke:#0079c2;stroke-opacity:1" transform="translate(40.912,60.9707)" id="g24"><path id="path26" style="fill:none;stroke:#0079c2;stroke-width:2;stroke-linecap:butt;stroke-linejoin:miter;stroke-miterlimit:10;stroke-dasharray:none;stroke-opacity:1" d="m 0,0 0,10.029 -7.419,0 c 0,2.764 -2.239,5 -5,5 -2.761,0 -5,-2.236 -5,-5 l -7.405,0 L -24.824,0 0,0 Z" /></g><g style="stroke:#0079c2;stroke-opacity:1" transform="translate(23.4852,46)" id="g28"><path id="path30" style="fill:none;stroke:#0079c2;stroke-width:2;stroke-linecap:butt;stroke-linejoin:miter;stroke-miterlimit:10;stroke-dasharray:none;stroke-opacity:1" d="M 0,0 0,-35" /></g><g style="stroke:#0079c2;stroke-opacity:1" transform="translate(33.483,51)" id="g32"><path id="path34" style="fill:none;stroke:#0079c2;stroke-width:2;stroke-linecap:butt;stroke-linejoin:miter;stroke-miterlimit:10;stroke-dasharray:none;stroke-opacity:1" d="M 0,0 0,-40" /></g><g style="stroke:#0079c2;stroke-opacity:1" transform="translate(43.483,43.5)" id="g36"><path id="path38" style="fill:none;stroke:#0079c2;stroke-width:2;stroke-linecap:butt;stroke-linejoin:miter;stroke-miterlimit:10;stroke-dasharray:none;stroke-opacity:1" d="M 0,0 0,-32.5" /></g><g style="stroke:#0079c2;stroke-opacity:1" transform="translate(13.4852,28.5)" id="g40"><path id="path42" style="fill:none;stroke:#0079c2;stroke-width:2;stroke-linecap:butt;stroke-linejoin:miter;stroke-miterlimit:10;stroke-dasharray:none;stroke-opacity:1" d="M 0,0 0,-17.5" /></g></g></g></g></svg>