<?xml version="1.0" encoding="UTF-8" standalone="no"?>
<svg xmlns:dc="http://purl.org/dc/elements/1.1/" xmlns:cc="http://creativecommons.org/ns#" xmlns:rdf="http://www.w3.org/1999/02/22-rdf-syntax-ns#" xmlns:svg="http://www.w3.org/2000/svg" xmlns="http://www.w3.org/2000/svg" viewBox="0 0 95.441872 94.533875" height="94.533875" width="95.441872" xml:space="preserve" version="1.1" id="svg2"><metadata id="metadata8"><rdf:RDF><cc:Work rdf:about=""><dc:format>image/svg+xml</dc:format><dc:type rdf:resource="http://purl.org/dc/dcmitype/StillImage" /><dc:title></dc:title></cc:Work></rdf:RDF></metadata><defs id="defs6"><clipPath id="clipPath16" clipPathUnits="userSpaceOnUse"><path id="path18" d="m 0,75.627 76.354,0 L 76.354,0 0,0 0,75.627 Z" /></clipPath></defs><g transform="matrix(1.25,0,0,-1.25,0,94.533875)" id="g10"><g style="stroke:#0079c2;stroke-opacity:1" id="g12"><g style="stroke:#0079c2;stroke-opacity:1" clip-path="url(#clipPath16)" id="g14"><g style="stroke:#0079c2;stroke-opacity:1" transform="translate(3.1947,66.7324)" id="g20"><path id="path22" style="fill:none;stroke:#0079c2;stroke-width:2;stroke-linecap:butt;stroke-linejoin:miter;stroke-miterlimit:10;stroke-dasharray:none;stroke-opacity:1" d="m 0,0 1.768,-1.77 c 1.953,-1.951 5.122,-1.948 7.07,0 1.958,1.956 1.953,5.12 0,7.073 L 7.07,7.07 0,0 Z" /></g><g style="stroke:#0079c2;stroke-opacity:1" transform="translate(33.1654,44.5179)" id="g24"><path id="path26" style="fill:none;stroke:#0079c2;stroke-width:2;stroke-linecap:butt;stroke-linejoin:miter;stroke-miterlimit:10;stroke-dasharray:none;stroke-opacity:1" d="M 0,0 -21.133,20.445" /></g><g style="stroke:#0079c2;stroke-opacity:1" transform="translate(65.3529,12.2059)" id="g28"><path id="path30" style="fill:none;stroke:#0079c2;stroke-width:2;stroke-linecap:butt;stroke-linejoin:miter;stroke-miterlimit:10;stroke-dasharray:none;stroke-opacity:1" d="M 0,0 -13.662,13.662" /></g><g style="stroke:#0079c2;stroke-opacity:1" transform="translate(57.2377,34.4789)" id="g32"><path id="path34" style="fill:none;stroke:#0079c2;stroke-width:2;stroke-linecap:butt;stroke-linejoin:miter;stroke-miterlimit:10;stroke-dasharray:none;stroke-opacity:1" d="m 0,0 15.181,-15.178 c 3.901,-3.907 3.921,-10.254 0.014,-14.158 -3.906,-3.906 -10.224,-3.919 -14.126,-0.017 l -15.21,15.21" /></g><g style="stroke:#0079c2;stroke-opacity:1" transform="translate(74.2532,52.9982)" id="g36"><path id="path38" style="fill:none;stroke:#0079c2;stroke-width:2;stroke-linecap:butt;stroke-linejoin:miter;stroke-miterlimit:10;stroke-dasharray:none;stroke-opacity:1" d="m 0,0 -6.359,-6.317 c -5.859,-5.862 -15.351,-5.859 -21.211,0 -5.859,5.857 -5.864,15.352 0,21.213 l 6.356,6.321 5.975,-5.976" /></g><g style="stroke:#0079c2;stroke-opacity:1" transform="translate(68.9297,58.3217)" id="g40"><path id="path42" style="fill:none;stroke:#0079c2;stroke-width:2;stroke-linecap:butt;stroke-linejoin:miter;stroke-miterlimit:10;stroke-dasharray:none;stroke-opacity:1" d="m 0,0 -3.535,-3.535 c -2.93,-2.932 -7.681,-2.927 -10.606,0 -2.929,2.927 -2.929,7.676 0,10.608 l 3.535,3.535" /></g><g style="stroke:#0079c2;stroke-opacity:1" transform="translate(8.5782,11.0779)" id="g44"><path id="path46" style="fill:none;stroke:#0079c2;stroke-width:2;stroke-linecap:butt;stroke-linejoin:miter;stroke-miterlimit:10;stroke-dasharray:none;stroke-opacity:1" d="M 0,0 5,0" /></g><g style="stroke:#0079c2;stroke-opacity:1" transform="translate(51.6909,25.8682)" id="g48"><path id="path50" style="fill:none;stroke:#0079c2;stroke-width:2;stroke-linecap:butt;stroke-linejoin:miter;stroke-miterlimit:10;stroke-dasharray:none;stroke-opacity:1" d="M 0,0 -18.525,18.65" /></g><g style="stroke:#0079c2;stroke-opacity:1" transform="translate(29.7939,36.8592)" id="g52"><path id="path54" style="fill:none;stroke:#0079c2;stroke-width:2;stroke-linecap:butt;stroke-linejoin:miter;stroke-miterlimit:10;stroke-dasharray:none;stroke-opacity:1" d="m 0,0 -25.864,-18.789 c -3.906,-3.904 -3.906,-10.237 0,-14.141 3.906,-3.906 10.239,-3.906 14.14,0 L 7.07,-7.07" /></g><g style="stroke:#0079c2;stroke-opacity:1" transform="translate(74.9507,52.3007)" id="g56"><path id="path58" style="fill:none;stroke:#0079c2;stroke-width:2;stroke-linecap:butt;stroke-linejoin:miter;stroke-miterlimit:10;stroke-dasharray:none;stroke-opacity:1" d="M 0,0 -6.711,6.711" /></g></g></g></g></svg>