<?xml version="1.0" encoding="UTF-8" standalone="no"?>
<svg xmlns:dc="http://purl.org/dc/elements/1.1/" xmlns:cc="http://creativecommons.org/ns#" xmlns:rdf="http://www.w3.org/1999/02/22-rdf-syntax-ns#" xmlns:svg="http://www.w3.org/2000/svg" xmlns="http://www.w3.org/2000/svg" viewBox="0 0 70.368622 50.249001" height="50.249001" width="70.368622" xml:space="preserve" version="1.1" id="svg2"><metadata id="metadata8"><rdf:RDF><cc:Work rdf:about=""><dc:format>image/svg+xml</dc:format><dc:type rdf:resource="http://purl.org/dc/dcmitype/StillImage" /><dc:title></dc:title></cc:Work></rdf:RDF></metadata><defs id="defs6"><clipPath id="clipPath16" clipPathUnits="userSpaceOnUse"><path id="path18" d="m 0,40.199 56.295,0 L 56.295,0 0,0 0,40.199 Z" /></clipPath></defs><g transform="matrix(1.25,0,0,-1.25,0,50.249)" id="g10"><g style="fill:#ffffff;fill-opacity:1" id="g12"><g style="fill:#ffffff;fill-opacity:1" clip-path="url(#clipPath16)" id="g14"><g style="fill:#ffffff;fill-opacity:1" transform="translate(9.6445,22.0664)" id="g20"><path id="path22" style="fill:#ffffff;fill-opacity:1;fill-rule:nonzero;stroke:none" d="m 0,0 -0.279,0.951 c -0.325,1.094 -0.489,2.217 -0.489,3.342 0,6.506 5.295,11.799 11.803,11.799 4.131,0 8.012,-2.211 10.129,-5.768 l 0.51,-0.857 0.869,0.488 c 1.207,0.68 2.592,1.041 4.004,1.041 4.176,0 7.678,-3.125 8.146,-7.271 l 0.086,-0.75 0.741,-0.137 c 5.265,-0.992 9.087,-5.613 9.087,-10.992 0,-4.662 -2.806,-8.758 -7.158,-10.434 l -0.101,-0.049 c -1.748,-0.925 -5.069,-1.316 -6.19,-1.386 l -26.443,0 c -3.192,0.168 -5.184,0.642 -6.672,1.591 l -0.096,0.055 c -3.371,1.629 -5.549,5.082 -5.549,8.801 0,4.228 2.676,7.953 6.663,9.265 L 0,0 Z m 36.613,4.687 c -0.902,4.846 -5.119,8.35 -10.066,8.35 -1.422,0 -2.85,-0.301 -4.143,-0.869 -2.59,3.738 -6.83,5.965 -11.369,5.965 -7.635,0 -13.846,-6.209 -13.846,-13.84 0,-1.008 0.112,-2.016 0.332,-2.998 -4.357,-1.842 -7.166,-6.094 -7.166,-10.871 0,-4.477 2.614,-8.643 6.641,-10.61 1.793,-1.13 4.082,-1.691 7.666,-1.88 l 26.549,0 0.037,0.002 c 1.539,0.091 4.984,0.544 6.992,1.593 5.108,1.991 8.41,6.825 8.41,12.317 0,6.121 -4.123,11.386 -10.037,12.841" /></g></g></g></g></svg>