<?xml version="1.0" encoding="UTF-8" standalone="no"?>
<svg xmlns:dc="http://purl.org/dc/elements/1.1/" xmlns:cc="http://creativecommons.org/ns#" xmlns:rdf="http://www.w3.org/1999/02/22-rdf-syntax-ns#" xmlns:svg="http://www.w3.org/2000/svg" xmlns="http://www.w3.org/2000/svg" viewBox="0 0 173.75 168.75" height="168.75" width="173.75" xml:space="preserve" version="1.1" id="svg2"><metadata id="metadata8"><rdf:RDF><cc:Work rdf:about=""><dc:format>image/svg+xml</dc:format><dc:type rdf:resource="http://purl.org/dc/dcmitype/StillImage" /><dc:title></dc:title></cc:Work></rdf:RDF></metadata><defs id="defs6"><clipPath id="clipPath16" clipPathUnits="userSpaceOnUse"><path id="path18" d="M 0,135 139,135 139,0 0,0 0,135 Z" /></clipPath></defs><g transform="matrix(1.25,0,0,-1.25,0,168.75)" id="g10"><g id="g12"><g clip-path="url(#clipPath16)" id="g14"><g transform="translate(71.464,84.659)" id="g20"><path id="path22" style="fill:#ffffff;fill-opacity:1;fill-rule:nonzero;stroke:none" d="m 0,0 -7.482,0 0,-34.327 7.482,0 c 10.989,0 18.283,6.173 18.283,17.069 l 0,0.188 C 18.283,-6.265 10.989,0 0,0" /></g><g transform="translate(108.602,67.693)" id="g24"><path id="path26" style="fill:#ffffff;fill-opacity:1;fill-rule:nonzero;stroke:none" d="m 0,0 c 0,-19.477 -13.931,-33.946 -37.799,-33.945 l -25.201,0 0,67.5 25.58,0 C -13.736,33.555 0,19.666 0,0.188 L 0,0 Z m -36.567,67.307 c -36.987,0 -66.971,-30.223 -66.971,-67.5 0,-9.994 2.17,-19.469 6.038,-28.004 l -11.102,-27.401 28.737,3.926 c 11.677,-9.985 26.78,-16.021 43.298,-16.021 36.985,0 66.965,30.216 66.965,67.5 0,37.277 -29.981,67.5 -66.965,67.5" /></g></g></g></g></svg>