<?xml version="1.0" encoding="UTF-8" standalone="no"?>
<svg xmlns:dc="http://purl.org/dc/elements/1.1/" xmlns:cc="http://creativecommons.org/ns#" xmlns:rdf="http://www.w3.org/1999/02/22-rdf-syntax-ns#" xmlns:svg="http://www.w3.org/2000/svg" xmlns="http://www.w3.org/2000/svg" viewBox="0 0 35.151501 40" height="32" width="29" xml:space="preserve" version="1.1" id="svg2"><metadata id="metadata8"><rdf:RDF><cc:Work rdf:about=""><dc:format>image/svg+xml</dc:format><dc:type rdf:resource="http://purl.org/dc/dcmitype/StillImage" /><dc:title></dc:title></cc:Work></rdf:RDF></metadata><defs id="defs6"><clipPath id="clipPath16" clipPathUnits="userSpaceOnUse"><path id="path18" d="m 0,32 28.121,0 0,-32 L 0,0 0,32 Z" /></clipPath></defs><g transform="matrix(1.25,0,0,-1.25,0,40)" id="g10"><g style="stroke:#0072c6;stroke-opacity:1" id="g12"><g style="stroke:#0072c6;stroke-opacity:1" clip-path="url(#clipPath16)" id="g14"><g style="stroke:#0072c6;stroke-opacity:1" transform="translate(8.3799,24.0801)" id="g20"><path id="path22" style="fill:none;stroke:#0072c6;stroke-width:2;stroke-linecap:butt;stroke-linejoin:miter;stroke-miterlimit:10;stroke-dasharray:none;stroke-opacity:1" d="m 0,0 c -4.33,-1.811 -7.38,-6.09 -7.38,-11.08 0,-6.63 5.37,-12 12,-12 6.29,0 11.45,4.84 11.96,11" /></g><g style="stroke:#0072c6;stroke-opacity:1" transform="translate(17.6201,24.0801)" id="g24"><path id="path26" style="fill:none;stroke:#0072c6;stroke-width:2;stroke-linecap:butt;stroke-linejoin:miter;stroke-miterlimit:10;stroke-dasharray:none;stroke-opacity:1" d="M 0,0 C 4.04,-1.69 6.96,-5.53 7.33,-10.08" /></g><g style="stroke:#0072c6;stroke-opacity:1" transform="translate(11,23)" id="g28"><path id="path30" style="fill:none;stroke:#0072c6;stroke-width:2;stroke-linecap:butt;stroke-linejoin:miter;stroke-miterlimit:10;stroke-dasharray:none;stroke-opacity:1" d="M 0,0 0,4 -3,4 -3,8 7,8 7,4 4,4 4,0" /></g><g style="stroke:#0072c6;stroke-opacity:1" transform="translate(23,24)" id="g32"><path id="path34" style="fill:none;stroke:#0072c6;stroke-width:2;stroke-linecap:butt;stroke-linejoin:miter;stroke-miterlimit:10;stroke-dasharray:none;stroke-opacity:1" d="M 0,0 3,3" /></g><g style="stroke:#0072c6;stroke-opacity:1" transform="translate(27.4141,25.5859)" id="g36"><path id="path38" style="fill:none;stroke:#0072c6;stroke-width:2;stroke-linecap:butt;stroke-linejoin:miter;stroke-miterlimit:10;stroke-dasharray:none;stroke-opacity:1" d="M 0,0 -2.828,2.828" /></g><g style="stroke:#0072c6;stroke-opacity:1" transform="translate(13,21)" id="g40"><path id="path42" style="fill:none;stroke:#0072c6;stroke-width:2;stroke-linecap:butt;stroke-linejoin:miter;stroke-miterlimit:10;stroke-dasharray:none;stroke-opacity:1" d="m 0,0 0,-8 8,0" /></g></g></g></g></svg>