<?xml version="1.0" encoding="UTF-8" standalone="no"?>
<svg xmlns:dc="http://purl.org/dc/elements/1.1/" xmlns:cc="http://creativecommons.org/ns#" xmlns:rdf="http://www.w3.org/1999/02/22-rdf-syntax-ns#" xmlns:svg="http://www.w3.org/2000/svg" xmlns="http://www.w3.org/2000/svg" viewBox="0 0 74.695999 43.94775" height="43.94775" width="74.695999" xml:space="preserve" version="1.1" id="svg2"><metadata id="metadata8"><rdf:RDF><cc:Work rdf:about=""><dc:format>image/svg+xml</dc:format><dc:type rdf:resource="http://purl.org/dc/dcmitype/StillImage" /><dc:title></dc:title></cc:Work></rdf:RDF></metadata><defs id="defs6"><clipPath id="clipPath18" clipPathUnits="userSpaceOnUse"><path id="path20" d="m 0,35.158 59.757,0 L 59.757,0 0,0 0,35.158 Z" /></clipPath></defs><g transform="matrix(1.25,0,0,-1.25,0,43.94775)" id="g10"><path id="path12" style="fill:#ffffff;fill-opacity:1;fill-rule:nonzero;stroke:none;stroke-opacity:1" d="m 48.822,5.207 -37.886,0 0,25.203 37.886,0 0,-25.203 z M 9.475,3.744 l 40.807,0 0,28.131 -40.807,0 0,-28.131 z" /><g style="stroke:none;stroke-opacity:1;fill:#ffffff;fill-opacity:1" id="g14"><g style="stroke:none;stroke-opacity:1;fill:#ffffff;fill-opacity:1" clip-path="url(#clipPath18)" id="g16"><g style="stroke:none;stroke-opacity:1;fill:#ffffff;fill-opacity:1" transform="translate(57.8164,1.6016)" id="g22"><path id="path24" style="fill:#ffffff;fill-opacity:1;fill-rule:nonzero;stroke:none;stroke-opacity:1" d="m 0,0 c -2.594,-0.014 -25.779,-0.129 -41.365,-0.129 -10.137,0 -13.254,0.049 -14.129,0.088 L -55.931,0 c -0.227,0 -0.412,0.186 -0.412,0.412 0,0.229 0.185,0.414 0.412,0.414 l 6.749,0 c -0.437,0.028 -0.786,0.383 -0.786,0.826 l 0,29.582 c 0,0.016 0.009,0.03 0.009,0.045 l 0,0.211 c 0,0.326 0.267,0.59 0.592,0.59 l 42.707,0 c 0.291,0 0.522,-0.213 0.572,-0.49 0.051,-0.108 0.086,-0.227 0.086,-0.356 l 0,-29.582 c 0,-0.443 -0.349,-0.798 -0.785,-0.826 l 6.842,0 C 0.281,0.826 0.467,0.641 0.467,0.412 0.467,0.186 0.281,0 0,0 m 0.055,2.299 -4.69,0 c 0.028,0.135 0.041,0.269 0.041,0.408 l 0,28.783 c 0,1.139 -0.927,2.067 -2.066,2.067 l -42.707,0 c -1.139,0 -2.065,-0.928 -2.065,-2.067 l 0,-28.783 c 0,-0.139 0.014,-0.273 0.041,-0.408 l -4.54,0 c -1.04,0 -1.885,-0.846 -1.885,-1.887 0,-0.504 0.197,-0.978 0.553,-1.334 0.343,-0.34 0.791,-0.533 1.269,-0.549 0.301,-0.05 0.972,-0.078 4.246,-0.103 2.416,-0.018 5.91,-0.028 10.385,-0.028 15.611,0 38.783,0.116 41.418,0.127 1.039,0 1.885,0.848 1.885,1.887 0,1.041 -0.846,1.887 -1.885,1.887" /></g></g></g></g></svg>