<?xml version="1.0" encoding="UTF-8" standalone="no"?>
<svg xmlns:dc="http://purl.org/dc/elements/1.1/" xmlns:cc="http://creativecommons.org/ns#" xmlns:rdf="http://www.w3.org/1999/02/22-rdf-syntax-ns#" xmlns:svg="http://www.w3.org/2000/svg" xmlns="http://www.w3.org/2000/svg" viewBox="0 0 27.500626 39.859001" height="32" width="23" xml:space="preserve" version="1.1" id="svg2"><metadata id="metadata8"><rdf:RDF><cc:Work rdf:about=""><dc:format>image/svg+xml</dc:format><dc:type rdf:resource="http://purl.org/dc/dcmitype/StillImage" /><dc:title></dc:title></cc:Work></rdf:RDF></metadata><defs id="defs6"><clipPath id="clipPath16" clipPathUnits="userSpaceOnUse"><path id="path18" d="m 0,31.887 22.001,0 L 22.001,0 0,0 0,31.887 Z" /></clipPath></defs><g transform="matrix(1.25,0,0,-1.25,0,39.859)" id="g10"><g style="stroke:#0072c6;stroke-opacity:1" id="g12"><g style="stroke:#0072c6;stroke-opacity:1" clip-path="url(#clipPath16)" id="g14"><g style="stroke:#0072c6;stroke-opacity:1" transform="translate(3.929,13.4605)" id="g20"><path id="path22" style="fill:none;stroke:#0072c6;stroke-width:2;stroke-linecap:butt;stroke-linejoin:miter;stroke-miterlimit:10;stroke-dasharray:none;stroke-opacity:1" d="m 0,0 c -3.905,3.986 -3.905,10.45 0,14.437 3.907,3.987 10.237,3.986 14.143,0 3.904,-3.987 3.906,-10.449 0,-14.437" /></g><g style="stroke:#0072c6;stroke-opacity:1" transform="translate(16.0003,9.8868)" id="g24"><path id="path26" style="fill:none;stroke:#0072c6;stroke-width:2;stroke-linecap:butt;stroke-linejoin:miter;stroke-miterlimit:10;stroke-dasharray:none;stroke-opacity:1" d="m 0,0 -5,-8 -5,8" /></g><g style="stroke:#0072c6;stroke-opacity:1" transform="translate(16.0003,20.8868)" id="g28"><path id="path30" style="fill:none;stroke:#0072c6;stroke-width:2;stroke-linecap:butt;stroke-linejoin:miter;stroke-miterlimit:10;stroke-dasharray:none;stroke-opacity:1" d="m 0,0 c 0,-2.763 -2.238,-5 -5,-5 -2.762,0 -5,2.237 -5,5 0,2.762 2.238,5 5,5 2.762,0 5,-2.238 5,-5 z" /></g></g></g></g></svg>