<?xml version="1.0" encoding="UTF-8" standalone="no"?>
<svg xmlns:dc="http://purl.org/dc/elements/1.1/" xmlns:cc="http://creativecommons.org/ns#" xmlns:rdf="http://www.w3.org/1999/02/22-rdf-syntax-ns#" xmlns:svg="http://www.w3.org/2000/svg" xmlns="http://www.w3.org/2000/svg" viewBox="0 0 49.121124 74.946251" height="74.946251" width="49.121124" xml:space="preserve" version="1.1" id="svg2"><metadata id="metadata8"><rdf:RDF><cc:Work rdf:about=""><dc:format>image/svg+xml</dc:format><dc:type rdf:resource="http://purl.org/dc/dcmitype/StillImage" /><dc:title></dc:title></cc:Work></rdf:RDF></metadata><defs id="defs6"><clipPath id="clipPath16" clipPathUnits="userSpaceOnUse"><path id="path18" d="m 0,59.957 39.297,0 L 39.297,0 0,0 0,59.957 Z" /></clipPath></defs><g transform="matrix(1.25,0,0,-1.25,0,74.94625)" id="g10"><g style="fill:#ffffff;fill-opacity:1" id="g12"><g style="fill:#ffffff;fill-opacity:1" clip-path="url(#clipPath16)" id="g14"><g style="fill:#ffffff;fill-opacity:1" transform="translate(13.9687,37.459)" id="g20"><path id="path22" style="fill:#ffffff;fill-opacity:1;fill-rule:nonzero;stroke:none" d="m 0,0 c -0.244,-0.711 -0.518,-1.621 -0.648,-2.477 0.019,0.01 0.037,0.018 0.05,0.024 0.147,0.279 0.35,0.445 0.473,0.547 0.182,0.242 0.518,0.476 0.75,0.619 0.035,0.088 0.07,0.17 0.111,0.248 -0.164,0.242 -0.332,0.584 -0.429,0.797 -0.125,0.092 -0.2,0.148 -0.27,0.211 C 0.025,-0.021 0.014,-0.012 0,0 m -0.762,-4.461 -1.07,0.066 c -0.074,0.071 -0.188,0.172 -0.281,0.25 l -0.309,0.67 c 0.006,0.266 0.031,0.571 0.07,0.924 0.241,2.059 1.26,4.403 1.303,4.5 l 0.6,0.762 0.824,-0.572 C 0.668,1.773 1.045,1.324 1.143,1.23 1.184,1.197 1.232,1.164 1.275,1.133 1.449,1.006 1.689,0.832 1.805,0.521 1.852,0.402 2.057,-0.006 2.135,-0.111 2.301,-0.318 2.504,-0.588 2.504,-0.588 l 0.13,-0.534 -0.46,-0.814 C 2.098,-2.148 1.979,-2.469 1.629,-2.643 1.539,-2.691 1.303,-2.846 1.238,-2.91 1.166,-3.02 1.037,-3.125 0.943,-3.203 0.664,-3.699 0.262,-3.953 -0.041,-4.033 -0.088,-4.066 -0.572,-4.352 -0.762,-4.461" /></g><g style="fill:#ffffff;fill-opacity:1" transform="translate(8.9434,2.457)" id="g24"><path id="path26" style="fill:#ffffff;fill-opacity:1;fill-rule:nonzero;stroke:none" d="M 0,0 0.051,-0.145 C 0.143,-0.516 0.408,-0.727 0.797,-0.74 l 0.096,-0.002 c 1.043,0 1.793,0.533 2.007,1.428 0.108,0.451 0.176,0.89 0.211,1.175 0.063,0.434 0.108,0.827 0.114,1.067 L 3.236,3.199 3.221,3.395 3.236,3.49 3.215,3.768 c 0.014,0.107 0,0.265 -0.014,0.435 -0.008,0.074 -0.015,0.17 -0.015,0.246 0,0.059 -0.006,0.192 -0.012,0.319 L 3.172,4.842 3.18,4.914 C 3.199,5.074 3.184,5.271 3.166,5.498 3.145,5.777 3.123,6.072 3.133,6.414 c 0.01,0.357 0.09,1.041 0.193,1.9 0.119,0.991 0.237,1.997 0.268,2.676 0.072,1.522 -0.573,3.076 -0.6,3.141 -0.037,0.105 -0.07,0.215 -0.099,0.433 l -0.104,0.727 0.637,0.18 0.308,0.437 c -0.009,0.504 -0.019,1.16 -0.007,1.326 0.031,0.409 0.046,0.741 0.039,0.953 l -0.006,0.176 0.066,0.162 c 0.039,0.104 0.08,0.217 0.078,0.311 l -0.043,1.105 c 0.006,0.149 0.016,0.223 0.032,0.305 0.035,0.205 0.044,0.289 0.048,0.334 l 0.016,0.16 c 0.012,0.057 0.031,0.125 0.051,0.201 0.117,0.416 0.158,0.596 0.146,0.713 l -0.056,0.35 0.056,0.267 c 0.096,0.282 0.119,0.635 0.104,0.749 -0.014,0.126 -0.022,0.316 -0.026,0.414 l -0.005,0.15 0.048,0.146 c 0.051,0.151 0.078,0.305 0.077,0.436 -0.004,0.107 -0.024,0.385 -0.049,0.686 l -0.016,0.212 c -0.021,0.286 -0.043,0.561 -0.047,0.7 -0.006,0.343 -0.06,1.035 -0.146,1.459 -0.024,0.105 -0.047,0.474 -0.055,0.802 L 4.016,28.982 5.23,28.857 c 1.434,1.059 2.424,1.86 2.706,2.19 0.541,0.629 1.066,1.252 1.25,1.566 0.293,0.508 0.615,1.424 0.462,1.828 -0.13,0.344 -0.349,0.784 -0.529,1.063 -0.244,0.381 -0.976,1.533 -1.199,1.795 -0.143,0.176 -0.346,0.353 -0.522,0.51 L 7.146,38.027 7.07,38.195 c -0.043,0.092 -0.095,0.168 -0.134,0.229 l -0.104,0.17 c -0.074,0.127 -0.154,0.26 -0.195,0.316 -0.041,0.057 -0.102,0.131 -0.16,0.201 L 6.381,39.23 c -0.11,0.157 -0.188,0.286 -0.236,0.381 -0.038,0.084 -0.071,0.139 -0.122,0.217 -0.062,0.098 -0.113,0.178 -0.152,0.285 -0.254,0.635 -0.527,1.08 -0.73,1.172 -0.022,0.01 -0.243,0.102 -1.559,0.371 l -0.34,0.069 -0.191,0.287 C 2.646,42.559 2.324,42.977 2.102,43.18 l -0.456,0.416 0.358,0.793 c 0.019,0.035 0.037,0.078 0.047,0.127 l 0.06,0.17 c 0.022,0.05 0.035,0.103 0.035,0.146 l -0.007,0.211 0.093,0.258 c 0.024,0.043 0.034,0.099 0.034,0.172 l 0.06,0.306 c 0.016,0.041 0.024,0.09 0.022,0.137 l -0.02,0.121 0.012,0.17 -0.018,0.107 0.01,0.247 -0.023,0.123 0.015,0.242 -0.109,0.595 C 2.211,47.619 2.182,47.68 2.133,47.727 l -0.178,0.164 -0.062,0.234 c -0.02,0.074 -0.061,0.143 -0.116,0.189 L 1.59,48.555 C 1.562,48.604 1.529,48.646 1.488,48.676 L 1.256,48.902 C 1.225,48.934 1.189,48.959 1.148,48.979 L 0.957,49.1 c -0.035,0.029 -0.076,0.05 -0.125,0.064 l -0.26,0.123 C 0.508,49.334 0.428,49.361 0.35,49.361 l -0.12,-0.021 -0.175,0.01 -0.008,0 -0.074,-0.03 -0.215,0.026 -0.143,-0.045 -0.08,0.037 c -0.162,-0.006 -0.203,-0.02 -0.219,-0.029 l -0.3,-0.143 -0.182,-0.021 C -1.248,49.141 -1.328,49.109 -1.391,49.059 L -1.92,48.752 C -1.967,48.729 -2.008,48.697 -2.039,48.66 l -0.242,-0.191 c -0.047,-0.026 -0.09,-0.061 -0.119,-0.1 l -0.348,-0.457 c -0.051,-0.066 -0.076,-0.15 -0.076,-0.236 l 0.002,-0.156 -0.055,-0.147 c -0.012,-0.027 -0.019,-0.057 -0.021,-0.092 l 0.019,-0.047 -0.004,-0.064 0.039,-0.039 -0.045,-0.401 0.104,-0.589 -0.002,-0.108 0.191,-0.814 c 0.002,-0.074 0.014,-0.125 0.039,-0.174 l 0.362,-0.941 c 0.025,-0.065 0.064,-0.108 0.078,-0.12 L -1.596,43.5 c 0.129,-0.191 0.274,-0.359 0.428,-0.502 l 0.502,-0.465 -0.512,-0.849 -0.304,-0.108 -0.198,-0.144 -0.306,-0.034 c -0.159,-0.009 -0.352,-0.054 -0.67,-0.13 L -2.818,41.23 c -0.245,-0.044 -0.643,-0.183 -0.813,-0.39 -0.027,-0.031 -0.115,-0.166 -0.254,-0.43 l -0.25,-0.375 C -4.246,39.93 -4.334,39.752 -4.352,39.646 l -0.062,-0.205 c -0.074,-0.164 -0.25,-0.478 -0.406,-0.752 l -0.063,-0.111 c -0.06,-0.099 -0.119,-0.221 -0.179,-0.34 l -0.313,-0.504 c -0.072,-0.07 -0.123,-0.148 -0.146,-0.224 l -0.135,-0.264 c -0.115,-0.154 -0.18,-0.242 -0.225,-0.31 -0.297,-0.475 -0.646,-1.069 -0.734,-1.286 l -0.137,-0.314 -0.143,-0.123 c -0.087,-0.076 -0.121,-0.172 -0.156,-0.287 l -0.058,-0.145 c -0.08,-0.156 -0.19,-0.367 -0.145,-0.537 0.043,-0.158 0.231,-0.744 0.297,-0.935 0.305,-0.883 0.719,-1.666 1.16,-2.204 0.518,-0.625 1.094,-1.236 1.326,-1.478 L -4.17,29.314 -4.252,28.887 C -4.4,28.111 -4.486,27.49 -4.512,26.988 -4.559,26.141 -4.541,24.797 -4.535,24.309 l 0.234,-0.62 c 0.133,-0.654 0.459,-2.308 0.602,-3.544 0.146,-1.219 0.263,-2.282 0.31,-2.704 l 0.006,-0.06 0.217,-0.352 0.26,-0.197 0.06,-0.32 c 0.057,-0.307 0.096,-0.584 0.114,-0.797 l 0.021,-0.287 c 0.043,-0.688 0.107,-1.713 0.801,-3.83 0.217,-0.664 0.443,-1.293 0.642,-1.848 0.6,-1.656 0.942,-2.645 0.881,-3.367 L -0.406,6.174 -0.5,6.025 c -0.043,-0.171 0.105,0.397 0.113,0.358 L -0.504,5.576 -0.531,5.424 C -0.623,4.93 -0.713,4.592 -0.801,4.418 -0.867,4.309 -0.916,4.215 -0.973,4.104 L -1.242,3.771 C -1.568,3.129 -1.572,3.014 -1.572,2.963 L -1.58,2.826 C -1.635,2.445 -1.51,1.908 -1.207,1.668 -1.072,1.562 -0.885,1.496 -0.662,1.475 L 0.225,1.387 0.057,0.34 C 0.004,0.135 -0.002,0.039 0,0 m 0.893,-2.42 -0.137,0.002 c -1.119,0.035 -2.014,0.729 -2.313,1.781 l -0.039,0.094 c -0.062,0.189 -0.084,0.377 -0.084,0.561 -0.207,0.086 -0.398,0.199 -0.568,0.334 -0.848,0.666 -1.111,1.818 -0.998,2.679 0.019,0.418 0.125,0.764 0.558,1.602 l 0.276,0.344 c 0.037,0.072 0.074,0.136 0.103,0.189 0.022,0.066 0.057,0.197 0.102,0.434 -0.027,0.3 0.012,0.627 0.125,1.007 l 0.018,0.065 c -0.051,0.49 -0.432,1.541 -0.743,2.404 -0.244,0.672 -0.478,1.319 -0.699,1.998 -0.758,2.322 -0.832,3.475 -0.881,4.239 l -0.019,0.277 c -0.008,0.088 -0.022,0.197 -0.041,0.32 l -0.153,0.205 -0.287,0.516 c -0.123,0.191 -0.144,0.381 -0.17,0.613 -0.048,0.432 -0.166,1.49 -0.31,2.705 -0.127,1.1 -0.41,2.572 -0.553,3.274 l -0.049,0.099 -0.242,0.823 c -0.008,0.439 -0.031,1.953 0.022,2.931 0.025,0.479 0.093,1.039 0.21,1.703 -0.3,0.321 -0.722,0.785 -1.113,1.258 -0.566,0.688 -1.082,1.654 -1.453,2.723 -0.074,0.217 -0.283,0.869 -0.33,1.051 -0.199,0.742 0.082,1.363 0.238,1.673 0.063,0.192 0.192,0.536 0.492,0.854 0.239,0.523 0.7,1.262 0.844,1.494 0.063,0.096 0.145,0.211 0.227,0.322 0.097,0.25 0.246,0.485 0.437,0.688 l 0.008,0.017 0.006,-0.002 c 0.031,0.036 0.066,0.067 0.1,0.1 l 0.166,-0.18 -0.166,0.18 -0.273,-0.315 c 0.074,0.146 0.382,0.645 0.454,0.77 l 0.063,0.111 c 0.107,0.188 0.226,0.393 0.299,0.534 0.093,0.394 0.302,0.787 0.584,1.091 l 0.031,0.055 c 0.246,0.471 0.388,0.647 0.437,0.705 0.481,0.584 1.199,0.832 1.586,0.926 -0.154,0.16 -0.283,0.354 -0.379,0.564 -0.082,0.141 -0.152,0.303 -0.199,0.475 -0.033,0.082 -0.064,0.166 -0.09,0.252 -0.041,0.092 -0.072,0.186 -0.095,0.266 -0.098,0.226 -0.155,0.466 -0.166,0.714 -0.01,0.028 -0.018,0.055 -0.026,0.084 -0.103,0.223 -0.162,0.487 -0.172,0.752 l 0,0.03 0.002,0.052 c -0.002,0.006 -0.002,0.012 -0.002,0.018 -0.025,0.082 -0.043,0.166 -0.056,0.25 -0.016,0.043 -0.039,0.186 -0.045,0.324 0,0.063 0,0.115 0.002,0.162 l -0.008,0.106 c 0,0.066 0,0.115 0.002,0.158 l -0.008,0.111 c -0.002,0.252 0.027,0.467 0.084,0.664 0.025,0.375 0.152,0.741 0.365,1.047 0.031,0.055 0.072,0.117 0.115,0.178 0.049,0.104 0.178,0.27 0.34,0.418 0.135,0.162 0.297,0.303 0.477,0.416 0.131,0.129 0.277,0.24 0.439,0.33 0.123,0.094 0.268,0.174 0.422,0.238 0.262,0.186 0.567,0.309 0.885,0.358 0.258,0.135 0.559,0.211 0.867,0.219 l 0.088,-0.002 0.199,0.009 c 0.045,0 0.086,0 0.129,-0.004 0.088,0.008 0.193,0.008 0.297,0.004 0.451,0.049 0.912,-0.056 1.299,-0.289 0.189,-0.068 0.363,-0.162 0.523,-0.283 0.199,-0.103 0.381,-0.242 0.535,-0.408 l 0,0.002 c 0.006,0 0.051,-0.043 0.102,-0.1 0.162,-0.136 0.303,-0.301 0.418,-0.482 0.189,-0.197 0.34,-0.43 0.441,-0.686 0.245,-0.295 0.401,-0.658 0.438,-1.037 0.055,-0.15 0.09,-0.314 0.101,-0.48 0.012,-0.016 0.026,-0.155 0.026,-0.287 0,-0.045 -0.002,-0.088 -0.004,-0.133 0.006,-0.069 0.01,-0.137 0.01,-0.203 0,-0.053 0,-0.102 -0.004,-0.151 0.006,-0.06 0.01,-0.119 0.011,-0.177 0,-0.063 0,-0.124 -0.005,-0.186 C 4.021,46.072 4.027,46.016 4.027,45.959 4.033,45.744 4.004,45.521 3.939,45.311 3.926,45.111 3.885,44.922 3.82,44.744 3.805,44.484 3.754,44.258 3.664,44.049 L 3.646,43.984 C 3.82,43.779 4.012,43.531 4.234,43.236 5.498,42.971 5.713,42.873 5.844,42.813 6.279,42.611 6.852,42.191 7.436,40.717 7.545,40.568 7.613,40.443 7.666,40.322 7.674,40.313 7.709,40.26 7.73,40.227 l 0.043,-0.049 c 0.081,-0.096 0.172,-0.209 0.233,-0.295 0.057,-0.08 0.172,-0.264 0.267,-0.43 L 8.355,39.32 c 0.041,-0.062 0.098,-0.15 0.155,-0.254 0.25,-0.22 0.521,-0.472 0.703,-0.695 0.199,-0.234 0.584,-0.807 1.32,-1.961 0.242,-0.377 0.512,-0.918 0.686,-1.375 0.535,-1.418 -0.598,-3.295 -0.61,-3.312 C 10.395,31.355 9.932,30.791 9.211,29.953 8.811,29.488 7.736,28.609 6.012,27.346 L 5.803,27.195 C 5.877,26.701 5.916,26.119 5.922,25.799 5.924,25.684 5.943,25.443 5.963,25.191 L 5.979,24.984 C 6.006,24.643 6.029,24.324 6.033,24.197 6.039,23.871 5.98,23.574 5.918,23.352 5.92,23.309 5.922,23.268 5.928,23.23 5.973,22.877 5.924,22.373 5.809,21.941 L 5.822,21.855 C 5.875,21.42 5.783,21.047 5.648,20.566 L 5.617,20.447 C 5.609,20.355 5.592,20.215 5.555,20.004 L 5.584,18.896 C 5.594,18.549 5.516,18.264 5.449,18.07 5.447,17.822 5.434,17.494 5.404,17.117 5.393,16.943 5.41,16.127 5.42,15.719 L 5.426,15.441 5.266,15.164 4.707,14.371 C 4.937,13.688 5.338,12.318 5.271,10.914 5.238,10.174 5.117,9.137 5.006,8.223 4.904,7.369 4.82,6.674 4.811,6.369 4.805,6.096 4.824,5.857 4.836,5.666 4.861,5.363 4.885,5.084 4.854,4.785 4.861,4.646 4.865,4.512 4.865,4.449 4.891,4.152 4.91,3.916 4.893,3.68 L 4.896,3.648 C 4.914,3.518 4.916,3.441 4.916,3.432 L 4.887,2.596 C 4.865,2.326 4.828,1.988 4.773,1.635 4.734,1.322 4.658,0.814 4.533,0.293 4.139,-1.354 2.709,-2.42 0.893,-2.42" /></g><g style="fill:#ffffff;fill-opacity:1" transform="translate(23.5508,2.5059)" id="g28"><path id="path30" style="fill:#ffffff;fill-opacity:1;fill-rule:nonzero;stroke:none" d="m 0,0 c 0.15,-0.209 0.604,-0.613 1.02,-0.777 0.07,-0.028 1.017,-0.024 1.599,0.107 l -0.047,0.145 c -0.009,0.037 -0.033,0.15 -0.043,0.298 -0.035,0.12 -0.175,0.563 -0.728,2.01 l -0.125,0.33 0.146,0.319 c 0.082,0.173 0.157,0.492 0.203,0.746 l -0.08,0.158 0,0.678 c 0,0.472 1.053,6.58 1.174,7.275 0.213,1.232 0.975,5.441 1.311,7.295 l 0.857,4.746 0.797,-4.756 c 0.051,-0.306 0.1,-0.603 0.123,-0.703 0.07,-0.299 0.211,-1.439 0.211,-2.047 0,-0.467 0.307,-2.902 0.465,-4.021 C 6.998,11.008 7.34,8.059 7.307,7.297 7.295,7.02 7.434,6.424 7.535,5.988 7.652,5.502 7.725,5.187 7.725,4.949 7.725,4.922 7.738,4.805 7.811,4.635 L 7.918,4.375 7.848,4.104 C 7.807,3.934 7.758,3.742 7.744,3.648 7.736,3.596 7.732,3.494 7.732,3.393 8.041,3.297 8.539,3.197 8.756,3.174 8.746,3.18 8.793,3.199 8.854,3.232 L 9.26,3.457 9.668,3.23 C 9.871,3.117 10.41,2.813 10.725,2.619 11.02,2.455 12.672,2.053 13.281,2.053 c 0.174,0 0.412,0.093 0.602,0.199 C 13.666,2.375 13.219,2.6 12.307,3.016 11.824,3.236 11.381,3.615 11.16,3.824 L 10.9,4.518 c 0,0.017 -0.005,0.064 -0.025,0.132 L 10.748,4.742 10.666,5.02 c -0.029,0.101 -0.102,0.369 -0.17,0.882 l -0.021,0.147 c -0.209,1.508 -0.487,3.572 -0.487,4.322 0,0.797 -0.271,4.928 -0.328,5.549 -0.049,0.506 0.074,1.385 0.278,2.773 l 0.14,0.991 c 0.131,0.957 0.254,3.572 0.322,5.699 l 0.016,0.459 0.229,0.135 c 0.001,0.468 -0.063,1.82 -0.432,5.716 -0.002,0.084 -0.002,0.178 0.016,0.287 -0.028,0.124 -0.11,0.452 -0.37,1.274 l -0.029,0.127 -0.158,1.057 0.01,0.017 -0.389,0.77 0.818,0.41 c 0.209,0.103 0.6,0.293 0.891,0.394 0.25,0.084 1.103,0.575 1.467,0.784 l 0.183,0.107 c 0.039,0.119 0.1,0.406 0.151,1.082 0.008,0.129 0.017,0.225 0.023,0.258 0.02,0.082 0.029,0.135 0.033,0.166 -0.045,0.094 -0.093,0.215 -0.148,0.359 -0.059,0.156 -0.119,0.313 -0.195,0.496 -0.09,0.199 -0.26,0.662 -0.436,1.141 l -0.062,0.168 c -0.192,0.521 -0.372,1.01 -0.44,1.16 -0.029,0.064 -0.301,0.654 -0.336,1.148 -0.086,0.114 -0.181,0.258 -0.217,0.461 -0.08,0.25 -0.148,0.455 -0.173,0.715 -0.012,0.078 -0.102,0.268 -0.141,0.35 -0.061,0.127 -0.131,0.301 -0.139,0.334 l -0.078,0.172 c -0.107,0.14 -0.156,0.293 -0.213,0.47 -0.041,0.133 -0.068,0.221 -0.101,0.307 -0.248,0.119 -0.715,0.32 -1.032,0.387 -0.425,0.092 -1.455,0.459 -2.503,0.84 l -0.26,0.097 c -0.588,0.211 -0.979,0.596 -0.996,0.612 l -0.151,0.205 0.106,0.94 0.045,0.396 c 0.066,0.046 0.132,0.097 0.195,0.154 0.146,0.131 0.478,0.81 0.689,2.449 l 0.096,0.443 c 0.16,0.702 0.242,1.506 0.176,1.723 -0.029,0.055 -0.078,0.172 -0.129,0.307 -0.145,0.359 -0.326,0.812 -0.687,0.965 -0.848,0.359 -1.497,0.548 -1.7,0.548 L 3.469,55.705 C 3.057,55.59 2.855,55.166 2.787,55.102 2.682,54.811 2.314,52.9 2.441,52.313 2.604,51.572 2.863,50.66 2.902,50.521 L 3.207,49.453 3.199,49.309 C 3.189,49.146 3.166,49.01 3.127,48.893 3.072,48.727 2.977,48.463 2.898,48.248 L 2.26,47.831 1.459,47.531 C 1.355,47.447 1.223,47.332 1.051,47.178 L 0.846,47.043 C -0.67,46.334 -2.479,45.424 -2.764,45.189 -2.859,44.975 -2.895,43.727 -2.82,42.844 l 0.054,-0.735 c 0.063,-0.841 0.225,-3.078 0.338,-3.468 0.102,-0.364 0.438,-1.215 0.998,-2.53 0.137,-0.322 0.41,-0.49 0.491,-0.537 l 0.521,-0.291 -0.105,-0.59 c -0.02,-0.109 -0.049,-0.302 -0.049,-0.513 0,-0.196 0.008,-0.567 0.013,-0.885 l 0.002,-0.77 c -0.005,-0.029 0.084,0.438 0,0 l -0.134,-1.252 0.045,-0.431 c 0.037,-0.362 0.101,-1.074 0.101,-1.766 0,-0.379 -0.014,-1.103 -0.031,-1.838 -0.014,-0.674 -0.041,-1.927 -0.028,-2.127 l 0.264,-0.242 0.045,-0.416 c 0.002,-0.037 0.084,-3.771 0.057,-4.986 C -0.26,18.57 -0.537,16.318 -0.797,14.279 -0.85,13.855 -0.891,13.533 -0.91,13.371 -0.977,12.754 -0.844,8.65 -0.795,7.488 l 0.02,-0.486 c 0.019,-0.613 0.062,-1.871 0.15,-2.195 0.053,-0.188 0.107,-0.53 0.16,-0.891 0.067,-0.437 0.151,-0.984 0.248,-1.252 L -0.135,2.443 -0.18,2.209 C -0.201,2.039 -0.105,1.389 -0.049,1.203 0.061,0.842 0.045,0.338 0,0 m 1.43,-2.506 c -0.397,0 -0.743,0.057 -1.024,0.166 -0.814,0.32 -2.306,1.416 -2.082,2.496 0.033,0.158 0.041,0.465 0.02,0.561 -0.065,0.197 -0.227,0.99 -0.199,1.562 -0.122,0.407 -0.2,0.924 -0.27,1.387 -0.043,0.287 -0.08,0.551 -0.121,0.699 -0.129,0.477 -0.17,1.446 -0.209,2.569 L -2.473,7.41 c -0.002,0.059 -0.205,5.246 -0.105,6.145 0.017,0.168 0.06,0.5 0.115,0.931 0.17,1.344 0.524,4.135 0.545,5.02 0.022,0.922 -0.027,3.556 -0.049,4.613 -0.178,0.256 -0.287,0.555 -0.31,0.871 -0.018,0.242 -0.006,0.93 0.023,2.285 0.016,0.719 0.031,1.428 0.031,1.801 0,0.473 -0.037,0.971 -0.066,1.305 -0.193,0.277 -0.264,0.631 -0.193,0.996 0.043,0.232 0.201,1.07 0.257,1.363 -0.027,0.321 -0.027,0.776 -0.027,1.44 0,0.091 0.004,0.181 0.01,0.267 -0.258,0.221 -0.529,0.53 -0.707,0.946 -0.406,0.953 -0.93,2.207 -1.096,2.789 -0.131,0.463 -0.244,1.746 -0.394,3.806 l -0.055,0.713 c -0.047,0.469 -0.246,2.918 0.58,3.711 0.412,0.401 2.344,1.352 3.935,2.1 0.815,0.72 1.127,0.867 1.459,0.877 l -0.187,0.656 c -0.049,0.166 -0.318,1.127 -0.492,1.908 -0.24,1.104 0.295,3.486 0.529,3.967 0.084,0.168 0.328,0.662 1.518,1.049 0.222,0.213 0.507,0.365 0.826,0.443 0.117,0.027 0.232,0.039 0.355,0.039 0.621,0 1.621,-0.369 2.352,-0.68 1.01,-0.425 1.39,-1.378 1.596,-1.89 C 8.01,54.793 8.035,54.727 8.059,54.68 8.395,54.012 8.217,52.779 8.008,51.859 L 7.924,51.494 C 7.717,49.855 7.375,49.01 7.098,48.557 l 0.125,-0.045 c 0.47,-0.172 1.91,-0.698 2.275,-0.776 0.551,-0.115 1.197,-0.414 1.383,-0.502 0.014,-0.005 0.578,-0.246 0.849,-0.884 0.059,-0.147 0.104,-0.287 0.143,-0.418 l 0.008,-0.026 c 0.178,-0.213 0.287,-0.484 0.326,-0.732 l 0.02,-0.029 c 0.105,-0.219 0.265,-0.553 0.296,-0.909 0.006,-0.064 0.032,-0.142 0.065,-0.244 0.017,-0.053 0.031,-0.103 0.045,-0.152 0.125,-0.172 0.285,-0.449 0.285,-0.844 0.006,-0.064 0.084,-0.326 0.182,-0.537 0.08,-0.172 0.281,-0.713 0.492,-1.289 l 0.062,-0.168 c 0.164,-0.443 0.323,-0.871 0.403,-1.059 0.089,-0.209 0.156,-0.386 0.213,-0.533 0.046,-0.125 0.074,-0.201 0.097,-0.25 0.192,-0.297 0.233,-0.73 0.1,-1.248 l 0.012,-0.025 c -0.081,-1.069 -0.2,-1.977 -0.875,-2.358 L 13.318,35.365 C 12.563,34.93 11.916,34.564 11.547,34.439 11.521,34.43 11.492,34.42 11.465,34.41 11.453,34.326 11.436,34.246 11.41,34.166 l 0.07,-0.471 c 0.458,-1.449 0.475,-1.693 0.415,-1.943 0.58,-6.133 0.462,-6.313 0.25,-6.639 -0.024,-0.039 -0.049,-0.076 -0.077,-0.111 -0.045,-1.322 -0.164,-4.373 -0.326,-5.549 L 11.6,18.465 c -0.135,-0.924 -0.301,-2.055 -0.27,-2.387 0.059,-0.603 0.338,-4.795 0.338,-5.707 0,-0.478 0.156,-1.848 0.465,-4.07 l 0.025,-0.17 C 12.18,5.977 12.199,5.854 12.217,5.758 L 12.252,5.734 12.346,5.521 C 12.432,5.314 12.51,5.082 12.551,4.84 12.699,4.721 12.863,4.607 13.002,4.543 14.971,3.65 15.42,3.393 15.535,2.787 15.672,2.588 15.746,2.355 15.746,2.115 15.746,1.17 14.234,0.373 13.281,0.373 12.543,0.373 10.459,0.807 9.84,1.191 9.666,1.299 9.418,1.443 9.203,1.564 9.109,1.537 9.008,1.514 8.904,1.5 L 8.756,1.492 C 8.734,1.492 6.5,1.611 6.152,2.619 6.016,3.025 6.053,3.693 6.082,3.891 6.096,3.973 6.125,4.117 6.16,4.264 6.096,4.467 6.045,4.707 6.045,4.949 6.035,5.07 5.967,5.328 5.904,5.598 5.756,6.223 5.605,6.861 5.627,7.371 5.65,7.891 5.363,10.576 5.223,11.564 5.197,11.734 5.141,12.16 5.072,12.684 4.943,11.961 4.836,11.359 4.773,11.002 4.312,8.336 3.652,4.373 3.621,3.982 L 3.646,3.707 3.771,3.465 3.732,3.193 C 3.709,3.041 3.629,2.537 3.484,2.084 4.17,0.271 4.205,0.064 4.207,-0.102 4.383,-0.506 4.525,-1.035 4.354,-1.479 4.242,-1.76 4.031,-1.979 3.756,-2.092 3.543,-2.178 2.42,-2.506 1.43,-2.506" /></g></g></g></g></svg>