<?xml version="1.0" encoding="UTF-8" standalone="no"?>
<svg xmlns:dc="http://purl.org/dc/elements/1.1/" xmlns:cc="http://creativecommons.org/ns#" xmlns:rdf="http://www.w3.org/1999/02/22-rdf-syntax-ns#" xmlns:svg="http://www.w3.org/2000/svg" xmlns="http://www.w3.org/2000/svg" viewBox="0 0 55.402874 67.795372" height="67.795372" width="55.402874" xml:space="preserve" version="1.1" id="svg2"><metadata id="metadata8"><rdf:RDF><cc:Work rdf:about=""><dc:format>image/svg+xml</dc:format><dc:type rdf:resource="http://purl.org/dc/dcmitype/StillImage" /><dc:title></dc:title></cc:Work></rdf:RDF></metadata><defs id="defs6"><clipPath id="clipPath16" clipPathUnits="userSpaceOnUse"><path id="path18" d="m 0,54.236 44.322,0 L 44.322,0 0,0 0,54.236 Z" /></clipPath></defs><g transform="matrix(1.25,0,0,-1.25,0,67.795375)" id="g10"><g style="fill:#ffffff;fill-opacity:1" id="g12"><g style="fill:#ffffff;fill-opacity:1" clip-path="url(#clipPath16)" id="g14"><g style="fill:#ffffff;fill-opacity:1" transform="translate(6.1348,30.5273)" id="g20"><path id="path22" style="fill:#ffffff;fill-opacity:1;fill-rule:nonzero;stroke:none" d="m 0,0 c 1.303,-0.965 5.471,-3.852 10.275,-5.133 2.206,-0.59 4.424,-0.888 6.591,-0.888 4.702,0 10.32,2.167 15.044,5.802 0.475,0.676 0.725,1.453 0.725,2.254 l 0,15.731 c 0,2.283 -1.998,4.14 -4.455,4.14 l -0.307,0 c -3.177,-0.357 -7.408,-0.554 -11.847,-0.554 -4.42,0 -8.647,0.197 -11.913,0.558 L 3.879,21.906 c -2.463,0 -4.461,-1.857 -4.461,-4.14 l 0,-15.731 C -0.582,1.326 -0.381,0.625 0,0 m 15.334,-25.457 -0.039,-0.572 c -7.834,-0.086 -12.834,-0.875 -14.462,-1.367 1.75,-0.526 6.574,-1.331 15.193,-1.331 8.619,0 13.445,0.805 15.193,1.331 -1.635,0.494 -5.979,1.24 -13.879,1.316 l -0.617,0.008 -0.034,16.187 0.874,0.041 c 6.148,0.313 12.152,2.731 17.844,7.188 l 0.107,0.07 c 0.322,0.145 0.509,0.291 0.64,0.481 0.128,0.183 0.196,0.392 0.196,0.607 0,0.629 -0.565,1.143 -1.258,1.143 -0.343,0 -0.664,-0.124 -0.903,-0.35 L 34.118,-0.77 C 33.98,-0.893 33.646,-1.187 33.127,-1.59 l -4.642,-3.144 c -1.676,-0.909 -3.419,-1.612 -5.206,-2.1 -4.597,-1.389 -9.011,-1.23 -13.498,-0.035 -2.907,0.779 -4.919,1.697 -6.775,2.765 l -3.166,1.958 c -0.203,0.14 -0.332,0.236 -0.367,0.263 l -0.668,0.479 c -0.287,0.205 -0.576,0.418 -0.867,0.636 -0.922,0.846 -2.236,0.217 -2.235,-0.73 0,-0.215 0.067,-0.424 0.193,-0.606 0.12,-0.167 0.276,-0.3 0.462,-0.396 l 0.158,-0.1 C -1.042,-4.588 5.6,-9.275 14.502,-9.828 l 0.861,-0.053 -0.029,-15.576 m 0.692,-5.07 c -5.303,0 -17.641,0.304 -17.641,3.127 0,2.291 8.09,2.957 15.14,3.101 l 0,12.74 c -8.939,0.813 -15.579,5.467 -18.099,7.506 -0.418,0.227 -0.78,0.549 -1.047,0.932 l -0.445,0.641 0.088,0.058 c -0.104,0.297 -0.157,0.608 -0.157,0.924 0,1.623 1.389,2.943 3.096,2.943 0.225,0 0.444,-0.021 0.658,-0.066 -0.025,0.217 -0.038,0.435 -0.038,0.656 l 0,15.731 c 0,3.275 2.822,5.943 6.292,5.943 l 0.307,0 c 3.307,-0.361 7.49,-0.559 11.846,-0.559 4.359,0 8.529,0.198 11.744,0.553 l 0.404,0.006 c 3.475,0 6.297,-2.668 6.297,-5.943 l 0,-15.731 c 0,-0.221 -0.013,-0.439 -0.037,-0.656 0.213,0.045 0.433,0.066 0.658,0.066 1.707,0 3.096,-1.32 3.096,-2.943 0,-0.578 -0.178,-1.139 -0.514,-1.621 -0.302,-0.434 -0.72,-0.783 -1.209,-1.016 -5.703,-4.443 -11.735,-6.947 -17.938,-7.449 l 0,-12.715 c 7.051,-0.144 15.141,-0.81 15.141,-3.101 0,-2.823 -12.338,-3.127 -17.642,-3.127" /></g></g></g></g></svg>